<?xml version="1.0" standalone="no"?>
<!DOCTYPE svg PUBLIC "-//W3C//DTD SVG 1.1//EN" "http://www.w3.org/Graphics/SVG/1.1/DTD/svg11.dtd">
<svg xmlns="http://www.w3.org/2000/svg"><metadata>This SVG WebFont was generated by YouWorkForThem.
Copyright (c) 2021 by ATKÂ® Studio. All rights reserved.</metadata><defs><font horiz-adv-x="640" id="ywftsvg"><font-face ascent="800" bbox="26 -256 614 986" cap-height="700" descent="-200" font-family="" font-stretch="normal" font-weight="600" panose-1="0 0 0 0 0 0 0 0 0 0" underline-position="0" underline-thickness="0" unicode-range="U+000D-25C4" units-per-em="1000" x-height="700"/><missing-glyph horiz-adv-x="500"/><glyph glyph-name=".notdef" horiz-adv-x="500"/><glyph glyph-name="glyph1" horiz-adv-x="0"/><glyph glyph-name="glyph3" horiz-adv-x="0"/><glyph glyph-name="glyph3" horiz-adv-x="0"/><glyph glyph-name="space" unicode=" "/><glyph d="M375 646v-398q0 -23 -16 -38t-39 -15t-39 15t-16 38v398q0 23 16 38.5t39 15.5t39 -15.5t16 -38.5zM339 0h-39q-23 0 -38.5 15.5t-15.5 38.5v39q0 23 15.5 38t38.5 15h39q23 0 39 -15t16 -38v-39q0 -23 -16 -38.5t-39 -15.5z" glyph-name="exclam" unicode="!"/><glyph d="M288 646v-135q0 -23 -16 -38t-40 -15q-23 0 -38.5 15t-15.5 38v135q0 23 15.5 38.5t38.5 15.5q24 0 40 -15.5t16 -38.5zM463 646v-135q0 -23 -16 -38t-40 -15q-23 0 -38.5 15t-15.5 38v135q0 23 15.5 38.5t38.5 15.5t39.5 -15.5t16.5 -38.5z" glyph-name="quotedbl" unicode="&quot;"/><glyph d="M146 60l17 133q0 4 -2 4h-13q-23 0 -38.5 15t-15.5 38t15.5 38.5t38.5 15.5h22q6 0 7 6l9 85v1q0 3 -3 3h-35q-23 0 -38.5 15.5t-15.5 38.5t15.5 38t38.5 15h46q4 2 6 6l15 140q2 20 18 34t36 14h5q20 0 34 -16.5t14 -37.5v-6l-14 -130q0 -4 3 -4h52q5 0 6 6l15 140 q2 20 18 34t36 14h6q20 -2 34 -17.5t14 -36.5v-6l-15 -130q0 -4 3 -4h13q23 0 38 -15t15 -38t-15 -38.5t-38 -15.5h-23q-4 0 -6 -6l-9 -85q0 -4 3 -4h35q23 0 38 -15.5t15 -38.5t-15 -38t-38 -15h-46q-5 0 -7 -6l-17 -143q-2 -20 -18 -34t-37 -14h-4q-20 0 -34 16.5 t-14 37.5v6l16 133v1q0 3 -2 3h-52q-6 0 -7 -6l-17 -143q-2 -20 -18 -34t-37 -14h-4q-21 0 -35 16.5t-14 37.5v6zM288 304h51q5 0 7 6l10 85v1q0 3 -3 3h-52q-5 0 -6 -6l-10 -85q0 -4 3 -4z" glyph-name="numbersign" unicode="#"/><glyph d="M230 700h30q4 0 4 5v13q0 23 16 38.5t39 15.5q24 0 39.5 -15.5t15.5 -38.5v-13q0 -5 5 -5h31q22 0 37 -17l84 -80q15 -15 15 -38v-45q0 -23 -15.5 -38t-38.5 -15q-24 0 -40 15t-16 38v12q0 10 -6 17l-35 36q-7 7 -16 7q-5 0 -5 -4v-179q0 -5 5 -5h31q24 0 37 -16l84 -82 q15 -15 15 -38v-132q0 -22 -15 -39l-84 -80q-15 -17 -37 -17h-31q-5 0 -5 -5v-13q0 -23 -15.5 -38.5t-39.5 -15.5q-23 0 -39 15.5t-16 38.5v13q0 5 -4 5h-30q-22 0 -36 17l-84 80q-16 16 -16 39v44q0 23 16 38t39 15t39 -15t16 -38v-12q0 -10 7 -17l33 -36q7 -7 16 -7 q4 0 4 4v180q0 5 -4 5h-30q-22 0 -36 15l-84 82q-16 16 -16 38v133q0 22 16 38l84 80q14 17 36 17zM264 408v180q0 4 -3 4q-10 0 -17 -7l-33 -36q-7 -7 -7 -17v-67q0 -11 7 -18l33 -36q7 -7 16 -7q4 0 4 4zM374 293v-181q0 -4 4 -4q10 0 17 7l35 36q6 7 6 17v67q0 11 -6 18 l-35 37q-9 7 -16 7q-5 0 -5 -4z" glyph-name="dollar" unicode="$"/><glyph d="M436 555v91q0 23 16.5 38.5t39.5 15.5t38.5 -15.5t15.5 -38.5v-124q0 -22 -16 -38l-319 -321q-7 -7 -7 -18v-91q0 -23 -16 -38.5t-39 -15.5t-39 15.5t-16 38.5v124q0 21 17 38l319 321q6 7 6 18zM208 535h-59q-23 0 -39 15t-16 38v58q0 23 16 38.5t39 15.5h59 q22 0 37.5 -15.5t15.5 -38.5v-58q0 -23 -15.5 -38t-37.5 -15zM492 0h-60q-22 0 -37 15.5t-15 38.5v58q0 23 15 38t37 15h60q23 0 38.5 -15t15.5 -38v-58q0 -23 -15.5 -38.5t-38.5 -15.5z" glyph-name="percent" unicode="%"/><glyph d="M502 291v-153q0 -23 -16 -39l-81 -82q-15 -17 -39 -17h-134q-24 0 -38 17l-84 82q-16 16 -16 39v129q0 22 16 38l20 20q10 10 10 25q0 14 -10 24l-20 20q-16 16 -16 38v131q0 22 16 38l84 82q14 17 38 17h89q23 0 38 -16t15 -39t-15 -39t-38 -16h-57q-10 0 -17 -7 l-36 -36q-7 -7 -7 -16v-67q0 -10 7 -17l36 -37q8 -7 17 -7h126q5 0 5 5v24q0 23 15 38t38 15t38.5 -15t15.5 -38v-24q0 -5 5 -5h23q23 0 38.5 -15t15.5 -38t-15.5 -38.5t-38.5 -15.5h-23q-5 0 -5 -5zM395 169v122q0 5 -5 5h-126q-9 0 -17 -7l-36 -37q-7 -7 -7 -17v-66 q0 -9 7 -16l36 -36q7 -7 17 -7h70q10 0 17 7l37 36q7 8 7 16z" glyph-name="ampersand" unicode="&amp;"/><glyph d="M375 646v-135q0 -23 -16 -38t-39 -15t-39 15t-16 38v135q0 23 16 38.5t39 15.5t39 -15.5t16 -38.5z" glyph-name="quotesingle" unicode="'"/><glyph d="M362 63h31q23 0 38 -15t15 -38t-15 -38.5t-38 -15.5h-64q-25 0 -38 16l-82 81q-15 15 -15 38v517q0 23 15 38l82 81q13 16 38 16h64q23 0 38 -15t15 -38t-15 -38.5t-38 -15.5h-31q-11 0 -18 -7l-36 -36q-7 -7 -7 -18v-451q0 -11 7 -18l36 -36q7 -7 18 -7z" glyph-name="parenleft" unicode="("/><glyph d="M246 63h31q11 0 18 7l36 36q6 8 6 18v451q0 11 -6 18l-36 36q-7 7 -18 7h-31q-23 0 -38 15.5t-15 38.5t15 38t38 15h64q23 0 38 -16l84 -81q15 -15 15 -38v-517q0 -23 -15 -38l-84 -81q-15 -16 -38 -16h-64q-23 0 -38 15.5t-15 38.5t15 38t38 15z" glyph-name="parenright" unicode=")"/><glyph d="M243 638l21 -12q4 -2 7 -2q6 0 6 9v24q0 18 13 30.5t30 12.5q18 0 30.5 -12.5t12.5 -30.5v-24q0 -9 6 -9q3 0 7 2l21 12q7 4 21 4q18 0 30 -11.5t12 -29.5q0 -27 -21 -37l-20 -12q-6 -3 -6 -8q0 -4 6 -7l20 -12q21 -11 21 -37q0 -18 -11.5 -30t-30.5 -12q-13 0 -21 5 l-21 12q-1 0 -3 1t-3 1q-7 0 -7 -10v-23q0 -19 -12.5 -31t-30.5 -12t-30.5 12.5t-12.5 30.5v23q0 10 -7 10l-6 -2l-21 -12q-10 -5 -21 -5q-18 0 -30 12t-12 29q0 25 21 38l20 12q6 3 6 7q0 5 -6 8l-20 12q-21 14 -21 38q0 18 13 29.5t31 11.5q7 0 19 -5z" glyph-name="asterisk" unicode="*"/><glyph d="M409 402h43q23 0 38 -15t15 -38t-15 -38.5t-38 -15.5h-43q-14 0 -24 -10t-10 -24v-44q0 -23 -15.5 -38.5t-38.5 -15.5t-38.5 15.5t-15.5 38.5v44q0 14 -10 24t-24 10h-43q-23 0 -38.5 15.5t-15.5 38.5t15.5 38t38.5 15h43q14 0 24 10t10 24v44q0 23 15.5 38.5t38.5 15.5 t38.5 -15.5t15.5 -38.5v-44q0 -14 10 -24t24 -10z" glyph-name="plus" unicode="+"/><glyph d="M300 146h38q23 0 39 -15.5t16 -38.5v-95q0 -21 -17 -38l-41 -40q-10 -14 -33 -14q-18 0 -32 14q-13 13 -13 32q0 21 12 33l17 16q-17 5 -28 19.5t-11 33.5v39q0 23 15 38.5t38 15.5z" glyph-name="comma" unicode=","/><glyph d="M190 404h262q23 0 38 -15t15 -38t-15 -38.5t-38 -15.5h-262q-23 0 -38.5 15.5t-15.5 38.5t15.5 38t38.5 15z" glyph-name="hyphen" unicode="-"/><glyph d="M344 0h-48q-23 0 -38.5 15.5t-15.5 38.5v48q0 23 15.5 38.5t38.5 15.5h48q23 0 38.5 -15.5t15.5 -38.5v-48q0 -23 -15.5 -38.5t-38.5 -15.5z" glyph-name="period" unicode="."/><glyph d="M436 555v91q0 23 16.5 38.5t39.5 15.5t38.5 -15.5t15.5 -38.5v-124q0 -22 -16 -38l-319 -321q-7 -7 -7 -18v-91q0 -23 -16 -38.5t-39 -15.5t-39 15.5t-16 38.5v124q0 21 17 38l319 321q6 7 6 18z" glyph-name="slash" unicode="/"/><glyph d="M214 683h-1q15 17 38 17h139q21 0 37 -16l103 -104q16 -16 16 -38v-384q0 -23 -16 -39l-103 -103q-16 -16 -37 -16h-139q-22 0 -37 17l-104 103q-16 16 -16 38v384q0 22 16 38zM423 532v1q0 2 -2 4l-47 46q-7 7 -17 7h-73q-11 0 -18 -7l-55 -55q-7 -7 -7 -18v-184 q0 -8 4 -8q3 0 7 4l206 206q2 2 2 4zM220 163l46 -46q7 -7 18 -7h73q10 0 17 7l56 55q6 8 6 18v183q0 8 -4 8q-3 0 -7 -4l-205 -205q-2 -2 -2 -5q0 -2 2 -4z" glyph-name="zero" unicode="0"/><glyph d="M264 142v359q0 8 -4 8q-2 0 -6 -4l-25 -26q-15 -15 -38 -15t-38 15t-15 38t16 39l126 128q16 16 40 16q23 0 38.5 -15.5t15.5 -38.5v-504q0 -14 10 -24t24 -10h41q23 0 38 -15.5t15 -38.5t-15 -38.5t-38 -15.5h-258q-23 0 -38 15.5t-15 38.5t15 38.5t38 15.5h40 q14 0 23.5 10t9.5 24z" glyph-name="one" unicode="1"/><glyph d="M202 530v-11q0 -23 -15.5 -38t-38.5 -15t-38.5 15t-15.5 38v44q0 22 16 38l82 82q14 17 38 17h181q23 0 38 -17l82 -82q15 -18 15 -38v-60q0 -22 -15 -37l-322 -319q-5 -5 -5 -12q0 -11 10 -18t22 -7h257q23 0 38 -16t15 -39t-15 -39t-38 -16h-345q-23 0 -38.5 16 t-15.5 39v108q0 21 16 36l324 322q4 5 4 12t-4 12l-38 38q-7 7 -18 7h-115q-11 0 -18 -7l-36 -36q-7 -7 -7 -17z" glyph-name="two" unicode="2"/><glyph d="M202 531v-12q0 -23 -15.5 -38t-38.5 -15t-38.5 15t-15.5 38v44q0 22 16 38l82 82q14 17 38 17h179q23 0 38 -17l84 -82q15 -15 15 -38v-131q0 -23 -15 -38l-21 -20q-9 -9 -9 -24q0 -16 9 -25l21 -20q15 -15 15 -38v-130q0 -23 -15 -38l-84 -82q-15 -17 -38 -17h-179 q-24 0 -38 17l-82 82q-16 16 -16 38v44q0 23 15.5 37.5t38.5 14.5t38.5 -14.5t15.5 -37.5v-12q0 -9 7 -16l36 -36q7 -7 18 -7h113q11 0 18 7l36 36q6 7 6 16v66q0 9 -6 17l-36 37q-8 7 -18 7h-109q-23 0 -38.5 15.5t-15.5 38.5t15.5 38t38.5 15h109q10 0 18 7l36 37 q6 7 6 17v67q0 9 -6 16l-36 36q-7 7 -18 7h-113q-11 0 -18 -7l-36 -36q-7 -7 -7 -16z" glyph-name="three" unicode="3"/><glyph d="M264 383h139q14 0 23.5 10t9.5 24v229q0 23 16.5 38.5t39.5 15.5t38.5 -15.5t15.5 -38.5v-592q0 -23 -15.5 -38.5t-38.5 -15.5t-39.5 15.5t-16.5 38.5v185q0 14 -9.5 24t-23.5 10h-171q-24 0 -38 17l-84 82q-16 16 -16 39v235q0 23 16 38.5t39 15.5t39 -15.5t16 -38.5 v-203q0 -10 7 -17l35 -36q7 -7 18 -7z" glyph-name="four" unicode="4"/><glyph d="M204 181v-12q0 -10 7 -17l35 -35q7 -7 18 -7h113q11 0 18 7l35 35q6 8 6 17v88q0 9 -6 17l-35 35q-7 7 -18 7h-145q-25 0 -38 16l-84 83q-16 16 -16 39v191q0 23 16 39t39 16h343q23 0 38.5 -16t15.5 -39q0 -24 -15.5 -39.5t-38.5 -15.5h-255q-14 0 -23.5 -10t-9.5 -24 v-71q0 -12 7 -17l35 -35q7 -7 18 -7h144q24 0 39 -17l84 -82q15 -17 15 -38v-153q0 -20 -15 -37l-84 -82q-15 -17 -39 -17h-176q-24 0 -38 17l-84 82q-16 16 -16 37v45q0 22 16 37t39 15t39 -15t16 -37z" glyph-name="five" unicode="5"/><glyph d="M436 519v12q0 9 -6 16l-35 36q-7 7 -18 7h-113q-11 0 -18 -7l-35 -36q-7 -7 -7 -16v-93q0 -14 9.5 -24.5t23.5 -10.5h171q24 0 39 -15l84 -83q15 -15 15 -38v-130q0 -23 -15 -38l-84 -82q-15 -17 -39 -17h-176q-24 0 -38 17l-84 82q-16 16 -16 38v426q0 22 16 38l84 82 q14 17 38 17h176q24 0 39 -17l84 -82q15 -15 15 -38v-44q0 -23 -15.5 -38t-38.5 -15q-24 0 -40 15t-16 38zM204 261v-92q0 -9 7 -16l35 -36q7 -7 18 -7h113q11 0 18 7l35 36q6 7 6 16v66q0 9 -6 17l-35 37q-8 7 -18 7h-140q-14 0 -23.5 -10.5t-9.5 -24.5z" glyph-name="six" unicode="6"/><glyph d="M375 316v-262q0 -23 -15.5 -38.5t-38.5 -15.5q-24 0 -40 15.5t-16 38.5v295q0 22 16 38l151 148q6 6 6 18v3q0 14 -10 24t-24 10h-256q-23 0 -38.5 15.5t-15.5 39.5q0 23 15.5 39t38.5 16h345q23 0 38 -16t15 -39v-124q0 -21 -15 -38l-149 -150q-7 -7 -7 -17z" glyph-name="seven" unicode="7"/><glyph d="M409 0h-177q-24 0 -38 17l-84 82q-16 16 -16 38v130q0 23 16 38l20 20q10 10 10 25q0 14 -10 24l-20 20q-16 15 -16 38v131q0 22 16 38l84 82q14 17 38 17h177q23 0 38 -17l84 -82q15 -15 15 -38v-131q0 -23 -15 -38l-21 -20q-9 -9 -9 -24q0 -16 9 -25l21 -20 q15 -15 15 -38v-130q0 -23 -15 -38l-84 -82q-15 -17 -38 -17zM430 547l-35 36q-7 7 -18 7h-113q-11 0 -18 -7l-35 -36q-7 -7 -7 -16v-67q0 -10 7 -17l35 -37q8 -7 18 -7h113q10 0 18 7l35 37q6 7 6 17v67q0 9 -6 16zM430 252l-35 37q-8 7 -18 7h-113q-10 0 -18 -7l-35 -37 q-7 -7 -7 -17v-66q0 -9 7 -16l35 -36q7 -7 18 -7h113q11 0 18 7l35 36q6 7 6 16v66q0 9 -6 17z" glyph-name="eight" unicode="8"/><glyph d="M204 181v-12q0 -9 7 -16l35 -36q7 -7 18 -7h113q11 0 18 7l35 36q6 7 6 16v92q0 14 -9.5 24.5t-23.5 10.5h-171q-24 0 -38 15l-84 83q-16 15 -16 38v131q0 22 16 38l84 82q14 17 38 17h177q23 0 38 -17l84 -82q15 -15 15 -38v-426q0 -23 -15 -38l-84 -82q-15 -17 -38 -17 h-177q-24 0 -38 17l-84 82q-16 16 -16 38v44q0 23 15.5 37.5t39.5 14.5t39.5 -14.5t15.5 -37.5zM436 438v93q0 9 -6 16l-35 36q-7 7 -18 7h-113q-11 0 -18 -7l-35 -36q-7 -7 -7 -16v-67q0 -10 7 -17l35 -37q8 -7 18 -7h139q14 0 23.5 10.5t9.5 24.5z" glyph-name="nine" unicode="9"/><glyph d="M344 331h-48q-23 0 -38.5 15t-15.5 38v49q0 23 15.5 38t38.5 15h48q23 0 38.5 -15t15.5 -38v-49q0 -23 -15.5 -38t-38.5 -15zM344 0h-48q-23 0 -38.5 15.5t-15.5 38.5v48q0 23 15.5 38.5t38.5 15.5h48q23 0 38.5 -15.5t15.5 -38.5v-48q0 -23 -15.5 -38.5t-38.5 -15.5z " glyph-name="colon" unicode=":"/><glyph d="M343 331h-48q-23 0 -38.5 15t-15.5 38v49q0 23 15.5 38t38.5 15h48q23 0 38.5 -15t15.5 -38v-49q0 -23 -15.5 -38t-38.5 -15zM300 146h38q23 0 39 -15.5t16 -38.5v-95q0 -21 -17 -38l-41 -40q-10 -14 -33 -14q-18 0 -32 14q-13 13 -13 32q0 21 12 33l17 16 q-17 5 -28 19.5t-11 33.5v39q0 23 15 38.5t38 15.5z" glyph-name="semicolon" unicode=";"/><glyph d="M172 388l219 218q15 16 37 16t39 -15.5t17 -38.5q0 -22 -16 -37l-157 -158q-12 -11 -12 -24q0 -12 13 -25l155 -155q15 -15 15 -38t-15 -38.5t-38 -15.5q-24 0 -39 16l-218 217q-15 16 -15 39q0 24 15 39z" glyph-name="less" unicode="&lt;"/><glyph d="M190 505h262q23 0 38 -15t15 -38t-15 -38.5t-38 -15.5h-262q-23 0 -38.5 15.5t-15.5 38.5t15.5 38t38.5 15zM190 303h262q23 0 38 -15t15 -38t-15 -38.5t-38 -15.5h-262q-23 0 -38.5 15.5t-15.5 38.5t15.5 38t38.5 15z" glyph-name="equal" unicode="="/><glyph d="M250 606l218 -218q16 -16 16 -39t-16 -39l-217 -217q-16 -16 -39 -16t-38 15.5t-15 38.5q0 25 15 38l155 155q12 14 12 25q0 13 -11 24l-158 158q-15 15 -15 37q0 23 17 38.5t39 15.5q21 0 37 -16z" glyph-name="greater" unicode=">"/><glyph d="M546 563v-62q0 -23 -15 -38l-149 -150q-7 -7 -7 -17v-49q0 -23 -15.5 -38t-38.5 -15q-24 0 -40 15t-16 38v82q0 22 16 37l151 150q6 6 6 17q0 8 -4 12l-38 38q-7 7 -18 7h-115q-11 0 -18 -7l-36 -36q-7 -7 -7 -17v-11q0 -23 -15.5 -38t-38.5 -15t-38.5 15t-15.5 38v44 q0 22 16 38l82 82q14 17 38 17h181q23 0 38 -17l82 -82q15 -15 15 -38zM339 0h-39q-23 0 -38.5 15.5t-15.5 38.5v39q0 23 15.5 38t38.5 15h39q23 0 39 -15t16 -38v-39q0 -23 -16 -38.5t-39 -15.5z" glyph-name="question" unicode="?"/><glyph d="M381 303l16 -16q5 -7 17 -7h18q4 0 4 5v245q0 10 -6 17l-35 36q-7 7 -17 7h-117q-10 0 -17 -7l-33 -36q-7 -7 -7 -17v-360q0 -10 7 -17l33 -36q7 -7 17 -7h142q22 0 37.5 -16t15.5 -39t-15.5 -39t-37.5 -16h-173q-22 0 -36 17l-84 82q-16 16 -16 39v425q0 22 16 38l84 82 q14 17 36 17h179q23 0 38 -17l84 -82q15 -15 15 -38v-334q0 -23 -15.5 -39t-38.5 -16h-109q-23 0 -40 17l-63 60q-16 16 -16 38v163q0 23 15.5 37t39.5 14t39.5 -14t15.5 -37v-131q0 -11 7 -18z" glyph-name="at" unicode="@"/><glyph d="M546 542v-488q0 -23 -15.5 -38.5t-38.5 -15.5t-39.5 15.5t-16.5 38.5v185q0 14 -9.5 24t-23.5 10h-166q-14 0 -23.5 -10t-9.5 -24v-185q0 -23 -16 -38.5t-39 -15.5t-39 15.5t-16 38.5v488q0 22 16 38l104 103q15 17 37 17h139q21 0 37 -16l103 -104q16 -16 16 -38z M436 417v94q0 11 -6 17l-56 55q-7 7 -17 7h-73q-11 0 -18 -7l-55 -55q-7 -7 -7 -17v-94q0 -14 9.5 -24t23.5 -10h166q14 0 23.5 10t9.5 24z" glyph-name="A" unicode="A"/><glyph d="M531 394l-21 -20q-9 -9 -9 -24q0 -16 9 -25l21 -20q15 -15 15 -38v-129q0 -22 -15 -39l-84 -82q-15 -17 -39 -17h-259q-23 0 -39 16t-16 39v590q0 23 16 39t39 16h259q24 0 39 -17l84 -82q15 -15 15 -38v-131q0 -23 -15 -38zM395 410l35 37q6 7 6 17v67q0 9 -6 16l-35 36 q-7 7 -18 7h-140q-14 0 -23.5 -10t-9.5 -24v-118q0 -14 9.5 -24.5t23.5 -10.5h140q10 0 18 7zM395 117l35 36q6 7 6 16v66q0 9 -6 17l-35 37q-8 7 -18 7h-140q-14 0 -23.5 -10.5t-9.5 -24.5v-117q0 -14 9.5 -24t23.5 -10h140q11 0 18 7z" glyph-name="B" unicode="B"/><glyph d="M204 510v-320q0 -11 7 -18l56 -55q7 -7 18 -7h73q10 0 17 7l57 55q6 4 6 18v29q0 23 16 38.5t39 15.5t38 -15.5t15 -38.5v-61q0 -22 -16 -38l-101 -104q-16 -16 -38 -16h-139q-22 0 -39 17l-103 103q-16 16 -16 38v384q0 22 16 38l103 103q17 17 39 17h139q22 0 38 -16 l101 -104q16 -16 16 -38v-61q0 -23 -15 -38.5t-38 -15.5t-39 15.5t-16 38.5v29q0 14 -6 18l-57 55q-7 7 -17 7h-73q-11 0 -18 -7l-56 -55q-7 -7 -7 -18z" glyph-name="C" unicode="C"/><glyph d="M427 684l103 -104q16 -16 16 -38v-384q0 -22 -16 -38l-103 -104q-16 -16 -37 -16h-241q-23 0 -39 16t-16 39v590q0 23 16 39t39 16h241q21 0 37 -16zM374 117l56 55q6 8 6 18v320q0 10 -6 18l-56 55q-7 7 -17 7h-120q-14 0 -23.5 -10t-9.5 -24v-412q0 -14 9.5 -24 t23.5 -10h120q10 0 17 7z" glyph-name="D" unicode="D"/><glyph d="M94 55v590q0 23 16 39t39 16h344q23 0 38 -16t15 -39t-15 -39t-38 -16h-255q-14 0 -24 -10t-10 -24v-118q0 -14 10 -24.5t24 -10.5h189q23 0 38.5 -15t15.5 -38t-15.5 -38.5t-38.5 -15.5h-189q-14 0 -24 -10.5t-10 -24.5v-117q0 -14 10 -24t24 -10h255q23 0 38 -16 t15 -39t-15 -39t-38 -16h-344q-23 0 -39 16t-16 39z" glyph-name="E" unicode="E"/><glyph d="M204 262v-208q0 -23 -16 -38.5t-39 -15.5t-39 15.5t-16 38.5v591q0 23 16 39t39 16h344q23 0 38 -16t15 -39t-15 -39t-38 -16h-255q-14 0 -24 -10t-10 -24v-118q0 -14 10 -24.5t24 -10.5h189q23 0 38 -15t15 -38q0 -22 -15 -37.5t-38 -15.5h-189q-14 0 -24 -10.5 t-10 -24.5z" glyph-name="F" unicode="F"/><glyph d="M436 519v12q0 9 -6 16l-35 36q-7 7 -18 7h-113q-11 0 -18 -7l-35 -36q-7 -7 -7 -16v-362q0 -9 7 -16l35 -36q7 -7 18 -7h113q11 0 18 7l35 36q6 7 6 16v93q0 14 -9.5 24t-23.5 10h-57q-22 0 -38 15.5t-16 38.5t16 38t38 15h146q23 0 38.5 -15t15.5 -38v-212 q0 -22 -15 -39l-84 -82q-15 -17 -39 -17h-176q-24 0 -38 17l-84 82q-16 16 -16 39v425q0 22 16 38l84 82q14 17 38 17h176q24 0 39 -17l84 -82q15 -15 15 -38v-44q0 -23 -15.5 -38t-38.5 -15q-24 0 -40 15t-16 38z" glyph-name="G" unicode="G"/><glyph d="M546 646v-592q0 -23 -15.5 -38.5t-38.5 -15.5q-24 0 -40 15.5t-16 38.5v208q0 14 -9.5 24.5t-23.5 10.5h-166q-14 0 -23.5 -10.5t-9.5 -24.5v-208q0 -23 -16 -38.5t-39 -15.5t-39 15.5t-16 38.5v592q0 23 16 38.5t39 15.5t39 -15.5t16 -38.5v-208q0 -14 9.5 -24.5 t23.5 -10.5h166q14 0 23.5 10.5t9.5 24.5v208q0 23 16 38.5t40 15.5q23 0 38.5 -15.5t15.5 -38.5z" glyph-name="H" unicode="H"/><glyph d="M450 0h-259q-23 0 -38.5 15.5t-15.5 38.5t15.5 38.5t38.5 15.5h40q14 0 24 10t10 24v416q0 14 -10 24t-24 10h-40q-23 0 -38.5 15.5t-15.5 38.5t15.5 38.5t38.5 15.5h259q23 0 38 -15.5t15 -38.5t-15 -38.5t-38 -15.5h-41q-14 0 -24 -10t-10 -24v-416q0 -14 10 -24 t24 -10h41q23 0 38 -15.5t15 -38.5t-15 -38.5t-38 -15.5z" glyph-name="I" unicode="I"/><glyph d="M436 170v386q0 14 -9.5 24t-23.5 10h-83q-22 0 -37.5 16t-15.5 39t15.5 39t37.5 16h172q23 0 38.5 -16t15.5 -39v-507q0 -22 -15 -39l-84 -82q-15 -17 -38 -17h-177q-24 0 -38 17l-84 82q-16 16 -16 39v82q0 23 15.5 37.5t39.5 14.5t39.5 -14.5t15.5 -37.5v-50 q0 -10 7 -17l35 -36q7 -7 18 -7h113q11 0 18 7l35 36q6 7 6 17z" glyph-name="J" unicode="J"/><glyph d="M283 297h-46q-14 0 -23.5 -10.5t-9.5 -24.5v-208q0 -23 -16 -38.5t-39 -15.5t-39 15.5t-16 38.5v592q0 23 16 38.5t39 15.5t39 -15.5t16 -38.5v-208q0 -14 9.5 -24.5t23.5 -10.5h46q12 0 16 7l131 132q6 8 6 18v86q0 23 16.5 38.5t39.5 15.5t38.5 -15.5t15.5 -38.5v-119 q0 -21 -15 -38l-117 -115q-10 -11 -10 -24t10 -24l117 -115q15 -17 15 -38v-119q0 -23 -15.5 -38.5t-38.5 -15.5t-39.5 15.5t-16.5 38.5v86q0 10 -6 18l-131 132q-4 7 -16 7z" glyph-name="K" unicode="K"/><glyph d="M204 646v-502q0 -14 10 -24t24 -10h255q23 0 38 -16t15 -39t-15 -39t-38 -16h-344q-23 0 -39 16t-16 39v591q0 23 16 38.5t39 15.5t39 -15.5t16 -38.5z" glyph-name="L" unicode="L"/><glyph d="M436 54v447q0 8 -4 8q-2 0 -6 -4l-45 -46q-7 -7 -7 -18v-91q0 -23 -15.5 -38t-38.5 -15q-24 0 -40 15t-16 38v91q0 12 -6 18l-44 47q-3 4 -6 4q-4 0 -4 -8v-448q0 -23 -16 -38.5t-39 -15.5t-39 15.5t-16 38.5v592q0 23 16 38.5t39 15.5q24 0 40 -16l106 -109 q14 -10 25 -10q8 0 24 9l108 110q16 16 40 16q23 0 38.5 -15.5t15.5 -38.5v-592q0 -23 -15.5 -38.5t-38.5 -15.5t-39.5 15.5t-16.5 38.5z" glyph-name="M" unicode="M"/><glyph d="M198 673l231 -404q3 -5 5 -5t2 7v375q0 23 16.5 38.5t39.5 15.5t38.5 -15.5t15.5 -38.5v-592q0 -23 -15.5 -38.5t-38.5 -15.5q-30 0 -49 27l-232 407q-2 5 -5 5q-2 0 -2 -7v-378q0 -23 -16 -38.5t-39 -15.5t-39 15.5t-16 38.5v592q0 23 16 38.5t39 15.5q34 0 49 -27z" glyph-name="N" unicode="N"/><glyph d="M447 683l84 -82q15 -15 15 -38v-426q0 -23 -15 -38l-84 -82q-15 -17 -39 -17h-176q-24 0 -38 17l-84 82q-16 16 -16 38v426q0 22 16 38l84 82q14 17 38 17h176q24 0 39 -17zM395 117l35 36q6 7 6 17v360q0 10 -6 17l-35 36q-7 7 -18 7h-113q-11 0 -18 -7l-35 -36 q-7 -7 -7 -17v-360q0 -10 7 -17l35 -36q7 -7 18 -7h113q11 0 18 7z" glyph-name="O" unicode="O"/><glyph d="M204 238v-186q0 -23 -16 -38.5t-39 -15.5t-39 15.5t-16 38.5v593q0 23 16 39t39 16h259q24 0 39 -17l84 -82q15 -15 15 -38v-153q0 -22 -15 -39l-84 -82q-15 -17 -39 -17h-171q-14 0 -23.5 -10t-9.5 -24zM237 382h140q11 0 18 7l35 36q6 7 6 16v90q0 9 -6 16l-35 36 q-7 7 -18 7h-140q-14 0 -23.5 -10t-9.5 -24v-140q0 -14 9.5 -24t23.5 -10z" glyph-name="P" unicode="P"/><glyph d="M377 0h-145q-24 0 -38 17l-84 82q-16 16 -16 39v425q0 22 16 38l84 82q14 17 38 17h177q23 0 38 -17l84 -82q15 -15 15 -38v-425q0 -24 -15 -39l-21 -19q-9 -9 -9 -25q0 -15 9 -25l21 -19q15 -13 15 -39q0 -23 -15.5 -38t-38.5 -15q-25 0 -40 15l-57 59q-8 7 -18 7z M395 117l35 36q6 6 6 17v360q0 11 -6 17l-35 36q-7 7 -18 7h-113q-11 0 -18 -7l-35 -36q-7 -7 -7 -17v-360q0 -10 7 -17l35 -36q7 -7 18 -7h113q11 0 18 7z" glyph-name="Q" unicode="Q"/><glyph d="M357 272h-120q-14 0 -23.5 -10t-9.5 -24v-186q0 -23 -16 -38.5t-39 -15.5t-39 15.5t-16 38.5v593q0 23 16 39t39 16h241q21 0 38 -17l103 -103q15 -15 15 -38v-112q0 -22 -16 -38l-40 -40q-10 -10 -10 -24q0 -15 11 -26l40 -39q15 -15 15 -38v-173q0 -23 -15.5 -38.5 t-38.5 -15.5t-39.5 15.5t-16.5 38.5v140q0 11 -6 17l-56 56q-7 7 -17 7zM374 389l56 55q6 6 6 18v48q0 12 -6 18l-56 55q-7 7 -17 7h-120q-14 0 -23.5 -10t-9.5 -24v-140q0 -14 9.5 -24t23.5 -10h120q10 0 17 7z" glyph-name="R" unicode="R"/><glyph d="M436 519v12q0 10 -6 16l-36 36q-7 7 -16 7h-115q-9 0 -16 -7l-36 -36q-7 -7 -7 -16v-67q0 -10 7 -17l36 -37q8 -7 16 -7h146q23 0 38 -15l84 -86q15 -15 15 -37v-129q0 -22 -15 -37l-84 -82q-15 -17 -38 -17h-177q-24 0 -38 17l-84 82q-16 16 -16 37v44q0 22 16 36t39 14 t39 -14t16 -36v-11q0 -10 7 -17l36 -35q7 -7 16 -7h115q9 0 16 7l36 35q6 6 6 17v63q0 10 -6 18l-36 36q-8 7 -16 7h-146q-24 0 -38 15l-84 86q-16 17 -16 38v131q0 22 16 38l84 82q14 17 38 17h177q23 0 38 -17l84 -82q15 -15 15 -38v-44q0 -23 -15.5 -38t-38.5 -15 q-24 0 -40 15t-16 38z" glyph-name="S" unicode="S"/><glyph d="M375 556v-504q0 -23 -15.5 -38.5t-39.5 -15.5q-23 0 -39 15.5t-16 38.5v504q0 14 -10 24t-24 10h-84q-23 0 -38.5 16t-15.5 39t15.5 39t38.5 16h347q23 0 38 -16t15 -39t-15 -39t-38 -16h-85q-14 0 -24 -10t-10 -24z" glyph-name="T" unicode="T"/><glyph d="M204 648v-478q0 -10 7 -17l35 -36q7 -7 18 -7h113q11 0 18 7l35 36q6 6 6 17v478q0 23 16.5 38.5t39.5 15.5t38.5 -15.5t15.5 -38.5v-511q0 -23 -15 -38l-84 -82q-15 -17 -39 -17h-176q-24 0 -38 17l-84 82q-16 16 -16 38v511q0 23 16 38.5t39 15.5t39 -15.5t16 -38.5z " glyph-name="U" unicode="U"/><glyph d="M436 241v405q0 23 16.5 38.5t39.5 15.5t38.5 -15.5t15.5 -38.5v-438q0 -24 -16 -39l-155 -153q-16 -16 -37 -16h-36q-21 0 -37 16l-154 153q-17 17 -17 39v438q0 23 16 38.5t39 15.5t39 -15.5t16 -38.5v-405q0 -10 7 -17l85 -88q9 -9 25 -9q13 0 24 9l85 88q6 6 6 17z " glyph-name="V" unicode="V"/><glyph d="M436 173v473q0 23 16.5 38.5t39.5 15.5t38.5 -15.5t15.5 -38.5v-506q0 -23 -15 -38l-89 -86q-16 -16 -37 -16t-37 16l-48 47l-50 -47q-16 -16 -36 -16t-36 16l-88 86q-16 16 -16 38v506q0 23 16 38.5t39 15.5t39 -15.5t16 -38.5v-473q0 -11 9.5 -20t20.5 -9q12 0 21 9 t9 20v177q0 23 16 38t40 15q23 0 38.5 -15t15.5 -38v-177q0 -11 10 -20t21 -9q12 0 21.5 9t9.5 20z" glyph-name="W" unicode="W"/><glyph d="M436 537v109q0 23 16.5 38.5t39.5 15.5t38.5 -15.5t15.5 -38.5v-143q0 -24 -16 -37l-93 -92q-10 -11 -10 -24t10 -24l93 -92q16 -13 16 -37v-143q0 -23 -15.5 -38.5t-38.5 -15.5t-39.5 15.5t-16.5 38.5v109q0 12 -6 18l-85 86q-11 11 -25 11q-13 0 -24 -11l-85 -86 q-7 -7 -7 -18v-109q0 -23 -16 -38.5t-39 -15.5t-39 15.5t-16 38.5v143q0 23 17 37l92 92q11 11 11 24t-11 24l-92 92q-17 14 -17 37v143q0 23 16 38.5t39 15.5t39 -15.5t16 -38.5v-109q0 -11 7 -18l85 -86q11 -11 24 -11q14 0 25 11l85 86q6 6 6 18z" glyph-name="X" unicode="X"/><glyph d="M258 295l-147 148q-17 17 -17 39v164q0 23 16 38.5t39 15.5t39 -15.5t16 -38.5v-131q0 -10 7 -17l84 -88q9 -9 24 -9t25 9l86 88q6 6 6 17v131q0 23 16.5 38.5t39.5 15.5t38.5 -15.5t15.5 -38.5v-164q0 -24 -16 -39l-149 -148q-7 -7 -7 -18v-223q0 -23 -15.5 -38.5 t-39.5 -15.5q-23 0 -39 15.5t-16 38.5v223q0 12 -6 18z" glyph-name="Y" unicode="Y"/><glyph d="M110 217l322 318q6 6 6 18v3q0 14 -10 24t-24 10h-256q-23 0 -38.5 16t-15.5 39t15.5 39t38.5 16h345q23 0 38 -16t15 -39v-124q0 -25 -15 -38l-322 -318q-7 -7 -7 -18v-3q0 -14 10 -24t24 -10h257q23 0 38 -16t15 -39t-15 -39t-38 -16h-345q-23 0 -38.5 16t-15.5 39v124 q0 22 16 38z" glyph-name="Z" unicode="Z"/><glyph d="M393 -44h-146q-23 0 -38 15t-15 38v681q0 23 15 38t38 15h146q23 0 38 -15t15 -38t-15 -38.5t-38 -15.5h-58q-14 0 -24 -10t-10 -24v-505q0 -14 10 -24t24 -10h58q23 0 38 -15t15 -38t-15 -38.5t-38 -15.5z" glyph-name="bracketleft" unicode="["/><glyph d="M204 646v-91q0 -11 7 -18l319 -321q16 -16 16 -38v-124q0 -23 -15.5 -38.5t-38.5 -15.5t-39.5 15.5t-16.5 38.5v91q0 12 -6 18l-319 321q-17 17 -17 38v124q0 23 16 38.5t39 15.5t39 -15.5t16 -38.5z" glyph-name="backslash" unicode="\"/><glyph d="M392 -44h-147q-23 0 -38 15.5t-15 38.5t15 38t38 15h57q14 0 24 10t10 24v505q0 14 -10 24t-24 10h-57q-23 0 -38 15.5t-15 38.5t15 38t38 15h147q23 0 38.5 -15t15.5 -38v-681q0 -23 -15.5 -38t-38.5 -15z" glyph-name="bracketright" unicode="]"/><glyph d="M320 700q22 0 38 -16l141 -141q15 -15 15 -39q0 -23 -15.5 -38t-39.5 -15q-22 0 -36 16l-79 78q-11 11 -24 11q-10 0 -24 -11l-79 -78q-15 -16 -36 -16q-24 0 -39.5 15t-15.5 38q0 24 15 39l141 141q16 16 38 16z" glyph-name="asciicircum" unicode="^"/><glyph d="M148 63h345q23 0 38 -15t15 -38t-15 -38.5t-38 -15.5h-345q-23 0 -38.5 15.5t-15.5 38.5t15.5 38t38.5 15z" glyph-name="underscore" unicode="_"/><glyph d="M322 803l-80 79q-15 15 -15 38t15 38.5t38 15.5t39 -16l79 -80q16 -16 16 -37q0 -23 -15.5 -38.5t-38.5 -15.5q-22 0 -38 16z" glyph-name="grave" unicode="`"/><glyph d="M546 542v-488q0 -23 -15.5 -38.5t-38.5 -15.5t-39.5 15.5t-16.5 38.5v185q0 14 -9.5 24t-23.5 10h-166q-14 0 -23.5 -10t-9.5 -24v-185q0 -23 -16 -38.5t-39 -15.5t-39 15.5t-16 38.5v488q0 22 16 38l104 103q15 17 37 17h139q21 0 37 -16l103 -104q16 -16 16 -38z M436 417v94q0 11 -6 17l-56 55q-7 7 -17 7h-73q-11 0 -18 -7l-55 -55q-7 -7 -7 -17v-94q0 -14 9.5 -24t23.5 -10h166q14 0 23.5 10t9.5 24z" glyph-name="a" unicode="a"/><glyph d="M531 394l-21 -20q-9 -9 -9 -24q0 -16 9 -25l21 -20q15 -15 15 -38v-129q0 -22 -15 -39l-84 -82q-15 -17 -39 -17h-259q-23 0 -39 16t-16 39v590q0 23 16 39t39 16h259q24 0 39 -17l84 -82q15 -15 15 -38v-131q0 -23 -15 -38zM395 410l35 37q6 7 6 17v67q0 9 -6 16l-35 36 q-7 7 -18 7h-140q-14 0 -23.5 -10t-9.5 -24v-118q0 -14 9.5 -24.5t23.5 -10.5h140q10 0 18 7zM395 117l35 36q6 7 6 16v66q0 9 -6 17l-35 37q-8 7 -18 7h-140q-14 0 -23.5 -10.5t-9.5 -24.5v-117q0 -14 9.5 -24t23.5 -10h140q11 0 18 7z" glyph-name="b" unicode="b"/><glyph d="M204 510v-320q0 -11 7 -18l56 -55q7 -7 18 -7h73q10 0 17 7l57 55q6 4 6 18v29q0 23 16 38.5t39 15.5t38 -15.5t15 -38.5v-61q0 -22 -16 -38l-101 -104q-16 -16 -38 -16h-139q-22 0 -39 17l-103 103q-16 16 -16 38v384q0 22 16 38l103 103q17 17 39 17h139q22 0 38 -16 l101 -104q16 -16 16 -38v-61q0 -23 -15 -38.5t-38 -15.5t-39 15.5t-16 38.5v29q0 14 -6 18l-57 55q-7 7 -17 7h-73q-11 0 -18 -7l-56 -55q-7 -7 -7 -18z" glyph-name="c" unicode="c"/><glyph d="M427 684l103 -104q16 -16 16 -38v-384q0 -22 -16 -38l-103 -104q-16 -16 -37 -16h-241q-23 0 -39 16t-16 39v590q0 23 16 39t39 16h241q21 0 37 -16zM374 117l56 55q6 8 6 18v320q0 10 -6 18l-56 55q-7 7 -17 7h-120q-14 0 -23.5 -10t-9.5 -24v-412q0 -14 9.5 -24 t23.5 -10h120q10 0 17 7z" glyph-name="d" unicode="d"/><glyph d="M94 55v590q0 23 16 39t39 16h344q23 0 38 -16t15 -39t-15 -39t-38 -16h-255q-14 0 -24 -10t-10 -24v-118q0 -14 10 -24.5t24 -10.5h189q23 0 38.5 -15t15.5 -38t-15.5 -38.5t-38.5 -15.5h-189q-14 0 -24 -10.5t-10 -24.5v-117q0 -14 10 -24t24 -10h255q23 0 38 -16 t15 -39t-15 -39t-38 -16h-344q-23 0 -39 16t-16 39z" glyph-name="e" unicode="e"/><glyph d="M204 262v-208q0 -23 -16 -38.5t-39 -15.5t-39 15.5t-16 38.5v591q0 23 16 39t39 16h344q23 0 38 -16t15 -39t-15 -39t-38 -16h-255q-14 0 -24 -10t-10 -24v-118q0 -14 10 -24.5t24 -10.5h189q23 0 38 -15t15 -38q0 -22 -15 -37.5t-38 -15.5h-189q-14 0 -24 -10.5 t-10 -24.5z" glyph-name="f" unicode="f"/><glyph d="M436 519v12q0 9 -6 16l-35 36q-7 7 -18 7h-113q-11 0 -18 -7l-35 -36q-7 -7 -7 -16v-362q0 -9 7 -16l35 -36q7 -7 18 -7h113q11 0 18 7l35 36q6 7 6 16v93q0 14 -9.5 24t-23.5 10h-57q-22 0 -38 15.5t-16 38.5t16 38t38 15h146q23 0 38.5 -15t15.5 -38v-212 q0 -22 -15 -39l-84 -82q-15 -17 -39 -17h-176q-24 0 -38 17l-84 82q-16 16 -16 39v425q0 22 16 38l84 82q14 17 38 17h176q24 0 39 -17l84 -82q15 -15 15 -38v-44q0 -23 -15.5 -38t-38.5 -15q-24 0 -40 15t-16 38z" glyph-name="g" unicode="g"/><glyph d="M546 646v-592q0 -23 -15.5 -38.5t-38.5 -15.5q-24 0 -40 15.5t-16 38.5v208q0 14 -9.5 24.5t-23.5 10.5h-166q-14 0 -23.5 -10.5t-9.5 -24.5v-208q0 -23 -16 -38.5t-39 -15.5t-39 15.5t-16 38.5v592q0 23 16 38.5t39 15.5t39 -15.5t16 -38.5v-208q0 -14 9.5 -24.5 t23.5 -10.5h166q14 0 23.5 10.5t9.5 24.5v208q0 23 16 38.5t40 15.5q23 0 38.5 -15.5t15.5 -38.5z" glyph-name="h" unicode="h"/><glyph d="M450 0h-259q-23 0 -38.5 15.5t-15.5 38.5t15.5 38.5t38.5 15.5h40q14 0 24 10t10 24v416q0 14 -10 24t-24 10h-40q-23 0 -38.5 15.5t-15.5 38.5t15.5 38.5t38.5 15.5h259q23 0 38 -15.5t15 -38.5t-15 -38.5t-38 -15.5h-41q-14 0 -24 -10t-10 -24v-416q0 -14 10 -24 t24 -10h41q23 0 38 -15.5t15 -38.5t-15 -38.5t-38 -15.5z" glyph-name="i" unicode="i"/><glyph d="M436 170v386q0 14 -9.5 24t-23.5 10h-83q-22 0 -37.5 16t-15.5 39t15.5 39t37.5 16h172q23 0 38.5 -16t15.5 -39v-507q0 -22 -15 -39l-84 -82q-15 -17 -38 -17h-177q-24 0 -38 17l-84 82q-16 16 -16 39v82q0 23 15.5 37.5t39.5 14.5t39.5 -14.5t15.5 -37.5v-50 q0 -10 7 -17l35 -36q7 -7 18 -7h113q11 0 18 7l35 36q6 7 6 17z" glyph-name="j" unicode="j"/><glyph d="M283 297h-46q-14 0 -23.5 -10.5t-9.5 -24.5v-208q0 -23 -16 -38.5t-39 -15.5t-39 15.5t-16 38.5v592q0 23 16 38.5t39 15.5t39 -15.5t16 -38.5v-208q0 -14 9.5 -24.5t23.5 -10.5h46q12 0 16 7l131 132q6 8 6 18v86q0 23 16.5 38.5t39.5 15.5t38.5 -15.5t15.5 -38.5v-119 q0 -21 -15 -38l-117 -115q-10 -11 -10 -24t10 -24l117 -115q15 -17 15 -38v-119q0 -23 -15.5 -38.5t-38.5 -15.5t-39.5 15.5t-16.5 38.5v86q0 10 -6 18l-131 132q-4 7 -16 7z" glyph-name="k" unicode="k"/><glyph d="M204 646v-502q0 -14 10 -24t24 -10h255q23 0 38 -16t15 -39t-15 -39t-38 -16h-344q-23 0 -39 16t-16 39v591q0 23 16 38.5t39 15.5t39 -15.5t16 -38.5z" glyph-name="l" unicode="l"/><glyph d="M436 54v447q0 8 -4 8q-2 0 -6 -4l-45 -46q-7 -7 -7 -18v-91q0 -23 -15.5 -38t-38.5 -15q-24 0 -40 15t-16 38v91q0 12 -6 18l-44 47q-3 4 -6 4q-4 0 -4 -8v-448q0 -23 -16 -38.5t-39 -15.5t-39 15.5t-16 38.5v592q0 23 16 38.5t39 15.5q24 0 40 -16l106 -109 q14 -10 25 -10q8 0 24 9l108 110q16 16 40 16q23 0 38.5 -15.5t15.5 -38.5v-592q0 -23 -15.5 -38.5t-38.5 -15.5t-39.5 15.5t-16.5 38.5z" glyph-name="m" unicode="m"/><glyph d="M198 673l231 -404q3 -5 5 -5t2 7v375q0 23 16.5 38.5t39.5 15.5t38.5 -15.5t15.5 -38.5v-592q0 -23 -15.5 -38.5t-38.5 -15.5q-30 0 -49 27l-232 407q-2 5 -5 5q-2 0 -2 -7v-378q0 -23 -16 -38.5t-39 -15.5t-39 15.5t-16 38.5v592q0 23 16 38.5t39 15.5q34 0 49 -27z" glyph-name="n" unicode="n"/><glyph d="M447 683l84 -82q15 -15 15 -38v-426q0 -23 -15 -38l-84 -82q-15 -17 -39 -17h-176q-24 0 -38 17l-84 82q-16 16 -16 38v426q0 22 16 38l84 82q14 17 38 17h176q24 0 39 -17zM395 117l35 36q6 7 6 17v360q0 10 -6 17l-35 36q-7 7 -18 7h-113q-11 0 -18 -7l-35 -36 q-7 -7 -7 -17v-360q0 -10 7 -17l35 -36q7 -7 18 -7h113q11 0 18 7z" glyph-name="o" unicode="o"/><glyph d="M204 238v-186q0 -23 -16 -38.5t-39 -15.5t-39 15.5t-16 38.5v593q0 23 16 39t39 16h259q24 0 39 -17l84 -82q15 -15 15 -38v-153q0 -22 -15 -39l-84 -82q-15 -17 -39 -17h-171q-14 0 -23.5 -10t-9.5 -24zM237 382h140q11 0 18 7l35 36q6 7 6 16v90q0 9 -6 16l-35 36 q-7 7 -18 7h-140q-14 0 -23.5 -10t-9.5 -24v-140q0 -14 9.5 -24t23.5 -10z" glyph-name="p" unicode="p"/><glyph d="M377 0h-145q-24 0 -38 17l-84 82q-16 16 -16 39v425q0 22 16 38l84 82q14 17 38 17h177q23 0 38 -17l84 -82q15 -15 15 -38v-425q0 -24 -15 -39l-21 -19q-9 -9 -9 -25q0 -15 9 -25l21 -19q15 -13 15 -39q0 -23 -15.5 -38t-38.5 -15q-25 0 -40 15l-57 59q-8 7 -18 7z M395 117l35 36q6 6 6 17v360q0 11 -6 17l-35 36q-7 7 -18 7h-113q-11 0 -18 -7l-35 -36q-7 -7 -7 -17v-360q0 -10 7 -17l35 -36q7 -7 18 -7h113q11 0 18 7z" glyph-name="q" unicode="q"/><glyph d="M357 272h-120q-14 0 -23.5 -10t-9.5 -24v-186q0 -23 -16 -38.5t-39 -15.5t-39 15.5t-16 38.5v593q0 23 16 39t39 16h241q21 0 38 -17l103 -103q15 -15 15 -38v-112q0 -22 -16 -38l-40 -40q-10 -10 -10 -24q0 -15 11 -26l40 -39q15 -15 15 -38v-173q0 -23 -15.5 -38.5 t-38.5 -15.5t-39.5 15.5t-16.5 38.5v140q0 11 -6 17l-56 56q-7 7 -17 7zM374 389l56 55q6 6 6 18v48q0 12 -6 18l-56 55q-7 7 -17 7h-120q-14 0 -23.5 -10t-9.5 -24v-140q0 -14 9.5 -24t23.5 -10h120q10 0 17 7z" glyph-name="r" unicode="r"/><glyph d="M436 519v12q0 10 -6 16l-36 36q-7 7 -16 7h-115q-9 0 -16 -7l-36 -36q-7 -7 -7 -16v-67q0 -10 7 -17l36 -37q8 -7 16 -7h146q23 0 38 -15l84 -86q15 -15 15 -37v-129q0 -22 -15 -37l-84 -82q-15 -17 -38 -17h-177q-24 0 -38 17l-84 82q-16 16 -16 37v44q0 22 16 36t39 14 t39 -14t16 -36v-11q0 -10 7 -17l36 -35q7 -7 16 -7h115q9 0 16 7l36 35q6 6 6 17v63q0 10 -6 18l-36 36q-8 7 -16 7h-146q-24 0 -38 15l-84 86q-16 17 -16 38v131q0 22 16 38l84 82q14 17 38 17h177q23 0 38 -17l84 -82q15 -15 15 -38v-44q0 -23 -15.5 -38t-38.5 -15 q-24 0 -40 15t-16 38z" glyph-name="s" unicode="s"/><glyph d="M375 556v-504q0 -23 -15.5 -38.5t-39.5 -15.5q-23 0 -39 15.5t-16 38.5v504q0 14 -10 24t-24 10h-84q-23 0 -38.5 16t-15.5 39t15.5 39t38.5 16h347q23 0 38 -16t15 -39t-15 -39t-38 -16h-85q-14 0 -24 -10t-10 -24z" glyph-name="t" unicode="t"/><glyph d="M204 648v-478q0 -10 7 -17l35 -36q7 -7 18 -7h113q11 0 18 7l35 36q6 6 6 17v478q0 23 16.5 38.5t39.5 15.5t38.5 -15.5t15.5 -38.5v-511q0 -23 -15 -38l-84 -82q-15 -17 -39 -17h-176q-24 0 -38 17l-84 82q-16 16 -16 38v511q0 23 16 38.5t39 15.5t39 -15.5t16 -38.5z " glyph-name="u" unicode="u"/><glyph d="M436 241v405q0 23 16.5 38.5t39.5 15.5t38.5 -15.5t15.5 -38.5v-438q0 -24 -16 -39l-155 -153q-16 -16 -37 -16h-36q-21 0 -37 16l-154 153q-17 17 -17 39v438q0 23 16 38.5t39 15.5t39 -15.5t16 -38.5v-405q0 -10 7 -17l85 -88q9 -9 25 -9q13 0 24 9l85 88q6 6 6 17z " glyph-name="v" unicode="v"/><glyph d="M436 173v473q0 23 16.5 38.5t39.5 15.5t38.5 -15.5t15.5 -38.5v-506q0 -23 -15 -38l-89 -86q-16 -16 -37 -16t-37 16l-48 47l-50 -47q-16 -16 -36 -16t-36 16l-88 86q-16 16 -16 38v506q0 23 16 38.5t39 15.5t39 -15.5t16 -38.5v-473q0 -11 9.5 -20t20.5 -9q12 0 21 9 t9 20v177q0 23 16 38t40 15q23 0 38.5 -15t15.5 -38v-177q0 -11 10 -20t21 -9q12 0 21.5 9t9.5 20z" glyph-name="w" unicode="w"/><glyph d="M436 537v109q0 23 16.5 38.5t39.5 15.5t38.5 -15.5t15.5 -38.5v-143q0 -24 -16 -37l-93 -92q-10 -11 -10 -24t10 -24l93 -92q16 -13 16 -37v-143q0 -23 -15.5 -38.5t-38.5 -15.5t-39.5 15.5t-16.5 38.5v109q0 12 -6 18l-85 86q-11 11 -25 11q-13 0 -24 -11l-85 -86 q-7 -7 -7 -18v-109q0 -23 -16 -38.5t-39 -15.5t-39 15.5t-16 38.5v143q0 23 17 37l92 92q11 11 11 24t-11 24l-92 92q-17 14 -17 37v143q0 23 16 38.5t39 15.5t39 -15.5t16 -38.5v-109q0 -11 7 -18l85 -86q11 -11 24 -11q14 0 25 11l85 86q6 6 6 18z" glyph-name="x" unicode="x"/><glyph d="M258 295l-147 148q-17 17 -17 39v164q0 23 16 38.5t39 15.5t39 -15.5t16 -38.5v-131q0 -10 7 -17l84 -88q9 -9 24 -9t25 9l86 88q6 6 6 17v131q0 23 16.5 38.5t39.5 15.5t38.5 -15.5t15.5 -38.5v-164q0 -24 -16 -39l-149 -148q-7 -7 -7 -18v-223q0 -23 -15.5 -38.5 t-39.5 -15.5q-23 0 -39 15.5t-16 38.5v223q0 12 -6 18z" glyph-name="y" unicode="y"/><glyph d="M110 217l322 318q6 6 6 18v3q0 14 -10 24t-24 10h-256q-23 0 -38.5 16t-15.5 39t15.5 39t38.5 16h345q23 0 38 -16t15 -39v-124q0 -25 -15 -38l-322 -318q-7 -7 -7 -18v-3q0 -14 10 -24t24 -10h257q23 0 38 -16t15 -39t-15 -39t-38 -16h-345q-23 0 -38.5 16t-15.5 39v124 q0 22 16 38z" glyph-name="z" unicode="z"/><glyph d="M286 346l41 -41q15 -15 15 -38v-143q0 -11 7 -18l36 -36q7 -7 18 -7h31q23 0 38 -15t15 -38t-15 -39t-38 -16h-64q-22 0 -38 16l-82 82q-15 15 -15 38v143q0 11 -7 18l-59 59q-16 16 -16 38t16 38l59 59q7 7 7 18v144q0 23 15 38l82 81q15 16 38 16h64q23 0 38 -15 t15 -38t-15 -38.5t-38 -15.5h-31q-11 0 -18 -7l-36 -36q-7 -7 -7 -18v-144q0 -23 -15 -38l-41 -41q-2 -2 -2 -3t2 -3z" glyph-name="braceleft" unicode="{"/><glyph d="M266 -18v736q0 23 15.5 38.5t38.5 15.5t38.5 -15.5t15.5 -38.5v-736q0 -23 -15.5 -38.5t-38.5 -15.5t-38.5 15.5t-15.5 38.5z" glyph-name="bar" unicode="|"/><glyph d="M313 305l41 41q2 2 2 3t-2 3l-41 41q-15 15 -15 38v144q0 11 -7 18l-36 36q-7 7 -18 7h-31q-23 0 -38 15.5t-15 38.5t15 38t38 15h64q23 0 38 -16l82 -81q15 -15 15 -38v-144q0 -11 7 -18l59 -59q16 -16 16 -38t-16 -38l-59 -59q-7 -7 -7 -18v-143q0 -23 -15 -38l-82 -82 q-16 -16 -38 -16h-64q-23 0 -38 16t-15 39t15 38t38 15h31q11 0 18 7l36 36q7 7 7 18v143q0 23 15 38z" glyph-name="braceright" unicode="}"/><glyph d="M225 370l-12 -12v-53q0 -23 -16 -38.5t-39 -15.5q-21 0 -37 15.5t-16 38.5v78q0 16 15 34l46 47q14 14 34 14h77q21 0 35 -14l48 -47q13 -13 13 -34v-42l14 -12h29l12 12v55q0 22 15.5 38t38.5 16q21 0 37.5 -16.5t16.5 -37.5v-78q0 -21 -13 -34l-48 -47q-12 -14 -35 -14 h-77q-22 0 -36 14l-47 47q-15 15 -15 34v40l-11 12h-29z" glyph-name="asciitilde" unicode="~"/><glyph d="M300 700h39q23 0 38.5 -15.5t15.5 -38.5v-39q0 -23 -15.5 -38t-38.5 -15h-39q-23 0 -38 15t-15 38v39q0 23 15 38.5t38 15.5zM374 452v-398q0 -23 -15.5 -38.5t-38.5 -15.5t-38.5 15.5t-15.5 38.5v398q0 23 15.5 38t38.5 15t38.5 -15t15.5 -38z" glyph-name="exclamdown" unicode="¡"/><glyph d="M432 529l-48 47q-3 3 -6 3q-5 0 -5 -8v-443q0 -8 4 -8q3 0 7 4l48 47q6 6 6 18v29q0 23 16 38.5t39 15.5t38 -15.5t15 -38.5v-62q0 -22 -16 -38l-101 -102q-16 -16 -38 -16h-13q-5 0 -5 -5v-13q0 -23 -15.5 -38.5t-38.5 -15.5t-38.5 15.5t-15.5 38.5v13q0 5 -4 5h-11 q-22 0 -39 17l-101 101q-16 16 -16 38v388q0 22 16 38l101 101q17 17 39 17h11q4 0 4 5v13q0 23 15.5 38.5t38.5 15.5t38.5 -15.5t15.5 -38.5v-13q0 -5 5 -5h13q22 0 38 -16l101 -102q16 -16 16 -38v-62q0 -23 -15 -38.5t-38 -15.5t-39 15.5t-16 38.5v29q0 11 -6 18z M265 130v440q0 8 -4 8q-3 0 -7 -4l-45 -45q-7 -7 -7 -18v-322q0 -11 7 -18l45 -45q4 -4 7 -4q4 0 4 8z" glyph-name="cent" unicode="¢"/><glyph d="M438 520v12q0 6 -7 18l-34 34q-10 8 -19 8h-27q-9 0 -19 -8l-34 -34q-7 -12 -7 -18v-145q0 -5 5 -5h152q23 0 38.5 -15t15.5 -38t-15.5 -39t-38.5 -16h-152q-5 0 -5 -5v-156q0 -5 5 -5h197q23 0 38 -15.5t15 -38.5t-15 -38.5t-38 -15.5h-345q-23 0 -38.5 15.5t-15.5 38.5 t15.5 38.5t38.5 15.5h30q5 0 5 5v156q0 5 -5 5h-30q-23 0 -38.5 16t-15.5 39t15.5 38t38.5 15h30q5 0 5 5v178q0 23 15 38l82 80q15 17 38 17h93q23 0 38 -17l82 -80q15 -15 15 -38v-45q0 -23 -15 -38t-38 -15t-39 15t-16 38z" glyph-name="sterling" unicode="£"/><glyph d="M129 449q3 5 3 8q0 4 -3 7l-27 27q-15 15 -15 39q0 23 15 38t38 15q24 0 39 -15l27 -27q3 -3 8 -3q1 0 7 2q19 12 33 12h132q17 0 33 -12q6 -2 7 -2q5 0 8 3l27 27q15 15 39 15q23 0 38 -15t15 -38t-16 -39l-28 -28q-3 -3 -3 -7t3 -7q13 -13 13 -33v-132q0 -21 -13 -34 q-3 -3 -3 -7t3 -7l28 -28q16 -16 16 -38q0 -23 -15 -38t-38 -15q-24 0 -39 15l-27 27q-3 3 -8 3q-1 0 -7 -2q-16 -12 -33 -12h-132q-16 0 -33 12q-3 3 -7 3t-8 -4l-27 -27q-15 -15 -39 -15q-23 0 -38 15t-15 38q0 24 15 39l27 27q4 4 4 8t-3 7q-12 19 -12 33v132q0 16 11 33 zM414 317v66q0 10 -8 18l-35 35q-10 8 -18 8h-66q-9 0 -19 -8l-35 -35q-7 -9 -7 -18v-66q0 -9 7 -18l35 -35q10 -8 19 -8h66q8 0 18 8l35 35q8 8 8 18z" glyph-name="currency" unicode="¤"/><glyph d="M259 376l-148 148q-17 17 -17 39v83q0 23 15.5 38.5t38.5 15.5t38.5 -15.5t15.5 -38.5v-50q0 -11 7 -18l87 -87q10 -10 24 -10t25 10l87 87q6 6 6 18v50q0 23 16 38.5t39 15.5t38 -15.5t15 -38.5v-83q0 -23 -16 -39l-148 -148q-2 -2 -2 -4q0 -5 7 -5h64q23 0 38 -15 t15 -38t-15 -38.5t-38 -15.5h-72q-5 0 -5 -5v-15q0 -5 5 -5h72q23 0 38 -15t15 -38t-15 -38.5t-38 -15.5h-72q-5 0 -5 -5v-69q0 -23 -15.5 -38.5t-38.5 -15.5t-38.5 15.5t-15.5 38.5v69q0 5 -4 5h-73q-23 0 -38.5 15.5t-15.5 38.5t15.5 38t38.5 15h73q4 0 4 5v15q0 5 -4 5 h-73q-23 0 -38.5 15.5t-15.5 38.5t15.5 38t38.5 15h65q7 0 7 5q0 2 -2 4z" glyph-name="yen" unicode="¥"/><glyph d="M266 439v279q0 23 15.5 38.5t38.5 15.5t38.5 -15.5t15.5 -38.5v-279q0 -23 -15.5 -38t-38.5 -15t-38.5 15t-15.5 38zM266 -18v279q0 23 15.5 38t38.5 15t38.5 -15t15.5 -38v-279q0 -23 -15.5 -38.5t-38.5 -15.5t-38.5 15.5t-15.5 38.5z" glyph-name="brokenbar" unicode="¦"/><glyph d="M438 601v12q0 12 -6 18l-36 36q-6 6 -18 6h-115q-12 0 -18 -6l-36 -36q-7 -7 -7 -18v-23q0 -11 7 -18l36 -36q8 -7 18 -7h148q22 0 38 -16l82 -81q15 -15 15 -38v-89q0 -23 -15 -38l-44 -42l44 -45q15 -17 15 -38v-88q0 -23 -15 -38l-82 -81q-16 -16 -38 -16h-181 q-25 0 -38 16l-82 81q-16 16 -16 38v44q0 23 15.5 38t38.5 15t38.5 -15t15.5 -38v-11q0 -11 7 -18l36 -36q6 -6 18 -6h115q12 0 18 6l36 36q6 6 6 18v22q0 12 -6 18l-36 36q-8 7 -18 7h-148q-18 0 -38 16l-82 81q-16 16 -16 38v89q0 22 16 38l43 42l-43 45q-16 16 -16 38v89 q0 22 16 38l82 81q13 16 38 16h181q22 0 38 -16l82 -81q15 -15 15 -38v-45q0 -23 -15 -38.5t-38 -15.5t-39 15.5t-16 38.5zM209 321l36 -36q7 -7 18 -7h115q11 0 18 7l36 36q6 6 6 17v22q0 10 -6 17l-36 37q-8 7 -18 7h-115q-11 0 -18 -7l-36 -36q-7 -7 -7 -17v-23 q0 -10 7 -17z" glyph-name="section" unicode="§"/><glyph d="M415 797h-19q-23 0 -38.5 15t-15.5 38v20q0 23 15.5 38t38.5 15h19q23 0 38.5 -15t15.5 -38v-20q0 -23 -15.5 -38t-38.5 -15zM245 797h-19q-23 0 -38.5 15t-15.5 38v20q0 23 15.5 38t38.5 15h19q23 0 38.5 -15t15.5 -38v-20q0 -23 -15.5 -38t-38.5 -15z" glyph-name="dieresis" unicode="¨"/><glyph d="M464 603l72 -73q10 -11 10 -26v-307q0 -14 -10 -27l-72 -71q-11 -11 -27 -11h-234q-15 0 -26 11l-73 71q-10 13 -10 27v307q0 15 11 26l72 73q9 10 26 10h234q18 0 27 -10zM430 171l33 33q7 9 7 19v255q0 11 -7 19l-33 33q-8 7 -19 7h-181q-10 0 -19 -7l-33 -33 q-8 -11 -8 -19v-255q0 -8 8 -19l33 -33q11 -8 19 -8h181q8 0 19 8zM370 306v-1q5 32 38 32q17 0 27.5 -10.5t10.5 -27.5v-21q0 -14 -11 -27l-53 -52q-11 -11 -26 -11h-71q-13 0 -27 10l-52 53q-11 11 -11 27v146q0 15 11 26l52 52q11 11 27 11h71q16 0 26 -10l52 -53 q12 -10 12 -26v-22q0 -16 -10.5 -26.5t-27.5 -10.5q-33 0 -38 32v-1l-2.5 7.5t-2.5 7t-2 4.5l-15 16q-7 6 -18 6h-19q-11 0 -18 -6l-15 -16q-8 -10 -8 -17v-94q0 -8 8 -18l15 -15q8 -7 18 -7h19q10 0 18 7l15 15q1 2 2 5l2.5 7.5z" glyph-name="copyright" unicode="©"/><glyph d="M111 389l146 146q14 14 36 14t39.5 -15.5t17.5 -38.5q0 -21 -16 -37l-84 -84q-12 -12 -12 -24t13 -25l81 -81q15 -15 15 -38t-14.5 -38.5t-37.5 -15.5q-24 0 -39 15l-145 144q-16 15 -16 39q0 23 16 39zM306 389l146 146q14 14 36 14t39.5 -15.5t17.5 -38.5t-15 -37 l-85 -84q-11 -11 -11 -24q0 -14 12 -25l82 -81q14 -14 14 -38q0 -23 -14.5 -38.5t-37.5 -15.5q-22 0 -39 15l-145 144q-15 15 -15 39t15 39z" glyph-name="guillemotleft" unicode="«"/><glyph d="M466 603l70 -73q10 -11 10 -26v-307q0 -14 -10 -27l-70 -71q-11 -11 -27 -11h-236q-13 0 -27 11l-72 71q-10 13 -10 27v307q0 15 11 26l71 73q10 10 27 10h236q18 0 27 -10zM431 171l34 33q7 9 7 19v255q0 11 -7 19l-34 33q-8 7 -19 7h-182q-10 0 -19 -7l-34 -33 q-9 -12 -9 -19v-255q0 -7 9 -19l34 -33q11 -8 19 -8h182q8 0 19 8zM317 298h-29q-19 0 -19 -19v-53q0 -17 -10 -27.5t-27 -10.5q-16 0 -26.5 10.5t-10.5 27.5v249q0 17 10.5 27.5t26.5 10.5h124q18 0 28 -11l51 -52q13 -13 13 -26v-23q0 -15 -13 -28l-24 -24q-6 -6 -6 -14 q0 -7 6 -11l24 -26q13 -13 13 -27v-45q0 -17 -11 -27.5t-28 -10.5q-16 0 -27 10.5t-11 27.5v19q0 10 -8 18l-28 28q-7 7 -18 7zM269 433v-41q0 -19 19 -19h29q10 0 18 8l28 27q2 2 2 4q0 1 -2 3l-15 16q-7 6 -18 6h-56q-5 0 -5 -4z" glyph-name="registered" unicode="®"/><glyph d="M412 797h-183q-23 0 -38.5 15t-15.5 38t15.5 39t38.5 16h183q23 0 38.5 -16t15.5 -39t-15.5 -38t-38.5 -15z" glyph-name="macron" unicode="¯"/><glyph d="M184 527v71q0 14 12 29l60 60q13 13 30 13h70q19 0 31 -13h-1l59 -60q13 -12 13 -29v-71q0 -17 -13 -29l-59 -60q-14 -12 -30 -12h-70q-16 0 -30 11l-59 61q-13 12 -13 29zM299 598l-13 -13q-8 -8 -8 -22q0 -15 8 -23l13 -12q6 -8 22 -8q14 0 22 8l13 12q8 8 8 23 q0 14 -8 22l-13 13q-7 7 -22 7q-16 0 -22 -7z" glyph-name="degree" unicode="°"/><glyph d="M408 402h43q23 0 38 -15t15 -38t-15 -38.5t-38 -15.5h-43q-14 0 -24 -10t-10 -24v-44q0 -23 -15.5 -38.5t-38.5 -15.5t-38.5 15.5t-15.5 38.5v44q0 14 -10 24t-24 10h-43q-23 0 -38.5 15.5t-15.5 38.5t15.5 38t38.5 15h43q14 0 24 10t10 24v44q0 23 15.5 38.5t38.5 15.5 t38.5 -15.5t15.5 -38.5v-44q0 -14 10 -24t24 -10zM167 108h306q23 0 38.5 -15t15.5 -38t-15.5 -39t-38.5 -16h-306q-23 0 -38 16t-15 39t15 38t38 15z" glyph-name="plusminus" unicode="±"/><glyph d="M398 882l-79 -79q-16 -16 -38 -16q-23 0 -38.5 15.5t-15.5 38.5q0 22 16 37l79 80q16 16 38 16q23 0 38.5 -15.5t15.5 -38.5q0 -22 -16 -38z" glyph-name="acute" unicode="´"/><glyph d="M438 54v533q0 5 -4 5h-39q-5 0 -5 -5v-533q0 -23 -15.5 -38.5t-38.5 -15.5t-38.5 15.5t-15.5 38.5v186q0 14 -10.5 24t-24.5 10h-17q-21 0 -38 17l-82 81q-16 16 -16 38v155q0 22 16 38l82 80q14 17 38 17h263q23 0 38 -15.5t15 -38.5v-592q0 -23 -15 -38.5t-38 -15.5 t-39 15.5t-16 38.5z" glyph-name="paragraph" unicode="¶"/><glyph d="M344 272h-48q-23 0 -38.5 15.5t-15.5 38.5v48q0 23 15.5 38.5t38.5 15.5h48q23 0 38.5 -15.5t15.5 -38.5v-48q0 -23 -15.5 -38.5t-38.5 -15.5z" glyph-name="periodcentered" unicode="·"/><glyph d="M279 -32v81q0 17 12.5 29t29.5 12t29 -12t12 -29v-55q0 -6 7 -18l60 -57q9 -12 9 -27v-59q0 -16 -10 -26l-52 -51q-11 -11 -26 -11h-59q-17 0 -26 11l-27 27q-12 12 -12 29t12 29t29 12q18 0 30 -12l5 -6q10 -8 19 -8q8 0 18 8l9 9q8 10 8 18q0 9 -8 19l-55 55 q-14 12 -14 32z" glyph-name="cedilla" unicode="¸"/><glyph d="M384 535l146 -146q15 -15 15 -39q0 -21 -15 -39l-145 -144q-17 -15 -39 -15q-23 0 -37.5 15.5t-14.5 38.5q0 24 14 38l82 81q12 11 12 25q0 13 -11 24l-85 84q-15 14 -15 37t17.5 38.5t39.5 15.5t36 -14zM189 535l145 -146q16 -16 16 -39q0 -22 -16 -39l-144 -144 q-15 -15 -39 -15q-23 0 -38 15.5t-15 38.5t15 38l82 81q12 12 12 25t-11 24l-85 84q-16 16 -16 37q0 23 17.5 38.5t40.5 15.5q25 0 36 -14z" glyph-name="guillemotright" unicode="»"/><glyph d="M301 700h39q23 0 38.5 -15.5t15.5 -38.5v-39q0 -23 -15.5 -38t-38.5 -15h-39q-23 0 -38 15t-15 38v39q0 23 15 38.5t38 15.5zM94 135v63q0 22 16 38l150 150q6 6 6 17v49q0 23 15.5 38t38.5 15t38.5 -15t15.5 -38v-82q0 -22 -15 -37l-150 -150q-7 -7 -7 -18q0 -7 5 -12 l38 -38q7 -7 18 -7h115q11 0 18 7l36 36q6 6 6 17v12q0 23 16 38t39 15t38 -15t15 -38v-45q0 -23 -15 -38l-82 -80q-15 -17 -38 -17h-181q-24 0 -38 17l-82 80q-16 15 -16 38z" glyph-name="questiondown" unicode="¿"/><glyph d="M321 803l-80 79q-15 15 -15 38t15 38.5t38 15.5t39 -16l79 -80q16 -16 16 -37q0 -23 -15.5 -38.5t-38.5 -15.5q-22 0 -38 16zM546 542v-488q0 -23 -15.5 -38.5t-38.5 -15.5t-39.5 15.5t-16.5 38.5v185q0 14 -9.5 24t-23.5 10h-166q-14 0 -23.5 -10t-9.5 -24v-185 q0 -23 -16 -38.5t-39 -15.5t-39 15.5t-16 38.5v488q0 22 16 38l104 103q15 17 37 17h139q21 0 37 -16l103 -104q16 -16 16 -38zM436 417v94q0 11 -6 17l-56 55q-7 7 -17 7h-73q-11 0 -18 -7l-55 -55q-7 -7 -7 -17v-94q0 -14 9.5 -24t23.5 -10h166q14 0 23.5 10t9.5 24z" glyph-name="Agrave" unicode="À"/><glyph d="M397 882l-79 -79q-16 -16 -38 -16q-23 0 -38.5 15.5t-15.5 38.5q0 22 16 37l79 80q16 16 38 16q23 0 38.5 -15.5t15.5 -38.5q0 -22 -16 -38zM546 542v-488q0 -23 -15.5 -38.5t-38.5 -15.5t-39.5 15.5t-16.5 38.5v185q0 14 -9.5 24t-23.5 10h-166q-14 0 -23.5 -10 t-9.5 -24v-185q0 -23 -16 -38.5t-39 -15.5t-39 15.5t-16 38.5v488q0 22 16 38l104 103q15 17 37 17h139q21 0 37 -16l103 -104q16 -16 16 -38zM436 417v94q0 11 -6 17l-56 55q-7 7 -17 7h-73q-11 0 -18 -7l-55 -55q-7 -7 -7 -17v-94q0 -14 9.5 -24t23.5 -10h166 q14 0 23.5 10t9.5 24z" glyph-name="Aacute" unicode="Á"/><glyph d="M298 836l-36 -35q-10 -14 -34 -14q-20 0 -34 14t-14 34q0 18 14 35l91 89q13 15 34 15q19 0 34 -15l90 -89q14 -14 14 -35t-13.5 -34.5t-34.5 -13.5t-35 14l-35 35q-8 8 -20 8q-13 0 -21 -8zM546 542v-488q0 -23 -15.5 -38.5t-38.5 -15.5t-39.5 15.5t-16.5 38.5v185 q0 14 -9.5 24t-23.5 10h-166q-14 0 -23.5 -10t-9.5 -24v-185q0 -23 -16 -38.5t-39 -15.5t-39 15.5t-16 38.5v488q0 22 16 38l104 103q15 17 37 17h139q21 0 37 -16l103 -104q16 -16 16 -38zM436 417v94q0 11 -6 17l-56 55q-7 7 -17 7h-73q-11 0 -18 -7l-55 -55q-7 -7 -7 -17 v-94q0 -14 9.5 -24t23.5 -10h166q14 0 23.5 10t9.5 24z" glyph-name="Acircumflex" unicode="Â"/><glyph d="M256 894l-9 -10v-27q0 -20 -13.5 -33.5t-33.5 -13.5q-19 0 -32 13.5t-13 33.5v49q0 16 12 29l39 39q13 12 29 12h49q16 0 30 -12l40 -39q11 -14 11 -29v-18l9 -9h8l9 9v28q0 20 13 33t33 13t33 -13t13 -33v-48q0 -18 -12 -29l-39 -39q-10 -13 -30 -13h-48q-20 0 -30 13 l-39 39q-12 11 -12 29v16l-10 10h-7zM546 542v-488q0 -23 -15.5 -38.5t-38.5 -15.5t-39.5 15.5t-16.5 38.5v185q0 14 -9.5 24t-23.5 10h-166q-14 0 -23.5 -10t-9.5 -24v-185q0 -23 -16 -38.5t-39 -15.5t-39 15.5t-16 38.5v488q0 22 16 38l104 103q15 17 37 17h139 q21 0 37 -16l103 -104q16 -16 16 -38zM436 417v94q0 11 -6 17l-56 55q-7 7 -17 7h-73q-11 0 -18 -7l-55 -55q-7 -7 -7 -17v-94q0 -14 9.5 -24t23.5 -10h166q14 0 23.5 10t9.5 24z" glyph-name="Atilde" unicode="Ã"/><glyph d="M414 797h-19q-23 0 -38.5 15t-15.5 38v20q0 23 15.5 38t38.5 15h19q23 0 38.5 -15t15.5 -38v-20q0 -23 -15.5 -38t-38.5 -15zM244 797h-19q-23 0 -38.5 15t-15.5 38v20q0 23 15.5 38t38.5 15h19q23 0 38.5 -15t15.5 -38v-20q0 -23 -15.5 -38t-38.5 -15zM546 542v-488 q0 -23 -15.5 -38.5t-38.5 -15.5t-39.5 15.5t-16.5 38.5v185q0 14 -9.5 24t-23.5 10h-166q-14 0 -23.5 -10t-9.5 -24v-185q0 -23 -16 -38.5t-39 -15.5t-39 15.5t-16 38.5v488q0 22 16 38l104 103q15 17 37 17h139q21 0 37 -16l103 -104q16 -16 16 -38zM436 417v94q0 11 -6 17 l-56 55q-7 7 -17 7h-73q-11 0 -18 -7l-55 -55q-7 -7 -7 -17v-94q0 -14 9.5 -24t23.5 -10h166q14 0 23.5 10t9.5 24z" glyph-name="Adieresis" unicode="Ä"/><glyph d="M202 836v59q0 15 11 26l51 53q13 9 27 9h58q16 0 27 -10l51 -52q10 -10 10 -26v-59q0 -17 -10 -27l-51 -50q-11 -11 -27 -11h-58q-16 0 -27 10l-52 51q-10 13 -10 27zM301 894l-10 -11q-7 -7 -7 -17q0 -11 7 -18l10 -10q7 -7 18 -7q10 0 17 7l11 10q7 7 7 18q0 10 -7 17 l-11 11q-7 7 -17 7q-11 0 -18 -7zM546 542v-488q0 -23 -15.5 -38.5t-38.5 -15.5t-39.5 15.5t-16.5 38.5v185q0 14 -9.5 24t-23.5 10h-166q-14 0 -23.5 -10t-9.5 -24v-185q0 -23 -16 -38.5t-39 -15.5t-39 15.5t-16 38.5v488q0 22 16 38l104 103q15 17 37 17h139q21 0 37 -16 l103 -104q16 -16 16 -38zM436 417v94q0 11 -6 17l-56 55q-7 7 -17 7h-73q-11 0 -18 -7l-55 -55q-7 -7 -7 -17v-94q0 -14 9.5 -24t23.5 -10h166q14 0 23.5 10t9.5 24z" glyph-name="Aring" unicode="Å"/><glyph d="M265 54v215q0 5 -4 5h-45q-14 0 -24 -10t-10 -24v-186q0 -23 -16 -38.5t-39 -15.5t-38 15.5t-15 38.5v490q0 22 16 38l102 101q14 17 37 17h282q23 0 38.5 -15.5t15.5 -38.5t-15.5 -38.5t-38.5 -15.5h-104q-14 0 -24 -10t-10 -24v-120q0 -14 10 -24.5t24 -10.5h85 q23 0 38 -15t15 -38t-15 -38.5t-38 -15.5h-85q-14 0 -24 -10t-10 -24v-120q0 -14 10 -24t24 -10h104q23 0 38.5 -15.5t15.5 -38.5t-15.5 -38.5t-38.5 -15.5h-192q-23 0 -38.5 15.5t-15.5 38.5zM265 387v201q0 4 -4 4q-9 0 -16 -7l-55 -55q-8 -10 -8 -19v-95q0 -14 10 -24 t24 -10h45q4 0 4 5z" glyph-name="AE" unicode="Æ"/><glyph d="M203 511v-322q0 -11 7 -18l56 -56q7 -7 18 -7h75q10 0 17 7l57 56q6 7 6 18v29q0 23 16 38.5t39 15.5t38 -15.5t15 -38.5v-62q0 -22 -16 -38l-101 -102q-16 -16 -38 -16h-29v-6q0 -6 7 -18l60 -57q9 -12 9 -27v-59q0 -16 -10 -26l-52 -51q-11 -11 -26 -11h-59 q-17 0 -26 11l-27 27q-12 12 -12 29t12 29t29 12q18 0 30 -12l5 -6q10 -8 19 -8q8 0 18 8l9 9q8 10 8 18q0 9 -8 19l-55 55q-14 12 -14 32v32h-29q-22 0 -39 17l-101 101q-16 16 -16 38v388q0 22 16 38l101 101q17 17 39 17h141q22 0 38 -16l101 -102q16 -16 16 -38v-62 q0 -23 -15 -38.5t-38 -15.5t-39 15.5t-16 38.5v29q0 11 -6 18l-57 56q-7 7 -17 7h-75q-11 0 -18 -7l-56 -56q-7 -7 -7 -18z" glyph-name="Ccedilla" unicode="Ç"/><glyph d="M321 803l-80 79q-15 15 -15 38t15 38.5t38 15.5t39 -16l79 -80q16 -16 16 -37q0 -23 -15.5 -38.5t-38.5 -15.5q-22 0 -38 16zM94 55v590q0 23 16 39t39 16h344q23 0 38 -16t15 -39t-15 -39t-38 -16h-255q-14 0 -24 -10t-10 -24v-118q0 -14 10 -24.5t24 -10.5h189 q23 0 38.5 -15t15.5 -38t-15.5 -38.5t-38.5 -15.5h-189q-14 0 -24 -10.5t-10 -24.5v-117q0 -14 10 -24t24 -10h255q23 0 38 -16t15 -39t-15 -39t-38 -16h-344q-23 0 -39 16t-16 39z" glyph-name="Egrave" unicode="È"/><glyph d="M397 882l-79 -79q-16 -16 -38 -16q-23 0 -38.5 15.5t-15.5 38.5q0 22 16 37l79 80q16 16 38 16q23 0 38.5 -15.5t15.5 -38.5q0 -22 -16 -38zM94 55v590q0 23 16 39t39 16h344q23 0 38 -16t15 -39t-15 -39t-38 -16h-255q-14 0 -24 -10t-10 -24v-118q0 -14 10 -24.5 t24 -10.5h189q23 0 38.5 -15t15.5 -38t-15.5 -38.5t-38.5 -15.5h-189q-14 0 -24 -10.5t-10 -24.5v-117q0 -14 10 -24t24 -10h255q23 0 38 -16t15 -39t-15 -39t-38 -16h-344q-23 0 -39 16t-16 39z" glyph-name="Eacute" unicode="É"/><glyph d="M299 836l-36 -35q-10 -14 -34 -14q-20 0 -34 14t-14 34q0 18 14 35l91 89q14 15 34 15q19 0 34 -15l90 -89q14 -14 14 -35t-13.5 -34.5t-34.5 -13.5t-35 14l-35 35q-8 8 -20 8q-13 0 -21 -8zM94 55v590q0 23 16 39t39 16h344q23 0 38 -16t15 -39t-15 -39t-38 -16h-255 q-14 0 -24 -10t-10 -24v-118q0 -14 10 -24.5t24 -10.5h189q23 0 38.5 -15t15.5 -38t-15.5 -38.5t-38.5 -15.5h-189q-14 0 -24 -10.5t-10 -24.5v-117q0 -14 10 -24t24 -10h255q23 0 38 -16t15 -39t-15 -39t-38 -16h-344q-23 0 -39 16t-16 39z" glyph-name="Ecircumflex" unicode="Ê"/><glyph d="M414 797h-19q-23 0 -38.5 15t-15.5 38v20q0 23 15.5 38t38.5 15h19q23 0 38.5 -15t15.5 -38v-20q0 -23 -15.5 -38t-38.5 -15zM244 797h-19q-23 0 -38.5 15t-15.5 38v20q0 23 15.5 38t38.5 15h19q23 0 38.5 -15t15.5 -38v-20q0 -23 -15.5 -38t-38.5 -15zM94 55v590 q0 23 16 39t39 16h344q23 0 38 -16t15 -39t-15 -39t-38 -16h-255q-14 0 -24 -10t-10 -24v-118q0 -14 10 -24.5t24 -10.5h189q23 0 38.5 -15t15.5 -38t-15.5 -38.5t-38.5 -15.5h-189q-14 0 -24 -10.5t-10 -24.5v-117q0 -14 10 -24t24 -10h255q23 0 38 -16t15 -39t-15 -39 t-38 -16h-344q-23 0 -39 16t-16 39z" glyph-name="Edieresis" unicode="Ë"/><glyph d="M321 803l-80 79q-15 15 -15 38t15 38.5t38 15.5t39 -16l79 -80q16 -16 16 -37q0 -23 -15.5 -38.5t-38.5 -15.5q-22 0 -38 16zM450 0h-259q-23 0 -38.5 15.5t-15.5 38.5t15.5 38.5t38.5 15.5h40q14 0 24 10t10 24v416q0 14 -10 24t-24 10h-40q-23 0 -38.5 15.5t-15.5 38.5 t15.5 38.5t38.5 15.5h259q23 0 38 -15.5t15 -38.5t-15 -38.5t-38 -15.5h-41q-14 0 -24 -10t-10 -24v-416q0 -14 10 -24t24 -10h41q23 0 38 -15.5t15 -38.5t-15 -38.5t-38 -15.5z" glyph-name="Igrave" unicode="Ì"/><glyph d="M397 882l-79 -79q-16 -16 -38 -16q-23 0 -38.5 15.5t-15.5 38.5q0 22 16 37l79 80q16 16 38 16q23 0 38.5 -15.5t15.5 -38.5q0 -22 -16 -38zM450 0h-259q-23 0 -38.5 15.5t-15.5 38.5t15.5 38.5t38.5 15.5h40q14 0 24 10t10 24v416q0 14 -10 24t-24 10h-40 q-23 0 -38.5 15.5t-15.5 38.5t15.5 38.5t38.5 15.5h259q23 0 38 -15.5t15 -38.5t-15 -38.5t-38 -15.5h-41q-14 0 -24 -10t-10 -24v-416q0 -14 10 -24t24 -10h41q23 0 38 -15.5t15 -38.5t-15 -38.5t-38 -15.5z" glyph-name="Iacute" unicode="Í"/><glyph d="M299 836l-36 -35q-10 -14 -34 -14q-20 0 -34 14t-14 34q0 18 14 35l91 89q14 15 34 15q19 0 34 -15l90 -89q14 -14 14 -35t-13.5 -34.5t-34.5 -13.5t-35 14l-35 35q-8 8 -20 8q-13 0 -21 -8zM450 0h-259q-23 0 -38.5 15.5t-15.5 38.5t15.5 38.5t38.5 15.5h40q14 0 24 10 t10 24v416q0 14 -10 24t-24 10h-40q-23 0 -38.5 15.5t-15.5 38.5t15.5 38.5t38.5 15.5h259q23 0 38 -15.5t15 -38.5t-15 -38.5t-38 -15.5h-41q-14 0 -24 -10t-10 -24v-416q0 -14 10 -24t24 -10h41q23 0 38 -15.5t15 -38.5t-15 -38.5t-38 -15.5z" glyph-name="Icircumflex" unicode="Î"/><glyph d="M416 797h-19q-23 0 -38.5 15t-15.5 38v20q0 23 15.5 38t38.5 15h19q23 0 38.5 -15t15.5 -38v-20q0 -23 -15.5 -38t-38.5 -15zM246 797h-19q-23 0 -38.5 15t-15.5 38v20q0 23 15.5 38t38.5 15h19q23 0 38.5 -15t15.5 -38v-20q0 -23 -15.5 -38t-38.5 -15zM450 0h-257 q-23 0 -38.5 15.5t-15.5 38.5t15.5 38.5t38.5 15.5h40q14 0 24 10t10 24v416q0 14 -10 24t-24 10h-40q-23 0 -38.5 15.5t-15.5 38.5t15.5 38.5t38.5 15.5h257q23 0 38 -15.5t15 -38.5t-15 -38.5t-38 -15.5h-41q-14 0 -24 -10t-10 -24v-416q0 -14 10 -24t24 -10h41 q23 0 38 -15.5t15 -38.5t-15 -38.5t-38 -15.5z" glyph-name="Idieresis" unicode="Ï"/><glyph d="M94 409v237q0 23 15.5 38.5t38.5 15.5h243q22 0 38 -16l101 -102q16 -16 16 -38v-388q0 -22 -16 -38l-101 -102q-16 -16 -38 -16h-243q-23 0 -38.5 15.5t-15.5 38.5v238q0 5 -4 5h-10q-23 0 -38.5 15.5t-15.5 38.5t15.5 38t38.5 15h10q4 0 4 5zM202 292v-150 q0 -14 10 -24t24 -10h122q10 0 17 7l57 56q6 6 6 18v322q0 12 -6 18l-57 56q-7 7 -17 7h-122q-14 0 -24 -10t-10 -24v-149q0 -5 5 -5h135q23 0 38.5 -15t15.5 -38t-15.5 -38.5t-38.5 -15.5h-135q-5 0 -5 -5z" glyph-name="Eth" unicode="Ð"/><glyph d="M257 894l-9 -10v-27q0 -20 -13.5 -33.5t-33.5 -13.5q-19 0 -32 13.5t-13 33.5v49q0 16 12 29l39 39q13 12 29 12h49q16 0 30 -12l40 -39q11 -14 11 -29v-18l9 -9h8l9 9v28q0 20 13 33t33 13t33 -13t13 -33v-48q0 -18 -12 -29l-39 -39q-10 -13 -30 -13h-48q-20 0 -30 13 l-39 39q-12 11 -12 29v16l-10 10h-7zM198 673l231 -404q3 -5 5 -5t2 7v375q0 23 16.5 38.5t39.5 15.5t38.5 -15.5t15.5 -38.5v-592q0 -23 -15.5 -38.5t-38.5 -15.5q-30 0 -49 27l-232 407q-2 5 -5 5q-2 0 -2 -7v-378q0 -23 -16 -38.5t-39 -15.5t-39 15.5t-16 38.5v592 q0 23 16 38.5t39 15.5q34 0 49 -27z" glyph-name="Ntilde" unicode="Ñ"/><glyph d="M321 803l-80 79q-15 15 -15 38t15 38.5t38 15.5t39 -16l79 -80q16 -16 16 -37q0 -23 -15.5 -38.5t-38.5 -15.5q-22 0 -38 16zM447 683l84 -82q15 -15 15 -38v-426q0 -23 -15 -38l-84 -82q-15 -17 -39 -17h-176q-24 0 -38 17l-84 82q-16 16 -16 38v426q0 22 16 38l84 82 q14 17 38 17h176q24 0 39 -17zM395 117l35 36q6 7 6 17v360q0 10 -6 17l-35 36q-7 7 -18 7h-113q-11 0 -18 -7l-35 -36q-7 -7 -7 -17v-360q0 -10 7 -17l35 -36q7 -7 18 -7h113q11 0 18 7z" glyph-name="Ograve" unicode="Ò"/><glyph d="M397 882l-79 -79q-16 -16 -38 -16q-23 0 -38.5 15.5t-15.5 38.5q0 22 16 37l79 80q16 16 38 16q23 0 38.5 -15.5t15.5 -38.5q0 -22 -16 -38zM447 683l84 -82q15 -15 15 -38v-426q0 -23 -15 -38l-84 -82q-15 -17 -39 -17h-176q-24 0 -38 17l-84 82q-16 16 -16 38v426 q0 22 16 38l84 82q14 17 38 17h176q24 0 39 -17zM395 117l35 36q6 7 6 17v360q0 10 -6 17l-35 36q-7 7 -18 7h-113q-11 0 -18 -7l-35 -36q-7 -7 -7 -17v-360q0 -10 7 -17l35 -36q7 -7 18 -7h113q11 0 18 7z" glyph-name="Oacute" unicode="Ó"/><glyph d="M299 836l-36 -35q-10 -14 -34 -14q-20 0 -34 14t-14 34q0 18 14 35l91 89q14 15 34 15q19 0 34 -15l90 -89q14 -14 14 -35t-13.5 -34.5t-34.5 -13.5t-35 14l-35 35q-8 8 -20 8q-13 0 -21 -8zM447 683l84 -82q15 -15 15 -38v-426q0 -23 -15 -38l-84 -82q-15 -17 -39 -17 h-176q-24 0 -38 17l-84 82q-16 16 -16 38v426q0 22 16 38l84 82q14 17 38 17h176q24 0 39 -17zM395 117l35 36q6 7 6 17v360q0 10 -6 17l-35 36q-7 7 -18 7h-113q-11 0 -18 -7l-35 -36q-7 -7 -7 -17v-360q0 -10 7 -17l35 -36q7 -7 18 -7h113q11 0 18 7z" glyph-name="Ocircumflex" unicode="Ô"/><glyph d="M257 894l-9 -10v-27q0 -20 -13.5 -33.5t-33.5 -13.5q-19 0 -32 13.5t-13 33.5v49q0 16 12 29l39 39q13 12 29 12h49q16 0 30 -12l40 -39q11 -14 11 -29v-18l9 -9h8l9 9v28q0 20 13 33t33 13t33 -13t13 -33v-48q0 -18 -12 -29l-39 -39q-10 -13 -30 -13h-48q-20 0 -30 13 l-39 39q-12 11 -12 29v16l-10 10h-7zM447 683l84 -82q15 -15 15 -38v-426q0 -23 -15 -38l-84 -82q-15 -17 -39 -17h-176q-24 0 -38 17l-84 82q-16 16 -16 38v426q0 22 16 38l84 82q14 17 38 17h176q24 0 39 -17zM395 117l35 36q6 7 6 17v360q0 10 -6 17l-35 36q-7 7 -18 7 h-113q-11 0 -18 -7l-35 -36q-7 -7 -7 -17v-360q0 -10 7 -17l35 -36q7 -7 18 -7h113q11 0 18 7z" glyph-name="Otilde" unicode="Õ"/><glyph d="M414 797h-19q-23 0 -38.5 15t-15.5 38v20q0 23 15.5 38t38.5 15h19q23 0 38.5 -15t15.5 -38v-20q0 -23 -15.5 -38t-38.5 -15zM244 797h-19q-23 0 -38.5 15t-15.5 38v20q0 23 15.5 38t38.5 15h19q23 0 38.5 -15t15.5 -38v-20q0 -23 -15.5 -38t-38.5 -15zM447 683l84 -82 q15 -15 15 -38v-426q0 -23 -15 -38l-84 -82q-15 -17 -39 -17h-176q-24 0 -38 17l-84 82q-16 16 -16 38v426q0 22 16 38l84 82q14 17 38 17h176q24 0 39 -17zM395 117l35 36q6 7 6 17v360q0 10 -6 17l-35 36q-7 7 -18 7h-113q-11 0 -18 -7l-35 -36q-7 -7 -7 -17v-360 q0 -10 7 -17l35 -36q7 -7 18 -7h113q11 0 18 7z" glyph-name="Odieresis" unicode="Ö"/><glyph d="M421 326l68 -68q16 -16 16 -38v-1q0 -21 -16.5 -37.5t-37.5 -16.5q-22 0 -39 17l-68 68q-11 11 -23 11q-13 0 -24 -11l-69 -69q-17 -17 -38 -17q-23 0 -39 17t-16 39q0 21 16 37l69 69q10 10 10 24t-10 24l-69 69q-16 16 -16 37q0 22 16 39t39 17q21 0 38 -17l69 -69 q10 -10 24 -10q13 0 23 10l69 69q17 17 38 17h1q21 0 37 -17t16 -38q0 -22 -16 -38l-68 -69q-10 -10 -10 -24t10 -24z" glyph-name="multiply" unicode="×"/><glyph d="M517 623l3 3q15 15 39 15q23 0 38 -15t15 -38t-15 -38l-42 -43q-8 -8 -8 -18v-353q0 -22 -16 -39l-82 -80q-15 -17 -38 -17h-180q-24 0 -38 17l-62 60q-2 2 -3 2t-3 -2l-3 -3q-15 -15 -39 -15q-23 0 -38.5 15t-15.5 38t16 39l42 42q8 8 8 18v354q0 22 16 38l82 80 q14 17 38 17h180q23 0 38 -17l61 -60q2 -2 4 -2q1 0 3 2zM431 550l-34 34q-10 8 -19 8h-114q-9 0 -19 -8l-35 -34q-8 -10 -8 -18v-215q0 -5 3 -5q2 0 4 2l222 222q3 3 3 7t-3 7zM211 149l34 -33q10 -8 19 -8h114q9 0 19 8l35 34q7 12 7 18v214q0 5 -3 5q-2 0 -4 -2 l-221 -222q-3 -3 -3 -7t3 -7z" glyph-name="Oslash" unicode="Ø"/><glyph d="M321 803l-80 79q-15 15 -15 38t15 38.5t38 15.5t39 -16l79 -80q16 -16 16 -37q0 -23 -15.5 -38.5t-38.5 -15.5q-22 0 -38 16zM204 648v-478q0 -10 7 -17l35 -36q7 -7 18 -7h113q11 0 18 7l35 36q6 6 6 17v478q0 23 16.5 38.5t39.5 15.5t38.5 -15.5t15.5 -38.5v-511 q0 -23 -15 -38l-84 -82q-15 -17 -39 -17h-176q-24 0 -38 17l-84 82q-16 16 -16 38v511q0 23 16 38.5t39 15.5t39 -15.5t16 -38.5z" glyph-name="Ugrave" unicode="Ù"/><glyph d="M397 882l-79 -79q-16 -16 -38 -16q-23 0 -38.5 15.5t-15.5 38.5q0 22 16 37l79 80q16 16 38 16q23 0 38.5 -15.5t15.5 -38.5q0 -22 -16 -38zM204 648v-478q0 -10 7 -17l35 -36q7 -7 18 -7h113q11 0 18 7l35 36q6 6 6 17v478q0 23 16.5 38.5t39.5 15.5t38.5 -15.5 t15.5 -38.5v-511q0 -23 -15 -38l-84 -82q-15 -17 -39 -17h-176q-24 0 -38 17l-84 82q-16 16 -16 38v511q0 23 16 38.5t39 15.5t39 -15.5t16 -38.5z" glyph-name="Uacute" unicode="Ú"/><glyph d="M299 836l-36 -35q-10 -14 -34 -14q-20 0 -34 14t-14 34q0 18 14 35l91 89q14 15 34 15q19 0 34 -15l90 -89q14 -14 14 -35t-13.5 -34.5t-34.5 -13.5t-35 14l-35 35q-8 8 -20 8q-13 0 -21 -8zM204 648v-478q0 -10 7 -17l35 -36q7 -7 18 -7h113q11 0 18 7l35 36q6 6 6 17 v478q0 23 16.5 38.5t39.5 15.5t38.5 -15.5t15.5 -38.5v-511q0 -23 -15 -38l-84 -82q-15 -17 -39 -17h-176q-24 0 -38 17l-84 82q-16 16 -16 38v511q0 23 16 38.5t39 15.5t39 -15.5t16 -38.5z" glyph-name="Ucircumflex" unicode="Û"/><glyph d="M414 797h-19q-23 0 -38.5 15t-15.5 38v20q0 23 15.5 38t38.5 15h19q23 0 38.5 -15t15.5 -38v-20q0 -23 -15.5 -38t-38.5 -15zM244 797h-19q-23 0 -38.5 15t-15.5 38v20q0 23 15.5 38t38.5 15h19q23 0 38.5 -15t15.5 -38v-20q0 -23 -15.5 -38t-38.5 -15zM204 648v-478 q0 -10 7 -17l35 -36q7 -7 18 -7h113q11 0 18 7l35 36q6 6 6 17v478q0 23 16.5 38.5t39.5 15.5t38.5 -15.5t15.5 -38.5v-511q0 -23 -15 -38l-84 -82q-15 -17 -39 -17h-176q-24 0 -38 17l-84 82q-16 16 -16 38v511q0 23 16 38.5t39 15.5t39 -15.5t16 -38.5z" glyph-name="Udieresis" unicode="Ü"/><glyph d="M397 882l-79 -79q-16 -16 -38 -16q-23 0 -38.5 15.5t-15.5 38.5q0 22 16 37l79 80q16 16 38 16q23 0 38.5 -15.5t15.5 -38.5q0 -22 -16 -38zM258 295l-147 148q-17 17 -17 39v164q0 23 16 38.5t39 15.5t39 -15.5t16 -38.5v-131q0 -10 7 -17l84 -88q9 -9 24 -9t25 9l86 88 q6 6 6 17v131q0 23 16.5 38.5t39.5 15.5t38.5 -15.5t15.5 -38.5v-164q0 -24 -16 -39l-149 -148q-7 -7 -7 -18v-223q0 -23 -15.5 -38.5t-39.5 -15.5q-23 0 -39 15.5t-16 38.5v223q0 12 -6 18z" glyph-name="Yacute" unicode="Ý"/><glyph d="M94 54v592q0 23 15.5 38.5t38.5 15.5t38.5 -15.5t15.5 -38.5v-9q0 -14 10 -24t24 -10h155q22 0 38 -16l101 -102q16 -16 16 -38v-194q0 -22 -16 -38l-101 -102q-16 -16 -38 -16h-155q-14 0 -24 -10t-10 -24v-9q0 -23 -15.5 -38.5t-38.5 -15.5t-38.5 15.5t-15.5 38.5z M438 286v128q0 12 -6 18l-57 56q-7 7 -17 7h-122q-14 0 -24 -10t-10 -24v-222q0 -14 10 -24t24 -10h122q10 0 17 7l57 56q6 6 6 18z" glyph-name="Thorn" unicode="Þ"/><glyph d="M204 534v-552q0 -23 -15.5 -38t-38.5 -15q-22 0 -37.5 15t-15.5 38v584q0 22 16 38l80 79q15 17 38 17h152q22 0 37 -17l81 -79q15 -15 15 -38v-112q0 -20 -15 -37l-20 -19q-9 -10 -9 -24t9 -24l48 -47q15 -16 15 -38v-130q0 -23 -15 -39l-81 -79q-15 -17 -38 -17h-122 q-23 0 -38 15t-15 38t15 38.5t38 15.5h90q8 0 18 8l34 33q7 12 7 18v67q0 6 -7 18l-85 85q-16 17 -16 38t16 37l57 58q7 8 7 18v47q0 10 -7 18l-34 33q-10 8 -18 8h-86q-9 0 -19 -8l-33 -33q-8 -10 -8 -18z" glyph-name="germandbls" unicode="ß"/><glyph d="M546 542v-488q0 -23 -15.5 -38.5t-38.5 -15.5t-39.5 15.5t-16.5 38.5v185q0 14 -9.5 24t-23.5 10h-166q-14 0 -23.5 -10t-9.5 -24v-185q0 -23 -16 -38.5t-39 -15.5t-39 15.5t-16 38.5v488q0 22 16 38l104 103q15 17 37 17h139q21 0 37 -16l103 -104q16 -16 16 -38z M436 417v94q0 11 -6 17l-56 55q-7 7 -17 7h-73q-11 0 -18 -7l-55 -55q-7 -7 -7 -17v-94q0 -14 9.5 -24t23.5 -10h166q14 0 23.5 10t9.5 24zM321 803l-80 79q-15 15 -15 38t15 38.5t38 15.5t39 -16l79 -80q16 -16 16 -37q0 -23 -15.5 -38.5t-38.5 -15.5q-22 0 -38 16z" glyph-name="agrave" unicode="à"/><glyph d="M546 542v-488q0 -23 -15.5 -38.5t-38.5 -15.5t-39.5 15.5t-16.5 38.5v185q0 14 -9.5 24t-23.5 10h-166q-14 0 -23.5 -10t-9.5 -24v-185q0 -23 -16 -38.5t-39 -15.5t-39 15.5t-16 38.5v488q0 22 16 38l104 103q15 17 37 17h139q21 0 37 -16l103 -104q16 -16 16 -38z M436 417v94q0 11 -6 17l-56 55q-7 7 -17 7h-73q-11 0 -18 -7l-55 -55q-7 -7 -7 -17v-94q0 -14 9.5 -24t23.5 -10h166q14 0 23.5 10t9.5 24zM397 882l-79 -79q-16 -16 -38 -16q-23 0 -38.5 15.5t-15.5 38.5q0 22 16 37l79 80q16 16 38 16q23 0 38.5 -15.5t15.5 -38.5 q0 -22 -16 -38z" glyph-name="aacute" unicode="á"/><glyph d="M546 542v-488q0 -23 -15.5 -38.5t-38.5 -15.5t-39.5 15.5t-16.5 38.5v185q0 14 -9.5 24t-23.5 10h-166q-14 0 -23.5 -10t-9.5 -24v-185q0 -23 -16 -38.5t-39 -15.5t-39 15.5t-16 38.5v488q0 22 16 38l104 103q15 17 37 17h139q21 0 37 -16l103 -104q16 -16 16 -38z M436 417v94q0 11 -6 17l-56 55q-7 7 -17 7h-73q-11 0 -18 -7l-55 -55q-7 -7 -7 -17v-94q0 -14 9.5 -24t23.5 -10h166q14 0 23.5 10t9.5 24zM299 836l-36 -35q-10 -14 -34 -14q-20 0 -34 14t-14 34q0 18 14 35l91 89q14 15 34 15q19 0 34 -15l90 -89q14 -14 14 -35 t-13.5 -34.5t-34.5 -13.5t-35 14l-35 35q-8 8 -20 8q-13 0 -21 -8z" glyph-name="acircumflex" unicode="â"/><glyph d="M546 542v-488q0 -23 -15.5 -38.5t-38.5 -15.5t-39.5 15.5t-16.5 38.5v185q0 14 -9.5 24t-23.5 10h-166q-14 0 -23.5 -10t-9.5 -24v-185q0 -23 -16 -38.5t-39 -15.5t-39 15.5t-16 38.5v488q0 22 16 38l104 103q15 17 37 17h139q21 0 37 -16l103 -104q16 -16 16 -38z M436 417v94q0 11 -6 17l-56 55q-7 7 -17 7h-73q-11 0 -18 -7l-55 -55q-7 -7 -7 -17v-94q0 -14 9.5 -24t23.5 -10h166q14 0 23.5 10t9.5 24zM257 894l-9 -10v-27q0 -20 -13.5 -33.5t-33.5 -13.5q-19 0 -32 13.5t-13 33.5v49q0 16 12 29l39 39q13 12 29 12h49q16 0 30 -12 l40 -39q11 -14 11 -29v-18l9 -9h8l9 9v28q0 20 13 33t33 13t33 -13t13 -33v-48q0 -18 -12 -29l-39 -39q-10 -13 -30 -13h-48q-20 0 -30 13l-39 39q-12 11 -12 29v16l-10 10h-7z" glyph-name="atilde" unicode="ã"/><glyph d="M546 542v-488q0 -23 -15.5 -38.5t-38.5 -15.5t-39.5 15.5t-16.5 38.5v185q0 14 -9.5 24t-23.5 10h-166q-14 0 -23.5 -10t-9.5 -24v-185q0 -23 -16 -38.5t-39 -15.5t-39 15.5t-16 38.5v488q0 22 16 38l104 103q15 17 37 17h139q21 0 37 -16l103 -104q16 -16 16 -38z M436 417v94q0 11 -6 17l-56 55q-7 7 -17 7h-73q-11 0 -18 -7l-55 -55q-7 -7 -7 -17v-94q0 -14 9.5 -24t23.5 -10h166q14 0 23.5 10t9.5 24zM414 797h-19q-23 0 -38.5 15t-15.5 38v20q0 23 15.5 38t38.5 15h19q23 0 38.5 -15t15.5 -38v-20q0 -23 -15.5 -38t-38.5 -15z M244 797h-19q-23 0 -38.5 15t-15.5 38v20q0 23 15.5 38t38.5 15h19q23 0 38.5 -15t15.5 -38v-20q0 -23 -15.5 -38t-38.5 -15z" glyph-name="adieresis" unicode="ä"/><glyph d="M546 542v-488q0 -23 -15.5 -38.5t-38.5 -15.5t-39.5 15.5t-16.5 38.5v185q0 14 -9.5 24t-23.5 10h-166q-14 0 -23.5 -10t-9.5 -24v-185q0 -23 -16 -38.5t-39 -15.5t-39 15.5t-16 38.5v488q0 22 16 38l104 103q15 17 37 17h139q21 0 37 -16l103 -104q16 -16 16 -38z M436 417v94q0 11 -6 17l-56 55q-7 7 -17 7h-73q-11 0 -18 -7l-55 -55q-7 -7 -7 -17v-94q0 -14 9.5 -24t23.5 -10h166q14 0 23.5 10t9.5 24zM202 836v59q0 15 11 26l51 53q13 9 27 9h58q16 0 27 -10l51 -52q10 -10 10 -26v-59q0 -17 -10 -27l-51 -50q-11 -11 -27 -11h-58 q-16 0 -27 10l-52 51q-10 13 -10 27zM301 894l-10 -11q-7 -7 -7 -17q0 -11 7 -18l10 -10q7 -7 18 -7q10 0 17 7l11 10q7 7 7 18q0 10 -7 17l-11 11q-7 7 -17 7q-11 0 -18 -7z" glyph-name="aring" unicode="å"/><glyph d="M265 54v215q0 5 -4 5h-45q-14 0 -24 -10t-10 -24v-186q0 -23 -16 -38.5t-39 -15.5t-38 15.5t-15 38.5v490q0 22 16 38l102 101q14 17 37 17h282q23 0 38.5 -15.5t15.5 -38.5t-15.5 -38.5t-38.5 -15.5h-104q-14 0 -24 -10t-10 -24v-120q0 -14 10 -24.5t24 -10.5h85 q23 0 38 -15t15 -38t-15 -38.5t-38 -15.5h-85q-14 0 -24 -10t-10 -24v-120q0 -14 10 -24t24 -10h104q23 0 38.5 -15.5t15.5 -38.5t-15.5 -38.5t-38.5 -15.5h-192q-23 0 -38.5 15.5t-15.5 38.5zM265 387v201q0 4 -4 4q-9 0 -16 -7l-55 -55q-8 -10 -8 -19v-95q0 -14 10 -24 t24 -10h45q4 0 4 5z" glyph-name="ae" unicode="æ"/><glyph d="M203 511v-322q0 -11 7 -18l56 -56q7 -7 18 -7h75q10 0 17 7l57 56q6 7 6 18v29q0 23 16 38.5t39 15.5t38 -15.5t15 -38.5v-62q0 -22 -16 -38l-101 -102q-16 -16 -38 -16h-29v-6q0 -6 7 -18l60 -57q9 -12 9 -27v-59q0 -16 -10 -26l-52 -51q-11 -11 -26 -11h-59 q-17 0 -26 11l-27 27q-12 12 -12 29t12 29t29 12q18 0 30 -12l5 -6q10 -8 19 -8q8 0 18 8l9 9q8 10 8 18q0 9 -8 19l-55 55q-14 12 -14 32v32h-29q-22 0 -39 17l-101 101q-16 16 -16 38v388q0 22 16 38l101 101q17 17 39 17h141q22 0 38 -16l101 -102q16 -16 16 -38v-62 q0 -23 -15 -38.5t-38 -15.5t-39 15.5t-16 38.5v29q0 11 -6 18l-57 56q-7 7 -17 7h-75q-11 0 -18 -7l-56 -56q-7 -7 -7 -18z" glyph-name="ccedilla" unicode="ç"/><glyph d="M94 55v590q0 23 16 39t39 16h344q23 0 38 -16t15 -39t-15 -39t-38 -16h-255q-14 0 -24 -10t-10 -24v-118q0 -14 10 -24.5t24 -10.5h189q23 0 38.5 -15t15.5 -38t-15.5 -38.5t-38.5 -15.5h-189q-14 0 -24 -10.5t-10 -24.5v-117q0 -14 10 -24t24 -10h255q23 0 38 -16 t15 -39t-15 -39t-38 -16h-344q-23 0 -39 16t-16 39zM321 803l-80 79q-15 15 -15 38t15 38.5t38 15.5t39 -16l79 -80q16 -16 16 -37q0 -23 -15.5 -38.5t-38.5 -15.5q-22 0 -38 16z" glyph-name="egrave" unicode="è"/><glyph d="M94 55v590q0 23 16 39t39 16h344q23 0 38 -16t15 -39t-15 -39t-38 -16h-255q-14 0 -24 -10t-10 -24v-118q0 -14 10 -24.5t24 -10.5h189q23 0 38.5 -15t15.5 -38t-15.5 -38.5t-38.5 -15.5h-189q-14 0 -24 -10.5t-10 -24.5v-117q0 -14 10 -24t24 -10h255q23 0 38 -16 t15 -39t-15 -39t-38 -16h-344q-23 0 -39 16t-16 39zM397 882l-79 -79q-16 -16 -38 -16q-23 0 -38.5 15.5t-15.5 38.5q0 22 16 37l79 80q16 16 38 16q23 0 38.5 -15.5t15.5 -38.5q0 -22 -16 -38z" glyph-name="eacute" unicode="é"/><glyph d="M94 55v590q0 23 16 39t39 16h344q23 0 38 -16t15 -39t-15 -39t-38 -16h-255q-14 0 -24 -10t-10 -24v-118q0 -14 10 -24.5t24 -10.5h189q23 0 38.5 -15t15.5 -38t-15.5 -38.5t-38.5 -15.5h-189q-14 0 -24 -10.5t-10 -24.5v-117q0 -14 10 -24t24 -10h255q23 0 38 -16 t15 -39t-15 -39t-38 -16h-344q-23 0 -39 16t-16 39zM299 836l-36 -35q-10 -14 -34 -14q-20 0 -34 14t-14 34q0 18 14 35l91 89q14 15 34 15q19 0 34 -15l90 -89q14 -14 14 -35t-13.5 -34.5t-34.5 -13.5t-35 14l-35 35q-8 8 -20 8q-13 0 -21 -8z" glyph-name="ecircumflex" unicode="ê"/><glyph d="M94 55v590q0 23 16 39t39 16h344q23 0 38 -16t15 -39t-15 -39t-38 -16h-255q-14 0 -24 -10t-10 -24v-118q0 -14 10 -24.5t24 -10.5h189q23 0 38.5 -15t15.5 -38t-15.5 -38.5t-38.5 -15.5h-189q-14 0 -24 -10.5t-10 -24.5v-117q0 -14 10 -24t24 -10h255q23 0 38 -16 t15 -39t-15 -39t-38 -16h-344q-23 0 -39 16t-16 39zM414 797h-19q-23 0 -38.5 15t-15.5 38v20q0 23 15.5 38t38.5 15h19q23 0 38.5 -15t15.5 -38v-20q0 -23 -15.5 -38t-38.5 -15zM244 797h-19q-23 0 -38.5 15t-15.5 38v20q0 23 15.5 38t38.5 15h19q23 0 38.5 -15t15.5 -38 v-20q0 -23 -15.5 -38t-38.5 -15z" glyph-name="edieresis" unicode="ë"/><glyph d="M321 803l-80 79q-15 15 -15 38t15 38.5t38 15.5t39 -16l79 -80q16 -16 16 -37q0 -23 -15.5 -38.5t-38.5 -15.5q-22 0 -38 16zM445 0h-255q-22 0 -37 15t-15 38t15 38.5t37 15.5h41q14 0 23.5 10t9.5 24v410q0 14 -9.5 24t-23.5 10h-41q-22 0 -37 15.5t-15 38.5t15 38 t37 15h255q23 0 38 -15t15 -38t-15 -38.5t-38 -15.5h-40q-14 0 -24 -10t-10 -24v-410q0 -14 10 -24t24 -10h40q23 0 38 -15.5t15 -38.5t-15 -38t-38 -15z" glyph-name="igrave" unicode="ì"/><glyph d="M397 882l-79 -79q-16 -16 -38 -16q-23 0 -38.5 15.5t-15.5 38.5q0 22 16 37l79 80q16 16 38 16q23 0 38.5 -15.5t15.5 -38.5q0 -22 -16 -38zM445 0h-255q-22 0 -37 15t-15 38t15 38.5t37 15.5h41q14 0 23.5 10t9.5 24v410q0 14 -9.5 24t-23.5 10h-41q-22 0 -37 15.5 t-15 38.5t15 38t37 15h255q23 0 38 -15t15 -38t-15 -38.5t-38 -15.5h-40q-14 0 -24 -10t-10 -24v-410q0 -14 10 -24t24 -10h40q23 0 38 -15.5t15 -38.5t-15 -38t-38 -15z" glyph-name="iacute" unicode="í"/><glyph d="M299 836l-36 -35q-10 -14 -34 -14q-20 0 -34 14t-14 34q0 18 14 35l91 89q14 15 34 15q19 0 34 -15l90 -89q14 -14 14 -35t-13.5 -34.5t-34.5 -13.5t-35 14l-35 35q-8 8 -20 8q-13 0 -21 -8zM445 0h-255q-22 0 -37 15t-15 38t15 38.5t37 15.5h41q14 0 23.5 10t9.5 24v410 q0 14 -9.5 24t-23.5 10h-41q-22 0 -37 15.5t-15 38.5t15 38t37 15h255q23 0 38 -15t15 -38t-15 -38.5t-38 -15.5h-40q-14 0 -24 -10t-10 -24v-410q0 -14 10 -24t24 -10h40q23 0 38 -15.5t15 -38.5t-15 -38t-38 -15z" glyph-name="icircumflex" unicode="î"/><glyph d="M414 797h-19q-23 0 -38.5 15t-15.5 38v20q0 23 15.5 38t38.5 15h19q23 0 38.5 -15t15.5 -38v-20q0 -23 -15.5 -38t-38.5 -15zM244 797h-19q-23 0 -38.5 15t-15.5 38v20q0 23 15.5 38t38.5 15h19q23 0 38.5 -15t15.5 -38v-20q0 -23 -15.5 -38t-38.5 -15zM445 0h-255 q-22 0 -37 15t-15 38t15 38.5t37 15.5h41q14 0 23.5 10t9.5 24v410q0 14 -9.5 24t-23.5 10h-41q-22 0 -37 15.5t-15 38.5t15 38t37 15h255q23 0 38 -15t15 -38t-15 -38.5t-38 -15.5h-40q-14 0 -24 -10t-10 -24v-410q0 -14 10 -24t24 -10h40q23 0 38 -15.5t15 -38.5t-15 -38 t-38 -15z" glyph-name="idieresis" unicode="ï"/><glyph d="M94 409v237q0 23 15.5 38.5t38.5 15.5h243q22 0 38 -16l101 -102q16 -16 16 -38v-388q0 -22 -16 -38l-101 -102q-16 -16 -38 -16h-243q-23 0 -38.5 15.5t-15.5 38.5v238q0 5 -4 5h-10q-23 0 -38.5 15.5t-15.5 38.5t15.5 38t38.5 15h10q4 0 4 5zM202 292v-150 q0 -14 10 -24t24 -10h122q10 0 17 7l57 56q6 6 6 18v322q0 12 -6 18l-57 56q-7 7 -17 7h-122q-14 0 -24 -10t-10 -24v-149q0 -5 5 -5h135q23 0 38.5 -15t15.5 -38t-15.5 -38.5t-38.5 -15.5h-135q-5 0 -5 -5z" glyph-name="eth" unicode="ð"/><glyph d="M198 673l231 -404q3 -5 5 -5t2 7v375q0 23 16.5 38.5t39.5 15.5t38.5 -15.5t15.5 -38.5v-592q0 -23 -15.5 -38.5t-38.5 -15.5q-30 0 -49 27l-232 407q-2 5 -5 5q-2 0 -2 -7v-378q0 -23 -16 -38.5t-39 -15.5t-39 15.5t-16 38.5v592q0 23 16 38.5t39 15.5q34 0 49 -27z M257 894l-9 -10v-27q0 -20 -13.5 -33.5t-33.5 -13.5q-19 0 -32 13.5t-13 33.5v49q0 16 12 29l39 39q13 12 29 12h49q16 0 30 -12l40 -39q11 -14 11 -29v-18l9 -9h8l9 9v28q0 20 13 33t33 13t33 -13t13 -33v-48q0 -18 -12 -29l-39 -39q-10 -13 -30 -13h-48q-20 0 -30 13 l-39 39q-12 11 -12 29v16l-10 10h-7z" glyph-name="ntilde" unicode="ñ"/><glyph d="M447 683l84 -82q15 -15 15 -38v-426q0 -23 -15 -38l-84 -82q-15 -17 -39 -17h-176q-24 0 -38 17l-84 82q-16 16 -16 38v426q0 22 16 38l84 82q14 17 38 17h176q24 0 39 -17zM395 117l35 36q6 7 6 17v360q0 10 -6 17l-35 36q-7 7 -18 7h-113q-11 0 -18 -7l-35 -36 q-7 -7 -7 -17v-360q0 -10 7 -17l35 -36q7 -7 18 -7h113q11 0 18 7zM321 803l-80 79q-15 15 -15 38t15 38.5t38 15.5t39 -16l79 -80q16 -16 16 -37q0 -23 -15.5 -38.5t-38.5 -15.5q-22 0 -38 16z" glyph-name="ograve" unicode="ò"/><glyph d="M447 683l84 -82q15 -15 15 -38v-426q0 -23 -15 -38l-84 -82q-15 -17 -39 -17h-176q-24 0 -38 17l-84 82q-16 16 -16 38v426q0 22 16 38l84 82q14 17 38 17h176q24 0 39 -17zM395 117l35 36q6 7 6 17v360q0 10 -6 17l-35 36q-7 7 -18 7h-113q-11 0 -18 -7l-35 -36 q-7 -7 -7 -17v-360q0 -10 7 -17l35 -36q7 -7 18 -7h113q11 0 18 7zM397 882l-79 -79q-16 -16 -38 -16q-23 0 -38.5 15.5t-15.5 38.5q0 22 16 37l79 80q16 16 38 16q23 0 38.5 -15.5t15.5 -38.5q0 -22 -16 -38z" glyph-name="oacute" unicode="ó"/><glyph d="M447 683l84 -82q15 -15 15 -38v-426q0 -23 -15 -38l-84 -82q-15 -17 -39 -17h-176q-24 0 -38 17l-84 82q-16 16 -16 38v426q0 22 16 38l84 82q14 17 38 17h176q24 0 39 -17zM395 117l35 36q6 7 6 17v360q0 10 -6 17l-35 36q-7 7 -18 7h-113q-11 0 -18 -7l-35 -36 q-7 -7 -7 -17v-360q0 -10 7 -17l35 -36q7 -7 18 -7h113q11 0 18 7zM299 836l-36 -35q-10 -14 -34 -14q-20 0 -34 14t-14 34q0 18 14 35l91 89q14 15 34 15q19 0 34 -15l90 -89q14 -14 14 -35t-13.5 -34.5t-34.5 -13.5t-35 14l-35 35q-8 8 -20 8q-13 0 -21 -8z" glyph-name="ocircumflex" unicode="ô"/><glyph d="M447 683l84 -82q15 -15 15 -38v-426q0 -23 -15 -38l-84 -82q-15 -17 -39 -17h-176q-24 0 -38 17l-84 82q-16 16 -16 38v426q0 22 16 38l84 82q14 17 38 17h176q24 0 39 -17zM395 117l35 36q6 7 6 17v360q0 10 -6 17l-35 36q-7 7 -18 7h-113q-11 0 -18 -7l-35 -36 q-7 -7 -7 -17v-360q0 -10 7 -17l35 -36q7 -7 18 -7h113q11 0 18 7zM257 894l-9 -10v-27q0 -20 -13.5 -33.5t-33.5 -13.5q-19 0 -32 13.5t-13 33.5v49q0 16 12 29l39 39q13 12 29 12h49q16 0 30 -12l40 -39q11 -14 11 -29v-18l9 -9h8l9 9v28q0 20 13 33t33 13t33 -13t13 -33 v-48q0 -18 -12 -29l-39 -39q-10 -13 -30 -13h-48q-20 0 -30 13l-39 39q-12 11 -12 29v16l-10 10h-7z" glyph-name="otilde" unicode="õ"/><glyph d="M447 683l84 -82q15 -15 15 -38v-426q0 -23 -15 -38l-84 -82q-15 -17 -39 -17h-176q-24 0 -38 17l-84 82q-16 16 -16 38v426q0 22 16 38l84 82q14 17 38 17h176q24 0 39 -17zM395 117l35 36q6 7 6 17v360q0 10 -6 17l-35 36q-7 7 -18 7h-113q-11 0 -18 -7l-35 -36 q-7 -7 -7 -17v-360q0 -10 7 -17l35 -36q7 -7 18 -7h113q11 0 18 7zM414 797h-19q-23 0 -38.5 15t-15.5 38v20q0 23 15.5 38t38.5 15h19q23 0 38.5 -15t15.5 -38v-20q0 -23 -15.5 -38t-38.5 -15zM244 797h-19q-23 0 -38.5 15t-15.5 38v20q0 23 15.5 38t38.5 15h19 q23 0 38.5 -15t15.5 -38v-20q0 -23 -15.5 -38t-38.5 -15z" glyph-name="odieresis" unicode="ö"/><glyph d="M339 442h-39q-23 0 -38 15.5t-15 38.5v39q0 23 15 38t38 15h39q23 0 38.5 -15t15.5 -38v-39q0 -23 -15.5 -38.5t-38.5 -15.5zM167 404h306q23 0 38.5 -15t15.5 -38t-15.5 -38.5t-38.5 -15.5h-306q-23 0 -38 15.5t-15 38.5t15 38t38 15zM339 112h-39q-23 0 -38 15t-15 38 v39q0 23 15 38.5t38 15.5h39q23 0 38.5 -15.5t15.5 -38.5v-39q0 -23 -15.5 -38t-38.5 -15z" glyph-name="divide" unicode="÷"/><glyph d="M517 623l3 3q15 15 39 15q23 0 38 -15t15 -38t-15 -38l-42 -43q-8 -8 -8 -18v-353q0 -22 -16 -39l-82 -80q-15 -17 -38 -17h-180q-24 0 -38 17l-62 60q-2 2 -3 2t-3 -2l-3 -3q-15 -15 -39 -15q-23 0 -38.5 15t-15.5 38t16 39l42 42q8 8 8 18v354q0 22 16 38l82 80 q14 17 38 17h180q23 0 38 -17l61 -60q2 -2 4 -2q1 0 3 2zM431 550l-34 34q-10 8 -19 8h-114q-9 0 -19 -8l-35 -34q-8 -10 -8 -18v-215q0 -5 3 -5q2 0 4 2l222 222q3 3 3 7t-3 7zM211 149l34 -33q10 -8 19 -8h114q9 0 19 8l35 34q7 12 7 18v214q0 5 -3 5q-2 0 -4 -2 l-221 -222q-3 -3 -3 -7t3 -7z" glyph-name="oslash" unicode="ø"/><glyph d="M204 648v-478q0 -10 7 -17l35 -36q7 -7 18 -7h113q11 0 18 7l35 36q6 6 6 17v478q0 23 16.5 38.5t39.5 15.5t38.5 -15.5t15.5 -38.5v-511q0 -23 -15 -38l-84 -82q-15 -17 -39 -17h-176q-24 0 -38 17l-84 82q-16 16 -16 38v511q0 23 16 38.5t39 15.5t39 -15.5t16 -38.5z M321 803l-80 79q-15 15 -15 38t15 38.5t38 15.5t39 -16l79 -80q16 -16 16 -37q0 -23 -15.5 -38.5t-38.5 -15.5q-22 0 -38 16z" glyph-name="ugrave" unicode="ù"/><glyph d="M204 648v-478q0 -10 7 -17l35 -36q7 -7 18 -7h113q11 0 18 7l35 36q6 6 6 17v478q0 23 16.5 38.5t39.5 15.5t38.5 -15.5t15.5 -38.5v-511q0 -23 -15 -38l-84 -82q-15 -17 -39 -17h-176q-24 0 -38 17l-84 82q-16 16 -16 38v511q0 23 16 38.5t39 15.5t39 -15.5t16 -38.5z M397 882l-79 -79q-16 -16 -38 -16q-23 0 -38.5 15.5t-15.5 38.5q0 22 16 37l79 80q16 16 38 16q23 0 38.5 -15.5t15.5 -38.5q0 -22 -16 -38z" glyph-name="uacute" unicode="ú"/><glyph d="M204 648v-478q0 -10 7 -17l35 -36q7 -7 18 -7h113q11 0 18 7l35 36q6 6 6 17v478q0 23 16.5 38.5t39.5 15.5t38.5 -15.5t15.5 -38.5v-511q0 -23 -15 -38l-84 -82q-15 -17 -39 -17h-176q-24 0 -38 17l-84 82q-16 16 -16 38v511q0 23 16 38.5t39 15.5t39 -15.5t16 -38.5z M299 836l-36 -35q-10 -14 -34 -14q-20 0 -34 14t-14 34q0 18 14 35l91 89q14 15 34 15q19 0 34 -15l90 -89q14 -14 14 -35t-13.5 -34.5t-34.5 -13.5t-35 14l-35 35q-8 8 -20 8q-13 0 -21 -8z" glyph-name="ucircumflex" unicode="û"/><glyph d="M204 648v-478q0 -10 7 -17l35 -36q7 -7 18 -7h113q11 0 18 7l35 36q6 6 6 17v478q0 23 16.5 38.5t39.5 15.5t38.5 -15.5t15.5 -38.5v-511q0 -23 -15 -38l-84 -82q-15 -17 -39 -17h-176q-24 0 -38 17l-84 82q-16 16 -16 38v511q0 23 16 38.5t39 15.5t39 -15.5t16 -38.5z M414 797h-19q-23 0 -38.5 15t-15.5 38v20q0 23 15.5 38t38.5 15h19q23 0 38.5 -15t15.5 -38v-20q0 -23 -15.5 -38t-38.5 -15zM244 797h-19q-23 0 -38.5 15t-15.5 38v20q0 23 15.5 38t38.5 15h19q23 0 38.5 -15t15.5 -38v-20q0 -23 -15.5 -38t-38.5 -15z" glyph-name="udieresis" unicode="ü"/><glyph d="M258 295l-147 148q-17 17 -17 39v164q0 23 16 38.5t39 15.5t39 -15.5t16 -38.5v-131q0 -10 7 -17l84 -88q9 -9 24 -9t25 9l86 88q6 6 6 17v131q0 23 16.5 38.5t39.5 15.5t38.5 -15.5t15.5 -38.5v-164q0 -24 -16 -39l-149 -148q-7 -7 -7 -18v-223q0 -23 -15.5 -38.5 t-39.5 -15.5q-23 0 -39 15.5t-16 38.5v223q0 12 -6 18zM397 882l-79 -79q-16 -16 -38 -16q-23 0 -38.5 15.5t-15.5 38.5q0 22 16 37l79 80q16 16 38 16q23 0 38.5 -15.5t15.5 -38.5q0 -22 -16 -38z" glyph-name="yacute" unicode="ý"/><glyph d="M97 -18v728q0 23 15.5 38t37.5 15q23 0 38.5 -15t15.5 -38v-81q0 -14 10 -23.5t24 -9.5h152q22 0 38 -16l100 -101q16 -13 16 -37v-192q0 -24 -16 -37l-100 -101q-16 -16 -38 -16h-152q-14 0 -24 -9.5t-10 -23.5v-81q0 -23 -15.5 -38t-38.5 -15q-22 0 -37.5 15t-15.5 38z M437 283v126q0 8 -6 18l-56 55q-8 7 -17 7h-120q-14 0 -24 -10t-10 -24v-218q0 -14 10 -24t24 -10h120q9 0 17 7l56 55q6 10 6 18z" glyph-name="thorn" unicode="þ"/><glyph d="M258 295l-147 148q-17 17 -17 39v164q0 23 16 38.5t39 15.5t39 -15.5t16 -38.5v-131q0 -10 7 -17l84 -88q9 -9 24 -9t25 9l86 88q6 6 6 17v131q0 23 16.5 38.5t39.5 15.5t38.5 -15.5t15.5 -38.5v-164q0 -24 -16 -39l-149 -148q-7 -7 -7 -18v-223q0 -23 -15.5 -38.5 t-39.5 -15.5q-23 0 -39 15.5t-16 38.5v223q0 12 -6 18zM414 797h-19q-23 0 -38.5 15t-15.5 38v20q0 23 15.5 38t38.5 15h19q23 0 38.5 -15t15.5 -38v-20q0 -23 -15.5 -38t-38.5 -15zM244 797h-19q-23 0 -38.5 15t-15.5 38v20q0 23 15.5 38t38.5 15h19q23 0 38.5 -15 t15.5 -38v-20q0 -23 -15.5 -38t-38.5 -15z" glyph-name="ydieresis" unicode="ÿ"/><glyph d="M411 797h-183q-23 0 -38.5 15t-15.5 38t15.5 39t38.5 16h183q23 0 38.5 -16t15.5 -39t-15.5 -38t-38.5 -15zM546 542v-488q0 -23 -15.5 -38.5t-38.5 -15.5t-39.5 15.5t-16.5 38.5v185q0 14 -9.5 24t-23.5 10h-166q-14 0 -23.5 -10t-9.5 -24v-185q0 -23 -16 -38.5 t-39 -15.5t-39 15.5t-16 38.5v488q0 22 16 38l104 103q15 17 37 17h139q21 0 37 -16l103 -104q16 -16 16 -38zM436 417v94q0 11 -6 17l-56 55q-7 7 -17 7h-73q-11 0 -18 -7l-55 -55q-7 -7 -7 -17v-94q0 -14 9.5 -24t23.5 -10h166q14 0 23.5 10t9.5 24z" glyph-name="Amacron" unicode="Ā"/><glyph d="M546 542v-488q0 -23 -15.5 -38.5t-38.5 -15.5t-39.5 15.5t-16.5 38.5v185q0 14 -9.5 24t-23.5 10h-166q-14 0 -23.5 -10t-9.5 -24v-185q0 -23 -16 -38.5t-39 -15.5t-39 15.5t-16 38.5v488q0 22 16 38l104 103q15 17 37 17h139q21 0 37 -16l103 -104q16 -16 16 -38z M436 417v94q0 11 -6 17l-56 55q-7 7 -17 7h-73q-11 0 -18 -7l-55 -55q-7 -7 -7 -17v-94q0 -14 9.5 -24t23.5 -10h166q14 0 23.5 10t9.5 24zM411 797h-183q-23 0 -38.5 15t-15.5 38t15.5 39t38.5 16h183q23 0 38.5 -16t15.5 -39t-15.5 -38t-38.5 -15z" glyph-name="amacron" unicode="ā"/><glyph d="M277 928v-10q0 -10 7 -17l15 -16q7 -7 18 -7h5q10 0 17 7l16 16q7 7 7 17v10q0 19 12.5 32.5t32.5 13.5t33 -13.5t13 -32.5v-41q0 -17 -12 -29l-58 -59q-12 -12 -30 -12h-67q-20 0 -30 12l-59 59q-11 14 -11 29v41q0 19 12.5 32.5t32.5 13.5t33 -13.5t13 -32.5zM546 542 v-488q0 -23 -15.5 -38.5t-38.5 -15.5t-39.5 15.5t-16.5 38.5v185q0 14 -9.5 24t-23.5 10h-166q-14 0 -23.5 -10t-9.5 -24v-185q0 -23 -16 -38.5t-39 -15.5t-39 15.5t-16 38.5v488q0 22 16 38l104 103q15 17 37 17h139q21 0 37 -16l103 -104q16 -16 16 -38zM436 417v94 q0 11 -6 17l-56 55q-7 7 -17 7h-73q-11 0 -18 -7l-55 -55q-7 -7 -7 -17v-94q0 -14 9.5 -24t23.5 -10h166q14 0 23.5 10t9.5 24z" glyph-name="Abreve" unicode="Ă"/><glyph d="M546 542v-488q0 -23 -15.5 -38.5t-38.5 -15.5t-39.5 15.5t-16.5 38.5v185q0 14 -9.5 24t-23.5 10h-166q-14 0 -23.5 -10t-9.5 -24v-185q0 -23 -16 -38.5t-39 -15.5t-39 15.5t-16 38.5v488q0 22 16 38l104 103q15 17 37 17h139q21 0 37 -16l103 -104q16 -16 16 -38z M436 417v94q0 11 -6 17l-56 55q-7 7 -17 7h-73q-11 0 -18 -7l-55 -55q-7 -7 -7 -17v-94q0 -14 9.5 -24t23.5 -10h166q14 0 23.5 10t9.5 24zM277 928v-10q0 -10 7 -17l15 -16q7 -7 18 -7h5q10 0 17 7l16 16q7 7 7 17v10q0 19 12.5 32.5t32.5 13.5t33 -13.5t13 -32.5v-41 q0 -17 -12 -29l-58 -59q-12 -12 -30 -12h-67q-20 0 -30 12l-59 59q-11 14 -11 29v41q0 19 12.5 32.5t32.5 13.5t33 -13.5t13 -32.5z" glyph-name="abreve" unicode="ă"/><glyph d="M547 544v-576q0 -20 -14 -32l-55 -55q-8 -10 -8 -19q0 -8 8 -18l8 -9q10 -8 19 -8q8 0 18 8l6 6q12 12 31 12q17 0 28.5 -12t11.5 -29q0 -19 -13 -29l-26 -27q-11 -11 -26 -11h-59q-16 0 -27 11l-51 51q-11 11 -11 26v59q0 14 10 27l59 57q8 10 8 18v14q-26 17 -26 46 v186q0 14 -10 24t-24 10h-168q-14 0 -24 -10t-10 -24v-186q0 -23 -15.5 -38.5t-38.5 -15.5t-38.5 15.5t-15.5 38.5v490q0 22 16 38l102 101q17 17 38 17h141q22 0 38 -16l101 -102q17 -17 17 -38zM438 416v95q0 11 -6 18l-57 56q-7 7 -17 7h-75q-11 0 -18 -7l-56 -56 q-7 -7 -7 -18v-95q0 -14 10 -24t24 -10h168q14 0 24 10t10 24z" glyph-name="Aogonek" unicode="Ą"/><glyph d="M547 544v-576q0 -20 -14 -32l-55 -55q-8 -10 -8 -19q0 -8 8 -18l8 -9q10 -8 19 -8q8 0 18 8l6 6q12 12 31 12q17 0 28.5 -12t11.5 -29q0 -19 -13 -29l-26 -27q-11 -11 -26 -11h-59q-16 0 -27 11l-51 51q-11 11 -11 26v59q0 14 10 27l59 57q8 10 8 18v14q-26 17 -26 46 v186q0 14 -10 24t-24 10h-168q-14 0 -24 -10t-10 -24v-186q0 -23 -15.5 -38.5t-38.5 -15.5t-38.5 15.5t-15.5 38.5v490q0 22 16 38l102 101q17 17 38 17h141q22 0 38 -16l101 -102q17 -17 17 -38zM438 416v95q0 11 -6 18l-57 56q-7 7 -17 7h-75q-11 0 -18 -7l-56 -56 q-7 -7 -7 -18v-95q0 -14 10 -24t24 -10h168q14 0 24 10t10 24z" glyph-name="aogonek" unicode="ą"/><glyph d="M397 882l-79 -79q-16 -16 -38 -16q-23 0 -38.5 15.5t-15.5 38.5q0 22 16 37l79 80q16 16 38 16q23 0 38.5 -15.5t15.5 -38.5q0 -22 -16 -38zM204 510v-320q0 -11 7 -18l56 -55q7 -7 18 -7h73q10 0 17 7l57 55q6 4 6 18v29q0 23 16 38.5t39 15.5t38 -15.5t15 -38.5v-61 q0 -22 -16 -38l-101 -104q-16 -16 -38 -16h-139q-22 0 -39 17l-103 103q-16 16 -16 38v384q0 22 16 38l103 103q17 17 39 17h139q22 0 38 -16l101 -104q16 -16 16 -38v-61q0 -23 -15 -38.5t-38 -15.5t-39 15.5t-16 38.5v29q0 14 -6 18l-57 55q-7 7 -17 7h-73q-11 0 -18 -7 l-56 -55q-7 -7 -7 -18z" glyph-name="Cacute" unicode="Ć"/><glyph d="M204 510v-320q0 -11 7 -18l56 -55q7 -7 18 -7h73q10 0 17 7l57 55q6 4 6 18v29q0 23 16 38.5t39 15.5t38 -15.5t15 -38.5v-61q0 -22 -16 -38l-101 -104q-16 -16 -38 -16h-139q-22 0 -39 17l-103 103q-16 16 -16 38v384q0 22 16 38l103 103q17 17 39 17h139q22 0 38 -16 l101 -104q16 -16 16 -38v-61q0 -23 -15 -38.5t-38 -15.5t-39 15.5t-16 38.5v29q0 14 -6 18l-57 55q-7 7 -17 7h-73q-11 0 -18 -7l-56 -55q-7 -7 -7 -18zM397 882l-79 -79q-16 -16 -38 -16q-23 0 -38.5 15.5t-15.5 38.5q0 22 16 37l79 80q16 16 38 16q23 0 38.5 -15.5 t15.5 -38.5q0 -22 -16 -38z" glyph-name="cacute" unicode="ć"/><glyph d="M299 836l-36 -35q-10 -14 -34 -14q-20 0 -34 14t-14 34q0 18 14 35l91 89q14 15 34 15q19 0 34 -15l90 -89q14 -14 14 -35t-13.5 -34.5t-34.5 -13.5t-35 14l-35 35q-8 8 -20 8q-13 0 -21 -8zM204 510v-320q0 -11 7 -18l56 -55q7 -7 18 -7h73q10 0 17 7l57 55q6 4 6 18v29 q0 23 16 38.5t39 15.5t38 -15.5t15 -38.5v-61q0 -22 -16 -38l-101 -104q-16 -16 -38 -16h-139q-22 0 -39 17l-103 103q-16 16 -16 38v384q0 22 16 38l103 103q17 17 39 17h139q22 0 38 -16l101 -104q16 -16 16 -38v-61q0 -23 -15 -38.5t-38 -15.5t-39 15.5t-16 38.5v29 q0 14 -6 18l-57 55q-7 7 -17 7h-73q-11 0 -18 -7l-56 -55q-7 -7 -7 -18z" glyph-name="Ccircumflex" unicode="Ĉ"/><glyph d="M204 510v-320q0 -11 7 -18l56 -55q7 -7 18 -7h73q10 0 17 7l57 55q6 4 6 18v29q0 23 16 38.5t39 15.5t38 -15.5t15 -38.5v-61q0 -22 -16 -38l-101 -104q-16 -16 -38 -16h-139q-22 0 -39 17l-103 103q-16 16 -16 38v384q0 22 16 38l103 103q17 17 39 17h139q22 0 38 -16 l101 -104q16 -16 16 -38v-61q0 -23 -15 -38.5t-38 -15.5t-39 15.5t-16 38.5v29q0 14 -6 18l-57 55q-7 7 -17 7h-73q-11 0 -18 -7l-56 -55q-7 -7 -7 -18zM299 836l-36 -35q-10 -14 -34 -14q-20 0 -34 14t-14 34q0 18 14 35l91 89q14 15 34 15q19 0 34 -15l90 -89 q14 -14 14 -35t-13.5 -34.5t-34.5 -13.5t-35 14l-35 35q-8 8 -20 8q-13 0 -21 -8z" glyph-name="ccircumflex" unicode="ĉ"/><glyph d="M334 802h-29q-23 0 -38 15t-15 38v29q0 23 15 38.5t38 15.5h29q23 0 38.5 -15.5t15.5 -38.5v-29q0 -23 -15.5 -38t-38.5 -15zM204 510v-320q0 -11 7 -18l56 -55q7 -7 18 -7h73q10 0 17 7l57 55q6 4 6 18v29q0 23 16 38.5t39 15.5t38 -15.5t15 -38.5v-61q0 -22 -16 -38 l-101 -104q-16 -16 -38 -16h-139q-22 0 -39 17l-103 103q-16 16 -16 38v384q0 22 16 38l103 103q17 17 39 17h139q22 0 38 -16l101 -104q16 -16 16 -38v-61q0 -23 -15 -38.5t-38 -15.5t-39 15.5t-16 38.5v29q0 14 -6 18l-57 55q-7 7 -17 7h-73q-11 0 -18 -7l-56 -55 q-7 -7 -7 -18z" glyph-name="Cdotaccent" unicode="Ċ"/><glyph d="M204 510v-320q0 -11 7 -18l56 -55q7 -7 18 -7h73q10 0 17 7l57 55q6 4 6 18v29q0 23 16 38.5t39 15.5t38 -15.5t15 -38.5v-61q0 -22 -16 -38l-101 -104q-16 -16 -38 -16h-139q-22 0 -39 17l-103 103q-16 16 -16 38v384q0 22 16 38l103 103q17 17 39 17h139q22 0 38 -16 l101 -104q16 -16 16 -38v-61q0 -23 -15 -38.5t-38 -15.5t-39 15.5t-16 38.5v29q0 14 -6 18l-57 55q-7 7 -17 7h-73q-11 0 -18 -7l-56 -55q-7 -7 -7 -18zM334 802h-29q-23 0 -38 15t-15 38v29q0 23 15 38.5t38 15.5h29q23 0 38.5 -15.5t15.5 -38.5v-29q0 -23 -15.5 -38 t-38.5 -15z" glyph-name="cdotaccent" unicode="ċ"/><glyph d="M263 959l35 -35q9 -9 22 -9q11 0 20 9l35 35q15 15 34 15q20 0 34.5 -14.5t14.5 -34.5q0 -18 -13 -34l-91 -90q-14 -14 -34 -14q-21 0 -35 14l-90 90q-14 17 -14 34q0 19 14.5 34t33.5 15q21 0 34 -15zM204 510v-320q0 -11 7 -18l56 -55q7 -7 18 -7h73q10 0 17 7l57 55 q6 4 6 18v29q0 23 16 38.5t39 15.5t38 -15.5t15 -38.5v-61q0 -22 -16 -38l-101 -104q-16 -16 -38 -16h-139q-22 0 -39 17l-103 103q-16 16 -16 38v384q0 22 16 38l103 103q17 17 39 17h139q22 0 38 -16l101 -104q16 -16 16 -38v-61q0 -23 -15 -38.5t-38 -15.5t-39 15.5 t-16 38.5v29q0 14 -6 18l-57 55q-7 7 -17 7h-73q-11 0 -18 -7l-56 -55q-7 -7 -7 -18z" glyph-name="Ccaron" unicode="Č"/><glyph d="M204 510v-320q0 -11 7 -18l56 -55q7 -7 18 -7h73q10 0 17 7l57 55q6 4 6 18v29q0 23 16 38.5t39 15.5t38 -15.5t15 -38.5v-61q0 -22 -16 -38l-101 -104q-16 -16 -38 -16h-139q-22 0 -39 17l-103 103q-16 16 -16 38v384q0 22 16 38l103 103q17 17 39 17h139q22 0 38 -16 l101 -104q16 -16 16 -38v-61q0 -23 -15 -38.5t-38 -15.5t-39 15.5t-16 38.5v29q0 14 -6 18l-57 55q-7 7 -17 7h-73q-11 0 -18 -7l-56 -55q-7 -7 -7 -18zM263 959l35 -35q9 -9 22 -9q11 0 20 9l35 35q15 15 34 15q20 0 34.5 -14.5t14.5 -34.5q0 -18 -13 -34l-91 -90 q-14 -14 -34 -14q-21 0 -35 14l-90 90q-14 17 -14 34q0 19 14.5 34t33.5 15q21 0 34 -15z" glyph-name="ccaron" unicode="č"/><glyph d="M263 959l35 -35q9 -9 22 -9q11 0 20 9l35 35q15 15 34 15q20 0 34.5 -14.5t14.5 -34.5q0 -18 -13 -34l-91 -90q-14 -14 -34 -14q-21 0 -35 14l-90 90q-14 17 -14 34q0 19 14.5 34t33.5 15q21 0 34 -15zM427 684l103 -104q16 -16 16 -38v-384q0 -22 -16 -38l-103 -104 q-16 -16 -37 -16h-241q-23 0 -39 16t-16 39v590q0 23 16 39t39 16h241q21 0 37 -16zM374 117l56 55q6 8 6 18v320q0 10 -6 18l-56 55q-7 7 -17 7h-120q-14 0 -23.5 -10t-9.5 -24v-412q0 -14 9.5 -24t23.5 -10h120q10 0 17 7z" glyph-name="Dcaron" unicode="Ď"/><glyph d="M265 948l35 -35q11 -8 21 -8q12 0 20 8l35 35q14 14 33 14q20 0 34 -14t14 -34t-12 -33l-90 -90q-13 -13 -34 -13q-22 0 -34 13l-89 90q-14 14 -14 33q0 20 14 34t34 14q19 0 33 -14zM427 684l103 -104q16 -16 16 -38v-384q0 -22 -16 -38l-103 -104q-16 -16 -37 -16h-241 q-23 0 -39 16t-16 39v590q0 23 16 39t39 16h241q21 0 37 -16zM374 117l56 55q6 8 6 18v320q0 10 -6 18l-56 55q-7 7 -17 7h-120q-14 0 -23.5 -10t-9.5 -24v-412q0 -14 9.5 -24t23.5 -10h120q10 0 17 7z" glyph-name="dcaron" unicode="ď"/><glyph d="M94 409v237q0 23 15.5 38.5t38.5 15.5h243q22 0 38 -16l101 -102q16 -16 16 -38v-388q0 -22 -16 -38l-101 -102q-16 -16 -38 -16h-243q-23 0 -38.5 15.5t-15.5 38.5v238q0 5 -4 5h-10q-23 0 -38.5 15.5t-15.5 38.5t15.5 38t38.5 15h10q4 0 4 5zM202 292v-150 q0 -14 10 -24t24 -10h122q10 0 17 7l57 56q6 6 6 18v322q0 12 -6 18l-57 56q-7 7 -17 7h-122q-14 0 -24 -10t-10 -24v-149q0 -5 5 -5h135q23 0 38.5 -15t15.5 -38t-15.5 -38.5t-38.5 -15.5h-135q-5 0 -5 -5z" glyph-name="Dcroat" unicode="Đ"/><glyph d="M94 409v237q0 23 15.5 38.5t38.5 15.5h243q22 0 38 -16l101 -102q16 -16 16 -38v-388q0 -22 -16 -38l-101 -102q-16 -16 -38 -16h-243q-23 0 -38.5 15.5t-15.5 38.5v238q0 5 -4 5h-10q-23 0 -38.5 15.5t-15.5 38.5t15.5 38t38.5 15h10q4 0 4 5zM202 292v-150 q0 -14 10 -24t24 -10h122q10 0 17 7l57 56q6 6 6 18v322q0 12 -6 18l-57 56q-7 7 -17 7h-122q-14 0 -24 -10t-10 -24v-149q0 -5 5 -5h135q23 0 38.5 -15t15.5 -38t-15.5 -38.5t-38.5 -15.5h-135q-5 0 -5 -5z" glyph-name="dcroat" unicode="đ"/><glyph d="M411 797h-183q-23 0 -38.5 15t-15.5 38t15.5 39t38.5 16h183q23 0 38.5 -16t15.5 -39t-15.5 -38t-38.5 -15zM94 55v590q0 23 16 39t39 16h344q23 0 38 -16t15 -39t-15 -39t-38 -16h-255q-14 0 -24 -10t-10 -24v-118q0 -14 10 -24.5t24 -10.5h189q23 0 38.5 -15t15.5 -38 t-15.5 -38.5t-38.5 -15.5h-189q-14 0 -24 -10.5t-10 -24.5v-117q0 -14 10 -24t24 -10h255q23 0 38 -16t15 -39t-15 -39t-38 -16h-344q-23 0 -39 16t-16 39z" glyph-name="Emacron" unicode="Ē"/><glyph d="M94 55v590q0 23 16 39t39 16h344q23 0 38 -16t15 -39t-15 -39t-38 -16h-255q-14 0 -24 -10t-10 -24v-118q0 -14 10 -24.5t24 -10.5h189q23 0 38.5 -15t15.5 -38t-15.5 -38.5t-38.5 -15.5h-189q-14 0 -24 -10.5t-10 -24.5v-117q0 -14 10 -24t24 -10h255q23 0 38 -16 t15 -39t-15 -39t-38 -16h-344q-23 0 -39 16t-16 39zM411 797h-183q-23 0 -38.5 15t-15.5 38t15.5 39t38.5 16h183q23 0 38.5 -16t15.5 -39t-15.5 -38t-38.5 -15z" glyph-name="emacron" unicode="ē"/><glyph d="M277 928v-10q0 -10 7 -17l15 -16q7 -7 18 -7h5q10 0 17 7l16 16q7 7 7 17v10q0 19 12.5 32.5t32.5 13.5t33 -13.5t13 -32.5v-41q0 -17 -12 -29l-58 -59q-12 -12 -30 -12h-67q-20 0 -30 12l-59 59q-11 14 -11 29v41q0 19 12.5 32.5t32.5 13.5t33 -13.5t13 -32.5zM94 55 v590q0 23 16 39t39 16h344q23 0 38 -16t15 -39t-15 -39t-38 -16h-255q-14 0 -24 -10t-10 -24v-118q0 -14 10 -24.5t24 -10.5h189q23 0 38.5 -15t15.5 -38t-15.5 -38.5t-38.5 -15.5h-189q-14 0 -24 -10.5t-10 -24.5v-117q0 -14 10 -24t24 -10h255q23 0 38 -16t15 -39t-15 -39 t-38 -16h-344q-23 0 -39 16t-16 39z" glyph-name="Ebreve" unicode="Ĕ"/><glyph d="M94 55v590q0 23 16 39t39 16h344q23 0 38 -16t15 -39t-15 -39t-38 -16h-255q-14 0 -24 -10t-10 -24v-118q0 -14 10 -24.5t24 -10.5h189q23 0 38.5 -15t15.5 -38t-15.5 -38.5t-38.5 -15.5h-189q-14 0 -24 -10.5t-10 -24.5v-117q0 -14 10 -24t24 -10h255q23 0 38 -16 t15 -39t-15 -39t-38 -16h-344q-23 0 -39 16t-16 39zM277 928v-10q0 -10 7 -17l15 -16q7 -7 18 -7h5q10 0 17 7l16 16q7 7 7 17v10q0 19 12.5 32.5t32.5 13.5t33 -13.5t13 -32.5v-41q0 -17 -12 -29l-58 -59q-12 -12 -30 -12h-67q-20 0 -30 12l-59 59q-11 14 -11 29v41 q0 19 12.5 32.5t32.5 13.5t33 -13.5t13 -32.5z" glyph-name="ebreve" unicode="ĕ"/><glyph d="M334 802h-29q-23 0 -38 15t-15 38v29q0 23 15 38.5t38 15.5h29q23 0 38.5 -15.5t15.5 -38.5v-29q0 -23 -15.5 -38t-38.5 -15zM94 55v590q0 23 16 39t39 16h344q23 0 38 -16t15 -39t-15 -39t-38 -16h-255q-14 0 -24 -10t-10 -24v-118q0 -14 10 -24.5t24 -10.5h189 q23 0 38.5 -15t15.5 -38t-15.5 -38.5t-38.5 -15.5h-189q-14 0 -24 -10.5t-10 -24.5v-117q0 -14 10 -24t24 -10h255q23 0 38 -16t15 -39t-15 -39t-38 -16h-344q-23 0 -39 16t-16 39z" glyph-name="Edotaccent" unicode="Ė"/><glyph d="M94 55v590q0 23 16 39t39 16h344q23 0 38 -16t15 -39t-15 -39t-38 -16h-255q-14 0 -24 -10t-10 -24v-118q0 -14 10 -24.5t24 -10.5h189q23 0 38.5 -15t15.5 -38t-15.5 -38.5t-38.5 -15.5h-189q-14 0 -24 -10.5t-10 -24.5v-117q0 -14 10 -24t24 -10h255q23 0 38 -16 t15 -39t-15 -39t-38 -16h-344q-23 0 -39 16t-16 39zM334 802h-29q-23 0 -38 15t-15 38v29q0 23 15 38.5t38 15.5h29q23 0 38.5 -15.5t15.5 -38.5v-29q0 -23 -15.5 -38t-38.5 -15z" glyph-name="edotaccent" unicode="ė"/><glyph d="M94 54v592q0 23 15.5 38.5t38.5 15.5h345q23 0 38 -15.5t15 -38.5t-15 -38.5t-38 -15.5h-257q-14 0 -24 -10t-10 -24v-120q0 -14 10 -24.5t24 -10.5h191q23 0 38.5 -15t15.5 -38t-15.5 -38.5t-38.5 -15.5h-191q-14 0 -24 -10.5t-10 -24.5v-119q0 -14 10 -24t24 -10h257 q21 0 36 -14t17 -35q1 -2 1 -10v-81q0 -20 -14 -32l-55 -55q-8 -10 -8 -19q0 -8 8 -18l8 -9q10 -8 19 -8q8 0 18 8l6 6q12 12 31 12q17 0 28.5 -12t11.5 -29q0 -19 -13 -29l-26 -27q-11 -11 -26 -11h-59q-16 0 -27 11l-51 51q-11 11 -11 26v59q0 14 10 27l59 57q8 10 8 18v6 h-316q-23 0 -38.5 15.5t-15.5 38.5z" glyph-name="Eogonek" unicode="Ę"/><glyph d="M94 54v592q0 23 15.5 38.5t38.5 15.5h345q23 0 38 -15.5t15 -38.5t-15 -38.5t-38 -15.5h-257q-14 0 -24 -10t-10 -24v-120q0 -14 10 -24.5t24 -10.5h191q23 0 38.5 -15t15.5 -38t-15.5 -38.5t-38.5 -15.5h-191q-14 0 -24 -10.5t-10 -24.5v-119q0 -14 10 -24t24 -10h257 q21 0 36 -14t17 -35q1 -2 1 -10v-81q0 -20 -14 -32l-55 -55q-8 -10 -8 -19q0 -8 8 -18l8 -9q10 -8 19 -8q8 0 18 8l6 6q12 12 31 12q17 0 28.5 -12t11.5 -29q0 -19 -13 -29l-26 -27q-11 -11 -26 -11h-59q-16 0 -27 11l-51 51q-11 11 -11 26v59q0 14 10 27l59 57q8 10 8 18v6 h-316q-23 0 -38.5 15.5t-15.5 38.5z" glyph-name="eogonek" unicode="ę"/><glyph d="M263 959l35 -35q9 -9 22 -9q11 0 20 9l35 35q15 15 34 15q20 0 34.5 -14.5t14.5 -34.5q0 -18 -13 -34l-91 -90q-14 -14 -34 -14q-21 0 -35 14l-90 90q-14 17 -14 34q0 19 14.5 34t33.5 15q21 0 34 -15zM94 55v590q0 23 16 39t39 16h344q23 0 38 -16t15 -39t-15 -39 t-38 -16h-255q-14 0 -24 -10t-10 -24v-118q0 -14 10 -24.5t24 -10.5h189q23 0 38.5 -15t15.5 -38t-15.5 -38.5t-38.5 -15.5h-189q-14 0 -24 -10.5t-10 -24.5v-117q0 -14 10 -24t24 -10h255q23 0 38 -16t15 -39t-15 -39t-38 -16h-344q-23 0 -39 16t-16 39z" glyph-name="Ecaron" unicode="Ě"/><glyph d="M94 55v590q0 23 16 39t39 16h344q23 0 38 -16t15 -39t-15 -39t-38 -16h-255q-14 0 -24 -10t-10 -24v-118q0 -14 10 -24.5t24 -10.5h189q23 0 38.5 -15t15.5 -38t-15.5 -38.5t-38.5 -15.5h-189q-14 0 -24 -10.5t-10 -24.5v-117q0 -14 10 -24t24 -10h255q23 0 38 -16 t15 -39t-15 -39t-38 -16h-344q-23 0 -39 16t-16 39zM263 959l35 -35q9 -9 22 -9q11 0 20 9l35 35q15 15 34 15q20 0 34.5 -14.5t14.5 -34.5q0 -18 -13 -34l-91 -90q-14 -14 -34 -14q-21 0 -35 14l-90 90q-14 17 -14 34q0 19 14.5 34t33.5 15q21 0 34 -15z" glyph-name="ecaron" unicode="ě"/><glyph d="M299 836l-36 -35q-10 -14 -34 -14q-20 0 -34 14t-14 34q0 18 14 35l91 89q14 15 34 15q19 0 34 -15l90 -89q14 -14 14 -35t-13.5 -34.5t-34.5 -13.5t-35 14l-35 35q-8 8 -20 8q-13 0 -21 -8zM436 519v12q0 9 -6 16l-35 36q-7 7 -18 7h-113q-11 0 -18 -7l-35 -36 q-7 -7 -7 -16v-362q0 -9 7 -16l35 -36q7 -7 18 -7h113q11 0 18 7l35 36q6 7 6 16v93q0 14 -9.5 24t-23.5 10h-57q-22 0 -38 15.5t-16 38.5t16 38t38 15h146q23 0 38.5 -15t15.5 -38v-212q0 -22 -15 -39l-84 -82q-15 -17 -39 -17h-176q-24 0 -38 17l-84 82q-16 16 -16 39v425 q0 22 16 38l84 82q14 17 38 17h176q24 0 39 -17l84 -82q15 -15 15 -38v-44q0 -23 -15.5 -38t-38.5 -15q-24 0 -40 15t-16 38z" glyph-name="Gcircumflex" unicode="Ĝ"/><glyph d="M436 519v12q0 9 -6 16l-35 36q-7 7 -18 7h-113q-11 0 -18 -7l-35 -36q-7 -7 -7 -16v-362q0 -9 7 -16l35 -36q7 -7 18 -7h113q11 0 18 7l35 36q6 7 6 16v93q0 14 -9.5 24t-23.5 10h-57q-22 0 -38 15.5t-16 38.5t16 38t38 15h146q23 0 38.5 -15t15.5 -38v-212 q0 -22 -15 -39l-84 -82q-15 -17 -39 -17h-176q-24 0 -38 17l-84 82q-16 16 -16 39v425q0 22 16 38l84 82q14 17 38 17h176q24 0 39 -17l84 -82q15 -15 15 -38v-44q0 -23 -15.5 -38t-38.5 -15q-24 0 -40 15t-16 38zM299 836l-36 -35q-10 -14 -34 -14q-20 0 -34 14t-14 34 q0 18 14 35l91 89q14 15 34 15q19 0 34 -15l90 -89q14 -14 14 -35t-13.5 -34.5t-34.5 -13.5t-35 14l-35 35q-8 8 -20 8q-13 0 -21 -8z" glyph-name="gcircumflex" unicode="ĝ"/><glyph d="M277 928v-10q0 -10 7 -17l15 -16q7 -7 18 -7h5q10 0 17 7l16 16q7 7 7 17v10q0 19 12.5 32.5t32.5 13.5t33 -13.5t13 -32.5v-41q0 -17 -12 -29l-58 -59q-12 -12 -30 -12h-67q-20 0 -30 12l-59 59q-11 14 -11 29v41q0 19 12.5 32.5t32.5 13.5t33 -13.5t13 -32.5zM436 519 v12q0 9 -6 16l-35 36q-7 7 -18 7h-113q-11 0 -18 -7l-35 -36q-7 -7 -7 -16v-362q0 -9 7 -16l35 -36q7 -7 18 -7h113q11 0 18 7l35 36q6 7 6 16v93q0 14 -9.5 24t-23.5 10h-57q-22 0 -38 15.5t-16 38.5t16 38t38 15h146q23 0 38.5 -15t15.5 -38v-212q0 -22 -15 -39l-84 -82 q-15 -17 -39 -17h-176q-24 0 -38 17l-84 82q-16 16 -16 39v425q0 22 16 38l84 82q14 17 38 17h176q24 0 39 -17l84 -82q15 -15 15 -38v-44q0 -23 -15.5 -38t-38.5 -15q-24 0 -40 15t-16 38z" glyph-name="Gbreve" unicode="Ğ"/><glyph d="M436 519v12q0 9 -6 16l-35 36q-7 7 -18 7h-113q-11 0 -18 -7l-35 -36q-7 -7 -7 -16v-362q0 -9 7 -16l35 -36q7 -7 18 -7h113q11 0 18 7l35 36q6 7 6 16v93q0 14 -9.5 24t-23.5 10h-57q-22 0 -38 15.5t-16 38.5t16 38t38 15h146q23 0 38.5 -15t15.5 -38v-212 q0 -22 -15 -39l-84 -82q-15 -17 -39 -17h-176q-24 0 -38 17l-84 82q-16 16 -16 39v425q0 22 16 38l84 82q14 17 38 17h176q24 0 39 -17l84 -82q15 -15 15 -38v-44q0 -23 -15.5 -38t-38.5 -15q-24 0 -40 15t-16 38zM277 928v-10q0 -10 7 -17l15 -16q7 -7 18 -7h5q10 0 17 7 l16 16q7 7 7 17v10q0 19 12.5 32.5t32.5 13.5t33 -13.5t13 -32.5v-41q0 -17 -12 -29l-58 -59q-12 -12 -30 -12h-67q-20 0 -30 12l-59 59q-11 14 -11 29v41q0 19 12.5 32.5t32.5 13.5t33 -13.5t13 -32.5z" glyph-name="gbreve" unicode="ğ"/><glyph d="M334 802h-29q-23 0 -38 15t-15 38v29q0 23 15 38.5t38 15.5h29q23 0 38.5 -15.5t15.5 -38.5v-29q0 -23 -15.5 -38t-38.5 -15zM436 519v12q0 9 -6 16l-35 36q-7 7 -18 7h-113q-11 0 -18 -7l-35 -36q-7 -7 -7 -16v-362q0 -9 7 -16l35 -36q7 -7 18 -7h113q11 0 18 7l35 36 q6 7 6 16v93q0 14 -9.5 24t-23.5 10h-57q-22 0 -38 15.5t-16 38.5t16 38t38 15h146q23 0 38.5 -15t15.5 -38v-212q0 -22 -15 -39l-84 -82q-15 -17 -39 -17h-176q-24 0 -38 17l-84 82q-16 16 -16 39v425q0 22 16 38l84 82q14 17 38 17h176q24 0 39 -17l84 -82q15 -15 15 -38 v-44q0 -23 -15.5 -38t-38.5 -15q-24 0 -40 15t-16 38z" glyph-name="Gdotaccent" unicode="Ġ"/><glyph d="M436 519v12q0 9 -6 16l-35 36q-7 7 -18 7h-113q-11 0 -18 -7l-35 -36q-7 -7 -7 -16v-362q0 -9 7 -16l35 -36q7 -7 18 -7h113q11 0 18 7l35 36q6 7 6 16v93q0 14 -9.5 24t-23.5 10h-57q-22 0 -38 15.5t-16 38.5t16 38t38 15h146q23 0 38.5 -15t15.5 -38v-212 q0 -22 -15 -39l-84 -82q-15 -17 -39 -17h-176q-24 0 -38 17l-84 82q-16 16 -16 39v425q0 22 16 38l84 82q14 17 38 17h176q24 0 39 -17l84 -82q15 -15 15 -38v-44q0 -23 -15.5 -38t-38.5 -15q-24 0 -40 15t-16 38zM334 802h-29q-23 0 -38 15t-15 38v29q0 23 15 38.5t38 15.5 h29q23 0 38.5 -15.5t15.5 -38.5v-29q0 -23 -15.5 -38t-38.5 -15z" glyph-name="gdotaccent" unicode="ġ"/><glyph d="M436 519v12q0 9 -6 16l-35 36q-7 7 -18 7h-113q-11 0 -18 -7l-35 -36q-7 -7 -7 -16v-362q0 -9 7 -16l35 -36q7 -7 18 -7h113q11 0 18 7l35 36q6 7 6 16v93q0 14 -9.5 24t-23.5 10h-57q-22 0 -38 15.5t-16 38.5t16 38t38 15h146q23 0 38.5 -15t15.5 -38v-212 q0 -22 -15 -39l-84 -82q-15 -17 -39 -17h-176q-24 0 -38 17l-84 82q-16 16 -16 39v425q0 22 16 38l84 82q14 17 38 17h176q24 0 39 -17l84 -82q15 -15 15 -38v-44q0 -23 -15.5 -38t-38.5 -15q-24 0 -40 15t-16 38zM397 -160l-79 -80q-16 -15 -38 -15t-38 15.5t-16 37.5 t16 38l79 80q15 15 38 15q22 0 38 -15.5t16 -37.5t-16 -38z" glyph-name="Gcommaaccent" unicode="Ģ"/><glyph d="M436 519v12q0 9 -6 16l-35 36q-7 7 -18 7h-113q-11 0 -18 -7l-35 -36q-7 -7 -7 -16v-362q0 -9 7 -16l35 -36q7 -7 18 -7h113q11 0 18 7l35 36q6 7 6 16v93q0 14 -9.5 24t-23.5 10h-57q-22 0 -38 15.5t-16 38.5t16 38t38 15h146q23 0 38.5 -15t15.5 -38v-212 q0 -22 -15 -39l-84 -82q-15 -17 -39 -17h-176q-24 0 -38 17l-84 82q-16 16 -16 39v425q0 22 16 38l84 82q14 17 38 17h176q24 0 39 -17l84 -82q15 -15 15 -38v-44q0 -23 -15.5 -38t-38.5 -15q-24 0 -40 15t-16 38zM396 -158l-78 -79q-15 -15 -37 -15t-38 15.5t-16 37.5 q0 21 16 37l78 79q16 15 38 15q21 0 37 -15.5t16 -37.5t-16 -37z" glyph-name="gcommaaccent" unicode="ģ"/><glyph d="M299 836l-36 -35q-10 -14 -34 -14q-20 0 -34 14t-14 34q0 18 14 35l91 89q14 15 34 15q19 0 34 -15l90 -89q14 -14 14 -35t-13.5 -34.5t-34.5 -13.5t-35 14l-35 35q-8 8 -20 8q-13 0 -21 -8zM546 646v-592q0 -23 -15.5 -38.5t-38.5 -15.5q-24 0 -40 15.5t-16 38.5v208 q0 14 -9.5 24.5t-23.5 10.5h-166q-14 0 -23.5 -10.5t-9.5 -24.5v-208q0 -23 -16 -38.5t-39 -15.5t-39 15.5t-16 38.5v592q0 23 16 38.5t39 15.5t39 -15.5t16 -38.5v-208q0 -14 9.5 -24.5t23.5 -10.5h166q14 0 23.5 10.5t9.5 24.5v208q0 23 16 38.5t40 15.5q23 0 38.5 -15.5 t15.5 -38.5z" glyph-name="Hcircumflex" unicode="Ĥ"/><glyph d="M546 646v-592q0 -23 -15.5 -38.5t-38.5 -15.5q-24 0 -40 15.5t-16 38.5v208q0 14 -9.5 24.5t-23.5 10.5h-166q-14 0 -23.5 -10.5t-9.5 -24.5v-208q0 -23 -16 -38.5t-39 -15.5t-39 15.5t-16 38.5v592q0 23 16 38.5t39 15.5t39 -15.5t16 -38.5v-208q0 -14 9.5 -24.5 t23.5 -10.5h166q14 0 23.5 10.5t9.5 24.5v208q0 23 16 38.5t40 15.5q23 0 38.5 -15.5t15.5 -38.5zM299 836l-36 -35q-10 -14 -34 -14q-20 0 -34 14t-14 34q0 18 14 35l91 89q14 15 34 15q19 0 34 -15l90 -89q14 -14 14 -35t-13.5 -34.5t-34.5 -13.5t-35 14l-35 35 q-8 8 -20 8q-13 0 -21 -8z" glyph-name="hcircumflex" unicode="ĥ"/><glyph d="M439 599v47q0 23 16 38.5t39 15.5t38 -15.5t15 -38.5v-47q0 -5 5 -5h9q23 0 38 -15.5t15 -38.5t-15 -38.5t-38 -15.5h-9q-5 0 -5 -5v-428q0 -23 -15 -38.5t-38 -15.5t-39 15.5t-16 38.5v208q0 14 -10 24.5t-24 10.5h-168q-14 0 -24 -10.5t-10 -24.5v-208 q0 -23 -15.5 -38.5t-38.5 -15.5t-38.5 15.5t-15.5 38.5v428q0 5 -4 5h-10q-23 0 -38.5 15.5t-15.5 38.5t15.5 38.5t38.5 15.5h10q4 0 4 5v47q0 23 15.5 38.5t38.5 15.5t38.5 -15.5t15.5 -38.5v-47q0 -5 5 -5h227q4 0 4 5zM203 481v-43q0 -14 10 -24.5t24 -10.5h168 q14 0 24 10.5t10 24.5v43q0 5 -4 5h-227q-5 0 -5 -5z" glyph-name="Hbar" unicode="Ħ"/><glyph d="M434 592v47q0 23 15.5 38t38.5 15t38 -15t15 -38v-47q0 -5 5 -5h8q23 0 38 -15t15 -38t-15 -38.5t-38 -15.5h-8q-5 0 -5 -4v-424q0 -23 -15 -38t-38 -15t-38.5 15t-15.5 38v206q0 14 -9.5 24t-23.5 10h-166q-14 0 -24 -10t-10 -24v-206q0 -23 -15.5 -38t-38.5 -15 q-22 0 -37.5 15t-15.5 38v424q0 4 -4 4h-10q-23 0 -38 15.5t-15 38.5t15 38t38 15h10q4 0 4 5v47q0 23 15.5 38t37.5 15q23 0 38.5 -15t15.5 -38v-47q0 -5 5 -5h224q4 0 4 5zM201 476v-43q0 -14 10 -24t24 -10h166q14 0 23.5 10t9.5 24v43q0 4 -4 4h-224q-5 0 -5 -4z" glyph-name="hbar" unicode="ħ"/><glyph d="M257 894l-9 -10v-27q0 -20 -13.5 -33.5t-33.5 -13.5q-19 0 -32 13.5t-13 33.5v49q0 16 12 29l39 39q13 12 29 12h49q16 0 30 -12l40 -39q11 -14 11 -29v-18l9 -9h8l9 9v28q0 20 13 33t33 13t33 -13t13 -33v-48q0 -18 -12 -29l-39 -39q-10 -13 -30 -13h-48q-20 0 -30 13 l-39 39q-12 11 -12 29v16l-10 10h-7zM450 0h-259q-23 0 -38.5 15.5t-15.5 38.5t15.5 38.5t38.5 15.5h40q14 0 24 10t10 24v416q0 14 -10 24t-24 10h-40q-23 0 -38.5 15.5t-15.5 38.5t15.5 38.5t38.5 15.5h259q23 0 38 -15.5t15 -38.5t-15 -38.5t-38 -15.5h-41q-14 0 -24 -10 t-10 -24v-416q0 -14 10 -24t24 -10h41q23 0 38 -15.5t15 -38.5t-15 -38.5t-38 -15.5z" glyph-name="Itilde" unicode="Ĩ"/><glyph d="M257 894l-9 -10v-27q0 -20 -13.5 -33.5t-33.5 -13.5q-19 0 -32 13.5t-13 33.5v49q0 16 12 29l39 39q13 12 29 12h49q16 0 30 -12l40 -39q11 -14 11 -29v-18l9 -9h8l9 9v28q0 20 13 33t33 13t33 -13t13 -33v-48q0 -18 -12 -29l-39 -39q-10 -13 -30 -13h-48q-20 0 -30 13 l-39 39q-12 11 -12 29v16l-10 10h-7zM445 0h-255q-22 0 -37 15t-15 38t15 38.5t37 15.5h41q14 0 23.5 10t9.5 24v410q0 14 -9.5 24t-23.5 10h-41q-22 0 -37 15.5t-15 38.5t15 38t37 15h255q23 0 38 -15t15 -38t-15 -38.5t-38 -15.5h-40q-14 0 -24 -10t-10 -24v-410 q0 -14 10 -24t24 -10h40q23 0 38 -15.5t15 -38.5t-15 -38t-38 -15z" glyph-name="itilde" unicode="ĩ"/><glyph d="M411 797h-183q-23 0 -38.5 15t-15.5 38t15.5 39t38.5 16h183q23 0 38.5 -16t15.5 -39t-15.5 -38t-38.5 -15zM450 0h-259q-23 0 -38.5 15.5t-15.5 38.5t15.5 38.5t38.5 15.5h40q14 0 24 10t10 24v416q0 14 -10 24t-24 10h-40q-23 0 -38.5 15.5t-15.5 38.5t15.5 38.5 t38.5 15.5h259q23 0 38 -15.5t15 -38.5t-15 -38.5t-38 -15.5h-41q-14 0 -24 -10t-10 -24v-416q0 -14 10 -24t24 -10h41q23 0 38 -15.5t15 -38.5t-15 -38.5t-38 -15.5z" glyph-name="Imacron" unicode="Ī"/><glyph d="M411 797h-183q-23 0 -38.5 15t-15.5 38t15.5 39t38.5 16h183q23 0 38.5 -16t15.5 -39t-15.5 -38t-38.5 -15zM445 0h-255q-22 0 -37 15t-15 38t15 38.5t37 15.5h41q14 0 23.5 10t9.5 24v410q0 14 -9.5 24t-23.5 10h-41q-22 0 -37 15.5t-15 38.5t15 38t37 15h255 q23 0 38 -15t15 -38t-15 -38.5t-38 -15.5h-40q-14 0 -24 -10t-10 -24v-410q0 -14 10 -24t24 -10h40q23 0 38 -15.5t15 -38.5t-15 -38t-38 -15z" glyph-name="imacron" unicode="ī"/><glyph d="M278 928v-10q0 -10 7 -17l15 -16q7 -7 18 -7h5q10 0 17 7l16 16q7 7 7 17v10q0 19 12.5 32.5t32.5 13.5t33 -13.5t13 -32.5v-41q0 -17 -12 -29l-58 -59q-12 -12 -30 -12h-67q-19 0 -30 12l-59 59q-11 14 -11 29v41q0 19 12.5 32.5t32.5 13.5t33 -13.5t13 -32.5zM449 0 h-257q-23 0 -38.5 15.5t-15.5 38.5t15.5 38.5t38.5 15.5h40q14 0 24 10t10 24v416q0 14 -10 24t-24 10h-40q-23 0 -38.5 15.5t-15.5 38.5t15.5 38.5t38.5 15.5h257q23 0 38 -15.5t15 -38.5t-15 -38.5t-38 -15.5h-41q-14 0 -24 -10t-10 -24v-416q0 -14 10 -24t24 -10h41 q23 0 38 -15.5t15 -38.5t-15 -38.5t-38 -15.5z" glyph-name="Ibreve" unicode="Ĭ"/><glyph d="M278 928v-10q0 -10 7 -17l15 -16q7 -7 18 -7h5q10 0 17 7l16 16q7 7 7 17v10q0 19 12.5 32.5t32.5 13.5t33 -13.5t13 -32.5v-41q0 -17 -12 -29l-58 -59q-12 -12 -30 -12h-67q-19 0 -30 12l-59 59q-11 14 -11 29v41q0 19 12.5 32.5t32.5 13.5t33 -13.5t13 -32.5zM449 0 h-257q-23 0 -38.5 15.5t-15.5 38.5t15.5 38.5t38.5 15.5h40q14 0 24 10t10 24v416q0 14 -10 24t-24 10h-40q-23 0 -38.5 15.5t-15.5 38.5t15.5 38.5t38.5 15.5h257q23 0 38 -15.5t15 -38.5t-15 -38.5t-38 -15.5h-41q-14 0 -24 -10t-10 -24v-416q0 -14 10 -24t24 -10h41 q23 0 38 -15.5t15 -38.5t-15 -38.5t-38 -15.5z" glyph-name="ibreve" unicode="ĭ"/><glyph d="M450 0h-87v-33q0 -20 -14 -32l-55 -55q-8 -10 -8 -19q0 -8 8 -18l8 -9q10 -8 19 -8q8 0 18 8l6 6q12 12 31 12q17 0 28.5 -12t11.5 -29q0 -19 -13 -29l-26 -27q-11 -11 -26 -11h-59q-16 0 -27 11l-51 51q-11 11 -11 26v59q0 14 10 27l59 57q8 10 8 18v7h-87 q-23 0 -38.5 15.5t-15.5 38.5t15.5 38.5t38.5 15.5h40q14 0 24 10t10 24v416q0 14 -10 24t-24 10h-40q-23 0 -38.5 15.5t-15.5 38.5t15.5 38.5t38.5 15.5h257q23 0 38 -15.5t15 -38.5t-15 -38.5t-38 -15.5h-41q-14 0 -24 -10t-10 -24v-416q0 -14 10 -24t24 -10h41 q23 0 38 -15.5t15 -38.5t-15 -38.5t-38 -15.5z" glyph-name="Iogonek" unicode="Į"/><glyph d="M450 0h-87v-33q0 -20 -14 -32l-55 -55q-8 -10 -8 -19q0 -8 8 -18l8 -9q10 -8 19 -8q8 0 18 8l6 6q12 12 31 12q17 0 28.5 -12t11.5 -29q0 -19 -13 -29l-26 -27q-11 -11 -26 -11h-59q-16 0 -27 11l-51 51q-11 11 -11 26v59q0 14 10 27l59 57q8 10 8 18v7h-87 q-23 0 -38.5 15.5t-15.5 38.5t15.5 38.5t38.5 15.5h40q14 0 24 10t10 24v416q0 14 -10 24t-24 10h-40q-23 0 -38.5 15.5t-15.5 38.5t15.5 38.5t38.5 15.5h257q23 0 38 -15.5t15 -38.5t-15 -38.5t-38 -15.5h-41q-14 0 -24 -10t-10 -24v-416q0 -14 10 -24t24 -10h41 q23 0 38 -15.5t15 -38.5t-15 -38.5t-38 -15.5z" glyph-name="iogonek" unicode="į"/><glyph d="M334 802h-29q-23 0 -38 15t-15 38v29q0 23 15 38.5t38 15.5h29q23 0 38.5 -15.5t15.5 -38.5v-29q0 -23 -15.5 -38t-38.5 -15zM450 0h-259q-23 0 -38.5 15.5t-15.5 38.5t15.5 38.5t38.5 15.5h40q14 0 24 10t10 24v416q0 14 -10 24t-24 10h-40q-23 0 -38.5 15.5t-15.5 38.5 t15.5 38.5t38.5 15.5h259q23 0 38 -15.5t15 -38.5t-15 -38.5t-38 -15.5h-41q-14 0 -24 -10t-10 -24v-416q0 -14 10 -24t24 -10h41q23 0 38 -15.5t15 -38.5t-15 -38.5t-38 -15.5z" glyph-name="Idotaccent" unicode="İ"/><glyph d="M450 0h-259q-23 0 -38.5 15.5t-15.5 38.5t15.5 38.5t38.5 15.5h40q14 0 24 10t10 24v416q0 14 -10 24t-24 10h-40q-23 0 -38.5 15.5t-15.5 38.5t15.5 38.5t38.5 15.5h259q23 0 38 -15.5t15 -38.5t-15 -38.5t-38 -15.5h-41q-14 0 -24 -10t-10 -24v-416q0 -14 10 -24 t24 -10h41q23 0 38 -15.5t15 -38.5t-15 -38.5t-38 -15.5z" glyph-name="dotlessi" unicode="ı"/><glyph d="M299 836l-36 -35q-10 -14 -34 -14q-20 0 -34 14t-14 34q0 18 14 35l91 89q14 15 34 15q19 0 34 -15l90 -89q14 -14 14 -35t-13.5 -34.5t-34.5 -13.5t-35 14l-35 35q-8 8 -20 8q-13 0 -21 -8zM436 170v386q0 14 -9.5 24t-23.5 10h-83q-22 0 -37.5 16t-15.5 39t15.5 39 t37.5 16h172q23 0 38.5 -16t15.5 -39v-507q0 -22 -15 -39l-84 -82q-15 -17 -38 -17h-177q-24 0 -38 17l-84 82q-16 16 -16 39v82q0 23 15.5 37.5t39.5 14.5t39.5 -14.5t15.5 -37.5v-50q0 -10 7 -17l35 -36q7 -7 18 -7h113q11 0 18 7l35 36q6 7 6 17z" glyph-name="Jcircumflex" unicode="Ĵ"/><glyph d="M299 836l-36 -35q-10 -14 -34 -14q-20 0 -34 14t-14 34q0 18 14 35l91 89q14 15 34 15q19 0 34 -15l90 -89q14 -14 14 -35t-13.5 -34.5t-34.5 -13.5t-35 14l-35 35q-8 8 -20 8q-13 0 -21 -8zM434 166v385q0 14 -9.5 24t-23.5 10h-84q-23 0 -38 15.5t-15 38.5t15 38t38 15 h171q23 0 38 -15t15 -38v-504q0 -23 -15 -39l-81 -79q-15 -17 -38 -17h-179q-23 0 -38 17l-80 79q-16 16 -16 39v80q0 23 15.5 38.5t37.5 15.5q23 0 38.5 -15.5t15.5 -38.5v-49q0 -9 7 -17l35 -35q8 -7 18 -7h114q9 0 17 7l36 35q6 10 6 17z" glyph-name="jcircumflex" unicode="ĵ"/><glyph d="M283 297h-46q-14 0 -23.5 -10.5t-9.5 -24.5v-208q0 -23 -16 -38.5t-39 -15.5t-39 15.5t-16 38.5v592q0 23 16 38.5t39 15.5t39 -15.5t16 -38.5v-208q0 -14 9.5 -24.5t23.5 -10.5h46q12 0 16 7l131 132q6 8 6 18v86q0 23 16.5 38.5t39.5 15.5t38.5 -15.5t15.5 -38.5v-119 q0 -21 -15 -38l-117 -115q-10 -11 -10 -24t10 -24l117 -115q15 -17 15 -38v-119q0 -23 -15.5 -38.5t-38.5 -15.5t-39.5 15.5t-16.5 38.5v86q0 10 -6 18l-131 132q-4 7 -16 7zM397 -160l-79 -80q-16 -15 -38 -15t-38 15.5t-16 37.5t16 38l79 80q15 15 38 15q22 0 38 -15.5 t16 -37.5t-16 -38z" glyph-name="Kcommaaccent" unicode="Ķ"/><glyph d="M283 297h-46q-14 0 -23.5 -10.5t-9.5 -24.5v-208q0 -23 -16 -38.5t-39 -15.5t-39 15.5t-16 38.5v592q0 23 16 38.5t39 15.5t39 -15.5t16 -38.5v-208q0 -14 9.5 -24.5t23.5 -10.5h46q12 0 16 7l131 132q6 8 6 18v86q0 23 16.5 38.5t39.5 15.5t38.5 -15.5t15.5 -38.5v-119 q0 -21 -15 -38l-117 -115q-10 -11 -10 -24t10 -24l117 -115q15 -17 15 -38v-119q0 -23 -15.5 -38.5t-38.5 -15.5t-39.5 15.5t-16.5 38.5v86q0 10 -6 18l-131 132q-4 7 -16 7zM397 -160l-79 -80q-16 -15 -38 -15t-38 15.5t-16 37.5t16 38l79 80q15 15 38 15q22 0 38 -15.5 t16 -37.5t-16 -38z" glyph-name="kcommaaccent" unicode="ķ"/><glyph d="M283 297h-46q-14 0 -23.5 -10.5t-9.5 -24.5v-208q0 -23 -16 -38.5t-39 -15.5t-39 15.5t-16 38.5v592q0 23 16 38.5t39 15.5t39 -15.5t16 -38.5v-208q0 -14 9.5 -24.5t23.5 -10.5h46q12 0 16 7l131 132q6 8 6 18v86q0 23 16.5 38.5t39.5 15.5t38.5 -15.5t15.5 -38.5v-119 q0 -21 -15 -38l-117 -115q-10 -11 -10 -24t10 -24l117 -115q15 -17 15 -38v-119q0 -23 -15.5 -38.5t-38.5 -15.5t-39.5 15.5t-16.5 38.5v86q0 10 -6 18l-131 132q-4 7 -16 7z" glyph-name="kgreenlandic" unicode="ĸ"/><glyph d="M397 882l-79 -79q-16 -16 -38 -16q-23 0 -38.5 15.5t-15.5 38.5q0 22 16 37l79 80q16 16 38 16q23 0 38.5 -15.5t15.5 -38.5q0 -22 -16 -38zM204 646v-502q0 -14 10 -24t24 -10h255q23 0 38 -16t15 -39t-15 -39t-38 -16h-344q-23 0 -39 16t-16 39v591q0 23 16 38.5 t39 15.5t39 -15.5t16 -38.5z" glyph-name="Lacute" unicode="Ĺ"/><glyph d="M204 646v-502q0 -14 10 -24t24 -10h255q23 0 38 -16t15 -39t-15 -39t-38 -16h-344q-23 0 -39 16t-16 39v591q0 23 16 38.5t39 15.5t39 -15.5t16 -38.5zM397 882l-79 -79q-16 -16 -38 -16q-23 0 -38.5 15.5t-15.5 38.5q0 22 16 37l79 80q16 16 38 16q23 0 38.5 -15.5 t15.5 -38.5q0 -22 -16 -38z" glyph-name="lacute" unicode="ĺ"/><glyph d="M204 646v-502q0 -14 10 -24t24 -10h255q23 0 38 -16t15 -39t-15 -39t-38 -16h-344q-23 0 -39 16t-16 39v591q0 23 16 38.5t39 15.5t39 -15.5t16 -38.5zM397 -160l-79 -80q-16 -15 -38 -15t-38 15.5t-16 37.5t16 38l79 80q15 15 38 15q22 0 38 -15.5t16 -37.5t-16 -38z " glyph-name="Lcommaaccent" unicode="Ļ"/><glyph d="M204 646v-502q0 -14 10 -24t24 -10h255q23 0 38 -16t15 -39t-15 -39t-38 -16h-344q-23 0 -39 16t-16 39v591q0 23 16 38.5t39 15.5t39 -15.5t16 -38.5zM397 -160l-79 -80q-16 -15 -38 -15t-38 15.5t-16 37.5t16 38l79 80q15 15 38 15q22 0 38 -15.5t16 -37.5t-16 -38z " glyph-name="lcommaaccent" unicode="ļ"/><glyph d="M265 948l35 -35q11 -8 21 -8q12 0 20 8l35 35q14 14 33 14q20 0 34 -14t14 -34t-12 -33l-90 -90q-13 -13 -34 -13q-22 0 -34 13l-89 90q-14 14 -14 33q0 20 14 34t34 14q19 0 33 -14zM204 646v-502q0 -14 10 -24t24 -10h255q23 0 38 -16t15 -39t-15 -39t-38 -16h-344 q-23 0 -39 16t-16 39v591q0 23 16 38.5t39 15.5t39 -15.5t16 -38.5z" glyph-name="Lcaron" unicode="Ľ"/><glyph d="M265 948l35 -35q11 -8 21 -8q12 0 20 8l35 35q14 14 33 14q20 0 34 -14t14 -34t-12 -33l-90 -90q-13 -13 -34 -13q-22 0 -34 13l-89 90q-14 14 -14 33q0 20 14 34t34 14q19 0 33 -14zM204 646v-502q0 -14 10 -24t24 -10h255q23 0 38 -16t15 -39t-15 -39t-38 -16h-344 q-23 0 -39 16t-16 39v591q0 23 16 38.5t39 15.5t39 -15.5t16 -38.5z" glyph-name="lcaron" unicode="ľ"/><glyph d="M202 646v-504q0 -14 10 -24t24 -10h257q23 0 38 -15.5t15 -38.5t-15 -38.5t-38 -15.5h-345q-23 0 -38.5 15.5t-15.5 38.5v592q0 23 15.5 38.5t38.5 15.5t38.5 -15.5t15.5 -38.5zM392 277h-39q-23 0 -38.5 15.5t-15.5 38.5v38q0 23 15.5 38.5t38.5 15.5h39q23 0 38 -15.5 t15 -38.5v-38q0 -23 -15 -38.5t-38 -15.5z" glyph-name="Ldot" unicode="Ŀ"/><glyph d="M202 646v-504q0 -14 10 -24t24 -10h257q23 0 38 -15.5t15 -38.5t-15 -38.5t-38 -15.5h-345q-23 0 -38.5 15.5t-15.5 38.5v592q0 23 15.5 38.5t38.5 15.5t38.5 -15.5t15.5 -38.5zM392 277h-39q-23 0 -38.5 15.5t-15.5 38.5v38q0 23 15.5 38.5t38.5 15.5h39q23 0 38 -15.5 t15 -38.5v-38q0 -23 -15 -38.5t-38 -15.5z" glyph-name="ldot" unicode="ŀ"/><glyph d="M94 54v135q-3 -1 -11 -1q-23 0 -40 15.5t-17 38.5q0 21 16 37l45 45q7 8 7 18v304q0 23 15.5 38.5t38.5 15.5t38.5 -15.5t15.5 -38.5v-206l57 56q16 16 37 16q23 0 38.5 -16.5t15.5 -38.5q0 -21 -16 -37l-124 -124q-8 -10 -8 -19v-135q0 -14 10 -24t24 -10h257 q23 0 38 -15.5t15 -38.5t-15 -38.5t-38 -15.5h-345q-23 0 -38.5 15.5t-15.5 38.5z" glyph-name="Lslash" unicode="Ł"/><glyph d="M94 54v135q-3 -1 -11 -1q-23 0 -40 15.5t-17 38.5q0 21 16 37l45 45q7 8 7 18v304q0 23 15.5 38.5t38.5 15.5t38.5 -15.5t15.5 -38.5v-206l57 56q16 16 37 16q23 0 38.5 -16.5t15.5 -38.5q0 -21 -16 -37l-124 -124q-8 -10 -8 -19v-135q0 -14 10 -24t24 -10h257 q23 0 38 -15.5t15 -38.5t-15 -38.5t-38 -15.5h-345q-23 0 -38.5 15.5t-15.5 38.5z" glyph-name="lslash" unicode="ł"/><glyph d="M397 882l-79 -79q-16 -16 -38 -16q-23 0 -38.5 15.5t-15.5 38.5q0 22 16 37l79 80q16 16 38 16q23 0 38.5 -15.5t15.5 -38.5q0 -22 -16 -38zM198 673l231 -404q3 -5 5 -5t2 7v375q0 23 16.5 38.5t39.5 15.5t38.5 -15.5t15.5 -38.5v-592q0 -23 -15.5 -38.5t-38.5 -15.5 q-30 0 -49 27l-232 407q-2 5 -5 5q-2 0 -2 -7v-378q0 -23 -16 -38.5t-39 -15.5t-39 15.5t-16 38.5v592q0 23 16 38.5t39 15.5q34 0 49 -27z" glyph-name="Nacute" unicode="Ń"/><glyph d="M198 673l231 -404q3 -5 5 -5t2 7v375q0 23 16.5 38.5t39.5 15.5t38.5 -15.5t15.5 -38.5v-592q0 -23 -15.5 -38.5t-38.5 -15.5q-30 0 -49 27l-232 407q-2 5 -5 5q-2 0 -2 -7v-378q0 -23 -16 -38.5t-39 -15.5t-39 15.5t-16 38.5v592q0 23 16 38.5t39 15.5q34 0 49 -27z M397 882l-79 -79q-16 -16 -38 -16q-23 0 -38.5 15.5t-15.5 38.5q0 22 16 37l79 80q16 16 38 16q23 0 38.5 -15.5t15.5 -38.5q0 -22 -16 -38z" glyph-name="nacute" unicode="ń"/><glyph d="M198 673l231 -404q3 -5 5 -5t2 7v375q0 23 16.5 38.5t39.5 15.5t38.5 -15.5t15.5 -38.5v-592q0 -23 -15.5 -38.5t-38.5 -15.5q-30 0 -49 27l-232 407q-2 5 -5 5q-2 0 -2 -7v-378q0 -23 -16 -38.5t-39 -15.5t-39 15.5t-16 38.5v592q0 23 16 38.5t39 15.5q34 0 49 -27z M397 -160l-79 -80q-16 -15 -38 -15t-38 15.5t-16 37.5t16 38l79 80q15 15 38 15q22 0 38 -15.5t16 -37.5t-16 -38z" glyph-name="Ncommaaccent" unicode="Ņ"/><glyph d="M198 673l231 -404q3 -5 5 -5t2 7v375q0 23 16.5 38.5t39.5 15.5t38.5 -15.5t15.5 -38.5v-592q0 -23 -15.5 -38.5t-38.5 -15.5q-30 0 -49 27l-232 407q-2 5 -5 5q-2 0 -2 -7v-378q0 -23 -16 -38.5t-39 -15.5t-39 15.5t-16 38.5v592q0 23 16 38.5t39 15.5q34 0 49 -27z M397 -160l-79 -80q-16 -15 -38 -15t-38 15.5t-16 37.5t16 38l79 80q15 15 38 15q22 0 38 -15.5t16 -37.5t-16 -38z" glyph-name="ncommaaccent" unicode="ņ"/><glyph d="M263 959l35 -35q9 -9 22 -9q11 0 20 9l35 35q15 15 34 15q20 0 34.5 -14.5t14.5 -34.5q0 -18 -13 -34l-91 -90q-14 -14 -34 -14q-21 0 -35 14l-90 90q-14 17 -14 34q0 19 14.5 34t33.5 15q21 0 34 -15zM198 673l231 -404q3 -5 5 -5t2 7v375q0 23 16.5 38.5t39.5 15.5 t38.5 -15.5t15.5 -38.5v-592q0 -23 -15.5 -38.5t-38.5 -15.5q-30 0 -49 27l-232 407q-2 5 -5 5q-2 0 -2 -7v-378q0 -23 -16 -38.5t-39 -15.5t-39 15.5t-16 38.5v592q0 23 16 38.5t39 15.5q34 0 49 -27z" glyph-name="Ncaron" unicode="Ň"/><glyph d="M198 673l231 -404q3 -5 5 -5t2 7v375q0 23 16.5 38.5t39.5 15.5t38.5 -15.5t15.5 -38.5v-592q0 -23 -15.5 -38.5t-38.5 -15.5q-30 0 -49 27l-232 407q-2 5 -5 5q-2 0 -2 -7v-378q0 -23 -16 -38.5t-39 -15.5t-39 15.5t-16 38.5v592q0 23 16 38.5t39 15.5q34 0 49 -27z M263 959l35 -35q9 -9 22 -9q11 0 20 9l35 35q15 15 34 15q20 0 34.5 -14.5t14.5 -34.5q0 -18 -13 -34l-91 -90q-14 -14 -34 -14q-21 0 -35 14l-90 90q-14 17 -14 34q0 19 14.5 34t33.5 15q21 0 34 -15z" glyph-name="ncaron" unicode="ň"/><glyph d="M198 668q1 -4 4 -4q2 0 5 3l16 16q14 17 39 17h149q17 0 38 -17l82 -81q15 -15 15 -38v-644q0 -24 -15 -39l-82 -81q-17 -16 -38 -16h-91q-23 0 -38.5 15t-15.5 38t15.5 38.5t38.5 15.5h58q11 0 18 7l36 36q6 6 6 18v579q0 9 -6 17l-36 37q-8 7 -18 7h-84q-10 0 -18 -7 l-67 -68q-7 -7 -7 -17v-446q0 -23 -15.5 -38.5t-38.5 -15.5t-38.5 15.5t-15.5 38.5v591q0 23 15.5 39t38.5 16q31 0 50 -32z" glyph-name="Eng" unicode="Ŋ"/><glyph d="M198 668q1 -4 4 -4q2 0 5 3l16 16q14 17 39 17h149q17 0 38 -17l82 -81q15 -15 15 -38v-644q0 -24 -15 -39l-82 -81q-17 -16 -38 -16h-91q-23 0 -38.5 15t-15.5 38t15.5 38.5t38.5 15.5h58q11 0 18 7l36 36q6 6 6 18v579q0 9 -6 17l-36 37q-8 7 -18 7h-84q-10 0 -18 -7 l-67 -68q-7 -7 -7 -17v-446q0 -23 -15.5 -38.5t-38.5 -15.5t-38.5 15.5t-15.5 38.5v591q0 23 15.5 39t38.5 16q31 0 50 -32z" glyph-name="eng" unicode="ŋ"/><glyph d="M411 797h-183q-23 0 -38.5 15t-15.5 38t15.5 39t38.5 16h183q23 0 38.5 -16t15.5 -39t-15.5 -38t-38.5 -15zM447 683l84 -82q15 -15 15 -38v-426q0 -23 -15 -38l-84 -82q-15 -17 -39 -17h-176q-24 0 -38 17l-84 82q-16 16 -16 38v426q0 22 16 38l84 82q14 17 38 17h176 q24 0 39 -17zM395 117l35 36q6 7 6 17v360q0 10 -6 17l-35 36q-7 7 -18 7h-113q-11 0 -18 -7l-35 -36q-7 -7 -7 -17v-360q0 -10 7 -17l35 -36q7 -7 18 -7h113q11 0 18 7z" glyph-name="Omacron" unicode="Ō"/><glyph d="M447 683l84 -82q15 -15 15 -38v-426q0 -23 -15 -38l-84 -82q-15 -17 -39 -17h-176q-24 0 -38 17l-84 82q-16 16 -16 38v426q0 22 16 38l84 82q14 17 38 17h176q24 0 39 -17zM395 117l35 36q6 7 6 17v360q0 10 -6 17l-35 36q-7 7 -18 7h-113q-11 0 -18 -7l-35 -36 q-7 -7 -7 -17v-360q0 -10 7 -17l35 -36q7 -7 18 -7h113q11 0 18 7zM411 797h-183q-23 0 -38.5 15t-15.5 38t15.5 39t38.5 16h183q23 0 38.5 -16t15.5 -39t-15.5 -38t-38.5 -15z" glyph-name="omacron" unicode="ō"/><glyph d="M277 928v-10q0 -10 7 -17l15 -16q7 -7 18 -7h5q10 0 17 7l16 16q7 7 7 17v10q0 19 12.5 32.5t32.5 13.5t33 -13.5t13 -32.5v-41q0 -17 -12 -29l-58 -59q-12 -12 -30 -12h-67q-20 0 -30 12l-59 59q-11 14 -11 29v41q0 19 12.5 32.5t32.5 13.5t33 -13.5t13 -32.5zM447 683 l84 -82q15 -15 15 -38v-426q0 -23 -15 -38l-84 -82q-15 -17 -39 -17h-176q-24 0 -38 17l-84 82q-16 16 -16 38v426q0 22 16 38l84 82q14 17 38 17h176q24 0 39 -17zM395 117l35 36q6 7 6 17v360q0 10 -6 17l-35 36q-7 7 -18 7h-113q-11 0 -18 -7l-35 -36q-7 -7 -7 -17v-360 q0 -10 7 -17l35 -36q7 -7 18 -7h113q11 0 18 7z" glyph-name="Obreve" unicode="Ŏ"/><glyph d="M447 683l84 -82q15 -15 15 -38v-426q0 -23 -15 -38l-84 -82q-15 -17 -39 -17h-176q-24 0 -38 17l-84 82q-16 16 -16 38v426q0 22 16 38l84 82q14 17 38 17h176q24 0 39 -17zM395 117l35 36q6 7 6 17v360q0 10 -6 17l-35 36q-7 7 -18 7h-113q-11 0 -18 -7l-35 -36 q-7 -7 -7 -17v-360q0 -10 7 -17l35 -36q7 -7 18 -7h113q11 0 18 7zM277 928v-10q0 -10 7 -17l15 -16q7 -7 18 -7h5q10 0 17 7l16 16q7 7 7 17v10q0 19 12.5 32.5t32.5 13.5t33 -13.5t13 -32.5v-41q0 -17 -12 -29l-58 -59q-12 -12 -30 -12h-67q-20 0 -30 12l-59 59 q-11 14 -11 29v41q0 19 12.5 32.5t32.5 13.5t33 -13.5t13 -32.5z" glyph-name="obreve" unicode="ŏ"/><glyph d="M313 882l-80 -79q-15 -16 -37 -16q-23 0 -38.5 15.5t-15.5 38.5q0 22 16 37l79 80q16 16 38 16q23 0 38.5 -15.5t15.5 -38.5q0 -22 -16 -38zM480 882l-79 -79q-16 -16 -37 -16q-23 0 -39 15.5t-16 38.5q0 22 17 37l78 80q16 16 38 16q23 0 39 -15.5t16 -38.5 q0 -21 -17 -38zM447 683l84 -82q15 -15 15 -38v-426q0 -23 -15 -38l-84 -82q-15 -17 -39 -17h-176q-24 0 -38 17l-84 82q-16 16 -16 38v426q0 22 16 38l84 82q14 17 38 17h176q24 0 39 -17zM395 117l35 36q6 7 6 17v360q0 10 -6 17l-35 36q-7 7 -18 7h-113q-11 0 -18 -7 l-35 -36q-7 -7 -7 -17v-360q0 -10 7 -17l35 -36q7 -7 18 -7h113q11 0 18 7z" glyph-name="Ohungarumlaut" unicode="Ő"/><glyph d="M447 683l84 -82q15 -15 15 -38v-426q0 -23 -15 -38l-84 -82q-15 -17 -39 -17h-176q-24 0 -38 17l-84 82q-16 16 -16 38v426q0 22 16 38l84 82q14 17 38 17h176q24 0 39 -17zM395 117l35 36q6 7 6 17v360q0 10 -6 17l-35 36q-7 7 -18 7h-113q-11 0 -18 -7l-35 -36 q-7 -7 -7 -17v-360q0 -10 7 -17l35 -36q7 -7 18 -7h113q11 0 18 7zM313 882l-80 -79q-15 -16 -37 -16q-23 0 -38.5 15.5t-15.5 38.5q0 22 16 37l79 80q16 16 38 16q23 0 38.5 -15.5t15.5 -38.5q0 -22 -16 -38zM480 882l-79 -79q-16 -16 -37 -16q-23 0 -39 15.5t-16 38.5 q0 22 17 37l78 80q16 16 38 16q23 0 39 -15.5t16 -38.5q0 -21 -17 -38z" glyph-name="ohungarumlaut" unicode="ő"/><glyph d="M511 0h-302q-21 0 -38 17l-81 80q-16 16 -16 39v429q0 22 16 38l81 80q17 17 38 17h302q23 0 38.5 -15.5t15.5 -38.5t-15.5 -38.5t-38.5 -15.5h-104q-14 0 -24 -10t-10 -24v-120q0 -14 10 -24.5t24 -10.5h85q23 0 38 -15t15 -38t-15 -38.5t-38 -15.5h-85q-14 0 -24 -10.5 t-10 -24.5v-119q0 -14 10 -24t24 -10h104q23 0 38.5 -15.5t15.5 -38.5t-15.5 -38.5t-38.5 -15.5zM265 113v474q0 5 -4 5h-19q-8 0 -18 -8l-34 -34q-8 -10 -8 -18v-364q0 -8 8 -18l34 -34q10 -8 18 -8h19q4 0 4 5z" glyph-name="OE" unicode="Œ"/><glyph d="M511 0h-302q-21 0 -38 17l-81 80q-16 16 -16 39v429q0 22 16 38l81 80q17 17 38 17h302q23 0 38.5 -15.5t15.5 -38.5t-15.5 -38.5t-38.5 -15.5h-104q-14 0 -24 -10t-10 -24v-120q0 -14 10 -24.5t24 -10.5h85q23 0 38 -15t15 -38t-15 -38.5t-38 -15.5h-85q-14 0 -24 -10.5 t-10 -24.5v-119q0 -14 10 -24t24 -10h104q23 0 38.5 -15.5t15.5 -38.5t-15.5 -38.5t-38.5 -15.5zM265 113v474q0 5 -4 5h-19q-8 0 -18 -8l-34 -34q-8 -10 -8 -18v-364q0 -8 8 -18l34 -34q10 -8 18 -8h19q4 0 4 5z" glyph-name="oe" unicode="œ"/><glyph d="M397 882l-79 -79q-16 -16 -38 -16q-23 0 -38.5 15.5t-15.5 38.5q0 22 16 37l79 80q16 16 38 16q23 0 38.5 -15.5t15.5 -38.5q0 -22 -16 -38zM357 272h-120q-14 0 -23.5 -10t-9.5 -24v-186q0 -23 -16 -38.5t-39 -15.5t-39 15.5t-16 38.5v593q0 23 16 39t39 16h241 q21 0 38 -17l103 -103q15 -15 15 -38v-112q0 -22 -16 -38l-40 -40q-10 -10 -10 -24q0 -15 11 -26l40 -39q15 -15 15 -38v-173q0 -23 -15.5 -38.5t-38.5 -15.5t-39.5 15.5t-16.5 38.5v140q0 11 -6 17l-56 56q-7 7 -17 7zM374 389l56 55q6 6 6 18v48q0 12 -6 18l-56 55 q-7 7 -17 7h-120q-14 0 -23.5 -10t-9.5 -24v-140q0 -14 9.5 -24t23.5 -10h120q10 0 17 7z" glyph-name="Racute" unicode="Ŕ"/><glyph d="M357 272h-120q-14 0 -23.5 -10t-9.5 -24v-186q0 -23 -16 -38.5t-39 -15.5t-39 15.5t-16 38.5v593q0 23 16 39t39 16h241q21 0 38 -17l103 -103q15 -15 15 -38v-112q0 -22 -16 -38l-40 -40q-10 -10 -10 -24q0 -15 11 -26l40 -39q15 -15 15 -38v-173q0 -23 -15.5 -38.5 t-38.5 -15.5t-39.5 15.5t-16.5 38.5v140q0 11 -6 17l-56 56q-7 7 -17 7zM374 389l56 55q6 6 6 18v48q0 12 -6 18l-56 55q-7 7 -17 7h-120q-14 0 -23.5 -10t-9.5 -24v-140q0 -14 9.5 -24t23.5 -10h120q10 0 17 7zM397 882l-79 -79q-16 -16 -38 -16q-23 0 -38.5 15.5 t-15.5 38.5q0 22 16 37l79 80q16 16 38 16q23 0 38.5 -15.5t15.5 -38.5q0 -22 -16 -38z" glyph-name="racute" unicode="ŕ"/><glyph d="M357 272h-120q-14 0 -23.5 -10t-9.5 -24v-186q0 -23 -16 -38.5t-39 -15.5t-39 15.5t-16 38.5v593q0 23 16 39t39 16h241q21 0 38 -17l103 -103q15 -15 15 -38v-112q0 -22 -16 -38l-40 -40q-10 -10 -10 -24q0 -15 11 -26l40 -39q15 -15 15 -38v-173q0 -23 -15.5 -38.5 t-38.5 -15.5t-39.5 15.5t-16.5 38.5v140q0 11 -6 17l-56 56q-7 7 -17 7zM374 389l56 55q6 6 6 18v48q0 12 -6 18l-56 55q-7 7 -17 7h-120q-14 0 -23.5 -10t-9.5 -24v-140q0 -14 9.5 -24t23.5 -10h120q10 0 17 7zM397 -160l-79 -80q-16 -15 -38 -15t-38 15.5t-16 37.5t16 38 l79 80q15 15 38 15q22 0 38 -15.5t16 -37.5t-16 -38z" glyph-name="Rcommaaccent" unicode="Ŗ"/><glyph d="M357 272h-120q-14 0 -23.5 -10t-9.5 -24v-186q0 -23 -16 -38.5t-39 -15.5t-39 15.5t-16 38.5v593q0 23 16 39t39 16h241q21 0 38 -17l103 -103q15 -15 15 -38v-112q0 -22 -16 -38l-40 -40q-10 -10 -10 -24q0 -15 11 -26l40 -39q15 -15 15 -38v-173q0 -23 -15.5 -38.5 t-38.5 -15.5t-39.5 15.5t-16.5 38.5v140q0 11 -6 17l-56 56q-7 7 -17 7zM374 389l56 55q6 6 6 18v48q0 12 -6 18l-56 55q-7 7 -17 7h-120q-14 0 -23.5 -10t-9.5 -24v-140q0 -14 9.5 -24t23.5 -10h120q10 0 17 7zM397 -160l-79 -80q-16 -15 -38 -15t-38 15.5t-16 37.5t16 38 l79 80q15 15 38 15q22 0 38 -15.5t16 -37.5t-16 -38z" glyph-name="rcommaaccent" unicode="ŗ"/><glyph d="M263 959l35 -35q9 -9 22 -9q11 0 20 9l35 35q15 15 34 15q20 0 34.5 -14.5t14.5 -34.5q0 -18 -13 -34l-91 -90q-14 -14 -34 -14q-21 0 -35 14l-90 90q-14 17 -14 34q0 19 14.5 34t33.5 15q21 0 34 -15zM357 272h-120q-14 0 -23.5 -10t-9.5 -24v-186q0 -23 -16 -38.5 t-39 -15.5t-39 15.5t-16 38.5v593q0 23 16 39t39 16h241q21 0 38 -17l103 -103q15 -15 15 -38v-112q0 -22 -16 -38l-40 -40q-10 -10 -10 -24q0 -15 11 -26l40 -39q15 -15 15 -38v-173q0 -23 -15.5 -38.5t-38.5 -15.5t-39.5 15.5t-16.5 38.5v140q0 11 -6 17l-56 56 q-7 7 -17 7zM374 389l56 55q6 6 6 18v48q0 12 -6 18l-56 55q-7 7 -17 7h-120q-14 0 -23.5 -10t-9.5 -24v-140q0 -14 9.5 -24t23.5 -10h120q10 0 17 7z" glyph-name="Rcaron" unicode="Ř"/><glyph d="M357 272h-120q-14 0 -23.5 -10t-9.5 -24v-186q0 -23 -16 -38.5t-39 -15.5t-39 15.5t-16 38.5v593q0 23 16 39t39 16h241q21 0 38 -17l103 -103q15 -15 15 -38v-112q0 -22 -16 -38l-40 -40q-10 -10 -10 -24q0 -15 11 -26l40 -39q15 -15 15 -38v-173q0 -23 -15.5 -38.5 t-38.5 -15.5t-39.5 15.5t-16.5 38.5v140q0 11 -6 17l-56 56q-7 7 -17 7zM374 389l56 55q6 6 6 18v48q0 12 -6 18l-56 55q-7 7 -17 7h-120q-14 0 -23.5 -10t-9.5 -24v-140q0 -14 9.5 -24t23.5 -10h120q10 0 17 7zM263 959l35 -35q9 -9 22 -9q11 0 20 9l35 35q15 15 34 15 q20 0 34.5 -14.5t14.5 -34.5q0 -18 -13 -34l-91 -90q-14 -14 -34 -14q-21 0 -35 14l-90 90q-14 17 -14 34q0 19 14.5 34t33.5 15q21 0 34 -15z" glyph-name="rcaron" unicode="ř"/><glyph d="M397 882l-79 -79q-16 -16 -38 -16q-23 0 -38.5 15.5t-15.5 38.5q0 22 16 37l79 80q16 16 38 16q23 0 38.5 -15.5t15.5 -38.5q0 -22 -16 -38zM436 519v12q0 10 -6 16l-36 36q-7 7 -16 7h-115q-9 0 -16 -7l-36 -36q-7 -7 -7 -16v-67q0 -10 7 -17l36 -37q8 -7 16 -7h146 q23 0 38 -15l84 -86q15 -15 15 -37v-129q0 -22 -15 -37l-84 -82q-15 -17 -38 -17h-177q-24 0 -38 17l-84 82q-16 16 -16 37v44q0 22 16 36t39 14t39 -14t16 -36v-11q0 -10 7 -17l36 -35q7 -7 16 -7h115q9 0 16 7l36 35q6 6 6 17v63q0 10 -6 18l-36 36q-8 7 -16 7h-146 q-24 0 -38 15l-84 86q-16 17 -16 38v131q0 22 16 38l84 82q14 17 38 17h177q23 0 38 -17l84 -82q15 -15 15 -38v-44q0 -23 -15.5 -38t-38.5 -15q-24 0 -40 15t-16 38z" glyph-name="Sacute" unicode="Ś"/><glyph d="M436 519v12q0 10 -6 16l-36 36q-7 7 -16 7h-115q-9 0 -16 -7l-36 -36q-7 -7 -7 -16v-67q0 -10 7 -17l36 -37q8 -7 16 -7h146q23 0 38 -15l84 -86q15 -15 15 -37v-129q0 -22 -15 -37l-84 -82q-15 -17 -38 -17h-177q-24 0 -38 17l-84 82q-16 16 -16 37v44q0 22 16 36t39 14 t39 -14t16 -36v-11q0 -10 7 -17l36 -35q7 -7 16 -7h115q9 0 16 7l36 35q6 6 6 17v63q0 10 -6 18l-36 36q-8 7 -16 7h-146q-24 0 -38 15l-84 86q-16 17 -16 38v131q0 22 16 38l84 82q14 17 38 17h177q23 0 38 -17l84 -82q15 -15 15 -38v-44q0 -23 -15.5 -38t-38.5 -15 q-24 0 -40 15t-16 38zM397 882l-79 -79q-16 -16 -38 -16q-23 0 -38.5 15.5t-15.5 38.5q0 22 16 37l79 80q16 16 38 16q23 0 38.5 -15.5t15.5 -38.5q0 -22 -16 -38z" glyph-name="sacute" unicode="ś"/><glyph d="M299 836l-36 -35q-10 -14 -34 -14q-20 0 -34 14t-14 34q0 18 14 35l91 89q14 15 34 15q19 0 34 -15l90 -89q14 -14 14 -35t-13.5 -34.5t-34.5 -13.5t-35 14l-35 35q-8 8 -20 8q-13 0 -21 -8zM436 519v12q0 10 -6 16l-36 36q-7 7 -16 7h-115q-9 0 -16 -7l-36 -36 q-7 -7 -7 -16v-67q0 -10 7 -17l36 -37q8 -7 16 -7h146q23 0 38 -15l84 -86q15 -15 15 -37v-129q0 -22 -15 -37l-84 -82q-15 -17 -38 -17h-177q-24 0 -38 17l-84 82q-16 16 -16 37v44q0 22 16 36t39 14t39 -14t16 -36v-11q0 -10 7 -17l36 -35q7 -7 16 -7h115q9 0 16 7l36 35 q6 6 6 17v63q0 10 -6 18l-36 36q-8 7 -16 7h-146q-24 0 -38 15l-84 86q-16 17 -16 38v131q0 22 16 38l84 82q14 17 38 17h177q23 0 38 -17l84 -82q15 -15 15 -38v-44q0 -23 -15.5 -38t-38.5 -15q-24 0 -40 15t-16 38z" glyph-name="Scircumflex" unicode="Ŝ"/><glyph d="M436 519v12q0 10 -6 16l-36 36q-7 7 -16 7h-115q-9 0 -16 -7l-36 -36q-7 -7 -7 -16v-67q0 -10 7 -17l36 -37q8 -7 16 -7h146q23 0 38 -15l84 -86q15 -15 15 -37v-129q0 -22 -15 -37l-84 -82q-15 -17 -38 -17h-177q-24 0 -38 17l-84 82q-16 16 -16 37v44q0 22 16 36t39 14 t39 -14t16 -36v-11q0 -10 7 -17l36 -35q7 -7 16 -7h115q9 0 16 7l36 35q6 6 6 17v63q0 10 -6 18l-36 36q-8 7 -16 7h-146q-24 0 -38 15l-84 86q-16 17 -16 38v131q0 22 16 38l84 82q14 17 38 17h177q23 0 38 -17l84 -82q15 -15 15 -38v-44q0 -23 -15.5 -38t-38.5 -15 q-24 0 -40 15t-16 38zM299 836l-36 -35q-10 -14 -34 -14q-20 0 -34 14t-14 34q0 18 14 35l91 89q14 15 34 15q19 0 34 -15l90 -89q14 -14 14 -35t-13.5 -34.5t-34.5 -13.5t-35 14l-35 35q-8 8 -20 8q-13 0 -21 -8z" glyph-name="scircumflex" unicode="ŝ"/><glyph d="M438 520v12q0 10 -6 17l-36 36q-7 7 -18 7h-115q-11 0 -18 -7l-36 -36q-7 -7 -7 -17v-67q0 -11 7 -18l36 -37q8 -7 18 -7h148q23 0 38 -15l82 -83q15 -15 15 -38v-132q0 -23 -15 -38l-82 -80q-17 -17 -38 -17h-49v-6q0 -6 7 -18l60 -57q9 -12 9 -27v-59q0 -16 -10 -26 l-52 -51q-11 -11 -26 -11h-59q-17 0 -26 11l-27 27q-12 12 -12 29t12 29t29 12q18 0 30 -12l5 -6q10 -8 19 -8q8 0 18 8l9 9q8 10 8 18q0 9 -8 19l-55 55q-14 12 -14 32v32h-49q-24 0 -38 17l-82 80q-16 16 -16 38v45q0 23 15.5 37.5t38.5 14.5t38.5 -14.5t15.5 -37.5v-12 q0 -10 7 -17l36 -36q7 -7 18 -7h115q11 0 18 7l36 36q6 7 6 17v66q0 10 -6 18l-36 37q-8 7 -18 7h-148q-24 0 -38 15l-82 83q-16 17 -16 38v133q0 22 16 38l82 80q14 17 38 17h181q21 0 38 -17l82 -80q15 -15 15 -38v-45q0 -23 -15 -38t-38 -15t-39 15t-16 38z" glyph-name="Scedilla" unicode="Ş"/><glyph d="M438 520v12q0 10 -6 17l-36 36q-7 7 -18 7h-115q-11 0 -18 -7l-36 -36q-7 -7 -7 -17v-67q0 -11 7 -18l36 -37q8 -7 18 -7h148q23 0 38 -15l82 -83q15 -15 15 -38v-132q0 -23 -15 -38l-82 -80q-17 -17 -38 -17h-49v-6q0 -6 7 -18l60 -57q9 -12 9 -27v-59q0 -16 -10 -26 l-52 -51q-11 -11 -26 -11h-59q-17 0 -26 11l-27 27q-12 12 -12 29t12 29t29 12q18 0 30 -12l5 -6q10 -8 19 -8q8 0 18 8l9 9q8 10 8 18q0 9 -8 19l-55 55q-14 12 -14 32v32h-49q-24 0 -38 17l-82 80q-16 16 -16 38v45q0 23 15.5 37.5t38.5 14.5t38.5 -14.5t15.5 -37.5v-12 q0 -10 7 -17l36 -36q7 -7 18 -7h115q11 0 18 7l36 36q6 7 6 17v66q0 10 -6 18l-36 37q-8 7 -18 7h-148q-24 0 -38 15l-82 83q-16 17 -16 38v133q0 22 16 38l82 80q14 17 38 17h181q21 0 38 -17l82 -80q15 -15 15 -38v-45q0 -23 -15 -38t-38 -15t-39 15t-16 38z" glyph-name="scedilla" unicode="ş"/><glyph d="M263 959l35 -35q9 -9 22 -9q11 0 20 9l35 35q15 15 34 15q20 0 34.5 -14.5t14.5 -34.5q0 -18 -13 -34l-91 -90q-14 -14 -34 -14q-21 0 -35 14l-90 90q-14 17 -14 34q0 19 14.5 34t33.5 15q21 0 34 -15zM436 519v12q0 10 -6 16l-36 36q-7 7 -16 7h-115q-9 0 -16 -7 l-36 -36q-7 -7 -7 -16v-67q0 -10 7 -17l36 -37q8 -7 16 -7h146q23 0 38 -15l84 -86q15 -15 15 -37v-129q0 -22 -15 -37l-84 -82q-15 -17 -38 -17h-177q-24 0 -38 17l-84 82q-16 16 -16 37v44q0 22 16 36t39 14t39 -14t16 -36v-11q0 -10 7 -17l36 -35q7 -7 16 -7h115 q9 0 16 7l36 35q6 6 6 17v63q0 10 -6 18l-36 36q-8 7 -16 7h-146q-24 0 -38 15l-84 86q-16 17 -16 38v131q0 22 16 38l84 82q14 17 38 17h177q23 0 38 -17l84 -82q15 -15 15 -38v-44q0 -23 -15.5 -38t-38.5 -15q-24 0 -40 15t-16 38z" glyph-name="Scaron" unicode="Š"/><glyph d="M436 519v12q0 10 -6 16l-36 36q-7 7 -16 7h-115q-9 0 -16 -7l-36 -36q-7 -7 -7 -16v-67q0 -10 7 -17l36 -37q8 -7 16 -7h146q23 0 38 -15l84 -86q15 -15 15 -37v-129q0 -22 -15 -37l-84 -82q-15 -17 -38 -17h-177q-24 0 -38 17l-84 82q-16 16 -16 37v44q0 22 16 36t39 14 t39 -14t16 -36v-11q0 -10 7 -17l36 -35q7 -7 16 -7h115q9 0 16 7l36 35q6 6 6 17v63q0 10 -6 18l-36 36q-8 7 -16 7h-146q-24 0 -38 15l-84 86q-16 17 -16 38v131q0 22 16 38l84 82q14 17 38 17h177q23 0 38 -17l84 -82q15 -15 15 -38v-44q0 -23 -15.5 -38t-38.5 -15 q-24 0 -40 15t-16 38zM263 959l35 -35q9 -9 22 -9q11 0 20 9l35 35q15 15 34 15q20 0 34.5 -14.5t14.5 -34.5q0 -18 -13 -34l-91 -90q-14 -14 -34 -14q-21 0 -35 14l-90 90q-14 17 -14 34q0 19 14.5 34t33.5 15q21 0 34 -15z" glyph-name="scaron" unicode="š"/><glyph d="M375 556v-504q0 -23 -15.5 -38.5t-39.5 -15.5q-23 0 -39 15.5t-16 38.5v504q0 14 -10 24t-24 10h-84q-23 0 -38.5 16t-15.5 39t15.5 39t38.5 16h347q23 0 38 -16t15 -39t-15 -39t-38 -16h-85q-14 0 -24 -10t-10 -24zM397 -160l-79 -80q-16 -15 -38 -15t-38 15.5t-16 37.5 t16 38l79 80q15 15 38 15q22 0 38 -15.5t16 -37.5t-16 -38z" glyph-name="Tcommaaccent" unicode="Ţ"/><glyph d="M375 556v-504q0 -23 -15.5 -38.5t-39.5 -15.5q-23 0 -39 15.5t-16 38.5v504q0 14 -10 24t-24 10h-84q-23 0 -38.5 16t-15.5 39t15.5 39t38.5 16h347q23 0 38 -16t15 -39t-15 -39t-38 -16h-85q-14 0 -24 -10t-10 -24zM397 -160l-79 -80q-16 -15 -38 -15t-38 15.5t-16 37.5 t16 38l79 80q15 15 38 15q22 0 38 -15.5t16 -37.5t-16 -38z" glyph-name="tcommaaccent" unicode="ţ"/><glyph d="M263 959l35 -35q9 -9 22 -9q11 0 20 9l35 35q15 15 34 15q20 0 34.5 -14.5t14.5 -34.5q0 -18 -13 -34l-91 -90q-14 -14 -34 -14q-21 0 -35 14l-90 90q-14 17 -14 34q0 19 14.5 34t33.5 15q21 0 34 -15zM375 556v-504q0 -23 -15.5 -38.5t-39.5 -15.5q-23 0 -39 15.5 t-16 38.5v504q0 14 -10 24t-24 10h-84q-23 0 -38.5 16t-15.5 39t15.5 39t38.5 16h347q23 0 38 -16t15 -39t-15 -39t-38 -16h-85q-14 0 -24 -10t-10 -24z" glyph-name="Tcaron" unicode="Ť"/><glyph d="M265 948l35 -35q11 -8 21 -8q12 0 20 8l35 35q14 14 33 14q20 0 34 -14t14 -34t-12 -33l-90 -90q-13 -13 -34 -13q-22 0 -34 13l-89 90q-14 14 -14 33q0 20 14 34t34 14q19 0 33 -14zM375 556v-504q0 -23 -15.5 -38.5t-39.5 -15.5q-23 0 -39 15.5t-16 38.5v504 q0 14 -10 24t-24 10h-84q-23 0 -38.5 16t-15.5 39t15.5 39t38.5 16h347q23 0 38 -16t15 -39t-15 -39t-38 -16h-85q-14 0 -24 -10t-10 -24z" glyph-name="tcaron" unicode="ť"/><glyph d="M266 409v149q0 14 -10 24t-24 10h-84q-23 0 -38.5 15.5t-15.5 38.5t15.5 38.5t38.5 15.5h345q23 0 38 -15.5t15 -38.5t-15 -38.5t-38 -15.5h-85q-14 0 -24 -10t-10 -24v-149q0 -5 5 -5h94q23 0 38.5 -15t15.5 -38t-15.5 -38.5t-38.5 -15.5h-94q-5 0 -5 -5v-238 q0 -23 -15.5 -38.5t-38.5 -15.5t-38.5 15.5t-15.5 38.5v238q0 5 -4 5h-95q-23 0 -38 15.5t-15 38.5t15 38t38 15h95q4 0 4 5z" glyph-name="Tbar" unicode="Ŧ"/><glyph d="M266 409v149q0 14 -10 24t-24 10h-84q-23 0 -38.5 15.5t-15.5 38.5t15.5 38.5t38.5 15.5h345q23 0 38 -15.5t15 -38.5t-15 -38.5t-38 -15.5h-85q-14 0 -24 -10t-10 -24v-149q0 -5 5 -5h94q23 0 38.5 -15t15.5 -38t-15.5 -38.5t-38.5 -15.5h-94q-5 0 -5 -5v-238 q0 -23 -15.5 -38.5t-38.5 -15.5t-38.5 15.5t-15.5 38.5v238q0 5 -4 5h-95q-23 0 -38 15.5t-15 38.5t15 38t38 15h95q4 0 4 5z" glyph-name="tbar" unicode="ŧ"/><glyph d="M257 894l-9 -10v-27q0 -20 -13.5 -33.5t-33.5 -13.5q-19 0 -32 13.5t-13 33.5v49q0 16 12 29l39 39q13 12 29 12h49q16 0 30 -12l40 -39q11 -14 11 -29v-18l9 -9h8l9 9v28q0 20 13 33t33 13t33 -13t13 -33v-48q0 -18 -12 -29l-39 -39q-10 -13 -30 -13h-48q-20 0 -30 13 l-39 39q-12 11 -12 29v16l-10 10h-7zM204 648v-478q0 -10 7 -17l35 -36q7 -7 18 -7h113q11 0 18 7l35 36q6 6 6 17v478q0 23 16.5 38.5t39.5 15.5t38.5 -15.5t15.5 -38.5v-511q0 -23 -15 -38l-84 -82q-15 -17 -39 -17h-176q-24 0 -38 17l-84 82q-16 16 -16 38v511 q0 23 16 38.5t39 15.5t39 -15.5t16 -38.5z" glyph-name="Utilde" unicode="Ũ"/><glyph d="M204 648v-478q0 -10 7 -17l35 -36q7 -7 18 -7h113q11 0 18 7l35 36q6 6 6 17v478q0 23 16.5 38.5t39.5 15.5t38.5 -15.5t15.5 -38.5v-511q0 -23 -15 -38l-84 -82q-15 -17 -39 -17h-176q-24 0 -38 17l-84 82q-16 16 -16 38v511q0 23 16 38.5t39 15.5t39 -15.5t16 -38.5z M257 894l-9 -10v-27q0 -20 -13.5 -33.5t-33.5 -13.5q-19 0 -32 13.5t-13 33.5v49q0 16 12 29l39 39q13 12 29 12h49q16 0 30 -12l40 -39q11 -14 11 -29v-18l9 -9h8l9 9v28q0 20 13 33t33 13t33 -13t13 -33v-48q0 -18 -12 -29l-39 -39q-10 -13 -30 -13h-48q-20 0 -30 13 l-39 39q-12 11 -12 29v16l-10 10h-7z" glyph-name="utilde" unicode="ũ"/><glyph d="M411 797h-183q-23 0 -38.5 15t-15.5 38t15.5 39t38.5 16h183q23 0 38.5 -16t15.5 -39t-15.5 -38t-38.5 -15zM204 648v-478q0 -10 7 -17l35 -36q7 -7 18 -7h113q11 0 18 7l35 36q6 6 6 17v478q0 23 16.5 38.5t39.5 15.5t38.5 -15.5t15.5 -38.5v-511q0 -23 -15 -38l-84 -82 q-15 -17 -39 -17h-176q-24 0 -38 17l-84 82q-16 16 -16 38v511q0 23 16 38.5t39 15.5t39 -15.5t16 -38.5z" glyph-name="Umacron" unicode="Ū"/><glyph d="M204 648v-478q0 -10 7 -17l35 -36q7 -7 18 -7h113q11 0 18 7l35 36q6 6 6 17v478q0 23 16.5 38.5t39.5 15.5t38.5 -15.5t15.5 -38.5v-511q0 -23 -15 -38l-84 -82q-15 -17 -39 -17h-176q-24 0 -38 17l-84 82q-16 16 -16 38v511q0 23 16 38.5t39 15.5t39 -15.5t16 -38.5z M411 797h-183q-23 0 -38.5 15t-15.5 38t15.5 39t38.5 16h183q23 0 38.5 -16t15.5 -39t-15.5 -38t-38.5 -15z" glyph-name="umacron" unicode="ū"/><glyph d="M277 928v-10q0 -10 7 -17l15 -16q7 -7 18 -7h5q10 0 17 7l16 16q7 7 7 17v10q0 19 12.5 32.5t32.5 13.5t33 -13.5t13 -32.5v-41q0 -17 -12 -29l-58 -59q-12 -12 -30 -12h-67q-20 0 -30 12l-59 59q-11 14 -11 29v41q0 19 12.5 32.5t32.5 13.5t33 -13.5t13 -32.5zM204 648 v-478q0 -10 7 -17l35 -36q7 -7 18 -7h113q11 0 18 7l35 36q6 6 6 17v478q0 23 16.5 38.5t39.5 15.5t38.5 -15.5t15.5 -38.5v-511q0 -23 -15 -38l-84 -82q-15 -17 -39 -17h-176q-24 0 -38 17l-84 82q-16 16 -16 38v511q0 23 16 38.5t39 15.5t39 -15.5t16 -38.5z" glyph-name="Ubreve" unicode="Ŭ"/><glyph d="M204 648v-478q0 -10 7 -17l35 -36q7 -7 18 -7h113q11 0 18 7l35 36q6 6 6 17v478q0 23 16.5 38.5t39.5 15.5t38.5 -15.5t15.5 -38.5v-511q0 -23 -15 -38l-84 -82q-15 -17 -39 -17h-176q-24 0 -38 17l-84 82q-16 16 -16 38v511q0 23 16 38.5t39 15.5t39 -15.5t16 -38.5z M277 928v-10q0 -10 7 -17l15 -16q7 -7 18 -7h5q10 0 17 7l16 16q7 7 7 17v10q0 19 12.5 32.5t32.5 13.5t33 -13.5t13 -32.5v-41q0 -17 -12 -29l-58 -59q-12 -12 -30 -12h-67q-20 0 -30 12l-59 59q-11 14 -11 29v41q0 19 12.5 32.5t32.5 13.5t33 -13.5t13 -32.5z" glyph-name="ubreve" unicode="ŭ"/><glyph d="M202 836v59q0 15 11 26l51 53q13 9 27 9h58q16 0 27 -10l51 -52q10 -10 10 -26v-59q0 -17 -10 -27l-51 -50q-11 -11 -27 -11h-58q-16 0 -27 10l-52 51q-10 13 -10 27zM301 894l-10 -11q-7 -7 -7 -17q0 -11 7 -18l10 -10q7 -7 18 -7q10 0 17 7l11 10q7 7 7 18q0 10 -7 17 l-11 11q-7 7 -17 7q-11 0 -18 -7zM204 648v-478q0 -10 7 -17l35 -36q7 -7 18 -7h113q11 0 18 7l35 36q6 6 6 17v478q0 23 16.5 38.5t39.5 15.5t38.5 -15.5t15.5 -38.5v-511q0 -23 -15 -38l-84 -82q-15 -17 -39 -17h-176q-24 0 -38 17l-84 82q-16 16 -16 38v511q0 23 16 38.5 t39 15.5t39 -15.5t16 -38.5z" glyph-name="Uring" unicode="Ů"/><glyph d="M204 648v-478q0 -10 7 -17l35 -36q7 -7 18 -7h113q11 0 18 7l35 36q6 6 6 17v478q0 23 16.5 38.5t39.5 15.5t38.5 -15.5t15.5 -38.5v-511q0 -23 -15 -38l-84 -82q-15 -17 -39 -17h-176q-24 0 -38 17l-84 82q-16 16 -16 38v511q0 23 16 38.5t39 15.5t39 -15.5t16 -38.5z M202 836v59q0 15 11 26l51 53q13 9 27 9h58q16 0 27 -10l51 -52q10 -10 10 -26v-59q0 -17 -10 -27l-51 -50q-11 -11 -27 -11h-58q-16 0 -27 10l-52 51q-10 13 -10 27zM301 894l-10 -11q-7 -7 -7 -17q0 -11 7 -18l10 -10q7 -7 18 -7q10 0 17 7l11 10q7 7 7 18q0 10 -7 17 l-11 11q-7 7 -17 7q-11 0 -18 -7z" glyph-name="uring" unicode="ů"/><glyph d="M313 882l-80 -79q-15 -16 -37 -16q-23 0 -38.5 15.5t-15.5 38.5q0 22 16 37l79 80q16 16 38 16q23 0 38.5 -15.5t15.5 -38.5q0 -22 -16 -38zM480 882l-79 -79q-16 -16 -37 -16q-23 0 -39 15.5t-16 38.5q0 22 17 37l78 80q16 16 38 16q23 0 39 -15.5t16 -38.5 q0 -21 -17 -38zM204 648v-478q0 -10 7 -17l35 -36q7 -7 18 -7h113q11 0 18 7l35 36q6 6 6 17v478q0 23 16.5 38.5t39.5 15.5t38.5 -15.5t15.5 -38.5v-511q0 -23 -15 -38l-84 -82q-15 -17 -39 -17h-176q-24 0 -38 17l-84 82q-16 16 -16 38v511q0 23 16 38.5t39 15.5t39 -15.5 t16 -38.5z" glyph-name="Uhungarumlaut" unicode="Ű"/><glyph d="M204 648v-478q0 -10 7 -17l35 -36q7 -7 18 -7h113q11 0 18 7l35 36q6 6 6 17v478q0 23 16.5 38.5t39.5 15.5t38.5 -15.5t15.5 -38.5v-511q0 -23 -15 -38l-84 -82q-15 -17 -39 -17h-176q-24 0 -38 17l-84 82q-16 16 -16 38v511q0 23 16 38.5t39 15.5t39 -15.5t16 -38.5z M313 882l-80 -79q-15 -16 -37 -16q-23 0 -38.5 15.5t-15.5 38.5q0 22 16 37l79 80q16 16 38 16q23 0 38.5 -15.5t15.5 -38.5q0 -22 -16 -38zM480 882l-79 -79q-16 -16 -37 -16q-23 0 -39 15.5t-16 38.5q0 22 17 37l78 80q16 16 38 16q23 0 39 -15.5t16 -38.5q0 -21 -17 -38z " glyph-name="uhungarumlaut" unicode="ű"/><glyph d="M202 646v-478q0 -10 7 -17l36 -36q7 -7 18 -7h115q11 0 18 7l36 36q6 7 6 17v478q0 23 16 38.5t39 15.5t38 -15.5t15 -38.5v-511q0 -23 -15 -38l-51 -50v-79q0 -20 -14 -32l-55 -55q-8 -10 -8 -19q0 -8 8 -18l8 -9q10 -8 19 -8q8 0 18 8l6 6q12 12 29 12q18 0 30 -12 t12 -29q0 -19 -13 -29l-26 -27q-11 -11 -26 -11h-59q-16 0 -27 11l-51 51q-11 11 -11 26v59q0 14 10 27l59 57q8 10 8 18v6h-167q-24 0 -38 17l-82 80q-16 16 -16 38v511q0 23 15.5 38.5t38.5 15.5t38.5 -15.5t15.5 -38.5z" glyph-name="Uogonek" unicode="Ų"/><glyph d="M202 646v-478q0 -10 7 -17l36 -36q7 -7 18 -7h115q11 0 18 7l36 36q6 7 6 17v478q0 23 16 38.5t39 15.5t38 -15.5t15 -38.5v-511q0 -23 -15 -38l-51 -50v-79q0 -20 -14 -32l-55 -55q-8 -10 -8 -19q0 -8 8 -18l8 -9q10 -8 19 -8q8 0 18 8l6 6q12 12 29 12q18 0 30 -12 t12 -29q0 -19 -13 -29l-26 -27q-11 -11 -26 -11h-59q-16 0 -27 11l-51 51q-11 11 -11 26v59q0 14 10 27l59 57q8 10 8 18v6h-167q-24 0 -38 17l-82 80q-16 16 -16 38v511q0 23 15.5 38.5t38.5 15.5t38.5 -15.5t15.5 -38.5z" glyph-name="uogonek" unicode="ų"/><glyph d="M299 836l-36 -35q-10 -14 -34 -14q-20 0 -34 14t-14 34q0 18 14 35l91 89q14 15 34 15q19 0 34 -15l90 -89q14 -14 14 -35t-13.5 -34.5t-34.5 -13.5t-35 14l-35 35q-8 8 -20 8q-13 0 -21 -8zM436 173v473q0 23 16.5 38.5t39.5 15.5t38.5 -15.5t15.5 -38.5v-506 q0 -23 -15 -38l-89 -86q-16 -16 -37 -16t-37 16l-48 47l-50 -47q-16 -16 -36 -16t-36 16l-88 86q-16 16 -16 38v506q0 23 16 38.5t39 15.5t39 -15.5t16 -38.5v-473q0 -11 9.5 -20t20.5 -9q12 0 21 9t9 20v177q0 23 16 38t40 15q23 0 38.5 -15t15.5 -38v-177q0 -11 10 -20 t21 -9q12 0 21.5 9t9.5 20z" glyph-name="Wcircumflex" unicode="Ŵ"/><glyph d="M436 173v473q0 23 16.5 38.5t39.5 15.5t38.5 -15.5t15.5 -38.5v-506q0 -23 -15 -38l-89 -86q-16 -16 -37 -16t-37 16l-48 47l-50 -47q-16 -16 -36 -16t-36 16l-88 86q-16 16 -16 38v506q0 23 16 38.5t39 15.5t39 -15.5t16 -38.5v-473q0 -11 9.5 -20t20.5 -9q12 0 21 9 t9 20v177q0 23 16 38t40 15q23 0 38.5 -15t15.5 -38v-177q0 -11 10 -20t21 -9q12 0 21.5 9t9.5 20zM299 836l-36 -35q-10 -14 -34 -14q-20 0 -34 14t-14 34q0 18 14 35l91 89q14 15 34 15q19 0 34 -15l90 -89q14 -14 14 -35t-13.5 -34.5t-34.5 -13.5t-35 14l-35 35 q-8 8 -20 8q-13 0 -21 -8z" glyph-name="wcircumflex" unicode="ŵ"/><glyph d="M299 836l-36 -35q-10 -14 -34 -14q-20 0 -34 14t-14 34q0 18 14 35l91 89q14 15 34 15q19 0 34 -15l90 -89q14 -14 14 -35t-13.5 -34.5t-34.5 -13.5t-35 14l-35 35q-8 8 -20 8q-13 0 -21 -8zM258 295l-147 148q-17 17 -17 39v164q0 23 16 38.5t39 15.5t39 -15.5t16 -38.5 v-131q0 -10 7 -17l84 -88q9 -9 24 -9t25 9l86 88q6 6 6 17v131q0 23 16.5 38.5t39.5 15.5t38.5 -15.5t15.5 -38.5v-164q0 -24 -16 -39l-149 -148q-7 -7 -7 -18v-223q0 -23 -15.5 -38.5t-39.5 -15.5q-23 0 -39 15.5t-16 38.5v223q0 12 -6 18z" glyph-name="Ycircumflex" unicode="Ŷ"/><glyph d="M258 295l-147 148q-17 17 -17 39v164q0 23 16 38.5t39 15.5t39 -15.5t16 -38.5v-131q0 -10 7 -17l84 -88q9 -9 24 -9t25 9l86 88q6 6 6 17v131q0 23 16.5 38.5t39.5 15.5t38.5 -15.5t15.5 -38.5v-164q0 -24 -16 -39l-149 -148q-7 -7 -7 -18v-223q0 -23 -15.5 -38.5 t-39.5 -15.5q-23 0 -39 15.5t-16 38.5v223q0 12 -6 18zM299 836l-36 -35q-10 -14 -34 -14q-20 0 -34 14t-14 34q0 18 14 35l91 89q14 15 34 15q19 0 34 -15l90 -89q14 -14 14 -35t-13.5 -34.5t-34.5 -13.5t-35 14l-35 35q-8 8 -20 8q-13 0 -21 -8z" glyph-name="ycircumflex" unicode="ŷ"/><glyph d="M414 797h-19q-23 0 -38.5 15t-15.5 38v20q0 23 15.5 38t38.5 15h19q23 0 38.5 -15t15.5 -38v-20q0 -23 -15.5 -38t-38.5 -15zM244 797h-19q-23 0 -38.5 15t-15.5 38v20q0 23 15.5 38t38.5 15h19q23 0 38.5 -15t15.5 -38v-20q0 -23 -15.5 -38t-38.5 -15zM258 295l-147 148 q-17 17 -17 39v164q0 23 16 38.5t39 15.5t39 -15.5t16 -38.5v-131q0 -10 7 -17l84 -88q9 -9 24 -9t25 9l86 88q6 6 6 17v131q0 23 16.5 38.5t39.5 15.5t38.5 -15.5t15.5 -38.5v-164q0 -24 -16 -39l-149 -148q-7 -7 -7 -18v-223q0 -23 -15.5 -38.5t-39.5 -15.5 q-23 0 -39 15.5t-16 38.5v223q0 12 -6 18z" glyph-name="Ydieresis" unicode="Ÿ"/><glyph d="M397 882l-79 -79q-16 -16 -38 -16q-23 0 -38.5 15.5t-15.5 38.5q0 22 16 37l79 80q16 16 38 16q23 0 38.5 -15.5t15.5 -38.5q0 -22 -16 -38zM110 217l322 318q6 6 6 18v3q0 14 -10 24t-24 10h-256q-23 0 -38.5 16t-15.5 39t15.5 39t38.5 16h345q23 0 38 -16t15 -39v-124 q0 -25 -15 -38l-322 -318q-7 -7 -7 -18v-3q0 -14 10 -24t24 -10h257q23 0 38 -16t15 -39t-15 -39t-38 -16h-345q-23 0 -38.5 16t-15.5 39v124q0 22 16 38z" glyph-name="Zacute" unicode="Ź"/><glyph d="M110 217l322 318q6 6 6 18v3q0 14 -10 24t-24 10h-256q-23 0 -38.5 16t-15.5 39t15.5 39t38.5 16h345q23 0 38 -16t15 -39v-124q0 -25 -15 -38l-322 -318q-7 -7 -7 -18v-3q0 -14 10 -24t24 -10h257q23 0 38 -16t15 -39t-15 -39t-38 -16h-345q-23 0 -38.5 16t-15.5 39v124 q0 22 16 38zM397 882l-79 -79q-16 -16 -38 -16q-23 0 -38.5 15.5t-15.5 38.5q0 22 16 37l79 80q16 16 38 16q23 0 38.5 -15.5t15.5 -38.5q0 -22 -16 -38z" glyph-name="zacute" unicode="ź"/><glyph d="M334 802h-29q-23 0 -38 15t-15 38v29q0 23 15 38.5t38 15.5h29q23 0 38.5 -15.5t15.5 -38.5v-29q0 -23 -15.5 -38t-38.5 -15zM110 217l322 318q6 6 6 18v3q0 14 -10 24t-24 10h-256q-23 0 -38.5 16t-15.5 39t15.5 39t38.5 16h345q23 0 38 -16t15 -39v-124q0 -25 -15 -38 l-322 -318q-7 -7 -7 -18v-3q0 -14 10 -24t24 -10h257q23 0 38 -16t15 -39t-15 -39t-38 -16h-345q-23 0 -38.5 16t-15.5 39v124q0 22 16 38z" glyph-name="Zdotaccent" unicode="Ż"/><glyph d="M110 217l322 318q6 6 6 18v3q0 14 -10 24t-24 10h-256q-23 0 -38.5 16t-15.5 39t15.5 39t38.5 16h345q23 0 38 -16t15 -39v-124q0 -25 -15 -38l-322 -318q-7 -7 -7 -18v-3q0 -14 10 -24t24 -10h257q23 0 38 -16t15 -39t-15 -39t-38 -16h-345q-23 0 -38.5 16t-15.5 39v124 q0 22 16 38zM334 802h-29q-23 0 -38 15t-15 38v29q0 23 15 38.5t38 15.5h29q23 0 38.5 -15.5t15.5 -38.5v-29q0 -23 -15.5 -38t-38.5 -15z" glyph-name="zdotaccent" unicode="ż"/><glyph d="M263 959l35 -35q9 -9 22 -9q11 0 20 9l35 35q15 15 34 15q20 0 34.5 -14.5t14.5 -34.5q0 -18 -13 -34l-91 -90q-14 -14 -34 -14q-21 0 -35 14l-90 90q-14 17 -14 34q0 19 14.5 34t33.5 15q21 0 34 -15zM110 217l322 318q6 6 6 18v3q0 14 -10 24t-24 10h-256 q-23 0 -38.5 16t-15.5 39t15.5 39t38.5 16h345q23 0 38 -16t15 -39v-124q0 -25 -15 -38l-322 -318q-7 -7 -7 -18v-3q0 -14 10 -24t24 -10h257q23 0 38 -16t15 -39t-15 -39t-38 -16h-345q-23 0 -38.5 16t-15.5 39v124q0 22 16 38z" glyph-name="Zcaron" unicode="Ž"/><glyph d="M110 217l322 318q6 6 6 18v3q0 14 -10 24t-24 10h-256q-23 0 -38.5 16t-15.5 39t15.5 39t38.5 16h345q23 0 38 -16t15 -39v-124q0 -25 -15 -38l-322 -318q-7 -7 -7 -18v-3q0 -14 10 -24t24 -10h257q23 0 38 -16t15 -39t-15 -39t-38 -16h-345q-23 0 -38.5 16t-15.5 39v124 q0 22 16 38zM263 959l35 -35q9 -9 22 -9q11 0 20 9l35 35q15 15 34 15q20 0 34.5 -14.5t14.5 -34.5q0 -18 -13 -34l-91 -90q-14 -14 -34 -14q-21 0 -35 14l-90 90q-14 17 -14 34q0 19 14.5 34t33.5 15q21 0 34 -15z" glyph-name="zcaron" unicode="ž"/><glyph d="M436 519v12q0 10 -6 16l-36 36q-7 7 -16 7h-115q-9 0 -16 -7l-36 -36q-7 -7 -7 -16v-67q0 -10 7 -17l36 -37q8 -7 16 -7h146q23 0 38 -15l84 -86q15 -15 15 -37v-129q0 -22 -15 -37l-84 -82q-15 -17 -38 -17h-177q-24 0 -38 17l-84 82q-16 16 -16 37v44q0 22 16 36t39 14 t39 -14t16 -36v-11q0 -10 7 -17l36 -35q7 -7 16 -7h115q9 0 16 7l36 35q6 6 6 17v63q0 10 -6 18l-36 36q-8 7 -16 7h-146q-24 0 -38 15l-84 86q-16 17 -16 38v131q0 22 16 38l84 82q14 17 38 17h177q23 0 38 -17l84 -82q15 -15 15 -38v-44q0 -23 -15.5 -38t-38.5 -15 q-24 0 -40 15t-16 38zM397 -160l-79 -80q-16 -15 -38 -15t-38 15.5t-16 37.5t16 38l79 80q15 15 38 15q22 0 38 -15.5t16 -37.5t-16 -38z" glyph-name="Scommaaccent" unicode="Ș"/><glyph d="M436 519v12q0 10 -6 16l-36 36q-7 7 -16 7h-115q-9 0 -16 -7l-36 -36q-7 -7 -7 -16v-67q0 -10 7 -17l36 -37q8 -7 16 -7h146q23 0 38 -15l84 -86q15 -15 15 -37v-129q0 -22 -15 -37l-84 -82q-15 -17 -38 -17h-177q-24 0 -38 17l-84 82q-16 16 -16 37v44q0 22 16 36t39 14 t39 -14t16 -36v-11q0 -10 7 -17l36 -35q7 -7 16 -7h115q9 0 16 7l36 35q6 6 6 17v63q0 10 -6 18l-36 36q-8 7 -16 7h-146q-24 0 -38 15l-84 86q-16 17 -16 38v131q0 22 16 38l84 82q14 17 38 17h177q23 0 38 -17l84 -82q15 -15 15 -38v-44q0 -23 -15.5 -38t-38.5 -15 q-24 0 -40 15t-16 38zM397 -160l-79 -80q-16 -15 -38 -15t-38 15.5t-16 37.5t16 38l79 80q15 15 38 15q22 0 38 -15.5t16 -37.5t-16 -38z" glyph-name="scommaaccent" unicode="ș"/><glyph d="M375 556v-504q0 -23 -15.5 -38.5t-39.5 -15.5q-23 0 -39 15.5t-16 38.5v504q0 14 -10 24t-24 10h-84q-23 0 -38.5 16t-15.5 39t15.5 39t38.5 16h347q23 0 38 -16t15 -39t-15 -39t-38 -16h-85q-14 0 -24 -10t-10 -24zM397 -160l-79 -80q-16 -15 -38 -15t-38 15.5t-16 37.5 t16 38l79 80q15 15 38 15q22 0 38 -15.5t16 -37.5t-16 -38z" glyph-name="uni021A" unicode="Ț"/><glyph d="M375 556v-504q0 -23 -15.5 -38.5t-39.5 -15.5q-23 0 -39 15.5t-16 38.5v504q0 14 -10 24t-24 10h-84q-23 0 -38.5 16t-15.5 39t15.5 39t38.5 16h347q23 0 38 -16t15 -39t-15 -39t-38 -16h-85q-14 0 -24 -10t-10 -24zM397 -160l-79 -80q-16 -15 -38 -15t-38 15.5t-16 37.5 t16 38l79 80q15 15 38 15q22 0 38 -15.5t16 -37.5t-16 -38z" glyph-name="uni021B" unicode="ț"/><glyph d="M436 170v386q0 14 -9.5 24t-23.5 10h-83q-22 0 -37.5 16t-15.5 39t15.5 39t37.5 16h172q23 0 38.5 -16t15.5 -39v-507q0 -22 -15 -39l-84 -82q-15 -17 -38 -17h-177q-24 0 -38 17l-84 82q-16 16 -16 39v82q0 23 15.5 37.5t39.5 14.5t39.5 -14.5t15.5 -37.5v-50 q0 -10 7 -17l35 -36q7 -7 18 -7h113q11 0 18 7l35 36q6 7 6 17z" glyph-name="uni0237" unicode="ȷ"/><glyph d="M300 836l-36 -35q-10 -14 -34 -14q-20 0 -34 14t-14 34q0 18 14 35l91 89q13 15 34 15q19 0 34 -15l90 -89q14 -14 14 -35t-13.5 -34.5t-34.5 -13.5t-35 14l-35 35q-8 8 -20 8q-13 0 -21 -8z" glyph-name="circumflex" unicode="ˆ"/><glyph d="M264 959l35 -35q9 -9 22 -9q11 0 20 9l35 35q15 15 34 15q20 0 34.5 -14.5t14.5 -34.5q0 -18 -13 -34l-91 -90q-14 -14 -34 -14q-21 0 -35 14l-90 90q-14 17 -14 34q0 19 14.5 34t33.5 15q20 0 34 -15z" glyph-name="caron" unicode="ˇ"/><glyph d="M412 797h-183q-23 0 -38.5 15t-15.5 38t15.5 39t38.5 16h183q23 0 38.5 -16t15.5 -39t-15.5 -38t-38.5 -15z" glyph-name="uni02C9" unicode="ˉ"/><glyph d="M278 928v-10q0 -10 7 -17l15 -16q7 -7 18 -7h5q10 0 17 7l16 16q7 7 7 17v10q0 19 12.5 32.5t32.5 13.5t33 -13.5t13 -32.5v-41q0 -17 -12 -29l-58 -59q-12 -12 -30 -12h-67q-19 0 -30 12l-59 59q-11 14 -11 29v41q0 19 12.5 32.5t32.5 13.5t33 -13.5t13 -32.5z" glyph-name="breve" unicode="˘"/><glyph d="M334 802h-29q-23 0 -38 15t-15 38v29q0 23 15 38.5t38 15.5h29q23 0 38.5 -15.5t15.5 -38.5v-29q0 -23 -15.5 -38t-38.5 -15z" glyph-name="dotaccent" unicode="˙"/><glyph d="M203 836v59q0 15 11 26l51 53q13 9 27 9h58q16 0 27 -10l51 -52q10 -10 10 -26v-59q0 -17 -10 -27l-51 -50q-11 -11 -27 -11h-58q-16 0 -27 10l-52 51q-10 13 -10 27zM302 894l-10 -11q-7 -7 -7 -17q0 -11 7 -18l10 -10q7 -7 18 -7q10 0 17 7l11 10q7 7 7 18q0 10 -7 17 l-11 11q-7 7 -17 7q-11 0 -18 -7z" glyph-name="ring" unicode="˚"/><glyph d="M363 49v-81q0 -20 -14 -32l-55 -55q-8 -10 -8 -19q0 -8 8 -18l8 -9q10 -8 19 -8q8 0 18 8l6 6q12 12 29 12q18 0 30 -12t12 -29q0 -19 -13 -29l-26 -27q-11 -11 -26 -11h-59q-16 0 -27 11l-51 51q-11 11 -11 26v59q0 14 10 27l59 57q8 10 8 18v55q0 17 12 29t29 12 t29.5 -12t12.5 -29z" glyph-name="ogonek" unicode="˛"/><glyph d="M257 894l-9 -10v-27q0 -20 -13.5 -33.5t-33.5 -13.5q-19 0 -32 13.5t-13 33.5v49q0 16 12 29l39 39q13 12 29 12h49q16 0 30 -12l40 -39q11 -14 11 -29v-18l9 -9h8l9 9v28q0 20 13 33t33 13t33 -13t13 -33v-48q0 -18 -12 -29l-39 -39q-10 -13 -30 -13h-48q-20 0 -30 13 l-39 39q-12 11 -12 29v16l-10 10h-7z" glyph-name="tilde" unicode="˜"/><glyph d="M314 882l-80 -79q-15 -16 -37 -16q-23 0 -38.5 15.5t-15.5 38.5q0 22 16 37l79 80q16 16 38 16q23 0 38.5 -15.5t15.5 -38.5q0 -22 -16 -38zM481 882l-79 -79q-16 -16 -37 -16q-23 0 -39 15.5t-16 38.5q0 22 17 37l78 80q16 16 38 16q23 0 39 -15.5t16 -38.5 q0 -21 -17 -38z" glyph-name="hungarumlaut" unicode="˝"/><glyph d="M398 -160l-79 -80q-17 -15 -38 -15q-22 0 -38 15.5t-16 37.5t16 38l79 80q15 15 38 15q22 0 38 -15.5t16 -37.5t-16 -38z" glyph-name="uni0326" unicode="̦"/><glyph d="M395 114l36 35q6 10 6 17v324q0 23 15.5 38t38.5 15t38 -15t15 -38v-356q0 -22 -15 -38l-81 -79q-15 -17 -39 -17h-178q-13 0 -27 8v-112q0 -23 -15.5 -38t-38.5 -15q-22 0 -37.5 15t-15.5 38v594q0 23 15.5 38t37.5 15q23 0 38.5 -15t15.5 -38v-324q0 -9 7 -17l35 -35 q8 -7 18 -7h114q9 0 17 7z" glyph-name="mu" unicode="μ"/><glyph d="M321 803l-80 79q-15 15 -15 38t15 38.5t38 15.5t39 -16l79 -80q16 -16 16 -37q0 -23 -15.5 -38.5t-38.5 -15.5q-22 0 -38 16zM436 173v473q0 23 16.5 38.5t39.5 15.5t38.5 -15.5t15.5 -38.5v-506q0 -23 -15 -38l-89 -86q-16 -16 -37 -16t-37 16l-48 47l-50 -47 q-16 -16 -36 -16t-36 16l-88 86q-16 16 -16 38v506q0 23 16 38.5t39 15.5t39 -15.5t16 -38.5v-473q0 -11 9.5 -20t20.5 -9q12 0 21 9t9 20v177q0 23 16 38t40 15q23 0 38.5 -15t15.5 -38v-177q0 -11 10 -20t21 -9q12 0 21.5 9t9.5 20z" glyph-name="Wgrave" unicode="Ẁ"/><glyph d="M436 173v473q0 23 16.5 38.5t39.5 15.5t38.5 -15.5t15.5 -38.5v-506q0 -23 -15 -38l-89 -86q-16 -16 -37 -16t-37 16l-48 47l-50 -47q-16 -16 -36 -16t-36 16l-88 86q-16 16 -16 38v506q0 23 16 38.5t39 15.5t39 -15.5t16 -38.5v-473q0 -11 9.5 -20t20.5 -9q12 0 21 9 t9 20v177q0 23 16 38t40 15q23 0 38.5 -15t15.5 -38v-177q0 -11 10 -20t21 -9q12 0 21.5 9t9.5 20zM321 803l-80 79q-15 15 -15 38t15 38.5t38 15.5t39 -16l79 -80q16 -16 16 -37q0 -23 -15.5 -38.5t-38.5 -15.5q-22 0 -38 16z" glyph-name="wgrave" unicode="ẁ"/><glyph d="M397 882l-79 -79q-16 -16 -38 -16q-23 0 -38.5 15.5t-15.5 38.5q0 22 16 37l79 80q16 16 38 16q23 0 38.5 -15.5t15.5 -38.5q0 -22 -16 -38zM436 173v473q0 23 16.5 38.5t39.5 15.5t38.5 -15.5t15.5 -38.5v-506q0 -23 -15 -38l-89 -86q-16 -16 -37 -16t-37 16l-48 47 l-50 -47q-16 -16 -36 -16t-36 16l-88 86q-16 16 -16 38v506q0 23 16 38.5t39 15.5t39 -15.5t16 -38.5v-473q0 -11 9.5 -20t20.5 -9q12 0 21 9t9 20v177q0 23 16 38t40 15q23 0 38.5 -15t15.5 -38v-177q0 -11 10 -20t21 -9q12 0 21.5 9t9.5 20z" glyph-name="Wacute" unicode="Ẃ"/><glyph d="M436 173v473q0 23 16.5 38.5t39.5 15.5t38.5 -15.5t15.5 -38.5v-506q0 -23 -15 -38l-89 -86q-16 -16 -37 -16t-37 16l-48 47l-50 -47q-16 -16 -36 -16t-36 16l-88 86q-16 16 -16 38v506q0 23 16 38.5t39 15.5t39 -15.5t16 -38.5v-473q0 -11 9.5 -20t20.5 -9q12 0 21 9 t9 20v177q0 23 16 38t40 15q23 0 38.5 -15t15.5 -38v-177q0 -11 10 -20t21 -9q12 0 21.5 9t9.5 20zM397 882l-79 -79q-16 -16 -38 -16q-23 0 -38.5 15.5t-15.5 38.5q0 22 16 37l79 80q16 16 38 16q23 0 38.5 -15.5t15.5 -38.5q0 -22 -16 -38z" glyph-name="wacute" unicode="ẃ"/><glyph d="M414 797h-19q-23 0 -38.5 15t-15.5 38v20q0 23 15.5 38t38.5 15h19q23 0 38.5 -15t15.5 -38v-20q0 -23 -15.5 -38t-38.5 -15zM244 797h-19q-23 0 -38.5 15t-15.5 38v20q0 23 15.5 38t38.5 15h19q23 0 38.5 -15t15.5 -38v-20q0 -23 -15.5 -38t-38.5 -15zM436 173v473 q0 23 16.5 38.5t39.5 15.5t38.5 -15.5t15.5 -38.5v-506q0 -23 -15 -38l-89 -86q-16 -16 -37 -16t-37 16l-48 47l-50 -47q-16 -16 -36 -16t-36 16l-88 86q-16 16 -16 38v506q0 23 16 38.5t39 15.5t39 -15.5t16 -38.5v-473q0 -11 9.5 -20t20.5 -9q12 0 21 9t9 20v177 q0 23 16 38t40 15q23 0 38.5 -15t15.5 -38v-177q0 -11 10 -20t21 -9q12 0 21.5 9t9.5 20z" glyph-name="Wdieresis" unicode="Ẅ"/><glyph d="M436 173v473q0 23 16.5 38.5t39.5 15.5t38.5 -15.5t15.5 -38.5v-506q0 -23 -15 -38l-89 -86q-16 -16 -37 -16t-37 16l-48 47l-50 -47q-16 -16 -36 -16t-36 16l-88 86q-16 16 -16 38v506q0 23 16 38.5t39 15.5t39 -15.5t16 -38.5v-473q0 -11 9.5 -20t20.5 -9q12 0 21 9 t9 20v177q0 23 16 38t40 15q23 0 38.5 -15t15.5 -38v-177q0 -11 10 -20t21 -9q12 0 21.5 9t9.5 20zM414 797h-19q-23 0 -38.5 15t-15.5 38v20q0 23 15.5 38t38.5 15h19q23 0 38.5 -15t15.5 -38v-20q0 -23 -15.5 -38t-38.5 -15zM244 797h-19q-23 0 -38.5 15t-15.5 38v20 q0 23 15.5 38t38.5 15h19q23 0 38.5 -15t15.5 -38v-20q0 -23 -15.5 -38t-38.5 -15z" glyph-name="wdieresis" unicode="ẅ"/><glyph d="M167 404h306q23 0 38.5 -15t15.5 -38t-15.5 -38.5t-38.5 -15.5h-306q-23 0 -38 15.5t-15 38.5t15 38t38 15z" glyph-name="endash" unicode="–"/><glyph d="M148 404h345q23 0 38 -15t15 -38t-15 -38.5t-38 -15.5h-345q-23 0 -38.5 15.5t-15.5 38.5t15.5 38t38.5 15z" glyph-name="emdash" unicode="—"/><glyph d="M340 459h-38q-23 0 -39 15.5t-16 38.5v95q0 21 17 38l41 40q10 14 33 14q18 0 32 -14q13 -13 13 -32q0 -21 -12 -33l-17 -16q17 -5 28 -19.5t11 -33.5v-39q0 -23 -15 -38.5t-38 -15.5z" glyph-name="quoteleft" unicode="‘"/><glyph d="M300 700h38q23 0 39 -15.5t16 -38.5v-95q0 -21 -17 -38l-41 -40q-10 -14 -33 -14q-18 0 -32 14q-13 13 -13 32q0 21 12 33l17 16q-17 5 -28 19.5t-11 33.5v39q0 23 15 38.5t38 15.5z" glyph-name="quoteright" unicode="’"/><glyph d="M300 146h38q23 0 39 -15.5t16 -38.5v-95q0 -21 -17 -38l-41 -40q-10 -14 -33 -14q-18 0 -32 14q-13 13 -13 32q0 21 12 33l17 16q-17 5 -28 19.5t-11 33.5v39q0 23 15 38.5t38 15.5z" glyph-name="quotesinglbase" unicode="‚"/><glyph d="M302 700h38q23 0 38 -15.5t15 -38.5v-39q0 -19 -11 -33.5t-28 -19.5l17 -16q12 -12 12 -33q0 -19 -13 -32q-14 -14 -32 -14q-23 0 -33 14l-41 40q-17 17 -17 38v95q0 23 16 38.5t39 15.5z" glyph-name="quotereversed" unicode="‛"/><glyph d="M238 459h-38q-23 0 -39 15.5t-16 38.5v95q0 21 17 38l41 40q10 14 33 14q18 0 32 -14q13 -13 13 -32q0 -21 -12 -33l-17 -16q17 -5 28 -19.5t11 -33.5v-39q0 -23 -15 -38.5t-38 -15.5zM442 459h-38q-23 0 -39 15.5t-16 38.5v95q0 21 17 38l41 40q10 14 33 14q18 0 32 -14 q13 -13 13 -32q0 -21 -12 -33l-17 -16q17 -5 28 -19.5t11 -33.5v-39q0 -23 -15 -38.5t-38 -15.5z" glyph-name="quotedblleft" unicode="“"/><glyph d="M402 700h38q23 0 39 -15.5t16 -38.5v-95q0 -21 -17 -38l-41 -40q-10 -14 -33 -14q-18 0 -32 14q-13 13 -13 32q0 21 12 33l17 16q-17 5 -28 19.5t-11 33.5v39q0 23 15 38.5t38 15.5zM198 700h38q23 0 39 -15.5t16 -38.5v-95q0 -21 -17 -38l-41 -40q-10 -14 -33 -14 q-18 0 -32 14q-13 13 -13 32q0 21 12 33l17 16q-17 5 -28 19.5t-11 33.5v39q0 23 15 38.5t38 15.5z" glyph-name="quotedblright" unicode="”"/><glyph d="M402 146h38q23 0 39 -15.5t16 -38.5v-95q0 -21 -17 -38l-41 -40q-10 -14 -33 -14q-18 0 -32 14q-13 13 -13 32q0 21 12 33l17 16q-17 5 -28 19.5t-11 33.5v39q0 23 15 38.5t38 15.5zM198 146h38q23 0 39 -15.5t16 -38.5v-95q0 -21 -17 -38l-41 -40q-10 -14 -33 -14 q-18 0 -32 14q-13 13 -13 32q0 21 12 33l17 16q-17 5 -28 19.5t-11 33.5v39q0 23 15 38.5t38 15.5z" glyph-name="quotedblbase" unicode="„"/><glyph d="M200 700h38q23 0 38 -15.5t15 -38.5v-39q0 -19 -11 -33.5t-28 -19.5l17 -16q12 -12 12 -33q0 -19 -13 -32q-14 -14 -32 -14q-23 0 -33 14l-41 40q-17 17 -17 38v95q0 23 16 38.5t39 15.5zM404 700h38q23 0 38 -15.5t15 -38.5v-39q0 -19 -11 -33.5t-28 -19.5l17 -16 q12 -12 12 -33q0 -19 -13 -32q-14 -14 -32 -14q-23 0 -33 14l-41 40q-17 17 -17 38v95q0 23 16 38.5t39 15.5z" glyph-name="uni201F" unicode="‟"/><glyph d="M373 646v-136q0 -5 5 -5h115q23 0 38 -15t15 -38t-15 -38.5t-38 -15.5h-115q-5 0 -5 -5v-339q0 -23 -15.5 -38.5t-38.5 -15.5t-38.5 15.5t-15.5 38.5v339q0 5 -4 5h-113q-23 0 -38.5 15.5t-15.5 38.5t15.5 38t38.5 15h113q4 0 4 5v136q0 23 15.5 38.5t38.5 15.5 t38.5 -15.5t15.5 -38.5z" glyph-name="dagger" unicode="†"/><glyph d="M373 393v-86q0 -5 5 -5h115q23 0 38 -15t15 -38t-15 -38.5t-38 -15.5h-115q-5 0 -5 -5v-136q0 -23 -15.5 -38.5t-38.5 -15.5t-38.5 15.5t-15.5 38.5v136q0 5 -4 5h-113q-23 0 -38.5 15.5t-15.5 38.5t15.5 38t38.5 15h113q4 0 4 5v86q0 5 -4 5h-113q-23 0 -38.5 15.5 t-15.5 38.5t15.5 38t38.5 15h113q4 0 4 5v136q0 23 15.5 38.5t38.5 15.5t38.5 -15.5t15.5 -38.5v-136q0 -5 5 -5h115q23 0 38 -15t15 -38t-15 -38.5t-38 -15.5h-115q-5 0 -5 -5z" glyph-name="daggerdbl" unicode="‡"/><glyph d="M203 320v59q0 15 11 26l51 53q11 10 27 10h58q16 0 27 -11l51 -52q10 -10 10 -26v-59q0 -17 -10 -26l-51 -51q-11 -11 -27 -11h-58q-16 0 -27 10l-52 52q-10 11 -10 26z" glyph-name="bullet" unicode="•"/><glyph d="M150 0h-39q-23 0 -38 15.5t-15 38.5v39q0 23 15 38t38 15h39q23 0 38 -15t15 -38v-39q0 -23 -15 -38.5t-38 -15.5zM339 0h-39q-23 0 -38 15.5t-15 38.5v39q0 23 15 38t38 15h39q23 0 38.5 -15t15.5 -38v-39q0 -23 -15.5 -38.5t-38.5 -15.5zM529 0h-39q-23 0 -38.5 15.5 t-15.5 38.5v39q0 23 15.5 38t38.5 15h39q23 0 38 -15t15 -38v-39q0 -23 -15 -38.5t-38 -15.5z" glyph-name="ellipsis" unicode="…"/><glyph d="M208 389l146 146q17 14 36 14q22 0 39.5 -15.5t17.5 -38.5q0 -21 -15 -37l-85 -84q-12 -10 -12 -24q0 -13 13 -25l82 -81q14 -17 14 -38q0 -23 -14.5 -38.5t-37.5 -15.5q-22 0 -39 15l-145 144q-15 17 -15 39q0 24 15 39z" glyph-name="guilsinglleft" unicode="‹"/><glyph d="M286 535l146 -146q15 -17 15 -39q0 -21 -15 -39l-145 -144q-17 -15 -39 -15q-23 0 -37.5 15.5t-14.5 38.5q0 24 14 38l82 81q12 12 12 25t-11 24l-85 84q-15 15 -15 37q0 23 17.5 38.5t39.5 15.5q19 0 36 -14z" glyph-name="guilsinglright" unicode="›"/><glyph d="M438 555v91q0 23 16 38.5t39 15.5t38 -15.5t15 -38.5v-124q0 -22 -16 -38l-321 -321q-7 -7 -7 -18v-91q0 -23 -15.5 -38.5t-38.5 -15.5t-38.5 15.5t-15.5 38.5v124q0 21 17 38l321 321q6 6 6 18z" glyph-name="fraction" unicode="⁄"/><glyph d="M94 231v415q0 23 15.5 38.5t38.5 15.5h345q23 0 38 -15.5t15 -38.5t-15 -38.5t-38 -15.5h-257q-14 0 -24 -10t-10 -24v-120q0 -14 10 -24.5t24 -10.5h191q23 0 38 -15t15 -38t-15 -38.5t-38 -15.5h-191q-14 0 -24 -10.5t-10 -24.5v-30q0 -4 5 -4h135q23 0 38.5 -15.5 t15.5 -38.5t-15.5 -38.5t-38.5 -15.5h-135q-5 0 -5 -5v-61q0 -23 -15.5 -38.5t-38.5 -15.5t-38.5 15.5t-15.5 38.5v61q0 5 -4 5h-10q-23 0 -38.5 15.5t-15.5 38.5t15.5 38.5t38.5 15.5h10q4 0 4 4z" glyph-name="franc" unicode="₣"/><glyph d="M183 443v122q0 23 15 38l82 80q17 17 38 17h93q21 0 38 -17l82 -80q15 -15 15 -38v-45q0 -23 -15 -38t-38 -15t-39 15t-16 38v12q0 6 -7 18l-34 34q-10 8 -19 8h-27q-9 0 -19 -8l-34 -34q-7 -12 -7 -18v-89q0 -5 5 -5h152q23 0 38.5 -15t15.5 -38t-15.5 -38.5 t-38.5 -15.5h-152q-5 0 -5 -5v-25q0 -4 5 -4h152q23 0 38.5 -16t15.5 -39t-15.5 -38t-38.5 -15h-152q-5 0 -5 -5v-71q0 -5 5 -5h197q23 0 38 -15.5t15 -38.5t-15 -38.5t-38 -15.5h-345q-23 0 -38.5 15.5t-15.5 38.5t15.5 38.5t38.5 15.5h30q5 0 5 5v71q0 5 -5 5h-30 q-23 0 -38.5 15t-15.5 38t15.5 39t38.5 16h30q5 0 5 4v25q0 5 -5 5h-30q-23 0 -38.5 15.5t-15.5 38.5t15.5 38t38.5 15h30q5 0 5 5z" glyph-name="lira" unicode="₤"/><glyph d="M439 530q-3 13 -8 20l-34 34q-10 8 -19 8h-46q-9 0 -19 -8l-34 -34q-8 -10 -8 -18v-52q0 -5 5 -5h124q23 0 38.5 -15.5t15.5 -38.5t-15.5 -38.5t-38.5 -15.5h-124q-5 0 -5 -4v-26q0 -4 5 -4h124q23 0 38.5 -15.5t15.5 -38.5t-15.5 -38.5t-38.5 -15.5h-124q-5 0 -5 -5v-52 q0 -8 8 -18l34 -34q10 -8 19 -8h46q9 0 19 8l34 34q5 7 8 20q4 20 19 32t35 12q23 0 38 -15t15 -38v-25q0 -24 -15 -39l-82 -80q-17 -17 -38 -17h-113q-23 0 -37 17l-82 80q-16 16 -16 39v84q0 5 -4 5h-11q-23 0 -38.5 15.5t-15.5 38.5t15.5 38.5t38.5 15.5h11q4 0 4 4v26 q0 4 -4 4h-11q-23 0 -38.5 15.5t-15.5 38.5t15.5 38.5t38.5 15.5h11q4 0 4 5v85q0 22 16 38l82 80q14 17 37 17h113q21 0 38 -17l82 -80q15 -15 15 -38v-26q0 -23 -15 -38t-38 -15q-20 0 -35 12t-19 32z" glyph-name="Euro" unicode="€"/><glyph d="M127 700h137q13 0 22 -8.5t9 -22.5q0 -34 -35 -34h-30q-3 0 -3 -2v-140q0 -14 -9.5 -22.5t-21.5 -8.5q-13 0 -23.5 8.5t-10.5 22.5v140q0 2 -2 2h-31q-35 0 -35 34q0 14 9.5 22.5t23.5 8.5zM480 493v96q0 3 -4 2q-3 -3 -3 -7v-21q0 -32 -29 -32t-29 32v21q0 4 -3 7 q-3 1 -3 -2v-96q0 -14 -9.5 -22.5t-22.5 -8.5q-12 0 -22.5 9t-10.5 22v176q0 14 10.5 22.5t22.5 8.5q15 0 25 -12l35 -37q3 -3 7 -3t7 3l36 37q11 12 25 12t24 -8.5t10 -22.5v-176q0 -14 -10.5 -22.5t-23.5 -8.5t-22.5 8.5t-9.5 22.5z" glyph-name="trademark" unicode="™"/><glyph d="M387 511l-97 -96q-4 -4 -4 -7q0 -4 8 -4h199q23 0 38 -15t15 -38t-15 -38.5t-38 -15.5h-202q-8 0 -8 -4q0 -3 4 -7l98 -97q15 -15 15 -38t-15 -39t-38 -16t-39 16l-198 198q-16 16 -16 39q0 29 21 45l194 193q16 16 37 16q22 0 39 -16t17 -39q0 -22 -15 -37z" glyph-name="arrowleft" unicode="←"/><glyph d="M482 282l-96 97q-4 4 -7 4q-4 0 -4 -8v-199q0 -23 -15 -38t-38 -15t-38.5 15t-15.5 38v202q0 8 -4 8q-3 0 -7 -4l-97 -98q-15 -15 -38 -15t-39 15t-16 38t16 39l198 198q16 16 39 16q28 0 45 -21l193 -194q16 -16 16 -37q0 -22 -16 -39t-39 -17q-22 0 -37 15z" glyph-name="arrowup" unicode="↑"/><glyph d="M350 415l-97 96q-15 15 -15 37q0 23 17 39t39 16q21 0 37 -16l194 -193q21 -16 21 -45q0 -23 -16 -39l-198 -198q-16 -16 -39 -16t-38 16t-15 39t15 38l98 97q4 4 4 7q0 4 -8 4h-202q-23 0 -38 15.5t-15 38.5t15 38t38 15h199q8 0 8 4q0 3 -4 7z" glyph-name="arrowright" unicode="→"/><glyph d="M386 319l96 97q15 15 37 15q23 0 39 -17t16 -39q0 -21 -16 -37l-193 -194q-17 -21 -45 -21q-23 0 -39 16l-198 198q-16 16 -16 39t16 38t39 15t38 -15l97 -98q4 -4 7 -4q4 0 4 8v202q0 23 15.5 38t38.5 15t38 -15t15 -38v-199q0 -8 4 -8q3 0 7 4z" glyph-name="arrowdown" unicode="↓"/><glyph d="M166 404h306q23 0 38.5 -15t15.5 -38t-15.5 -38.5t-38.5 -15.5h-306q-23 0 -38 15.5t-15 38.5t15 38t38 15z" glyph-name="minus" unicode="−"/><glyph d="M438 555v91q0 23 16 38.5t39 15.5t38 -15.5t15 -38.5v-124q0 -22 -16 -38l-321 -321q-7 -7 -7 -18v-91q0 -23 -15.5 -38.5t-38.5 -15.5t-38.5 15.5t-15.5 38.5v124q0 21 17 38l321 321q6 6 6 18z" glyph-name="uni2215" unicode="∕"/><glyph d="M203 320v59q0 15 11 26l51 53q11 10 27 10h58q16 0 27 -11l51 -52q10 -10 10 -26v-59q0 -17 -10 -26l-51 -51q-11 -11 -27 -11h-58q-16 0 -27 10l-52 52q-10 11 -10 26z" glyph-name="uni2219" unicode="∙"/><glyph d="M519 197h-398q-22 0 -38 16.5t-16 38.5q0 21 16 37l193 194q15 20 45 20q24 0 39 -15l198 -198q15 -15 15 -39q0 -23 -15.5 -38.5t-38.5 -15.5z" glyph-name="triagup" unicode="▲"/><glyph d="M167 152v398q0 22 16.5 38t38.5 16q21 0 37 -16l194 -193q21 -17 21 -45q0 -23 -16 -39l-198 -198q-16 -16 -39 -16t-38.5 16t-15.5 39z" glyph-name="triagrt" unicode="►"/><glyph d="M121 503h398q23 0 38.5 -15.5t15.5 -38.5q0 -24 -15 -39l-198 -198q-15 -15 -39 -15q-30 0 -45 20l-193 194q-16 16 -16 37q0 22 16 38.5t38 16.5z" glyph-name="triagdn" unicode="▼"/><glyph d="M474 550v-398q0 -23 -15.5 -39t-38.5 -16t-39 16l-198 198q-16 16 -16 39q0 28 21 45l194 193q16 16 37 16q22 0 38.5 -16t16.5 -38z" glyph-name="triaglf" unicode="◄"/></font>
</defs>
</svg>
