<?xml version="1.0" standalone="no"?>
<!DOCTYPE svg PUBLIC "-//W3C//DTD SVG 1.1//EN" "http://www.w3.org/Graphics/SVG/1.1/DTD/svg11.dtd">
<svg xmlns="http://www.w3.org/2000/svg"><metadata>This SVG WebFont was generated by YouWorkForThem.
Copyright (c) 2021 by ATKÂ® Studio. All rights reserved.</metadata><defs><font horiz-adv-x="640" id="ywftsvg"><font-face ascent="800" bbox="18 -313 656 1009" cap-height="710" descent="-200" font-family="" font-stretch="normal" font-weight="300" panose-1="0 0 0 0 0 0 0 0 0 0" underline-position="0" underline-thickness="0" unicode-range="U+000D-25C4" units-per-em="1000" x-height="710"/><missing-glyph horiz-adv-x="500"/><glyph glyph-name=".notdef" horiz-adv-x="500"/><glyph glyph-name="glyph1" horiz-adv-x="0"/><glyph glyph-name="glyph3" horiz-adv-x="0"/><glyph glyph-name="glyph3" horiz-adv-x="0"/><glyph glyph-name="space" unicode=" "/><glyph d="M375 -45h-41q-36 0 -48 37q-17 4 -27 17.5t-10 31.5v40q0 21 14.5 36t35.5 15h41q36 0 48 -37q37 -11 37 -49v-40q0 -21 -14.5 -36t-35.5 -15zM406 624v-415q0 -21 -15 -36t-36 -15q-38 0 -49 37q-37 12 -37 49v415q0 21 15 36t36 15q17 0 30.5 -10.5t18.5 -26.5 q16 -5 26.5 -18.5t10.5 -30.5zM299 0h41q17 0 28.5 12t11.5 29v40q0 17 -11.5 29t-28.5 12h-41q-17 0 -28.5 -12t-11.5 -29v-40q0 -17 11.5 -29t28.5 -12zM361 244v415q0 17 -12 29t-29 12t-29 -12t-12 -29v-415q0 -17 12 -29t29 -12t29 12t12 29z" glyph-name="exclam" unicode="!"/><glyph d="M314 624v-141q0 -21 -15.5 -35.5t-36.5 -14.5q-37 0 -48 37q-16 4 -26.5 17.5t-10.5 30.5v141q0 21 14.5 36t35.5 15q39 0 50 -37q16 -5 26.5 -18.5t10.5 -30.5zM498 624v-141q0 -21 -15 -35.5t-36 -14.5q-38 0 -49 37q-37 12 -37 48v141q0 21 15 36t36 15 q17 0 30.5 -10.5t18.5 -26.5q16 -5 26.5 -18.5t10.5 -30.5zM269 518v141q0 17 -12.5 29t-29.5 12t-28.5 -12t-11.5 -29v-141q0 -17 11.5 -28.5t28.5 -11.5t29.5 11.5t12.5 28.5zM453 518v141q0 17 -12 29t-29 12t-29 -12t-12 -29v-141q0 -17 12 -28.5t29 -11.5t29 11.5 t12 28.5z" glyph-name="quotedbl" unicode="&quot;"/><glyph d="M360 370h-25q-11 0 -12 -10q-2 -10 -4.5 -34t-3.5 -30h25q11 0 12 10q2 10 4.5 34t3.5 30zM143 46l15 116q-24 8 -32 34q-16 5 -26.5 18.5t-10.5 30.5q0 21 15 36t36 15h23q12 0 13 10q2 10 4 32t3 32h-8q-36 0 -48 37q-38 12 -38 50q0 21 15 35.5t36 14.5h48q11 0 12 10 l15 146q2 22 19 34t38 12q29 0 42 -36q19 -3 29 -21t8 -35l-11 -110h24q12 0 13 10l15 146q2 22 18 34t38 12q31 0 44 -36q18 -5 28.5 -22t8.5 -34l-12 -113q26 -9 32 -34q37 -12 37 -48q0 -21 -15 -36.5t-36 -15.5h-23q-12 0 -13 -10q-1 -17 -7 -64h8q17 0 30.5 -10.5 t18.5 -26.5q16 -5 26.5 -18.5t10.5 -30.5q0 -21 -15 -36t-36 -15h-48q-10 0 -12 -11l-18 -149q-3 -22 -19 -33.5t-38 -11.5q-32 0 -41 36q-19 3 -29.5 21t-8.5 35l14 113h-24q-10 0 -12 -11l-19 -149q-3 -22 -18.5 -33.5t-37.5 -11.5q-31 0 -44 36q-18 4 -28.5 21t-8.5 35z M340 286h-54q-18 0 -18 18v2l10 90q1 19 22 19h54q18 0 18 -18v-2l-10 -90q-1 -19 -22 -19zM171 184l-18 -139v-5q0 -16 10.5 -28.5t25.5 -12.5h5q15 0 27 10.5t14 26.5l19 149q1 19 22 19h54q18 0 18 -18v-2l-17 -139v-5q0 -16 10 -28.5t24 -12.5h5q16 0 28 10.5t14 26.5 l18 149q1 19 22 19h48q17 0 29 12t12 29t-12 29t-29 12h-36q-19 0 -19 18v2l9 90q2 19 23 19h23q17 0 29 12.5t12 29.5t-12 28.5t-29 11.5h-13q-18 0 -18 18v2l15 136v5q0 16 -10 27.5t-26 13.5h-5q-15 0 -27 -10.5t-14 -26.5l-15 -146q-2 -19 -23 -19h-54q-18 0 -18 18v2 l14 136v5q0 16 -10 28.5t-24 12.5h-5q-15 0 -27.5 -10.5t-14.5 -26.5l-15 -146q-1 -19 -22 -19h-48q-17 0 -29 -11.5t-12 -28.5t12 -29.5t29 -12.5h37q18 0 18 -18v-2l-9 -90q-1 -19 -23 -19h-23q-17 0 -29 -12t-12 -29t12 -29t29 -12h13q18 0 18 -18v-2z" glyph-name="numbersign" unicode="#"/><glyph d="M439 252l-7 8q-9 4 -16 4q-10 0 -10 -9v-149l33 33q10 10 10 21v70q0 11 -10 22zM269 411v148l-34 -33q-9 -10 -9 -21v-70q0 -11 6 -18l6 -6q9 -9 21 -9q10 0 10 9zM542 605l30 -29q13 -13 15 -44q1 -9 0 -23.5t-1 -15.5q0 -21 -15 -36t-36 -15q-17 0 -30.5 10.5 t-18.5 26.5q-16 5 -26.5 18.5t-10.5 30.5q0 16 -1 19q-1 6 -9 14l-7 7q-8 5 -16 5q-10 0 -10 -9v-162q11 0 14 -1q22 -6 31 -15l86 -85l2 -2t1 -2l32 -31q14 -14 14 -36v-138q0 -25 -14 -39l-87 -84q-15 -13 -35 -15q-6 -1 -18 0t-16 1q-6 0 -8 -5q0 -1 -0.5 -2t-1 -3 t-0.5 -3v-11q0 -22 -14.5 -36.5t-36.5 -14.5q-38 0 -49 37q-30 8 -36 37q-2 0 -7 0.5t-8 0.5q-22 6 -31 15l-85 84l-3 3l-32 32q-14 13 -16 44q0 8 0.5 21.5t0.5 18.5q0 21 15 35.5t36 14.5q17 0 30.5 -10.5t18.5 -26.5q37 -12 37 -48v-12q1 -2 1 -8q1 -5 8 -14l3 -3 q9 -9 21 -9q10 0 10 10v161q-3 0 -8 0.5t-7 0.5q-24 7 -31 15l-31 31l-4 4l-84 85q-15 15 -15 36v139q0 22 15 37l85 84q13 13 36 15h10.5h12.5h11q8 0 9 4q0 1 0.5 4t0.5 5v11q0 21 15 36t36 15q37 0 49 -37q30 -8 36 -38q12 0 15 -1q18 -2 30 -14l87 -84q1 -1 2 -3t3 -3z M361 102v188q0 19 20 19q17 0 29 -12l36 -38q13 -13 13 -29v-70q0 -15 -13 -28l-37 -38q-11 -12 -29 -12q-19 0 -19 20zM279 599v-188q0 -19 -20 -19q-16 0 -28 12l-38 37q-12 12 -12 29v70q0 16 12 28l38 38q12 12 29 12q19 0 19 -19zM259 700h-35q-18 0 -28 -12l-85 -84 q-12 -15 -12 -30v-139q0 -17 12 -29l84 -85q12 -12 29 -12h35q20 0 20 -20v-187q0 -20 -20 -20q-16 0 -28 12l-38 38q-12 12 -12 28v13q0 17 -12 28.5t-29 11.5t-29 -11.5t-12 -28.5v-46q0 -16 12 -31l85 -84q10 -12 28 -12h35q20 0 20 -20v-14q0 -17 12 -29t29 -12t29 12 t12 29v14q0 20 20 20h34q17 0 28 12l87 84q11 14 11 31v138q0 18 -11 29l-86 85q-13 13 -29 13h-34q-20 0 -20 20v187q0 19 20 19q17 0 28 -12l37 -38q13 -13 13 -28v-12q0 -17 12 -29t29 -12t29 12t12 29v46q0 16 -11 30l-87 84q-10 12 -28 12h-34q-20 0 -20 20v14 q0 17 -12 29t-29 12t-29 -12t-12 -29v-14q0 -20 -20 -20z" glyph-name="dollar" unicode="$"/><glyph d="M535 -45h-61q-36 0 -48 37q-17 4 -27 17.5t-10 31.5v61q0 20 15 35t35 15h61q17 0 30.5 -10.5t18.5 -26.5q37 -12 37 -48v-61q0 -21 -15 -36t-36 -15zM586 624v-129q0 -23 -15 -37l-336 -336q-9 -10 -9 -21v-95q0 -21 -15 -36t-36 -15q-17 0 -30.5 10.5t-18.5 26.5 q-16 5 -26.5 18.5t-10.5 30.5v129q0 21 16 37l334 336q10 10 10 21v95q0 21 15 36t36 15q17 0 30.5 -10.5t18.5 -26.5q16 -5 26.5 -18.5t10.5 -30.5zM235 513h-60q-17 0 -30.5 10.5t-18.5 26.5q-16 5 -26.5 18.5t-10.5 30.5v60q0 21 15 36t36 15h60q36 0 48 -37 q37 -11 37 -49v-60q0 -21 -14.5 -36t-35.5 -15zM459 659v-95q0 -15 -13 -28l-334 -336q-13 -15 -13 -30v-129q0 -17 12 -29t29 -12t29 12t12 29v95q0 16 12 28l336 336q12 14 12 30v129q0 17 -12 29t-29 12t-29 -12t-12 -29zM439 0h61q17 0 29 12t12 29v61q0 17 -12 28.5 t-29 11.5h-61q-17 0 -28.5 -11.5t-11.5 -28.5v-61q0 -17 11.5 -29t28.5 -12zM140 558h60q17 0 28.5 12t11.5 29v60q0 17 -11.5 29t-28.5 12h-60q-17 0 -29 -12t-12 -29v-60q0 -17 12 -29t29 -12z" glyph-name="percent" unicode="%"/><glyph d="M403 160v104h-109q-15 0 -22 -9l-37 -38q-9 -9 -9 -22v-70q0 -11 10 -21l6 -7q8 -5 17 -5h75q12 0 21 9l39 37q9 9 9 22zM403 -45h-144q-20 0 -35 15l-85 84q-2 0 -2 3l-33 32q-15 13 -15 38v138q0 15 9 29q2 2 4.5 5.5t3.5 4.5q2 1 5 3.5t4 4.5q20 20 20 38t-20 38 q-1 2 -4 4.5t-5 3.5q-1 1 -3.5 4.5t-4.5 5.5q-9 14 -9 29v139q0 22 15 37l85 84q15 15 35 15h96q37 0 49 -37q37 -11 37 -49q0 -21 -15 -36t-36 -15h-61q-12 0 -21 -9l-37 -38q-10 -10 -10 -21v-70q0 -12 10 -22l6 -7q8 -5 17 -5h134q7 0 10 8v12v14q0 21 14.5 36.5 t35.5 15.5q17 0 31 -10.5t19 -26.5q16 -5 26.5 -18.5t10.5 -30.5q36 -2 48 -37q16 -5 26.5 -18.5t10.5 -30.5q0 -21 -15 -36t-36 -15h-14q-9 0 -12 -1q-8 -2 -8 -9v-162q0 -26 -15 -38l-84 -84q-15 -15 -38 -15zM413 289v-129q0 -17 -12 -29l-39 -37q-12 -12 -28 -12h-75 q-17 0 -29 12l-37 38q-12 12 -12 28v70q0 18 11 29l37 38q12 12 30 12h134q20 0 20 -20zM495 127v162q0 20 20 20h24q17 0 29 12t12 29t-12 29t-29 12h-24q-20 0 -20 20v24q0 17 -12.5 29.5t-29.5 12.5t-28.5 -12.5t-11.5 -29.5v-24q0 -20 -20 -20h-134q-18 0 -30 12l-36 38 q-12 12 -12 29v70q0 16 12 28l37 38q12 12 29 12h61q17 0 29 12t12 29t-12 29t-29 12h-96q-18 0 -28 -12l-85 -84q-12 -15 -12 -30v-139q0 -17 12 -29l20 -20q14 -16 14 -36t-14 -36l-20 -20q-12 -12 -12 -29v-138q0 -16 12 -31l85 -84q10 -12 28 -12h144q18 0 31 12l84 84 q12 15 12 31z" glyph-name="ampersand" unicode="&amp;"/><glyph d="M406 624v-141q0 -21 -15 -35.5t-36 -14.5q-38 0 -49 37q-37 12 -37 48v141q0 21 15 36t36 15q17 0 30.5 -10.5t18.5 -26.5q16 -5 26.5 -18.5t10.5 -30.5zM361 518v141q0 17 -12 29t-29 12t-29 -12t-12 -29v-141q0 -17 12 -28.5t29 -11.5t29 11.5t12 28.5z" glyph-name="quotesingle" unicode="'"/><glyph d="M431 -92h-67q-21 0 -36 15l-86 84l-2 2q-1 2 -2 3l-31 31q-14 12 -14 36v541q0 24 14 36l86 84q16 16 36 16h67q36 0 48 -37q37 -11 37 -49q0 -21 -14.5 -36.5t-35.5 -15.5h-33q-11 0 -21 -10l-38 -37q-9 -9 -9 -21v-471q0 -11 6 -18l6 -6q7 -7 23 -9h31q36 0 48 -37 q37 -11 37 -49q0 -21 -14.5 -36.5t-35.5 -15.5zM396 36h-33q-16 0 -28 12l-38 37q-12 12 -12 29v471q0 17 12 29l38 37q12 12 28 12h33q17 0 28.5 12.5t11.5 29.5t-11.5 29t-28.5 12h-67q-19 0 -29 -13l-86 -84q-11 -14 -11 -29v-541q0 -15 11 -29l86 -84q10 -13 29 -13h67 q17 0 28.5 12.5t11.5 29.5t-11.5 29t-28.5 12z" glyph-name="parenleft" unicode="("/><glyph d="M339 602l-7 6q-9 8 -22 10q0 1 -15 0.5t-16 -0.5q-36 0 -48 37q-38 12 -38 50q0 21 15 36t36 15h66q20 0 36 -16l86 -84l4 -4l31 -31q14 -14 14 -36v-541q0 -23 -14 -37l-86 -84q-15 -15 -36 -15h-66q-36 0 -48 37q-38 12 -38 50q0 21 15 36t36 15h32q12 0 21 9l38 37 q9 9 9 22v471q0 9 -5 17zM276 36h-32q-17 0 -29 -12t-12 -29t12 -29.5t29 -12.5h66q19 0 29 13l86 84q11 14 11 29v541q0 15 -11 29l-86 84q-10 13 -29 13h-66q-17 0 -29 -12t-12 -29t12 -29.5t29 -12.5h32q16 0 28 -12l38 -37q12 -12 12 -29v-471q0 -17 -12 -29l-38 -37 q-12 -12 -28 -12z" glyph-name="parenright" unicode=")"/><glyph d="M229 546q-10 7 -13 20q-1 0 -1 1q-36 17 -36 46q0 15 11.5 26t26.5 11t39 -15q10 -6 14 -9l8 -3l1 1l1 1v3v12v16q0 26 6 35q10 19 34 19q25 0 34 -19q1 -2 4 -16q23 -2 31 -20q4 -7 4 -14q16 9 29 9q16 0 26.5 -10t11.5 -25q15 -2 25 -12.5t10 -25.5q0 -27 -35 -46 q-3 -1 -6 -2.5l-5 -2.5t-3 -1q9 -9 13 -21q1 0 1 -1q35 -16 35 -44q0 -17 -10.5 -27.5t-27.5 -10.5q-15 0 -39 15q-10 6 -14 9q-6 3 -8 3v-2q-1 -1 -1 -3q-1 -3 -1 -13q0 -9 1 -16q0 -21 -6 -34q-9 -19 -34 -19q-24 0 -34 19q-4 6 -5 16q-23 2 -30 19q-4 7 -5 14 q-16 -8 -29 -8q-15 0 -26 10t-12 25q-15 1 -25 11.5t-10 25.5q0 24 19 34q1 1 5 3.5t10 5.5t10 6q3 3 6 4zM270 616l-38 21q-8 3 -15 3q-11 0 -19.5 -8t-8.5 -19q0 -19 14 -27l37 -22q10 -6 10 -11q0 -4 -10 -11l-37 -23q-14 -8 -14 -26q0 -11 8 -19t20 -8q7 0 15 3l38 21 q3 3 8 3q12 0 12 -15v-43q0 -12 9 -20.5t21 -8.5t20.5 8.5t8.5 20.5v43q0 15 12 15q5 0 8 -3l38 -21q7 -3 15 -3q13 0 20.5 8t7.5 20q0 18 -13 25l-38 23q-8 5 -8 11t8 11l38 22q13 7 13 26q0 12 -8 20t-20 8q-8 0 -15 -3l-38 -21q-3 -3 -8 -3q-12 0 -12 15v43 q0 12 -8.5 20.5t-20.5 8.5t-21 -8.5t-9 -20.5v-43q0 -15 -12 -15q-5 0 -8 3z" glyph-name="asterisk" unicode="*"/><glyph d="M504 265q-14 -3 -30 -3q-4 0 -13 0.5t-14 0.5q-17 0 -29 -11.5t-12 -28.5v-46q0 -21 -15 -36t-36 -15q-17 0 -30.5 10.5t-18.5 26.5q-16 5 -26.5 18.5t-10.5 30.5v46v4q-1 1 -6 1q-4 0 -12.5 -0.5t-14.5 -0.5q-15 0 -30 3q-31 7 -37 36q-37 9 -37 48q0 21 15 36t36 15h45 q17 0 29 11.5t12 28.5q0 4 -0.5 13t-0.5 14q0 16 3 31q9 38 49 38q39 0 48 -37q29 -5 36 -37q3 -15 3 -30q0 -6 -0.5 -14.5t-0.5 -12.5t1 -5h5h45q36 0 48 -37q37 -11 37 -49q0 -40 -38 -49zM457 390h-45q-22 0 -36.5 14.5t-14.5 35.5v46q0 17 -12 28.5t-29 11.5t-29 -11.5 t-12 -28.5v-46q0 -21 -14.5 -35.5t-36.5 -14.5h-45q-17 0 -29 -12t-12 -29t12 -29t29 -12h45q22 0 36.5 -14.5t14.5 -35.5v-46q0 -17 12 -29t29 -12t29 12t12 29v46q0 21 14.5 35.5t36.5 14.5h45q17 0 28.5 12t11.5 29t-11.5 29t-28.5 12z" glyph-name="plus" unicode="+"/><glyph d="M272 -36l18 18q0 1 -1.5 4.5t-2.5 5.5q-17 4 -27 17.5t-10 31.5v39q0 21 14.5 36.5t35.5 15.5h40q17 0 30.5 -10.5t18.5 -26.5q37 -11 37 -50v-98q0 -23 -15 -38l-43 -42q-11 -11 -31 -11q-16 0 -27.5 10t-13.5 25q-16 2 -26 14t-10 28q0 18 13 31zM339 122h-40 q-17 0 -28.5 -12.5t-11.5 -29.5v-39q0 -17 11.5 -29t28.5 -12h23l-43 -43q-10 -11 -10 -24q0 -14 9 -23t23 -9q15 0 24 9l43 42q12 15 12 30v98q0 17 -12 29.5t-29 12.5z" glyph-name="comma" unicode=","/><glyph d="M505 365q37 -11 37 -49q0 -21 -14.5 -36t-35.5 -15h-274q-38 0 -49 37q-37 12 -37 49q0 21 15 36t36 15h274q36 0 48 -37zM457 392h-274q-17 0 -29 -12t-12 -29t12 -29t29 -12h274q17 0 28.5 12t11.5 29t-11.5 29t-28.5 12z" glyph-name="hyphen" unicode="-"/><glyph d="M380 -45h-51q-36 0 -48 37q-17 4 -27 17.5t-10 31.5v50q0 21 14.5 36t35.5 15h51q17 0 30.5 -10.5t18.5 -26.5q16 -5 26.5 -18.5t10.5 -30.5v-50q0 -21 -15 -36t-36 -15zM294 0h51q17 0 29 12t12 29v50q0 17 -12 29t-29 12h-51q-17 0 -28.5 -12t-11.5 -29v-50 q0 -17 11.5 -29t28.5 -12z" glyph-name="period" unicode="."/><glyph d="M586 624v-129q0 -23 -15 -37l-336 -336q-9 -10 -9 -21v-95q0 -21 -15 -36t-36 -15q-17 0 -30.5 10.5t-18.5 26.5q-16 5 -26.5 18.5t-10.5 30.5v129q0 21 16 37l334 336q10 10 10 21v95q0 21 15 36t36 15q17 0 30.5 -10.5t18.5 -26.5q16 -5 26.5 -18.5t10.5 -30.5z M459 659v-95q0 -15 -13 -28l-334 -336q-13 -15 -13 -30v-129q0 -17 12 -29t29 -12t29 12t12 29v95q0 16 12 28l336 336q12 14 12 30v129q0 17 -12 29t-29 12t-29 -12t-12 -29z" glyph-name="slash" unicode="/"/><glyph d="M449 182v153l-207 -206q0 -1 -1 -1l-1 -2l-1 -1q0 -1 -0.5 -1t-0.5 -1q0 -2 2 -4l19 -19q8 -8 21 -8h79q13 0 22 9l58 59q10 11 10 22zM432 549l-16 16q-11 8 -22 8h-79q-11 0 -21 -9l-59 -59q-9 -11 -9 -22v-153l206 206q3 3 3 6q0 4 -3 7zM430 696l31 -32q1 -1 4 -3 l106 -108q15 -15 15 -35v-406q0 -24 -15 -37l-106 -106q-14 -14 -36 -14h-148q-21 0 -36 15l-35 35l-71 71l-35 35q-15 13 -15 36v406q0 23 15 36l106 106q15 15 36 15h148q22 0 36 -14zM359 82h-79q-17 0 -28 11l-52 51q-7 7 -7 14q0 9 7 13l240 240q3 5 9 5q10 0 10 -13 v-221q0 -16 -13 -29l-58 -59q-12 -12 -29 -12zM439 529l-240 -240q-3 -5 -9 -5q-9 0 -9 13v221q0 18 12 29l59 59q12 12 28 12h79q18 0 29 -11l51 -51q6 -6 6 -14t-6 -13zM217 688l-106 -106q-12 -14 -12 -29v-406q0 -15 12 -29l106 -106q10 -12 29 -12h148q18 0 29 11 l106 106q12 13 12 30v406q0 17 -12 28l-106 108q-14 11 -29 11h-148q-19 0 -29 -12z" glyph-name="zero" unicode="0"/><glyph d="M269 133v330q-24 -24 -48 -24q-38 0 -49 37q-37 12 -37 48q0 24 14 38l134 134q14 14 38 14q36 0 48 -37q37 -11 37 -49v-526q0 -5 1 -6h5h42q17 0 30.5 -10.5t18.5 -26.5q16 -5 26.5 -18.5t10.5 -30.5q0 -22 -14.5 -36.5t-36.5 -14.5h-268q-38 0 -49 37q-37 12 -37 49 q0 21 15 36t36 15h42q17 0 29 12t12 29zM279 533v-400q0 -21 -14.5 -36t-36.5 -15h-42q-17 0 -29 -12t-12 -29t12 -29t29 -12h268q17 0 29 12t12 29t-12 29t-29 12h-42q-22 0 -36.5 15t-14.5 36v526q0 17 -11.5 29t-28.5 12q-20 0 -31 -11l-134 -134q-11 -11 -11 -31 q0 -17 12 -28.5t29 -11.5q16 0 30 12l44 45q5 5 10 5q9 0 9 -13z" glyph-name="one" unicode="1"/><glyph d="M536 611l4 -4l31 -31q15 -13 15 -37v-63q0 -25 -14 -36l-336 -336q-6 -8 -6 -12h2h268q17 0 30.5 -10.5t18.5 -26.5q16 -5 26.5 -18.5t10.5 -30.5q0 -21 -15 -36t-36 -15h-360q-17 0 -30.5 10.5t-18.5 26.5q-16 5 -26.5 18.5t-10.5 30.5v111q0 22 15 37l337 337q8 8 8 17 q0 8 -8 16l-8 8q-7 6 -18 6h-120q-12 0 -21 -9l-37 -38q-8 -8 -9 -14q0 -6 -1 -8v-11q0 -21 -15.5 -36t-36.5 -15q-17 0 -30.5 10.5t-18.5 26.5q-16 5 -26.5 18.5t-10.5 30.5v46q0 22 15 37l86 84q15 15 35 15h190q20 0 35 -15zM182 528v12q0 16 12 28l37 38q12 12 29 12 h120q18 0 29 -12l39 -40q11 -9 11 -23q0 -16 -11 -24l-337 -337q-12 -12 -12 -30v-111q0 -17 12 -29t29 -12h360q17 0 29 12t12 29t-12 29t-29 12h-268q-18 0 -33 12t-15 30q0 15 10 22l336 336q11 11 11 29v63q0 15 -12 30l-86 84q-10 12 -28 12h-190q-17 0 -28 -12 l-86 -84q-12 -15 -12 -30v-46q0 -17 12 -29t29 -12t29.5 12t12.5 29z" glyph-name="two" unicode="2"/><glyph d="M541 606l31 -30q14 -12 14 -37v-139q0 -18 -9 -30q-1 -2 -3.5 -5.5t-4.5 -5.5q-2 -1 -9 -8q-21 -19 -21 -36q0 -18 21 -37q2 -1 9 -8q5 -5 8 -11q9 -12 9 -29v-139q0 -24 -14 -38l-87 -84q-17 -14 -35 -14h-190q-18 0 -35 14l-86 84q-1 1 -2 3t-2 3l-31 30q-14 13 -16 44 q0 8 0.5 21.5t0.5 18.5q0 21 15 35.5t36 14.5q38 0 50 -38q37 -12 37 -47v-12q1 -2 1 -8q2 -8 9 -14l6 -7q8 -5 17 -5h120q13 0 22 9l37 38q10 10 10 21v70q0 11 -10 22l-7 7q-8 5 -17 5h-115q-39 0 -50 37q-37 12 -37 49q0 21 15.5 36t36.5 15h115q14 0 23 9l37 38 q9 9 9 22v70q0 11 -10 21l-7 7q-8 5 -17 5h-120q-12 0 -21 -9l-37 -38q-8 -8 -9 -14q0 -6 -1 -8v-11q0 -21 -15.5 -36t-36.5 -15q-17 0 -30.5 10.5t-18.5 26.5q-16 5 -26.5 18.5t-10.5 30.5v46q0 22 15 37l86 84q15 15 35 15h190q20 0 35 -15l87 -84l3 -3zM182 528v12 q0 16 12 28l37 38q12 12 29 12h120q18 0 29 -12l37 -38q13 -13 13 -28v-70q0 -17 -12 -29l-37 -38q-12 -12 -30 -12h-115q-18 0 -30 -12t-12 -29t12 -29t30 -12h115q18 0 30 -12l36 -38q13 -13 13 -29v-70q0 -15 -13 -28l-37 -38q-11 -12 -29 -12h-120q-17 0 -29 12l-37 38 q-12 12 -12 28v13q0 17 -12.5 28.5t-29.5 11.5t-29 -11.5t-12 -28.5v-47q0 -15 12 -30l86 -84q11 -12 28 -12h190q17 0 28 12l87 84q11 14 11 30v139q0 18 -11 29l-21 20q-15 16 -15 36t15 36l21 20q11 11 11 29v139q0 16 -11 30l-87 84q-10 12 -28 12h-190q-17 0 -28 -12 l-86 -84q-12 -15 -12 -30v-46q0 -17 12 -29t29 -12t29.5 12t12.5 29z" glyph-name="three" unicode="3"/><glyph d="M549 673q16 -5 26.5 -18.5t10.5 -30.5v-618q0 -21 -15 -36t-36 -15q-17 0 -30.5 10.5t-18.5 26.5q-16 5 -26.5 18.5t-10.5 30.5v194v5q-1 1 -6 1h-184q-20 0 -35 15l-85 84q-2 0 -2 3l-33 32q-15 13 -15 38v246q0 21 15 36t36 15q17 0 30.5 -10.5t18.5 -26.5 q16 -5 26.5 -18.5t10.5 -30.5v-213q0 -11 10 -21l6 -7q8 -5 17 -5h149q17 0 29 12t12 29v240q0 21 15 36t36 15q17 0 30.5 -10.5t18.5 -26.5zM408 368h-149q-17 0 -29 12l-37 38q-12 12 -12 28v213q0 17 -12 29t-29 12t-29 -12t-12 -29v-246q0 -16 12 -31l85 -84 q10 -12 28 -12h184q21 0 36 -14.5t15 -36.5v-194q0 -17 12 -29t29 -12t29 12t12 29v618q0 17 -12 29t-29 12t-29 -12t-12 -29v-240q0 -21 -15 -36t-36 -15z" glyph-name="four" unicode="4"/><glyph d="M439 275l-7 7q-8 5 -17 5h-156q-20 0 -35 15l-85 84l-3 3l-32 32q-15 15 -15 38v200q0 21 15 36t36 15h360q17 0 30.5 -10.5t18.5 -26.5q16 -5 26.5 -18.5t10.5 -30.5q0 -21 -15 -36t-36 -15h-269q-17 0 -28.5 -12t-11.5 -29v-75q0 -11 10 -21l6 -7q8 -5 17 -5h155 q20 0 36 -15l87 -84q3 -3 4 -5l31 -30q14 -14 14 -38v-161q0 -24 -14 -38l-87 -84q-14 -14 -36 -14h-190q-20 0 -35 15l-85 84l-3 3l-32 32q-14 13 -16 44q0 8 0.5 21.5t0.5 18.5q0 21 15 35.5t36 14.5q17 0 30.5 -10.5t18.5 -26.5q37 -12 37 -48v-12q1 -2 1 -8q2 -8 9 -14 l6 -7q8 -5 17 -5h121q13 0 22 9l37 38q10 10 10 21v94q0 11 -10 21zM181 160v13q0 17 -12 28.5t-29 11.5t-29 -11.5t-12 -28.5v-47q0 -15 12 -30l85 -84q10 -12 28 -12h190q18 0 29 12l87 84q11 14 11 30v161q0 17 -11 31l-87 84q-10 12 -29 12h-155q-17 0 -29 12l-37 38 q-12 12 -12 28v75q0 21 14.5 36t35.5 15h269q17 0 29 12t12 29t-12 29t-29 12h-360q-17 0 -29 -12t-12 -29v-200q0 -17 12 -31l85 -84q10 -12 28 -12h156q18 0 29 -12l37 -38q13 -13 13 -28v-94q0 -15 -13 -28l-37 -38q-11 -12 -29 -12h-121q-17 0 -29 12l-37 38 q-12 12 -12 28z" glyph-name="five" unicode="5"/><glyph d="M226 223v-98q0 -11 10 -21l6 -7q8 -5 17 -5h121q13 0 22 9l37 38q10 10 10 21v70q0 11 -10 22l-7 7q-8 5 -17 5h-149q-17 0 -28.5 -12t-11.5 -29zM415 573h-121q-12 0 -21 -9l-37 -38q-10 -10 -10 -21v-98q0 -5 1 -6h4h183q22 0 37 -15l86 -85l2 -2t1 -2l32 -31 q14 -14 14 -36v-139q0 -24 -14 -38l-87 -84q-14 -14 -36 -14h-190q-20 0 -35 15l-85 84q-1 1 -2 3l-33 32q-15 15 -15 37v448q0 22 15 37l85 84q15 15 35 15h190q20 0 36 -15l87 -84q1 -1 2 -3t3 -3l30 -29q13 -13 15 -44q1 -9 0 -23.5t-1 -15.5q0 -21 -15 -36t-36 -15 q-17 0 -30.5 10.5t-18.5 26.5q-16 5 -26.5 18.5t-10.5 30.5q0 16 -1 19q-1 6 -9 14l-7 7q-8 5 -17 5zM181 160v98q0 21 14.5 36t35.5 15h149q18 0 30 -12l36 -38q13 -13 13 -29v-70q0 -15 -13 -28l-37 -38q-11 -12 -29 -12h-121q-17 0 -29 12l-37 38q-12 12 -12 28zM459 540 v-12q0 -17 12 -29t29 -12t29 12t12 29v46q0 16 -11 30l-87 84q-10 12 -29 12h-190q-18 0 -28 -12l-85 -84q-12 -15 -12 -30v-448q0 -15 12 -30l85 -84q10 -12 28 -12h190q18 0 29 12l87 84q11 14 11 30v139q0 18 -11 29l-86 85q-14 12 -30 12h-183q-21 0 -35.5 15t-14.5 36 v98q0 16 12 28l37 38q12 12 29 12h121q18 0 29 -12l37 -38q13 -13 13 -28z" glyph-name="six" unicode="6"/><glyph d="M449 567v5q-1 1 -6 1h-268q-17 0 -30.5 10.5t-18.5 26.5q-16 5 -26.5 18.5t-10.5 30.5q0 21 15 36t36 15h360q17 0 30.5 -10.5t18.5 -26.5q16 -5 26.5 -18.5t10.5 -30.5v-129q0 -23 -14 -37l-157 -156q-9 -10 -9 -21v-275q0 -21 -14.5 -36t-35.5 -15q-39 0 -50 37 q-37 12 -37 49v309q0 22 14 36l156 157q10 10 10 24zM361 41v275q0 16 12 28l157 156q11 11 11 30v129q0 17 -12 29t-29 12h-360q-17 0 -29 -12t-12 -29t12 -29t29 -12h268q21 0 36 -15t15 -36v-3q0 -15 -13 -28l-156 -157q-11 -11 -11 -29v-309q0 -17 12 -29t30 -12 q17 0 28.5 12t11.5 29z" glyph-name="seven" unicode="7"/><glyph d="M415 264h-121q-15 0 -22 -9l-37 -38q-9 -9 -9 -22v-70q0 -11 10 -21l6 -7q8 -5 17 -5h121q13 0 22 9l37 38q10 10 10 21v70q0 11 -10 22l-7 7q-8 5 -17 5zM415 573h-121q-12 0 -21 -9l-37 -38q-10 -10 -10 -21v-70q0 -12 10 -22l6 -7q8 -5 17 -5h121q14 0 23 9l37 38 q9 9 9 22v70q0 11 -10 21l-7 7q-8 5 -17 5zM450 -45h-191q-20 0 -35 15l-85 84q-1 1 -2 3l-33 32q-15 15 -15 37v139q0 15 9 29q2 2 4.5 5.5t3.5 4.5q2 1 5 3.5t4 4.5q20 20 20 38t-20 38q-1 2 -4 4.5t-5 3.5q-1 1 -3.5 4.5t-4.5 5.5q-9 14 -9 29v139q0 22 15 37l85 84 q15 15 35 15h191q20 0 35 -15l87 -84l3 -3l1 -2l31 -30q14 -12 14 -37v-139q0 -18 -9 -30q-1 -2 -3.5 -5.5t-4.5 -5.5q-2 -1 -9 -8q-21 -19 -21 -36q0 -18 21 -37q2 -1 9 -8q5 -5 8 -11q9 -12 9 -29v-139q0 -24 -14 -38l-87 -84q-17 -14 -35 -14zM410 297l36 -38 q13 -13 13 -29v-70q0 -15 -13 -28l-37 -38q-11 -12 -29 -12h-121q-17 0 -29 12l-37 38q-12 12 -12 28v70q0 18 11 29l37 38q12 12 30 12h121q18 0 30 -12zM409 606l37 -38q13 -13 13 -28v-70q0 -17 -12 -29l-37 -38q-12 -12 -30 -12h-121q-18 0 -30 12l-36 38q-12 12 -12 29 v70q0 16 12 28l37 38q12 12 29 12h121q18 0 29 -12zM224 0h191q17 0 28 12l87 84q11 14 11 30v139q0 18 -11 29l-21 20q-15 16 -15 36t15 36l21 20q11 11 11 29v139q0 16 -11 30l-87 84q-10 12 -28 12h-191q-18 0 -28 -12l-85 -84q-12 -15 -12 -30v-139q0 -17 12 -29l20 -20 q14 -16 14 -36t-14 -36l-20 -20q-12 -12 -12 -29v-139q0 -15 12 -30l85 -84q10 -12 28 -12z" glyph-name="eight" unicode="8"/><glyph d="M439 561l-7 7q-8 5 -17 5h-121q-12 0 -21 -9l-37 -38q-10 -10 -10 -21v-70q0 -12 10 -22l6 -7q8 -5 17 -5h149q17 0 29 12t12 29v98q0 11 -10 21zM449 258v5q-1 1 -6 1h-184q-21 0 -36 15l-32 32l-3 3l-84 85q-15 15 -15 36v139q0 22 15 37l85 84q15 15 35 15h191 q20 0 35 -15l87 -84l3 -3l1 -2l31 -30q14 -12 14 -37v-448q0 -24 -14 -38l-87 -84q-17 -14 -35 -14h-191q-20 0 -35 15l-85 84l-3 3l-32 32q-14 13 -16 44q0 8 0.5 21.5t0.5 18.5q0 21 15 35.5t36 14.5q17 0 30.5 -10.5t18.5 -26.5q37 -12 37 -48v-12q1 -2 1 -8q2 -8 9 -14 l6 -7q8 -5 17 -5h121q13 0 22 9l37 38q10 10 10 21v98zM459 540v-98q0 -21 -15 -36t-36 -15h-149q-18 0 -30 12l-36 38q-12 12 -12 29v70q0 16 12 28l37 38q12 12 29 12h121q18 0 29 -12l37 -38q13 -13 13 -28zM181 160v13q0 17 -12 28.5t-29 11.5t-29 -11.5t-12 -28.5v-47 q0 -15 12 -30l85 -84q10 -12 28 -12h191q17 0 28 12l87 84q11 14 11 30v448q0 16 -11 30l-87 84q-10 12 -28 12h-191q-18 0 -28 -12l-85 -84q-12 -15 -12 -30v-139q0 -17 12 -29l84 -85q13 -12 29 -12h184q21 0 36 -15t15 -36v-98q0 -15 -13 -28l-37 -38q-11 -12 -29 -12 h-121q-17 0 -29 12l-37 38q-12 12 -12 28z" glyph-name="nine" unicode="9"/><glyph d="M380 -45h-51q-36 0 -48 37q-17 4 -27 17.5t-10 31.5v50q0 21 14.5 36t35.5 15h51q17 0 30.5 -10.5t18.5 -26.5q16 -5 26.5 -18.5t10.5 -30.5v-50q0 -21 -15 -36t-36 -15zM380 300h-51q-36 0 -48 37q-17 4 -27 17.5t-10 31.5v50q0 21 14.5 36t35.5 15h51q17 0 30.5 -10.5 t18.5 -26.5q16 -5 26.5 -18.5t10.5 -30.5v-50q0 -21 -15 -36t-36 -15zM294 0h51q17 0 29 12t12 29v50q0 17 -12 29t-29 12h-51q-17 0 -28.5 -12t-11.5 -29v-50q0 -17 11.5 -29t28.5 -12zM294 345h51q17 0 29 12t12 29v50q0 17 -12 29t-29 12h-51q-17 0 -28.5 -12t-11.5 -29 v-50q0 -17 11.5 -29t28.5 -12z" glyph-name="colon" unicode=":"/><glyph d="M380 300h-51q-36 0 -48 37q-17 4 -27 17.5t-10 31.5v50q0 21 14.5 36t35.5 15h51q17 0 30.5 -10.5t18.5 -26.5q16 -5 26.5 -18.5t10.5 -30.5v-50q0 -21 -15 -36t-36 -15zM271 -36l19 19q-3 3 -4 9q-17 4 -27 17.5t-10 31.5v39q0 21 14.5 36.5t35.5 15.5h40 q17 0 30.5 -10.5t18.5 -26.5q37 -11 37 -50v-98q0 -23 -15 -38l-43 -42q-11 -11 -31 -11q-16 0 -27.5 10t-13.5 25q-16 2 -26 14t-10 28q0 19 12 31zM339 122h-40q-17 0 -28.5 -12.5t-11.5 -29.5v-39q0 -17 11.5 -29t28.5 -12h23l-44 -43q-9 -11 -9 -24q0 -14 9 -23t23 -9 q15 0 24 9l43 42q12 15 12 30v98q0 17 -12 29.5t-29 12.5zM294 345h51q17 0 29 12t12 29v50q0 17 -12 29t-29 12h-51q-17 0 -28.5 -12t-11.5 -29v-50q0 -17 11.5 -29t28.5 -12z" glyph-name="semicolon" unicode=";"/><glyph d="M521 542q0 -21 -14 -35l-165 -165q-14 -16 -14 -28q0 -14 12 -27l130 -129l3 -3l32 -32q14 -14 14 -36t-14 -37t-37 -15t-37 14l-33 33l-2 2l-227 228q-15 15 -15 37t15 37l228 229q14 14 35 14q18 0 32.5 -10.5t19.5 -27.5q16 -5 26.5 -18.5t10.5 -30.5zM404 608 l-228 -229q-12 -12 -12 -30q0 -19 12 -30l227 -228q11 -11 30 -11q18 0 29.5 12t11.5 30t-11 29l-162 161q-18 18 -18 37q0 20 17 35l165 165q11 11 11 28t-13.5 29.5t-30.5 12.5t-28 -11z" glyph-name="less" unicode="&lt;"/><glyph d="M505 259q37 -11 37 -48q0 -22 -13.5 -37t-36.5 -15h-274q-38 0 -49 37q-37 11 -37 50q0 21 15 35.5t36 14.5h274q17 0 30.5 -10.5t17.5 -26.5zM505 470q37 -11 37 -48q0 -22 -13.5 -37t-36.5 -15h-274q-38 0 -49 37q-37 11 -37 50q0 21 15 35.5t36 14.5h274 q17 0 30.5 -10.5t17.5 -26.5zM457 497h-274q-17 0 -29 -11.5t-12 -28.5q0 -18 12 -30t29 -12h274q17 0 28.5 12t11.5 30q0 17 -11.5 28.5t-28.5 11.5zM457 286h-274q-17 0 -29 -11.5t-12 -28.5q0 -18 12 -30t29 -12h274q17 0 28.5 12t11.5 30q0 17 -11.5 28.5t-28.5 11.5z " glyph-name="equal" unicode="="/><glyph d="M507 277l-228 -228q-14 -14 -37 -14q-38 0 -49 37q-37 11 -37 50q0 21 15 36l161 161q15 15 15 30q0 14 -14 28l-164 165q-15 15 -15 35q0 21 16.5 36.5t37.5 15.5t35 -14l35 -35l194 -194l35 -35q14 -14 14 -37t-14 -37zM465 379l-229 229q-11 11 -28 11t-30.5 -12.5 t-13.5 -29.5t12 -28l164 -165q17 -15 17 -35q0 -19 -18 -37l-161 -161q-12 -11 -12 -29t12 -30t29 -12q19 0 30 11l228 228q11 11 11 30q0 16 -11 30z" glyph-name="greater" unicode=">"/><glyph d="M375 -45h-41q-36 0 -48 37q-17 4 -27 17.5t-10 31.5v40q0 21 14.5 36t35.5 15h41q36 0 48 -37q37 -11 37 -49v-40q0 -21 -14.5 -36t-35.5 -15zM586 539v-66q0 -22 -14 -36l-157 -156q-9 -11 -9 -22v-50q0 -21 -14.5 -36t-35.5 -15q-39 0 -50 37q-37 12 -37 49v85 q0 22 14 36l156 156q10 10 10 22q0 8 -8 16l-8 8q-7 6 -18 6h-120q-12 0 -21 -9l-37 -38q-8 -8 -9 -14q0 -6 -1 -8v-11q0 -21 -15.5 -36t-36.5 -15q-17 0 -30.5 10.5t-18.5 26.5q-16 5 -26.5 18.5t-10.5 30.5v46q0 22 15 37l86 84q15 15 35 15h190q20 0 35 -15l86 -84l4 -4 l31 -31q15 -15 15 -37zM541 508v66q0 15 -12 30l-86 84q-10 12 -28 12h-190q-17 0 -28 -12l-86 -84q-12 -15 -12 -30v-46q0 -17 12 -29t29 -12t29.5 12t12.5 29v12q0 16 12 28l37 38q12 12 29 12h120q18 0 29 -12l39 -40q11 -9 11 -23q0 -16 -13 -29l-156 -156 q-11 -11 -11 -29v-85q0 -17 12 -29t30 -12q17 0 28.5 12t11.5 29v50q0 17 12 29l157 156q11 11 11 29zM299 0h41q17 0 28.5 12t11.5 29v40q0 17 -11.5 29t-28.5 12h-41q-17 0 -28.5 -12t-11.5 -29v-40q0 -17 11.5 -29t28.5 -12z" glyph-name="question" unicode="?"/><glyph d="M439 561l-7 7q-8 5 -17 5h-120q-11 0 -22 -9l-38 -38q-9 -10 -9 -21v-380q0 -12 9 -21l3 -3q9 -9 22 -9h148q36 0 48 -37q37 -11 37 -49q0 -21 -14.5 -36t-35.5 -15h-184q-20 0 -35 15l-85 84q-2 0 -2 3l-33 32q-15 13 -15 38v447q0 22 15 37l85 84q15 15 35 15h190 q20 0 36 -15l87 -84l3 -3l1 -2l31 -30q14 -12 14 -37v-353q0 -21 -15 -36t-36 -15h-114q-23 0 -38 15l-35 35l-30 30l-35 35q-14 14 -14 36v171q0 21 15 35.5t36 14.5q18 0 31.5 -10t17.5 -27q37 -12 37 -48v-137q0 -3 2 -11q6 -2 30 -2q11 0 11 10v258q0 11 -10 21z M391 274l-18 17q-12 12 -12 29v137q0 17 -12 28.5t-29 11.5t-29 -11.5t-12 -28.5v-171q0 -15 11 -29l65 -65q14 -12 31 -12h114q17 0 29 12t12 29v353q0 16 -11 30l-87 84q-10 12 -29 12h-190q-18 0 -28 -12l-85 -84q-12 -15 -12 -30v-447q0 -16 12 -31l85 -84 q10 -12 28 -12h184q17 0 28.5 12t11.5 29t-11.5 29t-28.5 12h-148q-17 0 -29 12l-38 38q-12 12 -12 28v380q0 16 12 28l38 38q12 12 29 12h120q18 0 29 -12l37 -38q13 -13 13 -28v-258q0 -20 -21 -20h-19q-16 0 -28 12z" glyph-name="at" unicode="@"/><glyph d="M586 518v-512q0 -21 -15 -36t-36 -15q-17 0 -30.5 10.5t-18.5 26.5q-16 5 -26.5 18.5t-10.5 30.5v199q-1 1 -6 1h-177q-17 0 -28.5 -12t-11.5 -29v-194q0 -21 -15 -36t-36 -15q-17 0 -30.5 10.5t-18.5 26.5q-16 5 -26.5 18.5t-10.5 30.5v512q0 23 15 36l106 106 q15 15 36 15h148q22 0 36 -14l31 -32q1 -1 4 -3l106 -108q15 -15 15 -35zM541 41v512q0 17 -12 28l-106 108q-14 11 -29 11h-148q-19 0 -29 -12l-106 -106q-12 -14 -12 -29v-512q0 -17 12 -29t29 -12t29 12t12 29v194q0 22 14.5 36.5t35.5 14.5h177q21 0 36 -14.5t15 -36.5 v-194q0 -17 12 -29t29 -12t29 12t12 29zM459 518v-99q0 -21 -15 -36t-36 -15h-177q-21 0 -35.5 15t-14.5 36v99q0 18 12 29l59 59q12 12 28 12h79q17 0 29 -12l58 -59q13 -13 13 -29zM439 540l-26 27q-10 6 -19 6h-79q-11 0 -21 -9l-59 -59q-9 -11 -9 -22v-99q0 -5 1 -6h181 q17 0 29 12t12 29v99q0 11 -10 22z" glyph-name="A" unicode="A"/><glyph d="M439 252l-7 7q-8 5 -17 5h-149q-17 0 -28.5 -12t-11.5 -29v-125q0 -5 1 -6h4h149q13 0 22 9l37 38q10 10 10 21v70q0 11 -10 22zM439 561l-7 7q-8 5 -17 5h-149q-17 0 -28.5 -12t-11.5 -29v-125q0 -5 1 -6h4h149q14 0 23 9l37 38q9 9 9 22v70q0 11 -10 21zM560 278 q2 -1 9 -8q5 -5 8 -11q9 -12 9 -29v-138q0 -25 -14 -39l-87 -84q-14 -14 -36 -14h-274q-17 0 -30.5 10.5t-18.5 26.5q-16 5 -26.5 18.5t-10.5 30.5v618q0 21 15 36t36 15h274q20 0 36 -15l87 -84l3 -3l1 -2l31 -30q14 -12 14 -37v-139q0 -18 -9 -30q-1 -2 -3.5 -5.5 t-4.5 -5.5q-2 -1 -9 -8q-21 -19 -21 -36q0 -18 21 -37zM446 132l-37 -38q-11 -12 -29 -12h-149q-21 0 -35.5 15t-14.5 36v125q0 21 14.5 36t35.5 15h149q18 0 30 -12l36 -38q13 -13 13 -29v-70q0 -15 -13 -28zM447 441l-37 -38q-12 -12 -30 -12h-149q-21 0 -35.5 15 t-14.5 36v125q0 21 14.5 36t35.5 15h149q18 0 29 -12l37 -38q13 -13 13 -28v-70q0 -17 -12 -29zM509 386l21 20q11 11 11 29v139q0 16 -11 30l-87 84q-10 12 -29 12h-274q-17 0 -29 -12t-12 -29v-618q0 -17 12 -29t29 -12h274q18 0 29 12l87 84q11 14 11 31v138q0 18 -11 29 l-21 20q-15 16 -15 36t15 36z" glyph-name="B" unicode="B"/><glyph d="M226 483v-336q0 -11 9 -22l24 -24q9 -9 21 -9h78q13 0 22 9l58 59q8 8 10 21v31q0 21 15 36.5t36 15.5q17 0 30.5 -10.5t18.5 -26.5q16 -5 26.5 -19t10.5 -31v-65q0 -20 -15 -35l-106 -108q-10 -14 -36 -14h-147q-23 0 -38 15l-139 141q-15 15 -15 36v406q0 21 15 36 l104 106q15 15 38 15h147q22 0 36 -14l31 -32q1 -1 4 -3l106 -108q15 -15 15 -35v-65q0 -21 -15 -36.5t-36 -15.5q-36 0 -48 37q-38 12 -38 50q0 1 0.5 15.5t-0.5 15.5q-2 13 -10 21l-26 27q-10 6 -19 6h-78q-11 0 -21 -9l-59 -59q-9 -11 -9 -22zM181 182v336q0 18 12 29 l59 59q12 12 28 12h78q17 0 29 -12l58 -59q13 -13 13 -29v-30q0 -17 12 -29.5t29 -12.5t29 12.5t12 29.5v65q0 17 -12 28l-106 108q-14 11 -29 11h-147q-18 0 -31 -12l-104 -106q-12 -12 -12 -29v-406q0 -17 12 -29l104 -106q13 -12 31 -12h147q15 0 29 11l106 108 q12 11 12 28v65q0 17 -12 29.5t-29 12.5t-29 -12.5t-12 -29.5v-30q0 -16 -13 -29l-58 -59q-12 -12 -29 -12h-78q-16 0 -28 12l-59 59q-12 11 -12 29z" glyph-name="C" unicode="C"/><glyph d="M439 540l-26 27q-10 6 -19 6h-128q-17 0 -28.5 -12t-11.5 -29v-434q0 -5 1 -6h4h128q13 0 22 9l58 59q10 11 10 22v336q0 11 -10 22zM586 518v-406q0 -20 -15 -35l-106 -108q-10 -14 -36 -14h-254q-17 0 -30.5 10.5t-18.5 26.5q-16 5 -26.5 18.5t-10.5 30.5v618 q0 21 15 36t36 15h254q22 0 36 -14l31 -32q1 -1 4 -3l106 -108q15 -15 15 -35zM446 153l-58 -59q-12 -12 -29 -12h-128q-21 0 -35.5 15t-14.5 36v434q0 21 14.5 36t35.5 15h128q17 0 29 -12l58 -59q13 -13 13 -29v-336q0 -16 -13 -29zM529 581l-106 108q-14 11 -29 11h-254 q-17 0 -29 -12t-12 -29v-618q0 -17 12 -29t29 -12h254q15 0 29 11l106 108q12 11 12 28v406q0 17 -12 28z" glyph-name="D" unicode="D"/><glyph d="M548 673q16 -5 26.5 -18.5t10.5 -30.5q0 -21 -15 -36t-36 -15h-268q-17 0 -28.5 -12t-11.5 -29v-125q0 -5 1 -6h203q38 0 50 -38q37 -12 37 -48q0 -21 -15.5 -36t-36.5 -15h-199q-17 0 -28.5 -12t-11.5 -29v-125q0 -5 1 -6h272q17 0 30.5 -10.5t18.5 -26.5 q16 -5 26.5 -18.5t10.5 -30.5q0 -21 -15 -36t-36 -15h-359q-17 0 -30.5 10.5t-18.5 26.5q-16 5 -26.5 18.5t-10.5 30.5v618q0 21 15 36t36 15h359q17 0 30.5 -10.5t18.5 -26.5zM99 659v-618q0 -17 12 -29t29 -12h359q17 0 29 12t12 29t-12 29t-29 12h-268q-21 0 -35.5 15 t-14.5 36v125q0 21 14.5 36t35.5 15h199q17 0 29.5 12t12.5 29t-12.5 29t-29.5 12h-199q-21 0 -35.5 15t-14.5 36v125q0 21 14.5 36t35.5 15h268q17 0 29 12t12 29t-12 29t-29 12h-359q-17 0 -29 -12t-12 -29z" glyph-name="E" unicode="E"/><glyph d="M548 673q16 -5 26.5 -18.5t10.5 -30.5q0 -21 -15 -36t-36 -15h-268q-17 0 -28.5 -12t-11.5 -29v-125q0 -5 1 -6h4h199q17 0 30.5 -10.5t18.5 -26.5q16 -5 26.5 -18.5t10.5 -30.5q0 -21 -15 -36t-36 -15h-199q-17 0 -28.5 -12t-11.5 -29v-217q0 -21 -15 -36t-36 -15 q-17 0 -30.5 10.5t-18.5 26.5q-16 5 -26.5 18.5t-10.5 30.5v618q0 21 15 36t36 15h359q17 0 30.5 -10.5t18.5 -26.5zM181 41v217q0 21 14.5 36t35.5 15h199q17 0 29 12t12 29t-12 29t-29 12h-199q-21 0 -35.5 15t-14.5 36v125q0 21 14.5 36t35.5 15h268q17 0 29 12t12 29 t-12 29t-29 12h-359q-17 0 -29 -12t-12 -29v-618q0 -17 12 -29t29 -12t29 12t12 29z" glyph-name="F" unicode="F"/><glyph d="M415 573h-120q-13 0 -22 -9l-37 -38q-10 -10 -10 -21v-380q0 -11 10 -21l5 -6q9 -6 19 -6h120q13 0 22 9l37 38q10 10 10 21v103q-1 1 -6 1h-61q-17 0 -31 10.5t-19 26.5q-16 5 -26.5 18.5t-10.5 30.5q0 21 15.5 36t36.5 15h153q17 0 30.5 -10.5t18.5 -26.5 q16 -5 26.5 -18.5t10.5 -30.5v-223q0 -25 -14 -39l-87 -84q-14 -14 -36 -14h-190q-20 0 -35 15l-85 84q-2 0 -2 3l-33 32q-15 13 -15 38v447q0 22 15 37l85 84q15 15 35 15h190q20 0 36 -15l87 -84l1 -1l3 -3q0 -1 0.5 -1t0.5 -1l30 -29q13 -13 15 -44q1 -9 0 -23.5 t-1 -15.5q0 -21 -15 -36t-36 -15q-17 0 -30.5 10.5t-18.5 26.5q-16 5 -26.5 18.5t-10.5 30.5v12q0 11 -10 21l-7 7q-8 5 -17 5zM459 540v-12q0 -17 12 -29t29 -12t29 12t12 29v46q0 16 -11 30l-87 84q-10 12 -29 12h-190q-18 0 -28 -12l-85 -84q-12 -15 -12 -30v-447 q0 -16 12 -31l85 -84q10 -12 28 -12h190q18 0 29 12l87 84q11 14 11 31v223q0 17 -12 29t-29 12h-153q-17 0 -29.5 -12t-12.5 -29t12.5 -29t29.5 -12h61q21 0 36 -14.5t15 -35.5v-99q0 -15 -13 -28l-37 -38q-11 -12 -29 -12h-120q-18 0 -30 12l-37 38q-12 12 -12 28v380 q0 16 12 28l37 38q12 12 30 12h120q18 0 29 -12l37 -38q13 -13 13 -28z" glyph-name="G" unicode="G"/><glyph d="M586 624v-618q0 -21 -15 -36t-36 -15q-38 0 -49 37q-37 12 -37 49v222q-1 1 -6 1h-177q-17 0 -28.5 -12t-11.5 -29v-217q0 -21 -15 -36t-36 -15q-17 0 -30.5 10.5t-18.5 26.5q-16 5 -26.5 18.5t-10.5 30.5v618q0 21 15 36t36 15q17 0 30.5 -10.5t18.5 -26.5 q16 -5 26.5 -18.5t10.5 -30.5v-217q0 -5 1 -6h181q17 0 29 12t12 29v217q0 21 15 36t36 15q17 0 30.5 -10.5t18.5 -26.5q16 -5 26.5 -18.5t10.5 -30.5zM541 41v618q0 17 -12 29t-29 12t-29 -12t-12 -29v-217q0 -21 -15 -36t-36 -15h-177q-21 0 -35.5 15t-14.5 36v217 q0 17 -12 29t-29 12t-29 -12t-12 -29v-618q0 -17 12 -29t29 -12t29 12t12 29v217q0 21 14.5 36t35.5 15h177q21 0 36 -15t15 -36v-217q0 -17 12 -29t29 -12t29 12t12 29z" glyph-name="H" unicode="H"/><glyph d="M489 -45h-268q-38 0 -49 37q-37 12 -37 49q0 21 15 36t36 15h42q17 0 29 12t12 29v439q-1 1 -6 1h-42q-17 0 -30.5 10.5t-18.5 26.5q-16 5 -26.5 18.5t-10.5 30.5q0 21 15 36t36 15h268q37 0 49 -37q37 -11 37 -49q0 -21 -15 -36t-36 -15h-42q-17 0 -29 -12t-12 -29v-434 q0 -5 1 -6h47q17 0 30.5 -10.5t18.5 -26.5q16 -5 26.5 -18.5t10.5 -30.5q0 -22 -14.5 -36.5t-36.5 -14.5zM186 0h268q17 0 29 12t12 29t-12 29t-29 12h-42q-22 0 -36.5 15t-14.5 36v434q0 21 14.5 36t36.5 15h42q17 0 29 12t12 29t-12 29t-29 12h-268q-17 0 -29 -12t-12 -29 t12 -29t29 -12h42q22 0 36.5 -15t14.5 -36v-434q0 -21 -14.5 -36t-36.5 -15h-42q-17 0 -29 -12t-12 -29t12 -29t29 -12z" glyph-name="I" unicode="I"/><glyph d="M449 567v5q-1 1 -6 1h-89q-17 0 -30.5 10.5t-18.5 26.5q-16 5 -26.5 18.5t-10.5 30.5q0 21 15 36t36 15h181q17 0 30.5 -10.5t18.5 -26.5q16 -5 26.5 -18.5t10.5 -30.5v-532q0 -25 -14 -39l-87 -84q-17 -14 -35 -14h-191q-20 0 -35 15l-85 84q-2 0 -2 3l-33 32 q-15 13 -15 38v85q0 21 15 36.5t36 15.5q17 0 30.5 -10.5t18.5 -26.5q16 -5 26.5 -19t10.5 -31v-52q0 -11 10 -21l6 -7q8 -5 17 -5h121q13 0 22 9l37 38q10 10 10 21v407zM459 567v-407q0 -15 -13 -28l-37 -38q-11 -12 -29 -12h-121q-17 0 -29 12l-37 38q-12 12 -12 28v52 q0 17 -12 29.5t-29 12.5t-29 -12.5t-12 -29.5v-85q0 -16 12 -31l85 -84q10 -12 28 -12h191q17 0 28 12l87 84q11 14 11 31v532q0 17 -12 29t-29 12h-181q-17 0 -29 -12t-12 -29t12 -29t29 -12h89q21 0 36 -15t15 -36z" glyph-name="J" unicode="J"/><glyph d="M314 264h-48q-17 0 -28.5 -12t-11.5 -29v-217q0 -21 -15 -36t-36 -15q-17 0 -30.5 10.5t-18.5 26.5q-16 5 -26.5 18.5t-10.5 30.5v618q0 21 15 36t36 15q17 0 30.5 -10.5t18.5 -26.5q16 -5 26.5 -18.5t10.5 -30.5v-217q0 -5 1 -6h52q12 0 21 9l139 138q10 10 10 21v90 q0 21 15 36t36 15q17 0 30.5 -10.5t18.5 -26.5q16 -5 26.5 -18.5t10.5 -30.5v-124q0 -24 -14 -38l-122 -119q-11 -11 -11 -28q0 -12 9 -25l89 -88q1 -1 3 -4l32 -31q14 -11 14 -37v-124q0 -21 -15 -36t-36 -15q-17 0 -30.5 10.5t-18.5 26.5q-16 5 -26.5 18.5t-10.5 30.5v90 q0 8 -7 18l-107 106q-9 9 -21 9zM231 309h48q16 0 28 -12l139 -138q13 -13 13 -28v-90q0 -17 12 -29t29 -12t29 12t12 29v124q0 16 -11 30l-122 120q-14 19 -14 35q0 17 14 36l122 119q11 14 11 30v124q0 17 -12 29t-29 12t-29 -12t-12 -29v-90q0 -15 -13 -28l-139 -138 q-12 -12 -28 -12h-48q-21 0 -35.5 15t-14.5 36v217q0 17 -12 29t-29 12t-29 -12t-12 -29v-618q0 -17 12 -29t29 -12t29 12t12 29v217q0 21 14.5 36t35.5 15z" glyph-name="K" unicode="K"/><glyph d="M534 -45h-359q-17 0 -30.5 10.5t-18.5 26.5q-16 5 -26.5 18.5t-10.5 30.5v618q0 21 15 36t36 15q17 0 30.5 -10.5t18.5 -26.5q16 -5 26.5 -18.5t10.5 -30.5v-526q0 -5 1 -6h272q17 0 30.5 -10.5t18.5 -26.5q16 -5 26.5 -18.5t10.5 -30.5q0 -21 -15 -36t-36 -15zM181 133 v526q0 17 -12 29t-29 12t-29 -12t-12 -29v-618q0 -17 12 -29t29 -12h359q17 0 29 12t12 29t-12 29t-29 12h-268q-21 0 -35.5 15t-14.5 36z" glyph-name="L" unicode="L"/><glyph d="M449 41v424l-34 -33q-9 -10 -9 -22v-95q0 -21 -14.5 -36t-35.5 -15q-39 0 -50 37q-37 12 -37 49v95q0 10 -6 19l-36 35h-1v-1v-492q0 -21 -15 -36t-36 -15q-17 0 -30.5 10.5t-18.5 26.5q-16 5 -26.5 18.5t-10.5 30.5v618q0 21 15 36t36 15q22 0 36 -14l33 -33l2 -2 l82 -83q13 -9 28 -9q16 0 28 12l114 115q14 14 37 14q17 0 30.5 -10.5t18.5 -26.5q16 -5 26.5 -18.5t10.5 -30.5v-618q0 -21 -15 -36t-36 -15q-17 0 -30.5 10.5t-18.5 26.5q-16 5 -26.5 18.5t-10.5 30.5zM459 533v-492q0 -17 12 -29t29 -12t29 12t12 29v618q0 17 -12 29 t-29 12q-16 0 -30 -11l-114 -115q-14 -15 -35 -15q-18 0 -37 14l-115 116q-14 11 -29 11q-17 0 -29 -12t-12 -29v-618q0 -17 12 -29t29 -12t29 12t12 29v492q0 13 9 13q6 0 9 -5l68 -67q12 -12 12 -29v-95q0 -17 12 -29t30 -12q17 0 28.5 12t11.5 29v95q0 17 12 29l67 67 q3 5 9 5q10 0 10 -13z" glyph-name="M" unicode="M"/><glyph d="M455 15l-229 393v-402q0 -21 -15 -36t-36 -15q-17 0 -30.5 10.5t-18.5 26.5q-16 5 -26.5 18.5t-10.5 30.5v618q0 21 15 36t36 15q30 0 45 -25l7 -13q19 -6 28 -22l229 -394v403q0 21 15 36t36 15q17 0 30.5 -10.5t18.5 -26.5q16 -5 26.5 -18.5t10.5 -30.5v-618 q0 -21 -15 -36t-36 -15q-30 0 -44 25l-8 13q-18 7 -28 22zM442 223l-266 457q-14 20 -36 20q-17 0 -29 -12t-12 -29v-618q0 -17 12 -29t29 -12t29 12t12 29v433q0 12 7 12q4 0 9 -8l267 -458q12 -20 36 -20q17 0 29 12t12 29v618q0 17 -12 29t-29 12t-29 -12t-12 -29v-432 q0 -12 -8 -12q-4 0 -9 8z" glyph-name="N" unicode="N"/><glyph d="M586 539v-448q0 -24 -14 -38l-87 -84q-14 -14 -36 -14h-190q-20 0 -35 15l-85 84q-1 1 -2 3l-33 32q-15 15 -15 37v448q0 22 15 37l85 84q15 15 35 15h190q20 0 36 -15l87 -84l3 -3l1 -2l31 -30q14 -12 14 -37zM530 604l-87 84q-10 12 -29 12h-190q-18 0 -28 -12l-85 -84 q-12 -15 -12 -30v-448q0 -15 12 -30l85 -84q10 -12 28 -12h190q18 0 29 12l87 84q11 14 11 30v448q0 16 -11 30zM446 132l-37 -38q-11 -12 -29 -12h-121q-17 0 -29 12l-37 38q-12 12 -12 28v380q0 16 12 28l37 38q12 12 29 12h121q18 0 29 -12l37 -38q13 -13 13 -28v-380 q0 -15 -13 -28zM439 561l-7 7q-8 5 -17 5h-121q-12 0 -21 -9l-37 -38q-10 -10 -10 -21v-380q0 -11 10 -21l6 -7q8 -5 17 -5h121q13 0 22 9l37 38q10 10 10 21v380q0 11 -10 21z" glyph-name="O" unicode="O"/><glyph d="M439 561l-7 7q-8 5 -17 5h-149q-17 0 -28.5 -12t-11.5 -29v-148q0 -5 1 -6h4h149q13 0 22 9l37 38q10 10 10 21v94q0 11 -10 21zM541 606l31 -30q14 -12 14 -37v-161q0 -25 -14 -39l-87 -84q-14 -14 -36 -14h-183q-17 0 -28.5 -12t-11.5 -29v-194q0 -21 -15 -36t-36 -15 q-17 0 -30.5 10.5t-18.5 26.5q-16 5 -26.5 18.5t-10.5 30.5v618q0 21 15 36t36 15h274q20 0 36 -15l87 -84l3 -3zM181 41v194q0 22 14.5 36.5t35.5 14.5h183q18 0 29 12l87 84q11 14 11 31v161q0 16 -11 30l-87 84q-10 12 -29 12h-274q-17 0 -29 -12t-12 -29v-618 q0 -17 12 -29t29 -12t29 12t12 29zM380 368h-149q-21 0 -35.5 15t-14.5 36v148q0 21 14.5 36t35.5 15h149q18 0 29 -12l37 -38q13 -13 13 -28v-94q0 -15 -13 -28l-37 -38q-11 -12 -29 -12z" glyph-name="P" unicode="P"/><glyph d="M439 561l-7 7q-8 5 -17 5h-121q-12 0 -21 -9l-37 -38q-10 -10 -10 -21v-380q0 -11 10 -21l6 -7q8 -5 17 -5h121q13 0 22 9l37 38q10 10 10 21v380q0 11 -10 21zM541 606l31 -30q14 -12 14 -37v-447q0 -18 -9 -30q-3 -6 -8 -11q-7 -7 -9 -8q-21 -19 -21 -37t21 -37l9 -9 q7 -7 8 -10q9 -12 9 -30q0 -21 -15 -35.5t-36 -14.5q-26 0 -37 14l-30 30l-5 5l-30 30q-7 6 -18 6h-155q-21 0 -36 15l-85 84q-2 0 -2 3l-33 32q-15 13 -15 38v447q0 22 15 37l85 84q15 15 36 15h190q20 0 35 -15l87 -84l3 -3zM446 132l-37 -38q-11 -12 -29 -12h-121 q-17 0 -29 12l-37 38q-12 12 -12 28v380q0 16 12 28l37 38q12 12 29 12h121q18 0 29 -12l37 -38q13 -13 13 -28v-380q0 -15 -13 -28zM225 0h155q18 0 30 -12l60 -62q14 -11 30 -11q17 0 29 11.5t12 28.5q0 19 -11 30l-21 19q-15 16 -15 37t15 37l21 19q11 14 11 30v447 q0 16 -11 30l-87 84q-10 12 -28 12h-190q-19 0 -29 -12l-85 -84q-12 -15 -12 -30v-447q0 -16 12 -31l85 -84q10 -12 29 -12z" glyph-name="Q" unicode="Q"/><glyph d="M439 540l-26 27q-10 6 -19 6h-128q-17 0 -28.5 -12t-11.5 -29v-148q0 -5 1 -6h4h128q13 0 22 9l58 59q10 10 10 22v50q0 11 -10 22zM394 241h-128q-17 0 -28.5 -12t-11.5 -29v-194q0 -21 -15 -36t-36 -15q-17 0 -30.5 10.5t-18.5 26.5q-16 5 -26.5 18.5t-10.5 30.5v618 q0 21 15 36t36 15h254q22 0 37 -15l35 -35l71 -71l35 -35q14 -14 14 -36v-120q0 -19 -12 -34q-4 -5 -12 -13q-2 -2 -6.5 -6t-6.5 -6q-31 -26 -31 -46q0 -8 6 -22l2 -2q10 -11 12 -13q1 -1 2 -3l2 -2l2 -2t2.5 -2t2.5 -2q3 -3 13 -11q8 -8 12 -13q12 -19 12 -35v-180 q0 -21 -15 -36t-36 -15q-17 0 -30.5 10.5t-18.5 26.5q-16 5 -26.5 18.5t-10.5 30.5v146q0 11 -10 21l-26 27q-10 6 -19 6zM446 439l-58 -59q-12 -12 -29 -12h-128q-21 0 -35.5 15t-14.5 36v148q0 21 14.5 36t35.5 15h128q17 0 29 -12l58 -59q13 -13 13 -29v-50 q0 -16 -13 -29zM231 286h128q17 0 29 -12l58 -59q13 -13 13 -28v-146q0 -17 12 -29t29 -12t29 12t12 29v180q0 16 -11 30l-43 40q-14 19 -14 37q0 20 15 35l41 41q12 14 12 29v120q0 18 -11 29l-106 106q-14 12 -30 12h-254q-17 0 -29 -12t-12 -29v-618q0 -17 12 -29t29 -12 t29 12t12 29v194q0 22 14.5 36.5t35.5 14.5z" glyph-name="R" unicode="R"/><glyph d="M415 573h-121q-12 0 -21 -9l-37 -38q-10 -10 -10 -21v-70q0 -12 10 -22l6 -7q8 -5 17 -5h156q21 0 36 -15l86 -85l2 -2t1 -2l32 -31q14 -14 14 -36v-139q0 -24 -14 -38l-87 -84q-17 -14 -35 -14h-191q-20 0 -35 15l-85 84l-3 3l-32 32q-14 13 -16 44q0 8 0.5 21.5 t0.5 18.5q0 21 15 35.5t36 14.5q17 0 30.5 -10.5t18.5 -26.5q37 -12 37 -48v-12q1 -2 1 -8q2 -8 9 -14l6 -7q8 -5 17 -5h121q13 0 22 9l37 38q10 10 10 21v70q0 11 -10 22l-7 7q-8 5 -17 5h-156q-21 0 -36 15l-32 32l-3 3l-84 85q-15 15 -15 36v139q0 22 15 37l85 84 q15 15 35 15h191q20 0 35 -15l87 -84q1 -1 2 -3t3 -3l30 -29q13 -12 15 -44q1 -9 0 -23.5t-1 -15.5q0 -21 -15 -36t-36 -15q-17 0 -30.5 10.5t-18.5 26.5q-16 5 -26.5 18.5t-10.5 30.5q0 16 -1 19q-1 6 -9 14l-7 7q-8 5 -17 5zM459 540v-12q0 -17 12 -29t29 -12t29 12t12 29 v46q0 16 -11 30l-87 84q-10 12 -28 12h-191q-18 0 -28 -12l-85 -84q-12 -15 -12 -30v-139q0 -17 12 -29l84 -85q13 -12 29 -12h156q18 0 30 -12l36 -38q13 -13 13 -29v-70q0 -15 -13 -28l-37 -38q-11 -12 -29 -12h-121q-17 0 -29 12l-37 38q-12 12 -12 28v13q0 17 -12 28.5 t-29 11.5t-29 -11.5t-12 -28.5v-47q0 -15 12 -30l85 -84q10 -12 28 -12h191q17 0 28 12l87 84q11 14 11 30v139q0 18 -11 29l-86 85q-14 12 -29 12h-156q-18 0 -30 12l-36 38q-12 12 -12 29v70q0 16 12 28l37 38q12 12 29 12h121q18 0 29 -12l37 -38q13 -13 13 -28z" glyph-name="S" unicode="S"/><glyph d="M269 567v5q-1 1 -6 1h-88q-17 0 -30.5 10.5t-18.5 26.5q-16 5 -26.5 18.5t-10.5 30.5q0 21 15 36t36 15h360q17 0 30.5 -10.5t18.5 -26.5q16 -5 26.5 -18.5t10.5 -30.5q0 -21 -15 -36t-36 -15h-88q-17 0 -29 -12t-12 -29v-526q0 -22 -14.5 -36.5t-36.5 -14.5 q-38 0 -49 37q-37 12 -37 49v526zM361 41v526q0 21 14.5 36t36.5 15h88q17 0 29 12t12 29t-12 29t-29 12h-360q-17 0 -29 -12t-12 -29t12 -29t29 -12h88q22 0 36.5 -15t14.5 -36v-526q0 -17 12 -29t29 -12t29 12t12 29z" glyph-name="T" unicode="T"/><glyph d="M549 673q16 -5 26.5 -18.5t10.5 -30.5v-533q0 -24 -14 -38l-87 -84q-14 -14 -36 -14h-190q-20 0 -35 15l-85 84q-1 1 -2 3l-33 32q-15 15 -15 37v533q0 21 15 36t36 15q17 0 30.5 -10.5t18.5 -26.5q16 -5 26.5 -18.5t10.5 -30.5v-499q0 -11 10 -21l6 -7q8 -5 17 -5h121 q13 0 22 9l37 38q10 10 10 21v499q0 21 15 36t36 15q17 0 30.5 -10.5t18.5 -26.5zM181 160v499q0 17 -12 29t-29 12t-29 -12t-12 -29v-533q0 -15 12 -30l85 -84q10 -12 28 -12h190q18 0 29 12l87 84q11 14 11 30v533q0 17 -12 29t-29 12t-29 -12t-12 -29v-499q0 -15 -13 -28 l-37 -38q-11 -12 -29 -12h-121q-17 0 -29 12l-37 38q-12 12 -12 28z" glyph-name="U" unicode="U"/><glyph d="M586 624v-457q0 -25 -15 -38l-161 -160q-13 -13 -39 -15q-7 -1 -20 0t-16 1q-22 0 -36 14l-194 195q-16 16 -16 38v457q0 21 15 36t36 15q17 0 30.5 -10.5t18.5 -26.5q16 -5 26.5 -18.5t10.5 -30.5v-423q0 -11 9 -21l58 -59q12 -9 28 -9q15 0 28 12l91 91q9 9 9 21v423 q0 21 15 36t36 15q17 0 30.5 -10.5t18.5 -26.5q16 -5 26.5 -18.5t10.5 -30.5zM459 659v-423q0 -16 -12 -28l-91 -91q-15 -15 -35 -15q-23 0 -38 15l-90 91q-12 12 -12 28v423q0 17 -12 29t-29 12t-29 -12t-12 -29v-457q0 -13 13 -31l159 -160q11 -11 29 -11h39q18 0 29 11 l161 160q12 15 12 31v457q0 17 -12 29t-29 12t-29 -12t-12 -29z" glyph-name="V" unicode="V"/><glyph d="M586 624v-528q0 -22 -14 -36l-91 -91q-14 -14 -36 -14q-23 0 -37 14l-29 30l-2 1l-4 4l-18 18l-53 -53q-14 -14 -38 -14q-22 0 -36 14l-30 30l-5 5l-89 91q-15 15 -15 36v528q0 21 15 36t36 15q17 0 30.5 -10.5t18.5 -26.5q16 -5 26.5 -18.5t10.5 -30.5v-494h3 q16 0 28 10.5t12 24.5v185q0 21 15.5 36t36.5 15q36 0 48 -37q37 -11 37 -49v-185h4q15 0 27 10.5t12 24.5v494q0 21 15 36t36 15q17 0 30.5 -10.5t18.5 -26.5q16 -5 26.5 -18.5t10.5 -30.5zM459 659v-494q0 -18 -15 -31.5t-34 -13.5q-18 0 -33.5 13.5t-15.5 31.5v185 q0 17 -11.5 29t-28.5 12q-18 0 -30 -12t-12 -29v-185q0 -19 -15 -32t-35 -13q-18 0 -33 13.5t-15 31.5v494q0 17 -12 29t-29 12t-29 -12t-12 -29v-528q0 -17 12 -29l89 -91q11 -11 29 -11q20 0 31 11l61 62l59 -62q14 -11 30 -11q18 0 29 11l91 91q11 11 11 29v528 q0 17 -12 29t-29 12t-29 -12t-12 -29z" glyph-name="W" unicode="W"/><glyph d="M586 624v-149q0 -21 -15 -35l-96 -96q-12 -12 -12 -29q0 -15 13 -28l95 -97q15 -15 15 -35v-149q0 -21 -15 -36t-36 -15q-17 0 -30.5 10.5t-18.5 26.5q-16 5 -26.5 18.5t-10.5 30.5v114q0 12 -10 22l-55 55q-13 13 -30 13q-15 0 -29 -13l-90 -90q-9 -10 -9 -22v-114 q0 -21 -15 -36t-36 -15q-17 0 -30.5 10.5t-18.5 26.5q-16 5 -26.5 18.5t-10.5 30.5v149q0 19 16 35l94 97q12 14 12 28q0 16 -13 29l-93 96q-16 16 -16 35v149q0 21 15 36t36 15q17 0 30.5 -10.5t18.5 -26.5q16 -5 26.5 -18.5t10.5 -30.5v-114q0 -15 10 -22l58 -60 q14 -8 25 -8q15 0 30 11l91 92q9 9 9 22v114q0 21 15 36t36 15q17 0 30.5 -10.5t18.5 -26.5q16 -5 26.5 -18.5t10.5 -30.5zM459 659v-114q0 -17 -12 -29l-91 -92q-19 -14 -37 -14q-17 0 -36 14l-90 92q-12 12 -12 29v114q0 17 -12 29t-29 12t-29 -12t-12 -29v-149 q0 -18 13 -28l93 -96q16 -16 16 -36t-15 -35l-94 -97q-13 -10 -13 -28v-149q0 -17 12 -29t29 -12t29 12t12 29v114q0 17 12 29l90 90q13 16 36 16q24 0 37 -16l90 -90q13 -13 13 -29v-114q0 -17 12 -29t29 -12t29 12t12 29v149q0 18 -12 28l-95 97q-16 13 -16 35q0 20 15 36 l96 96q12 10 12 28v149q0 17 -12 29t-29 12t-29 -12t-12 -29z" glyph-name="X" unicode="X"/><glyph d="M189 673q16 -5 26.5 -18.5t10.5 -30.5v-137q0 -12 9 -21l56 -56q12 -12 29 -12t29 12l91 91q9 9 9 21v137q0 21 15 36t36 15q17 0 30.5 -10.5t18.5 -26.5q16 -5 26.5 -18.5t10.5 -30.5v-171q0 -23 -15 -37l-156 -156q-9 -10 -9 -21v-233q0 -22 -14.5 -36.5t-36.5 -14.5 q-38 0 -49 37q-37 12 -37 49v233q0 12 -9 21l-155 156q-16 16 -16 37v171q0 21 15 36t36 15q17 0 30.5 -10.5t18.5 -26.5zM112 458l155 -156q12 -12 12 -28v-233q0 -17 12 -29t29 -12t29 12t12 29v233q0 16 12 28l156 156q12 14 12 30v171q0 17 -12 29t-29 12t-29 -12 t-12 -29v-137q0 -16 -12 -28l-91 -91q-15 -15 -36 -15t-36 15l-91 91q-12 12 -12 28v137q0 17 -12 29t-29 12t-29 -12t-12 -29v-171q0 -15 13 -30z" glyph-name="Y" unicode="Y"/><glyph d="M443 573h-268q-17 0 -30.5 10.5t-18.5 26.5q-16 5 -26.5 18.5t-10.5 30.5q0 21 15 36t36 15h360q17 0 30.5 -10.5t18.5 -26.5q16 -5 26.5 -18.5t10.5 -30.5v-129q0 -23 -14 -37l-336 -336q-9 -10 -9 -24q0 -5 1 -6h4h268q17 0 30.5 -10.5t18.5 -26.5q16 -5 26.5 -18.5 t10.5 -30.5q0 -21 -15 -36t-36 -15h-360q-17 0 -30.5 10.5t-18.5 26.5q-16 5 -26.5 18.5t-10.5 30.5v129q0 22 15 37l335 336q10 10 10 24v5q-1 1 -6 1zM446 536l-335 -336q-12 -12 -12 -30v-129q0 -17 12 -29t29 -12h360q17 0 29 12t12 29t-12 29t-29 12h-268 q-21 0 -35.5 15t-14.5 36v3q0 16 12 28l336 336q11 11 11 30v129q0 17 -12 29t-29 12h-360q-17 0 -29 -12t-12 -29t12 -29t29 -12h268q21 0 36 -15t15 -36v-3q0 -15 -13 -28z" glyph-name="Z" unicode="Z"/><glyph d="M431 -92h-152q-17 0 -30.5 10.5t-18.5 26.5q-16 5 -26.5 18.5t-10.5 30.5v711q0 21 15 36t36 15h152q36 0 48 -37q37 -11 37 -49q0 -21 -14.5 -36t-35.5 -15h-60q-17 0 -29 -11.5t-12 -28.5v-529q0 -4 1 -5h5h60q36 0 48 -37q37 -11 37 -49q0 -21 -14.5 -36t-35.5 -15z M244 -47h152q17 0 28.5 12t11.5 29t-11.5 29t-28.5 12h-60q-22 0 -36.5 14.5t-14.5 35.5v529q0 21 14.5 35.5t36.5 14.5h60q17 0 28.5 12t11.5 29t-11.5 29t-28.5 12h-152q-17 0 -29 -12t-12 -29v-711q0 -17 12 -29t29 -12z" glyph-name="bracketleft" unicode="["/><glyph d="M586 135v-129q0 -21 -15 -36t-36 -15q-17 0 -30.5 10.5t-18.5 26.5q-16 5 -26.5 18.5t-10.5 30.5v95q0 11 -10 21l-334 336q-16 16 -16 37v129q0 21 15 36t36 15q17 0 30.5 -10.5t18.5 -26.5q16 -5 26.5 -18.5t10.5 -30.5v-95q0 -12 9 -21l301 -301l35 -35q15 -15 15 -37 zM181 564v95q0 17 -12 29t-29 12t-29 -12t-12 -29v-129q0 -15 13 -30l334 -336q13 -13 13 -28v-95q0 -17 12 -29t29 -12t29 12t12 29v129q0 16 -12 30l-336 336q-12 12 -12 28z" glyph-name="backslash" unicode="\"/><glyph d="M431 -92h-152q-17 0 -30.5 10.5t-18.5 26.5q-16 5 -26.5 18.5t-10.5 30.5q0 21 15 36t36 15h59q17 0 29 11.5t12 28.5v529v4q-1 1 -6 1h-59q-17 0 -30.5 10.5t-18.5 26.5q-16 5 -26.5 18.5t-10.5 30.5q0 21 15 36t36 15h152q36 0 48 -37q37 -11 37 -49v-711 q0 -21 -14.5 -36t-35.5 -15zM244 -47h152q17 0 28.5 12t11.5 29v711q0 17 -11.5 29t-28.5 12h-152q-17 0 -29 -12t-12 -29t12 -29t29 -12h59q22 0 36.5 -14.5t14.5 -35.5v-529q0 -21 -14.5 -35.5t-36.5 -14.5h-59q-17 0 -29 -12t-12 -29t12 -29t29 -12z" glyph-name="bracketright" unicode="]"/><glyph d="M356 696l35 -35l112 -112l35 -35q14 -14 14 -38q0 -23 -15 -36.5t-37 -13.5q-21 0 -35 14l-35 35l-47 47q-13 13 -28 13q-13 0 -29 -13l-82 -82q-12 -14 -34 -14q-18 0 -32 10t-19 27q-37 12 -37 48q0 24 14 38l147 147q14 14 37 14q22 0 36 -14zM320 700q-16 0 -30 -11 l-147 -147q-11 -11 -11 -31q0 -17 12 -28.5t31 -11.5q14 0 27 11l82 82q15 16 36 16q20 0 35 -16l82 -82q13 -11 28 -11q18 0 30 11.5t12 28.5q0 20 -11 31l-147 147q-11 11 -29 11z" glyph-name="asciicircum" unicode="^"/><glyph d="M549 8q16 -5 26.5 -18.5t10.5 -30.5q0 -21 -15 -36t-36 -15h-360q-17 0 -30.5 10.5t-18.5 26.5q-16 5 -26.5 18.5t-10.5 30.5q0 20 15.5 35.5t35.5 15.5h360q17 0 30.5 -10.5t18.5 -26.5zM500 35h-360q-17 0 -29 -12t-12 -29t12 -29t29 -12h360q17 0 29 12t12 29t-12 29 t-29 12z" glyph-name="underscore" unicode="_"/><glyph d="M314 982l35 -35l48 -48l35 -35q15 -15 15 -37q0 -21 -15.5 -35.5t-36.5 -14.5q-22 0 -36 14l-35 35l-48 48l-35 35q-15 15 -15 36t15 36t36 15q23 0 37 -14zM248 916l83 -83q11 -11 29 -11q17 0 29.5 11.5t12.5 28.5q0 16 -12 30l-83 83q-14 11 -30 11q-17 0 -29 -12 t-12 -29q0 -19 12 -29z" glyph-name="grave" unicode="`"/><glyph d="M586 518v-512q0 -21 -15 -36t-36 -15q-17 0 -30.5 10.5t-18.5 26.5q-16 5 -26.5 18.5t-10.5 30.5v199q-1 1 -6 1h-177q-17 0 -28.5 -12t-11.5 -29v-194q0 -21 -15 -36t-36 -15q-17 0 -30.5 10.5t-18.5 26.5q-16 5 -26.5 18.5t-10.5 30.5v512q0 23 15 36l106 106 q15 15 36 15h148q22 0 36 -14l31 -32q1 -1 4 -3l106 -108q15 -15 15 -35zM541 41v512q0 17 -12 28l-106 108q-14 11 -29 11h-148q-19 0 -29 -12l-106 -106q-12 -14 -12 -29v-512q0 -17 12 -29t29 -12t29 12t12 29v194q0 22 14.5 36.5t35.5 14.5h177q21 0 36 -14.5t15 -36.5 v-194q0 -17 12 -29t29 -12t29 12t12 29zM459 518v-99q0 -21 -15 -36t-36 -15h-177q-21 0 -35.5 15t-14.5 36v99q0 18 12 29l59 59q12 12 28 12h79q17 0 29 -12l58 -59q13 -13 13 -29zM439 540l-26 27q-10 6 -19 6h-79q-11 0 -21 -9l-59 -59q-9 -11 -9 -22v-99q0 -5 1 -6h181 q17 0 29 12t12 29v99q0 11 -10 22z" glyph-name="a" unicode="a"/><glyph d="M439 252l-7 7q-8 5 -17 5h-149q-17 0 -28.5 -12t-11.5 -29v-125q0 -5 1 -6h4h149q13 0 22 9l37 38q10 10 10 21v70q0 11 -10 22zM439 561l-7 7q-8 5 -17 5h-149q-17 0 -28.5 -12t-11.5 -29v-125q0 -5 1 -6h4h149q14 0 23 9l37 38q9 9 9 22v70q0 11 -10 21zM560 278 q2 -1 9 -8q5 -5 8 -11q9 -12 9 -29v-138q0 -25 -14 -39l-87 -84q-14 -14 -36 -14h-274q-17 0 -30.5 10.5t-18.5 26.5q-16 5 -26.5 18.5t-10.5 30.5v618q0 21 15 36t36 15h274q20 0 36 -15l87 -84l3 -3l1 -2l31 -30q14 -12 14 -37v-139q0 -18 -9 -30q-1 -2 -3.5 -5.5 t-4.5 -5.5q-2 -1 -9 -8q-21 -19 -21 -36q0 -18 21 -37zM446 132l-37 -38q-11 -12 -29 -12h-149q-21 0 -35.5 15t-14.5 36v125q0 21 14.5 36t35.5 15h149q18 0 30 -12l36 -38q13 -13 13 -29v-70q0 -15 -13 -28zM447 441l-37 -38q-12 -12 -30 -12h-149q-21 0 -35.5 15 t-14.5 36v125q0 21 14.5 36t35.5 15h149q18 0 29 -12l37 -38q13 -13 13 -28v-70q0 -17 -12 -29zM509 386l21 20q11 11 11 29v139q0 16 -11 30l-87 84q-10 12 -29 12h-274q-17 0 -29 -12t-12 -29v-618q0 -17 12 -29t29 -12h274q18 0 29 12l87 84q11 14 11 31v138q0 18 -11 29 l-21 20q-15 16 -15 36t15 36z" glyph-name="b" unicode="b"/><glyph d="M226 483v-336q0 -11 9 -22l24 -24q9 -9 21 -9h78q13 0 22 9l58 59q8 8 10 21v31q0 21 15 36.5t36 15.5q17 0 30.5 -10.5t18.5 -26.5q16 -5 26.5 -19t10.5 -31v-65q0 -20 -15 -35l-106 -108q-10 -14 -36 -14h-147q-23 0 -38 15l-139 141q-15 15 -15 36v406q0 21 15 36 l104 106q15 15 38 15h147q22 0 36 -14l31 -32q1 -1 4 -3l106 -108q15 -15 15 -35v-65q0 -21 -15 -36.5t-36 -15.5q-36 0 -48 37q-38 12 -38 50q0 1 0.5 15.5t-0.5 15.5q-2 13 -10 21l-26 27q-10 6 -19 6h-78q-11 0 -21 -9l-59 -59q-9 -11 -9 -22zM181 182v336q0 18 12 29 l59 59q12 12 28 12h78q17 0 29 -12l58 -59q13 -13 13 -29v-30q0 -17 12 -29.5t29 -12.5t29 12.5t12 29.5v65q0 17 -12 28l-106 108q-14 11 -29 11h-147q-18 0 -31 -12l-104 -106q-12 -12 -12 -29v-406q0 -17 12 -29l104 -106q13 -12 31 -12h147q15 0 29 11l106 108 q12 11 12 28v65q0 17 -12 29.5t-29 12.5t-29 -12.5t-12 -29.5v-30q0 -16 -13 -29l-58 -59q-12 -12 -29 -12h-78q-16 0 -28 12l-59 59q-12 11 -12 29z" glyph-name="c" unicode="c"/><glyph d="M439 540l-26 27q-10 6 -19 6h-128q-17 0 -28.5 -12t-11.5 -29v-434q0 -5 1 -6h4h128q13 0 22 9l58 59q10 11 10 22v336q0 11 -10 22zM586 518v-406q0 -20 -15 -35l-106 -108q-10 -14 -36 -14h-254q-17 0 -30.5 10.5t-18.5 26.5q-16 5 -26.5 18.5t-10.5 30.5v618 q0 21 15 36t36 15h254q22 0 36 -14l31 -32q1 -1 4 -3l106 -108q15 -15 15 -35zM446 153l-58 -59q-12 -12 -29 -12h-128q-21 0 -35.5 15t-14.5 36v434q0 21 14.5 36t35.5 15h128q17 0 29 -12l58 -59q13 -13 13 -29v-336q0 -16 -13 -29zM529 581l-106 108q-14 11 -29 11h-254 q-17 0 -29 -12t-12 -29v-618q0 -17 12 -29t29 -12h254q15 0 29 11l106 108q12 11 12 28v406q0 17 -12 28z" glyph-name="d" unicode="d"/><glyph d="M548 673q16 -5 26.5 -18.5t10.5 -30.5q0 -21 -15 -36t-36 -15h-268q-17 0 -28.5 -12t-11.5 -29v-125q0 -5 1 -6h203q38 0 50 -38q37 -12 37 -48q0 -21 -15.5 -36t-36.5 -15h-199q-17 0 -28.5 -12t-11.5 -29v-125q0 -5 1 -6h272q17 0 30.5 -10.5t18.5 -26.5 q16 -5 26.5 -18.5t10.5 -30.5q0 -21 -15 -36t-36 -15h-359q-17 0 -30.5 10.5t-18.5 26.5q-16 5 -26.5 18.5t-10.5 30.5v618q0 21 15 36t36 15h359q17 0 30.5 -10.5t18.5 -26.5zM99 659v-618q0 -17 12 -29t29 -12h359q17 0 29 12t12 29t-12 29t-29 12h-268q-21 0 -35.5 15 t-14.5 36v125q0 21 14.5 36t35.5 15h199q17 0 29.5 12t12.5 29t-12.5 29t-29.5 12h-199q-21 0 -35.5 15t-14.5 36v125q0 21 14.5 36t35.5 15h268q17 0 29 12t12 29t-12 29t-29 12h-359q-17 0 -29 -12t-12 -29z" glyph-name="e" unicode="e"/><glyph d="M548 673q16 -5 26.5 -18.5t10.5 -30.5q0 -21 -15 -36t-36 -15h-268q-17 0 -28.5 -12t-11.5 -29v-125q0 -5 1 -6h4h199q17 0 30.5 -10.5t18.5 -26.5q16 -5 26.5 -18.5t10.5 -30.5q0 -21 -15 -36t-36 -15h-199q-17 0 -28.5 -12t-11.5 -29v-217q0 -21 -15 -36t-36 -15 q-17 0 -30.5 10.5t-18.5 26.5q-16 5 -26.5 18.5t-10.5 30.5v618q0 21 15 36t36 15h359q17 0 30.5 -10.5t18.5 -26.5zM181 41v217q0 21 14.5 36t35.5 15h199q17 0 29 12t12 29t-12 29t-29 12h-199q-21 0 -35.5 15t-14.5 36v125q0 21 14.5 36t35.5 15h268q17 0 29 12t12 29 t-12 29t-29 12h-359q-17 0 -29 -12t-12 -29v-618q0 -17 12 -29t29 -12t29 12t12 29z" glyph-name="f" unicode="f"/><glyph d="M415 573h-120q-13 0 -22 -9l-37 -38q-10 -10 -10 -21v-380q0 -11 10 -21l5 -6q9 -6 19 -6h120q13 0 22 9l37 38q10 10 10 21v103q-1 1 -6 1h-61q-17 0 -31 10.5t-19 26.5q-16 5 -26.5 18.5t-10.5 30.5q0 21 15.5 36t36.5 15h153q17 0 30.5 -10.5t18.5 -26.5 q16 -5 26.5 -18.5t10.5 -30.5v-223q0 -25 -14 -39l-87 -84q-14 -14 -36 -14h-190q-20 0 -35 15l-85 84q-2 0 -2 3l-33 32q-15 13 -15 38v447q0 22 15 37l85 84q15 15 35 15h190q20 0 36 -15l87 -84l1 -1l3 -3q0 -1 0.5 -1t0.5 -1l30 -29q13 -13 15 -44q1 -9 0 -23.5 t-1 -15.5q0 -21 -15 -36t-36 -15q-17 0 -30.5 10.5t-18.5 26.5q-16 5 -26.5 18.5t-10.5 30.5v12q0 11 -10 21l-7 7q-8 5 -17 5zM459 540v-12q0 -17 12 -29t29 -12t29 12t12 29v46q0 16 -11 30l-87 84q-10 12 -29 12h-190q-18 0 -28 -12l-85 -84q-12 -15 -12 -30v-447 q0 -16 12 -31l85 -84q10 -12 28 -12h190q18 0 29 12l87 84q11 14 11 31v223q0 17 -12 29t-29 12h-153q-17 0 -29.5 -12t-12.5 -29t12.5 -29t29.5 -12h61q21 0 36 -14.5t15 -35.5v-99q0 -15 -13 -28l-37 -38q-11 -12 -29 -12h-120q-18 0 -30 12l-37 38q-12 12 -12 28v380 q0 16 12 28l37 38q12 12 30 12h120q18 0 29 -12l37 -38q13 -13 13 -28z" glyph-name="g" unicode="g"/><glyph d="M586 624v-618q0 -21 -15 -36t-36 -15q-38 0 -49 37q-37 12 -37 49v217v5q-1 1 -6 1h-177q-17 0 -28.5 -12t-11.5 -29v-217q0 -21 -15 -36t-36 -15q-17 0 -30.5 10.5t-18.5 26.5q-16 5 -26.5 18.5t-10.5 30.5v618q0 21 15 36t36 15q17 0 30.5 -10.5t18.5 -26.5 q16 -5 26.5 -18.5t10.5 -30.5v-217q0 -5 1 -6h4h177q17 0 29 12t12 29v217q0 21 15 36t36 15q17 0 30.5 -10.5t18.5 -26.5q16 -5 26.5 -18.5t10.5 -30.5zM541 41v618q0 17 -12 29t-29 12t-29 -12t-12 -29v-217q0 -21 -15 -36t-36 -15h-177q-21 0 -35.5 15t-14.5 36v217 q0 17 -12 29t-29 12t-29 -12t-12 -29v-618q0 -17 12 -29t29 -12t29 12t12 29v217q0 21 14.5 36t35.5 15h177q21 0 36 -15t15 -36v-217q0 -17 12 -29t29 -12t29 12t12 29z" glyph-name="h" unicode="h"/><glyph d="M489 -45h-268q-38 0 -49 37q-37 12 -37 49q0 21 15 36t36 15h42q17 0 29 12t12 29v434v5q-1 1 -6 1h-42q-17 0 -30.5 10.5t-18.5 26.5q-16 5 -26.5 18.5t-10.5 30.5q0 21 15 36t36 15h268q37 0 49 -37q37 -11 37 -49q0 -21 -15 -36t-36 -15h-42q-17 0 -29 -12t-12 -29 v-434q0 -5 1 -6h5h42q17 0 30.5 -10.5t18.5 -26.5q16 -5 26.5 -18.5t10.5 -30.5q0 -22 -14.5 -36.5t-36.5 -14.5zM186 0h268q17 0 29 12t12 29t-12 29t-29 12h-42q-22 0 -36.5 15t-14.5 36v434q0 21 14.5 36t36.5 15h42q17 0 29 12t12 29t-12 29t-29 12h-268q-17 0 -29 -12 t-12 -29t12 -29t29 -12h42q22 0 36.5 -15t14.5 -36v-434q0 -21 -14.5 -36t-36.5 -15h-42q-17 0 -29 -12t-12 -29t12 -29t29 -12z" glyph-name="i" unicode="i"/><glyph d="M449 567v5q-1 1 -6 1h-89q-17 0 -30.5 10.5t-18.5 26.5q-16 5 -26.5 18.5t-10.5 30.5q0 21 15 36t36 15h181q17 0 30.5 -10.5t18.5 -26.5q16 -5 26.5 -18.5t10.5 -30.5v-532q0 -25 -14 -39l-87 -84q-17 -14 -35 -14h-191q-20 0 -35 15l-85 84q-2 0 -2 3l-33 32 q-15 13 -15 38v85q0 21 15 36.5t36 15.5q17 0 30.5 -10.5t18.5 -26.5q16 -5 26.5 -19t10.5 -31v-52q0 -11 10 -21l6 -7q8 -5 17 -5h121q13 0 22 9l37 38q10 10 10 21v407zM459 567v-407q0 -15 -13 -28l-37 -38q-11 -12 -29 -12h-121q-17 0 -29 12l-37 38q-12 12 -12 28v52 q0 17 -12 29.5t-29 12.5t-29 -12.5t-12 -29.5v-85q0 -16 12 -31l85 -84q10 -12 28 -12h191q17 0 28 12l87 84q11 14 11 31v532q0 17 -12 29t-29 12h-181q-17 0 -29 -12t-12 -29t12 -29t29 -12h89q21 0 36 -15t15 -36z" glyph-name="j" unicode="j"/><glyph d="M314 264h-48q-17 0 -28.5 -12t-11.5 -29v-217q0 -21 -15 -36t-36 -15q-17 0 -30.5 10.5t-18.5 26.5q-16 5 -26.5 18.5t-10.5 30.5v618q0 21 15 36t36 15q17 0 30.5 -10.5t18.5 -26.5q16 -5 26.5 -18.5t10.5 -30.5v-217q0 -5 1 -6h4h48q12 0 21 9l139 138q10 10 10 21v90 q0 21 15 36t36 15q17 0 30.5 -10.5t18.5 -26.5q16 -5 26.5 -18.5t10.5 -30.5v-124q0 -24 -14 -38l-122 -119q-11 -11 -11 -28q0 -12 9 -25l89 -88q1 -1 3 -4l32 -31q14 -11 14 -37v-124q0 -21 -15 -36t-36 -15q-17 0 -30.5 10.5t-18.5 26.5q-16 5 -26.5 18.5t-10.5 30.5v90 q0 8 -7 18l-107 106q-9 9 -21 9zM231 309h48q16 0 28 -12l139 -138q13 -13 13 -28v-90q0 -17 12 -29t29 -12t29 12t12 29v124q0 16 -11 30l-122 120q-14 19 -14 35q0 17 14 36l122 119q11 14 11 30v124q0 17 -12 29t-29 12t-29 -12t-12 -29v-90q0 -15 -13 -28l-139 -138 q-12 -12 -28 -12h-48q-21 0 -35.5 15t-14.5 36v217q0 17 -12 29t-29 12t-29 -12t-12 -29v-618q0 -17 12 -29t29 -12t29 12t12 29v217q0 21 14.5 36t35.5 15z" glyph-name="k" unicode="k"/><glyph d="M534 -45h-359q-17 0 -30.5 10.5t-18.5 26.5q-16 5 -26.5 18.5t-10.5 30.5v618q0 21 15 36t36 15q17 0 30.5 -10.5t18.5 -26.5q16 -5 26.5 -18.5t10.5 -30.5v-526q0 -5 1 -6h4h268q17 0 30.5 -10.5t18.5 -26.5q16 -5 26.5 -18.5t10.5 -30.5q0 -21 -15 -36t-36 -15z M181 133v526q0 17 -12 29t-29 12t-29 -12t-12 -29v-618q0 -17 12 -29t29 -12h359q17 0 29 12t12 29t-12 29t-29 12h-268q-21 0 -35.5 15t-14.5 36z" glyph-name="l" unicode="l"/><glyph d="M449 41v424l-34 -33q-9 -10 -9 -22v-95q0 -21 -14.5 -36t-35.5 -15q-39 0 -50 37q-37 12 -37 49v95q0 10 -6 19l-36 35h-1v-1v-492q0 -21 -15 -36t-36 -15q-17 0 -30.5 10.5t-18.5 26.5q-16 5 -26.5 18.5t-10.5 30.5v618q0 21 15 36t36 15q22 0 36 -14l33 -33l2 -2 l82 -83q13 -9 28 -9q16 0 28 12l114 115q14 14 37 14q17 0 30.5 -10.5t18.5 -26.5q16 -5 26.5 -18.5t10.5 -30.5v-618q0 -21 -15 -36t-36 -15q-17 0 -30.5 10.5t-18.5 26.5q-16 5 -26.5 18.5t-10.5 30.5zM459 533v-492q0 -17 12 -29t29 -12t29 12t12 29v618q0 17 -12 29 t-29 12q-16 0 -30 -11l-114 -115q-14 -15 -35 -15q-18 0 -37 14l-115 116q-14 11 -29 11q-17 0 -29 -12t-12 -29v-618q0 -17 12 -29t29 -12t29 12t12 29v492q0 13 9 13q6 0 9 -5l68 -67q12 -12 12 -29v-95q0 -17 12 -29t30 -12q17 0 28.5 12t11.5 29v95q0 17 12 29l67 67 q3 5 9 5q10 0 10 -13z" glyph-name="m" unicode="m"/><glyph d="M455 15l-229 393v-402q0 -21 -15 -36t-36 -15q-17 0 -30.5 10.5t-18.5 26.5q-16 5 -26.5 18.5t-10.5 30.5v618q0 21 15 36t36 15q30 0 45 -25l7 -13q19 -6 28 -22l229 -394v403q0 21 15 36t36 15q17 0 30.5 -10.5t18.5 -26.5q16 -5 26.5 -18.5t10.5 -30.5v-618 q0 -21 -15 -36t-36 -15q-30 0 -44 25l-8 13q-18 7 -28 22zM442 223l-266 457q-14 20 -36 20q-17 0 -29 -12t-12 -29v-618q0 -17 12 -29t29 -12t29 12t12 29v433q0 12 7 12q4 0 9 -8l267 -458q12 -20 36 -20q17 0 29 12t12 29v618q0 17 -12 29t-29 12t-29 -12t-12 -29v-432 q0 -12 -8 -12q-4 0 -9 8z" glyph-name="n" unicode="n"/><glyph d="M586 539v-448q0 -24 -14 -38l-87 -84q-14 -14 -36 -14h-190q-20 0 -35 15l-85 84q-1 1 -2 3l-33 32q-15 15 -15 37v448q0 22 15 37l85 84q15 15 35 15h190q20 0 36 -15l87 -84l3 -3l1 -2l31 -30q14 -12 14 -37zM530 604l-87 84q-10 12 -29 12h-190q-18 0 -28 -12l-85 -84 q-12 -15 -12 -30v-448q0 -15 12 -30l85 -84q10 -12 28 -12h190q18 0 29 12l87 84q11 14 11 30v448q0 16 -11 30zM446 132l-37 -38q-11 -12 -29 -12h-121q-17 0 -29 12l-37 38q-12 12 -12 28v380q0 16 12 28l37 38q12 12 29 12h121q18 0 29 -12l37 -38q13 -13 13 -28v-380 q0 -15 -13 -28zM439 561l-7 7q-8 5 -17 5h-121q-12 0 -21 -9l-37 -38q-10 -10 -10 -21v-380q0 -11 10 -21l6 -7q8 -5 17 -5h121q13 0 22 9l37 38q10 10 10 21v380q0 11 -10 21z" glyph-name="o" unicode="o"/><glyph d="M541 606l31 -30q14 -12 14 -37v-161q0 -25 -14 -39l-87 -84q-14 -14 -36 -14h-183q-17 0 -28.5 -12t-11.5 -29v-194q0 -21 -15 -36t-36 -15q-17 0 -30.5 10.5t-18.5 26.5q-16 5 -26.5 18.5t-10.5 30.5v618q0 21 15 36t36 15h274q20 0 36 -15l87 -84l3 -3zM181 41v194 q0 22 14.5 36.5t35.5 14.5h183q18 0 29 12l87 84q11 14 11 31v161q0 16 -11 30l-87 84q-10 12 -29 12h-274q-17 0 -29 -12t-12 -29v-618q0 -17 12 -29t29 -12t29 12t12 29zM380 368h-149q-21 0 -35.5 15t-14.5 36v148q0 21 14.5 36t35.5 15h149q18 0 29 -12l37 -38 q13 -13 13 -28v-94q0 -15 -13 -28l-37 -38q-11 -12 -29 -12zM439 561l-7 7q-8 5 -17 5h-149q-17 0 -28.5 -12t-11.5 -29v-148q0 -5 1 -6h153q13 0 22 9l37 38q10 10 10 21v94q0 11 -10 21z" glyph-name="p" unicode="p"/><glyph d="M541 606l31 -30q14 -12 14 -37v-447q0 -18 -9 -30q-5 -12 -17 -19q-21 -19 -21 -37t21 -37l9 -9q7 -7 8 -10q9 -12 9 -30q0 -21 -15 -35.5t-36 -14.5q-26 0 -37 14l-30 30l-5 5l-30 30q-7 6 -18 6h-155q-21 0 -36 15l-85 84q-2 0 -2 3l-33 32q-15 13 -15 38v447 q0 22 15 37l85 84q15 15 36 15h190q20 0 35 -15l87 -84l3 -3zM225 0h155q18 0 30 -12l60 -62q14 -11 30 -11q17 0 29 11.5t12 28.5q0 19 -11 30l-21 19q-15 16 -15 37t15 37l21 19q11 14 11 30v447q0 16 -11 30l-87 84q-10 12 -28 12h-190q-19 0 -29 -12l-85 -84 q-12 -15 -12 -30v-447q0 -16 12 -31l85 -84q10 -12 29 -12zM446 132l-37 -38q-11 -12 -29 -12h-121q-17 0 -29 12l-37 38q-12 12 -12 28v380q0 16 12 28l37 38q12 12 29 12h121q18 0 29 -12l37 -38q13 -13 13 -28v-380q0 -15 -13 -28zM439 561l-7 7q-8 5 -17 5h-121 q-12 0 -21 -9l-37 -38q-10 -10 -10 -21v-380q0 -11 10 -21l6 -7q8 -5 17 -5h121q13 0 22 9l37 38q10 10 10 21v380q0 11 -10 21z" glyph-name="q" unicode="q"/><glyph d="M439 540l-26 27q-10 6 -19 6h-128q-17 0 -28.5 -12t-11.5 -29v-148q0 -5 1 -6h4h128q13 0 22 9l58 59q10 10 10 22v50q0 11 -10 22zM394 241h-128q-17 0 -28.5 -12t-11.5 -29v-194q0 -21 -15 -36t-36 -15q-17 0 -30.5 10.5t-18.5 26.5q-16 5 -26.5 18.5t-10.5 30.5v618 q0 21 15 36t36 15h254q22 0 37 -15l35 -35l71 -71l35 -35q14 -14 14 -36v-120q0 -19 -12 -34q-4 -5 -12 -13q-2 -2 -6.5 -6t-6.5 -6q-31 -26 -31 -46q0 -8 6 -22l2 -2q10 -11 12 -13q1 -1 2 -3l2 -2l2 -2t2.5 -2t2.5 -2q3 -3 13 -11q8 -8 12 -13q12 -19 12 -35v-180 q0 -21 -15 -36t-36 -15q-17 0 -30.5 10.5t-18.5 26.5q-16 5 -26.5 18.5t-10.5 30.5v146q0 11 -10 21l-26 27q-10 6 -19 6zM446 439l-58 -59q-12 -12 -29 -12h-128q-21 0 -35.5 15t-14.5 36v148q0 21 14.5 36t35.5 15h128q17 0 29 -12l58 -59q13 -13 13 -29v-50 q0 -16 -13 -29zM231 286h128q17 0 29 -12l58 -59q13 -13 13 -28v-146q0 -17 12 -29t29 -12t29 12t12 29v180q0 16 -11 30l-43 40q-14 19 -14 37q0 20 15 35l41 41q12 14 12 29v120q0 18 -11 29l-106 106q-14 12 -30 12h-254q-17 0 -29 -12t-12 -29v-618q0 -17 12 -29t29 -12 t29 12t12 29v194q0 22 14.5 36.5t35.5 14.5z" glyph-name="r" unicode="r"/><glyph d="M415 573h-121q-12 0 -21 -9l-37 -38q-10 -10 -10 -21v-70q0 -12 10 -22l6 -7q8 -5 17 -5h156q21 0 36 -15l86 -85l2 -2t1 -2l32 -31q14 -14 14 -36v-139q0 -24 -14 -38l-87 -84q-17 -14 -35 -14h-191q-20 0 -35 15l-85 84l-3 3l-32 32q-14 13 -16 44q0 8 0.5 21.5 t0.5 18.5q0 21 15 35.5t36 14.5q17 0 30.5 -10.5t18.5 -26.5q37 -12 37 -48v-12q1 -2 1 -8q2 -8 9 -14l6 -7q8 -5 17 -5h121q13 0 22 9l37 38q10 10 10 21v70q0 11 -10 22l-7 7q-8 5 -17 5h-156q-21 0 -36 15l-32 32l-3 3l-84 85q-15 15 -15 36v139q0 22 15 37l85 84 q15 15 35 15h191q20 0 35 -15l87 -84q1 -1 2 -3t3 -3l30 -29q13 -12 15 -44q1 -9 0 -23.5t-1 -15.5q0 -21 -15 -36t-36 -15q-17 0 -30.5 10.5t-18.5 26.5q-16 5 -26.5 18.5t-10.5 30.5q0 16 -1 19q-1 6 -9 14l-7 7q-8 5 -17 5zM459 540v-12q0 -17 12 -29t29 -12t29 12t12 29 v46q0 16 -11 30l-87 84q-10 12 -28 12h-191q-18 0 -28 -12l-85 -84q-12 -15 -12 -30v-139q0 -17 12 -29l84 -85q13 -12 29 -12h156q18 0 30 -12l36 -38q13 -13 13 -29v-70q0 -15 -13 -28l-37 -38q-11 -12 -29 -12h-121q-17 0 -29 12l-37 38q-12 12 -12 28v13q0 17 -12 28.5 t-29 11.5t-29 -11.5t-12 -28.5v-47q0 -15 12 -30l85 -84q10 -12 28 -12h191q17 0 28 12l87 84q11 14 11 30v139q0 18 -11 29l-86 85q-14 12 -29 12h-156q-18 0 -30 12l-36 38q-12 12 -12 29v70q0 16 12 28l37 38q12 12 29 12h121q18 0 29 -12l37 -38q13 -13 13 -28z" glyph-name="s" unicode="s"/><glyph d="M269 567v5q-1 1 -6 1h-88q-17 0 -30.5 10.5t-18.5 26.5q-16 5 -26.5 18.5t-10.5 30.5q0 21 15 36t36 15h360q17 0 30.5 -10.5t18.5 -26.5q16 -5 26.5 -18.5t10.5 -30.5q0 -21 -15 -36t-36 -15h-88q-17 0 -29 -12t-12 -29v-526q0 -22 -14.5 -36.5t-36.5 -14.5 q-38 0 -49 37q-37 12 -37 49v526zM361 41v526q0 21 14.5 36t36.5 15h88q17 0 29 12t12 29t-12 29t-29 12h-360q-17 0 -29 -12t-12 -29t12 -29t29 -12h88q22 0 36.5 -15t14.5 -36v-526q0 -17 12 -29t29 -12t29 12t12 29z" glyph-name="t" unicode="t"/><glyph d="M549 673q16 -5 26.5 -18.5t10.5 -30.5v-533q0 -24 -14 -38l-87 -84q-14 -14 -36 -14h-190q-20 0 -35 15l-85 84q-1 1 -2 3l-33 32q-15 15 -15 37v533q0 21 15 36t36 15q17 0 30.5 -10.5t18.5 -26.5q16 -5 26.5 -18.5t10.5 -30.5v-499q0 -11 10 -21l6 -7q8 -5 17 -5h121 q13 0 22 9l37 38q10 10 10 21v499q0 21 15 36t36 15q17 0 30.5 -10.5t18.5 -26.5zM181 160v499q0 17 -12 29t-29 12t-29 -12t-12 -29v-533q0 -15 12 -30l85 -84q10 -12 28 -12h190q18 0 29 12l87 84q11 14 11 30v533q0 17 -12 29t-29 12t-29 -12t-12 -29v-499q0 -15 -13 -28 l-37 -38q-11 -12 -29 -12h-121q-17 0 -29 12l-37 38q-12 12 -12 28z" glyph-name="u" unicode="u"/><glyph d="M586 624v-457q0 -25 -15 -38l-161 -160q-13 -13 -39 -15q-7 -1 -20 0t-16 1q-22 0 -36 14l-194 195q-16 16 -16 38v457q0 21 15 36t36 15q17 0 30.5 -10.5t18.5 -26.5q16 -5 26.5 -18.5t10.5 -30.5v-423q0 -11 9 -21l58 -59q12 -9 28 -9q15 0 28 12l91 91q9 9 9 21v423 q0 21 15 36t36 15q17 0 30.5 -10.5t18.5 -26.5q16 -5 26.5 -18.5t10.5 -30.5zM459 659v-423q0 -16 -12 -28l-91 -91q-15 -15 -35 -15q-23 0 -38 15l-90 91q-12 12 -12 28v423q0 17 -12 29t-29 12t-29 -12t-12 -29v-457q0 -13 13 -31l159 -160q11 -11 29 -11h39q18 0 29 11 l161 160q12 15 12 31v457q0 17 -12 29t-29 12t-29 -12t-12 -29z" glyph-name="v" unicode="v"/><glyph d="M586 624v-528q0 -22 -14 -36l-91 -91q-14 -14 -36 -14q-23 0 -37 14l-29 30l-2 1l-4 4l-18 18l-53 -53q-14 -14 -38 -14q-22 0 -36 14l-124 126q-15 15 -15 36v528q0 21 15 36t36 15q17 0 30.5 -10.5t18.5 -26.5q16 -5 26.5 -18.5t10.5 -30.5v-494q17 0 30 9.5t13 25.5 v185q0 21 15.5 36t36.5 15q36 0 48 -37q37 -11 37 -49v-185q17 0 30 9.5t13 25.5v494q0 21 15 36t36 15q17 0 30.5 -10.5t18.5 -26.5q16 -5 26.5 -18.5t10.5 -30.5zM459 659v-494q0 -18 -15 -31.5t-34 -13.5q-18 0 -33.5 13.5t-15.5 31.5v185q0 17 -11.5 29t-28.5 12 q-18 0 -30 -12t-12 -29v-185q0 -19 -15 -32t-35 -13q-18 0 -33 13.5t-15 31.5v494q0 17 -12 29t-29 12t-29 -12t-12 -29v-528q0 -17 12 -29l89 -91q11 -11 29 -11q20 0 31 11l61 62l59 -62q14 -11 30 -11q18 0 29 11l91 91q11 11 11 29v528q0 17 -12 29t-29 12t-29 -12 t-12 -29z" glyph-name="w" unicode="w"/><glyph d="M586 624v-149q0 -21 -15 -35l-96 -96q-12 -12 -12 -29q0 -15 13 -28l95 -97q15 -15 15 -35v-149q0 -21 -15 -36t-36 -15q-17 0 -30.5 10.5t-18.5 26.5q-16 5 -26.5 18.5t-10.5 30.5v114q0 12 -10 22l-55 55q-13 13 -30 13q-15 0 -29 -13l-90 -90q-9 -10 -9 -22v-114 q0 -21 -15 -36t-36 -15q-17 0 -30.5 10.5t-18.5 26.5q-16 5 -26.5 18.5t-10.5 30.5v149q0 19 16 35l94 97q12 14 12 28q0 16 -13 29l-93 96q-16 16 -16 35v149q0 21 15 36t36 15q17 0 30.5 -10.5t18.5 -26.5q16 -5 26.5 -18.5t10.5 -30.5v-114q0 -15 10 -22l58 -60 q14 -8 25 -8q15 0 30 11l91 92q9 9 9 22v114q0 21 15 36t36 15q17 0 30.5 -10.5t18.5 -26.5q16 -5 26.5 -18.5t10.5 -30.5zM459 659v-114q0 -17 -12 -29l-91 -92q-19 -14 -37 -14q-17 0 -36 14l-90 92q-12 12 -12 29v114q0 17 -12 29t-29 12t-29 -12t-12 -29v-149 q0 -18 13 -28l93 -96q16 -16 16 -36t-15 -35l-94 -97q-13 -10 -13 -28v-149q0 -17 12 -29t29 -12t29 12t12 29v114q0 17 12 29l90 90q13 16 36 16q24 0 37 -16l90 -90q13 -13 13 -29v-114q0 -17 12 -29t29 -12t29 12t12 29v149q0 18 -12 28l-95 97q-16 13 -16 35q0 20 15 36 l96 96q12 10 12 28v149q0 17 -12 29t-29 12t-29 -12t-12 -29z" glyph-name="x" unicode="x"/><glyph d="M189 673q16 -5 26.5 -18.5t10.5 -30.5v-137q0 -12 9 -21l56 -56q12 -12 29 -12t29 12l91 91q9 9 9 21v137q0 21 15 36t36 15q17 0 30.5 -10.5t18.5 -26.5q16 -5 26.5 -18.5t10.5 -30.5v-171q0 -23 -15 -37l-156 -156q-9 -10 -9 -21v-233q0 -22 -14.5 -36.5t-36.5 -14.5 q-38 0 -49 37q-37 12 -37 49v233q0 12 -9 21l-155 156q-16 16 -16 37v171q0 21 15 36t36 15q17 0 30.5 -10.5t18.5 -26.5zM112 458l155 -156q12 -12 12 -28v-233q0 -17 12 -29t29 -12t29 12t12 29v233q0 16 12 28l156 156q12 14 12 30v171q0 17 -12 29t-29 12t-29 -12 t-12 -29v-137q0 -16 -12 -28l-91 -91q-15 -15 -36 -15t-36 15l-91 91q-12 12 -12 28v137q0 17 -12 29t-29 12t-29 -12t-12 -29v-171q0 -15 13 -30z" glyph-name="y" unicode="y"/><glyph d="M443 573h-268q-17 0 -30.5 10.5t-18.5 26.5q-16 5 -26.5 18.5t-10.5 30.5q0 21 15 36t36 15h360q17 0 30.5 -10.5t18.5 -26.5q16 -5 26.5 -18.5t10.5 -30.5v-129q0 -23 -14 -37l-336 -336q-9 -10 -9 -24q0 -5 1 -6h4h268q17 0 30.5 -10.5t18.5 -26.5q16 -5 26.5 -18.5 t10.5 -30.5q0 -21 -15 -36t-36 -15h-360q-17 0 -30.5 10.5t-18.5 26.5q-16 5 -26.5 18.5t-10.5 30.5v129q0 22 15 37l335 336q10 10 10 24v5q-1 1 -6 1zM446 536l-335 -336q-12 -12 -12 -30v-129q0 -17 12 -29t29 -12h360q17 0 29 12t12 29t-12 29t-29 12h-268 q-21 0 -35.5 15t-14.5 36v3q0 16 12 28l336 336q11 11 11 30v129q0 17 -12 29t-29 12h-360q-17 0 -29 -12t-12 -29t12 -29t29 -12h268q21 0 36 -15t15 -36v-3q0 -15 -13 -28z" glyph-name="z" unicode="z"/><glyph d="M473 -93h-67q-20 0 -36 16l-35 35l-50 50l-35 35q-14 14 -14 36v150q0 12 -10 22l-27 27l-35 35q-14 14 -14 36t14 36l62 62q10 10 10 22v151q0 24 14 36l86 84q16 16 35 16h67q17 0 30.5 -10.5t18.5 -26.5q16 -5 26.5 -18.5t10.5 -30.5q0 -21 -15 -36.5t-36 -15.5h-32 q-11 0 -22 -9l-37 -37q-9 -10 -9 -22v-151q0 -28 -33 -57q-10 -8 -11 -9l-4 -4t-5 -4q-7 -7 -7 -11q0 -1 1 -2q8 -8 14 -17l1 -1q1 -1 11 -9q33 -29 33 -56v-150q0 -13 9 -22l2 -2q8 -8 23 -9h31q17 0 30.5 -10.5t18.5 -26.5q16 -5 26.5 -18.5t10.5 -30.5q0 -22 -14 -37.5 t-37 -15.5zM317 293l-43 43q-6 4 -6 13t6 13l43 43q11 11 11 29v151q0 17 12 29l37 37q12 12 29 12h32q17 0 29 12.5t12 29.5t-12 29t-29 12h-67q-18 0 -28 -13l-86 -84q-11 -14 -11 -29v-151q0 -16 -13 -29l-62 -62q-11 -11 -11 -29t11 -29l62 -62q13 -13 13 -29v-150 q0 -18 11 -29l85 -85q13 -13 29 -13h67q17 0 29 13t12 30t-12 29t-29 12h-32q-17 0 -29 12l-37 37q-12 12 -12 29v150q0 18 -11 29z" glyph-name="braceleft" unicode="{"/><glyph d="M369 748q37 -11 37 -49v-768q0 -22 -14.5 -36.5t-36.5 -14.5q-38 0 -49 37q-37 12 -37 49v768q0 21 15 36t36 15q37 0 49 -37zM279 734v-768q0 -17 12 -29t29 -12t29 12t12 29v768q0 17 -12 29t-29 12t-29 -12t-12 -29z" glyph-name="bar" unicode="|"/><glyph d="M361 352q-2 2 -5.5 6t-4.5 5l-5 5q-7 7 -11 10q-33 33 -33 56v151q0 13 -9 22l-2 2q-7 7 -22 9h-32q-36 0 -48 37q-38 12 -38 50q0 20 15.5 35.5t35.5 15.5h67q19 0 35 -16l85 -84q1 -1 3 -4l32 -31q15 -12 15 -36v-151q0 -13 9 -22l27 -27l35 -35q14 -14 14 -36 q0 -25 -14 -36l-62 -62q-9 -10 -9 -22v-150q0 -22 -15 -36l-84 -85q-13 -16 -36 -16h-67q-36 0 -48 37q-38 12 -38 51q0 20 15.5 35.5t35.5 15.5h32q13 0 22 9l37 37q9 9 9 22v150q0 27 33 56q4 3 11 10q6 4 9 9q7 7 7 10q0 2 -1 3zM365 336l-41 -43q-12 -12 -12 -29v-150 q0 -17 -12 -29l-37 -37q-11 -12 -29 -12h-32q-17 0 -29 -12t-12 -29t12 -30t29 -13h67q16 0 29 13l84 85q12 11 12 29v150q0 17 12 29l62 62q11 11 11 29t-11 29l-62 62q-12 12 -12 29v151q0 17 -12 29l-85 84q-10 13 -28 13h-67q-17 0 -29 -12t-12 -29t12 -29.5t29 -12.5 h32q18 0 29 -12l37 -37q12 -12 12 -29v-151q0 -17 12 -29l41 -43q7 -4 7 -13t-7 -13z" glyph-name="braceright" unicode="}"/><glyph d="M254 344l-16 -17v-57q0 -23 -15.5 -37.5t-37.5 -14.5q-33 0 -46 36q-38 12 -38 51v81q0 18 15 33l46 49q13 13 33 13h80q19 0 33 -14q10 -10 37 -34q16 -16 17 -18q13 -13 18 -17q11 -9 20 -23q5 -12 5 -28q2 -9 0 -23h18l15 17v59q0 20 15.5 35.5t35.5 15.5 q17 0 30.5 -10.5t18.5 -26.5q16 -5 26.5 -18.5t10.5 -30.5v-81q0 -24 -12 -34l-50 -50q-12 -13 -32 -13h-82q-23 0 -34 13q-27 27 -36 35q-10 10 -13 14q-18 19 -22 21q-12 11 -19 23q-5 8 -7 28v23h-14zM193 366l21 23h43l21 -23v-47q0 -17 10 -27l49 -50q10 -10 27 -10h82 q18 0 25 10l50 50q9 13 9 27v81q0 16 -12.5 28.5t-28.5 12.5q-17 0 -29 -12.5t-12 -28.5v-63l-20 -23h-45l-23 23v49q0 16 -9 26l-50 48q-11 11 -26 11h-80q-10 0 -26 -10l-46 -49q-12 -14 -12 -26v-81q0 -17 12 -29.5t27 -12.5q18 0 30.5 12.5t12.5 29.5v61z" glyph-name="asciitilde" unicode="~"/><glyph d="M406 422v-416q0 -21 -15 -36t-36 -15q-38 0 -49 37q-37 12 -37 49v416q0 21 15 35.5t36 14.5q17 0 30.5 -10.5t18.5 -26.5q37 -12 37 -48zM388 673q37 -11 37 -49v-40q0 -21 -14.5 -36t-35.5 -15h-41q-36 0 -48 37q-17 4 -27 17.5t-10 31.5v40q0 21 14.5 36t35.5 15h41 q36 0 48 -37zM340 700h-41q-17 0 -28.5 -12t-11.5 -29v-40q0 -17 11.5 -29t28.5 -12h41q17 0 28.5 12t11.5 29v40q0 17 -11.5 29t-28.5 12zM361 41v416q0 17 -12 28.5t-29 11.5t-29 -11.5t-12 -28.5v-416q0 -17 12 -29t29 -12t29 12t12 29z" glyph-name="exclamdown" unicode="¡"/><glyph d="M268 104v433l-33 -32q-9 -11 -9 -22v-336q0 -11 6 -18l28 -28q4 -4 6 -4q2 2 2 7zM535 401q-36 0 -48 37q-38 12 -38 50q0 1 0.5 15.5t-0.5 15.5q-2 13 -10 21l-26 26q-2 2 -5 2l-2 -1v-1q-1 -1 -1 -5v-435l34 34q8 8 10 21v31q0 21 15 36.5t36 15.5q17 0 30.5 -10.5 t18.5 -26.5q16 -5 26.5 -19t10.5 -31v-65q0 -20 -15 -35l-106 -108q-12 -12 -25 -13q-8 -1 -25 -1q-6 0 -8 -5q0 -1 -0.5 -2t-1 -3t-0.5 -3v-11q0 -22 -14.5 -36.5t-36.5 -14.5q-38 0 -49 37q-31 8 -36 39q-15 3 -26 14l-30 31q-1 1 -5 4l-104 106q-15 15 -15 36v406 q0 21 15 36l104 106q12 12 25 13q10 2 13 2h12q8 0 9 4q0 1 0.5 4t0.5 5v11q0 21 15 36t36 15q37 0 49 -37q31 -7 36 -40h2q14 -2 24 -12l31 -31l4 -4l106 -108q15 -15 15 -35v-65q0 -21 -15 -36.5t-36 -15.5zM360 720v14q0 17 -12 29t-29 12t-29 -12t-12 -29v-14 q0 -20 -20 -20h-11q-19 0 -32 -12l-104 -106q-12 -12 -12 -29v-406q0 -17 12 -29l104 -106q13 -12 32 -12h11q20 0 20 -20v-14q0 -17 12 -29t29 -12t29 12t12 29v14q0 20 20 20h14q15 0 29 11l106 108q12 11 12 28v65q0 17 -12 29.5t-29 12.5t-29 -12.5t-12 -29.5v-30 q0 -16 -13 -29l-58 -59q-7 -7 -15 -7q-13 0 -13 17v492q0 17 13 17q8 0 15 -7l58 -59q13 -13 13 -29v-30q0 -17 12 -29.5t29 -12.5t29 12.5t12 29.5v65q0 17 -12 28l-106 108q-14 11 -29 11h-14q-20 0 -20 20zM278 596v-492q0 -17 -12 -17q-9 0 -13 7l-60 59q-12 11 -12 29 v336q0 18 12 29l60 59q4 7 13 7q12 0 12 -17z" glyph-name="cent" unicode="¢"/><glyph d="M365 563l-36 -36q-10 -10 -10 -22v-127h134q38 0 50 -38q37 -12 37 -47q0 -22 -15 -37t-37 -15h-159q-10 0 -10 -10v-139h181q17 0 30.5 -10.5t18.5 -26.5q16 -5 26.5 -18.5t10.5 -30.5q0 -21 -15 -36t-36 -15h-360q-17 0 -30.5 10.5t-18.5 26.5q-16 5 -26.5 18.5 t-10.5 30.5q0 20 15.5 35.5t35.5 15.5q9 0 16 -1q12 0 15 1q11 2 11 11v138h-7q-17 0 -30.5 10.5t-18.5 26.5q-37 11 -37 50q0 21 15 35.5t36 14.5q9 0 16 -1q12 0 15 1q11 2 11 11v185q0 25 14 37l86 84q15 15 36 15h97q20 0 35 -15l87 -84q1 -1 2 -3t3 -3l30 -29 q13 -13 15 -44q1 -9 0 -23.5t-1 -15.5q0 -21 -15 -36t-36 -15q-17 0 -30.5 10.5t-18.5 26.5q-16 5 -26.5 18.5t-10.5 30.5v12q0 11 -11 22l-5 5q-8 5 -16 5q-3 1 -30 1q-12 0 -22 -10zM459 540v-12q0 -17 12 -29t29 -12t29 12t12 29v46q0 16 -11 30l-87 84q-10 12 -28 12 h-97q-18 0 -29 -12l-86 -84q-11 -14 -11 -30v-185q0 -21 -21 -21h-31q-17 0 -29 -11.5t-12 -28.5q0 -18 12 -30t29 -12h31q21 0 21 -20v-163q0 -21 -21 -21h-31q-17 0 -29 -12t-12 -29t12 -29t29 -12h360q17 0 29 12t12 29t-12 29t-29 12h-206q-20 0 -20 21v163q0 20 20 20 h159q17 0 29.5 12t12.5 30q0 17 -12.5 28.5t-29.5 11.5h-159q-20 0 -20 21v151q0 16 13 29l36 36q13 13 29 13h28q17 0 30 -13l35 -36q14 -14 14 -29z" glyph-name="sterling" unicode="£"/><glyph d="M417 402l-6 5q-11 12 -22 12h-69q-10 0 -22 -12l-37 -36q-10 -7 -10 -22v-68q0 -8 6 -18l6 -6q11 -11 22 -11h69q11 0 22 11l37 36q10 10 10 23v68q0 9 -6 18zM132 462v1q-1 1 -2.5 4t-3.5 4q-5 5 -7 6q-1 1 -4 3.5t-5 4.5q-29 27 -29 53q0 21 15 35.5t36 14.5 q28 0 52 -28q1 -2 3.5 -5t4.5 -4l7 -7q5 -5 9 -5q3 0 5 2l18 23v-12q7 4 20 4h138q13 0 30 -10q2 -1 4.5 -2.5t3.5 -3.5q1 -1 4 -1q4 0 9 5l7 7q1 1 3.5 4t4.5 5q24 28 52 28q18 0 31.5 -10t17.5 -27q37 -12 37 -48q0 -29 -28 -53q-1 -2 -4 -4.5t-5 -3.5l-8 -6q-5 -7 -5 -9 q0 -1 2 -7q0 -1 2 -3q1 -1 3 -4q10 -14 10 -29v-138q0 -17 -10 -31q-1 -1 -3 -4q-2 -2 -2 -3q-2 -2 -2 -5q0 -2 1 -3l6 -9q2 -1 3 -2l3 -3t5 -4t4 -4q28 -24 28 -51q0 -21 -15 -35.5t-36 -14.5q-27 0 -53 28q-4 4 -9 10t-7 8l-3 3l-2 1q-1 0 -1 1q-1 0 -1 -1l-2 -1 q-3 -1 -8 -6q-15 -11 -32 -11h-138q-16 0 -31 11q-4 1 -10 6l-2 2q-3 -1 -7 -5q-1 -1 -6.5 -7.5t-8.5 -10.5q-26 -28 -54 -28q-38 0 -49 37q-37 12 -37 48q0 26 29 53q2 2 5 4.5t4 3.5t4 3t4 4q5 5 5 8t-1 4q-2 2 -2 3l-4 4q-11 15 -11 32v138q0 17 11 32l4 4q0 1 2 3 q1 1 1 4zM433 384v-68q0 -17 -13 -30l-37 -36q-12 -14 -29 -14h-69q-17 0 -29 14l-37 36q-13 13 -13 30v68q0 17 13 30l37 36q12 14 29 14h69q17 0 29 -14l37 -36q13 -13 13 -30zM135 447q-11 -11 -11 -28v-138q0 -17 11 -28q7 -4 7 -15q0 -9 -7 -13l-32 -32 q-12 -11 -12 -31q0 -17 12 -28.5t29 -11.5q19 0 30 11l33 32q6 8 13 8q3 0 13 -7q14 -12 30 -12h138q16 0 29 12q8 7 13 7q7 0 13 -8l33 -32q11 -11 30 -11q17 0 29 11.5t12 28.5q0 19 -11 30l-33 32q-6 5 -6 14q0 10 6 15q11 11 11 28v138q0 16 -12 28q-5 7 -5 15q0 9 6 13 l33 32q11 11 11 31q0 17 -12 28.5t-29 11.5q-19 0 -30 -11l-33 -32q-4 -6 -13 -6q-6 0 -13 5q-14 12 -29 12h-138q-17 0 -30 -12v1q-4 -6 -13 -6q-8 0 -13 6l-33 32q-11 11 -30 11q-17 0 -29 -11.5t-12 -28.5q0 -20 12 -31l32 -32q7 -4 7 -13q0 -8 -7 -15z" glyph-name="currency" unicode="¤"/><glyph d="M260 380l-120 120l-35 35q-16 13 -16 37v87q0 21 15 36t36 15q17 0 30.5 -10.5t18.5 -26.5q16 -5 26.5 -18.5t10.5 -30.5v-52q0 -12 9 -22l56 -56q12 -12 29 -12t29 12l91 91q9 9 9 22v52q0 21 15 36t36 15q17 0 30.5 -10.5t18.5 -26.5q16 -5 26.5 -18.5t10.5 -30.5v-87 q0 -23 -15 -37l-136 -136q32 0 45 -7q22 -10 26 -32q2 -1 5.5 -2t4.5 -1q26 -14 26 -45q0 -21 -14.5 -36t-35.5 -15h-76h-2q-2 -1 -3 -1h46q17 0 30.5 -10.5t17.5 -26.5q37 -11 37 -48q0 -22 -13.5 -37t-36.5 -15h-76q-10 0 -10 -10v-72q0 -22 -14.5 -36.5t-36.5 -14.5 q-38 0 -49 37q-37 12 -37 49v47h-52q-38 0 -49 37q-37 11 -37 50q0 21 15 35.5t36 14.5h77q4 0 5 1h-47q-38 0 -49 37q-37 12 -37 49q0 33 27 45q15 7 51 7q39 -2 45 -2q8 2 11 3q1 1 1 3q0 6 -6 12zM276 368q0 -15 -17 -15h-77q-17 0 -29 -12t-12 -29t12 -29t29 -12h77 q20 0 20 -20v-16q0 -20 -20 -20h-77q-17 0 -29 -11.5t-12 -28.5q0 -18 12 -30t29 -12h77q20 0 20 -20v-72q0 -17 12 -29t29 -12t29 12t12 29v72q0 20 20 20h76q17 0 28.5 12t11.5 30q0 17 -11.5 28.5t-28.5 11.5h-76q-20 0 -20 20v16q0 20 20 20h76q17 0 28.5 12t11.5 29 t-11.5 29t-28.5 12h-76q-17 0 -17 15q0 10 9 19l156 155q12 14 12 30v87q0 17 -12 29t-29 12t-29 -12t-12 -29v-52q0 -17 -12 -29l-91 -91q-15 -15 -36 -15t-36 15l-91 91q-12 10 -12 29v52q0 17 -12 29t-29 12t-29 -12t-12 -29v-87q0 -15 13 -30l155 -155q9 -9 9 -19z" glyph-name="yen" unicode="¥"/><glyph d="M369 270q37 -12 37 -48v-291q0 -22 -14.5 -36.5t-36.5 -14.5q-38 0 -49 37q-37 12 -37 49v291q0 21 15 35.5t36 14.5q18 0 31.5 -10t17.5 -27zM369 748q37 -11 37 -49v-291q0 -21 -15 -35.5t-36 -14.5q-38 0 -49 37q-37 12 -37 48v291q0 21 15 36t36 15q37 0 49 -37z M279 734v-291q0 -17 12 -28.5t29 -11.5t29 11.5t12 28.5v291q0 17 -12 29t-29 12t-29 -12t-12 -29zM279 257v-291q0 -17 12 -29t29 -12t29 12t12 29v291q0 17 -12 28.5t-29 11.5t-29 -11.5t-12 -28.5z" glyph-name="brokenbar" unicode="¦"/><glyph d="M439 382l-7 7q-8 5 -17 5h-120q-11 0 -22 -9l-37 -37q-9 -10 -9 -22v-23q0 -13 9 -22l2 -2q9 -9 22 -9h120q13 0 22 9l37 37q10 10 10 22v22q0 12 -10 22zM415 658h-120q-12 0 -21 -9l-37 -38q-9 -9 -9 -19q-1 -8 -1 -26q0 -12 10 -22l7 -9q9 -4 16 -4h155q22 0 36 -14 l86 -85q1 -1 3 -4l32 -31q14 -14 14 -36v-93q0 -23 -14 -37l-50 -47l15 -15l4 -4l31 -31q14 -14 14 -36v-92q0 -24 -14 -38l-87 -84q-17 -14 -35 -14h-190q-18 0 -35 14l-86 84q-1 2 -2 3t-2 3l-31 30q-14 13 -16 43q0 8 0.5 21.5t0.5 18.5q0 21 15 35.5t36 14.5 q38 0 50 -38q37 -12 37 -47v-11q1 -2 1 -9q1 -7 9 -13l6 -7q8 -5 17 -5h120q13 0 22 9l37 38q8 10 10 18v11v15q0 11 -10 22l-8 8q-8 5 -16 5h-155q-22 0 -36 14l-35 35l-50 50l-35 35q-15 15 -15 36v93q0 21 15 36l49 48l-48 50q-16 16 -16 36v93q0 24 15 37l86 84 q15 15 35 15h190q20 0 35 -15l87 -84q1 -1 2 -2.5t3 -3.5l30 -29q13 -12 15 -45q1 -9 0 -23.5t-1 -15.5q0 -21 -15 -36t-36 -15q-17 0 -30.5 10.5t-18.5 26.5q-16 5 -26.5 18.5t-10.5 30.5v12q0 2 -0.5 4t-0.5 4q-1 6 -9 14l-7 7q-8 5 -17 5zM459 625v-13q0 -17 12 -29 t29 -12t29 12t12 29v47q0 17 -11 30l-87 84q-10 12 -28 12h-190q-17 0 -28 -12l-86 -84q-12 -13 -12 -30v-93q0 -17 13 -29l55 -57l-56 -55q-12 -13 -12 -29v-93q0 -17 12 -29l85 -85q14 -11 29 -11h155q20 0 30 -13l36 -38q13 -13 13 -29v-23q0 -15 -13 -28l-37 -38 q-11 -12 -29 -12h-120q-17 0 -29 12l-37 38q-12 12 -12 28v12q0 17 -12.5 28.5t-29.5 11.5t-29 -11.5t-12 -28.5v-46q0 -17 12 -30l86 -84q11 -12 28 -12h190q17 0 28 12l87 84q11 13 11 30v92q0 18 -11 29l-58 57l58 55q11 14 11 29v93q0 18 -11 29l-86 85q-14 11 -29 11 h-155q-19 0 -30 13l-36 38q-12 10 -12 29v24q0 16 12 28l37 38q12 12 29 12h120q18 0 29 -12l37 -38q13 -13 13 -28zM231 272l-37 37q-12 12 -12 29v23q0 17 12 29l37 37q12 12 29 12h120q18 0 30 -12l36 -38q13 -13 13 -29v-22q0 -16 -13 -29l-37 -37q-11 -12 -29 -12h-120 q-17 0 -29 12z" glyph-name="section" unicode="§"/><glyph d="M275 787h-20q-37 0 -48 37q-16 4 -26.5 17.5t-10.5 30.5v21q0 20 15 35t35 15h20q18 0 31.5 -10t17.5 -27q37 -12 37 -48v-21q0 -21 -15 -35.5t-36 -14.5zM453 787h-20q-38 0 -49 37q-37 12 -37 48v21q0 21 15 35.5t36 14.5h20q17 0 30.5 -10.5t18.5 -26.5q37 -12 37 -48 v-21q0 -21 -15 -35.5t-36 -14.5zM398 832h20q17 0 29 11.5t12 28.5v21q0 17 -12 28.5t-29 11.5h-20q-17 0 -29 -11.5t-12 -28.5v-21q0 -17 12 -28.5t29 -11.5zM220 832h20q17 0 29 11.5t12 28.5v21q0 17 -12 28.5t-29 11.5h-20q-17 0 -28.5 -11.5t-11.5 -28.5v-21 q0 -17 11.5 -28.5t28.5 -11.5z" glyph-name="dieresis" unicode="¨"/><glyph d="M472 506q-10 10 -22 10h-190q-8 0 -22 -10l-35 -35q-10 -14 -10 -22v-267q0 -8 10 -22q10 -10 22 -10h190q12 0 22 10l35 35q10 10 10 22v267q0 12 -10 22zM586 476v-321q0 -17 -10 -24l-75 -75q-9 -10 -24 -10h-244q-13 0 -23 10l-35 35l-40 40l-35 35q-11 9 -11 24v321 q0 14 10 24l75 76q9 9 24 9h244q16 0 25 -9l33 -34l2 -1l75 -76q9 -9 9 -24zM479 272q2 -3 2 -17v-4.5v-4v-3.5v-3q0 -16 -11 -25l-55 -54q-9 -10 -23 -10h-74q-14 0 -25 11l-54 53l-3 3l-32 32q-10 10 -10 25v152q0 14 10 24l54 54q10 10 25 10h74q15 0 24 -9l35 -35 l20 -20l35 -35q9 -9 11 -25q0 -3 -0.5 -10t-0.5 -11q0 -15 -9.5 -25t-24.5 -10q-22 0 -32 24q-3 10 -4 11q-22 0 -31 24q-1 3 -2.5 8t-3.5 8q-10 2 -29 2q-8 0 -19 -8q-2 -1 -9 -8q-2 -1 -5 -4.5t-4 -5.5q-10 -11 -10 -21v-98q0 -2 2 -10q6 -2 30 -2q12 0 22 10l15 15 q4 4 7 11q1 3 2.5 8t3.5 8q8 25 32 25q25 0 32 -24q0 -2 0.5 -5.5t1.5 -5.5h1q24 0 32 -25zM479 188l-35 -35q-9 -13 -29 -13h-190q-20 0 -29 13l-35 35q-13 9 -13 29v267q0 20 13 29l35 35q9 13 29 13h190q16 0 29 -13l35 -35q13 -13 13 -29v-267q0 -20 -13 -29zM535 528 l-75 76q-14 6 -18 6h-244q-7 0 -17 -6l-75 -76q-7 -10 -7 -17v-321q0 -7 8 -17l75 -75q6 -7 16 -7h244q10 0 17 7l75 75q7 8 7 17v321q0 8 -6 17zM388 301q-3 -18 -14 -28l-15 -15q-13 -13 -29 -13h-20q-16 0 -29 13l-15 15q-13 13 -13 29v98q0 16 12 28l15 16q13 13 30 13 h20q17 0 30 -13l15 -16q10 -7 13 -27q5 -21 24 -21q10 0 17 7.5t7 17.5v22q0 9 -7 17l-55 55q-8 6 -17 6h-74q-10 0 -18 -7l-54 -54q-7 -7 -7 -17v-152q0 -11 7 -18l54 -53q10 -8 18 -8h74q10 0 16 7l55 54q8 10 8 18v22q0 10 -7 17.5t-17 7.5q-19 0 -24 -21z" glyph-name="copyright" unicode="©"/><glyph d="M381 466v-7l80 81q13 13 34 13q18 0 33 -10.5t20 -27.5q37 -15 37 -49q0 -22 -14 -36l-89 -86q-14 -12 -14 -29q0 -12 10 -25l55 -54l3 -3l1 -2l31 -30q14 -11 14 -36q0 -22 -13.5 -37t-36.5 -15t-37 14l-32 32l-3 3l-150 151q-16 16 -16 37q0 8 1 11l-17 -17 q-14 -12 -14 -29q0 -13 9 -23l57 -56q1 -1 2 -3l2 -2l31 -30q13 -12 13 -36q0 -22 -13.5 -37t-36.5 -15t-37 14l-32 32l-3 3l-150 151q-16 16 -16 37q0 22 15 37l152 153q13 13 34 13q18 0 33 -10.5t20 -27.5q37 -15 37 -49zM264 533l-152 -153q-12 -14 -12 -30 q0 -15 13 -30l150 -151q11 -11 30 -11q18 0 29 12t11 30q0 16 -10 29l-86 83q-18 18 -18 38t17 37l89 86q11 14 11 28q0 17 -13.5 29.5t-31.5 12.5q-17 0 -27 -10zM468 533l-152 -153q-12 -12 -12 -30q0 -17 13 -30l150 -151q11 -11 30 -11q17 0 28.5 12.5t11.5 29.5 q0 15 -11 29l-85 83q-18 18 -18 38t17 37l89 86q11 14 11 28q0 17 -13.5 29.5t-31.5 12.5q-17 0 -27 -10z" glyph-name="guillemotleft" unicode="«"/><glyph d="M352 265h-30q-10 0 -17 -7t-7 -17v-56q0 -15 -10 -24.5t-25 -9.5q-14 0 -24 10t-10 24v1h-1q-14 0 -24 10t-10 24v234v-4l-1 -1v-267q0 -8 10 -22q10 -10 22 -10h190q8 0 16 5q-18 11 -18 30v1h-1q-14 0 -24 10t-10 24v15q0 8 -1 10q-2 9 -9 16q-9 4 -16 4zM367 408l3 3 q-1 1 -5 1h-57q-10 0 -10 -11v-32h19q12 0 25 13q7 6 13 13q4 5 12 13zM382 505l35 -35l19 -19l35 -35q9 -9 11 -26q0 -4 -0.5 -11.5t-0.5 -10.5q0 -14 -8 -25q-7 -7 -8 -9q-2 -1 -8 -7q-10 -7 -14 -14q-5 -8 -5 -13q0 -6 5 -14q4 -5 14 -15l8 -8l8 -8q8 -14 8 -22v-21 q1 1 1 5v267q0 12 -10 22t-22 10h-190h-2q-1 -1 -3 -1h102q15 0 25 -10zM586 476v-321q0 -17 -10 -24l-75 -75q-9 -10 -24 -10h-244q-13 0 -23 10l-35 35l-40 40l-35 35q-11 9 -11 24v321q0 14 10 24l75 76q9 9 24 9h244q16 0 25 -9l33 -34l2 -1l75 -76q9 -9 9 -24zM253 394 v42q0 21 20 21h57q17 0 30 -13l14 -16q7 -7 7 -13q0 -10 -7 -14l-28 -29q-13 -13 -29 -13h-30q-14 0 -24 10t-10 25zM479 188l-35 -35q-9 -13 -29 -13h-190q-20 0 -29 13l-35 35q-13 9 -13 29v267q0 20 13 29l35 35q9 13 29 13h190q16 0 29 -13l35 -35q13 -13 13 -29v-267 q0 -20 -13 -29zM535 528l-75 76q-14 6 -18 6h-244q-7 0 -17 -6l-75 -76q-7 -10 -7 -17v-321q0 -7 8 -17l75 -75q6 -7 16 -7h244q10 0 17 7l75 75q7 8 7 17v321q0 8 -6 17zM287 310h30q18 0 30 -12l27 -29q14 -14 14 -29v-20q0 -10 7 -17t17 -7t17 7t7 17v48q0 9 -8 17 l-24 26q-11 11 -11 24q0 15 11 24l25 25q7 10 7 19v24q0 10 -7 17l-54 54q-7 7 -18 7h-129q-10 0 -17 -7t-7 -17v-261q0 -10 7 -17t17 -7t17.5 7t7.5 17v56q0 14 10 24t24 10z" glyph-name="registered" unicode="®"/><glyph d="M450 787h-192q-37 0 -48 37q-16 4 -26.5 17.5t-10.5 30.5q0 21 14.5 36.5t35.5 15.5h192q36 0 48 -37q37 -11 37 -50q0 -21 -14.5 -35.5t-35.5 -14.5zM223 832h192q17 0 28.5 11.5t11.5 28.5t-11.5 29.5t-28.5 12.5h-192q-17 0 -28.5 -12.5t-11.5 -29.5t11.5 -28.5 t28.5 -11.5z" glyph-name="macron" unicode="¯"/><glyph d="M367 585q-10 2 -12 2q-16 0 -27 -10q-3 -4 -10 -11l-4 -4t-3 -4q-6 -14 -6 -21t3 -14q1 0 5 -0.5t7 -0.5q17 0 33 16.5t16 33.5q0 3 -2 13zM383 699l31 -32q0 -1 2 -2l2 -1l63 -64q11 -11 11 -26v-74q0 -18 -11 -28l-62 -62q-11 -11 -28 -11h-73q-16 0 -28 12l-62 61 l-3 3l-32 32q-11 11 -11 28v74q0 15 12 27l61 63q11 11 28 11h73q16 0 27 -11zM192 609v-74q0 -13 8 -21l62 -61q10 -9 21 -9h73q10 0 21 8l62 62q8 8 8 21v74q0 11 -8 19l-63 64q-8 8 -20 8h-73q-10 0 -21 -8l-61 -63q-9 -11 -9 -20zM273 606l13 13q11 13 34 13 q22 0 33 -13l13 -13q13 -11 13 -34q0 -20 -13 -33l-13 -14q-11 -13 -33 -13q-23 0 -34 13l-13 14q-13 11 -13 33q0 23 13 34z" glyph-name="degree" unicode="°"/><glyph d="M528 55q37 -11 37 -48q0 -22 -13.5 -37t-36.5 -15h-320q-36 0 -48 37q-17 4 -27 18t-10 32q0 20 15 35t35 15h320q17 0 30.5 -10.5t17.5 -26.5zM504 265q-14 -3 -30 -3q-4 0 -13 0.5t-14 0.5q-17 0 -29 -11.5t-12 -28.5v-46q0 -21 -15 -36.5t-36 -15.5q-36 0 -48 37 q-38 12 -38 50v46v4q-1 1 -6 1q-4 0 -12.5 -0.5t-14.5 -0.5q-15 0 -30 3q-31 7 -37 36q-37 9 -37 48q0 21 15 36t36 15h45q17 0 29 11.5t12 28.5q0 4 -0.5 13t-0.5 14q0 16 3 31q9 38 49 38q39 0 48 -37q29 -5 36 -37q3 -15 3 -30q0 -6 -0.5 -14.5t-0.5 -12.5t1 -5h5h45 q36 0 48 -37q37 -11 37 -49q0 -40 -38 -49zM457 390h-45q-22 0 -36.5 14.5t-14.5 35.5v46q0 17 -12 28.5t-29 11.5t-29 -11.5t-12 -28.5v-46q0 -21 -14.5 -35.5t-36.5 -14.5h-45q-17 0 -29 -12t-12 -29t12 -29t29 -12h45q22 0 36.5 -14.5t14.5 -35.5v-46q0 -17 12 -29.5 t29 -12.5t29 12.5t12 29.5v46q0 21 14.5 35.5t36.5 14.5h45q17 0 28.5 12t11.5 29t-11.5 29t-28.5 12zM480 82h-320q-17 0 -28.5 -11.5t-11.5 -28.5q0 -18 11.5 -30t28.5 -12h320q17 0 28.5 12t11.5 30q0 17 -11.5 28.5t-28.5 11.5z" glyph-name="plusminus" unicode="±"/><glyph d="M410 958q37 -12 37 -48q0 -22 -15 -35l-83 -84q-12 -14 -36 -14q-39 0 -50 37q-37 13 -37 48q0 21 16 37l82 83q14 14 36 14q38 0 50 -38zM307 833l83 84q12 10 12 28q0 17 -12.5 29t-29.5 12q-15 0 -29 -11l-82 -83q-13 -13 -13 -30t12.5 -28.5t29.5 -11.5q15 0 29 11z " glyph-name="acute" unicode="´"/><glyph d="M422 562v-556q0 -21 -14.5 -36t-35.5 -15q-39 0 -50 37q-16 5 -26.5 18.5t-10.5 30.5v194v5q-1 1 -6 1h-19q-21 0 -36 15l-35 35l-50 50l-35 35q-15 15 -15 37v161q0 22 15 37l86 84q15 15 35 15h275q17 0 30.5 -10.5t18.5 -26.5q16 -5 26.5 -18.5t10.5 -30.5v-618 q0 -21 -15 -36t-36 -15q-17 0 -30.5 10.5t-18.5 26.5q-16 5 -26.5 18.5t-10.5 30.5v532h-16q-11 0 -11 -11zM459 597v-556q0 -17 12 -29t29 -12t29 12t12 29v618q0 17 -12 29t-29 12h-275q-17 0 -28 -12l-86 -84q-12 -15 -12 -30v-161q0 -17 12 -30l85 -85q14 -12 29 -12h19 q21 0 36 -15t15 -36v-194q0 -17 12.5 -29t29.5 -12t28.5 12t11.5 29v556q0 21 21 21h40q21 0 21 -21z" glyph-name="paragraph" unicode="¶"/><glyph d="M380 239h-51q-36 0 -48 37q-17 4 -27 17.5t-10 31.5v50q0 21 14.5 36t35.5 15h51q17 0 30.5 -10.5t18.5 -26.5q16 -5 26.5 -18.5t10.5 -30.5v-50q0 -21 -15 -36t-36 -15zM294 284h51q17 0 29 12t12 29v50q0 17 -12 29t-29 12h-51q-17 0 -28.5 -12t-11.5 -29v-50 q0 -17 11.5 -29t28.5 -12z" glyph-name="periodcentered" unicode="·"/><glyph d="M357 38q23 -2 31 -20q5 -11 5 -36q-2 -20 0 -37q1 -13 5 -20l29 -28q1 -1 3 -4l32 -31q10 -7 10 -25v-62q0 -16 -9 -25l-55 -53q-9 -9 -23 -9h-62q-13 0 -23 10q-2 2 -10 9.5t-12 11.5q-7 7 -9 10l-4 4q-2 2 -10.5 9.5t-12.5 11.5q-17 19 -17 34q0 16 12 26.5t27 10.5 q12 0 20 -5q2 -1 7 -6l2 -2q2 -1 4 -3q10 -10 23 -10q14 0 27.5 14t13.5 28q0 7 -6 18q-8 6 -10 8q-10 10 -14 15l-1 2l-4 4l-2 1q-3 3 -8 7.5t-7 6.5q-9 9 -13 14q-15 17 -15 34v85q0 17 11.5 27t27.5 10q24 0 33 -20q1 -2 4 -15zM291 36v-85q0 -13 9 -23l58 -58 q13 -13 13 -29q0 -17 -13 -30l-9 -9q-13 -13 -29 -13q-17 0 -30 13l-6 6q-7 7 -20 7q-11 0 -20 -8t-9 -19t9 -20l28 -28q6 -7 16 -7h62q10 0 16 7l55 53q6 10 6 17v62q0 8 -7 18l-60 58q-13 13 -13 31v57q0 11 -8 19t-19 8q-12 0 -20.5 -8t-8.5 -19z" glyph-name="cedilla" unicode="¸"/><glyph d="M570 278l-151 -151q-14 -14 -37 -14q-36 0 -48 37q-17 4 -27 18t-10 32q0 6 1 8l-82 -81q-14 -14 -38 -14q-34 0 -47 36q-17 5 -27 19t-10 32q0 24 13 36l85 83q15 15 15 31q0 11 -9 24l-58 56q0 2 -4 5l-31 31q-15 15 -15 35q0 21 17 36.5t38 15.5q22 0 35 -13l33 -33 l2 -2l152 -153q14 -14 14 -37q0 -9 -1 -12l16 16q15 15 15 31q0 11 -9 24l-58 56l-2 2q-1 2 -3 4l-30 30q-15 15 -15 35q0 21 17 36.5t38 15.5t34 -13l35 -35l118 -118l35 -35q14 -14 14 -37q0 -24 -15 -37zM529 380l-153 153q-10 10 -27 10q-18 0 -31.5 -12.5t-13.5 -29.5 q0 -16 12 -28l88 -86q17 -17 17 -37t-18 -38l-85 -83q-11 -14 -11 -29q0 -17 11.5 -29.5t28.5 -12.5q19 0 30 11l151 151q12 14 12 30t-11 30zM325 380l-152 153q-13 10 -28 10q-18 0 -31.5 -12.5t-13.5 -29.5q0 -15 12 -28l88 -86q17 -17 17 -37t-18 -38l-85 -83 q-10 -13 -10 -29q0 -18 11 -30t28 -12q18 0 31 11l150 151q12 14 12 30t-11 30z" glyph-name="guillemotright" unicode="»"/><glyph d="M369 470q37 -12 37 -48v-86q0 -22 -14 -36l-156 -156q-9 -10 -9 -22q0 -10 8 -16l8 -9q8 -5 17 -5h120q13 0 22 9l37 38q7 7 9 14q0 1 0.5 4t0.5 4v12q0 21 15 35.5t36 14.5q17 0 30.5 -10.5t18.5 -26.5q37 -12 37 -48v-47q0 -24 -14 -38l-87 -84q-17 -14 -35 -14h-190 q-20 0 -35 15l-85 84l-3 3l-32 32q-16 16 -16 37v66q0 21 15 36l156 156q9 9 9 22v51q0 21 15 35.5t36 14.5q18 0 31.5 -10t17.5 -27zM389 673q37 -11 37 -49v-40q0 -21 -14.5 -36t-35.5 -15h-41q-36 0 -48 37q-17 4 -27 17.5t-10 31.5v40q0 21 14.5 36t35.5 15h41 q36 0 48 -37zM99 192v-66q0 -13 13 -30l85 -84q11 -12 28 -12h190q17 0 28 12l87 84q11 14 11 30v47q0 17 -12 28.5t-29 11.5t-29 -11.5t-12 -28.5v-13q0 -15 -13 -28l-37 -38q-11 -12 -29 -12h-120q-17 0 -29 12l-39 40q-10 7 -10 23q0 17 12 29l156 156q11 11 11 29v86 q0 17 -12 28.5t-29 11.5t-29 -11.5t-12 -28.5v-51q0 -17 -12 -29l-156 -156q-12 -12 -12 -29zM341 700h-41q-17 0 -28.5 -12t-11.5 -29v-40q0 -17 11.5 -29t28.5 -12h41q17 0 28.5 12t11.5 29v40q0 17 -11.5 29t-28.5 12z" glyph-name="questiondown" unicode="¿"/><glyph d="M439 540l-26 27q-10 6 -19 6h-79q-11 0 -21 -9l-59 -59q-9 -11 -9 -22v-99q0 -5 1 -6h4h177q17 0 29 12t12 29v99q0 11 -10 22zM586 518v-512q0 -21 -15 -36t-36 -15q-17 0 -30.5 10.5t-18.5 26.5q-16 5 -26.5 18.5t-10.5 30.5v194v5q-1 1 -6 1h-177q-17 0 -28.5 -12 t-11.5 -29v-194q0 -21 -15 -36t-36 -15q-17 0 -30.5 10.5t-18.5 26.5q-16 5 -26.5 18.5t-10.5 30.5v512q0 23 15 36l106 106q15 15 36 15h148q22 0 36 -14l31 -32q1 -1 4 -3l106 -108q15 -15 15 -35zM541 41v512q0 17 -12 28l-106 108q-14 11 -29 11h-148q-19 0 -29 -12 l-106 -106q-12 -14 -12 -29v-512q0 -17 12 -29t29 -12t29 12t12 29v194q0 22 14.5 36.5t35.5 14.5h177q21 0 36 -14.5t15 -36.5v-194q0 -17 12 -29t29 -12t29 12t12 29zM459 518v-99q0 -21 -15 -36t-36 -15h-177q-21 0 -35.5 15t-14.5 36v99q0 18 12 29l59 59q12 12 28 12 h79q17 0 29 -12l58 -59q13 -13 13 -29zM315 982l35 -35l48 -48l35 -35q15 -15 15 -37q0 -21 -15.5 -35.5t-36.5 -14.5q-22 0 -36 14l-35 35l-48 48l-35 35q-15 15 -15 36t15 36t36 15q23 0 37 -14zM249 916l83 -83q11 -11 29 -11q17 0 29.5 11.5t12.5 28.5q0 16 -12 30 l-83 83q-14 11 -30 11q-17 0 -29 -12t-12 -29q0 -19 12 -29z" glyph-name="Agrave" unicode="À"/><glyph d="M439 540l-26 27q-10 6 -19 6h-79q-11 0 -21 -9l-59 -59q-9 -11 -9 -22v-99q0 -5 1 -6h4h177q17 0 29 12t12 29v99q0 11 -10 22zM586 518v-512q0 -21 -15 -36t-36 -15q-17 0 -30.5 10.5t-18.5 26.5q-16 5 -26.5 18.5t-10.5 30.5v194v5q-1 1 -6 1h-177q-17 0 -28.5 -12 t-11.5 -29v-194q0 -21 -15 -36t-36 -15q-17 0 -30.5 10.5t-18.5 26.5q-16 5 -26.5 18.5t-10.5 30.5v512q0 23 15 36l106 106q15 15 36 15h148q22 0 36 -14l31 -32q1 -1 4 -3l106 -108q15 -15 15 -35zM541 41v512q0 17 -12 28l-106 108q-14 11 -29 11h-148q-19 0 -29 -12 l-106 -106q-12 -14 -12 -29v-512q0 -17 12 -29t29 -12t29 12t12 29v194q0 22 14.5 36.5t35.5 14.5h177q21 0 36 -14.5t15 -36.5v-194q0 -17 12 -29t29 -12t29 12t12 29zM459 518v-99q0 -21 -15 -36t-36 -15h-177q-21 0 -35.5 15t-14.5 36v99q0 18 12 29l59 59q12 12 28 12 h79q17 0 29 -12l58 -59q13 -13 13 -29zM411 958q37 -12 37 -48q0 -22 -15 -35l-83 -84q-12 -14 -36 -14q-39 0 -50 37q-37 13 -37 48q0 21 16 37l82 83q14 14 36 14q38 0 50 -38zM308 833l83 84q12 10 12 28q0 17 -12.5 29t-29.5 12q-15 0 -29 -11l-82 -83q-13 -13 -13 -30 t12.5 -28.5t29.5 -11.5q15 0 29 11z" glyph-name="Aacute" unicode="Á"/><glyph d="M439 540l-26 27q-10 6 -19 6h-79q-11 0 -21 -9l-59 -59q-9 -11 -9 -22v-99q0 -5 1 -6h4h177q17 0 29 12t12 29v99q0 11 -10 22zM586 518v-512q0 -21 -15 -36t-36 -15q-17 0 -30.5 10.5t-18.5 26.5q-16 5 -26.5 18.5t-10.5 30.5v194v5q-1 1 -6 1h-177q-17 0 -28.5 -12 t-11.5 -29v-194q0 -21 -15 -36t-36 -15q-17 0 -30.5 10.5t-18.5 26.5q-16 5 -26.5 18.5t-10.5 30.5v512q0 23 15 36l106 106q15 15 36 15h148q22 0 36 -14l31 -32q1 -1 4 -3l106 -108q15 -15 15 -35zM541 41v512q0 17 -12 28l-106 108q-14 11 -29 11h-148q-19 0 -29 -12 l-106 -106q-12 -14 -12 -29v-512q0 -17 12 -29t29 -12t29 12t12 29v194q0 22 14.5 36.5t35.5 14.5h177q21 0 36 -14.5t15 -36.5v-194q0 -17 12 -29t29 -12t29 12t12 29zM459 518v-99q0 -21 -15 -36t-36 -15h-177q-21 0 -35.5 15t-14.5 36v99q0 18 12 29l59 59q12 12 28 12 h79q17 0 29 -12l58 -59q13 -13 13 -29zM449 887l33 -32q12 -11 12 -34q0 -20 -12 -32t-32 -12q-18 0 -32 11q-2 2 -6 5t-6 5q-3 4 -10 11q-3 3 -13 14q-1 1 -4 3t-4 3q-10 7 -19 7q-15 0 -40 -27q-2 -1 -3.5 -3t-4 -4.5l-3.5 -3.5t-5 -4.5t-7 -5.5q-14 -11 -32 -11 q-16 0 -28.5 10t-15.5 26q-16 3 -26 14.5t-10 28.5q0 21 13 34l95 93q13 13 32 13t32 -13l94 -93q2 -2 2 -3zM251 831l38 36q12 14 32 14q19 0 31 -14l37 -36q11 -9 26 -9t24.5 9.5t9.5 24.5t-9 27l-94 93q-10 10 -25 10q-16 0 -25 -10l-95 -93q-10 -13 -10 -27t10.5 -24 t24.5 -10q16 0 25 9z" glyph-name="Acircumflex" unicode="Â"/><glyph d="M439 540l-26 27q-10 6 -19 6h-79q-11 0 -21 -9l-59 -59q-9 -11 -9 -22v-99q0 -5 1 -6h4h177q17 0 29 12t12 29v99q0 11 -10 22zM586 518v-512q0 -21 -15 -36t-36 -15q-17 0 -30.5 10.5t-18.5 26.5q-16 5 -26.5 18.5t-10.5 30.5v194v5q-1 1 -6 1h-177q-17 0 -28.5 -12 t-11.5 -29v-194q0 -21 -15 -36t-36 -15q-17 0 -30.5 10.5t-18.5 26.5q-16 5 -26.5 18.5t-10.5 30.5v512q0 23 15 36l106 106q15 15 36 15h148q22 0 36 -14l31 -32q1 -1 4 -3l106 -108q15 -15 15 -35zM541 41v512q0 17 -12 28l-106 108q-14 11 -29 11h-148q-19 0 -29 -12 l-106 -106q-12 -14 -12 -29v-512q0 -17 12 -29t29 -12t29 12t12 29v194q0 22 14.5 36.5t35.5 14.5h177q21 0 36 -14.5t15 -36.5v-194q0 -17 12 -29t29 -12t29 12t12 29zM459 518v-99q0 -21 -15 -36t-36 -15h-177q-21 0 -35.5 15t-14.5 36v99q0 18 12 29l59 59q12 12 28 12 h79q17 0 29 -12l58 -59q13 -13 13 -29zM280 879l-5 -4q0 -4 0.5 -9.5t0.5 -8.5q0 -12 -3 -24q-7 -32 -41 -32q-15 0 -27 10.5t-15 25.5q-15 2 -25.5 14t-10.5 28v51q0 16 11 27l41 41q11 11 27 11h51q18 0 28 -11l31 -31q4 -3 5 -4l40 -41q6 -8 8 -16l5 4v17q0 20 2 25 q9 32 41 32q16 0 28 -10.5t14 -25.5q16 -2 26 -14t10 -28v-50q0 -19 -10 -29l-43 -40q-10 -10 -26 -10h-51q-17 0 -28 10l-41 40l-2 2t-1 3l-32 31q-7 7 -8 16zM230 914l19 19h20l19 -19v-23q0 -14 7 -21l41 -40q11 -8 21 -8h51q13 0 19 8l43 40q7 10 7 21v50 q0 14 -9.5 23.5t-23.5 9.5t-23.5 -9.5t-9.5 -23.5v-35l-18 -18h-21l-19 18v24q0 9 -8 20l-40 41q-11 8 -21 8h-51q-9 0 -20 -8l-41 -41q-8 -8 -8 -20v-51q0 -14 10 -23.5t23 -9.5q14 0 23.5 9.5t9.5 23.5v35z" glyph-name="Atilde" unicode="Ã"/><glyph d="M439 540l-26 27q-10 6 -19 6h-79q-11 0 -21 -9l-59 -59q-9 -11 -9 -22v-99q0 -5 1 -6h4h177q17 0 29 12t12 29v99q0 11 -10 22zM586 518v-512q0 -21 -15 -36t-36 -15q-17 0 -30.5 10.5t-18.5 26.5q-16 5 -26.5 18.5t-10.5 30.5v194v5q-1 1 -6 1h-177q-17 0 -28.5 -12 t-11.5 -29v-194q0 -21 -15 -36t-36 -15q-17 0 -30.5 10.5t-18.5 26.5q-16 5 -26.5 18.5t-10.5 30.5v512q0 23 15 36l106 106q15 15 36 15h148q22 0 36 -14l31 -32q1 -1 4 -3l106 -108q15 -15 15 -35zM541 41v512q0 17 -12 28l-106 108q-14 11 -29 11h-148q-19 0 -29 -12 l-106 -106q-12 -14 -12 -29v-512q0 -17 12 -29t29 -12t29 12t12 29v194q0 22 14.5 36.5t35.5 14.5h177q21 0 36 -14.5t15 -36.5v-194q0 -17 12 -29t29 -12t29 12t12 29zM459 518v-99q0 -21 -15 -36t-36 -15h-177q-21 0 -35.5 15t-14.5 36v99q0 18 12 29l59 59q12 12 28 12 h79q17 0 29 -12l58 -59q13 -13 13 -29zM276 787h-20q-37 0 -48 37q-16 4 -26.5 17.5t-10.5 30.5v21q0 20 15 35t35 15h20q18 0 31.5 -10t17.5 -27q37 -12 37 -48v-21q0 -21 -15 -35.5t-36 -14.5zM454 787h-20q-38 0 -49 37q-37 12 -37 48v21q0 21 15 35.5t36 14.5h20 q17 0 30.5 -10.5t18.5 -26.5q37 -12 37 -48v-21q0 -21 -15 -35.5t-36 -14.5zM399 832h20q17 0 29 11.5t12 28.5v21q0 17 -12 28.5t-29 11.5h-20q-17 0 -29 -11.5t-12 -28.5v-21q0 -17 12 -28.5t29 -11.5zM221 832h20q17 0 29 11.5t12 28.5v21q0 17 -12 28.5t-29 11.5h-20 q-17 0 -28.5 -11.5t-11.5 -28.5v-21q0 -17 11.5 -28.5t28.5 -11.5z" glyph-name="Adieresis" unicode="Ä"/><glyph d="M439 540l-26 27q-10 6 -19 6h-79q-11 0 -21 -9l-59 -59q-9 -11 -9 -22v-99q0 -5 1 -6h4h177q17 0 29 12t12 29v99q0 11 -10 22zM586 518v-512q0 -21 -15 -36t-36 -15q-17 0 -30.5 10.5t-18.5 26.5q-16 5 -26.5 18.5t-10.5 30.5v194v5q-1 1 -6 1h-177q-17 0 -28.5 -12 t-11.5 -29v-194q0 -21 -15 -36t-36 -15q-17 0 -30.5 10.5t-18.5 26.5q-16 5 -26.5 18.5t-10.5 30.5v512q0 23 15 36l106 106q15 15 36 15h148q22 0 36 -14l31 -32q1 -1 4 -3l106 -108q15 -15 15 -35zM541 41v512q0 17 -12 28l-106 108q-14 11 -29 11h-148q-19 0 -29 -12 l-106 -106q-12 -14 -12 -29v-512q0 -17 12 -29t29 -12t29 12t12 29v194q0 22 14.5 36.5t35.5 14.5h177q21 0 36 -14.5t15 -36.5v-194q0 -17 12 -29t29 -12t29 12t12 29zM459 518v-99q0 -21 -15 -36t-36 -15h-177q-21 0 -35.5 15t-14.5 36v99q0 18 12 29l59 59q12 12 28 12 h79q17 0 29 -12l58 -59q13 -13 13 -29zM361 894h-1q-2 1 -4 1q-14 0 -28 -13.5t-14 -27.5v-3q1 -1 1 -3q1 -1 6 -1q14 0 27.5 14t13.5 28q0 4 -1 5zM376 997l31 -32q2 -1 2.5 -2t2.5 -1l53 -55q8 -10 8 -23v-62q0 -15 -9 -24l-53 -53q-6 -9 -25 -9h-61q-15 0 -25 10l-35 35 l-17 17l-35 35q-10 10 -10 24v62q0 14 10 24l52 53q10 10 25 10h61q19 0 25 -9zM213 919v-62q0 -9 7 -17l52 -52q8 -7 18 -7h61q8 0 18 6l53 53q6 8 6 17v62q0 10 -6 16l-53 55q-10 6 -18 6h-61q-10 0 -18 -7l-52 -53q-7 -7 -7 -17zM281 917l11 11q10 12 29 12q16 0 28 -12 l11 -11q12 -12 12 -28q0 -19 -12 -29l-11 -11q-12 -12 -28 -12q-19 0 -29 12l-11 11q-12 10 -12 29q0 16 12 28z" glyph-name="Aring" unicode="Å"/><glyph d="M269 389v169l-52 -52q-11 -14 -11 -23v-99q0 -5 1 -6h5h47q10 0 10 11zM206 200v-194q0 -21 -15 -36t-36 -15q-38 0 -49 37q-37 12 -37 49v512q0 22 14 36l108 106q15 15 35 15h294q37 0 49 -37q37 -11 37 -49q0 -21 -15 -36t-36 -15h-108q-17 0 -29 -12t-12 -29v-125 q0 -5 1 -6h5h88q17 0 30.5 -10.5t18.5 -26.5q16 -5 26.5 -18.5t10.5 -30.5q0 -21 -15 -36t-36 -15h-88q-17 0 -29 -12t-12 -29v-125q0 -5 1 -6h5h108q17 0 30.5 -10.5t18.5 -26.5q16 -5 26.5 -18.5t10.5 -30.5q0 -22 -14.5 -36.5t-36.5 -14.5h-200q-38 0 -49 37 q-37 12 -37 49v200h-22q-17 0 -29 -12t-12 -29zM279 599v-210q0 -21 -20 -21h-47q-21 0 -36 15t-15 36v99q0 18 14 30l57 58q12 12 27 12q20 0 20 -19zM279 266v-225q0 -17 12 -29t29 -12h200q17 0 29 12t12 29t-12 29t-29 12h-108q-22 0 -36.5 15t-14.5 36v125 q0 21 14.5 36t36.5 15h88q17 0 29 12t12 29t-12 29t-29 12h-88q-22 0 -36.5 15t-14.5 36v125q0 21 14.5 36t36.5 15h108q17 0 29 12t12 29t-12 29t-29 12h-294q-18 0 -28 -12l-108 -106q-11 -14 -11 -29v-512q0 -17 12 -29t29 -12t29 12t12 29v194q0 22 15 36.5t36 14.5h47 q20 0 20 -20z" glyph-name="AE" unicode="Æ"/><glyph d="M226 483v-336q0 -11 9 -22l24 -24q9 -9 21 -9h78q13 0 22 9l58 59q8 8 10 21v31q0 21 15 36.5t36 15.5q17 0 30.5 -10.5t18.5 -26.5q16 -5 26.5 -19t10.5 -31v-65q0 -20 -15 -35l-106 -108q-12 -13 -43 -15h-29v-10q0 -9 7 -19l9 -9q10 -8 14 -13q1 -1 9 -11q3 -3 13 -11 l13 -13q15 -17 15 -31v-62q0 -16 -9 -25l-55 -53q-9 -9 -23 -9h-62q-13 0 -23 10q-1 1 -9.5 8.5t-12.5 12.5q-7 7 -9 10l-4 4q-7 5 -23 21q-17 19 -17 34q0 16 12 26.5t27 10.5q12 0 20 -5q2 -1 7 -6l2 -2q2 -1 4 -3q10 -10 23 -10t27 14t14 28q0 7 -6 18q-8 6 -10 8 q-10 10 -14 15l-1 2l-4 4l-2 1q-3 3 -8 7.5t-7 6.5q-9 9 -13 14q-15 17 -15 34v3q-29 7 -38 16l-30 31q-1 1 -5 4l-104 106q-15 15 -15 36v406q0 21 15 36l104 106q15 15 38 15h147q22 0 36 -14l31 -32q1 -1 4 -3l106 -108q15 -15 15 -35v-65q0 -21 -15 -36.5t-36 -15.5 q-36 0 -48 37q-38 12 -38 50q0 1 0.5 15.5t-0.5 15.5q-2 13 -10 21l-26 27q-10 6 -19 6h-78q-11 0 -21 -9l-59 -59q-9 -11 -9 -22zM181 182v336q0 18 12 29l59 59q12 12 28 12h78q17 0 29 -12l58 -59q13 -13 13 -29v-30q0 -17 12 -29.5t29 -12.5t29 12.5t12 29.5v65 q0 17 -12 28l-106 108q-14 11 -29 11h-147q-18 0 -31 -12l-104 -106q-12 -12 -12 -29v-406q0 -17 12 -29l104 -106q13 -12 31 -12h45v-49q0 -13 9 -23l58 -58q13 -13 13 -29q0 -17 -13 -30l-9 -9q-13 -13 -29 -13q-17 0 -30 13l-6 6q-7 7 -20 7q-11 0 -20 -8t-9 -19t9 -20 l28 -28q6 -7 16 -7h62q10 0 16 7l55 53q6 10 6 17v62q0 8 -7 18l-60 58q-13 13 -13 31v21h46q15 0 29 11l106 108q12 11 12 28v65q0 17 -12 29.5t-29 12.5t-29 -12.5t-12 -29.5v-30q0 -16 -13 -29l-58 -59q-12 -12 -29 -12h-78q-16 0 -28 12l-59 59q-12 11 -12 29z" glyph-name="Ccedilla" unicode="Ç"/><glyph d="M548 673q16 -5 26.5 -18.5t10.5 -30.5q0 -21 -15 -36t-36 -15h-268q-17 0 -28.5 -12t-11.5 -29v-125q0 -5 1 -6h4h199q38 0 50 -38q37 -12 37 -48q0 -21 -15.5 -36t-36.5 -15h-199q-17 0 -28.5 -12t-11.5 -29v-125q0 -5 1 -6h4h268q17 0 30.5 -10.5t18.5 -26.5 q16 -5 26.5 -18.5t10.5 -30.5q0 -21 -15 -36t-36 -15h-359q-17 0 -30.5 10.5t-18.5 26.5q-16 5 -26.5 18.5t-10.5 30.5v618q0 21 15 36t36 15h359q17 0 30.5 -10.5t18.5 -26.5zM99 659v-618q0 -17 12 -29t29 -12h359q17 0 29 12t12 29t-12 29t-29 12h-268q-21 0 -35.5 15 t-14.5 36v125q0 21 14.5 36t35.5 15h199q17 0 29.5 12t12.5 29t-12.5 29t-29.5 12h-199q-21 0 -35.5 15t-14.5 36v125q0 21 14.5 36t35.5 15h268q17 0 29 12t12 29t-12 29t-29 12h-359q-17 0 -29 -12t-12 -29zM315 982l35 -35l48 -48l35 -35q15 -15 15 -37 q0 -21 -15.5 -35.5t-36.5 -14.5q-22 0 -36 14l-35 35l-48 48l-35 35q-15 15 -15 36t15 36t36 15q23 0 37 -14zM249 916l83 -83q11 -11 29 -11q17 0 29.5 11.5t12.5 28.5q0 16 -12 30l-83 83q-14 11 -30 11q-17 0 -29 -12t-12 -29q0 -19 12 -29z" glyph-name="Egrave" unicode="È"/><glyph d="M548 673q16 -5 26.5 -18.5t10.5 -30.5q0 -21 -15 -36t-36 -15h-268q-17 0 -28.5 -12t-11.5 -29v-125q0 -5 1 -6h4h199q38 0 50 -38q37 -12 37 -48q0 -21 -15.5 -36t-36.5 -15h-199q-17 0 -28.5 -12t-11.5 -29v-125q0 -5 1 -6h4h268q17 0 30.5 -10.5t18.5 -26.5 q16 -5 26.5 -18.5t10.5 -30.5q0 -21 -15 -36t-36 -15h-359q-17 0 -30.5 10.5t-18.5 26.5q-16 5 -26.5 18.5t-10.5 30.5v618q0 21 15 36t36 15h359q17 0 30.5 -10.5t18.5 -26.5zM99 659v-618q0 -17 12 -29t29 -12h359q17 0 29 12t12 29t-12 29t-29 12h-268q-21 0 -35.5 15 t-14.5 36v125q0 21 14.5 36t35.5 15h199q17 0 29.5 12t12.5 29t-12.5 29t-29.5 12h-199q-21 0 -35.5 15t-14.5 36v125q0 21 14.5 36t35.5 15h268q17 0 29 12t12 29t-12 29t-29 12h-359q-17 0 -29 -12t-12 -29zM411 958q37 -12 37 -48q0 -22 -15 -35l-83 -84q-12 -14 -36 -14 q-39 0 -50 37q-37 13 -37 48q0 21 16 37l82 83q14 14 36 14q38 0 50 -38zM308 833l83 84q12 10 12 28q0 17 -12.5 29t-29.5 12q-15 0 -29 -11l-82 -83q-13 -13 -13 -30t12.5 -28.5t29.5 -11.5q15 0 29 11z" glyph-name="Eacute" unicode="É"/><glyph d="M548 673q16 -5 26.5 -18.5t10.5 -30.5q0 -21 -15 -36t-36 -15h-268q-17 0 -28.5 -12t-11.5 -29v-125q0 -5 1 -6h4h199q38 0 50 -38q37 -12 37 -48q0 -21 -15.5 -36t-36.5 -15h-199q-17 0 -28.5 -12t-11.5 -29v-125q0 -5 1 -6h4h268q17 0 30.5 -10.5t18.5 -26.5 q16 -5 26.5 -18.5t10.5 -30.5q0 -21 -15 -36t-36 -15h-359q-17 0 -30.5 10.5t-18.5 26.5q-16 5 -26.5 18.5t-10.5 30.5v618q0 21 15 36t36 15h359q17 0 30.5 -10.5t18.5 -26.5zM99 659v-618q0 -17 12 -29t29 -12h359q17 0 29 12t12 29t-12 29t-29 12h-268q-21 0 -35.5 15 t-14.5 36v125q0 21 14.5 36t35.5 15h199q17 0 29.5 12t12.5 29t-12.5 29t-29.5 12h-199q-21 0 -35.5 15t-14.5 36v125q0 21 14.5 36t35.5 15h268q17 0 29 12t12 29t-12 29t-29 12h-359q-17 0 -29 -12t-12 -29zM449 887l33 -32q12 -11 12 -34q0 -20 -12 -32t-32 -12 q-18 0 -32 11q-2 2 -6 5t-6 5q-3 4 -10 11q-3 3 -13 14q-1 1 -4 3t-4 3q-10 7 -19 7q-15 0 -40 -27q-2 -1 -3.5 -3t-4 -4.5l-3.5 -3.5t-5 -4.5t-7 -5.5q-14 -11 -32 -11q-16 0 -28.5 10t-15.5 26q-16 3 -26 14.5t-10 28.5q0 21 13 34l95 93q13 13 32 13t32 -13l94 -93 q2 -2 2 -3zM251 831l38 36q12 14 32 14q19 0 31 -14l37 -36q11 -9 26 -9t24.5 9.5t9.5 24.5t-9 27l-94 93q-10 10 -25 10q-16 0 -25 -10l-95 -93q-10 -13 -10 -27t10.5 -24t24.5 -10q16 0 25 9z" glyph-name="Ecircumflex" unicode="Ê"/><glyph d="M548 673q16 -5 26.5 -18.5t10.5 -30.5q0 -21 -15 -36t-36 -15h-268q-17 0 -28.5 -12t-11.5 -29v-125q0 -5 1 -6h4h199q38 0 50 -38q37 -12 37 -48q0 -21 -15.5 -36t-36.5 -15h-199q-17 0 -28.5 -12t-11.5 -29v-125q0 -5 1 -6h4h268q17 0 30.5 -10.5t18.5 -26.5 q16 -5 26.5 -18.5t10.5 -30.5q0 -21 -15 -36t-36 -15h-359q-17 0 -30.5 10.5t-18.5 26.5q-16 5 -26.5 18.5t-10.5 30.5v618q0 21 15 36t36 15h359q17 0 30.5 -10.5t18.5 -26.5zM99 659v-618q0 -17 12 -29t29 -12h359q17 0 29 12t12 29t-12 29t-29 12h-268q-21 0 -35.5 15 t-14.5 36v125q0 21 14.5 36t35.5 15h199q17 0 29.5 12t12.5 29t-12.5 29t-29.5 12h-199q-21 0 -35.5 15t-14.5 36v125q0 21 14.5 36t35.5 15h268q17 0 29 12t12 29t-12 29t-29 12h-359q-17 0 -29 -12t-12 -29zM276 787h-20q-37 0 -48 37q-16 4 -26.5 17.5t-10.5 30.5v21 q0 20 15 35t35 15h20q18 0 31.5 -10t17.5 -27q37 -12 37 -48v-21q0 -21 -15 -35.5t-36 -14.5zM454 787h-20q-38 0 -49 37q-37 12 -37 48v21q0 21 15 35.5t36 14.5h20q17 0 30.5 -10.5t18.5 -26.5q37 -12 37 -48v-21q0 -21 -15 -35.5t-36 -14.5zM399 832h20q17 0 29 11.5 t12 28.5v21q0 17 -12 28.5t-29 11.5h-20q-17 0 -29 -11.5t-12 -28.5v-21q0 -17 12 -28.5t29 -11.5zM221 832h20q17 0 29 11.5t12 28.5v21q0 17 -12 28.5t-29 11.5h-20q-17 0 -28.5 -11.5t-11.5 -28.5v-21q0 -17 11.5 -28.5t28.5 -11.5z" glyph-name="Edieresis" unicode="Ë"/><glyph d="M489 -45h-268q-38 0 -49 37q-37 12 -37 49q0 21 15 36t36 15h42q17 0 29 12t12 29v434v5q-1 1 -6 1h-42q-17 0 -30.5 10.5t-18.5 26.5q-16 5 -26.5 18.5t-10.5 30.5q0 21 15 36t36 15h268q37 0 49 -37q37 -11 37 -49q0 -21 -15 -36t-36 -15h-42q-17 0 -29 -12t-12 -29 v-434q0 -5 1 -6h5h42q17 0 30.5 -10.5t18.5 -26.5q16 -5 26.5 -18.5t10.5 -30.5q0 -22 -14.5 -36.5t-36.5 -14.5zM186 0h268q17 0 29 12t12 29t-12 29t-29 12h-42q-22 0 -36.5 15t-14.5 36v434q0 21 14.5 36t36.5 15h42q17 0 29 12t12 29t-12 29t-29 12h-268q-17 0 -29 -12 t-12 -29t12 -29t29 -12h42q22 0 36.5 -15t14.5 -36v-434q0 -21 -14.5 -36t-36.5 -15h-42q-17 0 -29 -12t-12 -29t12 -29t29 -12zM315 982l35 -35l48 -48l35 -35q15 -15 15 -37q0 -21 -15.5 -35.5t-36.5 -14.5q-22 0 -36 14l-35 35l-48 48l-35 35q-15 15 -15 36t15 36t36 15 q23 0 37 -14zM249 916l83 -83q11 -11 29 -11q17 0 29.5 11.5t12.5 28.5q0 16 -12 30l-83 83q-14 11 -30 11q-17 0 -29 -12t-12 -29q0 -19 12 -29z" glyph-name="Igrave" unicode="Ì"/><glyph d="M489 -45h-268q-38 0 -49 37q-37 12 -37 49q0 21 15 36t36 15h42q17 0 29 12t12 29v434v5q-1 1 -6 1h-42q-17 0 -30.5 10.5t-18.5 26.5q-16 5 -26.5 18.5t-10.5 30.5q0 21 15 36t36 15h268q37 0 49 -37q37 -11 37 -49q0 -21 -15 -36t-36 -15h-42q-17 0 -29 -12t-12 -29 v-434q0 -5 1 -6h5h42q17 0 30.5 -10.5t18.5 -26.5q16 -5 26.5 -18.5t10.5 -30.5q0 -22 -14.5 -36.5t-36.5 -14.5zM186 0h268q17 0 29 12t12 29t-12 29t-29 12h-42q-22 0 -36.5 15t-14.5 36v434q0 21 14.5 36t36.5 15h42q17 0 29 12t12 29t-12 29t-29 12h-268q-17 0 -29 -12 t-12 -29t12 -29t29 -12h42q22 0 36.5 -15t14.5 -36v-434q0 -21 -14.5 -36t-36.5 -15h-42q-17 0 -29 -12t-12 -29t12 -29t29 -12zM411 958q37 -12 37 -48q0 -22 -15 -35l-83 -84q-12 -14 -36 -14q-39 0 -50 37q-37 13 -37 48q0 21 16 37l82 83q14 14 36 14q38 0 50 -38z M308 833l83 84q12 10 12 28q0 17 -12.5 29t-29.5 12q-15 0 -29 -11l-82 -83q-13 -13 -13 -30t12.5 -28.5t29.5 -11.5q15 0 29 11z" glyph-name="Iacute" unicode="Í"/><glyph d="M489 -45h-268q-38 0 -49 37q-37 12 -37 49q0 21 15 36t36 15h42q17 0 29 12t12 29v434v5q-1 1 -6 1h-42q-17 0 -30.5 10.5t-18.5 26.5q-16 5 -26.5 18.5t-10.5 30.5q0 21 15 36t36 15h268q37 0 49 -37q37 -11 37 -49q0 -21 -15 -36t-36 -15h-42q-17 0 -29 -12t-12 -29 v-434q0 -5 1 -6h5h42q17 0 30.5 -10.5t18.5 -26.5q16 -5 26.5 -18.5t10.5 -30.5q0 -22 -14.5 -36.5t-36.5 -14.5zM186 0h268q17 0 29 12t12 29t-12 29t-29 12h-42q-22 0 -36.5 15t-14.5 36v434q0 21 14.5 36t36.5 15h42q17 0 29 12t12 29t-12 29t-29 12h-268q-17 0 -29 -12 t-12 -29t12 -29t29 -12h42q22 0 36.5 -15t14.5 -36v-434q0 -21 -14.5 -36t-36.5 -15h-42q-17 0 -29 -12t-12 -29t12 -29t29 -12zM449 887l33 -32q12 -11 12 -34q0 -20 -12 -32t-32 -12q-18 0 -32 11q-2 2 -6 5t-6 5q-3 4 -10 11q-3 3 -13 14q-1 1 -4 3t-4 3q-10 7 -19 7 q-15 0 -40 -27q-2 -1 -3.5 -3t-4 -4.5l-3.5 -3.5t-5 -4.5t-7 -5.5q-14 -11 -32 -11q-16 0 -28.5 10t-15.5 26q-16 3 -26 14.5t-10 28.5q0 21 13 34l95 93q13 13 32 13t32 -13l94 -93q2 -2 2 -3zM251 831l38 36q12 14 32 14q19 0 31 -14l37 -36q11 -9 26 -9t24.5 9.5 t9.5 24.5t-9 27l-94 93q-10 10 -25 10q-16 0 -25 -10l-95 -93q-10 -13 -10 -27t10.5 -24t24.5 -10q16 0 25 9z" glyph-name="Icircumflex" unicode="Î"/><glyph d="M489 -45h-268q-38 0 -49 37q-37 12 -37 49q0 21 15 36t36 15h42q17 0 29 12t12 29v434v5q-1 1 -6 1h-42q-17 0 -30.5 10.5t-18.5 26.5q-16 5 -26.5 18.5t-10.5 30.5q0 21 15 36t36 15h268q37 0 49 -37q37 -11 37 -49q0 -21 -15 -36t-36 -15h-42q-17 0 -29 -12t-12 -29 v-434q0 -5 1 -6h5h42q17 0 30.5 -10.5t18.5 -26.5q16 -5 26.5 -18.5t10.5 -30.5q0 -22 -14.5 -36.5t-36.5 -14.5zM186 0h268q17 0 29 12t12 29t-12 29t-29 12h-42q-22 0 -36.5 15t-14.5 36v434q0 21 14.5 36t36.5 15h42q17 0 29 12t12 29t-12 29t-29 12h-268q-17 0 -29 -12 t-12 -29t12 -29t29 -12h42q22 0 36.5 -15t14.5 -36v-434q0 -21 -14.5 -36t-36.5 -15h-42q-17 0 -29 -12t-12 -29t12 -29t29 -12zM276 787h-20q-37 0 -48 37q-16 4 -26.5 17.5t-10.5 30.5v21q0 20 15 35t35 15h20q18 0 31.5 -10t17.5 -27q37 -12 37 -48v-21q0 -21 -15 -35.5 t-36 -14.5zM454 787h-20q-38 0 -49 37q-37 12 -37 48v21q0 21 15 35.5t36 14.5h20q17 0 30.5 -10.5t18.5 -26.5q37 -12 37 -48v-21q0 -21 -15 -35.5t-36 -14.5zM399 832h20q17 0 29 11.5t12 28.5v21q0 17 -12 28.5t-29 11.5h-20q-17 0 -29 -11.5t-12 -28.5v-21 q0 -17 12 -28.5t29 -11.5zM221 832h20q17 0 29 11.5t12 28.5v21q0 17 -12 28.5t-29 11.5h-20q-17 0 -28.5 -11.5t-11.5 -28.5v-21q0 -17 11.5 -28.5t28.5 -11.5z" glyph-name="Idieresis" unicode="Ï"/><glyph d="M226 255v-157q0 -5 1 -6h4h128q13 0 22 9l58 59q10 11 10 22v336q0 11 -10 22l-26 27q-10 6 -19 6h-128q-17 0 -28.5 -12t-11.5 -29v-130h117q36 0 48 -37q37 -11 37 -49q0 -21 -14.5 -36t-35.5 -15h-142q-10 0 -10 -10zM430 696l31 -32q1 -1 4 -3l106 -108 q15 -15 15 -35v-406q0 -20 -15 -35l-106 -108q-12 -14 -36 -14h-254q-17 0 -30.5 10.5t-18.5 26.5q-16 5 -26.5 18.5t-10.5 30.5v226q-26 8 -34 35q-16 5 -26.5 18.5t-10.5 30.5q0 20 15.5 35.5t35.5 15.5h10l6 2q4 0 4 8v247q0 21 15 36t36 15h254q22 0 36 -14zM99 659 v-247q0 -20 -20 -20h-10q-17 0 -29 -12t-12 -29t12 -29t29 -12h10q20 0 20 -20v-249q0 -17 12 -29t29 -12h254q15 0 29 11l106 108q12 11 12 28v406q0 17 -12 28l-106 108q-14 11 -29 11h-254q-17 0 -29 -12t-12 -29zM181 133v157q0 20 20 20h142q17 0 28.5 12t11.5 29 t-11.5 29t-28.5 12h-142q-20 0 -20 20v155q0 21 14.5 36t35.5 15h128q17 0 29 -12l58 -59q13 -13 13 -29v-336q0 -16 -13 -29l-58 -59q-12 -12 -29 -12h-128q-21 0 -35.5 15t-14.5 36z" glyph-name="Eth" unicode="Ð"/><glyph d="M455 15l-229 393v-402q0 -21 -15 -36t-36 -15q-17 0 -30.5 10.5t-18.5 26.5q-16 5 -26.5 18.5t-10.5 30.5v618q0 21 15 36t36 15q30 0 45 -25l7 -13q19 -6 28 -22l229 -394v403q0 21 15 36t36 15q17 0 30.5 -10.5t18.5 -26.5q16 -5 26.5 -18.5t10.5 -30.5v-618 q0 -21 -15 -36t-36 -15q-30 0 -44 25l-8 13q-18 7 -28 22zM442 223l-266 457q-14 20 -36 20q-17 0 -29 -12t-12 -29v-618q0 -17 12 -29t29 -12t29 12t12 29v433q0 12 7 12q4 0 9 -8l267 -458q12 -20 36 -20q17 0 29 12t12 29v618q0 17 -12 29t-29 12t-29 -12t-12 -29v-432 q0 -12 -8 -12q-4 0 -9 8zM280 879l-5 -4q0 -4 0.5 -9.5t0.5 -8.5q0 -12 -3 -24q-7 -32 -41 -32q-15 0 -27 10.5t-15 25.5q-15 2 -25.5 14t-10.5 28v51q0 16 11 27l41 41q11 11 27 11h51q18 0 28 -11l31 -31q4 -3 5 -4l40 -41q6 -8 8 -16l5 4v17q0 20 2 25q9 32 41 32 q16 0 28 -10.5t14 -25.5q16 -2 26 -14t10 -28v-50q0 -19 -10 -29l-43 -40q-10 -10 -26 -10h-51q-17 0 -28 10l-41 40l-2 2t-1 3l-32 31q-7 7 -8 16zM230 914l19 19h20l19 -19v-23q0 -14 7 -21l41 -40q11 -8 21 -8h51q13 0 19 8l43 40q7 10 7 21v50q0 14 -9.5 23.5t-23.5 9.5 t-23.5 -9.5t-9.5 -23.5v-35l-18 -18h-21l-19 18v24q0 9 -8 20l-40 41q-11 8 -21 8h-51q-9 0 -20 -8l-41 -41q-8 -8 -8 -20v-51q0 -14 10 -23.5t23 -9.5q14 0 23.5 9.5t9.5 23.5v35z" glyph-name="Ntilde" unicode="Ñ"/><glyph d="M439 561l-7 7q-8 5 -17 5h-121q-12 0 -21 -9l-37 -38q-10 -10 -10 -21v-380q0 -11 10 -21l6 -7q8 -5 17 -5h121q13 0 22 9l37 38q10 10 10 21v380q0 11 -10 21zM586 539v-448q0 -24 -14 -38l-87 -84q-14 -14 -36 -14h-190q-20 0 -35 15l-85 84q-1 1 -2 3l-33 32 q-15 15 -15 37v448q0 22 15 37l85 84q15 15 35 15h190q20 0 36 -15l87 -84l3 -3l1 -2l31 -30q14 -12 14 -37zM530 604l-87 84q-10 12 -29 12h-190q-18 0 -28 -12l-85 -84q-12 -15 -12 -30v-448q0 -15 12 -30l85 -84q10 -12 28 -12h190q18 0 29 12l87 84q11 14 11 30v448 q0 16 -11 30zM446 132l-37 -38q-11 -12 -29 -12h-121q-17 0 -29 12l-37 38q-12 12 -12 28v380q0 16 12 28l37 38q12 12 29 12h121q18 0 29 -12l37 -38q13 -13 13 -28v-380q0 -15 -13 -28zM315 982l35 -35l48 -48l35 -35q15 -15 15 -37q0 -21 -15.5 -35.5t-36.5 -14.5 q-22 0 -36 14l-35 35l-48 48l-35 35q-15 15 -15 36t15 36t36 15q23 0 37 -14zM249 916l83 -83q11 -11 29 -11q17 0 29.5 11.5t12.5 28.5q0 16 -12 30l-83 83q-14 11 -30 11q-17 0 -29 -12t-12 -29q0 -19 12 -29z" glyph-name="Ograve" unicode="Ò"/><glyph d="M439 561l-7 7q-8 5 -17 5h-121q-12 0 -21 -9l-37 -38q-10 -10 -10 -21v-380q0 -11 10 -21l6 -7q8 -5 17 -5h121q13 0 22 9l37 38q10 10 10 21v380q0 11 -10 21zM586 539v-448q0 -24 -14 -38l-87 -84q-14 -14 -36 -14h-190q-20 0 -35 15l-85 84q-1 1 -2 3l-33 32 q-15 15 -15 37v448q0 22 15 37l85 84q15 15 35 15h190q20 0 36 -15l87 -84l3 -3l1 -2l31 -30q14 -12 14 -37zM530 604l-87 84q-10 12 -29 12h-190q-18 0 -28 -12l-85 -84q-12 -15 -12 -30v-448q0 -15 12 -30l85 -84q10 -12 28 -12h190q18 0 29 12l87 84q11 14 11 30v448 q0 16 -11 30zM446 132l-37 -38q-11 -12 -29 -12h-121q-17 0 -29 12l-37 38q-12 12 -12 28v380q0 16 12 28l37 38q12 12 29 12h121q18 0 29 -12l37 -38q13 -13 13 -28v-380q0 -15 -13 -28zM411 958q37 -12 37 -48q0 -22 -15 -35l-83 -84q-12 -14 -36 -14q-39 0 -50 37 q-37 13 -37 48q0 21 16 37l82 83q14 14 36 14q38 0 50 -38zM308 833l83 84q12 10 12 28q0 17 -12.5 29t-29.5 12q-15 0 -29 -11l-82 -83q-13 -13 -13 -30t12.5 -28.5t29.5 -11.5q15 0 29 11z" glyph-name="Oacute" unicode="Ó"/><glyph d="M439 561l-7 7q-8 5 -17 5h-121q-12 0 -21 -9l-37 -38q-10 -10 -10 -21v-380q0 -11 10 -21l6 -7q8 -5 17 -5h121q13 0 22 9l37 38q10 10 10 21v380q0 11 -10 21zM586 539v-448q0 -24 -14 -38l-87 -84q-14 -14 -36 -14h-190q-20 0 -35 15l-85 84q-1 1 -2 3l-33 32 q-15 15 -15 37v448q0 22 15 37l85 84q15 15 35 15h190q20 0 36 -15l87 -84l3 -3l1 -2l31 -30q14 -12 14 -37zM530 604l-87 84q-10 12 -29 12h-190q-18 0 -28 -12l-85 -84q-12 -15 -12 -30v-448q0 -15 12 -30l85 -84q10 -12 28 -12h190q18 0 29 12l87 84q11 14 11 30v448 q0 16 -11 30zM446 132l-37 -38q-11 -12 -29 -12h-121q-17 0 -29 12l-37 38q-12 12 -12 28v380q0 16 12 28l37 38q12 12 29 12h121q18 0 29 -12l37 -38q13 -13 13 -28v-380q0 -15 -13 -28zM449 887l33 -32q12 -11 12 -34q0 -20 -12 -32t-32 -12q-18 0 -32 11q-2 2 -6 5t-6 5 q-3 4 -10 11q-3 3 -13 14q-1 1 -4 3t-4 3q-10 7 -19 7q-15 0 -40 -27q-2 -1 -3.5 -3t-4 -4.5l-3.5 -3.5t-5 -4.5t-7 -5.5q-14 -11 -32 -11q-16 0 -28.5 10t-15.5 26q-16 3 -26 14.5t-10 28.5q0 21 13 34l95 93q13 13 32 13t32 -13l94 -93q2 -2 2 -3zM251 831l38 36 q12 14 32 14q19 0 31 -14l37 -36q11 -9 26 -9t24.5 9.5t9.5 24.5t-9 27l-94 93q-10 10 -25 10q-16 0 -25 -10l-95 -93q-10 -13 -10 -27t10.5 -24t24.5 -10q16 0 25 9z" glyph-name="Ocircumflex" unicode="Ô"/><glyph d="M439 561l-7 7q-8 5 -17 5h-121q-12 0 -21 -9l-37 -38q-10 -10 -10 -21v-380q0 -11 10 -21l6 -7q8 -5 17 -5h121q13 0 22 9l37 38q10 10 10 21v380q0 11 -10 21zM586 539v-448q0 -24 -14 -38l-87 -84q-14 -14 -36 -14h-190q-20 0 -35 15l-85 84q-1 1 -2 3l-33 32 q-15 15 -15 37v448q0 22 15 37l85 84q15 15 35 15h190q20 0 36 -15l87 -84l3 -3l1 -2l31 -30q14 -12 14 -37zM530 604l-87 84q-10 12 -29 12h-190q-18 0 -28 -12l-85 -84q-12 -15 -12 -30v-448q0 -15 12 -30l85 -84q10 -12 28 -12h190q18 0 29 12l87 84q11 14 11 30v448 q0 16 -11 30zM446 132l-37 -38q-11 -12 -29 -12h-121q-17 0 -29 12l-37 38q-12 12 -12 28v380q0 16 12 28l37 38q12 12 29 12h121q18 0 29 -12l37 -38q13 -13 13 -28v-380q0 -15 -13 -28zM280 879l-5 -4q0 -4 0.5 -9.5t0.5 -8.5q0 -12 -3 -24q-7 -32 -41 -32q-15 0 -27 10.5 t-15 25.5q-15 2 -25.5 14t-10.5 28v51q0 16 11 27l41 41q11 11 27 11h51q18 0 28 -11l31 -31q4 -3 5 -4l40 -41q6 -8 8 -16l5 4v17q0 20 2 25q9 32 41 32q16 0 28 -10.5t14 -25.5q16 -2 26 -14t10 -28v-50q0 -19 -10 -29l-43 -40q-10 -10 -26 -10h-51q-17 0 -28 10l-41 40 l-2 2t-1 3l-32 31q-7 7 -8 16zM230 914l19 19h20l19 -19v-23q0 -14 7 -21l41 -40q11 -8 21 -8h51q13 0 19 8l43 40q7 10 7 21v50q0 14 -9.5 23.5t-23.5 9.5t-23.5 -9.5t-9.5 -23.5v-35l-18 -18h-21l-19 18v24q0 9 -8 20l-40 41q-11 8 -21 8h-51q-9 0 -20 -8l-41 -41 q-8 -8 -8 -20v-51q0 -14 10 -23.5t23 -9.5q14 0 23.5 9.5t9.5 23.5v35z" glyph-name="Otilde" unicode="Õ"/><glyph d="M439 561l-7 7q-8 5 -17 5h-121q-12 0 -21 -9l-37 -38q-10 -10 -10 -21v-380q0 -11 10 -21l6 -7q8 -5 17 -5h121q13 0 22 9l37 38q10 10 10 21v380q0 11 -10 21zM586 539v-448q0 -24 -14 -38l-87 -84q-14 -14 -36 -14h-190q-20 0 -35 15l-85 84q-1 1 -2 3l-33 32 q-15 15 -15 37v448q0 22 15 37l85 84q15 15 35 15h190q20 0 36 -15l87 -84l3 -3l1 -2l31 -30q14 -12 14 -37zM530 604l-87 84q-10 12 -29 12h-190q-18 0 -28 -12l-85 -84q-12 -15 -12 -30v-448q0 -15 12 -30l85 -84q10 -12 28 -12h190q18 0 29 12l87 84q11 14 11 30v448 q0 16 -11 30zM446 132l-37 -38q-11 -12 -29 -12h-121q-17 0 -29 12l-37 38q-12 12 -12 28v380q0 16 12 28l37 38q12 12 29 12h121q18 0 29 -12l37 -38q13 -13 13 -28v-380q0 -15 -13 -28zM276 787h-20q-37 0 -48 37q-16 4 -26.5 17.5t-10.5 30.5v21q0 20 15 35t35 15h20 q18 0 31.5 -10t17.5 -27q37 -12 37 -48v-21q0 -21 -15 -35.5t-36 -14.5zM454 787h-20q-38 0 -49 37q-37 12 -37 48v21q0 21 15 35.5t36 14.5h20q17 0 30.5 -10.5t18.5 -26.5q37 -12 37 -48v-21q0 -21 -15 -35.5t-36 -14.5zM399 832h20q17 0 29 11.5t12 28.5v21 q0 17 -12 28.5t-29 11.5h-20q-17 0 -29 -11.5t-12 -28.5v-21q0 -17 12 -28.5t29 -11.5zM221 832h20q17 0 29 11.5t12 28.5v21q0 17 -12 28.5t-29 11.5h-20q-17 0 -28.5 -11.5t-11.5 -28.5v-21q0 -17 11.5 -28.5t28.5 -11.5z" glyph-name="Odieresis" unicode="Ö"/><glyph d="M492 128q-23 0 -38 15l-35 35l-36 36q-13 13 -27 13q-15 0 -29 -13l-72 -72q-14 -16 -36 -16q-17 0 -30.5 10.5t-18.5 26.5q-38 12 -38 51q0 21 14 35l72 73q13 13 13 28q0 16 -13 29l-37 37l-35 35q-14 14 -14 35t15.5 37t36.5 16q20 0 36 -16l35 -35l37 -37 q12 -12 29 -12q13 0 27 12l72 72q16 16 39 16q15 0 27.5 -11t18.5 -26q17 -5 27.5 -19.5t10.5 -30.5q0 -22 -15 -36l-72 -72q-11 -11 -11 -29q0 -16 12 -28l36 -36l35 -35q15 -15 15 -39q0 -20 -16 -34.5t-35 -14.5zM486 244l-71 71q-15 15 -15 35q0 19 14 36l72 72 q12 14 12 29q0 16 -12 28.5t-27 13.5h-2q-16 0 -30 -13l-72 -72q-15 -15 -34 -15q-21 0 -36 15l-72 72q-14 13 -29 13q-17 0 -29.5 -13t-12.5 -30t11 -28l72 -72q16 -16 16 -36q0 -22 -16 -35l-72 -73q-11 -14 -11 -28q0 -16 12.5 -29.5t29.5 -13.5q15 0 29 13l72 72 q13 16 36 16q21 0 34 -16l71 -71q13 -12 31 -12q16 0 28 12t13 27v2q0 15 -12 30z" glyph-name="multiply" unicode="×"/><glyph d="M449 160v175l-213 -212q-6 -7 -6 -12q0 -3 2 -5l5 -5q9 -9 23 -9h119q13 0 23 10l36 35q11 11 11 23zM442 559l-5 5q-9 9 -23 9h-119q-12 0 -23 -11l-36 -35q-10 -10 -10 -22v-175l212 212q6 6 6 12q0 3 -2 5zM654 564q0 -22 -14 -36l-44 -46q-10 -10 -10 -22v-368 q0 -24 -15 -39l-87 -84q-17 -14 -35 -14h-189q-20 0 -35 15l-65 64q-1 0 -3 1.5t-4 1.5h-1q0 -1 -1 -2t-9 -7q-12 -12 -36 -12q-36 0 -48 37q-17 4 -27 17.5t-10 31.5q0 23 14 37l43 44q10 10 10 22v369q0 23 16 37l86 84q15 15 35 15h189q20 0 35 -15l65 -64q3 -3 7 -3 q3 0 4 1l3 3l4 4q15 13 36 13q17 0 30.5 -10.5t18.5 -26.5q37 -12 37 -48zM445 130l-36 -35q-13 -13 -30 -13h-119q-18 0 -30 12l-40 40q-5 5 -5 12q0 12 9 19l245 245q5 6 10 6q10 0 10 -13v-243q0 -16 -14 -30zM194 570l36 35q13 13 30 13h119q18 0 30 -12l40 -40 q5 -5 5 -12q0 -12 -9 -19l-245 -245q-4 -6 -10 -6q-9 0 -9 13v243q0 17 13 30zM538 628l-3 -3q-4 -7 -14 -7q-8 0 -14 6l-65 64q-11 12 -28 12h-189q-17 0 -28 -12l-86 -84q-13 -17 -13 -30v-369q0 -16 -13 -29l-43 -44q-11 -11 -11 -30q0 -17 11.5 -29t28.5 -12q18 0 31 11 l3 3q4 7 13 7q8 0 14 -6l65 -64q11 -12 28 -12h189q18 0 28 12l87 84q12 15 12 31v368q0 17 12 29l44 46q12 9 12 29q0 17 -12 28.5t-29 11.5q-19 0 -30 -11z" glyph-name="Oslash" unicode="Ø"/><glyph d="M549 673q16 -5 26.5 -18.5t10.5 -30.5v-533q0 -24 -14 -38l-87 -84q-14 -14 -36 -14h-190q-20 0 -35 15l-85 84q-1 1 -2 3l-33 32q-15 15 -15 37v533q0 21 15 36t36 15q17 0 30.5 -10.5t18.5 -26.5q16 -5 26.5 -18.5t10.5 -30.5v-499q0 -11 10 -21l6 -7q8 -5 17 -5h121 q13 0 22 9l37 38q10 10 10 21v499q0 21 15 36t36 15q17 0 30.5 -10.5t18.5 -26.5zM181 160v499q0 17 -12 29t-29 12t-29 -12t-12 -29v-533q0 -15 12 -30l85 -84q10 -12 28 -12h190q18 0 29 12l87 84q11 14 11 30v533q0 17 -12 29t-29 12t-29 -12t-12 -29v-499q0 -15 -13 -28 l-37 -38q-11 -12 -29 -12h-121q-17 0 -29 12l-37 38q-12 12 -12 28zM315 982l35 -35l48 -48l35 -35q15 -15 15 -37q0 -21 -15.5 -35.5t-36.5 -14.5q-22 0 -36 14l-35 35l-48 48l-35 35q-15 15 -15 36t15 36t36 15q23 0 37 -14zM249 916l83 -83q11 -11 29 -11q17 0 29.5 11.5 t12.5 28.5q0 16 -12 30l-83 83q-14 11 -30 11q-17 0 -29 -12t-12 -29q0 -19 12 -29z" glyph-name="Ugrave" unicode="Ù"/><glyph d="M549 673q16 -5 26.5 -18.5t10.5 -30.5v-533q0 -24 -14 -38l-87 -84q-14 -14 -36 -14h-190q-20 0 -35 15l-85 84q-1 1 -2 3l-33 32q-15 15 -15 37v533q0 21 15 36t36 15q17 0 30.5 -10.5t18.5 -26.5q16 -5 26.5 -18.5t10.5 -30.5v-499q0 -11 10 -21l6 -7q8 -5 17 -5h121 q13 0 22 9l37 38q10 10 10 21v499q0 21 15 36t36 15q17 0 30.5 -10.5t18.5 -26.5zM181 160v499q0 17 -12 29t-29 12t-29 -12t-12 -29v-533q0 -15 12 -30l85 -84q10 -12 28 -12h190q18 0 29 12l87 84q11 14 11 30v533q0 17 -12 29t-29 12t-29 -12t-12 -29v-499q0 -15 -13 -28 l-37 -38q-11 -12 -29 -12h-121q-17 0 -29 12l-37 38q-12 12 -12 28zM411 958q37 -12 37 -48q0 -22 -15 -35l-83 -84q-12 -14 -36 -14q-39 0 -50 37q-37 13 -37 48q0 21 16 37l82 83q14 14 36 14q38 0 50 -38zM308 833l83 84q12 10 12 28q0 17 -12.5 29t-29.5 12 q-15 0 -29 -11l-82 -83q-13 -13 -13 -30t12.5 -28.5t29.5 -11.5q15 0 29 11z" glyph-name="Uacute" unicode="Ú"/><glyph d="M549 673q16 -5 26.5 -18.5t10.5 -30.5v-533q0 -24 -14 -38l-87 -84q-14 -14 -36 -14h-190q-20 0 -35 15l-85 84q-1 1 -2 3l-33 32q-15 15 -15 37v533q0 21 15 36t36 15q17 0 30.5 -10.5t18.5 -26.5q16 -5 26.5 -18.5t10.5 -30.5v-499q0 -11 10 -21l6 -7q8 -5 17 -5h121 q13 0 22 9l37 38q10 10 10 21v499q0 21 15 36t36 15q17 0 30.5 -10.5t18.5 -26.5zM181 160v499q0 17 -12 29t-29 12t-29 -12t-12 -29v-533q0 -15 12 -30l85 -84q10 -12 28 -12h190q18 0 29 12l87 84q11 14 11 30v533q0 17 -12 29t-29 12t-29 -12t-12 -29v-499q0 -15 -13 -28 l-37 -38q-11 -12 -29 -12h-121q-17 0 -29 12l-37 38q-12 12 -12 28zM449 887l33 -32q12 -11 12 -34q0 -20 -12 -32t-32 -12q-18 0 -32 11q-2 2 -6 5t-6 5q-3 4 -10 11q-3 3 -13 14q-1 1 -4 3t-4 3q-10 7 -19 7q-15 0 -40 -27q-2 -1 -3.5 -3t-4 -4.5l-3.5 -3.5t-5 -4.5 t-7 -5.5q-14 -11 -32 -11q-16 0 -28.5 10t-15.5 26q-16 3 -26 14.5t-10 28.5q0 21 13 34l95 93q13 13 32 13t32 -13l94 -93q2 -2 2 -3zM251 831l38 36q12 14 32 14q19 0 31 -14l37 -36q11 -9 26 -9t24.5 9.5t9.5 24.5t-9 27l-94 93q-10 10 -25 10q-16 0 -25 -10l-95 -93 q-10 -13 -10 -27t10.5 -24t24.5 -10q16 0 25 9z" glyph-name="Ucircumflex" unicode="Û"/><glyph d="M549 673q16 -5 26.5 -18.5t10.5 -30.5v-533q0 -24 -14 -38l-87 -84q-14 -14 -36 -14h-190q-20 0 -35 15l-85 84q-1 1 -2 3l-33 32q-15 15 -15 37v533q0 21 15 36t36 15q17 0 30.5 -10.5t18.5 -26.5q16 -5 26.5 -18.5t10.5 -30.5v-499q0 -11 10 -21l6 -7q8 -5 17 -5h121 q13 0 22 9l37 38q10 10 10 21v499q0 21 15 36t36 15q17 0 30.5 -10.5t18.5 -26.5zM181 160v499q0 17 -12 29t-29 12t-29 -12t-12 -29v-533q0 -15 12 -30l85 -84q10 -12 28 -12h190q18 0 29 12l87 84q11 14 11 30v533q0 17 -12 29t-29 12t-29 -12t-12 -29v-499q0 -15 -13 -28 l-37 -38q-11 -12 -29 -12h-121q-17 0 -29 12l-37 38q-12 12 -12 28zM276 787h-20q-37 0 -48 37q-16 4 -26.5 17.5t-10.5 30.5v21q0 20 15 35t35 15h20q18 0 31.5 -10t17.5 -27q37 -12 37 -48v-21q0 -21 -15 -35.5t-36 -14.5zM454 787h-20q-38 0 -49 37q-37 12 -37 48v21 q0 21 15 35.5t36 14.5h20q17 0 30.5 -10.5t18.5 -26.5q37 -12 37 -48v-21q0 -21 -15 -35.5t-36 -14.5zM399 832h20q17 0 29 11.5t12 28.5v21q0 17 -12 28.5t-29 11.5h-20q-17 0 -29 -11.5t-12 -28.5v-21q0 -17 12 -28.5t29 -11.5zM221 832h20q17 0 29 11.5t12 28.5v21 q0 17 -12 28.5t-29 11.5h-20q-17 0 -28.5 -11.5t-11.5 -28.5v-21q0 -17 11.5 -28.5t28.5 -11.5z" glyph-name="Udieresis" unicode="Ü"/><glyph d="M189 673q16 -5 26.5 -18.5t10.5 -30.5v-137q0 -12 9 -21l56 -56q12 -12 29 -12t29 12l91 91q9 9 9 21v137q0 21 15 36t36 15q17 0 30.5 -10.5t18.5 -26.5q16 -5 26.5 -18.5t10.5 -30.5v-171q0 -23 -15 -37l-156 -156q-9 -10 -9 -21v-233q0 -22 -14.5 -36.5t-36.5 -14.5 q-38 0 -49 37q-37 12 -37 49v233q0 12 -9 21l-155 156q-16 16 -16 37v171q0 21 15 36t36 15q17 0 30.5 -10.5t18.5 -26.5zM112 458l155 -156q12 -12 12 -28v-233q0 -17 12 -29t29 -12t29 12t12 29v233q0 16 12 28l156 156q12 14 12 30v171q0 17 -12 29t-29 12t-29 -12 t-12 -29v-137q0 -16 -12 -28l-91 -91q-15 -15 -36 -15t-36 15l-91 91q-12 12 -12 28v137q0 17 -12 29t-29 12t-29 -12t-12 -29v-171q0 -15 13 -30zM411 958q37 -12 37 -48q0 -22 -15 -35l-83 -84q-12 -14 -36 -14q-39 0 -50 37q-37 13 -37 48q0 21 16 37l82 83q14 14 36 14 q38 0 50 -38zM308 833l83 84q12 10 12 28q0 17 -12.5 29t-29.5 12q-15 0 -29 -11l-82 -83q-13 -13 -13 -30t12.5 -28.5t29.5 -11.5q15 0 29 11z" glyph-name="Yacute" unicode="Ý"/><glyph d="M439 439l-26 27q-10 6 -19 6h-128q-17 0 -28.5 -11.5t-11.5 -28.5v-233q0 -4 1 -5h4h128q13 0 22 9l58 59q10 10 10 21v135q0 11 -10 21zM188 673q38 -9 38 -59q0 -4 1 -5h4h163q23 0 36 -15l35 -35l71 -71l35 -35q15 -15 15 -36v-203q0 -22 -15 -36l-106 -107 q-14 -14 -36 -14h-163q-17 0 -28.5 -12t-11.5 -29q0 -61 -51 -61q-17 0 -30.5 10.5t-18.5 26.5q-16 5 -26.5 18.5t-10.5 30.5v618q0 21 15 36t36 15q35 0 48 -37zM459 418v-135q0 -15 -13 -28l-58 -59q-12 -12 -29 -12h-128q-21 0 -35.5 14.5t-14.5 35.5v233q0 21 14.5 35.5 t35.5 14.5h128q17 0 29 -12l58 -59q13 -13 13 -28zM99 659v-618q0 -17 12 -29t29 -12t29 12t12 29v10q0 21 14.5 36t35.5 15h163q15 0 29 11l106 107q12 10 12 29v203q0 18 -12 29l-106 106q-13 12 -29 12h-163q-21 0 -35.5 14.5t-14.5 35.5v10q0 17 -12 29t-29 12t-29 -12 t-12 -29z" glyph-name="Thorn" unicode="Þ"/><glyph d="M510 611l4 -4l31 -31q14 -11 14 -37v-107q0 -16 -8 -30q-1 -2 -4 -5.5t-5 -5.5l-9 -9q-20 -22 -20 -35q0 -16 13 -29l49 -50q14 -14 14 -37v-139q0 -25 -14 -39l-86 -84q-14 -14 -36 -14h-131q-39 0 -50 37q-37 12 -37 49q0 21 15.5 36t36.5 15h96q13 0 23 10 q26 26 33 34q11 13 12 18q2 6 2 25q0 5 -0.5 22t-0.5 31q0 12 -10 22l-56 56l-35 35q-15 15 -15 37q0 18 16 38q6 8 15 15q12 13 16 15q4 4 14.5 13.5t14.5 14.5q11 14 11 25v37q0 11 -11 22l-1 1q-10 10 -23 10h-92q-9 0 -23 -10l-36 -36q-10 -10 -10 -22v-575 q0 -21 -15 -35.5t-36 -14.5q-38 0 -49 37q-37 12 -37 48v609q0 23 14 37l86 84q15 15 36 15h162q21 0 36 -15zM182 -35v575q0 16 13 29l36 36q13 13 30 13h92q17 0 30 -13l36 -36q14 -14 14 -29v-37q0 -17 -14 -31l-61 -61q-12 -13 -12 -29t12 -30l91 -91q13 -13 13 -29v-72 q0 -16 -13 -29l-36 -36q-13 -13 -30 -13h-96q-17 0 -29.5 -12t-12.5 -29t12.5 -29t29.5 -12h131q18 0 29 12l86 84q11 14 11 31v139q0 19 -11 30l-49 50q-16 15 -16 36q0 20 16 35l19 21q11 11 11 29v107q0 16 -11 30l-86 84q-14 12 -29 12h-162q-18 0 -29 -12l-86 -84 q-11 -14 -11 -30v-609q0 -17 12 -28.5t29 -11.5t29 11.5t12 28.5z" glyph-name="germandbls" unicode="ß"/><glyph d="M439 540l-26 27q-10 6 -19 6h-79q-11 0 -21 -9l-59 -59q-9 -11 -9 -22v-99q0 -5 1 -6h4h177q17 0 29 12t12 29v99q0 11 -10 22zM586 518v-512q0 -21 -15 -36t-36 -15q-17 0 -30.5 10.5t-18.5 26.5q-16 5 -26.5 18.5t-10.5 30.5v194v5q-1 1 -6 1h-177q-17 0 -28.5 -12 t-11.5 -29v-194q0 -21 -15 -36t-36 -15q-17 0 -30.5 10.5t-18.5 26.5q-16 5 -26.5 18.5t-10.5 30.5v512q0 23 15 36l106 106q15 15 36 15h148q22 0 36 -14l31 -32q1 -1 4 -3l106 -108q15 -15 15 -35zM541 41v512q0 17 -12 28l-106 108q-14 11 -29 11h-148q-19 0 -29 -12 l-106 -106q-12 -14 -12 -29v-512q0 -17 12 -29t29 -12t29 12t12 29v194q0 22 14.5 36.5t35.5 14.5h177q21 0 36 -14.5t15 -36.5v-194q0 -17 12 -29t29 -12t29 12t12 29zM459 518v-99q0 -21 -15 -36t-36 -15h-177q-21 0 -35.5 15t-14.5 36v99q0 18 12 29l59 59q12 12 28 12 h79q17 0 29 -12l58 -59q13 -13 13 -29zM315 982l35 -35l48 -48l35 -35q15 -15 15 -37q0 -21 -15.5 -35.5t-36.5 -14.5q-22 0 -36 14l-35 35l-48 48l-35 35q-15 15 -15 36t15 36t36 15q23 0 37 -14zM249 916l83 -83q11 -11 29 -11q17 0 29.5 11.5t12.5 28.5q0 16 -12 30 l-83 83q-14 11 -30 11q-17 0 -29 -12t-12 -29q0 -19 12 -29z" glyph-name="agrave" unicode="à"/><glyph d="M439 540l-26 27q-10 6 -19 6h-79q-11 0 -21 -9l-59 -59q-9 -11 -9 -22v-99q0 -5 1 -6h4h177q17 0 29 12t12 29v99q0 11 -10 22zM586 518v-512q0 -21 -15 -36t-36 -15q-17 0 -30.5 10.5t-18.5 26.5q-16 5 -26.5 18.5t-10.5 30.5v194v5q-1 1 -6 1h-177q-17 0 -28.5 -12 t-11.5 -29v-194q0 -21 -15 -36t-36 -15q-17 0 -30.5 10.5t-18.5 26.5q-16 5 -26.5 18.5t-10.5 30.5v512q0 23 15 36l106 106q15 15 36 15h148q22 0 36 -14l31 -32q1 -1 4 -3l106 -108q15 -15 15 -35zM541 41v512q0 17 -12 28l-106 108q-14 11 -29 11h-148q-19 0 -29 -12 l-106 -106q-12 -14 -12 -29v-512q0 -17 12 -29t29 -12t29 12t12 29v194q0 22 14.5 36.5t35.5 14.5h177q21 0 36 -14.5t15 -36.5v-194q0 -17 12 -29t29 -12t29 12t12 29zM459 518v-99q0 -21 -15 -36t-36 -15h-177q-21 0 -35.5 15t-14.5 36v99q0 18 12 29l59 59q12 12 28 12 h79q17 0 29 -12l58 -59q13 -13 13 -29zM411 958q37 -12 37 -48q0 -22 -15 -35l-83 -84q-12 -14 -36 -14q-39 0 -50 37q-37 13 -37 48q0 21 16 37l82 83q14 14 36 14q38 0 50 -38zM308 833l83 84q12 10 12 28q0 17 -12.5 29t-29.5 12q-15 0 -29 -11l-82 -83q-13 -13 -13 -30 t12.5 -28.5t29.5 -11.5q15 0 29 11z" glyph-name="aacute" unicode="á"/><glyph d="M439 540l-26 27q-10 6 -19 6h-79q-11 0 -21 -9l-59 -59q-9 -11 -9 -22v-99q0 -5 1 -6h4h177q17 0 29 12t12 29v99q0 11 -10 22zM586 518v-512q0 -21 -15 -36t-36 -15q-17 0 -30.5 10.5t-18.5 26.5q-16 5 -26.5 18.5t-10.5 30.5v194v5q-1 1 -6 1h-177q-17 0 -28.5 -12 t-11.5 -29v-194q0 -21 -15 -36t-36 -15q-17 0 -30.5 10.5t-18.5 26.5q-16 5 -26.5 18.5t-10.5 30.5v512q0 23 15 36l106 106q15 15 36 15h148q22 0 36 -14l31 -32q1 -1 4 -3l106 -108q15 -15 15 -35zM541 41v512q0 17 -12 28l-106 108q-14 11 -29 11h-148q-19 0 -29 -12 l-106 -106q-12 -14 -12 -29v-512q0 -17 12 -29t29 -12t29 12t12 29v194q0 22 14.5 36.5t35.5 14.5h177q21 0 36 -14.5t15 -36.5v-194q0 -17 12 -29t29 -12t29 12t12 29zM459 518v-99q0 -21 -15 -36t-36 -15h-177q-21 0 -35.5 15t-14.5 36v99q0 18 12 29l59 59q12 12 28 12 h79q17 0 29 -12l58 -59q13 -13 13 -29zM449 887l33 -32q12 -11 12 -34q0 -20 -12 -32t-32 -12q-18 0 -32 11q-2 2 -6 5t-6 5q-3 4 -10 11q-3 3 -13 14q-1 1 -4 3t-4 3q-10 7 -19 7q-15 0 -40 -27q-2 -1 -3.5 -3t-4 -4.5l-3.5 -3.5t-5 -4.5t-7 -5.5q-14 -11 -32 -11 q-16 0 -28.5 10t-15.5 26q-16 3 -26 14.5t-10 28.5q0 21 13 34l95 93q13 13 32 13t32 -13l94 -93q2 -2 2 -3zM251 831l38 36q12 14 32 14q19 0 31 -14l37 -36q11 -9 26 -9t24.5 9.5t9.5 24.5t-9 27l-94 93q-10 10 -25 10q-16 0 -25 -10l-95 -93q-10 -13 -10 -27t10.5 -24 t24.5 -10q16 0 25 9z" glyph-name="acircumflex" unicode="â"/><glyph d="M439 540l-26 27q-10 6 -19 6h-79q-11 0 -21 -9l-59 -59q-9 -11 -9 -22v-99q0 -5 1 -6h4h177q17 0 29 12t12 29v99q0 11 -10 22zM586 518v-512q0 -21 -15 -36t-36 -15q-17 0 -30.5 10.5t-18.5 26.5q-16 5 -26.5 18.5t-10.5 30.5v194v5q-1 1 -6 1h-177q-17 0 -28.5 -12 t-11.5 -29v-194q0 -21 -15 -36t-36 -15q-17 0 -30.5 10.5t-18.5 26.5q-16 5 -26.5 18.5t-10.5 30.5v512q0 23 15 36l106 106q15 15 36 15h148q22 0 36 -14l31 -32q1 -1 4 -3l106 -108q15 -15 15 -35zM541 41v512q0 17 -12 28l-106 108q-14 11 -29 11h-148q-19 0 -29 -12 l-106 -106q-12 -14 -12 -29v-512q0 -17 12 -29t29 -12t29 12t12 29v194q0 22 14.5 36.5t35.5 14.5h177q21 0 36 -14.5t15 -36.5v-194q0 -17 12 -29t29 -12t29 12t12 29zM459 518v-99q0 -21 -15 -36t-36 -15h-177q-21 0 -35.5 15t-14.5 36v99q0 18 12 29l59 59q12 12 28 12 h79q17 0 29 -12l58 -59q13 -13 13 -29zM280 879l-5 -4q0 -4 0.5 -9.5t0.5 -8.5q0 -12 -3 -24q-7 -32 -41 -32q-15 0 -27 10.5t-15 25.5q-15 2 -25.5 14t-10.5 28v51q0 16 11 27l41 41q11 11 27 11h51q18 0 28 -11l31 -31q4 -3 5 -4l40 -41q6 -8 8 -16l5 4v17q0 20 2 25 q9 32 41 32q16 0 28 -10.5t14 -25.5q16 -2 26 -14t10 -28v-50q0 -19 -10 -29l-43 -40q-10 -10 -26 -10h-51q-17 0 -28 10l-41 40l-2 2t-1 3l-32 31q-7 7 -8 16zM230 914l19 19h20l19 -19v-23q0 -14 7 -21l41 -40q11 -8 21 -8h51q13 0 19 8l43 40q7 10 7 21v50 q0 14 -9.5 23.5t-23.5 9.5t-23.5 -9.5t-9.5 -23.5v-35l-18 -18h-21l-19 18v24q0 9 -8 20l-40 41q-11 8 -21 8h-51q-9 0 -20 -8l-41 -41q-8 -8 -8 -20v-51q0 -14 10 -23.5t23 -9.5q14 0 23.5 9.5t9.5 23.5v35z" glyph-name="atilde" unicode="ã"/><glyph d="M439 540l-26 27q-10 6 -19 6h-79q-11 0 -21 -9l-59 -59q-9 -11 -9 -22v-99q0 -5 1 -6h4h177q17 0 29 12t12 29v99q0 11 -10 22zM586 518v-512q0 -21 -15 -36t-36 -15q-17 0 -30.5 10.5t-18.5 26.5q-16 5 -26.5 18.5t-10.5 30.5v194v5q-1 1 -6 1h-177q-17 0 -28.5 -12 t-11.5 -29v-194q0 -21 -15 -36t-36 -15q-17 0 -30.5 10.5t-18.5 26.5q-16 5 -26.5 18.5t-10.5 30.5v512q0 23 15 36l106 106q15 15 36 15h148q22 0 36 -14l31 -32q1 -1 4 -3l106 -108q15 -15 15 -35zM541 41v512q0 17 -12 28l-106 108q-14 11 -29 11h-148q-19 0 -29 -12 l-106 -106q-12 -14 -12 -29v-512q0 -17 12 -29t29 -12t29 12t12 29v194q0 22 14.5 36.5t35.5 14.5h177q21 0 36 -14.5t15 -36.5v-194q0 -17 12 -29t29 -12t29 12t12 29zM459 518v-99q0 -21 -15 -36t-36 -15h-177q-21 0 -35.5 15t-14.5 36v99q0 18 12 29l59 59q12 12 28 12 h79q17 0 29 -12l58 -59q13 -13 13 -29zM276 787h-20q-37 0 -48 37q-16 4 -26.5 17.5t-10.5 30.5v21q0 20 15 35t35 15h20q18 0 31.5 -10t17.5 -27q37 -12 37 -48v-21q0 -21 -15 -35.5t-36 -14.5zM454 787h-20q-38 0 -49 37q-37 12 -37 48v21q0 21 15 35.5t36 14.5h20 q17 0 30.5 -10.5t18.5 -26.5q37 -12 37 -48v-21q0 -21 -15 -35.5t-36 -14.5zM399 832h20q17 0 29 11.5t12 28.5v21q0 17 -12 28.5t-29 11.5h-20q-17 0 -29 -11.5t-12 -28.5v-21q0 -17 12 -28.5t29 -11.5zM221 832h20q17 0 29 11.5t12 28.5v21q0 17 -12 28.5t-29 11.5h-20 q-17 0 -28.5 -11.5t-11.5 -28.5v-21q0 -17 11.5 -28.5t28.5 -11.5z" glyph-name="adieresis" unicode="ä"/><glyph d="M439 540l-26 27q-10 6 -19 6h-79q-11 0 -21 -9l-59 -59q-9 -11 -9 -22v-99q0 -5 1 -6h4h177q17 0 29 12t12 29v99q0 11 -10 22zM586 518v-512q0 -21 -15 -36t-36 -15q-17 0 -30.5 10.5t-18.5 26.5q-16 5 -26.5 18.5t-10.5 30.5v194v5q-1 1 -6 1h-177q-17 0 -28.5 -12 t-11.5 -29v-194q0 -21 -15 -36t-36 -15q-17 0 -30.5 10.5t-18.5 26.5q-16 5 -26.5 18.5t-10.5 30.5v512q0 23 15 36l106 106q15 15 36 15h148q22 0 36 -14l31 -32q1 -1 4 -3l106 -108q15 -15 15 -35zM541 41v512q0 17 -12 28l-106 108q-14 11 -29 11h-148q-19 0 -29 -12 l-106 -106q-12 -14 -12 -29v-512q0 -17 12 -29t29 -12t29 12t12 29v194q0 22 14.5 36.5t35.5 14.5h177q21 0 36 -14.5t15 -36.5v-194q0 -17 12 -29t29 -12t29 12t12 29zM459 518v-99q0 -21 -15 -36t-36 -15h-177q-21 0 -35.5 15t-14.5 36v99q0 18 12 29l59 59q12 12 28 12 h79q17 0 29 -12l58 -59q13 -13 13 -29zM361 894h-1q-2 1 -4 1q-14 0 -28 -13.5t-14 -27.5v-3q1 -1 1 -3q1 -1 6 -1q14 0 27.5 14t13.5 28q0 4 -1 5zM376 997l31 -32q2 -1 2.5 -2t2.5 -1l53 -55q8 -10 8 -23v-62q0 -15 -9 -24l-53 -53q-6 -9 -25 -9h-61q-15 0 -25 10l-35 35 l-17 17l-35 35q-10 10 -10 24v62q0 14 10 24l52 53q10 10 25 10h61q19 0 25 -9zM213 919v-62q0 -9 7 -17l52 -52q8 -7 18 -7h61q8 0 18 6l53 53q6 8 6 17v62q0 10 -6 16l-53 55q-10 6 -18 6h-61q-10 0 -18 -7l-52 -53q-7 -7 -7 -17zM281 917l11 11q10 12 29 12q16 0 28 -12 l11 -11q12 -12 12 -28q0 -19 -12 -29l-11 -11q-12 -12 -28 -12q-19 0 -29 12l-11 11q-12 10 -12 29q0 16 12 28z" glyph-name="aring" unicode="å"/><glyph d="M271 389v170l-53 -52q-11 -14 -11 -23v-100q0 -5 1 -6h5h47q11 0 11 11zM207 201v-195q0 -21 -15.5 -36t-36.5 -15q-36 0 -48 37q-17 4 -27 17.5t-10 31.5v513q0 25 14 37l108 104q15 15 36 15h295q37 0 49 -37q37 -11 37 -49q0 -21 -15 -36t-36 -15h-109 q-17 0 -29 -11.5t-12 -28.5v-126q0 -5 1 -6h5h89q17 0 30.5 -10.5t18.5 -26.5q16 -5 26.5 -18.5t10.5 -30.5q0 -21 -15 -36t-36 -15h-89q-17 0 -29 -12t-12 -29v-126q0 -4 1 -5h5h109q17 0 30.5 -10.5t18.5 -26.5q16 -5 26.5 -18.5t10.5 -30.5q0 -22 -14.5 -36.5 t-36.5 -14.5h-202q-36 0 -48 37q-17 4 -27 17.5t-10 31.5v200h-23q-17 0 -29 -12t-12 -28zM281 600v-211q0 -9 -6 -15t-15 -6h-47q-21 0 -36 15t-15 36v100q0 18 14 30l58 58q11 11 26 11q21 0 21 -18zM281 265v-224q0 -17 11.5 -29t28.5 -12h202q17 0 29 12t12 29t-12 29 t-29 12h-109q-21 0 -36 14.5t-15 35.5v126q0 21 15 36t36 15h89q17 0 29 12t12 29t-12 29t-29 12h-89q-21 0 -36 15t-15 36v126q0 21 15 35.5t36 14.5h109q17 0 29 12t12 29t-12 29t-29 12h-295q-18 0 -29 -12l-108 -104q-11 -14 -11 -30v-513q0 -17 11.5 -29t28.5 -12 t29.5 12t12.5 29v195q0 20 15 35t36 15h47q21 0 21 -21z" glyph-name="ae" unicode="æ"/><glyph d="M226 483v-336q0 -11 9 -22l24 -24q9 -9 21 -9h78q13 0 22 9l58 59q8 8 10 21v31q0 21 15 36.5t36 15.5q17 0 30.5 -10.5t18.5 -26.5q16 -5 26.5 -19t10.5 -31v-65q0 -20 -15 -35l-106 -108q-12 -13 -43 -15h-29v-10q0 -9 7 -19l9 -9q10 -8 14 -13q1 -1 9 -11q3 -3 13 -11 l13 -13q15 -17 15 -31v-62q0 -16 -9 -25l-55 -53q-9 -9 -23 -9h-62q-13 0 -23 10q-1 1 -9.5 8.5t-12.5 12.5q-7 7 -9 10l-4 4q-7 5 -23 21q-17 19 -17 34q0 16 12 26.5t27 10.5q12 0 20 -5q2 -1 7 -6l2 -2q2 -1 4 -3q10 -10 23 -10t27 14t14 28q0 7 -6 18q-8 6 -10 8 q-10 10 -14 15l-1 2l-4 4l-2 1q-3 3 -8 7.5t-7 6.5q-9 9 -13 14q-15 17 -15 34v3q-29 7 -38 16l-30 31q-1 1 -5 4l-104 106q-15 15 -15 36v406q0 21 15 36l104 106q15 15 38 15h147q22 0 36 -14l31 -32q1 -1 4 -3l106 -108q15 -15 15 -35v-65q0 -21 -15 -36.5t-36 -15.5 q-36 0 -48 37q-38 12 -38 50q0 1 0.5 15.5t-0.5 15.5q-2 13 -10 21l-26 27q-10 6 -19 6h-78q-11 0 -21 -9l-59 -59q-9 -11 -9 -22zM181 182v336q0 18 12 29l59 59q12 12 28 12h78q17 0 29 -12l58 -59q13 -13 13 -29v-30q0 -17 12 -29.5t29 -12.5t29 12.5t12 29.5v65 q0 17 -12 28l-106 108q-14 11 -29 11h-147q-18 0 -31 -12l-104 -106q-12 -12 -12 -29v-406q0 -17 12 -29l104 -106q13 -12 31 -12h45v-49q0 -13 9 -23l58 -58q13 -13 13 -29q0 -17 -13 -30l-9 -9q-13 -13 -29 -13q-17 0 -30 13l-6 6q-7 7 -20 7q-11 0 -20 -8t-9 -19t9 -20 l28 -28q6 -7 16 -7h62q10 0 16 7l55 53q6 10 6 17v62q0 8 -7 18l-60 58q-13 13 -13 31v21h46q15 0 29 11l106 108q12 11 12 28v65q0 17 -12 29.5t-29 12.5t-29 -12.5t-12 -29.5v-30q0 -16 -13 -29l-58 -59q-12 -12 -29 -12h-78q-16 0 -28 12l-59 59q-12 11 -12 29z" glyph-name="ccedilla" unicode="ç"/><glyph d="M548 673q16 -5 26.5 -18.5t10.5 -30.5q0 -21 -15 -36t-36 -15h-268q-17 0 -28.5 -12t-11.5 -29v-125q0 -5 1 -6h4h199q38 0 50 -38q37 -12 37 -48q0 -21 -15.5 -36t-36.5 -15h-199q-17 0 -28.5 -12t-11.5 -29v-125q0 -5 1 -6h4h268q17 0 30.5 -10.5t18.5 -26.5 q16 -5 26.5 -18.5t10.5 -30.5q0 -21 -15 -36t-36 -15h-359q-17 0 -30.5 10.5t-18.5 26.5q-16 5 -26.5 18.5t-10.5 30.5v618q0 21 15 36t36 15h359q17 0 30.5 -10.5t18.5 -26.5zM99 659v-618q0 -17 12 -29t29 -12h359q17 0 29 12t12 29t-12 29t-29 12h-268q-21 0 -35.5 15 t-14.5 36v125q0 21 14.5 36t35.5 15h199q17 0 29.5 12t12.5 29t-12.5 29t-29.5 12h-199q-21 0 -35.5 15t-14.5 36v125q0 21 14.5 36t35.5 15h268q17 0 29 12t12 29t-12 29t-29 12h-359q-17 0 -29 -12t-12 -29zM315 982l35 -35l48 -48l35 -35q15 -15 15 -37 q0 -21 -15.5 -35.5t-36.5 -14.5q-22 0 -36 14l-35 35l-48 48l-35 35q-15 15 -15 36t15 36t36 15q23 0 37 -14zM249 916l83 -83q11 -11 29 -11q17 0 29.5 11.5t12.5 28.5q0 16 -12 30l-83 83q-14 11 -30 11q-17 0 -29 -12t-12 -29q0 -19 12 -29z" glyph-name="egrave" unicode="è"/><glyph d="M548 673q16 -5 26.5 -18.5t10.5 -30.5q0 -21 -15 -36t-36 -15h-268q-17 0 -28.5 -12t-11.5 -29v-125q0 -5 1 -6h4h199q38 0 50 -38q37 -12 37 -48q0 -21 -15.5 -36t-36.5 -15h-199q-17 0 -28.5 -12t-11.5 -29v-125q0 -5 1 -6h4h268q17 0 30.5 -10.5t18.5 -26.5 q16 -5 26.5 -18.5t10.5 -30.5q0 -21 -15 -36t-36 -15h-359q-17 0 -30.5 10.5t-18.5 26.5q-16 5 -26.5 18.5t-10.5 30.5v618q0 21 15 36t36 15h359q17 0 30.5 -10.5t18.5 -26.5zM99 659v-618q0 -17 12 -29t29 -12h359q17 0 29 12t12 29t-12 29t-29 12h-268q-21 0 -35.5 15 t-14.5 36v125q0 21 14.5 36t35.5 15h199q17 0 29.5 12t12.5 29t-12.5 29t-29.5 12h-199q-21 0 -35.5 15t-14.5 36v125q0 21 14.5 36t35.5 15h268q17 0 29 12t12 29t-12 29t-29 12h-359q-17 0 -29 -12t-12 -29zM411 958q37 -12 37 -48q0 -22 -15 -35l-83 -84q-12 -14 -36 -14 q-39 0 -50 37q-37 13 -37 48q0 21 16 37l82 83q14 14 36 14q38 0 50 -38zM308 833l83 84q12 10 12 28q0 17 -12.5 29t-29.5 12q-15 0 -29 -11l-82 -83q-13 -13 -13 -30t12.5 -28.5t29.5 -11.5q15 0 29 11z" glyph-name="eacute" unicode="é"/><glyph d="M548 673q16 -5 26.5 -18.5t10.5 -30.5q0 -21 -15 -36t-36 -15h-268q-17 0 -28.5 -12t-11.5 -29v-125q0 -5 1 -6h4h199q38 0 50 -38q37 -12 37 -48q0 -21 -15.5 -36t-36.5 -15h-199q-17 0 -28.5 -12t-11.5 -29v-125q0 -5 1 -6h4h268q17 0 30.5 -10.5t18.5 -26.5 q16 -5 26.5 -18.5t10.5 -30.5q0 -21 -15 -36t-36 -15h-359q-17 0 -30.5 10.5t-18.5 26.5q-16 5 -26.5 18.5t-10.5 30.5v618q0 21 15 36t36 15h359q17 0 30.5 -10.5t18.5 -26.5zM99 659v-618q0 -17 12 -29t29 -12h359q17 0 29 12t12 29t-12 29t-29 12h-268q-21 0 -35.5 15 t-14.5 36v125q0 21 14.5 36t35.5 15h199q17 0 29.5 12t12.5 29t-12.5 29t-29.5 12h-199q-21 0 -35.5 15t-14.5 36v125q0 21 14.5 36t35.5 15h268q17 0 29 12t12 29t-12 29t-29 12h-359q-17 0 -29 -12t-12 -29zM449 887l33 -32q12 -11 12 -34q0 -20 -12 -32t-32 -12 q-18 0 -32 11q-2 2 -6 5t-6 5q-3 4 -10 11q-3 3 -13 14q-1 1 -4 3t-4 3q-10 7 -19 7q-15 0 -40 -27q-2 -1 -3.5 -3t-4 -4.5l-3.5 -3.5t-5 -4.5t-7 -5.5q-14 -11 -32 -11q-16 0 -28.5 10t-15.5 26q-16 3 -26 14.5t-10 28.5q0 21 13 34l95 93q13 13 32 13t32 -13l94 -93 q2 -2 2 -3zM251 831l38 36q12 14 32 14q19 0 31 -14l37 -36q11 -9 26 -9t24.5 9.5t9.5 24.5t-9 27l-94 93q-10 10 -25 10q-16 0 -25 -10l-95 -93q-10 -13 -10 -27t10.5 -24t24.5 -10q16 0 25 9z" glyph-name="ecircumflex" unicode="ê"/><glyph d="M548 673q16 -5 26.5 -18.5t10.5 -30.5q0 -21 -15 -36t-36 -15h-268q-17 0 -28.5 -12t-11.5 -29v-125q0 -5 1 -6h4h199q38 0 50 -38q37 -12 37 -48q0 -21 -15.5 -36t-36.5 -15h-199q-17 0 -28.5 -12t-11.5 -29v-125q0 -5 1 -6h4h268q17 0 30.5 -10.5t18.5 -26.5 q16 -5 26.5 -18.5t10.5 -30.5q0 -21 -15 -36t-36 -15h-359q-17 0 -30.5 10.5t-18.5 26.5q-16 5 -26.5 18.5t-10.5 30.5v618q0 21 15 36t36 15h359q17 0 30.5 -10.5t18.5 -26.5zM99 659v-618q0 -17 12 -29t29 -12h359q17 0 29 12t12 29t-12 29t-29 12h-268q-21 0 -35.5 15 t-14.5 36v125q0 21 14.5 36t35.5 15h199q17 0 29.5 12t12.5 29t-12.5 29t-29.5 12h-199q-21 0 -35.5 15t-14.5 36v125q0 21 14.5 36t35.5 15h268q17 0 29 12t12 29t-12 29t-29 12h-359q-17 0 -29 -12t-12 -29zM276 787h-20q-37 0 -48 37q-16 4 -26.5 17.5t-10.5 30.5v21 q0 20 15 35t35 15h20q18 0 31.5 -10t17.5 -27q37 -12 37 -48v-21q0 -21 -15 -35.5t-36 -14.5zM454 787h-20q-38 0 -49 37q-37 12 -37 48v21q0 21 15 35.5t36 14.5h20q17 0 30.5 -10.5t18.5 -26.5q37 -12 37 -48v-21q0 -21 -15 -35.5t-36 -14.5zM399 832h20q17 0 29 11.5 t12 28.5v21q0 17 -12 28.5t-29 11.5h-20q-17 0 -29 -11.5t-12 -28.5v-21q0 -17 12 -28.5t29 -11.5zM221 832h20q17 0 29 11.5t12 28.5v21q0 17 -12 28.5t-29 11.5h-20q-17 0 -28.5 -11.5t-11.5 -28.5v-21q0 -17 11.5 -28.5t28.5 -11.5z" glyph-name="edieresis" unicode="ë"/><glyph d="M489 -45h-268q-38 0 -49 37q-37 12 -37 49q0 21 15 36t36 15h42q17 0 29 12t12 29v434v5q-1 1 -6 1h-42q-17 0 -30.5 10.5t-18.5 26.5q-16 5 -26.5 18.5t-10.5 30.5q0 21 15 36t36 15h268q37 0 49 -37q37 -11 37 -49q0 -21 -15 -36t-36 -15h-42q-17 0 -29 -12t-12 -29 v-434q0 -5 1 -6h5h42q17 0 30.5 -10.5t18.5 -26.5q16 -5 26.5 -18.5t10.5 -30.5q0 -22 -14.5 -36.5t-36.5 -14.5zM186 0h268q17 0 29 12t12 29t-12 29t-29 12h-42q-22 0 -36.5 15t-14.5 36v434q0 21 14.5 36t36.5 15h42q17 0 29 12t12 29t-12 29t-29 12h-268q-17 0 -29 -12 t-12 -29t12 -29t29 -12h42q22 0 36.5 -15t14.5 -36v-434q0 -21 -14.5 -36t-36.5 -15h-42q-17 0 -29 -12t-12 -29t12 -29t29 -12zM315 982l35 -35l48 -48l35 -35q15 -15 15 -37q0 -21 -15.5 -35.5t-36.5 -14.5q-22 0 -36 14l-35 35l-48 48l-35 35q-15 15 -15 36t15 36t36 15 q23 0 37 -14zM249 916l83 -83q11 -11 29 -11q17 0 29.5 11.5t12.5 28.5q0 16 -12 30l-83 83q-14 11 -30 11q-17 0 -29 -12t-12 -29q0 -19 12 -29z" glyph-name="igrave" unicode="ì"/><glyph d="M489 -45h-268q-38 0 -49 37q-37 12 -37 49q0 21 15 36t36 15h42q17 0 29 12t12 29v434v5q-1 1 -6 1h-42q-17 0 -30.5 10.5t-18.5 26.5q-16 5 -26.5 18.5t-10.5 30.5q0 21 15 36t36 15h268q37 0 49 -37q37 -11 37 -49q0 -21 -15 -36t-36 -15h-42q-17 0 -29 -12t-12 -29 v-434q0 -5 1 -6h5h42q17 0 30.5 -10.5t18.5 -26.5q16 -5 26.5 -18.5t10.5 -30.5q0 -22 -14.5 -36.5t-36.5 -14.5zM186 0h268q17 0 29 12t12 29t-12 29t-29 12h-42q-22 0 -36.5 15t-14.5 36v434q0 21 14.5 36t36.5 15h42q17 0 29 12t12 29t-12 29t-29 12h-268q-17 0 -29 -12 t-12 -29t12 -29t29 -12h42q22 0 36.5 -15t14.5 -36v-434q0 -21 -14.5 -36t-36.5 -15h-42q-17 0 -29 -12t-12 -29t12 -29t29 -12zM411 958q37 -12 37 -48q0 -22 -15 -35l-83 -84q-12 -14 -36 -14q-39 0 -50 37q-37 13 -37 48q0 21 16 37l82 83q14 14 36 14q38 0 50 -38z M308 833l83 84q12 10 12 28q0 17 -12.5 29t-29.5 12q-15 0 -29 -11l-82 -83q-13 -13 -13 -30t12.5 -28.5t29.5 -11.5q15 0 29 11z" glyph-name="iacute" unicode="í"/><glyph d="M489 -45h-268q-38 0 -49 37q-37 12 -37 49q0 21 15 36t36 15h42q17 0 29 12t12 29v434v5q-1 1 -6 1h-42q-17 0 -30.5 10.5t-18.5 26.5q-16 5 -26.5 18.5t-10.5 30.5q0 21 15 36t36 15h268q37 0 49 -37q37 -11 37 -49q0 -21 -15 -36t-36 -15h-42q-17 0 -29 -12t-12 -29 v-434q0 -5 1 -6h5h42q17 0 30.5 -10.5t18.5 -26.5q16 -5 26.5 -18.5t10.5 -30.5q0 -22 -14.5 -36.5t-36.5 -14.5zM186 0h268q17 0 29 12t12 29t-12 29t-29 12h-42q-22 0 -36.5 15t-14.5 36v434q0 21 14.5 36t36.5 15h42q17 0 29 12t12 29t-12 29t-29 12h-268q-17 0 -29 -12 t-12 -29t12 -29t29 -12h42q22 0 36.5 -15t14.5 -36v-434q0 -21 -14.5 -36t-36.5 -15h-42q-17 0 -29 -12t-12 -29t12 -29t29 -12zM449 887l33 -32q12 -11 12 -34q0 -20 -12 -32t-32 -12q-18 0 -32 11q-2 2 -6 5t-6 5q-3 4 -10 11q-3 3 -13 14q-1 1 -4 3t-4 3q-10 7 -19 7 q-15 0 -40 -27q-2 -1 -3.5 -3t-4 -4.5l-3.5 -3.5t-5 -4.5t-7 -5.5q-14 -11 -32 -11q-16 0 -28.5 10t-15.5 26q-16 3 -26 14.5t-10 28.5q0 21 13 34l95 93q13 13 32 13t32 -13l94 -93q2 -2 2 -3zM251 831l38 36q12 14 32 14q19 0 31 -14l37 -36q11 -9 26 -9t24.5 9.5 t9.5 24.5t-9 27l-94 93q-10 10 -25 10q-16 0 -25 -10l-95 -93q-10 -13 -10 -27t10.5 -24t24.5 -10q16 0 25 9z" glyph-name="icircumflex" unicode="î"/><glyph d="M489 -45h-268q-38 0 -49 37q-37 12 -37 49q0 21 15 36t36 15h42q17 0 29 12t12 29v434v5q-1 1 -6 1h-42q-17 0 -30.5 10.5t-18.5 26.5q-16 5 -26.5 18.5t-10.5 30.5q0 21 15 36t36 15h268q37 0 49 -37q37 -11 37 -49q0 -21 -15 -36t-36 -15h-42q-17 0 -29 -12t-12 -29 v-434q0 -5 1 -6h5h42q17 0 30.5 -10.5t18.5 -26.5q16 -5 26.5 -18.5t10.5 -30.5q0 -22 -14.5 -36.5t-36.5 -14.5zM186 0h268q17 0 29 12t12 29t-12 29t-29 12h-42q-22 0 -36.5 15t-14.5 36v434q0 21 14.5 36t36.5 15h42q17 0 29 12t12 29t-12 29t-29 12h-268q-17 0 -29 -12 t-12 -29t12 -29t29 -12h42q22 0 36.5 -15t14.5 -36v-434q0 -21 -14.5 -36t-36.5 -15h-42q-17 0 -29 -12t-12 -29t12 -29t29 -12zM276 787h-20q-37 0 -48 37q-16 4 -26.5 17.5t-10.5 30.5v21q0 20 15 35t35 15h20q18 0 31.5 -10t17.5 -27q37 -12 37 -48v-21q0 -21 -15 -35.5 t-36 -14.5zM454 787h-20q-38 0 -49 37q-37 12 -37 48v21q0 21 15 35.5t36 14.5h20q17 0 30.5 -10.5t18.5 -26.5q37 -12 37 -48v-21q0 -21 -15 -35.5t-36 -14.5zM399 832h20q17 0 29 11.5t12 28.5v21q0 17 -12 28.5t-29 11.5h-20q-17 0 -29 -11.5t-12 -28.5v-21 q0 -17 12 -28.5t29 -11.5zM221 832h20q17 0 29 11.5t12 28.5v21q0 17 -12 28.5t-29 11.5h-20q-17 0 -28.5 -11.5t-11.5 -28.5v-21q0 -17 11.5 -28.5t28.5 -11.5z" glyph-name="idieresis" unicode="ï"/><glyph d="M227 255v-158q0 -4 1 -5h5h128q12 0 22 8l60 59q9 9 9 22v338q0 11 -6 18l-28 28q-8 8 -22 8h-128q-17 0 -29 -11.5t-12 -28.5v-131h118q17 0 30.5 -10.5t18.5 -26.5q16 -5 26.5 -18.5t10.5 -30.5q0 -21 -15 -36t-36 -15h-143q-10 0 -10 -10zM433 696l35 -35l71 -71 l35 -35q15 -15 15 -36v-408q0 -23 -15 -36l-106 -106q-14 -14 -36 -14h-256q-38 0 -49 37q-37 12 -37 49v226q-26 8 -34 35q-17 4 -27 17.5t-10 31.5q0 21 14.5 36t35.5 15h10q1 0 4 1q2 0 3 1q4 0 4 8v247q0 21 15 36t36 15h256q22 0 36 -14zM100 659v-247q0 -20 -20 -20 h-11q-17 0 -28.5 -12t-11.5 -29t11.5 -29t28.5 -12h11q20 0 20 -20v-249q0 -17 12 -29t29 -12h256q15 0 29 11l106 106q12 12 12 29v408q0 17 -12 29l-106 106q-14 11 -29 11h-256q-17 0 -29 -12t-12 -29zM182 132v158q0 20 20 20h143q17 0 29 12t12 29t-12 29t-29 12h-143 q-20 0 -20 20v156q0 22 14.5 36t36.5 14h128q18 0 29 -11l60 -59q12 -10 12 -29v-338q0 -19 -12 -29l-60 -59q-11 -11 -29 -11h-128q-22 0 -36.5 14t-14.5 36z" glyph-name="eth" unicode="ð"/><glyph d="M455 15l-229 393v-402q0 -21 -15 -36t-36 -15q-17 0 -30.5 10.5t-18.5 26.5q-16 5 -26.5 18.5t-10.5 30.5v618q0 21 15 36t36 15q30 0 45 -25l7 -13q19 -6 28 -22l229 -394v403q0 21 15 36t36 15q17 0 30.5 -10.5t18.5 -26.5q16 -5 26.5 -18.5t10.5 -30.5v-618 q0 -21 -15 -36t-36 -15q-30 0 -44 25l-8 13q-18 7 -28 22zM442 223l-266 457q-14 20 -36 20q-17 0 -29 -12t-12 -29v-618q0 -17 12 -29t29 -12t29 12t12 29v433q0 12 7 12q4 0 9 -8l267 -458q12 -20 36 -20q17 0 29 12t12 29v618q0 17 -12 29t-29 12t-29 -12t-12 -29v-432 q0 -12 -8 -12q-4 0 -9 8zM280 879l-5 -4q0 -4 0.5 -9.5t0.5 -8.5q0 -12 -3 -24q-7 -32 -41 -32q-15 0 -27 10.5t-15 25.5q-15 2 -25.5 14t-10.5 28v51q0 16 11 27l41 41q11 11 27 11h51q18 0 28 -11l31 -31q4 -3 5 -4l40 -41q6 -8 8 -16l5 4v17q0 20 2 25q9 32 41 32 q16 0 28 -10.5t14 -25.5q16 -2 26 -14t10 -28v-50q0 -19 -10 -29l-43 -40q-10 -10 -26 -10h-51q-17 0 -28 10l-41 40l-2 2t-1 3l-32 31q-7 7 -8 16zM230 914l19 19h20l19 -19v-23q0 -14 7 -21l41 -40q11 -8 21 -8h51q13 0 19 8l43 40q7 10 7 21v50q0 14 -9.5 23.5t-23.5 9.5 t-23.5 -9.5t-9.5 -23.5v-35l-18 -18h-21l-19 18v24q0 9 -8 20l-40 41q-11 8 -21 8h-51q-9 0 -20 -8l-41 -41q-8 -8 -8 -20v-51q0 -14 10 -23.5t23 -9.5q14 0 23.5 9.5t9.5 23.5v35z" glyph-name="ntilde" unicode="ñ"/><glyph d="M439 561l-7 7q-8 5 -17 5h-121q-12 0 -21 -9l-37 -38q-10 -10 -10 -21v-380q0 -11 10 -21l6 -7q8 -5 17 -5h121q13 0 22 9l37 38q10 10 10 21v380q0 11 -10 21zM586 539v-448q0 -24 -14 -38l-87 -84q-14 -14 -36 -14h-190q-20 0 -35 15l-85 84q-1 1 -2 3l-33 32 q-15 15 -15 37v448q0 22 15 37l85 84q15 15 35 15h190q20 0 36 -15l87 -84l3 -3l1 -2l31 -30q14 -12 14 -37zM530 604l-87 84q-10 12 -29 12h-190q-18 0 -28 -12l-85 -84q-12 -15 -12 -30v-448q0 -15 12 -30l85 -84q10 -12 28 -12h190q18 0 29 12l87 84q11 14 11 30v448 q0 16 -11 30zM446 132l-37 -38q-11 -12 -29 -12h-121q-17 0 -29 12l-37 38q-12 12 -12 28v380q0 16 12 28l37 38q12 12 29 12h121q18 0 29 -12l37 -38q13 -13 13 -28v-380q0 -15 -13 -28zM315 982l35 -35l48 -48l35 -35q15 -15 15 -37q0 -21 -15.5 -35.5t-36.5 -14.5 q-22 0 -36 14l-35 35l-48 48l-35 35q-15 15 -15 36t15 36t36 15q23 0 37 -14zM249 916l83 -83q11 -11 29 -11q17 0 29.5 11.5t12.5 28.5q0 16 -12 30l-83 83q-14 11 -30 11q-17 0 -29 -12t-12 -29q0 -19 12 -29z" glyph-name="ograve" unicode="ò"/><glyph d="M439 561l-7 7q-8 5 -17 5h-121q-12 0 -21 -9l-37 -38q-10 -10 -10 -21v-380q0 -11 10 -21l6 -7q8 -5 17 -5h121q13 0 22 9l37 38q10 10 10 21v380q0 11 -10 21zM586 539v-448q0 -24 -14 -38l-87 -84q-14 -14 -36 -14h-190q-20 0 -35 15l-85 84q-1 1 -2 3l-33 32 q-15 15 -15 37v448q0 22 15 37l85 84q15 15 35 15h190q20 0 36 -15l87 -84l3 -3l1 -2l31 -30q14 -12 14 -37zM530 604l-87 84q-10 12 -29 12h-190q-18 0 -28 -12l-85 -84q-12 -15 -12 -30v-448q0 -15 12 -30l85 -84q10 -12 28 -12h190q18 0 29 12l87 84q11 14 11 30v448 q0 16 -11 30zM446 132l-37 -38q-11 -12 -29 -12h-121q-17 0 -29 12l-37 38q-12 12 -12 28v380q0 16 12 28l37 38q12 12 29 12h121q18 0 29 -12l37 -38q13 -13 13 -28v-380q0 -15 -13 -28zM411 958q37 -12 37 -48q0 -22 -15 -35l-83 -84q-12 -14 -36 -14q-39 0 -50 37 q-37 13 -37 48q0 21 16 37l82 83q14 14 36 14q38 0 50 -38zM308 833l83 84q12 10 12 28q0 17 -12.5 29t-29.5 12q-15 0 -29 -11l-82 -83q-13 -13 -13 -30t12.5 -28.5t29.5 -11.5q15 0 29 11z" glyph-name="oacute" unicode="ó"/><glyph d="M439 561l-7 7q-8 5 -17 5h-121q-12 0 -21 -9l-37 -38q-10 -10 -10 -21v-380q0 -11 10 -21l6 -7q8 -5 17 -5h121q13 0 22 9l37 38q10 10 10 21v380q0 11 -10 21zM586 539v-448q0 -24 -14 -38l-87 -84q-14 -14 -36 -14h-190q-20 0 -35 15l-85 84q-1 1 -2 3l-33 32 q-15 15 -15 37v448q0 22 15 37l85 84q15 15 35 15h190q20 0 36 -15l87 -84l3 -3l1 -2l31 -30q14 -12 14 -37zM530 604l-87 84q-10 12 -29 12h-190q-18 0 -28 -12l-85 -84q-12 -15 -12 -30v-448q0 -15 12 -30l85 -84q10 -12 28 -12h190q18 0 29 12l87 84q11 14 11 30v448 q0 16 -11 30zM446 132l-37 -38q-11 -12 -29 -12h-121q-17 0 -29 12l-37 38q-12 12 -12 28v380q0 16 12 28l37 38q12 12 29 12h121q18 0 29 -12l37 -38q13 -13 13 -28v-380q0 -15 -13 -28zM449 887l33 -32q12 -11 12 -34q0 -20 -12 -32t-32 -12q-18 0 -32 11q-2 2 -6 5t-6 5 q-3 4 -10 11q-3 3 -13 14q-1 1 -4 3t-4 3q-10 7 -19 7q-15 0 -40 -27q-2 -1 -3.5 -3t-4 -4.5l-3.5 -3.5t-5 -4.5t-7 -5.5q-14 -11 -32 -11q-16 0 -28.5 10t-15.5 26q-16 3 -26 14.5t-10 28.5q0 21 13 34l95 93q13 13 32 13t32 -13l94 -93q2 -2 2 -3zM251 831l38 36 q12 14 32 14q19 0 31 -14l37 -36q11 -9 26 -9t24.5 9.5t9.5 24.5t-9 27l-94 93q-10 10 -25 10q-16 0 -25 -10l-95 -93q-10 -13 -10 -27t10.5 -24t24.5 -10q16 0 25 9z" glyph-name="ocircumflex" unicode="ô"/><glyph d="M439 561l-7 7q-8 5 -17 5h-121q-12 0 -21 -9l-37 -38q-10 -10 -10 -21v-380q0 -11 10 -21l6 -7q8 -5 17 -5h121q13 0 22 9l37 38q10 10 10 21v380q0 11 -10 21zM586 539v-448q0 -24 -14 -38l-87 -84q-14 -14 -36 -14h-190q-20 0 -35 15l-85 84q-1 1 -2 3l-33 32 q-15 15 -15 37v448q0 22 15 37l85 84q15 15 35 15h190q20 0 36 -15l87 -84l3 -3l1 -2l31 -30q14 -12 14 -37zM530 604l-87 84q-10 12 -29 12h-190q-18 0 -28 -12l-85 -84q-12 -15 -12 -30v-448q0 -15 12 -30l85 -84q10 -12 28 -12h190q18 0 29 12l87 84q11 14 11 30v448 q0 16 -11 30zM446 132l-37 -38q-11 -12 -29 -12h-121q-17 0 -29 12l-37 38q-12 12 -12 28v380q0 16 12 28l37 38q12 12 29 12h121q18 0 29 -12l37 -38q13 -13 13 -28v-380q0 -15 -13 -28zM280 879l-5 -4q0 -4 0.5 -9.5t0.5 -8.5q0 -12 -3 -24q-7 -32 -41 -32q-15 0 -27 10.5 t-15 25.5q-15 2 -25.5 14t-10.5 28v51q0 16 11 27l41 41q11 11 27 11h51q18 0 28 -11l31 -31q4 -3 5 -4l40 -41q6 -8 8 -16l5 4v17q0 20 2 25q9 32 41 32q16 0 28 -10.5t14 -25.5q16 -2 26 -14t10 -28v-50q0 -19 -10 -29l-43 -40q-10 -10 -26 -10h-51q-17 0 -28 10l-41 40 l-2 2t-1 3l-32 31q-7 7 -8 16zM230 914l19 19h20l19 -19v-23q0 -14 7 -21l41 -40q11 -8 21 -8h51q13 0 19 8l43 40q7 10 7 21v50q0 14 -9.5 23.5t-23.5 9.5t-23.5 -9.5t-9.5 -23.5v-35l-18 -18h-21l-19 18v24q0 9 -8 20l-40 41q-11 8 -21 8h-51q-9 0 -20 -8l-41 -41 q-8 -8 -8 -20v-51q0 -14 10 -23.5t23 -9.5q14 0 23.5 9.5t9.5 23.5v35z" glyph-name="otilde" unicode="õ"/><glyph d="M439 561l-7 7q-8 5 -17 5h-121q-12 0 -21 -9l-37 -38q-10 -10 -10 -21v-380q0 -11 10 -21l6 -7q8 -5 17 -5h121q13 0 22 9l37 38q10 10 10 21v380q0 11 -10 21zM586 539v-448q0 -24 -14 -38l-87 -84q-14 -14 -36 -14h-190q-20 0 -35 15l-85 84q-1 1 -2 3l-33 32 q-15 15 -15 37v448q0 22 15 37l85 84q15 15 35 15h190q20 0 36 -15l87 -84l3 -3l1 -2l31 -30q14 -12 14 -37zM530 604l-87 84q-10 12 -29 12h-190q-18 0 -28 -12l-85 -84q-12 -15 -12 -30v-448q0 -15 12 -30l85 -84q10 -12 28 -12h190q18 0 29 12l87 84q11 14 11 30v448 q0 16 -11 30zM446 132l-37 -38q-11 -12 -29 -12h-121q-17 0 -29 12l-37 38q-12 12 -12 28v380q0 16 12 28l37 38q12 12 29 12h121q18 0 29 -12l37 -38q13 -13 13 -28v-380q0 -15 -13 -28zM276 787h-20q-37 0 -48 37q-16 4 -26.5 17.5t-10.5 30.5v21q0 20 15 35t35 15h20 q18 0 31.5 -10t17.5 -27q37 -12 37 -48v-21q0 -21 -15 -35.5t-36 -14.5zM454 787h-20q-38 0 -49 37q-37 12 -37 48v21q0 21 15 35.5t36 14.5h20q17 0 30.5 -10.5t18.5 -26.5q37 -12 37 -48v-21q0 -21 -15 -35.5t-36 -14.5zM399 832h20q17 0 29 11.5t12 28.5v21 q0 17 -12 28.5t-29 11.5h-20q-17 0 -29 -11.5t-12 -28.5v-21q0 -17 12 -28.5t29 -11.5zM221 832h20q17 0 29 11.5t12 28.5v21q0 17 -12 28.5t-29 11.5h-20q-17 0 -28.5 -11.5t-11.5 -28.5v-21q0 -17 11.5 -28.5t28.5 -11.5z" glyph-name="odieresis" unicode="ö"/><glyph d="M375 73h-41q-37 0 -48 37q-16 4 -26.5 17.5t-10.5 30.5v41q0 20 15 35t35 15h41q17 0 30.5 -10.5t17.5 -26.5q37 -11 37 -48v-41q0 -21 -14.5 -35.5t-35.5 -14.5zM375 417h-41q-37 0 -48 37q-16 4 -26.5 17.5t-10.5 30.5v41q0 20 15 35t35 15h41q17 0 30.5 -10.5 t17.5 -26.5q37 -11 37 -48v-41q0 -21 -14.5 -35.5t-35.5 -14.5zM528 365q37 -11 37 -49q0 -21 -14.5 -36t-35.5 -15h-320q-36 0 -48 37q-17 4 -27 17.5t-10 31.5q0 21 14.5 36t35.5 15h320q36 0 48 -37zM299 118h41q17 0 28.5 11.5t11.5 28.5v41q0 17 -11.5 28.5t-28.5 11.5 h-41q-17 0 -28.5 -11.5t-11.5 -28.5v-41q0 -17 11.5 -28.5t28.5 -11.5zM299 462h41q17 0 28.5 11.5t11.5 28.5v41q0 17 -11.5 28.5t-28.5 11.5h-41q-17 0 -28.5 -11.5t-11.5 -28.5v-41q0 -17 11.5 -28.5t28.5 -11.5zM480 392h-320q-17 0 -28.5 -12t-11.5 -29t11.5 -29 t28.5 -12h320q17 0 28.5 12t11.5 29t-11.5 29t-28.5 12z" glyph-name="divide" unicode="÷"/><glyph d="M449 160v175l-213 -212q-6 -7 -6 -12q0 -3 2 -5l5 -5q9 -9 23 -9h119q13 0 23 10l36 35q11 11 11 23zM442 559l-5 5q-9 9 -23 9h-119q-12 0 -23 -11l-36 -35q-10 -10 -10 -22v-175l212 212q6 6 6 12q0 3 -2 5zM654 564q0 -22 -14 -36l-44 -46q-10 -10 -10 -22v-368 q0 -24 -15 -39l-87 -84q-17 -14 -35 -14h-189q-20 0 -35 15l-65 64q-1 0 -3 1.5t-4 1.5h-1q0 -1 -1 -2t-9 -7q-12 -12 -36 -12q-36 0 -48 37q-17 4 -27 17.5t-10 31.5q0 23 14 37l43 44q10 10 10 22v369q0 23 16 37l86 84q15 15 35 15h189q20 0 35 -15l65 -64q3 -3 7 -3 q3 0 4 1l3 3l4 4q15 13 36 13q17 0 30.5 -10.5t18.5 -26.5q37 -12 37 -48zM445 130l-36 -35q-13 -13 -30 -13h-119q-18 0 -30 12l-40 40q-5 5 -5 12q0 12 9 19l245 245q5 6 10 6q10 0 10 -13v-243q0 -16 -14 -30zM194 570l36 35q13 13 30 13h119q18 0 30 -12l40 -40 q5 -5 5 -12q0 -12 -9 -19l-245 -245q-4 -6 -10 -6q-9 0 -9 13v243q0 17 13 30zM538 628l-3 -3q-4 -7 -14 -7q-8 0 -14 6l-65 64q-11 12 -28 12h-189q-17 0 -28 -12l-86 -84q-13 -17 -13 -30v-369q0 -16 -13 -29l-43 -44q-11 -11 -11 -30q0 -17 11.5 -29t28.5 -12q18 0 31 11 l3 3q4 7 13 7q8 0 14 -6l65 -64q11 -12 28 -12h189q18 0 28 12l87 84q12 15 12 31v368q0 17 12 29l44 46q12 9 12 29q0 17 -12 28.5t-29 11.5q-19 0 -30 -11z" glyph-name="oslash" unicode="ø"/><glyph d="M549 673q16 -5 26.5 -18.5t10.5 -30.5v-533q0 -24 -14 -38l-87 -84q-14 -14 -36 -14h-190q-20 0 -35 15l-85 84q-1 1 -2 3l-33 32q-15 15 -15 37v533q0 21 15 36t36 15q17 0 30.5 -10.5t18.5 -26.5q16 -5 26.5 -18.5t10.5 -30.5v-499q0 -11 10 -21l6 -7q8 -5 17 -5h121 q13 0 22 9l37 38q10 10 10 21v499q0 21 15 36t36 15q17 0 30.5 -10.5t18.5 -26.5zM181 160v499q0 17 -12 29t-29 12t-29 -12t-12 -29v-533q0 -15 12 -30l85 -84q10 -12 28 -12h190q18 0 29 12l87 84q11 14 11 30v533q0 17 -12 29t-29 12t-29 -12t-12 -29v-499q0 -15 -13 -28 l-37 -38q-11 -12 -29 -12h-121q-17 0 -29 12l-37 38q-12 12 -12 28zM315 982l35 -35l48 -48l35 -35q15 -15 15 -37q0 -21 -15.5 -35.5t-36.5 -14.5q-22 0 -36 14l-35 35l-48 48l-35 35q-15 15 -15 36t15 36t36 15q23 0 37 -14zM249 916l83 -83q11 -11 29 -11q17 0 29.5 11.5 t12.5 28.5q0 16 -12 30l-83 83q-14 11 -30 11q-17 0 -29 -12t-12 -29q0 -19 12 -29z" glyph-name="ugrave" unicode="ù"/><glyph d="M549 673q16 -5 26.5 -18.5t10.5 -30.5v-533q0 -24 -14 -38l-87 -84q-14 -14 -36 -14h-190q-20 0 -35 15l-85 84q-1 1 -2 3l-33 32q-15 15 -15 37v533q0 21 15 36t36 15q17 0 30.5 -10.5t18.5 -26.5q16 -5 26.5 -18.5t10.5 -30.5v-499q0 -11 10 -21l6 -7q8 -5 17 -5h121 q13 0 22 9l37 38q10 10 10 21v499q0 21 15 36t36 15q17 0 30.5 -10.5t18.5 -26.5zM181 160v499q0 17 -12 29t-29 12t-29 -12t-12 -29v-533q0 -15 12 -30l85 -84q10 -12 28 -12h190q18 0 29 12l87 84q11 14 11 30v533q0 17 -12 29t-29 12t-29 -12t-12 -29v-499q0 -15 -13 -28 l-37 -38q-11 -12 -29 -12h-121q-17 0 -29 12l-37 38q-12 12 -12 28zM411 958q37 -12 37 -48q0 -22 -15 -35l-83 -84q-12 -14 -36 -14q-39 0 -50 37q-37 13 -37 48q0 21 16 37l82 83q14 14 36 14q38 0 50 -38zM308 833l83 84q12 10 12 28q0 17 -12.5 29t-29.5 12 q-15 0 -29 -11l-82 -83q-13 -13 -13 -30t12.5 -28.5t29.5 -11.5q15 0 29 11z" glyph-name="uacute" unicode="ú"/><glyph d="M549 673q16 -5 26.5 -18.5t10.5 -30.5v-533q0 -24 -14 -38l-87 -84q-14 -14 -36 -14h-190q-20 0 -35 15l-85 84q-1 1 -2 3l-33 32q-15 15 -15 37v533q0 21 15 36t36 15q17 0 30.5 -10.5t18.5 -26.5q16 -5 26.5 -18.5t10.5 -30.5v-499q0 -11 10 -21l6 -7q8 -5 17 -5h121 q13 0 22 9l37 38q10 10 10 21v499q0 21 15 36t36 15q17 0 30.5 -10.5t18.5 -26.5zM181 160v499q0 17 -12 29t-29 12t-29 -12t-12 -29v-533q0 -15 12 -30l85 -84q10 -12 28 -12h190q18 0 29 12l87 84q11 14 11 30v533q0 17 -12 29t-29 12t-29 -12t-12 -29v-499q0 -15 -13 -28 l-37 -38q-11 -12 -29 -12h-121q-17 0 -29 12l-37 38q-12 12 -12 28zM449 887l33 -32q12 -11 12 -34q0 -20 -12 -32t-32 -12q-18 0 -32 11q-2 2 -6 5t-6 5q-3 4 -10 11q-3 3 -13 14q-1 1 -4 3t-4 3q-10 7 -19 7q-15 0 -40 -27q-2 -1 -3.5 -3t-4 -4.5l-3.5 -3.5t-5 -4.5 t-7 -5.5q-14 -11 -32 -11q-16 0 -28.5 10t-15.5 26q-16 3 -26 14.5t-10 28.5q0 21 13 34l95 93q13 13 32 13t32 -13l94 -93q2 -2 2 -3zM251 831l38 36q12 14 32 14q19 0 31 -14l37 -36q11 -9 26 -9t24.5 9.5t9.5 24.5t-9 27l-94 93q-10 10 -25 10q-16 0 -25 -10l-95 -93 q-10 -13 -10 -27t10.5 -24t24.5 -10q16 0 25 9z" glyph-name="ucircumflex" unicode="û"/><glyph d="M549 673q16 -5 26.5 -18.5t10.5 -30.5v-533q0 -24 -14 -38l-87 -84q-14 -14 -36 -14h-190q-20 0 -35 15l-85 84q-1 1 -2 3l-33 32q-15 15 -15 37v533q0 21 15 36t36 15q17 0 30.5 -10.5t18.5 -26.5q16 -5 26.5 -18.5t10.5 -30.5v-499q0 -11 10 -21l6 -7q8 -5 17 -5h121 q13 0 22 9l37 38q10 10 10 21v499q0 21 15 36t36 15q17 0 30.5 -10.5t18.5 -26.5zM181 160v499q0 17 -12 29t-29 12t-29 -12t-12 -29v-533q0 -15 12 -30l85 -84q10 -12 28 -12h190q18 0 29 12l87 84q11 14 11 30v533q0 17 -12 29t-29 12t-29 -12t-12 -29v-499q0 -15 -13 -28 l-37 -38q-11 -12 -29 -12h-121q-17 0 -29 12l-37 38q-12 12 -12 28zM276 787h-20q-37 0 -48 37q-16 4 -26.5 17.5t-10.5 30.5v21q0 20 15 35t35 15h20q18 0 31.5 -10t17.5 -27q37 -12 37 -48v-21q0 -21 -15 -35.5t-36 -14.5zM454 787h-20q-38 0 -49 37q-37 12 -37 48v21 q0 21 15 35.5t36 14.5h20q17 0 30.5 -10.5t18.5 -26.5q37 -12 37 -48v-21q0 -21 -15 -35.5t-36 -14.5zM399 832h20q17 0 29 11.5t12 28.5v21q0 17 -12 28.5t-29 11.5h-20q-17 0 -29 -11.5t-12 -28.5v-21q0 -17 12 -28.5t29 -11.5zM221 832h20q17 0 29 11.5t12 28.5v21 q0 17 -12 28.5t-29 11.5h-20q-17 0 -28.5 -11.5t-11.5 -28.5v-21q0 -17 11.5 -28.5t28.5 -11.5z" glyph-name="udieresis" unicode="ü"/><glyph d="M189 673q16 -5 26.5 -18.5t10.5 -30.5v-137q0 -12 9 -21l56 -56q12 -12 29 -12t29 12l91 91q9 9 9 21v137q0 21 15 36t36 15q17 0 30.5 -10.5t18.5 -26.5q16 -5 26.5 -18.5t10.5 -30.5v-171q0 -23 -15 -37l-156 -156q-9 -10 -9 -21v-233q0 -22 -14.5 -36.5t-36.5 -14.5 q-38 0 -49 37q-37 12 -37 49v233q0 12 -9 21l-155 156q-16 16 -16 37v171q0 21 15 36t36 15q17 0 30.5 -10.5t18.5 -26.5zM112 458l155 -156q12 -12 12 -28v-233q0 -17 12 -29t29 -12t29 12t12 29v233q0 16 12 28l156 156q12 14 12 30v171q0 17 -12 29t-29 12t-29 -12 t-12 -29v-137q0 -16 -12 -28l-91 -91q-15 -15 -36 -15t-36 15l-91 91q-12 12 -12 28v137q0 17 -12 29t-29 12t-29 -12t-12 -29v-171q0 -15 13 -30zM411 958q37 -12 37 -48q0 -22 -15 -35l-83 -84q-12 -14 -36 -14q-39 0 -50 37q-37 13 -37 48q0 21 16 37l82 83q14 14 36 14 q38 0 50 -38zM308 833l83 84q12 10 12 28q0 17 -12.5 29t-29.5 12q-15 0 -29 -11l-82 -83q-13 -13 -13 -30t12.5 -28.5t29.5 -11.5q15 0 29 11z" glyph-name="yacute" unicode="ý"/><glyph d="M446 438l-28 28q-9 9 -22 9h-128q-17 0 -29 -12t-12 -29v-234q0 -5 1 -6h5h128q13 0 22 9l60 59q9 9 9 23v134q0 11 -6 19zM190 752q37 -12 37 -48v-86q0 -5 1 -6h5h164q22 0 36 -14l33 -33l2 -2l106 -107q15 -15 15 -36v-206q0 -21 -15 -36l-106 -107q-14 -14 -36 -14 h-164q-17 0 -29 -12t-12 -29v-86q0 -21 -15 -35.5t-36 -14.5q-38 0 -49 37q-37 12 -37 48v774q0 21 15 35.5t36 14.5q18 0 31.5 -10t17.5 -27zM462 419v-134q0 -18 -12 -30l-60 -59q-12 -12 -29 -12h-128q-22 0 -36.5 14.5t-14.5 36.5v234q0 22 14.5 36.5t36.5 14.5h128 q17 0 29 -12l60 -59q12 -12 12 -30zM100 739v-774q0 -17 12 -28.5t29 -11.5t29 11.5t12 28.5v86q0 22 14.5 36.5t36.5 14.5h164q15 0 29 11l106 107q12 12 12 29v206q0 17 -12 29l-106 107q-14 11 -29 11h-164q-22 0 -36.5 14.5t-14.5 36.5v86q0 17 -12 28.5t-29 11.5 t-29 -11.5t-12 -28.5z" glyph-name="thorn" unicode="þ"/><glyph d="M189 673q16 -5 26.5 -18.5t10.5 -30.5v-137q0 -12 9 -21l56 -56q12 -12 29 -12t29 12l91 91q9 9 9 21v137q0 21 15 36t36 15q17 0 30.5 -10.5t18.5 -26.5q16 -5 26.5 -18.5t10.5 -30.5v-171q0 -23 -15 -37l-156 -156q-9 -10 -9 -21v-233q0 -22 -14.5 -36.5t-36.5 -14.5 q-38 0 -49 37q-37 12 -37 49v233q0 12 -9 21l-155 156q-16 16 -16 37v171q0 21 15 36t36 15q17 0 30.5 -10.5t18.5 -26.5zM112 458l155 -156q12 -12 12 -28v-233q0 -17 12 -29t29 -12t29 12t12 29v233q0 16 12 28l156 156q12 14 12 30v171q0 17 -12 29t-29 12t-29 -12 t-12 -29v-137q0 -16 -12 -28l-91 -91q-15 -15 -36 -15t-36 15l-91 91q-12 12 -12 28v137q0 17 -12 29t-29 12t-29 -12t-12 -29v-171q0 -15 13 -30zM276 787h-20q-37 0 -48 37q-16 4 -26.5 17.5t-10.5 30.5v21q0 20 15 35t35 15h20q18 0 31.5 -10t17.5 -27q37 -12 37 -48v-21 q0 -21 -15 -35.5t-36 -14.5zM454 787h-20q-38 0 -49 37q-37 12 -37 48v21q0 21 15 35.5t36 14.5h20q17 0 30.5 -10.5t18.5 -26.5q37 -12 37 -48v-21q0 -21 -15 -35.5t-36 -14.5zM399 832h20q17 0 29 11.5t12 28.5v21q0 17 -12 28.5t-29 11.5h-20q-17 0 -29 -11.5t-12 -28.5 v-21q0 -17 12 -28.5t29 -11.5zM221 832h20q17 0 29 11.5t12 28.5v21q0 17 -12 28.5t-29 11.5h-20q-17 0 -28.5 -11.5t-11.5 -28.5v-21q0 -17 11.5 -28.5t28.5 -11.5z" glyph-name="ydieresis" unicode="ÿ"/><glyph d="M439 540l-26 27q-10 6 -19 6h-79q-11 0 -21 -9l-59 -59q-9 -11 -9 -22v-99q0 -5 1 -6h4h177q17 0 29 12t12 29v99q0 11 -10 22zM586 518v-512q0 -21 -15 -36t-36 -15q-17 0 -30.5 10.5t-18.5 26.5q-16 5 -26.5 18.5t-10.5 30.5v194v5q-1 1 -6 1h-177q-17 0 -28.5 -12 t-11.5 -29v-194q0 -21 -15 -36t-36 -15q-17 0 -30.5 10.5t-18.5 26.5q-16 5 -26.5 18.5t-10.5 30.5v512q0 23 15 36l106 106q15 15 36 15h148q22 0 36 -14l31 -32q1 -1 4 -3l106 -108q15 -15 15 -35zM541 41v512q0 17 -12 28l-106 108q-14 11 -29 11h-148q-19 0 -29 -12 l-106 -106q-12 -14 -12 -29v-512q0 -17 12 -29t29 -12t29 12t12 29v194q0 22 14.5 36.5t35.5 14.5h177q21 0 36 -14.5t15 -36.5v-194q0 -17 12 -29t29 -12t29 12t12 29zM459 518v-99q0 -21 -15 -36t-36 -15h-177q-21 0 -35.5 15t-14.5 36v99q0 18 12 29l59 59q12 12 28 12 h79q17 0 29 -12l58 -59q13 -13 13 -29zM451 787h-192q-37 0 -48 37q-16 4 -26.5 17.5t-10.5 30.5q0 21 14.5 36.5t35.5 15.5h192q36 0 48 -37q37 -11 37 -50q0 -21 -14.5 -35.5t-35.5 -14.5zM224 832h192q17 0 28.5 11.5t11.5 28.5t-11.5 29.5t-28.5 12.5h-192 q-17 0 -28.5 -12.5t-11.5 -29.5t11.5 -28.5t28.5 -11.5z" glyph-name="Amacron" unicode="Ā"/><glyph d="M439 540l-26 27q-10 6 -19 6h-79q-11 0 -21 -9l-59 -59q-9 -11 -9 -22v-99q0 -5 1 -6h4h177q17 0 29 12t12 29v99q0 11 -10 22zM586 518v-512q0 -21 -15 -36t-36 -15q-17 0 -30.5 10.5t-18.5 26.5q-16 5 -26.5 18.5t-10.5 30.5v194v5q-1 1 -6 1h-177q-17 0 -28.5 -12 t-11.5 -29v-194q0 -21 -15 -36t-36 -15q-17 0 -30.5 10.5t-18.5 26.5q-16 5 -26.5 18.5t-10.5 30.5v512q0 23 15 36l106 106q15 15 36 15h148q22 0 36 -14l31 -32q1 -1 4 -3l106 -108q15 -15 15 -35zM541 41v512q0 17 -12 28l-106 108q-14 11 -29 11h-148q-19 0 -29 -12 l-106 -106q-12 -14 -12 -29v-512q0 -17 12 -29t29 -12t29 12t12 29v194q0 22 14.5 36.5t35.5 14.5h177q21 0 36 -14.5t15 -36.5v-194q0 -17 12 -29t29 -12t29 12t12 29zM459 518v-99q0 -21 -15 -36t-36 -15h-177q-21 0 -35.5 15t-14.5 36v99q0 18 12 29l59 59q12 12 28 12 h79q17 0 29 -12l58 -59q13 -13 13 -29zM451 787h-192q-37 0 -48 37q-16 4 -26.5 17.5t-10.5 30.5q0 21 14.5 36.5t35.5 15.5h192q36 0 48 -37q37 -11 37 -50q0 -21 -14.5 -35.5t-35.5 -14.5zM224 832h192q17 0 28.5 11.5t11.5 28.5t-11.5 29.5t-28.5 12.5h-192 q-17 0 -28.5 -12.5t-11.5 -29.5t11.5 -28.5t28.5 -11.5z" glyph-name="amacron" unicode="ā"/><glyph d="M439 540l-26 27q-10 6 -19 6h-79q-11 0 -21 -9l-59 -59q-9 -11 -9 -22v-99q0 -5 1 -6h4h177q17 0 29 12t12 29v99q0 11 -10 22zM586 518v-512q0 -21 -15 -36t-36 -15q-17 0 -30.5 10.5t-18.5 26.5q-16 5 -26.5 18.5t-10.5 30.5v194v5q-1 1 -6 1h-177q-17 0 -28.5 -12 t-11.5 -29v-194q0 -21 -15 -36t-36 -15q-17 0 -30.5 10.5t-18.5 26.5q-16 5 -26.5 18.5t-10.5 30.5v512q0 23 15 36l106 106q15 15 36 15h148q22 0 36 -14l31 -32q1 -1 4 -3l106 -108q15 -15 15 -35zM541 41v512q0 17 -12 28l-106 108q-14 11 -29 11h-148q-19 0 -29 -12 l-106 -106q-12 -14 -12 -29v-512q0 -17 12 -29t29 -12t29 12t12 29v194q0 22 14.5 36.5t35.5 14.5h177q21 0 36 -14.5t15 -36.5v-194q0 -17 12 -29t29 -12t29 12t12 29zM459 518v-99q0 -21 -15 -36t-36 -15h-177q-21 0 -35.5 15t-14.5 36v99q0 18 12 29l59 59q12 12 28 12 h79q17 0 29 -12l58 -59q13 -13 13 -29zM454 960q15 -2 25 -13.5t10 -27.5v-43q0 -17 -10 -27l-60 -62q-10 -10 -29 -10h-70q-19 0 -28 10l-30 31l-2 2q-2 1 -3 2l-60 62q-11 11 -11 27v43q0 17 12.5 29.5t29.5 12.5q34 0 42 -36q36 -4 36 -52q0 -3 2 -9q6 -2 15 -2 q12 0 21 9l16 16q9 9 9 32q0 18 12.5 30t30.5 12q15 0 27 -10.5t15 -25.5zM261 943v11q0 13 -9.5 22.5t-23.5 9.5t-23 -9.5t-9 -22.5v-43q0 -12 8 -20l60 -62q8 -7 21 -7h70q11 0 21 7l60 62q8 8 8 20v43q0 13 -9 22.5t-23 9.5t-23.5 -9.5t-9.5 -22.5v-11q0 -16 -12 -28 l-16 -16q-12 -12 -28 -12h-5q-18 0 -29 12l-16 16q-12 12 -12 28z" glyph-name="Abreve" unicode="Ă"/><glyph d="M439 540l-26 27q-10 6 -19 6h-79q-11 0 -21 -9l-59 -59q-9 -11 -9 -22v-99q0 -5 1 -6h4h177q17 0 29 12t12 29v99q0 11 -10 22zM586 518v-512q0 -21 -15 -36t-36 -15q-17 0 -30.5 10.5t-18.5 26.5q-16 5 -26.5 18.5t-10.5 30.5v194v5q-1 1 -6 1h-177q-17 0 -28.5 -12 t-11.5 -29v-194q0 -21 -15 -36t-36 -15q-17 0 -30.5 10.5t-18.5 26.5q-16 5 -26.5 18.5t-10.5 30.5v512q0 23 15 36l106 106q15 15 36 15h148q22 0 36 -14l31 -32q1 -1 4 -3l106 -108q15 -15 15 -35zM541 41v512q0 17 -12 28l-106 108q-14 11 -29 11h-148q-19 0 -29 -12 l-106 -106q-12 -14 -12 -29v-512q0 -17 12 -29t29 -12t29 12t12 29v194q0 22 14.5 36.5t35.5 14.5h177q21 0 36 -14.5t15 -36.5v-194q0 -17 12 -29t29 -12t29 12t12 29zM459 518v-99q0 -21 -15 -36t-36 -15h-177q-21 0 -35.5 15t-14.5 36v99q0 18 12 29l59 59q12 12 28 12 h79q17 0 29 -12l58 -59q13 -13 13 -29zM454 960q15 -2 25 -13.5t10 -27.5v-43q0 -17 -10 -27l-60 -62q-10 -10 -29 -10h-70q-19 0 -28 10l-30 31l-2 2q-2 1 -3 2l-60 62q-11 11 -11 27v43q0 17 12.5 29.5t29.5 12.5q34 0 42 -36q36 -4 36 -52q0 -3 2 -9q6 -2 15 -2 q12 0 21 9l16 16q9 9 9 32q0 18 12.5 30t30.5 12q15 0 27 -10.5t15 -25.5zM261 943v11q0 13 -9.5 22.5t-23.5 9.5t-23 -9.5t-9 -22.5v-43q0 -12 8 -20l60 -62q8 -7 21 -7h70q11 0 21 7l60 62q8 8 8 20v43q0 13 -9 22.5t-23 9.5t-23.5 -9.5t-9.5 -22.5v-11q0 -16 -12 -28 l-16 -16q-12 -12 -28 -12h-5q-18 0 -29 12l-16 16q-12 12 -12 28z" glyph-name="abreve" unicode="ă"/><glyph d="M439 540l-26 27q-10 6 -19 6h-79q-11 0 -21 -9l-59 -59q-9 -11 -9 -22v-99q0 -5 1 -6h4h177q17 0 29 12t12 29v99q0 11 -10 22zM586 518v-602q0 -19 -15 -34q-8 -10 -13 -15q-10 -8 -15 -13q-15 -12 -26 -25q-11 -14 -11 -23v-3q1 -2 1 -3q1 -1 6 -1q12 0 22 10l6 6 q3 1 7 5q8 5 20 5q15 0 26.5 -10t12.5 -26q15 -1 25 -11t10 -25q0 -18 -16 -34q-4 -6 -13 -12q-2 -2 -6 -5.5t-5 -4.5q-9 -9 -23 -9h-62q-14 0 -23 9l-55 53l-1 2q-2 2 -2 3l-32 31q-6 6 -8 21q-2 14 -2 25q0 10 0.5 24t0.5 16q0 15 10 25l60 58q7 7 9 20q1 7 1 22 q-26 15 -26 44v194v5q-1 1 -6 1h-177q-17 0 -28.5 -12t-11.5 -29v-194q0 -21 -15 -36t-36 -15q-17 0 -30.5 10.5t-18.5 26.5q-16 5 -26.5 18.5t-10.5 30.5v512q0 23 15 36l106 106q15 15 36 15h148q22 0 36 -14l31 -32q1 -1 4 -3l106 -108q15 -15 15 -35zM541 -49v602 q0 17 -12 28l-106 108q-14 11 -29 11h-148q-19 0 -29 -12l-106 -106q-12 -14 -12 -29v-512q0 -17 12 -29t29 -12t29 12t12 29v194q0 22 14.5 36.5t35.5 14.5h177q21 0 36 -14.5t15 -36.5v-194q0 -26 26 -38v-24q0 -18 -13 -31l-60 -58q-7 -10 -7 -18v-62q0 -7 6 -17l55 -53 q6 -7 16 -7h62q10 0 16 7l29 28q8 11 8 20q0 11 -8.5 19t-20.5 8q-13 0 -20 -7l-6 -6q-13 -13 -29 -13q-17 0 -30 13l-9 9q-13 13 -13 30q0 16 13 29l58 58q9 10 9 23zM459 518v-99q0 -21 -15 -36t-36 -15h-177q-21 0 -35.5 15t-14.5 36v99q0 18 12 29l59 59q12 12 28 12h79 q17 0 29 -12l58 -59q13 -13 13 -29z" glyph-name="Aogonek" unicode="Ą"/><glyph d="M439 540l-26 27q-10 6 -19 6h-79q-11 0 -21 -9l-59 -59q-9 -11 -9 -22v-99q0 -5 1 -6h4h177q17 0 29 12t12 29v99q0 11 -10 22zM586 518v-602q0 -19 -15 -34q-8 -10 -13 -15q-10 -8 -15 -13q-15 -12 -26 -25q-11 -14 -11 -23v-3q1 -2 1 -3q1 -1 6 -1q12 0 22 10l6 6 q3 1 7 5q8 5 20 5q15 0 26.5 -10t12.5 -26q15 -1 25 -11t10 -25q0 -18 -16 -34q-4 -6 -13 -12q-2 -2 -6 -5.5t-5 -4.5q-9 -9 -23 -9h-62q-14 0 -23 9l-55 53l-1 2q-2 2 -2 3l-32 31q-6 6 -8 21q-2 14 -2 25q0 10 0.5 24t0.5 16q0 15 10 25l60 58q7 7 9 20q1 7 1 22 q-26 15 -26 44v194v5q-1 1 -6 1h-177q-17 0 -28.5 -12t-11.5 -29v-194q0 -21 -15 -36t-36 -15q-17 0 -30.5 10.5t-18.5 26.5q-16 5 -26.5 18.5t-10.5 30.5v512q0 23 15 36l106 106q15 15 36 15h148q22 0 36 -14l31 -32q1 -1 4 -3l106 -108q15 -15 15 -35zM541 -49v602 q0 17 -12 28l-106 108q-14 11 -29 11h-148q-19 0 -29 -12l-106 -106q-12 -14 -12 -29v-512q0 -17 12 -29t29 -12t29 12t12 29v194q0 22 14.5 36.5t35.5 14.5h177q21 0 36 -14.5t15 -36.5v-194q0 -26 26 -38v-24q0 -18 -13 -31l-60 -58q-7 -10 -7 -18v-62q0 -7 6 -17l55 -53 q6 -7 16 -7h62q10 0 16 7l29 28q8 11 8 20q0 11 -8.5 19t-20.5 8q-13 0 -20 -7l-6 -6q-13 -13 -29 -13q-17 0 -30 13l-9 9q-13 13 -13 30q0 16 13 29l58 58q9 10 9 23zM459 518v-99q0 -21 -15 -36t-36 -15h-177q-21 0 -35.5 15t-14.5 36v99q0 18 12 29l59 59q12 12 28 12h79 q17 0 29 -12l58 -59q13 -13 13 -29z" glyph-name="aogonek" unicode="ą"/><glyph d="M226 483v-336q0 -11 9 -22l24 -24q9 -9 21 -9h78q13 0 22 9l58 59q8 8 10 21v31q0 21 15 36.5t36 15.5q17 0 30.5 -10.5t18.5 -26.5q16 -5 26.5 -19t10.5 -31v-65q0 -20 -15 -35l-106 -108q-10 -14 -36 -14h-147q-23 0 -38 15l-31 31l-4 4l-104 106q-15 15 -15 36v406 q0 21 15 36l104 106q15 15 38 15h147q22 0 36 -14l31 -32q1 -1 4 -3l106 -108q15 -15 15 -35v-65q0 -21 -15 -36.5t-36 -15.5q-36 0 -48 37q-38 12 -38 50q0 1 0.5 15.5t-0.5 15.5q-2 13 -10 21l-26 27q-10 6 -19 6h-78q-11 0 -21 -9l-59 -59q-9 -11 -9 -22zM181 182v336 q0 18 12 29l59 59q12 12 28 12h78q17 0 29 -12l58 -59q13 -13 13 -29v-30q0 -17 12 -29.5t29 -12.5t29 12.5t12 29.5v65q0 17 -12 28l-106 108q-14 11 -29 11h-147q-18 0 -31 -12l-104 -106q-12 -12 -12 -29v-406q0 -17 12 -29l104 -106q13 -12 31 -12h147q15 0 29 11 l106 108q12 11 12 28v65q0 17 -12 29.5t-29 12.5t-29 -12.5t-12 -29.5v-30q0 -16 -13 -29l-58 -59q-12 -12 -29 -12h-78q-16 0 -28 12l-59 59q-12 11 -12 29zM411 958q37 -12 37 -48q0 -22 -15 -35l-83 -84q-12 -14 -36 -14q-39 0 -50 37q-37 13 -37 48q0 21 16 37l82 83 q14 14 36 14q38 0 50 -38zM308 833l83 84q12 10 12 28q0 17 -12.5 29t-29.5 12q-15 0 -29 -11l-82 -83q-13 -13 -13 -30t12.5 -28.5t29.5 -11.5q15 0 29 11z" glyph-name="Cacute" unicode="Ć"/><glyph d="M226 483v-336q0 -11 9 -22l24 -24q9 -9 21 -9h78q13 0 22 9l58 59q8 8 10 21v31q0 21 15 36.5t36 15.5q17 0 30.5 -10.5t18.5 -26.5q16 -5 26.5 -19t10.5 -31v-65q0 -20 -15 -35l-106 -108q-10 -14 -36 -14h-147q-23 0 -38 15l-31 31l-4 4l-104 106q-15 15 -15 36v406 q0 21 15 36l104 106q15 15 38 15h147q22 0 36 -14l31 -32q1 -1 4 -3l106 -108q15 -15 15 -35v-65q0 -21 -15 -36.5t-36 -15.5q-36 0 -48 37q-38 12 -38 50q0 1 0.5 15.5t-0.5 15.5q-2 13 -10 21l-26 27q-10 6 -19 6h-78q-11 0 -21 -9l-59 -59q-9 -11 -9 -22zM181 182v336 q0 18 12 29l59 59q12 12 28 12h78q17 0 29 -12l58 -59q13 -13 13 -29v-30q0 -17 12 -29.5t29 -12.5t29 12.5t12 29.5v65q0 17 -12 28l-106 108q-14 11 -29 11h-147q-18 0 -31 -12l-104 -106q-12 -12 -12 -29v-406q0 -17 12 -29l104 -106q13 -12 31 -12h147q15 0 29 11 l106 108q12 11 12 28v65q0 17 -12 29.5t-29 12.5t-29 -12.5t-12 -29.5v-30q0 -16 -13 -29l-58 -59q-12 -12 -29 -12h-78q-16 0 -28 12l-59 59q-12 11 -12 29zM411 958q37 -12 37 -48q0 -22 -15 -35l-83 -84q-12 -14 -36 -14q-39 0 -50 37q-37 13 -37 48q0 21 16 37l82 83 q14 14 36 14q38 0 50 -38zM308 833l83 84q12 10 12 28q0 17 -12.5 29t-29.5 12q-15 0 -29 -11l-82 -83q-13 -13 -13 -30t12.5 -28.5t29.5 -11.5q15 0 29 11z" glyph-name="cacute" unicode="ć"/><glyph d="M226 483v-336q0 -11 9 -22l24 -24q9 -9 21 -9h78q13 0 22 9l58 59q8 8 10 21v31q0 21 15 36.5t36 15.5q17 0 30.5 -10.5t18.5 -26.5q16 -5 26.5 -19t10.5 -31v-65q0 -20 -15 -35l-106 -108q-10 -14 -36 -14h-147q-23 0 -38 15l-31 31l-4 4l-104 106q-15 15 -15 36v406 q0 21 15 36l104 106q15 15 38 15h147q22 0 36 -14l31 -32q1 -1 4 -3l106 -108q15 -15 15 -35v-65q0 -21 -15 -36.5t-36 -15.5q-36 0 -48 37q-38 12 -38 50q0 1 0.5 15.5t-0.5 15.5q-2 13 -10 21l-26 27q-10 6 -19 6h-78q-11 0 -21 -9l-59 -59q-9 -11 -9 -22zM181 182v336 q0 18 12 29l59 59q12 12 28 12h78q17 0 29 -12l58 -59q13 -13 13 -29v-30q0 -17 12 -29.5t29 -12.5t29 12.5t12 29.5v65q0 17 -12 28l-106 108q-14 11 -29 11h-147q-18 0 -31 -12l-104 -106q-12 -12 -12 -29v-406q0 -17 12 -29l104 -106q13 -12 31 -12h147q15 0 29 11 l106 108q12 11 12 28v65q0 17 -12 29.5t-29 12.5t-29 -12.5t-12 -29.5v-30q0 -16 -13 -29l-58 -59q-12 -12 -29 -12h-78q-16 0 -28 12l-59 59q-12 11 -12 29zM449 887l33 -32q12 -11 12 -34q0 -20 -12 -32t-32 -12q-18 0 -32 11q-2 2 -6 5t-6 5q-3 4 -10 11q-3 3 -13 14 q-1 1 -4 3t-4 3q-10 7 -19 7q-15 0 -40 -27q-2 -1 -3.5 -3t-4 -4.5l-3.5 -3.5t-5 -4.5t-7 -5.5q-14 -11 -32 -11q-16 0 -28.5 10t-15.5 26q-16 3 -26 14.5t-10 28.5q0 21 13 34l95 93q13 13 32 13t32 -13l94 -93q2 -2 2 -3zM251 831l38 36q12 14 32 14q19 0 31 -14l37 -36 q11 -9 26 -9t24.5 9.5t9.5 24.5t-9 27l-94 93q-10 10 -25 10q-16 0 -25 -10l-95 -93q-10 -13 -10 -27t10.5 -24t24.5 -10q16 0 25 9z" glyph-name="Ccircumflex" unicode="Ĉ"/><glyph d="M226 483v-336q0 -11 9 -22l24 -24q9 -9 21 -9h78q13 0 22 9l58 59q8 8 10 21v31q0 21 15 36.5t36 15.5q17 0 30.5 -10.5t18.5 -26.5q16 -5 26.5 -19t10.5 -31v-65q0 -20 -15 -35l-106 -108q-10 -14 -36 -14h-147q-23 0 -38 15l-31 31l-4 4l-104 106q-15 15 -15 36v406 q0 21 15 36l104 106q15 15 38 15h147q22 0 36 -14l31 -32q1 -1 4 -3l106 -108q15 -15 15 -35v-65q0 -21 -15 -36.5t-36 -15.5q-36 0 -48 37q-38 12 -38 50q0 1 0.5 15.5t-0.5 15.5q-2 13 -10 21l-26 27q-10 6 -19 6h-78q-11 0 -21 -9l-59 -59q-9 -11 -9 -22zM181 182v336 q0 18 12 29l59 59q12 12 28 12h78q17 0 29 -12l58 -59q13 -13 13 -29v-30q0 -17 12 -29.5t29 -12.5t29 12.5t12 29.5v65q0 17 -12 28l-106 108q-14 11 -29 11h-147q-18 0 -31 -12l-104 -106q-12 -12 -12 -29v-406q0 -17 12 -29l104 -106q13 -12 31 -12h147q15 0 29 11 l106 108q12 11 12 28v65q0 17 -12 29.5t-29 12.5t-29 -12.5t-12 -29.5v-30q0 -16 -13 -29l-58 -59q-12 -12 -29 -12h-78q-16 0 -28 12l-59 59q-12 11 -12 29zM449 887l33 -32q12 -11 12 -34q0 -20 -12 -32t-32 -12q-18 0 -32 11q-2 2 -6 5t-6 5q-3 4 -10 11q-3 3 -13 14 q-1 1 -4 3t-4 3q-10 7 -19 7q-15 0 -40 -27q-2 -1 -3.5 -3t-4 -4.5l-3.5 -3.5t-5 -4.5t-7 -5.5q-14 -11 -32 -11q-16 0 -28.5 10t-15.5 26q-16 3 -26 14.5t-10 28.5q0 21 13 34l95 93q13 13 32 13t32 -13l94 -93q2 -2 2 -3zM251 831l38 36q12 14 32 14q19 0 31 -14l37 -36 q11 -9 26 -9t24.5 9.5t9.5 24.5t-9 27l-94 93q-10 10 -25 10q-16 0 -25 -10l-95 -93q-10 -13 -10 -27t10.5 -24t24.5 -10q16 0 25 9z" glyph-name="ccircumflex" unicode="ĉ"/><glyph d="M226 483v-336q0 -11 9 -22l24 -24q9 -9 21 -9h78q13 0 22 9l58 59q8 8 10 21v31q0 21 15 36.5t36 15.5q17 0 30.5 -10.5t18.5 -26.5q16 -5 26.5 -19t10.5 -31v-65q0 -20 -15 -35l-106 -108q-10 -14 -36 -14h-147q-23 0 -38 15l-31 31l-4 4l-104 106q-15 15 -15 36v406 q0 21 15 36l104 106q15 15 38 15h147q22 0 36 -14l31 -32q1 -1 4 -3l106 -108q15 -15 15 -35v-65q0 -21 -15 -36.5t-36 -15.5q-36 0 -48 37q-38 12 -38 50q0 1 0.5 15.5t-0.5 15.5q-2 13 -10 21l-26 27q-10 6 -19 6h-78q-11 0 -21 -9l-59 -59q-9 -11 -9 -22zM181 182v336 q0 18 12 29l59 59q12 12 28 12h78q17 0 29 -12l58 -59q13 -13 13 -29v-30q0 -17 12 -29.5t29 -12.5t29 12.5t12 29.5v65q0 17 -12 28l-106 108q-14 11 -29 11h-147q-18 0 -31 -12l-104 -106q-12 -12 -12 -29v-406q0 -17 12 -29l104 -106q13 -12 31 -12h147q15 0 29 11 l106 108q12 11 12 28v65q0 17 -12 29.5t-29 12.5t-29 -12.5t-12 -29.5v-30q0 -16 -13 -29l-58 -59q-12 -12 -29 -12h-78q-16 0 -28 12l-59 59q-12 11 -12 29zM371 792h-31q-37 0 -48 37q-16 4 -26.5 17.5t-10.5 30.5v31q0 20 15 35t35 15h31q17 0 30.5 -10.5t17.5 -26.5 q37 -11 37 -48v-31q0 -21 -14.5 -35.5t-35.5 -14.5zM305 837h31q17 0 28.5 11.5t11.5 28.5v31q0 17 -11.5 28.5t-28.5 11.5h-31q-17 0 -28.5 -11.5t-11.5 -28.5v-31q0 -17 11.5 -28.5t28.5 -11.5z" glyph-name="Cdotaccent" unicode="Ċ"/><glyph d="M226 483v-336q0 -11 9 -22l24 -24q9 -9 21 -9h78q13 0 22 9l58 59q8 8 10 21v31q0 21 15 36.5t36 15.5q17 0 30.5 -10.5t18.5 -26.5q16 -5 26.5 -19t10.5 -31v-65q0 -20 -15 -35l-106 -108q-10 -14 -36 -14h-147q-23 0 -38 15l-31 31l-4 4l-104 106q-15 15 -15 36v406 q0 21 15 36l104 106q15 15 38 15h147q22 0 36 -14l31 -32q1 -1 4 -3l106 -108q15 -15 15 -35v-65q0 -21 -15 -36.5t-36 -15.5q-36 0 -48 37q-38 12 -38 50q0 1 0.5 15.5t-0.5 15.5q-2 13 -10 21l-26 27q-10 6 -19 6h-78q-11 0 -21 -9l-59 -59q-9 -11 -9 -22zM181 182v336 q0 18 12 29l59 59q12 12 28 12h78q17 0 29 -12l58 -59q13 -13 13 -29v-30q0 -17 12 -29.5t29 -12.5t29 12.5t12 29.5v65q0 17 -12 28l-106 108q-14 11 -29 11h-147q-18 0 -31 -12l-104 -106q-12 -12 -12 -29v-406q0 -17 12 -29l104 -106q13 -12 31 -12h147q15 0 29 11 l106 108q12 11 12 28v65q0 17 -12 29.5t-29 12.5t-29 -12.5t-12 -29.5v-30q0 -16 -13 -29l-58 -59q-12 -12 -29 -12h-78q-16 0 -28 12l-59 59q-12 11 -12 29zM371 792h-31q-37 0 -48 37q-16 4 -26.5 17.5t-10.5 30.5v31q0 20 15 35t35 15h31q17 0 30.5 -10.5t17.5 -26.5 q37 -11 37 -48v-31q0 -21 -14.5 -35.5t-35.5 -14.5zM305 837h31q17 0 28.5 11.5t11.5 28.5v31q0 17 -11.5 28.5t-28.5 11.5h-31q-17 0 -28.5 -11.5t-11.5 -28.5v-31q0 -17 11.5 -28.5t28.5 -11.5z" glyph-name="cdotaccent" unicode="ċ"/><glyph d="M226 483v-336q0 -11 9 -22l24 -24q9 -9 21 -9h78q13 0 22 9l58 59q8 8 10 21v31q0 21 15 36.5t36 15.5q17 0 30.5 -10.5t18.5 -26.5q16 -5 26.5 -19t10.5 -31v-65q0 -20 -15 -35l-106 -108q-10 -14 -36 -14h-147q-23 0 -38 15l-31 31l-4 4l-104 106q-15 15 -15 36v406 q0 21 15 36l104 106q15 15 38 15h147q22 0 36 -14l31 -32q1 -1 4 -3l106 -108q15 -15 15 -35v-65q0 -21 -15 -36.5t-36 -15.5q-36 0 -48 37q-38 12 -38 50q0 1 0.5 15.5t-0.5 15.5q-2 13 -10 21l-26 27q-10 6 -19 6h-78q-11 0 -21 -9l-59 -59q-9 -11 -9 -22zM181 182v336 q0 18 12 29l59 59q12 12 28 12h78q17 0 29 -12l58 -59q13 -13 13 -29v-30q0 -17 12 -29.5t29 -12.5t29 12.5t12 29.5v65q0 17 -12 28l-106 108q-14 11 -29 11h-147q-18 0 -31 -12l-104 -106q-12 -12 -12 -29v-406q0 -17 12 -29l104 -106q13 -12 31 -12h147q15 0 29 11 l106 108q12 11 12 28v65q0 17 -12 29.5t-29 12.5t-29 -12.5t-12 -29.5v-30q0 -16 -13 -29l-58 -59q-12 -12 -29 -12h-78q-16 0 -28 12l-59 59q-12 11 -12 29zM458 960q16 -3 26 -16t10 -29q0 -21 -13 -32l-93 -94q-11 -12 -32 -12q-22 0 -34 12l-32 32l-3 3l-93 94 q-13 13 -13 32q0 18 13.5 32t31.5 14q17 0 32 -12q4 -3 11 -10q2 -2 5.5 -6t5.5 -6q1 -2 8 -9q2 0 2 -2q2 -1 3 -2q3 -2 10 -9q12 -5 18 -5q9 0 20 8q11 7 20 19q1 2 5 6t5 6q2 2 6 5t6 5q13 12 31 12q17 0 29 -10.5t15 -25.5zM288 939l-36 37q-10 10 -26 10 q-14 0 -24.5 -11t-10.5 -25q0 -15 10 -25l93 -94q10 -9 27 -9q15 0 25 9l93 94q10 11 10 25q0 15 -10.5 25.5t-24.5 10.5q-15 0 -25 -10l-37 -37q-12 -14 -31 -14q-21 0 -33 14z" glyph-name="Ccaron" unicode="Č"/><glyph d="M226 483v-336q0 -11 9 -22l24 -24q9 -9 21 -9h78q13 0 22 9l58 59q8 8 10 21v31q0 21 15 36.5t36 15.5q17 0 30.5 -10.5t18.5 -26.5q16 -5 26.5 -19t10.5 -31v-65q0 -20 -15 -35l-106 -108q-10 -14 -36 -14h-147q-23 0 -38 15l-31 31l-4 4l-104 106q-15 15 -15 36v406 q0 21 15 36l104 106q15 15 38 15h147q22 0 36 -14l31 -32q1 -1 4 -3l106 -108q15 -15 15 -35v-65q0 -21 -15 -36.5t-36 -15.5q-36 0 -48 37q-38 12 -38 50q0 1 0.5 15.5t-0.5 15.5q-2 13 -10 21l-26 27q-10 6 -19 6h-78q-11 0 -21 -9l-59 -59q-9 -11 -9 -22zM181 182v336 q0 18 12 29l59 59q12 12 28 12h78q17 0 29 -12l58 -59q13 -13 13 -29v-30q0 -17 12 -29.5t29 -12.5t29 12.5t12 29.5v65q0 17 -12 28l-106 108q-14 11 -29 11h-147q-18 0 -31 -12l-104 -106q-12 -12 -12 -29v-406q0 -17 12 -29l104 -106q13 -12 31 -12h147q15 0 29 11 l106 108q12 11 12 28v65q0 17 -12 29.5t-29 12.5t-29 -12.5t-12 -29.5v-30q0 -16 -13 -29l-58 -59q-12 -12 -29 -12h-78q-16 0 -28 12l-59 59q-12 11 -12 29zM458 960q16 -3 26 -16t10 -29q0 -21 -13 -32l-93 -94q-11 -12 -32 -12q-22 0 -34 12l-32 32l-3 3l-93 94 q-13 13 -13 32q0 18 13.5 32t31.5 14q17 0 32 -12q4 -3 11 -10q2 -2 5.5 -6t5.5 -6q1 -2 8 -9q2 0 2 -2q2 -1 3 -2q3 -2 10 -9q12 -5 18 -5q9 0 20 8q11 7 20 19q1 2 5 6t5 6q2 2 6 5t6 5q13 12 31 12q17 0 29 -10.5t15 -25.5zM288 939l-36 37q-10 10 -26 10 q-14 0 -24.5 -11t-10.5 -25q0 -15 10 -25l93 -94q10 -9 27 -9q15 0 25 9l93 94q10 11 10 25q0 15 -10.5 25.5t-24.5 10.5q-15 0 -25 -10l-37 -37q-12 -14 -31 -14q-21 0 -33 14z" glyph-name="ccaron" unicode="č"/><glyph d="M439 540l-26 27q-10 6 -19 6h-128q-17 0 -28.5 -12t-11.5 -29v-434q0 -5 1 -6h4h128q13 0 22 9l58 59q10 11 10 22v336q0 11 -10 22zM586 518v-406q0 -20 -15 -35l-106 -108q-10 -14 -36 -14h-254q-17 0 -30.5 10.5t-18.5 26.5q-16 5 -26.5 18.5t-10.5 30.5v618 q0 21 15 36t36 15h254q22 0 36 -14l31 -32q1 -1 4 -3l106 -108q15 -15 15 -35zM446 153l-58 -59q-12 -12 -29 -12h-128q-21 0 -35.5 15t-14.5 36v434q0 21 14.5 36t35.5 15h128q17 0 29 -12l58 -59q13 -13 13 -29v-336q0 -16 -13 -29zM529 581l-106 108q-14 11 -29 11h-254 q-17 0 -29 -12t-12 -29v-618q0 -17 12 -29t29 -12h254q15 0 29 11l106 108q12 11 12 28v406q0 17 -12 28zM458 960q16 -3 26 -16t10 -29q0 -21 -13 -32l-93 -94q-11 -12 -32 -12q-22 0 -34 12l-32 32l-3 3l-93 94q-13 13 -13 32q0 18 13.5 32t31.5 14q17 0 32 -12 q4 -3 11 -10q2 -2 5.5 -6t5.5 -6q1 -2 8 -9q2 0 2 -2q2 -1 3 -2q3 -2 10 -9q12 -5 18 -5q9 0 20 8q11 7 20 19q1 2 5 6t5 6q2 2 6 5t6 5q13 12 31 12q17 0 29 -10.5t15 -25.5zM288 939l-36 37q-10 10 -26 10q-14 0 -24.5 -11t-10.5 -25q0 -15 10 -25l93 -94q10 -9 27 -9 q15 0 25 9l93 94q10 11 10 25q0 15 -10.5 25.5t-24.5 10.5q-15 0 -25 -10l-37 -37q-12 -14 -31 -14q-21 0 -33 14z" glyph-name="Dcaron" unicode="Ď"/><glyph d="M439 540l-26 27q-10 6 -19 6h-128q-17 0 -28.5 -12t-11.5 -29v-434q0 -5 1 -6h4h128q13 0 22 9l58 59q10 11 10 22v336q0 11 -10 22zM586 518v-406q0 -20 -15 -35l-106 -108q-10 -14 -36 -14h-254q-17 0 -30.5 10.5t-18.5 26.5q-16 5 -26.5 18.5t-10.5 30.5v618 q0 21 15 36t36 15h254q22 0 36 -14l31 -32q1 -1 4 -3l106 -108q15 -15 15 -35zM446 153l-58 -59q-12 -12 -29 -12h-128q-21 0 -35.5 15t-14.5 36v434q0 21 14.5 36t35.5 15h128q17 0 29 -12l58 -59q13 -13 13 -29v-336q0 -16 -13 -29zM529 581l-106 108q-14 11 -29 11h-254 q-17 0 -29 -12t-12 -29v-618q0 -17 12 -29t29 -12h254q15 0 29 11l106 108q12 11 12 28v406q0 17 -12 28zM458 960q16 -3 26 -16t10 -29q0 -21 -13 -32l-93 -94q-11 -12 -32 -12q-22 0 -34 12l-32 32l-3 3l-93 94q-13 13 -13 32q0 18 13.5 32t31.5 14q17 0 32 -12 q4 -3 11 -10q2 -2 5.5 -6t5.5 -6q1 -2 8 -9q2 0 2 -2q2 -1 3 -2q3 -2 10 -9q12 -5 18 -5q9 0 20 8q11 7 20 19q1 2 5 6t5 6q2 2 6 5t6 5q13 12 31 12q17 0 29 -10.5t15 -25.5zM288 939l-36 37q-10 10 -26 10q-14 0 -24.5 -11t-10.5 -25q0 -15 10 -25l93 -94q10 -9 27 -9 q15 0 25 9l93 94q10 11 10 25q0 15 -10.5 25.5t-24.5 10.5q-15 0 -25 -10l-37 -37q-12 -14 -31 -14q-21 0 -33 14z" glyph-name="dcaron" unicode="ď"/><glyph d="M226 255v-157q0 -5 1 -6h4h128q13 0 22 9l58 59q10 11 10 22v336q0 11 -10 22l-26 27q-10 6 -19 6h-128q-17 0 -28.5 -12t-11.5 -29v-130h117q36 0 48 -37q37 -11 37 -49q0 -21 -14.5 -36t-35.5 -15h-142q-10 0 -10 -10zM430 696l31 -32q1 -1 4 -3l106 -108 q15 -15 15 -35v-406q0 -20 -15 -35l-106 -108q-12 -14 -36 -14h-254q-17 0 -30.5 10.5t-18.5 26.5q-16 5 -26.5 18.5t-10.5 30.5v226q-26 8 -34 35q-16 5 -26.5 18.5t-10.5 30.5q0 20 15.5 35.5t35.5 15.5h10l6 2q4 0 4 8v247q0 21 15 36t36 15h254q22 0 36 -14zM99 659 v-247q0 -20 -20 -20h-10q-17 0 -29 -12t-12 -29t12 -29t29 -12h10q20 0 20 -20v-249q0 -17 12 -29t29 -12h254q15 0 29 11l106 108q12 11 12 28v406q0 17 -12 28l-106 108q-14 11 -29 11h-254q-17 0 -29 -12t-12 -29zM181 133v157q0 20 20 20h142q17 0 28.5 12t11.5 29 t-11.5 29t-28.5 12h-142q-20 0 -20 20v155q0 21 14.5 36t35.5 15h128q17 0 29 -12l58 -59q13 -13 13 -29v-336q0 -16 -13 -29l-58 -59q-12 -12 -29 -12h-128q-21 0 -35.5 15t-14.5 36z" glyph-name="Dcroat" unicode="Đ"/><glyph d="M226 255v-157q0 -5 1 -6h4h128q13 0 22 9l58 59q10 11 10 22v336q0 11 -10 22l-26 27q-10 6 -19 6h-128q-17 0 -28.5 -12t-11.5 -29v-130h117q36 0 48 -37q37 -11 37 -49q0 -21 -14.5 -36t-35.5 -15h-142q-10 0 -10 -10zM430 696l31 -32q1 -1 4 -3l106 -108 q15 -15 15 -35v-406q0 -20 -15 -35l-106 -108q-12 -14 -36 -14h-254q-17 0 -30.5 10.5t-18.5 26.5q-16 5 -26.5 18.5t-10.5 30.5v226q-26 8 -34 35q-16 5 -26.5 18.5t-10.5 30.5q0 20 15.5 35.5t35.5 15.5h10l6 2q4 0 4 8v247q0 21 15 36t36 15h254q22 0 36 -14zM99 659 v-247q0 -20 -20 -20h-10q-17 0 -29 -12t-12 -29t12 -29t29 -12h10q20 0 20 -20v-249q0 -17 12 -29t29 -12h254q15 0 29 11l106 108q12 11 12 28v406q0 17 -12 28l-106 108q-14 11 -29 11h-254q-17 0 -29 -12t-12 -29zM181 133v157q0 20 20 20h142q17 0 28.5 12t11.5 29 t-11.5 29t-28.5 12h-142q-20 0 -20 20v155q0 21 14.5 36t35.5 15h128q17 0 29 -12l58 -59q13 -13 13 -29v-336q0 -16 -13 -29l-58 -59q-12 -12 -29 -12h-128q-21 0 -35.5 15t-14.5 36z" glyph-name="dcroat" unicode="đ"/><glyph d="M548 673q16 -5 26.5 -18.5t10.5 -30.5q0 -21 -15 -36t-36 -15h-268q-17 0 -28.5 -12t-11.5 -29v-125q0 -5 1 -6h4h199q38 0 50 -38q37 -12 37 -48q0 -21 -15.5 -36t-36.5 -15h-199q-17 0 -28.5 -12t-11.5 -29v-125q0 -5 1 -6h4h268q17 0 30.5 -10.5t18.5 -26.5 q16 -5 26.5 -18.5t10.5 -30.5q0 -21 -15 -36t-36 -15h-359q-17 0 -30.5 10.5t-18.5 26.5q-16 5 -26.5 18.5t-10.5 30.5v618q0 21 15 36t36 15h359q17 0 30.5 -10.5t18.5 -26.5zM99 659v-618q0 -17 12 -29t29 -12h359q17 0 29 12t12 29t-12 29t-29 12h-268q-21 0 -35.5 15 t-14.5 36v125q0 21 14.5 36t35.5 15h199q17 0 29.5 12t12.5 29t-12.5 29t-29.5 12h-199q-21 0 -35.5 15t-14.5 36v125q0 21 14.5 36t35.5 15h268q17 0 29 12t12 29t-12 29t-29 12h-359q-17 0 -29 -12t-12 -29zM451 787h-192q-37 0 -48 37q-16 4 -26.5 17.5t-10.5 30.5 q0 21 14.5 36.5t35.5 15.5h192q36 0 48 -37q37 -11 37 -50q0 -21 -14.5 -35.5t-35.5 -14.5zM224 832h192q17 0 28.5 11.5t11.5 28.5t-11.5 29.5t-28.5 12.5h-192q-17 0 -28.5 -12.5t-11.5 -29.5t11.5 -28.5t28.5 -11.5z" glyph-name="Emacron" unicode="Ē"/><glyph d="M548 673q16 -5 26.5 -18.5t10.5 -30.5q0 -21 -15 -36t-36 -15h-268q-17 0 -28.5 -12t-11.5 -29v-125q0 -5 1 -6h4h199q38 0 50 -38q37 -12 37 -48q0 -21 -15.5 -36t-36.5 -15h-199q-17 0 -28.5 -12t-11.5 -29v-125q0 -5 1 -6h4h268q17 0 30.5 -10.5t18.5 -26.5 q16 -5 26.5 -18.5t10.5 -30.5q0 -21 -15 -36t-36 -15h-359q-17 0 -30.5 10.5t-18.5 26.5q-16 5 -26.5 18.5t-10.5 30.5v618q0 21 15 36t36 15h359q17 0 30.5 -10.5t18.5 -26.5zM99 659v-618q0 -17 12 -29t29 -12h359q17 0 29 12t12 29t-12 29t-29 12h-268q-21 0 -35.5 15 t-14.5 36v125q0 21 14.5 36t35.5 15h199q17 0 29.5 12t12.5 29t-12.5 29t-29.5 12h-199q-21 0 -35.5 15t-14.5 36v125q0 21 14.5 36t35.5 15h268q17 0 29 12t12 29t-12 29t-29 12h-359q-17 0 -29 -12t-12 -29zM451 787h-192q-37 0 -48 37q-16 4 -26.5 17.5t-10.5 30.5 q0 21 14.5 36.5t35.5 15.5h192q36 0 48 -37q37 -11 37 -50q0 -21 -14.5 -35.5t-35.5 -14.5zM224 832h192q17 0 28.5 11.5t11.5 28.5t-11.5 29.5t-28.5 12.5h-192q-17 0 -28.5 -12.5t-11.5 -29.5t11.5 -28.5t28.5 -11.5z" glyph-name="emacron" unicode="ē"/><glyph d="M548 673q16 -5 26.5 -18.5t10.5 -30.5q0 -21 -15 -36t-36 -15h-268q-17 0 -28.5 -12t-11.5 -29v-125q0 -5 1 -6h4h199q38 0 50 -38q37 -12 37 -48q0 -21 -15.5 -36t-36.5 -15h-199q-17 0 -28.5 -12t-11.5 -29v-125q0 -5 1 -6h4h268q17 0 30.5 -10.5t18.5 -26.5 q16 -5 26.5 -18.5t10.5 -30.5q0 -21 -15 -36t-36 -15h-359q-17 0 -30.5 10.5t-18.5 26.5q-16 5 -26.5 18.5t-10.5 30.5v618q0 21 15 36t36 15h359q17 0 30.5 -10.5t18.5 -26.5zM99 659v-618q0 -17 12 -29t29 -12h359q17 0 29 12t12 29t-12 29t-29 12h-268q-21 0 -35.5 15 t-14.5 36v125q0 21 14.5 36t35.5 15h199q17 0 29.5 12t12.5 29t-12.5 29t-29.5 12h-199q-21 0 -35.5 15t-14.5 36v125q0 21 14.5 36t35.5 15h268q17 0 29 12t12 29t-12 29t-29 12h-359q-17 0 -29 -12t-12 -29zM454 960q15 -2 25 -13.5t10 -27.5v-43q0 -17 -10 -27l-60 -62 q-10 -10 -29 -10h-70q-19 0 -28 10l-30 31l-2 2q-2 1 -3 2l-60 62q-11 11 -11 27v43q0 17 12.5 29.5t29.5 12.5q34 0 42 -36q36 -4 36 -52q0 -3 2 -9q6 -2 15 -2q12 0 21 9l16 16q9 9 9 32q0 18 12.5 30t30.5 12q15 0 27 -10.5t15 -25.5zM261 943v11q0 13 -9.5 22.5 t-23.5 9.5t-23 -9.5t-9 -22.5v-43q0 -12 8 -20l60 -62q8 -7 21 -7h70q11 0 21 7l60 62q8 8 8 20v43q0 13 -9 22.5t-23 9.5t-23.5 -9.5t-9.5 -22.5v-11q0 -16 -12 -28l-16 -16q-12 -12 -28 -12h-5q-18 0 -29 12l-16 16q-12 12 -12 28z" glyph-name="Ebreve" unicode="Ĕ"/><glyph d="M548 673q16 -5 26.5 -18.5t10.5 -30.5q0 -21 -15 -36t-36 -15h-268q-17 0 -28.5 -12t-11.5 -29v-125q0 -5 1 -6h4h199q38 0 50 -38q37 -12 37 -48q0 -21 -15.5 -36t-36.5 -15h-199q-17 0 -28.5 -12t-11.5 -29v-125q0 -5 1 -6h4h268q17 0 30.5 -10.5t18.5 -26.5 q16 -5 26.5 -18.5t10.5 -30.5q0 -21 -15 -36t-36 -15h-359q-17 0 -30.5 10.5t-18.5 26.5q-16 5 -26.5 18.5t-10.5 30.5v618q0 21 15 36t36 15h359q17 0 30.5 -10.5t18.5 -26.5zM99 659v-618q0 -17 12 -29t29 -12h359q17 0 29 12t12 29t-12 29t-29 12h-268q-21 0 -35.5 15 t-14.5 36v125q0 21 14.5 36t35.5 15h199q17 0 29.5 12t12.5 29t-12.5 29t-29.5 12h-199q-21 0 -35.5 15t-14.5 36v125q0 21 14.5 36t35.5 15h268q17 0 29 12t12 29t-12 29t-29 12h-359q-17 0 -29 -12t-12 -29zM454 960q15 -2 25 -13.5t10 -27.5v-43q0 -17 -10 -27l-60 -62 q-10 -10 -29 -10h-70q-19 0 -28 10l-30 31l-2 2q-2 1 -3 2l-60 62q-11 11 -11 27v43q0 17 12.5 29.5t29.5 12.5q34 0 42 -36q36 -4 36 -52q0 -3 2 -9q6 -2 15 -2q12 0 21 9l16 16q9 9 9 32q0 18 12.5 30t30.5 12q15 0 27 -10.5t15 -25.5zM261 943v11q0 13 -9.5 22.5 t-23.5 9.5t-23 -9.5t-9 -22.5v-43q0 -12 8 -20l60 -62q8 -7 21 -7h70q11 0 21 7l60 62q8 8 8 20v43q0 13 -9 22.5t-23 9.5t-23.5 -9.5t-9.5 -22.5v-11q0 -16 -12 -28l-16 -16q-12 -12 -28 -12h-5q-18 0 -29 12l-16 16q-12 12 -12 28z" glyph-name="ebreve" unicode="ĕ"/><glyph d="M548 673q16 -5 26.5 -18.5t10.5 -30.5q0 -21 -15 -36t-36 -15h-268q-17 0 -28.5 -12t-11.5 -29v-125q0 -5 1 -6h4h199q38 0 50 -38q37 -12 37 -48q0 -21 -15.5 -36t-36.5 -15h-199q-17 0 -28.5 -12t-11.5 -29v-125q0 -5 1 -6h4h268q17 0 30.5 -10.5t18.5 -26.5 q16 -5 26.5 -18.5t10.5 -30.5q0 -21 -15 -36t-36 -15h-359q-17 0 -30.5 10.5t-18.5 26.5q-16 5 -26.5 18.5t-10.5 30.5v618q0 21 15 36t36 15h359q17 0 30.5 -10.5t18.5 -26.5zM99 659v-618q0 -17 12 -29t29 -12h359q17 0 29 12t12 29t-12 29t-29 12h-268q-21 0 -35.5 15 t-14.5 36v125q0 21 14.5 36t35.5 15h199q17 0 29.5 12t12.5 29t-12.5 29t-29.5 12h-199q-21 0 -35.5 15t-14.5 36v125q0 21 14.5 36t35.5 15h268q17 0 29 12t12 29t-12 29t-29 12h-359q-17 0 -29 -12t-12 -29zM371 792h-31q-37 0 -48 37q-16 4 -26.5 17.5t-10.5 30.5v31 q0 20 15 35t35 15h31q17 0 30.5 -10.5t17.5 -26.5q37 -11 37 -48v-31q0 -21 -14.5 -35.5t-35.5 -14.5zM305 837h31q17 0 28.5 11.5t11.5 28.5v31q0 17 -11.5 28.5t-28.5 11.5h-31q-17 0 -28.5 -11.5t-11.5 -28.5v-31q0 -17 11.5 -28.5t28.5 -11.5z" glyph-name="Edotaccent" unicode="Ė"/><glyph d="M548 673q16 -5 26.5 -18.5t10.5 -30.5q0 -21 -15 -36t-36 -15h-268q-17 0 -28.5 -12t-11.5 -29v-125q0 -5 1 -6h4h199q38 0 50 -38q37 -12 37 -48q0 -21 -15.5 -36t-36.5 -15h-199q-17 0 -28.5 -12t-11.5 -29v-125q0 -5 1 -6h4h268q17 0 30.5 -10.5t18.5 -26.5 q16 -5 26.5 -18.5t10.5 -30.5q0 -21 -15 -36t-36 -15h-359q-17 0 -30.5 10.5t-18.5 26.5q-16 5 -26.5 18.5t-10.5 30.5v618q0 21 15 36t36 15h359q17 0 30.5 -10.5t18.5 -26.5zM99 659v-618q0 -17 12 -29t29 -12h359q17 0 29 12t12 29t-12 29t-29 12h-268q-21 0 -35.5 15 t-14.5 36v125q0 21 14.5 36t35.5 15h199q17 0 29.5 12t12.5 29t-12.5 29t-29.5 12h-199q-21 0 -35.5 15t-14.5 36v125q0 21 14.5 36t35.5 15h268q17 0 29 12t12 29t-12 29t-29 12h-359q-17 0 -29 -12t-12 -29zM371 792h-31q-37 0 -48 37q-16 4 -26.5 17.5t-10.5 30.5v31 q0 20 15 35t35 15h31q17 0 30.5 -10.5t17.5 -26.5q37 -11 37 -48v-31q0 -21 -14.5 -35.5t-35.5 -14.5zM305 837h31q17 0 28.5 11.5t11.5 28.5v31q0 17 -11.5 28.5t-28.5 11.5h-31q-17 0 -28.5 -11.5t-11.5 -28.5v-31q0 -17 11.5 -28.5t28.5 -11.5z" glyph-name="edotaccent" unicode="ė"/><glyph d="M548 673q16 -5 26.5 -18.5t10.5 -30.5q0 -21 -15 -36t-36 -15h-268q-17 0 -28.5 -12t-11.5 -29v-125q0 -5 1 -6h4h199q38 0 50 -38q37 -12 37 -48q0 -21 -15.5 -36t-36.5 -15h-199q-17 0 -28.5 -12t-11.5 -29v-125q0 -5 1 -6h4h268q36 0 48 -37q18 -5 28 -19.5t10 -32.5 v-87q0 -19 -15 -34q-8 -10 -13 -15q-10 -8 -15 -13q-15 -12 -26 -25q-11 -14 -11 -23q0 -2 1 -3v-3q1 -1 6 -1q12 0 22 10l6 6q3 1 7 5q8 5 20 5q15 0 26.5 -10t12.5 -26q15 -1 25 -11t10 -25q0 -18 -16 -34q-2 -2 -6.5 -6t-6.5 -6t-6 -5.5t-5 -4.5q-9 -9 -23 -9h-62 q-14 0 -23 9l-55 53q0 2 -2 2q0 2 -1 3l-32 31q-6 6 -8 20q-2 16 -2 26t0.5 24t0.5 16q0 15 10 25l59 58h-288q-17 0 -30.5 10.5t-18.5 26.5q-16 5 -26.5 18.5t-10.5 30.5v618q0 21 15 36t36 15h359q17 0 30.5 -10.5t18.5 -26.5zM99 659v-618q0 -17 12 -29t29 -12h344v-21 q0 -18 -13 -31l-60 -58q-7 -10 -7 -18v-62q0 -7 6 -17l55 -53q6 -7 16 -7h62q10 0 16 7l29 28q8 11 8 20q0 11 -8.5 19t-20.5 8q-13 0 -20 -7l-6 -6q-13 -13 -29 -13q-17 0 -30 13l-9 9q-13 13 -13 30q0 16 13 29l58 58q9 10 9 23v87q0 18 -11.5 31t-29.5 13h-268 q-21 0 -35.5 15t-14.5 36v125q0 21 14.5 36t35.5 15h199q17 0 29.5 12t12.5 29t-12.5 29t-29.5 12h-199q-21 0 -35.5 15t-14.5 36v125q0 21 14.5 36t35.5 15h268q17 0 29 12t12 29t-12 29t-29 12h-359q-17 0 -29 -12t-12 -29z" glyph-name="Eogonek" unicode="Ę"/><glyph d="M548 673q16 -5 26.5 -18.5t10.5 -30.5q0 -21 -15 -36t-36 -15h-268q-17 0 -28.5 -12t-11.5 -29v-125q0 -5 1 -6h4h199q38 0 50 -38q37 -12 37 -48q0 -21 -15.5 -36t-36.5 -15h-199q-17 0 -28.5 -12t-11.5 -29v-125q0 -5 1 -6h4h268q36 0 48 -37q18 -5 28 -19.5t10 -32.5 v-87q0 -19 -15 -34q-8 -10 -13 -15q-10 -8 -15 -13q-15 -12 -26 -25q-11 -14 -11 -23q0 -2 1 -3v-3q1 -1 6 -1q12 0 22 10l6 6q3 1 7 5q8 5 20 5q15 0 26.5 -10t12.5 -26q15 -1 25 -11t10 -25q0 -18 -16 -34q-2 -2 -6.5 -6t-6.5 -6t-6 -5.5t-5 -4.5q-9 -9 -23 -9h-62 q-14 0 -23 9l-55 53q0 2 -2 2q0 2 -1 3l-32 31q-6 6 -8 20q-2 16 -2 26t0.5 24t0.5 16q0 15 10 25l59 58h-288q-17 0 -30.5 10.5t-18.5 26.5q-16 5 -26.5 18.5t-10.5 30.5v618q0 21 15 36t36 15h359q17 0 30.5 -10.5t18.5 -26.5zM99 659v-618q0 -17 12 -29t29 -12h344v-21 q0 -18 -13 -31l-60 -58q-7 -10 -7 -18v-62q0 -7 6 -17l55 -53q6 -7 16 -7h62q10 0 16 7l29 28q8 11 8 20q0 11 -8.5 19t-20.5 8q-13 0 -20 -7l-6 -6q-13 -13 -29 -13q-17 0 -30 13l-9 9q-13 13 -13 30q0 16 13 29l58 58q9 10 9 23v87q0 18 -11.5 31t-29.5 13h-268 q-21 0 -35.5 15t-14.5 36v125q0 21 14.5 36t35.5 15h199q17 0 29.5 12t12.5 29t-12.5 29t-29.5 12h-199q-21 0 -35.5 15t-14.5 36v125q0 21 14.5 36t35.5 15h268q17 0 29 12t12 29t-12 29t-29 12h-359q-17 0 -29 -12t-12 -29z" glyph-name="eogonek" unicode="ę"/><glyph d="M548 673q16 -5 26.5 -18.5t10.5 -30.5q0 -21 -15 -36t-36 -15h-268q-17 0 -28.5 -12t-11.5 -29v-125q0 -5 1 -6h4h199q38 0 50 -38q37 -12 37 -48q0 -21 -15.5 -36t-36.5 -15h-199q-17 0 -28.5 -12t-11.5 -29v-125q0 -5 1 -6h4h268q17 0 30.5 -10.5t18.5 -26.5 q16 -5 26.5 -18.5t10.5 -30.5q0 -21 -15 -36t-36 -15h-359q-17 0 -30.5 10.5t-18.5 26.5q-16 5 -26.5 18.5t-10.5 30.5v618q0 21 15 36t36 15h359q17 0 30.5 -10.5t18.5 -26.5zM99 659v-618q0 -17 12 -29t29 -12h359q17 0 29 12t12 29t-12 29t-29 12h-268q-21 0 -35.5 15 t-14.5 36v125q0 21 14.5 36t35.5 15h199q17 0 29.5 12t12.5 29t-12.5 29t-29.5 12h-199q-21 0 -35.5 15t-14.5 36v125q0 21 14.5 36t35.5 15h268q17 0 29 12t12 29t-12 29t-29 12h-359q-17 0 -29 -12t-12 -29zM458 960q16 -3 26 -16t10 -29q0 -21 -13 -32l-93 -94 q-11 -12 -32 -12q-22 0 -34 12l-32 32l-3 3l-93 94q-13 13 -13 32q0 18 13.5 32t31.5 14q17 0 32 -12q4 -3 11 -10q2 -2 5.5 -6t5.5 -6q1 -2 8 -9q2 0 2 -2q2 -1 3 -2q3 -2 10 -9q12 -5 18 -5q9 0 20 8q11 7 20 19q1 2 5 6t5 6q2 2 6 5t6 5q13 12 31 12q17 0 29 -10.5 t15 -25.5zM288 939l-36 37q-10 10 -26 10q-14 0 -24.5 -11t-10.5 -25q0 -15 10 -25l93 -94q10 -9 27 -9q15 0 25 9l93 94q10 11 10 25q0 15 -10.5 25.5t-24.5 10.5q-15 0 -25 -10l-37 -37q-12 -14 -31 -14q-21 0 -33 14z" glyph-name="Ecaron" unicode="Ě"/><glyph d="M548 673q16 -5 26.5 -18.5t10.5 -30.5q0 -21 -15 -36t-36 -15h-268q-17 0 -28.5 -12t-11.5 -29v-125q0 -5 1 -6h4h199q38 0 50 -38q37 -12 37 -48q0 -21 -15.5 -36t-36.5 -15h-199q-17 0 -28.5 -12t-11.5 -29v-125q0 -5 1 -6h4h268q17 0 30.5 -10.5t18.5 -26.5 q16 -5 26.5 -18.5t10.5 -30.5q0 -21 -15 -36t-36 -15h-359q-17 0 -30.5 10.5t-18.5 26.5q-16 5 -26.5 18.5t-10.5 30.5v618q0 21 15 36t36 15h359q17 0 30.5 -10.5t18.5 -26.5zM99 659v-618q0 -17 12 -29t29 -12h359q17 0 29 12t12 29t-12 29t-29 12h-268q-21 0 -35.5 15 t-14.5 36v125q0 21 14.5 36t35.5 15h199q17 0 29.5 12t12.5 29t-12.5 29t-29.5 12h-199q-21 0 -35.5 15t-14.5 36v125q0 21 14.5 36t35.5 15h268q17 0 29 12t12 29t-12 29t-29 12h-359q-17 0 -29 -12t-12 -29zM458 960q16 -3 26 -16t10 -29q0 -21 -13 -32l-93 -94 q-11 -12 -32 -12q-22 0 -34 12l-32 32l-3 3l-93 94q-13 13 -13 32q0 18 13.5 32t31.5 14q17 0 32 -12q4 -3 11 -10q2 -2 5.5 -6t5.5 -6q1 -2 8 -9q2 0 2 -2q2 -1 3 -2q3 -2 10 -9q12 -5 18 -5q9 0 20 8q11 7 20 19q1 2 5 6t5 6q2 2 6 5t6 5q13 12 31 12q17 0 29 -10.5 t15 -25.5zM288 939l-36 37q-10 10 -26 10q-14 0 -24.5 -11t-10.5 -25q0 -15 10 -25l93 -94q10 -9 27 -9q15 0 25 9l93 94q10 11 10 25q0 15 -10.5 25.5t-24.5 10.5q-15 0 -25 -10l-37 -37q-12 -14 -31 -14q-21 0 -33 14z" glyph-name="ecaron" unicode="ě"/><glyph d="M415 573h-120q-13 0 -22 -9l-37 -38q-10 -10 -10 -21v-380q0 -11 10 -21l5 -6q9 -6 19 -6h120q13 0 22 9l37 38q10 10 10 21v99v4q-1 1 -6 1h-61q-17 0 -31 10.5t-19 26.5q-16 5 -26.5 18.5t-10.5 30.5q0 21 15.5 36t36.5 15h153q17 0 30.5 -10.5t18.5 -26.5 q16 -5 26.5 -18.5t10.5 -30.5v-223q0 -25 -14 -39l-87 -84q-14 -14 -36 -14h-190q-20 0 -35 15l-85 84q-2 0 -2 3l-33 32q-15 13 -15 38v447q0 22 15 37l85 84q15 15 35 15h190q20 0 36 -15l87 -84q1 -1 2 -3t3 -3l30 -29q13 -13 15 -44q1 -9 0 -23.5t-1 -15.5 q0 -21 -15 -36t-36 -15q-17 0 -30.5 10.5t-18.5 26.5q-16 5 -26.5 18.5t-10.5 30.5v12q0 11 -10 21l-7 7q-8 5 -17 5zM459 540v-12q0 -17 12 -29t29 -12t29 12t12 29v46q0 16 -11 30l-87 84q-10 12 -29 12h-190q-18 0 -28 -12l-85 -84q-12 -15 -12 -30v-447q0 -16 12 -31 l85 -84q10 -12 28 -12h190q18 0 29 12l87 84q11 14 11 31v223q0 17 -12 29t-29 12h-153q-17 0 -29.5 -12t-12.5 -29t12.5 -29t29.5 -12h61q21 0 36 -14.5t15 -35.5v-99q0 -15 -13 -28l-37 -38q-11 -12 -29 -12h-120q-18 0 -30 12l-37 38q-12 12 -12 28v380q0 16 12 28l37 38 q12 12 30 12h120q18 0 29 -12l37 -38q13 -13 13 -28zM449 887l33 -32q12 -11 12 -34q0 -20 -12 -32t-32 -12q-18 0 -32 11q-2 2 -6 5t-6 5q-3 4 -10 11q-3 3 -13 14q-1 1 -4 3t-4 3q-10 7 -19 7q-15 0 -40 -27q-2 -1 -3.5 -3t-4 -4.5l-3.5 -3.5t-5 -4.5t-7 -5.5 q-14 -11 -32 -11q-16 0 -28.5 10t-15.5 26q-16 3 -26 14.5t-10 28.5q0 21 13 34l95 93q13 13 32 13t32 -13l94 -93q2 -2 2 -3zM251 831l38 36q12 14 32 14q19 0 31 -14l37 -36q11 -9 26 -9t24.5 9.5t9.5 24.5t-9 27l-94 93q-10 10 -25 10q-16 0 -25 -10l-95 -93 q-10 -13 -10 -27t10.5 -24t24.5 -10q16 0 25 9z" glyph-name="Gcircumflex" unicode="Ĝ"/></font>
</defs>
</svg>
