<?xml version="1.0" standalone="no"?>
<!DOCTYPE svg PUBLIC "-//W3C//DTD SVG 1.1//EN" "http://www.w3.org/Graphics/SVG/1.1/DTD/svg11.dtd">
<svg xmlns="http://www.w3.org/2000/svg"><metadata>This SVG WebFont was generated by YouWorkForThem.
Copyright (c) 2021 by ATKÂ® Studio. All rights reserved.</metadata><defs><font horiz-adv-x="640" id="ywftsvg"><font-face ascent="800" bbox="17 -305 658 1001" cap-height="710" descent="-200" font-family="" font-stretch="normal" font-weight="500" panose-1="0 0 0 0 0 0 0 0 0 0" underline-position="0" underline-thickness="0" unicode-range="U+000D-25C4" units-per-em="1000" x-height="710"/><missing-glyph horiz-adv-x="500"/><glyph glyph-name=".notdef" horiz-adv-x="500"/><glyph glyph-name="glyph1" horiz-adv-x="0"/><glyph glyph-name="glyph3" horiz-adv-x="0"/><glyph glyph-name="glyph3" horiz-adv-x="0"/><glyph glyph-name="space" unicode=" "/><glyph d="M375 -45h-39q-19 0 -34.5 11t-21.5 28q-39 14 -39 55v40q0 25 17.5 42t42.5 17h39q41 0 56 -39q17 -6 27.5 -21t10.5 -34v-40q0 -25 -17 -42t-42 -17zM416 616v-404q0 -26 -18 -43t-43 -17q-19 0 -34 10.5t-21 27.5q-39 15 -39 57v404q0 24 17.5 41.5t41.5 17.5 q19 0 35 -11t23 -29q38 -13 38 -54zM301 0h39q21 0 35 14.5t14 34.5v40q0 20 -14 34.5t-35 14.5h-39q-21 0 -35.5 -14.5t-14.5 -34.5v-40q0 -20 14.5 -34.5t35.5 -14.5zM371 247v404q0 20 -15 34.5t-36 14.5q-20 0 -34.5 -14.5t-14.5 -34.5v-404q0 -21 14.5 -35.5 t34.5 -14.5q21 0 36 14.5t15 35.5z" glyph-name="exclam" unicode="!"/><glyph d="M326 616v-137q0 -25 -17.5 -42.5t-42.5 -17.5q-42 0 -56 39q-39 14 -39 56v137q0 25 17.5 42t42.5 17q19 0 34.5 -11t21.5 -28q39 -15 39 -55zM505 616v-137q0 -26 -17 -43t-43 -17q-19 0 -34 10.5t-21 27.5q-39 15 -39 57v137q0 24 17.5 41.5t41.5 17.5q42 0 57 -39 q17 -6 27.5 -21t10.5 -34zM281 514v137q0 20 -15 34.5t-35 14.5q-21 0 -35.5 -14.5t-14.5 -34.5v-137q0 -21 14.5 -35.5t35.5 -14.5q20 0 35 14.5t15 35.5zM460 514v137q0 20 -14.5 34.5t-35.5 14.5q-20 0 -34.5 -14.5t-14.5 -34.5v-137q0 -21 14.5 -35.5t34.5 -14.5 q21 0 35.5 14.5t14.5 35.5z" glyph-name="quotedbl" unicode="&quot;"/><glyph d="M348 358h-12q-1 0 -1 -1q-1 -1 -1 -2q-2 -25 -6 -47h11q2 0 2 2q2 7 4 24t3 24zM310 54l12 99h-10q-1 0 -1 -1q-1 -1 -1 -2l-18 -145q-3 -25 -21.5 -38t-43.5 -13q-35 0 -50 37q-20 7 -30.5 25.5t-8.5 37.5l14 106q-19 10 -27 31q-39 15 -39 56q0 25 16.5 43t42.5 18h23 q1 1 1 2q2 8 3.5 24t2.5 24q-37 5 -50 38q-39 15 -39 58q0 25 17 42t42 17h46q2 0 2 2l15 142q3 25 22 38.5t43 13.5q36 0 49 -37q20 -6 30.5 -24.5t8.5 -38.5l-9 -96h11q2 0 2 2l14 142q3 25 22.5 38.5t43.5 13.5q34 0 50 -38q18 -6 29.5 -25t9.5 -37l-11 -103 q19 -10 27 -32q39 -14 39 -55q0 -25 -16.5 -43t-42.5 -18h-23l-2 -2q-2 -33 -5 -48q37 -5 50 -39q39 -13 39 -57q0 -25 -17 -42t-42 -17h-46q-1 0 -1 -1q-1 -1 -1 -2l-18 -145q-3 -25 -21.5 -38t-43.5 -13q-35 0 -50 37q-20 7 -30.5 25.5t-8.5 37.5zM339 298h-52q-8 0 -8 8 v2l10 84q2 11 12 11h52q8 0 8 -8v-2l-10 -84q-2 -11 -12 -11zM166 188l-18 -135v-5q0 -19 13 -34t31 -15h5q20 0 34 12.5t16 30.5l18 145q2 11 12 11h52q8 0 8 -8v-2l-17 -135v-5q0 -19 13 -34t31 -15h5q19 0 33.5 12.5t16.5 30.5l18 145q2 11 12 11h46q20 0 34.5 14.5 t14.5 34.5q0 22 -14.5 36.5t-34.5 14.5h-36q-7 0 -7 8v2l8 84q2 11 12 11h23q20 0 34.5 15t14.5 36q0 20 -14.5 34.5t-34.5 14.5h-13q-8 0 -8 8v2l15 132v5q0 19 -12.5 33t-31.5 16h-5q-20 0 -34.5 -12.5t-16.5 -30.5l-14 -142q-2 -11 -12 -11h-52q-8 0 -8 8v2l13 132v5 q0 19 -12.5 34t-30.5 15h-5q-19 0 -33.5 -12.5t-16.5 -30.5l-15 -142q-2 -11 -12 -11h-46q-21 0 -35 -14.5t-14 -34.5q0 -21 14 -36t35 -15h35q8 0 8 -8v-2l-9 -84q-2 -11 -11 -11h-23q-21 0 -35 -14.5t-14 -36.5q0 -20 14 -34.5t35 -14.5h13q8 0 8 -8v-2z" glyph-name="numbersign" unicode="#"/><glyph d="M415 256v-117l14 13q6 6 6 14v68q0 7 -6 13l-6 6q-5 3 -8 3zM260 410v116l-14 -13q-6 -7 -6 -14v-68q0 -7 6 -13l2 -2q6 -6 12 -6zM260 110v146q-25 2 -40 17l-83 82l-3 3l-32 32q-16 16 -16 43v135q0 26 16 42l83 82q12 12 38 18h11h14h12v14q0 24 17.5 41.5t41.5 17.5 q43 0 58 -39q25 -10 34 -34q30 -2 44 -18l35 -35l47 -47l35 -35q16 -16 18 -45q1 -9 0 -23.5t-1 -18.5q0 -25 -16.5 -42.5t-42.5 -17.5q-42 0 -56 39q-39 14 -39 56v11q0 6 -6 14l-2 2q-5 5 -12 5v-146q25 -2 40 -17l35 -35l47 -47l35 -35q17 -17 17 -43v-134q0 -27 -17 -43 l-82 -82q-11 -12 -37 -18h-38v-14q0 -26 -18 -42.5t-43 -16.5q-41 0 -55 39q-24 7 -35 34q-28 2 -44 18l-83 82l-3 3l-32 32q-15 15 -17 46q0 8 0.5 22.5t0.5 19.5q0 25 17 42t42 17q42 0 57 -39q17 -6 27.5 -21t10.5 -34v-12q0 -5 3 -10l5 -5q6 -6 12 -6zM370 109v183 q0 9 10 9t19 -9l37 -38q9 -7 9 -20v-68q0 -14 -9 -21l-37 -36q-7 -9 -20 -9q-9 0 -9 9zM270 592v-183q0 -9 -10 -9q-12 0 -19 9l-37 37q-9 8 -9 20v68q0 14 9 21l37 37q8 8 20 8q9 0 9 -8zM260 700h-32q-21 0 -36 -15l-83 -82q-13 -16 -13 -35v-135q0 -20 13 -36l83 -82 q14 -14 36 -14h32q10 0 10 -10v-182q0 -9 -10 -9q-12 0 -19 9l-37 36q-9 7 -9 21v12q0 20 -14.5 34.5t-35.5 14.5t-35 -14.5t-14 -34.5v-45q0 -23 13 -36l83 -82q15 -15 36 -15h32q10 0 10 -10v-14q0 -20 14.5 -34.5t34.5 -14.5q22 0 36.5 14.5t14.5 34.5v14q0 10 10 10h32 q21 0 36 15l82 82q14 14 14 36v134q0 22 -14 36l-82 82q-17 15 -36 15h-32q-10 0 -10 10v182q0 8 10 8q11 0 19 -8l37 -37q9 -7 9 -21v-11q0 -21 14.5 -35.5t35.5 -14.5q20 0 34.5 14.5t14.5 35.5v45q0 21 -14 35l-82 82q-15 15 -36 15h-32q-10 0 -10 10v14q0 20 -14.5 34.5 t-36.5 14.5q-20 0 -34.5 -14.5t-14.5 -34.5v-14q0 -10 -10 -10z" glyph-name="dollar" unicode="$"/><glyph d="M530 -45h-59q-19 0 -34.5 11t-21.5 28q-39 14 -39 55v60q0 25 17.5 42t42.5 17h59q41 0 55 -39q39 -14 39 -55v-60q0 -25 -17 -42t-42 -17zM589 616v-127q0 -25 -18 -42l-325 -326q-6 -7 -6 -14v-93q0 -26 -17.5 -42.5t-42.5 -16.5q-19 0 -34 10.5t-21 27.5 q-39 15 -39 56v127q0 25 17 42l326 326q6 8 6 14v93q0 25 17.5 42t42.5 17q41 0 55 -39q39 -14 39 -55zM239 497h-59q-42 0 -55 38q-39 15 -39 57v59q0 25 17 42t42 17h59q41 0 56 -39q17 -6 27.5 -21t10.5 -34v-59q0 -25 -16.5 -42.5t-42.5 -17.5zM445 651v-93 q0 -14 -9 -21l-326 -326q-14 -17 -14 -35v-127q0 -20 14 -34.5t35 -14.5t35.5 14.5t14.5 34.5v93q0 14 9 21l325 326q15 15 15 35v127q0 20 -14.5 34.5t-34.5 14.5q-21 0 -35.5 -14.5t-14.5 -34.5zM436 0h59q20 0 34.5 14.5t14.5 34.5v60q0 20 -14.5 34.5t-34.5 14.5h-59 q-21 0 -35.5 -14.5t-14.5 -34.5v-60q0 -20 14.5 -34.5t35.5 -14.5zM145 542h59q21 0 35 14.5t14 35.5v59q0 20 -14 34.5t-35 14.5h-59q-21 0 -35 -14.5t-14 -34.5v-59q0 -21 14 -35.5t35 -14.5z" glyph-name="percent" unicode="%"/><glyph d="M390 166v89h-94q-6 0 -12 -6l-37 -38q-7 -7 -7 -13v-67q0 -5 3 -10l5 -5q6 -6 13 -6h72q7 0 14 6l37 36q6 6 6 14zM402 -45h-139q-25 0 -43 18l-83 82l-4 4l-31 31q-16 15 -16 43v133q0 29 26 53q1 1 3.5 3t4.5 4q1 2 2.5 4t3.5 3q5 8 5 17q0 8 -5 16q-1 2 -6 7 q-2 1 -4.5 3t-3.5 4q-26 24 -26 53v135q0 26 16 42l83 82q18 18 43 18h91q43 0 58 -39q38 -15 38 -55q0 -26 -17.5 -43.5t-43.5 -17.5h-58q-5 0 -13 -5l-37 -37q-6 -7 -6 -14v-68q0 -6 7 -13l5 -6q4 -3 9 -3h129v24q0 25 17.5 42.5t42.5 17.5q19 0 34 -11t22 -28 q33 -13 38 -46q34 -7 46 -38q38 -15 38 -55q0 -26 -18 -43t-43 -17h-22v-157q0 -26 -18 -43l-82 -82q-16 -18 -43 -18zM400 290v-124q0 -12 -9 -21l-37 -36q-8 -9 -21 -9h-72q-13 0 -20 9l-37 36q-9 7 -9 21v67q0 13 9 20l37 38q9 9 20 9h129q10 0 10 -10zM500 133v157 q0 10 10 10h22q21 0 36 14.5t15 35.5t-15 35t-36 14h-22q-10 0 -10 10v24q0 20 -15 35t-35 15q-21 0 -35.5 -15t-14.5 -35v-24q0 -10 -10 -10h-129q-11 0 -20 9l-37 38q-9 8 -9 20v68q0 14 9 21l37 37q8 8 20 8h58q22 0 36.5 15t14.5 36q0 20 -14.5 34.5t-36.5 14.5h-91 q-21 0 -36 -15l-83 -82q-13 -11 -13 -35v-135q0 -25 13 -36l20 -19q12 -12 12 -28q0 -17 -12 -29l-20 -19q-13 -11 -13 -36v-133q0 -25 13 -36l83 -82q15 -15 36 -15h139q21 0 36 15l82 82q15 15 15 36z" glyph-name="ampersand" unicode="&amp;"/><glyph d="M415 616v-137q0 -26 -18 -43t-43 -17q-19 0 -34 10.5t-21 27.5q-39 15 -39 57v137q0 24 17.5 41.5t41.5 17.5q19 0 35 -11t23 -29q38 -13 38 -54zM370 514v137q0 20 -15 34.5t-36 14.5q-20 0 -34.5 -14.5t-14.5 -34.5v-137q0 -21 14.5 -35.5t34.5 -14.5q21 0 36 14.5 t15 35.5z" glyph-name="quotesingle" unicode="'"/><glyph d="M429 -90h-65q-25 0 -42 17l-83 81q-1 2 -2 3l-3 3l-30 30q-17 16 -17 43v525q0 27 17 43l83 82q17 17 42 17h65q42 0 57 -39q38 -13 38 -55q0 -26 -17 -43t-43 -17h-31q-7 0 -13 -6l-36 -37q-7 -7 -7 -13v-459q0 -6 7 -13l4 -5q5 -3 10 -3h31q42 0 57 -39q38 -13 38 -55 q0 -26 -17 -43t-43 -17zM394 54h-31q-12 0 -21 9l-36 37q-9 7 -9 20v459q0 13 9 20l36 37q8 9 21 9h31q21 0 35.5 14.5t14.5 35.5t-14.5 35t-35.5 14h-65q-19 0 -35 -14l-83 -82q-14 -14 -14 -36v-525q0 -22 14 -36l83 -81q15 -15 35 -15h65q21 0 35.5 14.5t14.5 35.5 t-14.5 35t-35.5 14z" glyph-name="parenleft" unicode="("/><glyph d="M328 592l-5 5q-4 3 -10 3h-31q-42 0 -56 39q-39 14 -39 56q0 26 17.5 42.5t42.5 16.5h65q25 0 42 -17l83 -82l4 -4l31 -31q17 -17 17 -43v-525q0 -27 -17 -44l-83 -81q-17 -17 -42 -17h-65q-42 0 -56 39q-39 14 -39 56q0 26 17.5 42.5t42.5 16.5h31q8 0 14 6l36 37 q6 6 6 13v459q0 7 -6 13zM278 54h-31q-21 0 -35.5 -14t-14.5 -35t14.5 -35.5t35.5 -14.5h65q20 0 35 15l83 81q14 14 14 36v525q0 22 -14 36l-83 82q-16 14 -35 14h-65q-21 0 -35.5 -14t-14.5 -35t14.5 -35.5t35.5 -14.5h31q14 0 21 -9l36 -37q9 -7 9 -20v-459q0 -13 -9 -20 l-36 -37q-7 -9 -21 -9z" glyph-name="parenright" unicode=")"/><glyph d="M217 543q-5 5 -6 12q-1 0 -3 2q-35 17 -35 48q0 20 14 33.5t34 13.5q16 0 40 -15q1 -1 5 -3.5t6 -4.5v32q0 20 14 34.5t34 14.5q37 0 48 -37q19 -4 31 -25q9 4 21 4q37 0 46 -36q36 -8 36 -47q0 -30 -33 -48q-1 -1 -4 -2t-5 -3q3 -3 5 -12l14 -8q23 -12 23 -41 q0 -21 -13 -34t-34 -13q-18 0 -40 14q-8 6 -11 7v-31q0 -21 -14 -35t-35 -14q-17 0 -29.5 10.5t-16.5 25.5q-23 6 -32 27q-7 -4 -21 -4q-39 0 -47 36q-36 9 -36 45q0 31 35 49q2 2 5 3t4 2zM276 616l-35 21q-8 5 -20 5q-16 0 -27 -10.5t-11 -26.5q0 -22 20 -33l37 -22 q2 -2 2 -3t-2 -3l-37 -21q-20 -11 -20 -34q0 -16 10.5 -26t27.5 -10q13 0 20 4l35 21q1 1 3 1q3 0 3 -5v-41q0 -17 11.5 -28t26.5 -11q17 0 28 11t11 28v41q0 3 2 5q3 0 4 -1l35 -21q7 -4 20 -4q37 0 37 37q0 22 -18 33l-38 21q-1 0 -1 2t2 4l37 22q18 10 18 32 q0 17 -10 27.5t-27 10.5q-12 0 -20 -5l-35 -21q-1 -1 -3 -1q-3 0 -3 5v41q0 17 -11 28t-28 11q-15 0 -26.5 -11t-11.5 -28v-41q0 -5 -3 -5q-2 0 -3 1z" glyph-name="asterisk" unicode="*"/><glyph d="M489 254h-44q-22 0 -27 -23q-2 -5 -2 -25v-26q0 -26 -18 -42.5t-43 -16.5q-19 0 -34 10.5t-21 27.5q-39 15 -39 56v39h-39q-42 0 -55 38q-39 15 -39 57q0 25 17 42t42 17h45q12 0 20.5 9t8.5 21v44q0 25 17 42t42 17q43 0 58 -39q38 -13 38 -55v-26v-13h38q41 0 56 -39 q17 -6 27.5 -21t10.5 -34q0 -25 -16.5 -42.5t-42.5 -17.5zM454 398h-44q-17 0 -28 11.5t-11 28.5v44q0 21 -14.5 35t-36.5 14q-20 0 -34.5 -14t-14.5 -35v-44q0 -17 -11.5 -28.5t-27.5 -11.5h-45q-20 0 -34.5 -14t-14.5 -35t14 -35.5t35 -14.5h45q16 0 27.5 -11.5 t11.5 -28.5v-44q0 -21 14.5 -35t34.5 -14q22 0 36.5 14t14.5 35v44q0 17 11 28.5t28 11.5h44q20 0 34.5 14.5t14.5 35.5t-14.5 35t-34.5 14z" glyph-name="plus" unicode="+"/><glyph d="M395 109q17 -7 28 -22t11 -34v-96q0 -25 -17 -42l-42 -42q-13 -15 -37 -15q-39 0 -50 37q-16 5 -26.5 18.5t-10.5 31.5q0 16 15 37q2 2 5.5 6t5.5 6q-36 13 -36 55v39q0 25 17.5 42.5t42.5 17.5h38q42 0 56 -39zM339 138h-38q-21 0 -35.5 -15t-14.5 -35v-39q0 -21 13 -35 t34 -14l-25 -26q-12 -12 -12 -29t12 -30q12 -12 30 -12t30 12l42 42q14 14 14 35v96q0 20 -14.5 35t-35.5 15z" glyph-name="comma" unicode=","/><glyph d="M510 371q17 -6 27.5 -21t10.5 -34q0 -25 -16.5 -42.5t-42.5 -17.5h-267q-42 0 -55 38q-39 15 -39 57q0 25 17 42t42 17h267q41 0 56 -39zM454 400h-267q-20 0 -34.5 -14t-14.5 -35t14 -35.5t35 -14.5h267q20 0 34.5 14.5t14.5 35.5t-14.5 35t-34.5 14z" glyph-name="hyphen" unicode="-"/><glyph d="M380 -45h-49q-19 0 -34 10.5t-21 27.5q-39 15 -39 56v50q0 25 17 42t42 17h49q41 0 56 -39q17 -6 27.5 -21t10.5 -34v-50q0 -25 -17 -42t-42 -17zM296 0h49q21 0 35 14.5t14 34.5v50q0 20 -14 34.5t-35 14.5h-49q-21 0 -35 -14.5t-14 -34.5v-50q0 -20 14 -34.5t35 -14.5z " glyph-name="period" unicode="."/><glyph d="M589 616v-127q0 -25 -18 -42l-325 -326q-6 -7 -6 -14v-93q0 -26 -17.5 -42.5t-42.5 -16.5q-19 0 -34 10.5t-21 27.5q-39 15 -39 56v127q0 25 17 42l326 326q6 8 6 14v93q0 25 17.5 42t42.5 17q41 0 55 -39q39 -14 39 -55zM445 651v-93q0 -14 -9 -21l-326 -326 q-14 -17 -14 -35v-127q0 -20 14 -34.5t35 -14.5t35.5 14.5t14.5 34.5v93q0 14 9 21l325 326q15 15 15 35v127q0 20 -14.5 34.5t-34.5 14.5q-21 0 -35.5 -14.5t-14.5 -34.5z" glyph-name="slash" unicode="/"/><glyph d="M435 186v122l-180 -179l13 -13q8 -6 14 -6h76q6 0 14 6l57 57q6 6 6 13zM418 540q-5 4 -11 10q-5 5 -14 5h-76q-9 0 -14 -5l-57 -58q-6 -8 -6 -13v-123l181 180q-1 0 -2 2zM434 693l32 -32l3 -3l102 -103q18 -18 18 -43v-394q0 -28 -18 -44l-102 -102q-16 -17 -43 -17 h-143q-24 0 -42 18l-104 102l-4 4l-31 31q-16 16 -16 43v394q0 27 16 43l104 101q21 19 42 19h143q26 0 43 -17zM211 170l224 223q3 3 6 3q4 0 4 -8v-202q0 -12 -9 -20l-57 -57q-7 -9 -21 -9h-76q-14 0 -21 9l-50 49q-4 4 -4 6t4 6zM429 530l-224 -223q-3 -3 -6 -3 q-4 0 -4 8v202q0 12 9 20l57 58q8 8 21 8h76q13 0 21 -8l50 -50q3 -3 3 -6t-3 -6zM213 684l-104 -101q-13 -13 -13 -36v-394q0 -23 13 -36l104 -102q15 -15 35 -15h143q22 0 36 14l102 102q15 15 15 37v394q0 21 -15 36l-102 103q-14 14 -36 14h-143q-22 0 -35 -16z" glyph-name="zero" unicode="0"/><glyph d="M260 139v297q-17 -11 -36 -11t-34 10.5t-21 27.5q-39 15 -39 57q0 26 17 43l130 130q17 17 43 17q42 0 57 -39q17 -6 27.5 -21t10.5 -34v-506h10h26q40 0 55 -39q17 -6 28 -22t11 -35q0 -25 -17 -42t-42 -17h-262q-41 0 -55 39q-39 14 -39 55q0 25 16.5 43t42.5 18h25 q20 0 25 2q21 5 21 27zM270 514v-375q0 -17 -11.5 -28t-27.5 -11h-42q-20 0 -34.5 -15t-14.5 -36q0 -20 14.5 -34.5t34.5 -14.5h262q20 0 34.5 14.5t14.5 34.5q0 21 -14.5 36t-34.5 15h-42q-17 0 -28 11t-11 28v512q0 20 -14.5 34.5t-35.5 14.5q-22 0 -36 -14l-130 -130 q-14 -14 -14 -36q0 -21 14.5 -35.5t34.5 -14.5q22 0 36 14l35 35q3 3 6 3q4 0 4 -8z" glyph-name="one" unicode="1"/><glyph d="M455 692l31 -31l4 -4l82 -83q17 -17 17 -41v-61q0 -27 -17 -43l-318 -319h241q40 0 55 -39q17 -6 28 -22t11 -35q0 -25 -17 -42t-42 -17h-350q-19 0 -34 10.5t-21 27.5q-39 15 -39 56v109q0 26 16 42l329 329q4 4 4 8q0 5 -4 9l-4 4q-5 5 -13 5h-118q-5 0 -13 -5l-37 -37 q-6 -7 -6 -14v-11q0 -26 -17 -43t-43 -17q-42 0 -55 38q-39 15 -39 57v45q0 26 16 42l83 82q18 18 43 18h184q25 0 43 -18zM195 523v11q0 14 9 21l37 37q8 8 20 8h118q12 0 20 -8l39 -39q7 -7 7 -16q0 -11 -7 -15l-329 -329q-13 -13 -13 -35v-109q0 -20 14 -34.5t35 -14.5 h350q20 0 34.5 14.5t14.5 34.5q0 21 -14.5 36t-34.5 15h-260q-15 0 -26.5 8t-11.5 22q0 8 7 15l326 326q14 14 14 36v61q0 20 -14 34l-82 83q-15 15 -36 15h-184q-21 0 -36 -15l-83 -82q-13 -16 -13 -35v-45q0 -21 14 -35.5t35 -14.5t35.5 14.5t14.5 35.5z" glyph-name="two" unicode="2"/><glyph d="M455 692l35 -35l47 -47l35 -35q17 -17 17 -42v-135q0 -27 -25 -52l-8 -8q-4 -1 -6 -7q-6 -7 -6 -16q0 -11 6 -18l2 -3l4 -4q6 -6 8 -7q25 -25 25 -52v-134q0 -25 -17 -42l-82 -82q-16 -18 -43 -18h-184q-25 0 -43 18l-83 82l-3 3l-32 32q-15 15 -17 46q0 8 0.5 22.5 t0.5 19.5q0 24 17.5 41t41.5 17q43 0 57 -39q38 -13 38 -54v-12q0 -5 3 -10l5 -5q6 -6 13 -6h118q5 0 13 6q9 8 19.5 18t12.5 13q2 2 4 4.5t3 4t2 3.5t2 3q1 3 1 21q0 5 -0.5 21t-0.5 29q0 7 -6 13l-5 5q-7 4 -10 4h-113q-42 0 -56 39q-39 14 -39 56q0 26 17.5 42.5 t42.5 16.5h113q7 0 13 6l37 38q6 6 6 13v68q0 6 -6 14l-2 2q-5 5 -13 5h-118q-5 0 -13 -5l-37 -37q-6 -7 -6 -14v-11q0 -26 -17 -43t-43 -17q-42 0 -55 38q-39 15 -39 57v45q0 26 16 42l83 82q18 18 43 18h184q25 0 43 -18zM195 523v11q0 14 9 21l37 37q8 8 20 8h118 q12 0 20 -8l37 -37q9 -7 9 -21v-68q0 -12 -9 -20l-37 -38q-9 -9 -20 -9h-113q-21 0 -35.5 -14t-14.5 -35t14.5 -35.5t35.5 -14.5h113q11 0 20 -9l37 -38q9 -8 9 -20v-67q0 -14 -9 -21l-37 -36q-7 -9 -20 -9h-118q-13 0 -20 9l-37 36q-9 7 -9 21v12q0 20 -14.5 34t-35.5 14 t-35 -14t-14 -34v-46q0 -19 13 -35l83 -82q15 -15 36 -15h184q21 0 36 15l82 82q14 14 14 35v134q0 22 -14 36l-19 19q-12 12 -12 29q0 16 12 28l19 19q14 14 14 36v135q0 21 -14 35l-82 82q-15 15 -36 15h-184q-21 0 -36 -15l-83 -82q-13 -16 -13 -35v-45q0 -21 14 -35.5 t35 -14.5t35.5 14.5t14.5 35.5z" glyph-name="three" unicode="3"/><glyph d="M550 671q39 -14 39 -55v-602q0 -25 -17 -42t-42 -17q-19 0 -34.5 11t-21.5 28q-39 14 -39 55v184h-172q-25 0 -43 18l-83 82l-3 3l-32 32q-16 16 -16 43v240q0 25 17 42t42 17q42 0 57 -39q17 -6 27.5 -21t10.5 -34v-207q0 -8 6 -14l2 -2q5 -5 13 -5h144q13 0 21.5 8.5 t8.5 20.5v234q0 25 17.5 42t42.5 17q41 0 55 -39zM405 378h-144q-12 0 -20 8l-37 37q-9 7 -9 21v207q0 20 -14.5 34.5t-35.5 14.5t-35 -14.5t-14 -34.5v-240q0 -23 13 -36l83 -82q15 -15 36 -15h177q17 0 28.5 -11.5t11.5 -27.5v-190q0 -20 14.5 -34.5t35.5 -14.5 q20 0 34.5 14.5t14.5 34.5v602q0 20 -14.5 34.5t-34.5 14.5q-21 0 -35.5 -14.5t-14.5 -34.5v-234q0 -17 -11.5 -28t-28.5 -11z" glyph-name="four" unicode="4"/><glyph d="M429 270l-2 2q-5 5 -13 5h-151q-25 0 -43 18l-83 82l-3 3l-32 32q-16 16 -16 43v196q0 25 17 42t42 17h350q41 0 55 -39q39 -14 39 -55q0 -25 -16.5 -43t-42.5 -18h-260q-12 0 -21 -8.5t-9 -20.5v-73q0 -5 3 -10l5 -5q6 -6 13 -6h150q26 0 44 -18l35 -35l47 -47l35 -35 q17 -16 17 -43v-157q0 -25 -17 -42l-82 -82q-16 -18 -44 -18h-183q-25 0 -43 18l-83 82l-3 3l-32 32q-15 15 -17 46q0 8 0.5 22.5t0.5 19.5q0 25 17 42t42 17q42 0 57 -39q17 -6 27.5 -21t10.5 -34v-12q0 -5 3 -10l5 -5q6 -6 13 -6h118q5 0 13 6l37 36q6 6 6 14v90 q0 6 -6 14zM195 166v12q0 20 -14.5 34.5t-35.5 14.5t-35 -14.5t-14 -34.5v-46q0 -19 13 -35l83 -82q15 -15 36 -15h183q22 0 37 15l82 82q14 14 14 35v157q0 25 -14 36l-82 82q-15 15 -37 15h-150q-13 0 -20 9l-37 36q-9 7 -9 21v73q0 17 11.5 28t28.5 11h260 q20 0 34.5 14.5t14.5 36.5q0 20 -14.5 34.5t-34.5 14.5h-350q-21 0 -35 -14.5t-14 -34.5v-196q0 -20 13 -36l83 -82q15 -15 36 -15h151q12 0 20 -8l37 -37q9 -7 9 -21v-90q0 -14 -9 -21l-37 -36q-7 -9 -20 -9h-118q-13 0 -20 9l-37 36q-9 7 -9 21z" glyph-name="five" unicode="5"/><glyph d="M240 224v-93q0 -5 3 -10l5 -5q6 -6 13 -6h118q5 0 13 6l37 36q6 6 6 14v67q0 7 -6 13l-5 5q-7 4 -10 4h-144q-12 0 -21 -9.5t-9 -21.5zM414 555h-118q-5 0 -13 -5l-37 -37q-6 -7 -6 -14v-90h171q27 0 44 -17l32 -32l3 -3l82 -83q17 -17 17 -43v-134q0 -25 -17 -42 l-82 -82q-16 -18 -44 -18h-183q-25 0 -43 18l-83 82l-3 3l-32 32q-16 16 -16 42v436q0 26 16 42l83 82q18 18 43 18h183q26 0 44 -18l35 -35l47 -47l35 -35q16 -16 18 -45q1 -9 0 -23.5t-1 -18.5q0 -25 -16.5 -42.5t-42.5 -17.5q-42 0 -56 39q-39 14 -39 56v11q0 6 -6 14 l-2 2q-5 5 -13 5zM195 166v93q0 17 11.5 29t28.5 12h144q11 0 20 -9l37 -38q9 -8 9 -20v-67q0 -14 -9 -21l-37 -36q-7 -9 -20 -9h-118q-13 0 -20 9l-37 36q-9 7 -9 21zM445 534v-11q0 -21 14.5 -35.5t35.5 -14.5q20 0 34.5 14.5t14.5 35.5v45q0 21 -14 35l-82 82 q-15 15 -37 15h-183q-21 0 -36 -15l-83 -82q-13 -16 -13 -35v-436q0 -19 13 -35l83 -82q15 -15 36 -15h183q22 0 37 15l82 82q14 14 14 35v134q0 22 -14 36l-82 83q-16 14 -37 14h-176q-17 0 -28.5 12t-11.5 29v94q0 14 9 21l37 37q8 8 20 8h118q12 0 20 -8l37 -37 q9 -7 9 -21z" glyph-name="six" unicode="6"/><glyph d="M435 555h-255q-42 0 -55 38q-39 15 -39 58q0 25 17 42t42 17h350q41 0 55 -39q39 -14 39 -55v-127q0 -25 -17 -42l-151 -152q-6 -7 -6 -14v-267q0 -26 -17.5 -42.5t-42.5 -16.5q-19 0 -34.5 11t-21.5 28q-39 14 -39 55v301q0 25 17 42l152 152q4 4 6 11zM370 49v267 q0 14 9 21l151 152q14 14 14 35v127q0 20 -14.5 34.5t-34.5 14.5h-350q-21 0 -35 -14.5t-14 -34.5q0 -22 14 -36.5t35 -14.5h260q17 0 28.5 -11t11.5 -28v-3q0 -14 -9 -21l-152 -152q-14 -14 -14 -35v-301q0 -20 14.5 -34.5t35.5 -14.5t35.5 14.5t14.5 34.5z" glyph-name="seven" unicode="7"/><glyph d="M414 255h-118q-6 0 -12 -6l-37 -38q-7 -7 -7 -13v-67q0 -5 3 -10l5 -5q6 -6 13 -6h118q5 0 13 6l37 36q6 6 6 14v67q0 7 -6 13l-5 5q-7 4 -10 4zM414 555h-118q-5 0 -13 -5l-37 -37q-6 -7 -6 -14v-68q0 -6 7 -13l5 -6q4 -3 9 -3h118q7 0 13 6l37 38q6 6 6 13v68 q0 8 -6 14l-2 2q-5 5 -13 5zM447 -45h-184q-25 0 -43 18l-83 82l-3 3l-32 32q-16 16 -16 42v134q0 29 26 53q1 1 3.5 3t4.5 4q5 5 6 7q5 8 5 17q0 8 -5 16q-1 2 -6 7q-6 6 -8 7q-26 24 -26 53v135q0 26 16 42l83 82q18 18 43 18h184q25 0 43 -18l35 -35l47 -47l35 -35 q17 -17 17 -42v-135q0 -27 -25 -52l-8 -8q-4 -1 -6 -7q-6 -7 -6 -16q0 -11 6 -18l2 -3l4 -4q6 -6 8 -7q25 -25 25 -52v-134q0 -25 -17 -42l-82 -82q-16 -18 -43 -18zM399 291l37 -38q9 -8 9 -20v-67q0 -14 -9 -21l-37 -36q-7 -9 -20 -9h-118q-13 0 -20 9l-37 36q-9 7 -9 21 v67q0 13 9 20l37 38q9 9 20 9h118q11 0 20 -9zM399 592l37 -37q9 -7 9 -21v-68q0 -12 -9 -20l-37 -38q-9 -9 -20 -9h-118q-11 0 -20 9l-37 38q-9 8 -9 20v68q0 14 9 21l37 37q8 8 20 8h118q12 0 20 -8zM228 0h184q21 0 36 15l82 82q14 14 14 35v134q0 22 -14 36l-19 19 q-12 12 -12 29q0 16 12 28l19 19q14 14 14 36v135q0 21 -14 35l-82 82q-15 15 -36 15h-184q-21 0 -36 -15l-83 -82q-13 -16 -13 -35v-135q0 -23 13 -36l20 -19q12 -12 12 -28q0 -17 -12 -29l-20 -19q-13 -13 -13 -36v-134q0 -19 13 -35l83 -82q15 -15 36 -15z" glyph-name="eight" unicode="8"/><glyph d="M429 548l-2 2q-5 5 -13 5h-118q-5 0 -13 -5l-37 -37q-6 -7 -6 -14v-68q0 -6 7 -13l5 -6q4 -3 9 -3h144q12 0 21 9t9 22v94q0 6 -6 14zM435 166v89h-172q-26 0 -43 17l-35 35l-48 48l-35 35q-16 16 -16 43v135q0 26 16 42l83 82q18 18 43 18h184q25 0 43 -18l35 -35 l47 -47l35 -35q17 -17 17 -42v-436q0 -25 -17 -42l-82 -82q-16 -18 -43 -18h-184q-25 0 -43 18l-83 82l-3 3l-32 32q-15 15 -17 46q0 8 0.5 22.5t0.5 19.5q0 24 17.5 41t41.5 17q43 0 57 -39q38 -13 38 -54v-12q0 -5 3 -10l5 -5q6 -6 13 -6h118q5 0 13 6l37 36q6 6 6 14z M445 534v-94q0 -17 -11.5 -29t-28.5 -12h-144q-11 0 -20 9l-37 38q-9 8 -9 20v68q0 14 9 21l37 37q8 8 20 8h118q12 0 20 -8l37 -37q9 -7 9 -21zM195 166v12q0 20 -14.5 34t-35.5 14t-35 -14t-14 -34v-46q0 -19 13 -35l83 -82q15 -15 36 -15h184q21 0 36 15l82 82 q14 14 14 35v436q0 21 -14 35l-82 82q-15 15 -36 15h-184q-21 0 -36 -15l-83 -82q-13 -16 -13 -35v-135q0 -23 13 -36l83 -83q16 -14 36 -14h177q17 0 28.5 -12t11.5 -29v-93q0 -14 -9 -21l-37 -36q-7 -9 -20 -9h-118q-13 0 -20 9l-37 36q-9 7 -9 21z" glyph-name="nine" unicode="9"/><glyph d="M380 -45h-49q-19 0 -34 10.5t-21 27.5q-39 15 -39 56v50q0 25 17 42t42 17h49q41 0 56 -39q17 -6 27.5 -21t10.5 -34v-50q0 -25 -17 -42t-42 -17zM380 290h-49q-42 0 -55 38q-39 15 -39 57v49q0 25 17 42t42 17h49q41 0 56 -39q17 -6 27.5 -21t10.5 -34v-49 q0 -25 -16.5 -42.5t-42.5 -17.5zM296 0h49q21 0 35 14.5t14 34.5v50q0 20 -14 34.5t-35 14.5h-49q-21 0 -35 -14.5t-14 -34.5v-50q0 -20 14 -34.5t35 -14.5zM296 335h49q21 0 35 14.5t14 35.5v49q0 20 -14 34.5t-35 14.5h-49q-21 0 -35 -14.5t-14 -34.5v-49q0 -21 14 -35.5 t35 -14.5z" glyph-name="colon" unicode=":"/><glyph d="M395 109q17 -7 28 -22t11 -34v-96q0 -25 -17 -42l-42 -42q-13 -15 -37 -15q-39 0 -50 37q-16 5 -26.5 18.5t-10.5 31.5q0 16 15 37q2 2 5.5 6t5.5 6q-36 13 -36 55v39q0 25 17.5 42.5t42.5 17.5h38q42 0 56 -39zM380 290h-49q-42 0 -55 38q-39 15 -39 57v49q0 25 17 42 t42 17h49q41 0 56 -39q17 -6 27.5 -21t10.5 -34v-49q0 -25 -16.5 -42.5t-42.5 -17.5zM296 335h49q21 0 35 14.5t14 35.5v49q0 20 -14 34.5t-35 14.5h-49q-21 0 -35 -14.5t-14 -34.5v-49q0 -21 14 -35.5t35 -14.5zM339 138h-38q-21 0 -35.5 -15t-14.5 -35v-39q0 -21 13 -35 t34 -14l-25 -26q-12 -12 -12 -29t12 -30q12 -12 30 -12t30 12l42 42q14 14 14 35v96q0 20 -14.5 35t-35.5 15z" glyph-name="semicolon" unicode=";"/><glyph d="M526 536q0 -25 -17 -42l-159 -159q-11 -11 -11 -21t12 -22l121 -121l35 -35q17 -17 17 -43q0 -25 -16.5 -42.5t-42.5 -17.5q-27 0 -44 17l-33 33l-2 2l-220 221q-17 17 -17 43t17 43l221 222q17 17 42 17q19 0 35 -11.5t23 -28.5q39 -15 39 -55zM394 607l-221 -222 q-14 -12 -14 -36q0 -25 14 -36l220 -221q14 -14 37 -14q21 0 35 14.5t14 35.5q0 22 -14 36l-156 156q-15 15 -15 29t14 28l159 159q14 14 14 35q0 20 -16 35t-36 15q-21 0 -35 -14z" glyph-name="less" unicode="&lt;"/><glyph d="M509 269q17 -6 28 -21.5t11 -34.5q0 -25 -16.5 -42.5t-42.5 -17.5h-267q-19 0 -34 10.5t-21 27.5q-39 15 -39 57q0 25 17 42.5t42 17.5h267q41 0 55 -39zM509 474q39 -14 39 -55q0 -25 -16.5 -43t-42.5 -18h-267q-40 0 -55 38q-39 15 -39 58q0 24 17.5 41.5t41.5 17.5 h267q41 0 55 -39zM454 503h-267q-20 0 -34.5 -14.5t-14.5 -34.5q0 -22 14.5 -36.5t34.5 -14.5h267q20 0 34.5 14.5t14.5 36.5q0 20 -14.5 34.5t-34.5 14.5zM454 298h-267q-20 0 -34.5 -14.5t-14.5 -35.5t14.5 -35.5t34.5 -14.5h267q20 0 34.5 14.5t14.5 35.5t-14.5 35.5 t-34.5 14.5z" glyph-name="equal" unicode="="/><glyph d="M509 271l-221 -221q-16 -17 -43 -17q-42 0 -55 38q-39 13 -39 57q0 26 17 43l156 156q12 13 12 22q0 10 -11 21l-124 124l-35 35q-17 17 -17 42q0 26 18.5 43t43.5 17t42 -17l33 -33l2 -2l221 -222q17 -17 17 -43q0 -27 -17 -43zM467 385l-221 222q-14 14 -35 14 t-36.5 -15t-15.5 -35q0 -21 14 -35l159 -159q14 -14 14 -28t-15 -29l-156 -156q-14 -14 -14 -36q0 -21 14 -35.5t35 -14.5q25 0 36 14l221 221q14 11 14 36q0 24 -14 36z" glyph-name="greater" unicode=">"/><glyph d="M375 -45h-39q-19 0 -34.5 11t-21.5 28q-39 14 -39 55v40q0 25 17.5 42t42.5 17h39q41 0 56 -39q17 -6 27.5 -21t10.5 -34v-40q0 -25 -17 -42t-42 -17zM589 533v-64q0 -27 -17 -43l-151 -152q-6 -6 -6 -13v-49q0 -26 -17 -43t-43 -17q-42 0 -56 39q-39 14 -39 56v82 q0 26 17 43l152 152q6 6 6 13q0 5 -4 9l-4 4q-5 5 -13 5h-118q-5 0 -13 -5l-37 -37q-6 -7 -6 -14v-11q0 -26 -17 -43t-43 -17q-42 0 -55 38q-39 15 -39 57v45q0 26 16 42l83 82q18 18 43 18h184q25 0 43 -18l31 -31l4 -4l82 -83q17 -17 17 -41zM544 504v64q0 20 -14 34 l-82 83q-15 15 -36 15h-184q-21 0 -36 -15l-83 -82q-13 -16 -13 -35v-45q0 -21 14 -35.5t35 -14.5t35.5 14.5t14.5 35.5v11q0 14 9 21l37 37q8 8 20 8h118q12 0 20 -8l39 -39q7 -7 7 -16q0 -13 -9 -20l-152 -152q-14 -14 -14 -36v-82q0 -21 14.5 -35.5t35.5 -14.5t35.5 14.5 t14.5 35.5v49q0 14 9 20l151 152q14 14 14 36zM301 0h39q21 0 35 14.5t14 34.5v40q0 20 -14 34.5t-35 14.5h-39q-21 0 -35.5 -14.5t-14.5 -34.5v-40q0 -20 14.5 -34.5t35.5 -14.5z" glyph-name="question" unicode="?"/><glyph d="M429 548l-2 2q-5 5 -13 5h-118q-5 0 -13 -5l-37 -37q-6 -7 -6 -14v-368q0 -5 3 -10l5 -5q6 -6 13 -6h144q41 0 55 -39q39 -13 39 -57q0 -25 -17 -42t-42 -17h-177q-25 0 -43 18l-83 82l-3 3l-32 32q-16 16 -16 43v435q0 26 16 42l83 82q18 18 43 18h183q26 0 44 -18 l35 -35l47 -47l35 -35q17 -17 17 -42v-343q0 -25 -16.5 -42.5t-42.5 -17.5h-111q-28 0 -44 17l-35 35l-28 28l-35 35q-17 16 -17 43v166q0 24 17.5 41.5t41.5 17.5q43 0 58 -39q38 -15 38 -55v-134v-1h20v250q0 6 -6 14zM395 283l-16 17q-9 9 -9 20v134q0 20 -14.5 34.5 t-36.5 14.5q-20 0 -34.5 -14.5t-14.5 -34.5v-166q0 -22 14 -36l63 -63q14 -14 37 -14h111q20 0 34.5 14.5t14.5 35.5v343q0 21 -14 35l-82 82q-15 15 -37 15h-183q-21 0 -36 -15l-83 -82q-13 -16 -13 -35v-435q0 -23 13 -36l83 -82q15 -15 36 -15h177q21 0 35 14.5t14 34.5 q0 21 -14 36t-35 15h-144q-13 0 -20 9l-37 36q-9 7 -9 21v368q0 14 9 21l37 37q8 8 20 8h118q12 0 20 -8l37 -37q9 -7 9 -21v-250q0 -10 -10 -10h-19q-14 0 -21 9z" glyph-name="at" unicode="@"/><glyph d="M429 527l-24 25q-5 3 -12 3h-76q-9 0 -14 -5l-57 -58q-6 -8 -6 -13v-91h165q13 0 21.5 8.5t8.5 20.5v97q0 7 -6 13zM589 512v-498q0 -25 -17 -42t-42 -17q-19 0 -34.5 11t-21.5 28q-39 14 -39 55v184h-165q-12 0 -21 -9t-9 -20v-190q0 -26 -17.5 -42.5t-42.5 -16.5 q-19 0 -34 10.5t-21 27.5q-39 15 -39 56v498q0 27 16 43l104 102q18 18 42 18h143q26 0 43 -17l32 -32l3 -3l102 -103q18 -18 18 -43zM544 49v498q0 21 -15 36l-102 103q-14 14 -36 14h-143q-20 0 -35 -15l-104 -102q-13 -13 -13 -36v-498q0 -20 14 -34.5t35 -14.5 t35.5 14.5t14.5 34.5v190q0 16 11.5 27.5t28.5 11.5h170q17 0 28.5 -11.5t11.5 -27.5v-190q0 -20 14.5 -34.5t35.5 -14.5q20 0 34.5 14.5t14.5 34.5zM445 514v-97q0 -17 -11.5 -28t-28.5 -11h-170q-17 0 -28.5 11t-11.5 28v97q0 12 9 20l57 58q8 8 21 8h76q13 0 21 -8 l57 -58q9 -8 9 -20z" glyph-name="A" unicode="A"/><glyph d="M429 246l-5 5q-7 4 -10 4h-144q-12 0 -21 -9.5t-9 -21.5v-114h139q5 0 13 6l37 36q6 6 6 14v67q0 7 -6 13zM429 548l-2 2q-5 5 -13 5h-144q-12 0 -21 -8.5t-9 -20.5v-117h139q7 0 13 6l37 38q6 6 6 13v68q0 8 -6 14zM550 297l2 -3l4 -4q6 -6 8 -7q25 -25 25 -52v-133 q0 -27 -17 -43l-82 -82q-16 -18 -44 -18h-266q-19 0 -34 10.5t-21 27.5q-39 15 -39 56v602q0 25 17 42t42 17h266q26 0 44 -18l35 -35l47 -47l35 -35q17 -17 17 -42v-135q0 -27 -25 -52l-8 -8q-4 -1 -6 -7q-6 -7 -6 -16q0 -11 6 -18zM436 145l-37 -36q-7 -9 -20 -9h-144 q-17 0 -28.5 11t-11.5 28v120q0 17 11.5 29t28.5 12h144q11 0 20 -9l37 -38q9 -8 9 -20v-67q0 -14 -9 -21zM436 446l-37 -38q-9 -9 -20 -9h-144q-17 0 -28.5 12t-11.5 29v121q0 17 11.5 28t28.5 11h144q12 0 20 -8l37 -37q9 -7 9 -21v-68q0 -12 -9 -20zM511 378l19 19 q14 14 14 36v135q0 21 -14 35l-82 82q-15 15 -37 15h-266q-21 0 -35 -14.5t-14 -34.5v-602q0 -20 14 -34.5t35 -14.5h266q22 0 37 15l82 82q14 14 14 36v133q0 22 -14 36l-19 19q-12 12 -12 29q0 16 12 28z" glyph-name="B" unicode="B"/><glyph d="M240 479v-328q0 -7 6 -13l22 -22q8 -6 14 -6h76q6 0 14 6l57 57q6 6 6 13v30q0 25 17.5 42.5t42.5 17.5q41 0 55 -39q17 -6 28 -21.5t11 -34.5v-63q0 -26 -18 -43l-102 -103q-16 -17 -43 -17h-143q-25 0 -43 18l-138 137q-16 16 -16 43v394q0 27 16 43l103 102 q18 18 43 18h143q26 0 43 -17l137 -138q18 -18 18 -43v-63q0 -25 -16.5 -42.5t-42.5 -17.5q-42 0 -56 39q-39 14 -39 56v30q0 7 -6 13l-24 25q-5 3 -12 3h-76q-9 0 -14 -5l-57 -58q-6 -8 -6 -13zM195 186v328q0 12 9 20l57 58q8 8 21 8h76q13 0 21 -8l57 -58q9 -8 9 -20v-30 q0 -21 14.5 -35.5t35.5 -14.5q20 0 34.5 14.5t14.5 35.5v63q0 21 -15 36l-102 103q-14 14 -36 14h-143q-21 0 -36 -15l-103 -102q-13 -13 -13 -36v-394q0 -23 13 -36l103 -102q15 -15 36 -15h143q22 0 36 14l102 103q15 15 15 36v63q0 21 -14.5 35.5t-34.5 14.5 q-21 0 -35.5 -14.5t-14.5 -35.5v-30q0 -12 -9 -20l-57 -57q-7 -9 -21 -9h-76q-14 0 -21 9l-57 57q-9 8 -9 20z" glyph-name="C" unicode="C"/><glyph d="M429 527l-24 25q-5 3 -12 3h-123q-12 0 -21 -8.5t-9 -20.5v-416h118q8 0 14 6l57 57q6 6 6 13v328q0 7 -6 13zM589 512v-394q0 -26 -18 -43l-102 -103q-16 -17 -43 -17h-246q-19 0 -34 10.5t-21 27.5q-39 15 -39 56v602q0 25 17 42t42 17h246q26 0 43 -17l32 -32l3 -3 l102 -103q18 -18 18 -43zM436 166l-57 -57q-7 -9 -21 -9h-123q-17 0 -28.5 11t-11.5 28v422q0 17 11.5 28t28.5 11h123q13 0 21 -8l57 -58q9 -8 9 -20v-328q0 -12 -9 -20zM529 583l-102 103q-14 14 -36 14h-246q-21 0 -35 -14.5t-14 -34.5v-602q0 -20 14 -34.5t35 -14.5h246 q22 0 36 14l102 103q15 15 15 36v394q0 21 -15 36z" glyph-name="D" unicode="D"/><glyph d="M550 671q39 -14 39 -55q0 -25 -16.5 -43t-42.5 -18h-260q-12 0 -21 -8.5t-9 -20.5v-117h188q42 0 57 -39q17 -6 27.5 -21t10.5 -34q0 -25 -17.5 -42.5t-42.5 -17.5h-193q-12 0 -21 -9.5t-9 -21.5v-114h255q40 0 55 -39q17 -6 28 -22t11 -35q0 -25 -17 -42t-42 -17h-350 q-19 0 -34 10.5t-21 27.5q-39 15 -39 56v602q0 25 17 42t42 17h350q41 0 55 -39zM96 651v-602q0 -20 14 -34.5t35 -14.5h350q20 0 34.5 14.5t14.5 34.5q0 21 -14.5 36t-34.5 15h-260q-17 0 -28.5 11t-11.5 28v120q0 17 11.5 29t28.5 12h193q20 0 35 14.5t15 35.5t-14.5 35 t-35.5 14h-193q-17 0 -28.5 12t-11.5 29v121q0 17 11.5 28t28.5 11h260q20 0 34.5 15t14.5 36q0 20 -14.5 34.5t-34.5 14.5h-350q-21 0 -35 -14.5t-14 -34.5z" glyph-name="E" unicode="E"/><glyph d="M550 671q39 -14 39 -55q0 -25 -16.5 -43t-42.5 -18h-260q-12 0 -21 -8.5t-9 -20.5v-117h188q41 0 56 -39q17 -6 27.5 -21t10.5 -34q0 -25 -16.5 -42.5t-42.5 -17.5h-193q-12 0 -21 -9.5t-9 -21.5v-211q0 -26 -17.5 -42.5t-42.5 -16.5q-19 0 -34 10.5t-21 27.5 q-39 15 -39 56v603q0 25 17 42t42 17h350q41 0 55 -39zM195 48v211q0 17 11.5 29t28.5 12h193q20 0 34.5 14.5t14.5 35.5t-14.5 35t-34.5 14h-193q-17 0 -28.5 12t-11.5 29v121q0 17 11.5 28t28.5 11h260q20 0 34.5 15t14.5 36q0 20 -14.5 34.5t-34.5 14.5h-350 q-21 0 -35 -14.5t-14 -34.5v-603q0 -20 14 -34.5t35 -14.5t35.5 14.5t14.5 34.5z" glyph-name="F" unicode="F"/><glyph d="M414 555h-118q-5 0 -13 -5l-37 -37q-6 -7 -6 -14v-368q0 -5 3 -10l5 -5q6 -6 13 -6h118q5 0 13 6l37 36q6 6 6 14v89h-54q-42 0 -56 39q-39 14 -39 56q0 26 17.5 42.5t42.5 16.5h149q41 0 56 -39q17 -6 27.5 -21t10.5 -34v-217q0 -27 -17 -43l-82 -82q-16 -18 -44 -18 h-183q-25 0 -43 18l-118 117q-16 16 -16 43v435q0 26 16 42l83 82q18 18 43 18h183q26 0 44 -18l117 -117q16 -16 18 -45q1 -9 0 -23.5t-1 -18.5q0 -25 -16.5 -42.5t-42.5 -17.5q-42 0 -56 39q-39 14 -39 56v11q0 6 -6 14l-2 2q-5 5 -13 5zM445 534v-11q0 -21 14.5 -35.5 t35.5 -14.5q20 0 34.5 14.5t14.5 35.5v45q0 21 -14 35l-82 82q-15 15 -37 15h-183q-21 0 -36 -15l-83 -82q-13 -16 -13 -35v-435q0 -23 13 -36l83 -82q15 -15 36 -15h183q22 0 37 15l82 82q14 14 14 36v217q0 21 -14.5 35t-34.5 14h-149q-21 0 -35.5 -14t-14.5 -35 t14.5 -35.5t35.5 -14.5h59q17 0 28.5 -11.5t11.5 -28.5v-94q0 -14 -9 -21l-37 -36q-7 -9 -20 -9h-118q-13 0 -20 9l-37 36q-9 7 -9 21v368q0 14 9 21l37 37q8 8 20 8h118q12 0 20 -8l37 -37q9 -7 9 -21z" glyph-name="G" unicode="G"/><glyph d="M589 616v-602q0 -25 -17 -42t-42 -17q-43 0 -56 39q-39 14 -39 55v207h-165q-12 0 -21 -9.5t-9 -21.5v-211q0 -26 -17.5 -42.5t-42.5 -16.5q-19 0 -34 10.5t-21 27.5q-39 15 -39 56v602q0 25 17 42t42 17q42 0 57 -39q17 -6 27.5 -21t10.5 -34v-207h165q12 0 21 9t9 22 v211q0 26 17.5 42.5t42.5 16.5q41 0 55 -39q39 -14 39 -55zM544 49v602q0 20 -14.5 34.5t-34.5 14.5q-21 0 -35.5 -14t-14.5 -35v-211q0 -17 -11.5 -29t-28.5 -12h-170q-17 0 -28.5 12t-11.5 29v211q0 20 -14.5 34.5t-35.5 14.5t-35 -14.5t-14 -34.5v-602q0 -20 14 -34.5 t35 -14.5t35.5 14.5t14.5 34.5v211q0 17 11.5 29t28.5 12h170q17 0 28.5 -12t11.5 -29v-211q0 -21 14.5 -35t35.5 -14q20 0 34.5 14.5t14.5 34.5z" glyph-name="H" unicode="H"/><glyph d="M486 -45h-262q-41 0 -55 39q-39 14 -39 55q0 25 16.5 43t42.5 18h25q15 0 22.5 1t15.5 8t8 20v416h-36q-41 0 -54 38q-18 7 -29 23t-11 35q0 24 17.5 41.5t41.5 17.5h262q41 0 55 -39q39 -14 39 -55q0 -25 -16.5 -43t-42.5 -18h-25q-46 0 -46 -29v-416h36q40 0 55 -39 q17 -6 28 -22t11 -35q0 -25 -17 -42t-42 -17zM189 0h262q20 0 34.5 14.5t14.5 34.5q0 21 -14.5 36t-34.5 15h-42q-17 0 -28 11t-11 28v422q0 17 11 28t28 11h42q20 0 34.5 15t14.5 36q0 20 -14.5 34.5t-34.5 14.5h-262q-20 0 -34.5 -14.5t-14.5 -34.5q0 -21 14.5 -36 t34.5 -15h42q16 0 27.5 -11t11.5 -28v-422q0 -17 -11.5 -28t-27.5 -11h-42q-20 0 -34.5 -15t-14.5 -36q0 -20 14.5 -34.5t34.5 -14.5z" glyph-name="I" unicode="I"/><glyph d="M435 166v389h-81q-41 0 -54 38q-18 7 -29 23t-11 35q0 24 17.5 41.5t41.5 17.5h176q41 0 55 -39q39 -14 39 -55v-518q0 -27 -17 -43l-82 -82q-16 -18 -43 -18h-184q-25 0 -43 18l-83 82l-3 3l-32 32q-16 16 -16 43v83q0 25 16.5 42.5t42.5 17.5q42 0 56 -39 q39 -14 39 -56v-50q0 -5 3 -10l5 -5q6 -6 13 -6h118q5 0 13 6l37 36q6 6 6 14zM445 561v-395q0 -14 -9 -21l-37 -36q-7 -9 -20 -9h-118q-13 0 -20 9l-37 36q-9 7 -9 21v50q0 21 -14.5 35.5t-35.5 14.5t-35 -14.5t-14 -35.5v-83q0 -23 13 -36l83 -82q15 -15 36 -15h184 q21 0 36 15l82 82q14 14 14 36v518q0 20 -14.5 34.5t-34.5 14.5h-176q-20 0 -34.5 -14.5t-14.5 -34.5q0 -21 14.5 -36t34.5 -15h86q17 0 28.5 -11t11.5 -28z" glyph-name="J" unicode="J"/><glyph d="M316 256h-46q-12 0 -21 -9.5t-9 -21.5v-211q0 -26 -17.5 -42.5t-42.5 -16.5q-19 0 -34 10.5t-21 27.5q-39 15 -39 56v602q0 25 17 42t42 17q42 0 57 -39q17 -6 27.5 -21t10.5 -34v-207h41q7 0 14 6l134 134q6 7 6 14v88q0 25 17.5 42t42.5 17q41 0 55 -39q39 -14 39 -55 v-122q0 -26 -17 -42l-117 -115q-9 -11 -9 -22t7 -19l84 -83q3 -3 4 -5l31 -30q17 -16 17 -42v-122q0 -25 -17 -42t-42 -17q-19 0 -34.5 11t-21.5 28q-39 14 -39 55v88q0 7 -6 14l-99 99q-6 6 -14 6zM235 301h46q13 0 21 -9l134 -134q9 -8 9 -21v-88q0 -20 14.5 -34.5 t35.5 -14.5q20 0 34.5 14.5t14.5 34.5v122q0 21 -14 35l-117 115q-12 14 -12 29q0 16 12 29l117 115q14 14 14 35v122q0 20 -14.5 34.5t-34.5 14.5q-21 0 -35.5 -14.5t-14.5 -34.5v-88q0 -13 -9 -21l-134 -134q-8 -9 -21 -9h-46q-17 0 -28.5 12t-11.5 29v211 q0 20 -14.5 34.5t-35.5 14.5t-35 -14.5t-14 -34.5v-602q0 -20 14 -34.5t35 -14.5t35.5 14.5t14.5 34.5v211q0 17 11.5 29t28.5 12z" glyph-name="K" unicode="K"/><glyph d="M530 -45h-350q-19 0 -34 10.5t-21 27.5q-39 15 -39 56v602q0 25 17 42t42 17q42 0 57 -39q17 -6 27.5 -21t10.5 -34v-506h255q40 0 55 -39q17 -6 28 -22t11 -35q0 -25 -17 -42t-42 -17zM195 139v512q0 20 -14.5 34.5t-35.5 14.5t-35 -14.5t-14 -34.5v-602q0 -20 14 -34.5 t35 -14.5h350q20 0 34.5 14.5t14.5 34.5q0 21 -14.5 36t-34.5 15h-260q-17 0 -28.5 11t-11.5 28z" glyph-name="L" unicode="L"/><glyph d="M254 456l-13 13v-455q0 -24 -18 -41.5t-42 -17.5q-42 0 -55 38q-39 14 -39 56v602q0 25 17 42t42 17t42 -17l32 -32l3 -3l77 -78q12 -7 20 -7q10 0 21 9l110 111q17 17 44 17q41 0 55 -39q39 -14 39 -55v-602q0 -25 -17 -42t-42 -17q-19 0 -34.5 11t-21.5 28 q-39 14 -39 55v385l-14 -13q-5 -7 -5 -10v-96q0 -26 -18 -42.5t-43 -16.5q-42 0 -55 38q-39 14 -39 56v93q0 6 -7 13zM445 514v-465q0 -20 14.5 -34.5t35.5 -14.5q20 0 34.5 14.5t14.5 34.5v602q0 20 -14.5 34.5t-34.5 14.5q-23 0 -37 -14l-110 -111q-12 -12 -28 -12t-29 12 l-110 111q-11 14 -35 14q-21 0 -35 -14t-14 -35v-602q0 -21 14 -35t35 -14q20 0 35 14.5t15 34.5v465q0 8 4 8q3 0 6 -3l55 -56q10 -7 10 -20v-93q0 -21 14 -35t35 -14t36 14t15 35v96q0 11 8 17l56 56q3 3 6 3q4 0 4 -8z" glyph-name="M" unicode="M"/><glyph d="M550 671q39 -14 39 -55v-602q0 -25 -17 -42t-42 -17q-34 0 -51 30l-6 9q-18 6 -30 26l-203 348v-354q0 -26 -17.5 -42.5t-42.5 -16.5q-19 0 -34 10.5t-21 27.5q-39 15 -39 56v602q0 25 17 42t42 17q35 0 52 -30l5 -9q20 -8 30 -26l203 -348v354q0 25 17.5 42t42.5 17 q41 0 55 -39zM438 247l-250 428q-13 25 -43 25q-21 0 -35 -14.5t-14 -34.5v-602q0 -20 14 -34.5t35 -14.5t35.5 14.5t14.5 34.5v403q0 7 2 7q3 0 5 -5l250 -429q12 -25 43 -25q20 0 34.5 14.5t14.5 34.5v602q0 20 -14.5 34.5t-34.5 14.5q-21 0 -35.5 -14.5t-14.5 -34.5v-402 q0 -7 -2 -7t-5 5z" glyph-name="N" unicode="N"/><glyph d="M589 533v-436q0 -25 -17 -42l-82 -82q-16 -18 -44 -18h-183q-25 0 -43 18l-118 117q-16 16 -16 42v436q0 26 16 42l83 82q18 18 43 18h183q26 0 44 -18l117 -117q17 -17 17 -42zM530 603l-82 82q-15 15 -37 15h-183q-21 0 -36 -15l-83 -82q-13 -16 -13 -35v-436 q0 -19 13 -35l83 -82q15 -15 36 -15h183q22 0 37 15l82 82q14 14 14 35v436q0 21 -14 35zM436 145l-37 -36q-7 -9 -20 -9h-118q-13 0 -20 9l-37 36q-9 7 -9 21v368q0 14 9 21l37 37q8 8 20 8h118q12 0 20 -8l37 -37q9 -7 9 -21v-368q0 -14 -9 -21zM429 548l-2 2q-5 5 -13 5 h-118q-5 0 -13 -5l-37 -37q-6 -7 -6 -14v-368q0 -5 3 -10l5 -5q6 -6 13 -6h118q5 0 13 6l37 36q6 6 6 14v368q0 8 -6 14z" glyph-name="O" unicode="O"/><glyph d="M429 548l-2 2q-5 5 -13 5h-144q-12 0 -21 -8.5t-9 -20.5v-138h139q8 0 13 5l37 37q6 6 6 14v90q0 8 -6 14zM455 692l35 -35l47 -47l35 -35q17 -17 17 -42v-157q0 -27 -17 -43l-82 -82q-16 -18 -44 -18h-176q-12 0 -21 -9t-9 -20v-190q0 -26 -17.5 -42.5t-42.5 -16.5 q-19 0 -34 10.5t-21 27.5q-39 15 -39 56v602q0 25 17 42t42 17h266q26 0 44 -18zM195 49v190q0 16 11.5 27.5t28.5 11.5h176q22 0 37 15l82 82q14 14 14 36v157q0 21 -14 35l-82 82q-15 15 -37 15h-266q-21 0 -35 -14.5t-14 -34.5v-602q0 -20 14 -34.5t35 -14.5t35.5 14.5 t14.5 34.5zM379 378h-144q-17 0 -28.5 11t-11.5 28v144q0 17 11.5 28t28.5 11h144q12 0 20 -8l37 -37q9 -7 9 -21v-90q0 -14 -9 -21l-37 -37q-8 -8 -20 -8z" glyph-name="P" unicode="P"/><glyph d="M429 548l-2 2q-5 5 -13 5h-118q-5 0 -13 -5l-37 -37q-6 -7 -6 -14v-368q0 -5 3 -10l5 -5q6 -6 13 -6h118q5 0 13 6l37 36q6 6 6 14v368q0 8 -6 14zM455 692l35 -35l47 -47l35 -35q17 -17 17 -42v-435q0 -27 -25 -52l-8 -8q-4 -1 -6 -7q-6 -8 -6 -17q0 -8 5 -16l7 -7 q6 -6 8 -7q25 -25 25 -52q0 -25 -16.5 -42.5t-42.5 -17.5q-28 0 -44 17l-30 31q-1 0 -5 4l-27 27q-5 4 -10 4h-150q-26 0 -44 18l-83 82l-3 3l-32 32q-16 16 -16 43v435q0 26 16 42l83 82q18 18 44 18h183q25 0 43 -18zM436 145l-37 -36q-7 -9 -20 -9h-118q-13 0 -20 9 l-37 36q-9 7 -9 21v368q0 14 9 21l37 37q8 8 20 8h118q12 0 20 -8l37 -37q9 -7 9 -21v-368q0 -14 -9 -21zM229 0h150q11 0 20 -9l59 -60q14 -14 37 -14q20 0 34.5 14.5t14.5 35.5q0 22 -14 36l-19 19q-12 10 -12 27q0 19 12 29l19 19q14 14 14 36v435q0 21 -14 35l-82 82 q-15 15 -36 15h-183q-22 0 -37 -15l-83 -82q-13 -16 -13 -35v-435q0 -23 13 -36l83 -82q15 -15 37 -15z" glyph-name="Q" unicode="Q"/><glyph d="M429 527l-24 25q-5 3 -12 3h-123q-12 0 -21 -8.5t-9 -20.5v-138h118q9 0 14 5l57 58q6 6 6 13v50q0 7 -6 13zM393 233h-123q-12 0 -21 -9t-9 -20v-190q0 -26 -17.5 -42.5t-42.5 -16.5q-19 0 -34 10.5t-21 27.5q-39 15 -39 56v602q0 25 17 42t42 17h246q26 0 44 -18 l35 -35l67 -67l35 -35q17 -17 17 -43v-116q0 -28 -36 -62q-2 -2 -6 -5.5t-6 -5.5q-5 -3 -9 -10q-9 -11 -9 -20q0 -8 5 -16q10 -10 15 -17q1 -2 5 -5t5 -4q9 -8 10.5 -9.5t8.5 -9.5t9.5 -12.5t5 -13t2.5 -16.5v-176q0 -25 -17 -42t-42 -17q-19 0 -34.5 11t-21.5 28 q-39 14 -39 55v142q0 7 -6 14l-22 22q-6 6 -14 6zM436 444l-57 -58q-8 -8 -21 -8h-123q-17 0 -28.5 11t-11.5 28v144q0 17 11.5 28t28.5 11h123q13 0 21 -8l57 -58q9 -8 9 -20v-50q0 -12 -9 -20zM235 278h123q14 0 21 -9l57 -57q9 -8 9 -21v-142q0 -20 14.5 -34.5 t35.5 -14.5q20 0 34.5 14.5t14.5 34.5v176q0 21 -14 35l-40 39q-12 13 -12 29t12 28l39 39q15 15 15 36v116q0 22 -14 36l-102 102q-16 15 -37 15h-246q-21 0 -35 -14.5t-14 -34.5v-602q0 -20 14 -34.5t35 -14.5t35.5 14.5t14.5 34.5v190q0 16 11.5 27.5t28.5 11.5z" glyph-name="R" unicode="R"/><glyph d="M414 555h-118q-5 0 -13 -5l-32 -32q-8 -10 -10 -15q-2 -6 -2 -22q1 -11 1 -50q0 -6 7 -13l5 -6q4 -3 9 -3h151q26 0 43 -17l32 -32l3 -3l82 -83q17 -17 17 -43v-134q0 -25 -17 -42l-82 -82q-16 -18 -43 -18h-184q-25 0 -43 18l-83 82l-3 3l-32 32q-15 15 -17 46 q0 8 0.5 22.5t0.5 19.5q0 24 17.5 41t41.5 17q43 0 57 -39q38 -13 38 -54v-12q0 -5 3 -10l5 -5q6 -6 13 -6h118q5 0 13 6q9 8 19.5 18t12.5 13q2 2 4 4.5t3 4t2 3.5t2 3q1 3 1 21q0 5 -0.5 21t-0.5 29q0 7 -6 13l-5 5q-7 4 -10 4h-151q-26 0 -43 17l-35 35l-48 48l-35 35 q-16 16 -16 43v135q0 26 16 42l83 82q18 18 43 18h184q25 0 43 -18l35 -35l47 -47l35 -35q16 -16 18 -45q1 -9 0 -23.5t-1 -18.5q0 -25 -16.5 -42.5t-42.5 -17.5q-42 0 -56 39q-39 14 -39 56v11q0 8 -6 14l-2 2q-5 5 -13 5zM445 534v-11q0 -21 14.5 -35.5t35.5 -14.5 q20 0 34.5 14.5t14.5 35.5v45q0 21 -14 35l-82 82q-15 15 -36 15h-184q-21 0 -36 -15l-83 -82q-13 -16 -13 -35v-135q0 -23 13 -36l83 -83q16 -14 36 -14h151q11 0 20 -9l37 -38q9 -8 9 -20v-67q0 -14 -9 -21l-37 -36q-7 -9 -20 -9h-118q-13 0 -20 9l-37 36q-9 7 -9 21v12 q0 20 -14.5 34t-35.5 14t-35 -14t-14 -34v-46q0 -19 13 -35l83 -82q15 -15 36 -15h184q21 0 36 15l82 82q14 14 14 35v134q0 22 -14 36l-82 83q-16 14 -36 14h-151q-11 0 -20 9l-37 38q-9 8 -9 20v68q0 14 9 21l37 37q8 8 20 8h118q12 0 20 -8l37 -37q9 -7 9 -21z" glyph-name="S" unicode="S"/><glyph d="M260 49v506h-80q-40 0 -55 38q-39 15 -39 58q0 25 17 42t42 17h350q41 0 55 -39q39 -14 39 -55q0 -25 -16.5 -43t-42.5 -18h-86q-12 0 -20.5 -8.5t-8.5 -20.5v-512q0 -26 -18 -42.5t-43 -16.5q-41 0 -55 39q-39 14 -39 55zM370 49v512q0 17 11 28t28 11h86q20 0 34.5 15 t14.5 36q0 20 -14.5 34.5t-34.5 14.5h-350q-21 0 -35 -14.5t-14 -34.5q0 -21 14 -36t35 -15h86q16 0 27.5 -11t11.5 -28v-512q0 -20 14.5 -34.5t34.5 -14.5q22 0 36.5 14.5t14.5 34.5z" glyph-name="T" unicode="T"/><glyph d="M550 671q39 -14 39 -55v-519q0 -25 -17 -42l-82 -82q-16 -18 -44 -18h-183q-25 0 -43 18l-118 117q-16 16 -16 42v519q0 25 17 42t42 17q42 0 57 -39q17 -6 27.5 -21t10.5 -34v-485q0 -5 3 -10l5 -5q6 -6 13 -6h118q5 0 13 6l37 36q6 6 6 14v485q0 25 17.5 42t42.5 17 q41 0 55 -39zM195 166v485q0 20 -14.5 34.5t-35.5 14.5t-35 -14.5t-14 -34.5v-519q0 -19 13 -35l83 -82q15 -15 36 -15h183q22 0 37 15l82 82q14 14 14 35v519q0 20 -14.5 34.5t-34.5 14.5q-21 0 -35.5 -14.5t-14.5 -34.5v-485q0 -14 -9 -21l-37 -36q-7 -9 -20 -9h-118 q-13 0 -20 9l-37 36q-9 7 -9 21z" glyph-name="U" unicode="U"/><glyph d="M589 616v-445q0 -25 -18 -43l-155 -156q-14 -15 -40 -17h-39q-26 0 -43 17l-191 191q-17 17 -17 43v445q0 25 17 42t42 17q42 0 57 -39q17 -6 27.5 -21t10.5 -34v-411q0 -8 6 -14l56 -57q8 -6 18 -6q12 0 21 9l88 89q6 8 6 14v411q0 25 17.5 42t42.5 17q41 0 55 -39 q39 -14 39 -55zM445 651v-411q0 -14 -9 -21l-88 -89q-10 -12 -28 -12t-28 12l-88 89q-9 7 -9 21v411q0 20 -14.5 34.5t-35.5 14.5t-35 -14.5t-14 -34.5v-445q0 -22 14 -36l156 -156q14 -14 36 -14h36q22 0 36 14l155 156q15 14 15 36v445q0 20 -14.5 34.5t-34.5 14.5 q-21 0 -35.5 -14.5t-14.5 -34.5z" glyph-name="V" unicode="V"/><glyph d="M589 616v-514q0 -25 -17 -42l-87 -88q-16 -17 -43 -17q-25 0 -42 17l-30 30l-5 5l-10 10l-45 -45q-17 -17 -42 -17q-26 0 -43 17l-35 35l-53 53l-35 35q-16 15 -16 42v514q0 25 17 42t42 17q42 0 57 -39q17 -6 27.5 -21t10.5 -34v-469q20 7 20 24v179q0 26 17.5 42.5 t42.5 16.5q42 0 57 -39q38 -13 38 -55v-168q20 7 20 24v480q0 25 17.5 42t42.5 17q41 0 55 -39q39 -14 39 -55zM445 651v-480q0 -14 -11.5 -24.5t-26.5 -10.5q-14 0 -25.5 10.5t-11.5 24.5v179q0 21 -14.5 35t-35.5 14t-35.5 -14t-14.5 -35v-179q0 -14 -11.5 -24.5 t-25.5 -10.5q-15 0 -26.5 10.5t-11.5 24.5v480q0 20 -14.5 34.5t-35.5 14.5t-35 -14.5t-14 -34.5v-514q0 -22 13 -35l88 -88q14 -14 36 -14q21 0 35 14l52 53l52 -53q14 -14 35 -14q22 0 36 14l87 88q14 14 14 35v514q0 20 -14.5 34.5t-34.5 14.5q-21 0 -35.5 -14.5 t-14.5 -34.5z" glyph-name="W" unicode="W"/><glyph d="M589 616v-145q0 -25 -18 -43l-91 -92q-10 -11 -10 -21q0 -11 10 -21l91 -92q18 -18 18 -43v-145q0 -25 -17 -42t-42 -17q-19 0 -34.5 11t-21.5 28q-39 14 -39 55v112q0 7 -6 13l-53 53q-10 10 -22 10q-9 0 -20 -10l-88 -88q-6 -6 -6 -13v-112q0 -26 -17.5 -42.5 t-42.5 -16.5q-19 0 -34 10.5t-21 27.5q-39 15 -39 56v145q0 26 17 43l92 92q10 10 10 21t-10 21l-57 57l-35 35q-17 17 -17 43v145q0 25 17 42t42 17q42 0 57 -39q17 -6 27.5 -21t10.5 -34v-112q0 -7 7 -13l54 -57q14 -6 18 -6q14 0 23 9l87 89q6 6 6 13v112q0 25 17.5 42 t42.5 17q41 0 55 -39q39 -14 39 -55zM445 651v-112q0 -14 -9 -20l-87 -89q-13 -12 -30 -12q-15 0 -28 12l-87 89q-9 6 -9 20v112q0 20 -14.5 34.5t-35.5 14.5t-35 -14.5t-14 -34.5v-145q0 -20 14 -36l92 -92q13 -13 13 -28t-13 -28l-92 -92q-14 -16 -14 -36v-145 q0 -20 14 -34.5t35 -14.5t35.5 14.5t14.5 34.5v112q0 14 9 20l88 88q13 13 27 13q16 0 29 -13l88 -88q9 -6 9 -20v-112q0 -20 14.5 -34.5t35.5 -14.5q20 0 34.5 14.5t14.5 34.5v145q0 21 -15 36l-91 92q-13 13 -13 28t13 28l91 92q15 15 15 36v145q0 20 -14.5 34.5 t-34.5 14.5q-21 0 -35.5 -14.5t-14.5 -34.5z" glyph-name="X" unicode="X"/><glyph d="M202 671q17 -6 27.5 -21t10.5 -34v-133q0 -8 6 -14l56 -57q7 -6 17 -6q13 0 22 9l88 89q6 8 6 14v133q0 25 17.5 42t42.5 17q41 0 55 -39q39 -14 39 -55v-167q0 -25 -18 -43l-150 -151q-6 -7 -6 -14v-227q0 -26 -18 -42.5t-43 -16.5q-41 0 -55 39q-39 14 -39 55v227 q0 6 -6 14l-116 116l-35 35q-17 17 -17 43v167q0 25 17 42t42 17q42 0 57 -39zM110 448l151 -151q9 -7 9 -21v-227q0 -20 14.5 -34.5t34.5 -14.5q22 0 36.5 14.5t14.5 34.5v227q0 14 9 21l150 151q15 14 15 36v167q0 20 -14.5 34.5t-34.5 14.5q-21 0 -35.5 -14.5 t-14.5 -34.5v-133q0 -14 -9 -21l-88 -89q-10 -12 -29 -12q-17 0 -27 12l-88 89q-9 7 -9 21v133q0 20 -14.5 34.5t-35.5 14.5t-35 -14.5t-14 -34.5v-167q0 -22 14 -36z" glyph-name="Y" unicode="Y"/><glyph d="M435 555h-255q-40 0 -55 38q-39 15 -39 58q0 25 17 42t42 17h350q41 0 55 -39q39 -14 39 -55v-127q0 -25 -17 -42l-326 -326q-5 -8 -5 -11h254q40 0 55 -39q17 -6 28 -22t11 -35q0 -25 -17 -42t-42 -17h-350q-19 0 -34 10.5t-21 27.5q-39 15 -39 56v127q0 26 16 42 l327 326q4 4 6 11zM436 537l-327 -326q-13 -16 -13 -35v-127q0 -20 14 -34.5t35 -14.5h350q20 0 34.5 14.5t14.5 34.5q0 21 -14.5 36t-34.5 15h-260q-17 0 -28.5 11t-11.5 28v3q0 14 9 21l326 326q14 14 14 35v127q0 20 -14.5 34.5t-34.5 14.5h-350q-21 0 -35 -14.5 t-14 -34.5q0 -21 14 -36t35 -15h260q17 0 28.5 -11t11.5 -28v-3q0 -14 -9 -21z" glyph-name="Z" unicode="Z"/><glyph d="M451 715q38 -13 38 -55q0 -26 -17 -43t-43 -17h-58q-11 0 -20 -9t-9 -21v-506h52q42 0 57 -39q38 -13 38 -55q0 -26 -17 -43t-43 -17h-147q-43 0 -56 39q-39 14 -39 55v691q0 26 17.5 42.5t42.5 16.5h147q42 0 57 -39zM247 -45h147q21 0 35.5 14.5t14.5 35.5t-14.5 35 t-35.5 14h-58q-16 0 -27.5 11.5t-11.5 28.5v511q0 17 11.5 28.5t27.5 11.5h58q21 0 35.5 14.5t14.5 35.5t-14.5 35t-35.5 14h-147q-21 0 -35.5 -14t-14.5 -35v-691q0 -21 14.5 -35t35.5 -14z" glyph-name="bracketleft" unicode="["/><glyph d="M590 141v-127q0 -25 -17 -42t-42 -17q-19 0 -34.5 11t-21.5 28q-39 14 -39 55v93q0 6 -6 14l-291 291l-35 35q-17 17 -17 42v127q0 25 17 42t42 17q42 0 57 -39q17 -6 27.5 -21t10.5 -34v-93q0 -8 6 -14l325 -326q18 -18 18 -42zM196 558v93q0 20 -14.5 34.5t-35.5 14.5 t-35 -14.5t-14 -34.5v-127q0 -18 14 -35l326 -326q9 -7 9 -21v-93q0 -20 14.5 -34.5t35.5 -14.5q20 0 34.5 14.5t14.5 34.5v127q0 20 -15 35l-325 326q-9 7 -9 21z" glyph-name="backslash" unicode="\"/><glyph d="M429 -90h-147q-42 0 -56 39q-39 14 -39 56q0 26 17.5 42.5t42.5 16.5h58q12 0 20.5 9t8.5 21v506h-52q-42 0 -56 39q-39 14 -39 56q0 26 17.5 42.5t42.5 16.5h147q42 0 57 -39q38 -13 38 -55v-691q0 -26 -17.5 -42.5t-42.5 -16.5zM247 -45h147q21 0 35.5 14t14.5 35v691 q0 21 -14.5 35t-35.5 14h-147q-21 0 -35.5 -14t-14.5 -35t14.5 -35.5t35.5 -14.5h58q16 0 27.5 -11.5t11.5 -28.5v-511q0 -17 -11.5 -28.5t-27.5 -11.5h-58q-21 0 -35.5 -14t-14.5 -35t14.5 -35.5t35.5 -14.5z" glyph-name="bracketright" unicode="]"/><glyph d="M363 693l35 -35l108 -108l35 -35q17 -17 17 -43q0 -27 -17.5 -43.5t-44.5 -16.5q-23 0 -40 17l-35 35l-45 45q-10 10 -21 10q-9 0 -20 -10l-80 -80q-17 -17 -41 -17q-44 0 -57 39q-39 14 -39 56q0 26 17 43l143 143q17 17 42 17q26 0 43 -17zM320 700q-21 0 -35 -14 l-143 -143q-14 -14 -14 -36q0 -21 14.5 -35.5t36.5 -14.5q19 0 34 14l80 80q13 13 27 13q15 0 28 -13l80 -80q15 -14 33 -14q23 0 37.5 14.5t14.5 35.5q0 22 -14 36l-143 143q-14 14 -36 14z" glyph-name="asciicircum" unicode="^"/><glyph d="M552 25q17 -6 27.5 -21t10.5 -34q0 -25 -16.5 -42.5t-42.5 -17.5h-350q-42 0 -55 38q-39 13 -39 57q0 25 17 42t42 17h350q41 0 56 -39zM496 54h-350q-21 0 -35 -14t-14 -35q0 -22 14 -36t35 -14h350q20 0 34.5 14.5t14.5 35.5t-14.5 35t-34.5 14z" glyph-name="underscore" unicode="_"/><glyph d="M323 971l30 -30q1 -1 3 -2t3 -3l79 -81q17 -19 17 -42q0 -26 -17.5 -42.5t-42.5 -16.5q-27 0 -43 16l-31 31l-4 4l-80 81q-17 17 -17 43q0 25 17 42t42 17q27 0 44 -17zM244 893l80 -81q13 -13 36 -13q21 0 35.5 14t14.5 35q0 20 -15 35l-79 81q-14 14 -37 14 q-21 0 -35 -14.5t-14 -34.5q0 -22 14 -36z" glyph-name="grave" unicode="`"/><glyph d="M589 512v-498q0 -25 -17 -42t-42 -17q-19 0 -34.5 11t-21.5 28q-39 14 -39 55v184h-165q-12 0 -21 -9t-9 -20v-190q0 -26 -17.5 -42.5t-42.5 -16.5q-19 0 -34 10.5t-21 27.5q-39 15 -39 56v498q0 27 16 43l104 102q18 18 42 18h143q26 0 43 -17l137 -138q18 -18 18 -43z M544 49v498q0 21 -15 36l-102 103q-14 14 -36 14h-143q-20 0 -35 -15l-104 -102q-13 -13 -13 -36v-498q0 -20 14 -34.5t35 -14.5t35.5 14.5t14.5 34.5v190q0 16 11.5 27.5t28.5 11.5h170q17 0 28.5 -11.5t11.5 -27.5v-190q0 -20 14.5 -34.5t35.5 -14.5q20 0 34.5 14.5 t14.5 34.5zM445 514v-97q0 -17 -11.5 -28t-28.5 -11h-170q-17 0 -28.5 11t-11.5 28v97q0 12 9 20l57 58q8 8 21 8h76q13 0 21 -8l57 -58q9 -8 9 -20zM429 527l-24 25q-5 3 -12 3h-76q-9 0 -14 -5l-57 -58q-6 -8 -6 -13v-91h165q13 0 21.5 8.5t8.5 20.5v97q0 7 -6 13z" glyph-name="a" unicode="a"/><glyph d="M429 246l-5 5q-7 4 -10 4h-144q-12 0 -21 -9.5t-9 -21.5v-114h139q5 0 13 6l37 36q6 6 6 14v67q0 7 -6 13zM429 548l-2 2q-5 5 -13 5h-144q-12 0 -21 -8.5t-9 -20.5v-117h139q7 0 13 6l37 38q6 6 6 13v68q0 8 -6 14zM550 297l2 -3l4 -4q6 -6 8 -7q25 -25 25 -52v-133 q0 -27 -17 -43l-82 -82q-16 -18 -44 -18h-266q-19 0 -34 10.5t-21 27.5q-39 15 -39 56v602q0 25 17 42t42 17h266q26 0 44 -18l35 -35l47 -47l35 -35q17 -17 17 -42v-135q0 -27 -25 -52l-8 -8q-4 -1 -6 -7q-6 -7 -6 -16q0 -11 6 -18zM436 145l-37 -36q-7 -9 -20 -9h-144 q-17 0 -28.5 11t-11.5 28v120q0 17 11.5 29t28.5 12h144q11 0 20 -9l37 -38q9 -8 9 -20v-67q0 -14 -9 -21zM436 446l-37 -38q-9 -9 -20 -9h-144q-17 0 -28.5 12t-11.5 29v121q0 17 11.5 28t28.5 11h144q12 0 20 -8l37 -37q9 -7 9 -21v-68q0 -12 -9 -20zM511 378l19 19 q14 14 14 36v135q0 21 -14 35l-82 82q-15 15 -37 15h-266q-21 0 -35 -14.5t-14 -34.5v-602q0 -20 14 -34.5t35 -14.5h266q22 0 37 15l82 82q14 14 14 36v133q0 22 -14 36l-19 19q-12 12 -12 29q0 16 12 28z" glyph-name="b" unicode="b"/><glyph d="M240 479v-328q0 -7 6 -13l22 -22q8 -6 14 -6h76q6 0 14 6l57 57q6 6 6 13v30q0 25 17.5 42.5t42.5 17.5q41 0 55 -39q17 -6 28 -21.5t11 -34.5v-63q0 -26 -18 -43l-102 -103q-16 -17 -43 -17h-143q-25 0 -43 18l-138 137q-16 16 -16 43v394q0 27 16 43l103 102 q18 18 43 18h143q26 0 43 -17l137 -138q18 -18 18 -43v-63q0 -25 -16.5 -42.5t-42.5 -17.5q-42 0 -56 39q-39 14 -39 56v30q0 7 -6 13l-24 25q-5 3 -12 3h-76q-9 0 -14 -5l-57 -58q-6 -8 -6 -13zM195 186v328q0 12 9 20l57 58q8 8 21 8h76q13 0 21 -8l57 -58q9 -8 9 -20v-30 q0 -21 14.5 -35.5t35.5 -14.5q20 0 34.5 14.5t14.5 35.5v63q0 21 -15 36l-102 103q-14 14 -36 14h-143q-21 0 -36 -15l-103 -102q-13 -13 -13 -36v-394q0 -23 13 -36l103 -102q15 -15 36 -15h143q22 0 36 14l102 103q15 15 15 36v63q0 21 -14.5 35.5t-34.5 14.5 q-21 0 -35.5 -14.5t-14.5 -35.5v-30q0 -12 -9 -20l-57 -57q-7 -9 -21 -9h-76q-14 0 -21 9l-57 57q-9 8 -9 20z" glyph-name="c" unicode="c"/><glyph d="M429 527l-24 25q-5 3 -12 3h-123q-12 0 -21 -8.5t-9 -20.5v-416h118q8 0 14 6l57 57q6 6 6 13v328q0 7 -6 13zM589 512v-394q0 -26 -18 -43l-102 -103q-16 -17 -43 -17h-246q-19 0 -34 10.5t-21 27.5q-39 15 -39 56v602q0 25 17 42t42 17h246q26 0 43 -17l32 -32l3 -3 l102 -103q18 -18 18 -43zM436 166l-57 -57q-7 -9 -21 -9h-123q-17 0 -28.5 11t-11.5 28v422q0 17 11.5 28t28.5 11h123q13 0 21 -8l57 -58q9 -8 9 -20v-328q0 -12 -9 -20zM529 583l-102 103q-14 14 -36 14h-246q-21 0 -35 -14.5t-14 -34.5v-602q0 -20 14 -34.5t35 -14.5h246 q22 0 36 14l102 103q15 15 15 36v394q0 21 -15 36z" glyph-name="d" unicode="d"/><glyph d="M550 671q39 -14 39 -55q0 -25 -16.5 -43t-42.5 -18h-260q-12 0 -21 -8.5t-9 -20.5v-117h188q42 0 57 -39q17 -6 27.5 -21t10.5 -34q0 -25 -17.5 -42.5t-42.5 -17.5h-193q-12 0 -21 -9.5t-9 -21.5v-114h255q40 0 55 -39q17 -6 28 -22t11 -35q0 -25 -17 -42t-42 -17h-350 q-19 0 -34 10.5t-21 27.5q-39 15 -39 56v602q0 25 17 42t42 17h350q41 0 55 -39zM96 651v-602q0 -20 14 -34.5t35 -14.5h350q20 0 34.5 14.5t14.5 34.5q0 21 -14.5 36t-34.5 15h-260q-17 0 -28.5 11t-11.5 28v120q0 17 11.5 29t28.5 12h193q20 0 35 14.5t15 35.5t-14.5 35 t-35.5 14h-193q-17 0 -28.5 12t-11.5 29v121q0 17 11.5 28t28.5 11h260q20 0 34.5 15t14.5 36q0 20 -14.5 34.5t-34.5 14.5h-350q-21 0 -35 -14.5t-14 -34.5z" glyph-name="e" unicode="e"/><glyph d="M550 671q39 -14 39 -55q0 -25 -16.5 -43t-42.5 -18h-260q-12 0 -21 -8.5t-9 -20.5v-117h188q41 0 56 -39q17 -6 27.5 -21t10.5 -34q0 -25 -16.5 -42.5t-42.5 -17.5h-193q-12 0 -21 -9.5t-9 -21.5v-211q0 -26 -17.5 -42.5t-42.5 -16.5q-19 0 -34 10.5t-21 27.5 q-39 15 -39 56v603q0 25 17 42t42 17h350q41 0 55 -39zM195 48v211q0 17 11.5 29t28.5 12h193q20 0 34.5 14.5t14.5 35.5t-14.5 35t-34.5 14h-193q-17 0 -28.5 12t-11.5 29v121q0 17 11.5 28t28.5 11h260q20 0 34.5 15t14.5 36q0 20 -14.5 34.5t-34.5 14.5h-350 q-21 0 -35 -14.5t-14 -34.5v-603q0 -20 14 -34.5t35 -14.5t35.5 14.5t14.5 34.5z" glyph-name="f" unicode="f"/><glyph d="M414 555h-118q-5 0 -13 -5l-37 -37q-6 -7 -6 -14v-368q0 -5 3 -10l5 -5q6 -6 13 -6h118q5 0 13 6l37 36q6 6 6 14v89h-54q-42 0 -56 39q-39 14 -39 56q0 26 17.5 42.5t42.5 16.5h149q41 0 56 -39q17 -6 27.5 -21t10.5 -34v-217q0 -27 -17 -43l-82 -82q-16 -18 -44 -18 h-183q-25 0 -43 18l-118 117q-16 16 -16 43v435q0 26 16 42l83 82q18 18 43 18h183q26 0 44 -18l117 -117q16 -16 18 -45q1 -9 0 -23.5t-1 -18.5q0 -25 -16.5 -42.5t-42.5 -17.5q-42 0 -56 39q-39 14 -39 56v11q0 6 -6 14l-2 2q-5 5 -13 5zM445 534v-11q0 -21 14.5 -35.5 t35.5 -14.5q20 0 34.5 14.5t14.5 35.5v45q0 21 -14 35l-82 82q-15 15 -37 15h-183q-21 0 -36 -15l-83 -82q-13 -16 -13 -35v-435q0 -23 13 -36l83 -82q15 -15 36 -15h183q22 0 37 15l82 82q14 14 14 36v217q0 21 -14.5 35t-34.5 14h-149q-21 0 -35.5 -14t-14.5 -35 t14.5 -35.5t35.5 -14.5h59q17 0 28.5 -11.5t11.5 -28.5v-94q0 -14 -9 -21l-37 -36q-7 -9 -20 -9h-118q-13 0 -20 9l-37 36q-9 7 -9 21v368q0 14 9 21l37 37q8 8 20 8h118q12 0 20 -8l37 -37q9 -7 9 -21z" glyph-name="g" unicode="g"/><glyph d="M589 616v-602q0 -25 -17 -42t-42 -17q-43 0 -56 39q-39 14 -39 55v207h-165q-12 0 -21 -9.5t-9 -21.5v-211q0 -26 -17.5 -42.5t-42.5 -16.5q-19 0 -34 10.5t-21 27.5q-39 15 -39 56v602q0 25 17 42t42 17q42 0 57 -39q17 -6 27.5 -21t10.5 -34v-207h165q12 0 21 9t9 22 v211q0 26 17.5 42.5t42.5 16.5q41 0 55 -39q39 -14 39 -55zM544 49v602q0 20 -14.5 34.5t-34.5 14.5q-21 0 -35.5 -14t-14.5 -35v-211q0 -17 -11.5 -29t-28.5 -12h-170q-17 0 -28.5 12t-11.5 29v211q0 20 -14.5 34.5t-35.5 14.5t-35 -14.5t-14 -34.5v-602q0 -20 14 -34.5 t35 -14.5t35.5 14.5t14.5 34.5v211q0 17 11.5 29t28.5 12h170q17 0 28.5 -12t11.5 -29v-211q0 -21 14.5 -35t35.5 -14q20 0 34.5 14.5t14.5 34.5z" glyph-name="h" unicode="h"/><glyph d="M486 -45h-262q-41 0 -55 39q-39 14 -39 55q0 25 16.5 43t42.5 18h25q20 0 25 2q21 5 21 27v416h-10h-26q-41 0 -54 38q-18 7 -29 23t-11 35q0 24 17.5 41.5t41.5 17.5h262q41 0 55 -39q39 -14 39 -55q0 -25 -16.5 -43t-42.5 -18h-25q-19 0 -24 -2q-22 -5 -22 -27v-416h10 h26q40 0 55 -39q17 -6 28 -22t11 -35q0 -25 -17 -42t-42 -17zM189 0h262q20 0 34.5 14.5t14.5 34.5q0 21 -14.5 36t-34.5 15h-42q-17 0 -28 11t-11 28v422q0 17 11 28t28 11h42q20 0 34.5 15t14.5 36q0 20 -14.5 34.5t-34.5 14.5h-262q-20 0 -34.5 -14.5t-14.5 -34.5 q0 -21 14.5 -36t34.5 -15h42q16 0 27.5 -11t11.5 -28v-422q0 -17 -11.5 -28t-27.5 -11h-42q-20 0 -34.5 -15t-14.5 -36q0 -20 14.5 -34.5t34.5 -14.5z" glyph-name="i" unicode="i"/><glyph d="M435 166v389h-81q-41 0 -54 38q-18 7 -29 23t-11 35q0 24 17.5 41.5t41.5 17.5h176q41 0 55 -39q39 -14 39 -55v-518q0 -27 -17 -43l-82 -82q-16 -18 -43 -18h-184q-25 0 -43 18l-83 82l-3 3l-32 32q-16 16 -16 43v83q0 25 16.5 42.5t42.5 17.5q42 0 56 -39 q39 -14 39 -56v-50q0 -5 3 -10l5 -5q6 -6 13 -6h118q5 0 13 6l37 36q6 6 6 14zM445 561v-395q0 -14 -9 -21l-37 -36q-7 -9 -20 -9h-118q-13 0 -20 9l-37 36q-9 7 -9 21v50q0 21 -14.5 35.5t-35.5 14.5t-35 -14.5t-14 -35.5v-83q0 -23 13 -36l83 -82q15 -15 36 -15h184 q21 0 36 15l82 82q14 14 14 36v518q0 20 -14.5 34.5t-34.5 14.5h-176q-20 0 -34.5 -14.5t-14.5 -34.5q0 -21 14.5 -36t34.5 -15h86q17 0 28.5 -11t11.5 -28z" glyph-name="j" unicode="j"/><glyph d="M316 256h-46q-12 0 -21 -9.5t-9 -21.5v-211q0 -26 -17.5 -42.5t-42.5 -16.5q-19 0 -34 10.5t-21 27.5q-39 15 -39 56v602q0 25 17 42t42 17q42 0 57 -39q17 -6 27.5 -21t10.5 -34v-207h41q7 0 14 6l134 134q6 7 6 14v88q0 25 17.5 42t42.5 17q41 0 55 -39q39 -14 39 -55 v-122q0 -26 -17 -42l-117 -115q-9 -11 -9 -22t7 -19l84 -83q3 -3 4 -5l31 -30q17 -16 17 -42v-122q0 -25 -17 -42t-42 -17q-19 0 -34.5 11t-21.5 28q-39 14 -39 55v88q0 7 -6 14l-99 99q-6 6 -14 6zM235 301h46q13 0 21 -9l134 -134q9 -8 9 -21v-88q0 -20 14.5 -34.5 t35.5 -14.5q20 0 34.5 14.5t14.5 34.5v122q0 21 -14 35l-117 115q-12 14 -12 29q0 16 12 29l117 115q14 14 14 35v122q0 20 -14.5 34.5t-34.5 14.5q-21 0 -35.5 -14.5t-14.5 -34.5v-88q0 -13 -9 -21l-134 -134q-8 -9 -21 -9h-46q-17 0 -28.5 12t-11.5 29v211 q0 20 -14.5 34.5t-35.5 14.5t-35 -14.5t-14 -34.5v-602q0 -20 14 -34.5t35 -14.5t35.5 14.5t14.5 34.5v211q0 17 11.5 29t28.5 12z" glyph-name="k" unicode="k"/><glyph d="M530 -45h-350q-19 0 -34 10.5t-21 27.5q-39 15 -39 56v602q0 25 17 42t42 17q42 0 57 -39q17 -6 27.5 -21t10.5 -34v-506h255q40 0 55 -39q17 -6 28 -22t11 -35q0 -25 -17 -42t-42 -17zM195 139v512q0 20 -14.5 34.5t-35.5 14.5t-35 -14.5t-14 -34.5v-602q0 -20 14 -34.5 t35 -14.5h350q20 0 34.5 14.5t14.5 34.5q0 21 -14.5 36t-34.5 15h-260q-17 0 -28.5 11t-11.5 28z" glyph-name="l" unicode="l"/><glyph d="M254 456l-13 13v-455q0 -24 -18 -41.5t-42 -17.5q-42 0 -55 38q-39 14 -39 56v602q0 25 17 42t42 17t42 -17l32 -32l3 -3l77 -78q12 -7 20 -7q10 0 21 9l110 111q17 17 44 17q41 0 55 -39q39 -14 39 -55v-602q0 -25 -17 -42t-42 -17q-19 0 -34.5 11t-21.5 28 q-39 14 -39 55v385l-14 -13q-5 -7 -5 -10v-96q0 -26 -18 -42.5t-43 -16.5q-42 0 -55 38q-39 14 -39 56v93q0 6 -7 13zM445 514v-465q0 -20 14.5 -34.5t35.5 -14.5q20 0 34.5 14.5t14.5 34.5v602q0 20 -14.5 34.5t-34.5 14.5q-23 0 -37 -14l-110 -111q-12 -12 -28 -12t-29 12 l-110 111q-11 14 -35 14q-21 0 -35 -14t-14 -35v-602q0 -21 14 -35t35 -14q20 0 35 14.5t15 34.5v465q0 8 4 8q3 0 6 -3l55 -56q10 -7 10 -20v-93q0 -21 14 -35t35 -14t36 14t15 35v96q0 11 8 17l56 56q3 3 6 3q4 0 4 -8z" glyph-name="m" unicode="m"/><glyph d="M550 671q39 -14 39 -55v-602q0 -25 -17 -42t-42 -17q-34 0 -51 30l-6 9q-18 6 -30 26l-203 348v-354q0 -26 -17.5 -42.5t-42.5 -16.5q-19 0 -34 10.5t-21 27.5q-39 15 -39 56v602q0 25 17 42t42 17q35 0 52 -30l5 -9q20 -8 30 -26l203 -348v354q0 25 17.5 42t42.5 17 q41 0 55 -39zM438 247l-250 428q-13 25 -43 25q-21 0 -35 -14.5t-14 -34.5v-602q0 -20 14 -34.5t35 -14.5t35.5 14.5t14.5 34.5v403q0 7 2 7q3 0 5 -5l250 -429q12 -25 43 -25q20 0 34.5 14.5t14.5 34.5v602q0 20 -14.5 34.5t-34.5 14.5q-21 0 -35.5 -14.5t-14.5 -34.5v-402 q0 -7 -2 -7t-5 5z" glyph-name="n" unicode="n"/><glyph d="M589 533v-436q0 -25 -17 -42l-82 -82q-16 -18 -44 -18h-183q-25 0 -43 18l-118 117q-16 16 -16 42v436q0 26 16 42l83 82q18 18 43 18h183q26 0 44 -18l117 -117q17 -17 17 -42zM530 603l-82 82q-15 15 -37 15h-183q-21 0 -36 -15l-83 -82q-13 -16 -13 -35v-436 q0 -19 13 -35l83 -82q15 -15 36 -15h183q22 0 37 15l82 82q14 14 14 35v436q0 21 -14 35zM436 145l-37 -36q-7 -9 -20 -9h-118q-13 0 -20 9l-37 36q-9 7 -9 21v368q0 14 9 21l37 37q8 8 20 8h118q12 0 20 -8l37 -37q9 -7 9 -21v-368q0 -14 -9 -21zM429 548l-2 2q-5 5 -13 5 h-118q-5 0 -13 -5l-37 -37q-6 -7 -6 -14v-368q0 -5 3 -10l5 -5q6 -6 13 -6h118q5 0 13 6l37 36q6 6 6 14v368q0 8 -6 14z" glyph-name="o" unicode="o"/><glyph d="M125 -7q-39 15 -39 56v602q0 25 17 42t42 17h266q26 0 44 -18l117 -117q17 -17 17 -42v-157q0 -27 -17 -43l-82 -82q-16 -18 -44 -18h-176q-12 0 -21 -9t-9 -20v-190q0 -26 -17.5 -42.5t-42.5 -16.5q-19 0 -34 10.5t-21 27.5zM195 49v190q0 16 11.5 27.5t28.5 11.5h176 q22 0 37 15l82 82q14 14 14 36v157q0 21 -14 35l-82 82q-15 15 -37 15h-266q-21 0 -35 -14.5t-14 -34.5v-602q0 -20 14 -34.5t35 -14.5t35.5 14.5t14.5 34.5zM379 378h-144q-17 0 -28.5 11t-11.5 28v144q0 17 11.5 28t28.5 11h144q12 0 20 -8l37 -37q9 -7 9 -21v-90 q0 -14 -9 -21l-37 -37q-8 -8 -20 -8zM429 548l-2 2q-5 5 -13 5h-144q-12 0 -21 -8.5t-9 -20.5v-138h139q8 0 13 5l37 37q6 6 6 14v90q0 8 -6 14z" glyph-name="p" unicode="p"/><glyph d="M451 -76l-27 27q-5 4 -10 4h-150q-26 0 -44 18l-118 117q-16 16 -16 43v435q0 26 16 42l83 82q18 18 44 18h183q25 0 43 -18l117 -117q17 -17 17 -42v-435q0 -27 -25 -52l-8 -8q-4 -1 -6 -7q-6 -8 -6 -17q0 -8 5 -16l7 -7q6 -6 8 -7q25 -25 25 -52q0 -25 -16.5 -42.5 t-42.5 -17.5q-28 0 -44 17l-30 31q-1 0 -5 4zM229 0h150q11 0 20 -9l59 -60q14 -14 37 -14q20 0 34.5 14.5t14.5 35.5q0 22 -14 36l-19 19q-12 10 -12 27q0 19 12 29l19 19q14 14 14 36v435q0 21 -14 35l-82 82q-15 15 -36 15h-183q-22 0 -37 -15l-83 -82q-13 -16 -13 -35 v-435q0 -23 13 -36l83 -82q15 -15 37 -15zM436 145l-37 -36q-7 -9 -20 -9h-118q-13 0 -20 9l-37 36q-9 7 -9 21v368q0 14 9 21l37 37q8 8 20 8h118q12 0 20 -8l37 -37q9 -7 9 -21v-368q0 -14 -9 -21zM429 548l-2 2q-5 5 -13 5h-118q-5 0 -13 -5l-37 -37q-6 -7 -6 -14v-368 q0 -5 3 -10l5 -5q6 -6 13 -6h118q5 0 13 6l37 36q6 6 6 14v368q0 8 -6 14z" glyph-name="q" unicode="q"/><glyph d="M429 527l-24 25q-5 3 -12 3h-123q-12 0 -21 -8.5t-9 -20.5v-138h118q9 0 14 5l57 58q6 6 6 13v50q0 7 -6 13zM393 233h-123q-12 0 -21 -9t-9 -20v-190q0 -26 -17.5 -42.5t-42.5 -16.5q-19 0 -34 10.5t-21 27.5q-39 15 -39 56v602q0 25 17 42t42 17h246q26 0 44 -18 l35 -35l67 -67l35 -35q17 -17 17 -43v-116q0 -28 -36 -62q-2 -2 -6 -5.5t-6 -5.5q-5 -3 -9 -10q-9 -11 -9 -20q0 -8 5 -16q10 -10 15 -17q1 -2 5 -5t5 -4q9 -8 10.5 -9.5t8.5 -9.5t9.5 -12.5t5 -13t2.5 -16.5v-176q0 -25 -17 -42t-42 -17q-19 0 -34.5 11t-21.5 28 q-39 14 -39 55v142q0 7 -6 14l-22 22q-6 6 -14 6zM436 444l-57 -58q-8 -8 -21 -8h-123q-17 0 -28.5 11t-11.5 28v144q0 17 11.5 28t28.5 11h123q13 0 21 -8l57 -58q9 -8 9 -20v-50q0 -12 -9 -20zM235 278h123q14 0 21 -9l57 -57q9 -8 9 -21v-142q0 -20 14.5 -34.5 t35.5 -14.5q20 0 34.5 14.5t14.5 34.5v176q0 21 -14 35l-40 39q-12 13 -12 29t12 28l39 39q15 15 15 36v116q0 22 -14 36l-102 102q-16 15 -37 15h-246q-21 0 -35 -14.5t-14 -34.5v-602q0 -20 14 -34.5t35 -14.5t35.5 14.5t14.5 34.5v190q0 16 11.5 27.5t28.5 11.5z" glyph-name="r" unicode="r"/><glyph d="M414 555h-118q-5 0 -13 -5l-32 -32q-8 -10 -10 -15q-2 -6 -2 -22q1 -11 1 -50q0 -6 7 -13l5 -6q4 -3 9 -3h151q26 0 43 -17l32 -32l3 -3l82 -83q17 -17 17 -43v-134q0 -25 -17 -42l-82 -82q-16 -18 -43 -18h-184q-25 0 -43 18l-83 82l-3 3l-32 32q-15 15 -17 46 q0 8 0.5 22.5t0.5 19.5q0 24 17.5 41t41.5 17q43 0 57 -39q38 -13 38 -54v-12q0 -5 3 -10l5 -5q6 -6 13 -6h118q5 0 13 6q9 8 19.5 18t12.5 13q2 2 4 4.5t3 4t2 3.5t2 3q1 3 1 21q0 5 -0.5 21t-0.5 29q0 7 -6 13l-5 5q-7 4 -10 4h-151q-26 0 -43 17l-35 35l-48 48l-35 35 q-16 16 -16 43v135q0 26 16 42l83 82q18 18 43 18h184q25 0 43 -18l35 -35l47 -47l35 -35q16 -16 18 -45q1 -9 0 -23.5t-1 -18.5q0 -25 -16.5 -42.5t-42.5 -17.5q-42 0 -56 39q-39 14 -39 56v11q0 8 -6 14l-2 2q-5 5 -13 5zM445 534v-11q0 -21 14.5 -35.5t35.5 -14.5 q20 0 34.5 14.5t14.5 35.5v45q0 21 -14 35l-82 82q-15 15 -36 15h-184q-21 0 -36 -15l-83 -82q-13 -16 -13 -35v-135q0 -23 13 -36l83 -83q16 -14 36 -14h151q11 0 20 -9l37 -38q9 -8 9 -20v-67q0 -14 -9 -21l-37 -36q-7 -9 -20 -9h-118q-13 0 -20 9l-37 36q-9 7 -9 21v12 q0 20 -14.5 34t-35.5 14t-35 -14t-14 -34v-46q0 -19 13 -35l83 -82q15 -15 36 -15h184q21 0 36 15l82 82q14 14 14 35v134q0 22 -14 36l-82 83q-16 14 -36 14h-151q-11 0 -20 9l-37 38q-9 8 -9 20v68q0 14 9 21l37 37q8 8 20 8h118q12 0 20 -8l37 -37q9 -7 9 -21z" glyph-name="s" unicode="s"/><glyph d="M260 49v506h-80q-40 0 -55 38q-39 15 -39 58q0 25 17 42t42 17h350q41 0 55 -39q39 -14 39 -55q0 -25 -16.5 -43t-42.5 -18h-86q-12 0 -20.5 -8.5t-8.5 -20.5v-512q0 -26 -18 -42.5t-43 -16.5q-41 0 -55 39q-39 14 -39 55zM370 49v512q0 17 11 28t28 11h86q20 0 34.5 15 t14.5 36q0 20 -14.5 34.5t-34.5 14.5h-350q-21 0 -35 -14.5t-14 -34.5q0 -21 14 -36t35 -15h86q16 0 27.5 -11t11.5 -28v-512q0 -20 14.5 -34.5t34.5 -14.5q22 0 36.5 14.5t14.5 34.5z" glyph-name="t" unicode="t"/><glyph d="M550 671q39 -14 39 -55v-519q0 -25 -17 -42l-82 -82q-16 -18 -44 -18h-183q-25 0 -43 18l-83 82l-3 3l-32 32q-16 16 -16 42v519q0 25 17 42t42 17q42 0 57 -39q17 -6 27.5 -21t10.5 -34v-485q0 -5 3 -10l5 -5q6 -6 13 -6h118q5 0 13 6l37 36q6 6 6 14v485q0 25 17.5 42 t42.5 17q41 0 55 -39zM195 166v485q0 20 -14.5 34.5t-35.5 14.5t-35 -14.5t-14 -34.5v-519q0 -19 13 -35l83 -82q15 -15 36 -15h183q22 0 37 15l82 82q14 14 14 35v519q0 20 -14.5 34.5t-34.5 14.5q-21 0 -35.5 -14.5t-14.5 -34.5v-485q0 -14 -9 -21l-37 -36q-7 -9 -20 -9 h-118q-13 0 -20 9l-37 36q-9 7 -9 21z" glyph-name="u" unicode="u"/><glyph d="M589 616v-445q0 -25 -18 -43l-155 -156q-14 -15 -40 -17h-39q-26 0 -43 17l-191 191q-17 17 -17 43v445q0 25 17 42t42 17q42 0 57 -39q17 -6 27.5 -21t10.5 -34v-411q0 -8 6 -14l56 -57q8 -6 18 -6q12 0 21 9l88 89q6 8 6 14v411q0 25 17.5 42t42.5 17q41 0 55 -39 q39 -14 39 -55zM445 651v-411q0 -14 -9 -21l-88 -89q-10 -12 -28 -12t-28 12l-88 89q-9 7 -9 21v411q0 20 -14.5 34.5t-35.5 14.5t-35 -14.5t-14 -34.5v-445q0 -22 14 -36l156 -156q14 -14 36 -14h36q22 0 36 14l155 156q15 14 15 36v445q0 20 -14.5 34.5t-34.5 14.5 q-21 0 -35.5 -14.5t-14.5 -34.5z" glyph-name="v" unicode="v"/><glyph d="M589 616v-514q0 -25 -17 -42l-87 -88q-16 -17 -43 -17q-25 0 -42 17l-45 45l-45 -45q-17 -17 -42 -17q-26 0 -43 17l-123 123q-16 15 -16 42v514q0 25 17 42t42 17q42 0 57 -39q17 -6 27.5 -21t10.5 -34v-469q20 7 20 24v179q0 26 17.5 42.5t42.5 16.5q42 0 57 -39 q38 -13 38 -55v-168q20 7 20 24v480q0 25 17.5 42t42.5 17q41 0 55 -39q39 -14 39 -55zM445 651v-480q0 -14 -11.5 -24.5t-26.5 -10.5q-14 0 -25.5 10.5t-11.5 24.5v179q0 21 -14.5 35t-35.5 14t-35.5 -14t-14.5 -35v-179q0 -14 -11.5 -24.5t-25.5 -10.5q-15 0 -26.5 10.5 t-11.5 24.5v480q0 20 -14.5 34.5t-35.5 14.5t-35 -14.5t-14 -34.5v-514q0 -22 13 -35l88 -88q14 -14 36 -14q21 0 35 14l52 53l52 -53q14 -14 35 -14q22 0 36 14l87 88q14 14 14 35v514q0 20 -14.5 34.5t-34.5 14.5q-21 0 -35.5 -14.5t-14.5 -34.5z" glyph-name="w" unicode="w"/><glyph d="M589 616v-145q0 -25 -18 -43l-91 -92q-10 -11 -10 -21q0 -11 10 -21l91 -92q18 -18 18 -43v-145q0 -25 -17 -42t-42 -17q-19 0 -34.5 11t-21.5 28q-39 14 -39 55v112q0 7 -6 13l-53 53q-10 10 -22 10q-9 0 -20 -10l-88 -88q-6 -6 -6 -13v-112q0 -26 -17.5 -42.5 t-42.5 -16.5q-19 0 -34 10.5t-21 27.5q-39 15 -39 56v145q0 26 17 43l92 92q10 10 10 21t-10 21l-92 92q-17 17 -17 43v145q0 25 17 42t42 17q42 0 57 -39q17 -6 27.5 -21t10.5 -34v-112q0 -7 7 -13l54 -57q14 -6 18 -6q14 0 23 9l87 89q6 6 6 13v112q0 25 17.5 42t42.5 17 q41 0 55 -39q39 -14 39 -55zM445 651v-112q0 -14 -9 -20l-87 -89q-13 -12 -30 -12q-15 0 -28 12l-87 89q-9 6 -9 20v112q0 20 -14.5 34.5t-35.5 14.5t-35 -14.5t-14 -34.5v-145q0 -20 14 -36l92 -92q13 -13 13 -28t-13 -28l-92 -92q-14 -16 -14 -36v-145q0 -20 14 -34.5 t35 -14.5t35.5 14.5t14.5 34.5v112q0 14 9 20l88 88q13 13 27 13q16 0 29 -13l88 -88q9 -6 9 -20v-112q0 -20 14.5 -34.5t35.5 -14.5q20 0 34.5 14.5t14.5 34.5v145q0 21 -15 36l-91 92q-13 13 -13 28t13 28l91 92q15 15 15 36v145q0 20 -14.5 34.5t-34.5 14.5 q-21 0 -35.5 -14.5t-14.5 -34.5z" glyph-name="x" unicode="x"/><glyph d="M202 671q17 -6 27.5 -21t10.5 -34v-133q0 -8 6 -14l56 -57q7 -6 17 -6q13 0 22 9l88 89q6 8 6 14v133q0 25 17.5 42t42.5 17q41 0 55 -39q39 -14 39 -55v-167q0 -25 -18 -43l-150 -151q-6 -7 -6 -14v-227q0 -26 -18 -42.5t-43 -16.5q-41 0 -55 39q-39 14 -39 55v227 q0 6 -6 14l-151 151q-17 17 -17 43v167q0 25 17 42t42 17q42 0 57 -39zM110 448l151 -151q9 -7 9 -21v-227q0 -20 14.5 -34.5t34.5 -14.5q22 0 36.5 14.5t14.5 34.5v227q0 14 9 21l150 151q15 14 15 36v167q0 20 -14.5 34.5t-34.5 14.5q-21 0 -35.5 -14.5t-14.5 -34.5v-133 q0 -14 -9 -21l-88 -89q-10 -12 -29 -12q-17 0 -27 12l-88 89q-9 7 -9 21v133q0 20 -14.5 34.5t-35.5 14.5t-35 -14.5t-14 -34.5v-167q0 -22 14 -36z" glyph-name="y" unicode="y"/><glyph d="M435 555h-255q-40 0 -55 38q-39 15 -39 58q0 25 17 42t42 17h350q41 0 55 -39q39 -14 39 -55v-127q0 -25 -17 -42l-326 -326q-5 -8 -5 -11h254q40 0 55 -39q17 -6 28 -22t11 -35q0 -25 -17 -42t-42 -17h-350q-19 0 -34 10.5t-21 27.5q-39 15 -39 56v127q0 26 16 42 l327 326q4 4 6 11zM436 537l-327 -326q-13 -16 -13 -35v-127q0 -20 14 -34.5t35 -14.5h350q20 0 34.5 14.5t14.5 34.5q0 21 -14.5 36t-34.5 15h-260q-17 0 -28.5 11t-11.5 28v3q0 14 9 21l326 326q14 14 14 35v127q0 20 -14.5 34.5t-34.5 14.5h-350q-21 0 -35 -14.5 t-14 -34.5q0 -21 14 -36t35 -15h260q17 0 28.5 -11t11.5 -28v-3q0 -14 -9 -21z" glyph-name="z" unicode="z"/><glyph d="M335 305q13 -12 16 -15q32 -32 32 -59v-146q0 -7 6 -13l2 -2q6 -6 13 -6h32q41 0 56 -39q17 -6 27.5 -21t10.5 -34q0 -25 -16.5 -43t-42.5 -18h-65q-25 0 -43 18l-83 82l-3 3l-32 32q-16 16 -16 43v146q0 7 -6 13l-60 61q-17 17 -17 42q0 26 17 43l60 60q6 6 6 13v147 q0 27 16 43l83 82q17 17 43 17h65q41 0 56 -39q17 -6 27.5 -21t10.5 -34q0 -25 -16.5 -42.5t-42.5 -17.5h-32q-7 0 -13 -6l-37 -37q-6 -7 -6 -13v-147q0 -28 -32 -60q-9 -9 -20 -17q-2 -2 -3 -4l-1 -1q1 -3 8 -10zM324 302l-41 41q-3 3 -3 6t3 6l41 41q14 14 14 36v147 q0 13 9 20l37 37q6 9 20 9h32q20 0 34.5 14.5t14.5 35.5t-14.5 35t-34.5 14h-65q-20 0 -36 -14l-83 -82q-13 -16 -13 -36v-147q0 -11 -9 -20l-60 -60q-14 -14 -14 -36q0 -24 14 -35l60 -61q9 -8 9 -20v-146q0 -20 13 -36l83 -82q15 -15 36 -15h65q20 0 34.5 14.5t14.5 36.5 q0 21 -14.5 35t-34.5 14h-32q-12 0 -20 9l-37 37q-9 7 -9 20v146q0 22 -14 36z" glyph-name="braceleft" unicode="{"/><glyph d="M377 744q38 -15 38 -55v-748q0 -26 -18 -42.5t-43 -16.5q-41 0 -55 39q-39 14 -39 55v748q0 24 17.5 41.5t41.5 17.5q43 0 58 -39zM270 724v-748q0 -20 14.5 -34.5t34.5 -14.5q22 0 36.5 14.5t14.5 34.5v748q0 20 -14.5 34.5t-36.5 14.5q-20 0 -34.5 -14.5t-14.5 -34.5z " glyph-name="bar" unicode="|"/><glyph d="M348 347l1 1q-1 2 -3 5t-4 4q-10 8 -16 14q-33 33 -33 61v147q0 7 -6 13l-2 2q-6 6 -13 6h-32q-19 0 -34 10.5t-21 27.5q-39 15 -39 57q0 25 17 42t42 17h65q26 0 43 -17l35 -35l47 -47l35 -35q17 -17 17 -43v-147q0 -7 6 -13l25 -25l35 -35q17 -17 17 -43q0 -25 -17 -42 l-60 -61q-6 -8 -6 -13v-146q0 -27 -17 -43l-82 -82q-16 -18 -43 -18h-65q-40 0 -55 38q-39 15 -39 58q0 25 17 42t42 17h32q7 0 13 6l37 37q6 6 6 13v146q0 27 16 43q1 1 10 9.5t15 14.5zM358 343l-42 -41q-13 -13 -13 -36v-146q0 -13 -9 -20l-37 -37q-7 -9 -20 -9h-32 q-20 0 -34.5 -14t-14.5 -35q0 -22 14.5 -36.5t34.5 -14.5h65q21 0 36 15l82 82q14 14 14 36v146q0 13 9 20l60 61q14 11 14 35q0 22 -14 36l-60 60q-9 7 -9 20v147q0 22 -14 36l-82 82q-16 14 -36 14h-65q-20 0 -34.5 -14t-14.5 -35t14.5 -35.5t34.5 -14.5h32q13 0 20 -9 l37 -37q9 -7 9 -20v-147q0 -20 13 -36l42 -41q4 -4 4 -6t-4 -6z" glyph-name="braceright" unicode="}"/><glyph d="M259 329l-8 -8v-51q0 -26 -17.5 -43.5t-43.5 -17.5q-18 0 -32.5 11t-20.5 27q-18 7 -29 23t-11 35v79q0 21 16 37l47 48q16 16 38 16h78q24 0 40 -16q32 -30 36 -34q12 -12 16 -17q13 -13 20 -18q17 -19 19 -23q5 -10 7 -28v-16h1l9 10v53q0 25 17.5 43t42.5 18 q40 0 55 -39q17 -7 28 -22.5t11 -34.5v-79q0 -25 -14 -39l-49 -46q-20 -16 -38 -16h-79q-26 0 -41 16q-17 17 -35 33q-14 14 -16 17q-4 4 -10.5 10t-8.5 8q-15 15 -20 23q-6 13 -7 28q-1 3 -1 13zM206 360l15 16h33l15 -16v-43q0 -18 13 -31l47 -47q13 -13 34 -13h79 q20 0 31 14l49 46q11 11 11 31v79q0 20 -14.5 35.5t-34.5 15.5q-21 0 -35.5 -15t-14.5 -36v-57l-14 -16h-35l-16 16v45q0 19 -12 31l-48 47q-15 13 -33 13h-78q-16 0 -31 -13l-47 -48q-13 -13 -13 -30v-79q0 -21 14.5 -36t33.5 -15q21 0 36 15t15 36v55z" glyph-name="asciitilde" unicode="~"/><glyph d="M416 419v-405q0 -26 -18 -42.5t-43 -16.5q-41 0 -55 39q-39 14 -39 55v405q0 24 17.5 41.5t41.5 17.5q19 0 35 -11t23 -29q38 -13 38 -54zM396 671q17 -6 27.5 -21t10.5 -34v-40q0 -25 -17 -42t-42 -17h-39q-19 0 -34.5 11t-21.5 28q-39 14 -39 55v40q0 25 17.5 42 t42.5 17h39q41 0 56 -39zM340 700h-39q-21 0 -35.5 -14.5t-14.5 -34.5v-40q0 -20 14.5 -34.5t35.5 -14.5h39q21 0 35 14.5t14 34.5v40q0 20 -14 34.5t-35 14.5zM371 49v405q0 20 -15 34.5t-36 14.5q-20 0 -34.5 -14.5t-14.5 -34.5v-405q0 -20 14.5 -34.5t34.5 -14.5 q21 0 36 14.5t15 34.5z" glyph-name="exclamdown" unicode="¡"/><glyph d="M259 124v381l-13 -13q-6 -8 -6 -13v-328q0 -7 6 -13q1 -1 5 -5.5t8 -8.5zM261 -41q-11 4 -21 14l-103 102l-3 3l-32 32q-16 16 -16 43v394q0 27 16 43l103 102q20 18 54 18v14q0 24 17.5 41.5t41.5 17.5q43 0 58 -39q28 -12 35 -37q14 -5 23 -14l31 -32l2 -2t2 -1 l102 -103q18 -18 18 -43v-63q0 -25 -16.5 -42.5t-42.5 -17.5q-42 0 -56 39q-39 14 -39 56v30q0 7 -6 13l-15 15v-384l15 15q6 6 6 13v30q0 25 17.5 42.5t42.5 17.5q41 0 55 -39q17 -6 28 -21.5t11 -34.5v-63q0 -26 -18 -43l-102 -103q-11 -12 -27 -15q-10 -2 -14 -2h-14v-14 q0 -26 -18 -42.5t-43 -16.5q-41 0 -55 39q-26 9 -37 38zM369 710v14q0 20 -14.5 34.5t-36.5 14.5q-20 0 -34.5 -14.5t-14.5 -34.5v-14q0 -10 -10 -10h-11q-21 0 -36 -15l-103 -102q-13 -13 -13 -36v-394q0 -23 13 -36l103 -102q15 -15 36 -15h11q10 0 10 -10v-14 q0 -20 14.5 -34.5t34.5 -14.5q22 0 36.5 14.5t14.5 34.5v14q0 10 10 10h12q22 0 36 14l102 103q15 15 15 36v63q0 21 -14.5 35.5t-34.5 14.5q-21 0 -35.5 -14.5t-14.5 -35.5v-30q0 -12 -9 -20l-57 -57q-3 -4 -7 -4q-3 0 -3 5v480q0 5 3 5q4 0 7 -3l57 -58q9 -8 9 -20v-30 q0 -21 14.5 -35.5t35.5 -14.5q20 0 34.5 14.5t14.5 35.5v63q0 21 -15 36l-102 103q-14 14 -36 14h-12q-10 0 -10 10zM269 590v-480q0 -5 -2 -5q-3 0 -6 4l-57 57q-9 8 -9 20v328q0 12 9 20l57 58q3 3 6 3q2 0 2 -5z" glyph-name="cent" unicode="¢"/><glyph d="M176 110l-1 123q-37 5 -50 38q-39 15 -39 57q0 25 16.5 42.5t42.5 17.5h31l-1 180q0 25 17 42l83 82q18 18 42 18h95q25 0 43 -18l35 -35l47 -47l35 -35q16 -16 18 -45q1 -9 0 -23.5t-1 -18.5q0 -25 -16.5 -42.5t-42.5 -17.5q-42 0 -56 39q-39 14 -39 56v11q0 8 -7 15 q-4 4 -17 6h-25q-8 0 -14 -6l-34 -35q-8 -8 -8 -15v-111h120q42 0 56 -39q17 -7 28 -22t11 -34q0 -25 -17.5 -42.5t-42.5 -17.5h-155v-123h165q40 0 55 -39q17 -6 28 -22t11 -35q0 -25 -17 -42t-42 -17h-350q-19 0 -34 10.5t-21 27.5q-39 15 -39 56q0 25 16.5 43t42.5 18h31 zM445 534v-11q0 -21 14.5 -35.5t35.5 -14.5q20 0 34.5 14.5t14.5 35.5v45q0 21 -14 35l-82 82q-15 15 -36 15h-95q-20 0 -35 -15l-83 -82q-14 -14 -14 -35v-181q0 -9 -9 -9h-31q-21 0 -35 -14.5t-14 -35.5t14 -35.5t35 -14.5h31q9 0 9 -10v-159q0 -9 -9 -9h-31 q-21 0 -35 -15t-14 -36q0 -20 14 -34.5t35 -14.5h350q20 0 34.5 14.5t14.5 34.5q0 21 -14.5 36t-34.5 15h-200q-10 0 -10 9v159q0 10 10 10h155q20 0 35 14.5t15 35.5t-15 35.5t-35 14.5h-155q-10 0 -10 9v147q0 12 10 22l34 35q9 9 22 9h28q12 0 21 -9l35 -35q10 -7 10 -22 z" glyph-name="sterling" unicode="£"/><glyph d="M212 544h1q6 5 10 6q14 10 30 10h134q16 0 32 -10q6 -3 9 -6h1q1 0 2 1l2 2q37 45 70 45q41 0 55 -39q17 -6 28 -21.5t11 -34.5q0 -29 -27 -54l-20 -20v-1q16 -16 16 -40v-134q0 -19 -10 -33q-3 -6 -6 -9l2 -2q1 -2 2 -3q2 -2 7 -6.5t9 -8.5q27 -25 27 -53 q0 -25 -16.5 -42.5t-42.5 -17.5q-34 0 -71 45l-3 3q-3 -3 -9 -6q-16 -10 -33 -10h-134q-16 0 -30 10q-5 4 -9 5q-1 1 -2 1l-2 -2t-1 -2q-3 -2 -7.5 -8t-7.5 -9q-25 -27 -56 -27q-42 0 -55 38q-39 15 -39 57q0 27 27 54q4 4 9.5 9t7.5 7l3 3q-2 2 -3.5 4.5t-2.5 4.5 q-10 14 -10 33v134q0 24 17 41q-1 0 -2 1l-2 2q-2 3 -8 8t-9 8q-27 29 -27 55q0 25 16.5 42.5t42.5 17.5q33 0 71 -46h1q1 -1 1 -2h1zM134 451q-14 -14 -14 -34v-134q0 -21 14 -35q3 -3 3 -6t-3 -6l-31 -32q-14 -14 -14 -36q0 -21 14 -35.5t35 -14.5q23 0 37 14l31 32 q3 3 6 3q2 0 7 -3q22 -14 34 -14h134q16 0 35 14q5 4 7 4t6 -4l31 -32q14 -14 37 -14q20 0 34.5 14.5t14.5 35.5t-14 35l-31 32q-3 3 -3 7q0 3 3 6q14 14 14 35v134q0 17 -14 34q-3 5 -3 7q0 3 3 6l31 32q14 17 14 36q0 21 -14.5 35.5t-34.5 14.5q-23 0 -37 -14l-31 -32 q-1 -3 -6 -3q-3 0 -7 3q-17 14 -35 14h-134q-14 0 -31 -12q-7 -5 -10 -5t-6 3l-31 32q-14 14 -37 14q-21 0 -35 -14.5t-14 -35.5q0 -22 14 -36l31 -32q4 -3 4 -6t-4 -7zM421 384v-68q0 -14 -10 -21l-35 -36q-7 -10 -22 -10h-67q-15 0 -22 10l-35 36q-10 7 -10 21v68 q0 14 10 21l35 36q7 10 22 10h67q15 0 22 -10l35 -36q10 -7 10 -21zM404 398l-5 5q-5 3 -10 3h-67q-7 0 -14 -7l-35 -36q-8 -8 -8 -14v-68q0 -6 8 -14l4 -5q5 -3 10 -3h67q8 0 15 7l35 36q7 7 7 14v68q0 7 -7 14z" glyph-name="currency" unicode="¤"/><glyph d="M508 334q39 -14 39 -55q0 -23 -13.5 -40t-35.5 -21q9 -11 10 -18q17 -6 28 -21.5t11 -34.5q0 -25 -16.5 -42.5t-42.5 -17.5h-73v-70q0 -26 -18 -42.5t-43 -16.5q-41 0 -55 39q-39 14 -39 55v35h-39q-19 0 -34 10.5t-21 27.5q-39 15 -39 57q0 22 14 39t36 20q-8 11 -11 18 q-39 15 -39 58q0 24 17.5 41.5t41.5 17.5h67l-115 114l-2 2l-33 33q-17 16 -17 44v85q0 25 17 42t42 17q42 0 57 -39q17 -6 27.5 -21t10.5 -34v-52q0 -7 6 -13l56 -57q7 -6 17 -6q13 0 22 9l88 89q6 6 6 13v52q0 25 17.5 42t42.5 17q41 0 55 -39q39 -14 39 -55v-85 q0 -27 -18 -44l-113 -114q39 -5 50 -39zM267 368q0 -5 -7 -5h-74q-20 0 -34.5 -14.5t-14.5 -34.5q0 -22 14.5 -36.5t34.5 -14.5h74q10 0 10 -10v-14q0 -10 -10 -10h-74q-20 0 -34.5 -14.5t-14.5 -35.5t14.5 -35.5t34.5 -14.5h74q10 0 10 -10v-70q0 -20 14.5 -34.5 t34.5 -14.5q22 0 36.5 14.5t14.5 34.5v70q0 10 10 10h73q20 0 34.5 14.5t14.5 35.5t-14.5 35.5t-34.5 14.5h-73q-10 0 -10 10v14q0 10 10 10h73q20 0 34.5 14.5t14.5 36.5q0 20 -14.5 34.5t-34.5 14.5h-73q-7 0 -7 5q0 6 6 11l150 150q15 15 15 37v85q0 20 -14.5 34.5 t-34.5 14.5q-21 0 -35.5 -14.5t-14.5 -34.5v-52q0 -13 -9 -20l-88 -89q-10 -12 -29 -12q-17 0 -27 12l-88 89q-9 7 -9 20v52q0 20 -14.5 34.5t-35.5 14.5t-35 -14.5t-14 -34.5v-85q0 -20 14 -37l151 -150q6 -4 6 -11z" glyph-name="yen" unicode="¥"/><glyph d="M376 280q39 -15 39 -56v-283q0 -26 -18 -42.5t-43 -16.5q-41 0 -55 39q-39 14 -39 55v283q0 25 17 42.5t42 17.5q43 0 57 -39zM377 744q38 -15 38 -55v-283q0 -26 -17.5 -43t-43.5 -17q-19 0 -34 10.5t-21 27.5q-39 15 -39 57v283q0 24 17.5 41.5t41.5 17.5q43 0 58 -39z M270 724v-283q0 -21 14.5 -35.5t34.5 -14.5q22 0 36.5 14.5t14.5 35.5v283q0 20 -14.5 34.5t-36.5 14.5q-20 0 -34.5 -14.5t-14.5 -34.5zM270 259v-283q0 -20 14.5 -34.5t34.5 -14.5q22 0 36.5 14.5t14.5 34.5v283q0 21 -14.5 35.5t-36.5 14.5q-20 0 -34.5 -14.5 t-14.5 -35.5z" glyph-name="brokenbar" unicode="¦"/><glyph d="M429 374l-2 2q-6 6 -13 6h-118q-6 0 -13 -7l-37 -36q-6 -6 -6 -13v-23q0 -5 3 -10l5 -5q6 -6 13 -6h118q5 0 13 6l37 36q6 6 6 14v22q0 8 -6 14zM414 638h-118q-6 0 -13 -7l-37 -36q-4 -3 -6 -14v-23q0 -7 7 -13l5 -6q4 -3 9 -3h151q27 0 43 -16l32 -32l3 -3l82 -83 q17 -17 17 -43v-89q0 -27 -17 -44l-41 -38l6 -6l5 -5l30 -30q17 -17 17 -43v-90q0 -25 -17 -42l-82 -82q-16 -18 -43 -18h-184q-25 0 -43 18l-83 82l-3 3l-32 32q-15 15 -17 46q0 8 0.5 22.5t0.5 19.5q0 24 17.5 41t41.5 17q43 0 57 -39q38 -13 38 -54v-12q0 -6 3 -10l5 -5 q6 -6 13 -6h118q5 0 13 6l37 36q6 6 6 14v23q0 6 -6 13l-5 5q-7 4 -10 4h-151q-27 0 -43 16l-35 35l-48 48l-35 35q-16 16 -16 43v89q0 27 16 43l41 39l-6 6l-4 4l-31 31q-16 16 -16 43v91q0 26 16 42l83 82q18 18 43 18h184q25 0 43 -18l35 -35l47 -47l35 -35 q16 -16 18 -46q1 -9 0 -24t-1 -19q0 -25 -17 -42t-42 -17q-19 0 -34.5 11t-21.5 28q-39 14 -39 55v13q0 3 -2 9l-6 5q-6 7 -13 7zM445 617v-13q0 -20 14.5 -34.5t35.5 -14.5q20 0 34.5 14.5t14.5 34.5v47q0 21 -14 35l-82 82q-15 15 -36 15h-184q-21 0 -36 -15l-83 -82 q-13 -16 -13 -35v-91q0 -23 13 -36l49 -48l-49 -46q-13 -16 -13 -36v-89q0 -23 13 -36l83 -83q14 -13 36 -13h151q11 0 20 -9l37 -38q9 -7 9 -20v-23q0 -13 -9 -21l-37 -36q-7 -9 -20 -9h-118q-13 0 -20 9l-37 36q-9 8 -9 21v12q0 20 -14.5 34t-35.5 14t-35 -14t-14 -34v-46 q0 -19 13 -35l83 -82q15 -15 36 -15h184q21 0 36 15l82 82q14 14 14 35v90q0 22 -14 36l-49 48l49 46q14 14 14 36v89q0 22 -14 36l-82 83q-13 13 -36 13h-151q-11 0 -20 9l-37 38q-9 7 -9 20v24q0 13 9 21l37 36q7 9 20 9h118q13 0 20 -9l37 -36q9 -8 9 -21zM241 281 l-37 36q-9 7 -9 21v23q0 12 9 21l37 36q7 9 20 9h118q11 0 20 -9l37 -37q9 -7 9 -21v-22q0 -14 -9 -21l-37 -36q-7 -9 -20 -9h-118q-13 0 -20 9z" glyph-name="section" unicode="§"/><glyph d="M451 763h-20q-19 0 -34 10.5t-21 27.5q-32 12 -38 45v-4v-19q0 -25 -16.5 -42.5t-42.5 -17.5h-20q-42 0 -55 38q-39 15 -39 57v19q0 25 16.5 42.5t42.5 17.5h20q41 0 55 -39q31 -11 38 -44v4v19q0 25 17 42.5t42 17.5h20q41 0 55 -39q39 -13 39 -56v-19 q0 -25 -16.5 -42.5t-42.5 -17.5zM396 808h20q21 0 35 14.5t14 35.5v19q0 21 -14 35.5t-35 14.5h-20q-20 0 -34.5 -14.5t-14.5 -35.5v-19q0 -21 14.5 -35.5t34.5 -14.5zM224 808h20q20 0 34.5 14.5t14.5 35.5v19q0 21 -14.5 35.5t-34.5 14.5h-20q-21 0 -35 -14.5t-14 -35.5 v-19q0 -21 14 -35.5t35 -14.5z" glyph-name="dieresis" unicode="¨"/><glyph d="M228 166h52l-45 44l-4 4l-23 23v-51q0 -6 6 -14q6 -6 14 -6zM409 342l-2 4t-1 3q-1 1 -4 11q-23 4 -32 25q0 2 -2 6.5t-2 6.5h-1q-3 1 -19 1q-8 0 -14 -6l-7 -7q-7 -7 -8 -9q-8 -8 -8 -14v-94v-2h1h19q8 0 15 7l15 15q3 3 5 10q1 3 2.5 8.5t3.5 8.5q9 26 39 26zM396 500 l26 -26l18 -18l27 -27v51q0 5 -5 13q-10 7 -15 7h-51zM467 302v29q-11 -6 -22 -6q1 -1 2 -4t1 -4q3 -4 3 -11q9 0 16 -4zM589 472v-313q0 -19 -12 -29l-73 -73q-10 -13 -30 -13h-238q-19 0 -31 13l-31 31l-4 4l-72 73q-12 12 -12 29v313q0 17 12 29l72 74q11 12 31 12h238 q18 0 30 -12l32 -32l3 -3l73 -74q12 -12 12 -29zM467 199l-33 -33q-8 -10 -22 -10h-184q-14 0 -22 10l-33 33q-10 8 -10 22v259q0 14 10 22l33 33q8 10 22 10h184q12 0 22 -10l33 -33q10 -7 10 -22v-259q0 -14 -10 -22zM535 529l-73 74q-9 9 -23 9h-238q-15 0 -24 -9 l-72 -74q-9 -9 -9 -22v-313q0 -13 9 -22l72 -73q10 -10 24 -10h238q13 0 23 10l73 73q9 9 9 22v313q0 13 -9 22zM376 305q-3 -16 -10 -23l-15 -15q-7 -10 -22 -10h-18q-15 0 -22 10l-15 15q-10 7 -10 22v94q0 14 10 21l15 16q9 9 22 9h18q13 0 22 -9l15 -16q7 -4 10 -22 q2 -11 11.5 -19t21.5 -8q14 0 24 9.5t10 23.5v22q0 10 -10 24l-53 53q-9 9 -24 9h-72q-15 0 -25 -10l-52 -52q-10 -10 -10 -24v-148q0 -15 10 -25l53 -52q14 -10 24 -10h72q14 0 24 10l53 53q10 14 10 24v22q0 14 -10 23.5t-24 9.5q-12 0 -21.5 -8t-11.5 -19z" glyph-name="copyright" unicode="©"/><glyph d="M287 335q-10 -10 -10 -20q0 -9 6 -16l53 -52l5 -5l30 -30q16 -16 16 -43q0 -25 -16 -42.5t-42 -17.5q-27 0 -44 17l-35 35l-112 112l-35 35q-16 16 -16 42q0 27 16 43l148 148q16 16 41 16q19 0 35.5 -11t23.5 -29q28 -12 36 -38l62 62q16 16 41 16q44 0 59 -40 q39 -15 39 -55q0 -26 -17 -43l-86 -84q-10 -7 -10 -20q0 -9 6 -16l53 -52l5 -5l30 -30q16 -16 16 -43q0 -25 -16 -42.5t-42 -17.5q-27 0 -44 17l-32 32l-3 3l-146 147q-12 12 -15 27zM258 534l-148 -148q-13 -13 -13 -36q0 -22 13 -35l147 -147q14 -14 37 -14 q21 0 34.5 14.5t13.5 35.5q0 23 -13 36l-83 81q-14 14 -14 29t13 28l86 84q14 14 14 35t-16 35.5t-37 14.5t-34 -13zM456 534l-147 -148q-14 -12 -14 -36q0 -23 14 -35l146 -147q14 -14 37 -14q21 0 34.5 14.5t13.5 35.5q0 23 -13 36l-83 81q-14 14 -14 29t13 28l86 84 q14 14 14 35t-16 35.5t-37 14.5t-34 -13z" glyph-name="guillemotleft" unicode="«"/><glyph d="M228 166h1q-5 6 -6 15q-1 0 -3.5 1t-5.5 2l-6 2q0 -6 6 -14q6 -6 14 -6zM345 399h-36v-20h7q8 0 15 7q1 1 5.5 5t8.5 8zM351 257h-28q-5 0 -9.5 -4.5t-4.5 -9.5v-54q0 -13 -6 -23h104q0 2 -1 3q0 2 -1 5.5t-2 5.5q-25 3 -32 24q-4 8 -4 21q-1 7 -1 19q0 6 -4 10 q-1 0 -5 1.5t-6 1.5zM396 500l27 -27l17 -17l27 -27v51q0 5 -5 13q-10 7 -15 7h-51zM467 274v52l-3 -3q-1 -1 -3.5 -3t-4.5 -4q-6 -5 -6 -7q-5 -5 -5 -9q0 -2 5 -10q2 -3 6 -6l7 -7q1 -1 4 -3zM589 472v-313q0 -19 -12 -29l-73 -73q-10 -13 -30 -13h-238q-19 0 -31 13 l-31 31l-4 4l-72 73q-12 12 -12 29v313q0 17 12 29l72 74q11 12 31 12h238q18 0 30 -12l32 -32l3 -3l73 -74q12 -12 12 -29zM264 392v42q0 10 10 10h55q13 0 22 -9l15 -16q4 -4 4 -6q0 -4 -4 -7l-28 -27q-7 -10 -22 -10h-28q-10 0 -17 7t-7 16zM467 199l-33 -33 q-8 -10 -22 -10h-184q-14 0 -22 10l-33 33q-10 8 -10 22v259q0 14 10 22l33 33q8 10 22 10h184q12 0 22 -10l33 -33q10 -7 10 -22v-259q0 -14 -10 -22zM535 529l-73 74q-9 9 -23 9h-238q-15 0 -24 -9l-72 -74q-9 -9 -9 -22v-313q0 -13 9 -22l72 -73q10 -10 24 -10h238 q13 0 23 10l73 73q9 9 9 22v313q0 13 -9 22zM288 302h28q13 0 22 -9l28 -29q10 -7 10 -20v-20q0 -14 9.5 -24t23.5 -10t24 10t10 24v46q0 14 -10 24l-26 25q-7 7 -7 16t8 17l25 25q10 14 10 24v24q0 14 -10 24l-52 52q-10 10 -25 10h-125q-14 0 -24 -10t-10 -24v-253 q0 -14 10 -24t24 -10t23.5 10t9.5 24v54q0 10 7 17t17 7z" glyph-name="registered" unicode="®"/><glyph d="M448 763h-186q-42 0 -55 38q-39 15 -39 57q0 25 17 42.5t42 17.5h186q41 0 55 -39q17 -6 28 -21.5t11 -34.5q0 -25 -16.5 -42.5t-42.5 -17.5zM227 808h186q21 0 35 14.5t14 35.5t-14 35.5t-35 14.5h-186q-21 0 -35 -14.5t-14 -35.5t14 -35.5t35 -14.5z" glyph-name="macron" unicode="¯"/><glyph d="M359 566v2q-1 1 -4 1q-12 0 -25 -12.5t-13 -25.5v-3h3q14 0 26.5 12t12.5 26zM374 713l35 -36v1l77 -78q13 -13 13 -34v-72q0 -20 -13 -33l-60 -60q-14 -14 -35 -14h-71q-20 0 -34 14l-61 60l-4 4l-31 31q-14 12 -14 33v72q0 19 14 33l60 62q11 14 35 14h71q9 0 18 -3v6z M186 601v-72q0 -15 11 -26l61 -60q14 -11 27 -11h71q17 0 28 11l60 60q10 10 10 26v72q0 17 -10 27l-60 61v-1q-9 12 -28 12h-71q-17 0 -28 -11l-60 -62q-11 -14 -11 -26zM282 592l13 12q10 10 25 10q16 0 26 -10l13 -12q10 -10 10 -26t-10 -26l-13 -13q-10 -9 -26 -9 q-14 0 -25 9l-13 13q-10 10 -10 26t10 26z" glyph-name="degree" unicode="°"/><glyph d="M531 71q39 -13 39 -56q0 -25 -16.5 -42.5t-42.5 -17.5h-310q-42 0 -56 39q-39 14 -39 56q0 25 17.5 42.5t42.5 17.5h310q41 0 55 -39zM489 254h-44q-22 0 -27 -23q-2 -5 -2 -25v-26q0 -26 -18 -42.5t-43 -16.5q-19 0 -34 10.5t-21 27.5q-39 15 -39 56v39h-39 q-42 0 -55 38q-39 15 -39 57q0 25 17 42t42 17h45q12 0 20.5 9t8.5 21v44q0 25 17 42t42 17q43 0 58 -39q38 -13 38 -55v-26v-13h38q41 0 56 -39q17 -6 27.5 -21t10.5 -34q0 -25 -16.5 -42.5t-42.5 -17.5zM454 398h-44q-17 0 -28 11.5t-11 28.5v44q0 21 -14.5 35t-36.5 14 q-20 0 -34.5 -14t-14.5 -35v-44q0 -17 -11.5 -28.5t-27.5 -11.5h-45q-20 0 -34.5 -14t-14.5 -35t14 -35.5t35 -14.5h45q16 0 27.5 -11.5t11.5 -28.5v-44q0 -21 14.5 -35t34.5 -14q22 0 36.5 14t14.5 35v44q0 17 11 28.5t28 11.5h44q20 0 34.5 14.5t14.5 35.5t-14.5 35 t-34.5 14zM476 100h-310q-21 0 -35.5 -14.5t-14.5 -35.5t14.5 -35.5t35.5 -14.5h310q21 0 35 14.5t14 35.5t-14 35.5t-35 14.5z" glyph-name="plusminus" unicode="±"/><glyph d="M416 949q39 -15 39 -55q0 -26 -17 -43l-79 -81q-15 -16 -44 -16q-43 0 -56 39q-39 14 -39 55q0 24 18 42l79 81q16 17 43 17q19 0 34.5 -11t21.5 -28zM316 812l79 81q15 15 15 36q0 20 -15 34.5t-35 14.5q-22 0 -36 -14l-79 -81q-15 -15 -15 -35q0 -21 14.5 -35t35.5 -14 q23 0 36 13z" glyph-name="acute" unicode="´"/><glyph d="M435 49v506h-5v-541q0 -25 -17 -42t-42 -17q-19 0 -34.5 11t-21.5 28q-39 14 -39 55v184h-10q-11 0 -15 1q-17 3 -31 17l-35 35l-48 48l-35 35q-16 15 -16 42v157q0 26 16 42l83 82q18 18 43 18h267q41 0 55 -39q39 -14 39 -55v-602q0 -25 -17 -42t-42 -17 q-19 0 -34.5 11t-21.5 28q-39 14 -39 55zM445 591v-542q0 -20 14.5 -34.5t35.5 -14.5q20 0 34.5 14.5t14.5 34.5v602q0 20 -14.5 34.5t-34.5 14.5h-267q-21 0 -36 -15l-83 -82q-13 -16 -13 -35v-157q0 -22 13 -35l83 -83q15 -15 36 -15h18q15 0 27.5 -12t12.5 -27v-190 q0 -20 15 -34.5t35 -14.5q21 0 35 14.5t14 34.5v542q0 9 10 9h40q10 0 10 -9z" glyph-name="paragraph" unicode="¶"/><glyph d="M380 231h-49q-19 0 -34 10.5t-21 27.5q-39 15 -39 56v50q0 25 17 42t42 17h49q41 0 56 -39q17 -6 27.5 -21t10.5 -34v-50q0 -25 -17 -42t-42 -17zM296 276h49q21 0 35 14.5t14 34.5v50q0 20 -14 34.5t-35 14.5h-49q-21 0 -35 -14.5t-14 -34.5v-50q0 -20 14 -34.5 t35 -14.5z" glyph-name="periodcentered" unicode="·"/><glyph d="M366 55q36 -9 36 -46v-55q0 -7 7 -14l59 -60q12 -12 12 -29v-60q0 -20 -12 -31l-52 -51q-13 -13 -31 -13h-60q-19 0 -31 13q-7 7 -11 10l-13 13q-2 2 -2 4l-3 3l-2 1l-4 4l-11 11q-7 6 -13 13q-16 18 -16 36q0 20 14 33t33 13q20 0 37 -15l5 -5l2 -1q2 -1 2 -2q6 -2 8 -2 q9 0 20 10.5t11 19.5q0 7 -4 11q-21 20 -24 25q-2 2 -2 3q-1 0 -3 2q-1 2 -3 2q-25 25 -28 29q-14 19 -14 36v81q0 20 13.5 33.5t33.5 13.5q37 0 46 -36zM283 44v-81q0 -18 12 -30l56 -56q10 -7 10 -22t-10 -22l-9 -8q-7 -10 -22 -10q-14 0 -21 10l-6 6q-9 9 -27 9 q-15 0 -26 -10.5t-11 -25.5q0 -16 11 -27l26 -26q10 -10 24 -10h60q14 0 24 10l52 51q9 9 9 24v60q0 11 -9 22l-59 60q-10 8 -10 21v55q0 16 -10.5 26.5t-26.5 10.5q-15 0 -26 -10.5t-11 -26.5z" glyph-name="cedilla" unicode="¸"/><glyph d="M571 273l-146 -147q-17 -17 -44 -17q-41 0 -54 38q-31 10 -37 42l-64 -63q-16 -17 -43 -17q-41 0 -54 38q-39 13 -39 57q0 28 15 43l84 81q11 11 11 22q0 7 -5 15l-57 54q-2 1 -3 3l-2 4l-30 29q-16 16 -16 42q0 25 19 42.5t44 17.5q24 0 40 -16l35 -35l113 -113l35 -35 q11 -12 16 -28q9 9 9 20q0 9 -6 16l-55 53q-1 1 -2 3t-3 3l-30 30q-17 17 -17 42t19 42.5t44 17.5t41 -16l32 -33q1 0 3 -2l147 -148q17 -17 17 -43q0 -25 -17 -42zM529 386l-147 148q-13 13 -34 13t-37 -14.5t-16 -35.5t14 -35l86 -84q13 -13 13 -28t-14 -29l-83 -81 q-13 -13 -13 -36q0 -21 13.5 -35.5t34.5 -14.5q23 0 37 14l146 147q14 12 14 35q0 24 -14 36zM331 386l-148 148q-12 13 -33 13t-37 -14.5t-16 -35.5q0 -19 13 -35l87 -84q13 -13 13 -28t-14 -29l-84 -81q-12 -14 -12 -36q0 -21 13.5 -35.5t34.5 -14.5q25 0 36 14l147 147 q14 12 14 35q0 24 -14 36z" glyph-name="guillemotright" unicode="»"/><glyph d="M377 474q38 -15 38 -55v-83q0 -27 -17 -43l-152 -152q-6 -7 -6 -13l2 -6l6 -6q6 -6 13 -6h118q5 0 13 6l37 36q6 6 6 14v12q0 25 17.5 42t42.5 17q41 0 55 -39q39 -14 39 -55v-46q0 -25 -17 -42l-82 -82q-16 -18 -43 -18h-184q-27 0 -43 18l-35 35l-48 48l-35 35 q-16 16 -16 41v64q0 27 16 43l152 152q6 6 6 13v50q0 24 17.5 41.5t41.5 17.5q43 0 58 -39zM396 671q17 -6 27.5 -21t10.5 -34v-40q0 -25 -17 -42t-42 -17h-39q-19 0 -34.5 11t-21.5 28q-39 14 -39 55v40q0 25 17.5 42t42.5 17h39q41 0 56 -39zM96 196v-64q0 -20 13 -34 l83 -83q15 -15 36 -15h184q21 0 36 15l82 82q14 14 14 35v46q0 20 -14.5 34.5t-34.5 14.5q-21 0 -35.5 -14.5t-14.5 -34.5v-12q0 -14 -9 -21l-37 -36q-7 -9 -20 -9h-118q-13 0 -20 9l-39 38q-7 7 -7 16q0 13 9 20l152 152q14 14 14 36v83q0 20 -14.5 34.5t-36.5 14.5 q-20 0 -34.5 -14.5t-14.5 -34.5v-50q0 -14 -9 -20l-152 -152q-13 -13 -13 -36zM340 700h-39q-21 0 -35.5 -14.5t-14.5 -34.5v-40q0 -20 14.5 -34.5t35.5 -14.5h39q21 0 35 14.5t14 34.5v40q0 20 -14 34.5t-35 14.5z" glyph-name="questiondown" unicode="¿"/><glyph d="M429 527l-24 25q-5 3 -12 3h-76q-9 0 -14 -5l-57 -58q-6 -8 -6 -13v-91h165q13 0 21.5 8.5t8.5 20.5v97q0 7 -6 13zM589 512v-498q0 -25 -17 -42t-42 -17q-19 0 -34.5 11t-21.5 28q-39 14 -39 55v184h-165q-12 0 -21 -9t-9 -20v-190q0 -26 -17.5 -42.5t-42.5 -16.5 q-19 0 -34 10.5t-21 27.5q-39 15 -39 56v498q0 27 16 43l104 102q18 18 42 18h143q26 0 43 -17l32 -32l3 -3l102 -103q18 -18 18 -43zM544 49v498q0 21 -15 36l-102 103q-14 14 -36 14h-143q-20 0 -35 -15l-104 -102q-13 -13 -13 -36v-498q0 -20 14 -34.5t35 -14.5 t35.5 14.5t14.5 34.5v190q0 16 11.5 27.5t28.5 11.5h170q17 0 28.5 -11.5t11.5 -27.5v-190q0 -20 14.5 -34.5t35.5 -14.5q20 0 34.5 14.5t14.5 34.5zM445 514v-97q0 -17 -11.5 -28t-28.5 -11h-170q-17 0 -28.5 11t-11.5 28v97q0 12 9 20l57 58q8 8 21 8h76q13 0 21 -8 l57 -58q9 -8 9 -20zM323 971l30 -30q1 -1 3 -2t3 -3l79 -81q17 -19 17 -42q0 -26 -17.5 -42.5t-42.5 -16.5q-27 0 -43 16l-31 31l-4 4l-80 81q-17 17 -17 43q0 25 17 42t42 17q27 0 44 -17zM244 893l80 -81q13 -13 36 -13q21 0 35.5 14t14.5 35q0 20 -15 35l-79 81 q-14 14 -37 14q-21 0 -35 -14.5t-14 -34.5q0 -22 14 -36z" glyph-name="Agrave" unicode="À"/><glyph d="M429 527l-24 25q-5 3 -12 3h-76q-9 0 -14 -5l-57 -58q-6 -8 -6 -13v-91h165q13 0 21.5 8.5t8.5 20.5v97q0 7 -6 13zM589 512v-498q0 -25 -17 -42t-42 -17q-19 0 -34.5 11t-21.5 28q-39 14 -39 55v184h-165q-12 0 -21 -9t-9 -20v-190q0 -26 -17.5 -42.5t-42.5 -16.5 q-19 0 -34 10.5t-21 27.5q-39 15 -39 56v498q0 27 16 43l104 102q18 18 42 18h143q26 0 43 -17l32 -32l3 -3l102 -103q18 -18 18 -43zM544 49v498q0 21 -15 36l-102 103q-14 14 -36 14h-143q-20 0 -35 -15l-104 -102q-13 -13 -13 -36v-498q0 -20 14 -34.5t35 -14.5 t35.5 14.5t14.5 34.5v190q0 16 11.5 27.5t28.5 11.5h170q17 0 28.5 -11.5t11.5 -27.5v-190q0 -20 14.5 -34.5t35.5 -14.5q20 0 34.5 14.5t14.5 34.5zM445 514v-97q0 -17 -11.5 -28t-28.5 -11h-170q-17 0 -28.5 11t-11.5 28v97q0 12 9 20l57 58q8 8 21 8h76q13 0 21 -8 l57 -58q9 -8 9 -20zM416 949q39 -15 39 -55q0 -26 -17 -43l-79 -81q-15 -16 -44 -16q-43 0 -56 39q-39 14 -39 55q0 24 18 42l79 81q16 17 43 17q19 0 34.5 -11t21.5 -28zM316 812l79 81q15 15 15 36q0 20 -15 34.5t-35 14.5q-22 0 -36 -14l-79 -81q-15 -15 -15 -35 q0 -21 14.5 -35t35.5 -14q23 0 36 13z" glyph-name="Aacute" unicode="Á"/><glyph d="M429 527l-24 25q-5 3 -12 3h-76q-9 0 -14 -5l-57 -58q-6 -8 -6 -13v-91h165q13 0 21.5 8.5t8.5 20.5v97q0 7 -6 13zM589 512v-498q0 -25 -17 -42t-42 -17q-19 0 -34.5 11t-21.5 28q-39 14 -39 55v184h-165q-12 0 -21 -9t-9 -20v-190q0 -26 -17.5 -42.5t-42.5 -16.5 q-19 0 -34 10.5t-21 27.5q-39 15 -39 56v498q0 27 16 43l104 102q18 18 42 18h143q26 0 43 -17l32 -32l3 -3l102 -103q18 -18 18 -43zM544 49v498q0 21 -15 36l-102 103q-14 14 -36 14h-143q-20 0 -35 -15l-104 -102q-13 -13 -13 -36v-498q0 -20 14 -34.5t35 -14.5 t35.5 14.5t14.5 34.5v190q0 16 11.5 27.5t28.5 11.5h170q17 0 28.5 -11.5t11.5 -27.5v-190q0 -20 14.5 -34.5t35.5 -14.5q20 0 34.5 14.5t14.5 34.5zM445 514v-97q0 -17 -11.5 -28t-28.5 -11h-170q-17 0 -28.5 11t-11.5 28v97q0 12 9 20l57 58q8 8 21 8h76q13 0 21 -8 l57 -58q9 -8 9 -20zM451 881l4 -4l31 -31q14 -14 14 -39q0 -24 -14.5 -38.5t-38.5 -14.5q-30 0 -58 32q-1 2 -4 5.5t-5 5.5t-3 2q-2 2 -6 5.5t-6 4.5q-4 3 -10 3t-16 -7q-5 -3 -9 -9q-7 -7 -9 -10q-28 -32 -57 -32q-18 0 -33 10.5t-20 27.5q-37 12 -37 50q0 23 16 39l92 91 q16 16 38 16q23 0 39 -16zM260 810l37 37q10 10 23 10t24 -11l36 -36q10 -11 32 -11q43 0 43 43q0 22 -11 32l-92 91q-13 13 -32 13q-18 0 -31 -13l-92 -91q-13 -12 -13 -32q0 -19 13 -31t32 -12q18 0 31 11z" glyph-name="Acircumflex" unicode="Â"/><glyph d="M429 527l-24 25q-5 3 -12 3h-76q-9 0 -14 -5l-57 -58q-6 -8 -6 -13v-91h165q13 0 21.5 8.5t8.5 20.5v97q0 7 -6 13zM589 512v-498q0 -25 -17 -42t-42 -17q-19 0 -34.5 11t-21.5 28q-39 14 -39 55v184h-165q-12 0 -21 -9t-9 -20v-190q0 -26 -17.5 -42.5t-42.5 -16.5 q-19 0 -34 10.5t-21 27.5q-39 15 -39 56v498q0 27 16 43l104 102q18 18 42 18h143q26 0 43 -17l32 -32l3 -3l102 -103q18 -18 18 -43zM544 49v498q0 21 -15 36l-102 103q-14 14 -36 14h-143q-20 0 -35 -15l-104 -102q-13 -13 -13 -36v-498q0 -20 14 -34.5t35 -14.5 t35.5 14.5t14.5 34.5v190q0 16 11.5 27.5t28.5 11.5h170q17 0 28.5 -11.5t11.5 -27.5v-190q0 -20 14.5 -34.5t35.5 -14.5q20 0 34.5 14.5t14.5 34.5zM445 514v-97q0 -17 -11.5 -28t-28.5 -11h-170q-17 0 -28.5 11t-11.5 28v97q0 12 9 20l57 58q8 8 21 8h76q13 0 21 -8 l57 -58q9 -8 9 -20zM320 802l-33 33v-5q0 -23 -15 -38t-38 -15q-36 0 -48 37q-38 12 -38 51v49q0 19 14 33l39 40q14 14 34 14h49q21 0 35 -14l28 -29q1 -2 4 -3t4 -3l32 -35v8q0 21 16 36t37 15q17 0 30.5 -10.5t18.5 -26.5q16 -5 26.5 -18.5t10.5 -30.5v-50q0 -21 -13 -33 l-40 -40q-11 -13 -34 -13h-49q-22 0 -35 13l-31 31zM242 894l11 13h12l13 -13v-19q0 -16 10 -26l39 -40q11 -10 28 -10h49q17 0 27 10l40 40q10 10 10 26v50q0 17 -12 29t-29 12q-18 0 -30.5 -12t-12.5 -29v-31l-12 -12h-11l-13 12v20q0 15 -10 25l-39 41q-11 11 -28 11h-49 q-16 0 -27 -11l-39 -40q-11 -11 -11 -26v-49q0 -18 12 -30.5t29 -12.5q18 0 30.5 12.5t12.5 30.5v29z" glyph-name="Atilde" unicode="Ã"/><glyph d="M429 527l-24 25q-5 3 -12 3h-76q-9 0 -14 -5l-57 -58q-6 -8 -6 -13v-91h165q13 0 21.5 8.5t8.5 20.5v97q0 7 -6 13zM589 512v-498q0 -25 -17 -42t-42 -17q-19 0 -34.5 11t-21.5 28q-39 14 -39 55v184h-165q-12 0 -21 -9t-9 -20v-190q0 -26 -17.5 -42.5t-42.5 -16.5 q-19 0 -34 10.5t-21 27.5q-39 15 -39 56v498q0 27 16 43l104 102q18 18 42 18h143q26 0 43 -17l32 -32l3 -3l102 -103q18 -18 18 -43zM544 49v498q0 21 -15 36l-102 103q-14 14 -36 14h-143q-20 0 -35 -15l-104 -102q-13 -13 -13 -36v-498q0 -20 14 -34.5t35 -14.5 t35.5 14.5t14.5 34.5v190q0 16 11.5 27.5t28.5 11.5h170q17 0 28.5 -11.5t11.5 -27.5v-190q0 -20 14.5 -34.5t35.5 -14.5q20 0 34.5 14.5t14.5 34.5zM445 514v-97q0 -17 -11.5 -28t-28.5 -11h-170q-17 0 -28.5 11t-11.5 28v97q0 12 9 20l57 58q8 8 21 8h76q13 0 21 -8 l57 -58q9 -8 9 -20zM451 763h-20q-19 0 -34 10.5t-21 27.5q-32 12 -38 45v-4v-19q0 -25 -16.5 -42.5t-42.5 -17.5h-20q-42 0 -55 38q-39 15 -39 57v19q0 25 16.5 42.5t42.5 17.5h20q41 0 55 -39q31 -11 38 -44v4v19q0 25 17 42.5t42 17.5h20q41 0 55 -39q39 -13 39 -56v-19 q0 -25 -16.5 -42.5t-42.5 -17.5zM396 808h20q21 0 35 14.5t14 35.5v19q0 21 -14 35.5t-35 14.5h-20q-20 0 -34.5 -14.5t-14.5 -35.5v-19q0 -21 14.5 -35.5t34.5 -14.5zM224 808h20q20 0 34.5 14.5t14.5 35.5v19q0 21 -14.5 35.5t-34.5 14.5h-20q-21 0 -35 -14.5t-14 -35.5 v-19q0 -21 14 -35.5t35 -14.5z" glyph-name="Adieresis" unicode="Ä"/><glyph d="M429 527l-24 25q-5 3 -12 3h-76q-9 0 -14 -5l-57 -58q-6 -8 -6 -13v-91h165q13 0 21.5 8.5t8.5 20.5v97q0 7 -6 13zM589 512v-498q0 -25 -17 -42t-42 -17q-19 0 -34.5 11t-21.5 28q-39 14 -39 55v184h-165q-12 0 -21 -9t-9 -20v-190q0 -26 -17.5 -42.5t-42.5 -16.5 q-19 0 -34 10.5t-21 27.5q-39 15 -39 56v498q0 27 16 43l104 102q18 18 42 18h143q26 0 43 -17l32 -32l3 -3l102 -103q18 -18 18 -43zM544 49v498q0 21 -15 36l-102 103q-14 14 -36 14h-143q-20 0 -35 -15l-104 -102q-13 -13 -13 -36v-498q0 -20 14 -34.5t35 -14.5 t35.5 14.5t14.5 34.5v190q0 16 11.5 27.5t28.5 11.5h170q17 0 28.5 -11.5t11.5 -27.5v-190q0 -20 14.5 -34.5t35.5 -14.5q20 0 34.5 14.5t14.5 34.5zM445 514v-97q0 -17 -11.5 -28t-28.5 -11h-170q-17 0 -28.5 11t-11.5 28v97q0 12 9 20l57 58q8 8 21 8h76q13 0 21 -8 l57 -58q9 -8 9 -20zM349 867q-16 -5 -23 -22q15 7 23 22zM381 986l31 -32q1 -1 4 -3l51 -52q12 -12 12 -31v-60q0 -20 -12 -31l-51 -51q-11 -12 -32 -12h-59q-19 0 -31 12l-35 35l-17 17l-35 35q-12 12 -12 30v60q0 20 12 31l52 52q12 12 31 12h59q20 0 32 -12zM205 903v-60 q0 -12 9 -23l52 -52q10 -9 24 -9h59q16 0 25 9l51 51q9 11 9 24v60q0 13 -9 24l-51 52q-9 9 -25 9h-59q-14 0 -24 -9l-52 -52q-9 -9 -9 -24zM288 894l11 11q8 9 20 9q13 0 21 -9l11 -11q9 -8 9 -21q0 -12 -9 -20l-11 -11q-8 -9 -21 -9t-20 9l-11 11q-9 8 -9 20q0 13 9 21z " glyph-name="Aring" unicode="Å"/><glyph d="M260 388v137l-33 -32q-6 -7 -6 -14v-91h39zM221 204v-190q0 -26 -18 -42.5t-43 -16.5q-41 0 -55 39q-39 14 -39 55v498q0 26 17 43l103 102q18 18 43 18h286q41 0 55 -39q39 -14 39 -55q0 -25 -16.5 -43t-42.5 -18h-106q-12 0 -20.5 -8.5t-8.5 -20.5v-117h80q41 0 56 -39 q17 -6 27.5 -21t10.5 -34q0 -25 -16.5 -42.5t-42.5 -17.5h-86q-12 0 -20.5 -9t-8.5 -21v-115h100q40 0 55 -39q17 -6 28 -22t11 -35q0 -25 -17 -42t-42 -17h-196q-41 0 -55 39q-39 14 -39 55v184h-10q-12 0 -20.5 -8.5t-8.5 -20.5zM270 592v-205q0 -9 -10 -9h-45 q-17 0 -28 11t-11 28v97q0 14 9 21l57 57q6 8 18 8q10 0 10 -8zM270 268v-219q0 -20 14.5 -34.5t34.5 -14.5h196q20 0 34.5 14.5t14.5 34.5q0 21 -14.5 36t-34.5 15h-106q-17 0 -28 11t-11 28v121q0 17 11 28.5t28 11.5h86q20 0 34.5 14.5t14.5 35.5t-14.5 35t-34.5 14h-86 q-17 0 -28 12t-11 29v121q0 17 11 28t28 11h106q20 0 34.5 15t14.5 36q0 20 -14.5 34.5t-34.5 14.5h-286q-21 0 -36 -15l-103 -102q-14 -14 -14 -36v-498q0 -20 14.5 -34.5t34.5 -14.5q21 0 36 14.5t15 34.5v190q0 16 11 27.5t28 11.5h45q10 0 10 -10z" glyph-name="AE" unicode="Æ"/><glyph d="M241 479v-328q0 -7 6 -13l22 -22q6 -6 14 -6h76q8 0 14 6l57 57q6 6 6 13v30q0 25 17.5 42.5t42.5 17.5q41 0 55 -39q17 -6 28 -21.5t11 -34.5v-63q0 -26 -18 -43l-102 -103q-14 -15 -39 -17q-9 -1 -28 -1q0 -7 7 -14l59 -60q12 -12 12 -29v-60q0 -20 -12 -31l-52 -51 q-13 -13 -31 -13h-60q-19 0 -31 13q-7 7 -11 10l-13 13q-1 2 -3 4q0 2 -2 3l-2 1l-4 4l-11 11q-7 6 -13 13q-16 18 -16 36q0 20 14 33t33 13q22 0 37 -15l5 -5q1 0 2 -1l2 -2q6 -2 8 -2q9 0 20 10.5t11 19.5q0 7 -4 11q-21 20 -24 25q-2 2 -2 3q-2 0 -3 2t-3 2 q-25 25 -28 29q-12 13 -13 29q-23 6 -34 17l-103 102l-3 3l-32 32q-16 16 -16 43v394q0 27 16 43l103 102q18 18 43 18h143q26 0 43 -17l32 -32l3 -3l102 -103q18 -18 18 -43v-63q0 -25 -16.5 -42.5t-42.5 -17.5q-42 0 -56 39q-39 14 -39 56v30q0 7 -6 13l-24 25q-4 3 -12 3 h-76q-9 0 -14 -5l-57 -58q-6 -8 -6 -13zM196 186v328q0 12 9 20l57 58q8 8 21 8h76q13 0 21 -8l57 -58q9 -8 9 -20v-30q0 -21 14.5 -35.5t35.5 -14.5q20 0 34.5 14.5t14.5 35.5v63q0 21 -15 36l-102 103q-14 14 -36 14h-143q-21 0 -36 -15l-103 -102q-13 -13 -13 -36v-394 q0 -23 13 -36l103 -102q15 -15 36 -15h35v-37q0 -18 12 -30l56 -56q10 -7 10 -22t-10 -22l-9 -8q-7 -10 -22 -10q-14 0 -21 10l-6 6q-9 9 -27 9q-15 0 -26 -10.5t-11 -25.5q0 -16 11 -27l26 -26q10 -10 24 -10h60q14 0 24 10l52 51q9 9 9 24v60q0 11 -9 22l-59 60 q-10 8 -10 21v11h34q22 0 36 14l102 103q15 15 15 36v63q0 21 -14.5 35.5t-34.5 14.5q-21 0 -35.5 -14.5t-14.5 -35.5v-30q0 -12 -9 -20l-57 -57q-8 -9 -21 -9h-76q-13 0 -21 9l-57 57q-9 8 -9 20z" glyph-name="Ccedilla" unicode="Ç"/><glyph d="M550 671q39 -14 39 -55q0 -25 -16.5 -43t-42.5 -18h-260q-12 0 -21 -8.5t-9 -20.5v-117h188q42 0 57 -39q17 -6 27.5 -21t10.5 -34q0 -25 -17.5 -42.5t-42.5 -17.5h-193q-12 0 -21 -9.5t-9 -21.5v-114h255q40 0 55 -39q17 -6 28 -22t11 -35q0 -25 -17 -42t-42 -17h-350 q-19 0 -34 10.5t-21 27.5q-39 15 -39 56v602q0 25 17 42t42 17h350q41 0 55 -39zM96 651v-602q0 -20 14 -34.5t35 -14.5h350q20 0 34.5 14.5t14.5 34.5q0 21 -14.5 36t-34.5 15h-260q-17 0 -28.5 11t-11.5 28v120q0 17 11.5 29t28.5 12h193q20 0 35 14.5t15 35.5t-14.5 35 t-35.5 14h-193q-17 0 -28.5 12t-11.5 29v121q0 17 11.5 28t28.5 11h260q20 0 34.5 15t14.5 36q0 20 -14.5 34.5t-34.5 14.5h-350q-21 0 -35 -14.5t-14 -34.5zM323 971l30 -30q1 -1 3 -2t3 -3l79 -81q17 -19 17 -42q0 -26 -17.5 -42.5t-42.5 -16.5q-27 0 -43 16l-31 31l-4 4 l-80 81q-17 17 -17 43q0 25 17 42t42 17q27 0 44 -17zM244 893l80 -81q13 -13 36 -13q21 0 35.5 14t14.5 35q0 20 -15 35l-79 81q-14 14 -37 14q-21 0 -35 -14.5t-14 -34.5q0 -22 14 -36z" glyph-name="Egrave" unicode="È"/><glyph d="M550 671q39 -14 39 -55q0 -25 -16.5 -43t-42.5 -18h-260q-12 0 -21 -8.5t-9 -20.5v-117h188q42 0 57 -39q17 -6 27.5 -21t10.5 -34q0 -25 -17.5 -42.5t-42.5 -17.5h-193q-12 0 -21 -9.5t-9 -21.5v-114h255q40 0 55 -39q17 -6 28 -22t11 -35q0 -25 -17 -42t-42 -17h-350 q-19 0 -34 10.5t-21 27.5q-39 15 -39 56v602q0 25 17 42t42 17h350q41 0 55 -39zM96 651v-602q0 -20 14 -34.5t35 -14.5h350q20 0 34.5 14.5t14.5 34.5q0 21 -14.5 36t-34.5 15h-260q-17 0 -28.5 11t-11.5 28v120q0 17 11.5 29t28.5 12h193q20 0 35 14.5t15 35.5t-14.5 35 t-35.5 14h-193q-17 0 -28.5 12t-11.5 29v121q0 17 11.5 28t28.5 11h260q20 0 34.5 15t14.5 36q0 20 -14.5 34.5t-34.5 14.5h-350q-21 0 -35 -14.5t-14 -34.5zM416 949q39 -15 39 -55q0 -26 -17 -43l-79 -81q-15 -16 -44 -16q-43 0 -56 39q-39 14 -39 55q0 24 18 42l79 81 q16 17 43 17q19 0 34.5 -11t21.5 -28zM316 812l79 81q15 15 15 36q0 20 -15 34.5t-35 14.5q-22 0 -36 -14l-79 -81q-15 -15 -15 -35q0 -21 14.5 -35t35.5 -14q23 0 36 13z" glyph-name="Eacute" unicode="É"/><glyph d="M550 671q39 -14 39 -55q0 -25 -16.5 -43t-42.5 -18h-260q-12 0 -21 -8.5t-9 -20.5v-117h188q42 0 57 -39q17 -6 27.5 -21t10.5 -34q0 -25 -17.5 -42.5t-42.5 -17.5h-193q-12 0 -21 -9.5t-9 -21.5v-114h255q40 0 55 -39q17 -6 28 -22t11 -35q0 -25 -17 -42t-42 -17h-350 q-19 0 -34 10.5t-21 27.5q-39 15 -39 56v602q0 25 17 42t42 17h350q41 0 55 -39zM96 651v-602q0 -20 14 -34.5t35 -14.5h350q20 0 34.5 14.5t14.5 34.5q0 21 -14.5 36t-34.5 15h-260q-17 0 -28.5 11t-11.5 28v120q0 17 11.5 29t28.5 12h193q20 0 35 14.5t15 35.5t-14.5 35 t-35.5 14h-193q-17 0 -28.5 12t-11.5 29v121q0 17 11.5 28t28.5 11h260q20 0 34.5 15t14.5 36q0 20 -14.5 34.5t-34.5 14.5h-350q-21 0 -35 -14.5t-14 -34.5zM451 881l4 -4l31 -31q14 -14 14 -39q0 -24 -14.5 -38.5t-38.5 -14.5q-30 0 -58 32q-1 2 -4 5.5t-5 5.5t-3 2 q-2 2 -6 5.5t-6 4.5q-4 3 -10 3t-16 -7q-5 -3 -9 -9q-7 -7 -9 -10q-28 -32 -57 -32q-18 0 -33 10.5t-20 27.5q-37 12 -37 50q0 23 16 39l92 91q16 16 38 16q23 0 39 -16zM260 810l37 37q10 10 23 10t24 -11l36 -36q10 -11 32 -11q43 0 43 43q0 22 -11 32l-92 91 q-13 13 -32 13q-18 0 -31 -13l-92 -91q-13 -12 -13 -32q0 -19 13 -31t32 -12q18 0 31 11z" glyph-name="Ecircumflex" unicode="Ê"/><glyph d="M550 671q39 -14 39 -55q0 -25 -16.5 -43t-42.5 -18h-260q-12 0 -21 -8.5t-9 -20.5v-117h188q42 0 57 -39q17 -6 27.5 -21t10.5 -34q0 -25 -17.5 -42.5t-42.5 -17.5h-193q-12 0 -21 -9.5t-9 -21.5v-114h255q40 0 55 -39q17 -6 28 -22t11 -35q0 -25 -17 -42t-42 -17h-350 q-19 0 -34 10.5t-21 27.5q-39 15 -39 56v602q0 25 17 42t42 17h350q41 0 55 -39zM96 651v-602q0 -20 14 -34.5t35 -14.5h350q20 0 34.5 14.5t14.5 34.5q0 21 -14.5 36t-34.5 15h-260q-17 0 -28.5 11t-11.5 28v120q0 17 11.5 29t28.5 12h193q20 0 35 14.5t15 35.5t-14.5 35 t-35.5 14h-193q-17 0 -28.5 12t-11.5 29v121q0 17 11.5 28t28.5 11h260q20 0 34.5 15t14.5 36q0 20 -14.5 34.5t-34.5 14.5h-350q-21 0 -35 -14.5t-14 -34.5zM451 763h-20q-19 0 -34 10.5t-21 27.5q-32 12 -38 45v-4v-19q0 -25 -16.5 -42.5t-42.5 -17.5h-20q-42 0 -55 38 q-39 15 -39 57v19q0 25 16.5 42.5t42.5 17.5h20q41 0 55 -39q31 -11 38 -44v4v19q0 25 17 42.5t42 17.5h20q41 0 55 -39q39 -13 39 -56v-19q0 -25 -16.5 -42.5t-42.5 -17.5zM396 808h20q21 0 35 14.5t14 35.5v19q0 21 -14 35.5t-35 14.5h-20q-20 0 -34.5 -14.5t-14.5 -35.5 v-19q0 -21 14.5 -35.5t34.5 -14.5zM224 808h20q20 0 34.5 14.5t14.5 35.5v19q0 21 -14.5 35.5t-34.5 14.5h-20q-21 0 -35 -14.5t-14 -35.5v-19q0 -21 14 -35.5t35 -14.5z" glyph-name="Edieresis" unicode="Ë"/><glyph d="M486 -45h-262q-41 0 -55 39q-39 14 -39 55q0 25 16.5 43t42.5 18h25q20 0 25 2q21 5 21 27v416h-10h-26q-41 0 -54 38q-18 7 -29 23t-11 35q0 24 17.5 41.5t41.5 17.5h262q41 0 55 -39q39 -14 39 -55q0 -25 -16.5 -43t-42.5 -18h-25q-19 0 -24 -2q-22 -5 -22 -27v-416h10 h26q40 0 55 -39q17 -6 28 -22t11 -35q0 -25 -17 -42t-42 -17zM189 0h262q20 0 34.5 14.5t14.5 34.5q0 21 -14.5 36t-34.5 15h-42q-17 0 -28 11t-11 28v422q0 17 11 28t28 11h42q20 0 34.5 15t14.5 36q0 20 -14.5 34.5t-34.5 14.5h-262q-20 0 -34.5 -14.5t-14.5 -34.5 q0 -21 14.5 -36t34.5 -15h42q16 0 27.5 -11t11.5 -28v-422q0 -17 -11.5 -28t-27.5 -11h-42q-20 0 -34.5 -15t-14.5 -36q0 -20 14.5 -34.5t34.5 -14.5zM323 971l30 -30q1 -1 3 -2t3 -3l79 -81q17 -19 17 -42q0 -26 -17.5 -42.5t-42.5 -16.5q-27 0 -43 16l-31 31l-4 4l-80 81 q-17 17 -17 43q0 25 17 42t42 17q27 0 44 -17zM244 893l80 -81q13 -13 36 -13q21 0 35.5 14t14.5 35q0 20 -15 35l-79 81q-14 14 -37 14q-21 0 -35 -14.5t-14 -34.5q0 -22 14 -36z" glyph-name="Igrave" unicode="Ì"/><glyph d="M486 -45h-262q-41 0 -55 39q-39 14 -39 55q0 25 16.5 43t42.5 18h25q20 0 25 2q21 5 21 27v416h-10h-26q-41 0 -54 38q-18 7 -29 23t-11 35q0 24 17.5 41.5t41.5 17.5h262q41 0 55 -39q39 -14 39 -55q0 -25 -16.5 -43t-42.5 -18h-25q-19 0 -24 -2q-22 -5 -22 -27v-416h10 h26q40 0 55 -39q17 -6 28 -22t11 -35q0 -25 -17 -42t-42 -17zM189 0h262q20 0 34.5 14.5t14.5 34.5q0 21 -14.5 36t-34.5 15h-42q-17 0 -28 11t-11 28v422q0 17 11 28t28 11h42q20 0 34.5 15t14.5 36q0 20 -14.5 34.5t-34.5 14.5h-262q-20 0 -34.5 -14.5t-14.5 -34.5 q0 -21 14.5 -36t34.5 -15h42q16 0 27.5 -11t11.5 -28v-422q0 -17 -11.5 -28t-27.5 -11h-42q-20 0 -34.5 -15t-14.5 -36q0 -20 14.5 -34.5t34.5 -14.5zM416 949q39 -15 39 -55q0 -26 -17 -43l-79 -81q-15 -16 -44 -16q-43 0 -56 39q-39 14 -39 55q0 24 18 42l79 81 q16 17 43 17q19 0 34.5 -11t21.5 -28zM316 812l79 81q15 15 15 36q0 20 -15 34.5t-35 14.5q-22 0 -36 -14l-79 -81q-15 -15 -15 -35q0 -21 14.5 -35t35.5 -14q23 0 36 13z" glyph-name="Iacute" unicode="Í"/><glyph d="M486 -45h-262q-41 0 -55 39q-39 14 -39 55q0 25 16.5 43t42.5 18h25q20 0 25 2q21 5 21 27v416h-10h-26q-41 0 -54 38q-18 7 -29 23t-11 35q0 24 17.5 41.5t41.5 17.5h262q41 0 55 -39q39 -14 39 -55q0 -25 -16.5 -43t-42.5 -18h-25q-19 0 -24 -2q-22 -5 -22 -27v-416h10 h26q40 0 55 -39q17 -6 28 -22t11 -35q0 -25 -17 -42t-42 -17zM189 0h262q20 0 34.5 14.5t14.5 34.5q0 21 -14.5 36t-34.5 15h-42q-17 0 -28 11t-11 28v422q0 17 11 28t28 11h42q20 0 34.5 15t14.5 36q0 20 -14.5 34.5t-34.5 14.5h-262q-20 0 -34.5 -14.5t-14.5 -34.5 q0 -21 14.5 -36t34.5 -15h42q16 0 27.5 -11t11.5 -28v-422q0 -17 -11.5 -28t-27.5 -11h-42q-20 0 -34.5 -15t-14.5 -36q0 -20 14.5 -34.5t34.5 -14.5zM451 881l4 -4l31 -31q14 -14 14 -39q0 -24 -14.5 -38.5t-38.5 -14.5q-30 0 -58 32q-1 2 -4 5.5t-5 5.5t-3 2q-2 2 -6 5.5 t-6 4.5q-4 3 -10 3t-16 -7q-5 -3 -9 -9q-7 -7 -9 -10q-28 -32 -57 -32q-18 0 -33 10.5t-20 27.5q-37 12 -37 50q0 23 16 39l92 91q16 16 38 16q23 0 39 -16zM260 810l37 37q10 10 23 10t24 -11l36 -36q10 -11 32 -11q43 0 43 43q0 22 -11 32l-92 91q-13 13 -32 13 q-18 0 -31 -13l-92 -91q-13 -12 -13 -32q0 -19 13 -31t32 -12q18 0 31 11z" glyph-name="Icircumflex" unicode="Î"/><glyph d="M486 -45h-262q-41 0 -55 39q-39 14 -39 55q0 25 16.5 43t42.5 18h25q20 0 25 2q21 5 21 27v416h-10h-26q-41 0 -54 38q-18 7 -29 23t-11 35q0 24 17.5 41.5t41.5 17.5h262q41 0 55 -39q39 -14 39 -55q0 -25 -16.5 -43t-42.5 -18h-25q-19 0 -24 -2q-22 -5 -22 -27v-416h10 h26q40 0 55 -39q17 -6 28 -22t11 -35q0 -25 -17 -42t-42 -17zM189 0h262q20 0 34.5 14.5t14.5 34.5q0 21 -14.5 36t-34.5 15h-42q-17 0 -28 11t-11 28v422q0 17 11 28t28 11h42q20 0 34.5 15t14.5 36q0 20 -14.5 34.5t-34.5 14.5h-262q-20 0 -34.5 -14.5t-14.5 -34.5 q0 -21 14.5 -36t34.5 -15h42q16 0 27.5 -11t11.5 -28v-422q0 -17 -11.5 -28t-27.5 -11h-42q-20 0 -34.5 -15t-14.5 -36q0 -20 14.5 -34.5t34.5 -14.5zM451 763h-20q-19 0 -34 10.5t-21 27.5q-32 12 -38 45v-4v-19q0 -25 -16.5 -42.5t-42.5 -17.5h-20q-42 0 -55 38 q-39 15 -39 57v19q0 25 16.5 42.5t42.5 17.5h20q41 0 55 -39q31 -11 38 -44v4v19q0 25 17 42.5t42 17.5h20q41 0 55 -39q39 -13 39 -56v-19q0 -25 -16.5 -42.5t-42.5 -17.5zM396 808h20q21 0 35 14.5t14 35.5v19q0 21 -14 35.5t-35 14.5h-20q-20 0 -34.5 -14.5t-14.5 -35.5 v-19q0 -21 14.5 -35.5t34.5 -14.5zM224 808h20q20 0 34.5 14.5t14.5 35.5v19q0 21 -14.5 35.5t-34.5 14.5h-20q-21 0 -35 -14.5t-14 -35.5v-19q0 -21 14 -35.5t35 -14.5z" glyph-name="Idieresis" unicode="Ï"/><glyph d="M435 186v116q-12 -46 -58 -46h-137v-146h118q6 0 14 6l57 57q6 6 6 13zM429 527l-24 25q-5 3 -12 3h-123q-12 0 -21 -8.5t-9 -20.5v-116h102q42 0 56 -39q31 -10 37 -42v185q0 7 -6 13zM434 693l32 -32l3 -3l102 -103q18 -18 18 -43v-394q0 -26 -18 -43l-102 -103 q-16 -17 -43 -17h-246q-19 0 -34 10.5t-21 27.5q-39 15 -39 56v213q-25 12 -31 34q-38 12 -38 55q0 31 20 45t49 14v241q0 25 17 42t42 17h246q26 0 43 -17zM96 651v-241q0 -10 -10 -10h-10q-21 0 -35 -14t-14 -35q0 -22 14 -36t35 -14h10q10 0 10 -10v-242q0 -20 14 -34.5 t35 -14.5h246q22 0 36 14l102 103q15 15 15 36v394q0 21 -15 36l-102 103q-14 14 -36 14h-246q-21 0 -35 -14.5t-14 -34.5zM195 139v152q0 10 10 10h137q21 0 35 14t14 36q0 21 -14 35t-35 14h-137q-10 0 -10 10v151q0 17 11.5 28t28.5 11h123q13 0 21 -8l57 -58q9 -8 9 -20 v-328q0 -12 -9 -20l-57 -57q-7 -9 -21 -9h-123q-17 0 -28.5 11t-11.5 28z" glyph-name="Eth" unicode="Ð"/><glyph d="M550 671q39 -14 39 -55v-602q0 -25 -17 -42t-42 -17q-34 0 -51 30l-6 9q-18 6 -30 26l-203 348v-354q0 -26 -17.5 -42.5t-42.5 -16.5q-19 0 -34 10.5t-21 27.5q-39 15 -39 56v602q0 25 17 42t42 17q35 0 52 -30l5 -9q20 -8 30 -26l203 -348v354q0 25 17.5 42t42.5 17 q41 0 55 -39zM438 247l-250 428q-13 25 -43 25q-21 0 -35 -14.5t-14 -34.5v-602q0 -20 14 -34.5t35 -14.5t35.5 14.5t14.5 34.5v403q0 7 2 7q3 0 5 -5l250 -429q12 -25 43 -25q20 0 34.5 14.5t14.5 34.5v602q0 20 -14.5 34.5t-34.5 14.5q-21 0 -35.5 -14.5t-14.5 -34.5v-402 q0 -7 -2 -7t-5 5zM320 802l-33 33v-5q0 -23 -15 -38t-38 -15q-36 0 -48 37q-38 12 -38 51v49q0 19 14 33l39 40q14 14 34 14h49q21 0 35 -14l28 -29q1 -2 4 -3t4 -3l32 -35v8q0 21 16 36t37 15q17 0 30.5 -10.5t18.5 -26.5q16 -5 26.5 -18.5t10.5 -30.5v-50q0 -21 -13 -33 l-40 -40q-11 -13 -34 -13h-49q-22 0 -35 13l-31 31zM242 894l11 13h12l13 -13v-19q0 -16 10 -26l39 -40q11 -10 28 -10h49q17 0 27 10l40 40q10 10 10 26v50q0 17 -12 29t-29 12q-18 0 -30.5 -12t-12.5 -29v-31l-12 -12h-11l-13 12v20q0 15 -10 25l-39 41q-11 11 -28 11h-49 q-16 0 -27 -11l-39 -40q-11 -11 -11 -26v-49q0 -18 12 -30.5t29 -12.5q18 0 30.5 12.5t12.5 30.5v29z" glyph-name="Ntilde" unicode="Ñ"/><glyph d="M429 548l-2 2q-5 5 -13 5h-118q-5 0 -13 -5l-37 -37q-6 -7 -6 -14v-368q0 -5 3 -10l5 -5q6 -6 13 -6h118q5 0 13 6l37 36q6 6 6 14v368q0 8 -6 14zM589 533v-436q0 -25 -17 -42l-82 -82q-16 -18 -44 -18h-183q-25 0 -43 18l-83 82l-3 3l-32 32q-16 16 -16 42v436 q0 26 16 42l83 82q18 18 43 18h183q26 0 44 -18l35 -35l47 -47l35 -35q17 -17 17 -42zM530 603l-82 82q-15 15 -37 15h-183q-21 0 -36 -15l-83 -82q-13 -16 -13 -35v-436q0 -19 13 -35l83 -82q15 -15 36 -15h183q22 0 37 15l82 82q14 14 14 35v436q0 21 -14 35zM436 145 l-37 -36q-7 -9 -20 -9h-118q-13 0 -20 9l-37 36q-9 7 -9 21v368q0 14 9 21l37 37q8 8 20 8h118q12 0 20 -8l37 -37q9 -7 9 -21v-368q0 -14 -9 -21zM323 971l30 -30q1 -1 3 -2t3 -3l79 -81q17 -19 17 -42q0 -26 -17.5 -42.5t-42.5 -16.5q-27 0 -43 16l-31 31l-4 4l-80 81 q-17 17 -17 43q0 25 17 42t42 17q27 0 44 -17zM244 893l80 -81q13 -13 36 -13q21 0 35.5 14t14.5 35q0 20 -15 35l-79 81q-14 14 -37 14q-21 0 -35 -14.5t-14 -34.5q0 -22 14 -36z" glyph-name="Ograve" unicode="Ò"/><glyph d="M429 548l-2 2q-5 5 -13 5h-118q-5 0 -13 -5l-37 -37q-6 -7 -6 -14v-368q0 -5 3 -10l5 -5q6 -6 13 -6h118q5 0 13 6l37 36q6 6 6 14v368q0 8 -6 14zM589 533v-436q0 -25 -17 -42l-82 -82q-16 -18 -44 -18h-183q-25 0 -43 18l-83 82l-3 3l-32 32q-16 16 -16 42v436 q0 26 16 42l83 82q18 18 43 18h183q26 0 44 -18l35 -35l47 -47l35 -35q17 -17 17 -42zM530 603l-82 82q-15 15 -37 15h-183q-21 0 -36 -15l-83 -82q-13 -16 -13 -35v-436q0 -19 13 -35l83 -82q15 -15 36 -15h183q22 0 37 15l82 82q14 14 14 35v436q0 21 -14 35zM436 145 l-37 -36q-7 -9 -20 -9h-118q-13 0 -20 9l-37 36q-9 7 -9 21v368q0 14 9 21l37 37q8 8 20 8h118q12 0 20 -8l37 -37q9 -7 9 -21v-368q0 -14 -9 -21zM416 949q39 -15 39 -55q0 -26 -17 -43l-79 -81q-15 -16 -44 -16q-43 0 -56 39q-39 14 -39 55q0 24 18 42l79 81q16 17 43 17 q19 0 34.5 -11t21.5 -28zM316 812l79 81q15 15 15 36q0 20 -15 34.5t-35 14.5q-22 0 -36 -14l-79 -81q-15 -15 -15 -35q0 -21 14.5 -35t35.5 -14q23 0 36 13z" glyph-name="Oacute" unicode="Ó"/><glyph d="M429 548l-2 2q-5 5 -13 5h-118q-5 0 -13 -5l-37 -37q-6 -7 -6 -14v-368q0 -5 3 -10l5 -5q6 -6 13 -6h118q5 0 13 6l37 36q6 6 6 14v368q0 8 -6 14zM589 533v-436q0 -25 -17 -42l-82 -82q-16 -18 -44 -18h-183q-25 0 -43 18l-83 82l-3 3l-32 32q-16 16 -16 42v436 q0 26 16 42l83 82q18 18 43 18h183q26 0 44 -18l35 -35l47 -47l35 -35q17 -17 17 -42zM530 603l-82 82q-15 15 -37 15h-183q-21 0 -36 -15l-83 -82q-13 -16 -13 -35v-436q0 -19 13 -35l83 -82q15 -15 36 -15h183q22 0 37 15l82 82q14 14 14 35v436q0 21 -14 35zM436 145 l-37 -36q-7 -9 -20 -9h-118q-13 0 -20 9l-37 36q-9 7 -9 21v368q0 14 9 21l37 37q8 8 20 8h118q12 0 20 -8l37 -37q9 -7 9 -21v-368q0 -14 -9 -21zM451 881l4 -4l31 -31q14 -14 14 -39q0 -24 -14.5 -38.5t-38.5 -14.5q-30 0 -58 32q-1 2 -4 5.5t-5 5.5t-3 2q-2 2 -6 5.5 t-6 4.5q-4 3 -10 3t-16 -7q-5 -3 -9 -9q-7 -7 -9 -10q-28 -32 -57 -32q-18 0 -33 10.5t-20 27.5q-37 12 -37 50q0 23 16 39l92 91q16 16 38 16q23 0 39 -16zM260 810l37 37q10 10 23 10t24 -11l36 -36q10 -11 32 -11q43 0 43 43q0 22 -11 32l-92 91q-13 13 -32 13 q-18 0 -31 -13l-92 -91q-13 -12 -13 -32q0 -19 13 -31t32 -12q18 0 31 11z" glyph-name="Ocircumflex" unicode="Ô"/><glyph d="M429 548l-2 2q-5 5 -13 5h-118q-5 0 -13 -5l-37 -37q-6 -7 -6 -14v-368q0 -5 3 -10l5 -5q6 -6 13 -6h118q5 0 13 6l37 36q6 6 6 14v368q0 8 -6 14zM589 533v-436q0 -25 -17 -42l-82 -82q-16 -18 -44 -18h-183q-25 0 -43 18l-83 82l-3 3l-32 32q-16 16 -16 42v436 q0 26 16 42l83 82q18 18 43 18h183q26 0 44 -18l35 -35l47 -47l35 -35q17 -17 17 -42zM530 603l-82 82q-15 15 -37 15h-183q-21 0 -36 -15l-83 -82q-13 -16 -13 -35v-436q0 -19 13 -35l83 -82q15 -15 36 -15h183q22 0 37 15l82 82q14 14 14 35v436q0 21 -14 35zM436 145 l-37 -36q-7 -9 -20 -9h-118q-13 0 -20 9l-37 36q-9 7 -9 21v368q0 14 9 21l37 37q8 8 20 8h118q12 0 20 -8l37 -37q9 -7 9 -21v-368q0 -14 -9 -21zM320 802l-33 33v-5q0 -23 -15 -38t-38 -15q-36 0 -48 37q-38 12 -38 51v49q0 19 14 33l39 40q14 14 34 14h49q21 0 35 -14 l28 -29q1 -2 4 -3t4 -3l32 -35v8q0 21 16 36t37 15q17 0 30.5 -10.5t18.5 -26.5q16 -5 26.5 -18.5t10.5 -30.5v-50q0 -21 -13 -33l-40 -40q-11 -13 -34 -13h-49q-22 0 -35 13l-31 31zM242 894l11 13h12l13 -13v-19q0 -16 10 -26l39 -40q11 -10 28 -10h49q17 0 27 10l40 40 q10 10 10 26v50q0 17 -12 29t-29 12q-18 0 -30.5 -12t-12.5 -29v-31l-12 -12h-11l-13 12v20q0 15 -10 25l-39 41q-11 11 -28 11h-49q-16 0 -27 -11l-39 -40q-11 -11 -11 -26v-49q0 -18 12 -30.5t29 -12.5q18 0 30.5 12.5t12.5 30.5v29z" glyph-name="Otilde" unicode="Õ"/><glyph d="M429 548l-2 2q-5 5 -13 5h-118q-5 0 -13 -5l-37 -37q-6 -7 -6 -14v-368q0 -5 3 -10l5 -5q6 -6 13 -6h118q5 0 13 6l37 36q6 6 6 14v368q0 8 -6 14zM589 533v-436q0 -25 -17 -42l-82 -82q-16 -18 -44 -18h-183q-25 0 -43 18l-83 82l-3 3l-32 32q-16 16 -16 42v436 q0 26 16 42l83 82q18 18 43 18h183q26 0 44 -18l35 -35l47 -47l35 -35q17 -17 17 -42zM530 603l-82 82q-15 15 -37 15h-183q-21 0 -36 -15l-83 -82q-13 -16 -13 -35v-436q0 -19 13 -35l83 -82q15 -15 36 -15h183q22 0 37 15l82 82q14 14 14 35v436q0 21 -14 35zM436 145 l-37 -36q-7 -9 -20 -9h-118q-13 0 -20 9l-37 36q-9 7 -9 21v368q0 14 9 21l37 37q8 8 20 8h118q12 0 20 -8l37 -37q9 -7 9 -21v-368q0 -14 -9 -21zM451 763h-20q-19 0 -34 10.5t-21 27.5q-32 12 -38 45v-4v-19q0 -25 -16.5 -42.5t-42.5 -17.5h-20q-42 0 -55 38 q-39 15 -39 57v19q0 25 16.5 42.5t42.5 17.5h20q41 0 55 -39q31 -11 38 -44v4v19q0 25 17 42.5t42 17.5h20q41 0 55 -39q39 -13 39 -56v-19q0 -25 -16.5 -42.5t-42.5 -17.5zM396 808h20q21 0 35 14.5t14 35.5v19q0 21 -14 35.5t-35 14.5h-20q-20 0 -34.5 -14.5t-14.5 -35.5 v-19q0 -21 14.5 -35.5t34.5 -14.5zM224 808h20q20 0 34.5 14.5t14.5 35.5v19q0 21 -14.5 35.5t-34.5 14.5h-20q-21 0 -35 -14.5t-14 -35.5v-19q0 -21 14 -35.5t35 -14.5z" glyph-name="Odieresis" unicode="Ö"/><glyph d="M489 123q-28 0 -44 17l-35 35l-34 34q-10 10 -20 10q-9 0 -20 -10l-70 -70q-17 -17 -43 -17q-41 0 -55 39q-17 7 -28.5 22.5t-11.5 34.5q0 24 17 41l70 70q10 10 10 21t-10 21l-35 35l-35 35q-17 17 -17 41t18 42.5t42 18.5q26 0 43 -17l35 -35l35 -35q9 -9 20 -9t20 9 l70 70q17 17 43 17q19 0 34 -11t22 -28q17 -7 28 -22.5t11 -33.5q0 -26 -18 -42l-69 -70q-9 -10 -9 -21q0 -12 9 -21l34 -34l35 -35q18 -18 18 -43q0 -24 -18 -41.5t-42 -17.5zM489 253l-69 69q-12 12 -12 28t12 28l69 70q15 12 15 35q0 20 -15 35t-35 15q-19 0 -36 -14 l-70 -70q-12 -12 -27 -12t-27 12l-70 70q-17 14 -36 14q-20 0 -35 -15t-15 -36q0 -23 14 -34l70 -70q13 -13 13 -28t-13 -28l-70 -70q-14 -12 -14 -34q0 -20 15 -35.5t35 -15.5q19 0 36 14l70 70q13 13 27 13q17 0 27 -13l69 -69q17 -14 37 -14q19 0 34.5 14.5t15.5 34.5v1 q0 21 -15 35z" glyph-name="multiply" unicode="×"/><glyph d="M436 166v142l-189 -186q-1 0 -1 -1t-1 -2l3 -3q6 -6 14 -6h117q7 0 14 6l36 35q7 7 7 15zM431 546q-2 2 -3 2q-4 7 -14 7h-117q-7 0 -14 -7l-36 -35q-7 -7 -7 -14v-143l189 187q2 2 2 3zM618 612q17 -6 27.5 -21t10.5 -34q0 -30 -36 -64q-3 -2 -12 -11q-3 -2 -10 -9 q-8 -11 -8 -17v-358q0 -26 -18 -43l-82 -82q-16 -18 -43 -18h-183q-25 0 -43 18l-31 31l-4 4q-1 0 -2.5 1.5t-3.5 4t-3 3.5q-8 8 -12 11q-1 1 -3 2q-1 1 -2 3q-2 -1 -4 -3l-4 -4q-14 -12 -38 -12q-42 0 -55 38q-39 15 -39 57q0 14 6.5 27.5t12 18.5t17.5 17q9 8 12 11 q3 2 10 9q8 10 8 17v359q0 25 17 42l83 82q18 18 43 18h183q25 0 43 -18q1 -1 11.5 -12t19.5 -20l2 -1q2 -1 2 -2l10 -10l3.5 -3.5t4.5 -4t3 -3.5l2 -2q2 -1 3 -2q1 1 9 7q14 12 37 12q41 0 56 -39zM205 164l231 229q3 3 6 3q4 0 4 -8v-222q0 -12 -10 -22l-36 -35 q-9 -9 -21 -9h-117q-12 0 -21 9l-40 39q-2 2 -2 5q0 5 6 11zM436 536l-231 -229q-3 -3 -6 -3q-4 0 -4 8v222q0 12 10 22l36 35q9 9 21 9h117q12 0 21 -9l40 -39q2 -2 2 -5q0 -5 -6 -11zM525 627l-2 -3q-3 -4 -6 -4t-7 4l-62 61q-15 15 -36 15h-183q-21 0 -36 -15l-83 -82 q-14 -17 -14 -35v-359q0 -15 -10 -22l-43 -42q-13 -16 -13 -36q0 -21 14 -35.5t35 -14.5q22 0 36 14l3 3q4 4 6 4q3 0 7 -4l62 -61q15 -15 36 -15h183q21 0 36 15l82 82q15 15 15 36v358q0 15 10 22l42 43q14 14 14 36q0 20 -14 34.5t-35 14.5q-23 0 -37 -14z" glyph-name="Oslash" unicode="Ø"/><glyph d="M550 671q39 -14 39 -55v-519q0 -25 -17 -42l-82 -82q-16 -18 -44 -18h-183q-25 0 -43 18l-83 82l-3 3l-32 32q-16 16 -16 42v519q0 25 17 42t42 17q42 0 57 -39q17 -6 27.5 -21t10.5 -34v-485q0 -5 3 -10l5 -5q6 -6 13 -6h118q5 0 13 6l37 36q6 6 6 14v485q0 25 17.5 42 t42.5 17q41 0 55 -39zM195 166v485q0 20 -14.5 34.5t-35.5 14.5t-35 -14.5t-14 -34.5v-519q0 -19 13 -35l83 -82q15 -15 36 -15h183q22 0 37 15l82 82q14 14 14 35v519q0 20 -14.5 34.5t-34.5 14.5q-21 0 -35.5 -14.5t-14.5 -34.5v-485q0 -14 -9 -21l-37 -36q-7 -9 -20 -9 h-118q-13 0 -20 9l-37 36q-9 7 -9 21zM323 971l30 -30q1 -1 3 -2t3 -3l79 -81q17 -19 17 -42q0 -26 -17.5 -42.5t-42.5 -16.5q-27 0 -43 16l-31 31l-4 4l-80 81q-17 17 -17 43q0 25 17 42t42 17q27 0 44 -17zM244 893l80 -81q13 -13 36 -13q21 0 35.5 14t14.5 35 q0 20 -15 35l-79 81q-14 14 -37 14q-21 0 -35 -14.5t-14 -34.5q0 -22 14 -36z" glyph-name="Ugrave" unicode="Ù"/><glyph d="M550 671q39 -14 39 -55v-519q0 -25 -17 -42l-82 -82q-16 -18 -44 -18h-183q-25 0 -43 18l-83 82l-3 3l-32 32q-16 16 -16 42v519q0 25 17 42t42 17q42 0 57 -39q17 -6 27.5 -21t10.5 -34v-485q0 -5 3 -10l5 -5q6 -6 13 -6h118q5 0 13 6l37 36q6 6 6 14v485q0 25 17.5 42 t42.5 17q41 0 55 -39zM195 166v485q0 20 -14.5 34.5t-35.5 14.5t-35 -14.5t-14 -34.5v-519q0 -19 13 -35l83 -82q15 -15 36 -15h183q22 0 37 15l82 82q14 14 14 35v519q0 20 -14.5 34.5t-34.5 14.5q-21 0 -35.5 -14.5t-14.5 -34.5v-485q0 -14 -9 -21l-37 -36q-7 -9 -20 -9 h-118q-13 0 -20 9l-37 36q-9 7 -9 21zM416 949q39 -15 39 -55q0 -26 -17 -43l-79 -81q-15 -16 -44 -16q-43 0 -56 39q-39 14 -39 55q0 24 18 42l79 81q16 17 43 17q19 0 34.5 -11t21.5 -28zM316 812l79 81q15 15 15 36q0 20 -15 34.5t-35 14.5q-22 0 -36 -14l-79 -81 q-15 -15 -15 -35q0 -21 14.5 -35t35.5 -14q23 0 36 13z" glyph-name="Uacute" unicode="Ú"/><glyph d="M550 671q39 -14 39 -55v-519q0 -25 -17 -42l-82 -82q-16 -18 -44 -18h-183q-25 0 -43 18l-83 82l-3 3l-32 32q-16 16 -16 42v519q0 25 17 42t42 17q42 0 57 -39q17 -6 27.5 -21t10.5 -34v-485q0 -5 3 -10l5 -5q6 -6 13 -6h118q5 0 13 6l37 36q6 6 6 14v485q0 25 17.5 42 t42.5 17q41 0 55 -39zM195 166v485q0 20 -14.5 34.5t-35.5 14.5t-35 -14.5t-14 -34.5v-519q0 -19 13 -35l83 -82q15 -15 36 -15h183q22 0 37 15l82 82q14 14 14 35v519q0 20 -14.5 34.5t-34.5 14.5q-21 0 -35.5 -14.5t-14.5 -34.5v-485q0 -14 -9 -21l-37 -36q-7 -9 -20 -9 h-118q-13 0 -20 9l-37 36q-9 7 -9 21zM451 881l4 -4l31 -31q14 -14 14 -39q0 -24 -14.5 -38.5t-38.5 -14.5q-30 0 -58 32q-1 2 -4 5.5t-5 5.5t-3 2q-2 2 -6 5.5t-6 4.5q-4 3 -10 3t-16 -7q-5 -3 -9 -9q-7 -7 -9 -10q-28 -32 -57 -32q-18 0 -33 10.5t-20 27.5q-37 12 -37 50 q0 23 16 39l92 91q16 16 38 16q23 0 39 -16zM260 810l37 37q10 10 23 10t24 -11l36 -36q10 -11 32 -11q43 0 43 43q0 22 -11 32l-92 91q-13 13 -32 13q-18 0 -31 -13l-92 -91q-13 -12 -13 -32q0 -19 13 -31t32 -12q18 0 31 11z" glyph-name="Ucircumflex" unicode="Û"/><glyph d="M550 671q39 -14 39 -55v-519q0 -25 -17 -42l-82 -82q-16 -18 -44 -18h-183q-25 0 -43 18l-83 82l-3 3l-32 32q-16 16 -16 42v519q0 25 17 42t42 17q42 0 57 -39q17 -6 27.5 -21t10.5 -34v-485q0 -5 3 -10l5 -5q6 -6 13 -6h118q5 0 13 6l37 36q6 6 6 14v485q0 25 17.5 42 t42.5 17q41 0 55 -39zM195 166v485q0 20 -14.5 34.5t-35.5 14.5t-35 -14.5t-14 -34.5v-519q0 -19 13 -35l83 -82q15 -15 36 -15h183q22 0 37 15l82 82q14 14 14 35v519q0 20 -14.5 34.5t-34.5 14.5q-21 0 -35.5 -14.5t-14.5 -34.5v-485q0 -14 -9 -21l-37 -36q-7 -9 -20 -9 h-118q-13 0 -20 9l-37 36q-9 7 -9 21zM451 763h-20q-19 0 -34 10.5t-21 27.5q-32 12 -38 45v-4v-19q0 -25 -16.5 -42.5t-42.5 -17.5h-20q-42 0 -55 38q-39 15 -39 57v19q0 25 16.5 42.5t42.5 17.5h20q41 0 55 -39q31 -11 38 -44v4v19q0 25 17 42.5t42 17.5h20q41 0 55 -39 q39 -13 39 -56v-19q0 -25 -16.5 -42.5t-42.5 -17.5zM396 808h20q21 0 35 14.5t14 35.5v19q0 21 -14 35.5t-35 14.5h-20q-20 0 -34.5 -14.5t-14.5 -35.5v-19q0 -21 14.5 -35.5t34.5 -14.5zM224 808h20q20 0 34.5 14.5t14.5 35.5v19q0 21 -14.5 35.5t-34.5 14.5h-20 q-21 0 -35 -14.5t-14 -35.5v-19q0 -21 14 -35.5t35 -14.5z" glyph-name="Udieresis" unicode="Ü"/><glyph d="M202 671q17 -6 27.5 -21t10.5 -34v-133q0 -8 6 -14l56 -57q7 -6 17 -6q13 0 22 9l88 89q6 8 6 14v133q0 25 17.5 42t42.5 17q41 0 55 -39q39 -14 39 -55v-167q0 -25 -18 -43l-150 -151q-6 -7 -6 -14v-227q0 -26 -18 -42.5t-43 -16.5q-41 0 -55 39q-39 14 -39 55v227 q0 6 -6 14l-116 116l-35 35q-17 17 -17 43v167q0 25 17 42t42 17q42 0 57 -39zM110 448l151 -151q9 -7 9 -21v-227q0 -20 14.5 -34.5t34.5 -14.5q22 0 36.5 14.5t14.5 34.5v227q0 14 9 21l150 151q15 14 15 36v167q0 20 -14.5 34.5t-34.5 14.5q-21 0 -35.5 -14.5 t-14.5 -34.5v-133q0 -14 -9 -21l-88 -89q-10 -12 -29 -12q-17 0 -27 12l-88 89q-9 7 -9 21v133q0 20 -14.5 34.5t-35.5 14.5t-35 -14.5t-14 -34.5v-167q0 -22 14 -36zM416 949q39 -15 39 -55q0 -26 -17 -43l-79 -81q-15 -16 -44 -16q-43 0 -56 39q-39 14 -39 55q0 24 18 42 l79 81q16 17 43 17q19 0 34.5 -11t21.5 -28zM316 812l79 81q15 15 15 36q0 20 -15 34.5t-35 14.5q-22 0 -36 -14l-79 -81q-15 -15 -15 -35q0 -21 14.5 -35t35.5 -14q23 0 36 13z" glyph-name="Yacute" unicode="Ý"/><glyph d="M429 429l-22 22q-6 6 -14 6h-123q-12 0 -21 -9t-9 -21v-219h118q8 0 14 6l57 57q6 6 6 14v130q0 8 -6 14zM202 671q38 -13 38 -55v-5h151q27 0 43 -16l31 -31l4 -4l102 -104q18 -18 18 -42v-198q0 -26 -18 -42l-102 -104q-15 -16 -43 -16h-156q-30 0 -30 -40 q0 -26 -17.5 -42.5t-42.5 -16.5q-19 0 -34 10.5t-21 27.5q-39 15 -39 56v602q0 25 17 42t42 17q42 0 57 -39zM445 415v-130q0 -13 -9 -21l-57 -57q-7 -9 -21 -9h-123q-17 0 -28.5 11.5t-11.5 28.5v224q0 17 11.5 28.5t28.5 11.5h123q14 0 21 -9l57 -57q9 -8 9 -21zM96 651 v-602q0 -20 14 -34.5t35 -14.5t35.5 14t14.5 35v10q0 17 11.5 28.5t28.5 11.5h156q23 0 36 13l102 104q15 15 15 35v198q0 20 -15 35l-102 104q-13 13 -36 13h-156q-17 0 -28.5 11.5t-11.5 28.5v10q0 21 -14.5 35t-35.5 14t-35 -14.5t-14 -34.5z" glyph-name="Thorn" unicode="Þ"/><glyph d="M400 549q-7 7 -15 7h-88q-7 0 -15 -7l-34 -34q-7 -8 -7 -15v-412q18 21 45 21h92q8 0 15 7l34 34q7 7 7 15v67q0 8 -7 15l-86 87q-18 18 -18 42q0 5 0.5 10t3 9.5t3.5 8t5.5 9t5.5 7.5t6.5 7.5l6.5 6.5t8 7l6 6q2 2 7 6.5t8 6.5l13 13q10 10 10 19v43q0 8 -6 14zM508 611 l4 -4l31 -31q17 -16 17 -42v-110q0 -27 -25 -52q-2 -1 -8 -7q-4 -1 -6 -7q-6 -6 -6 -17q0 -8 5 -16q14 -14 21 -23q2 -1 7 -6q40 -32 40 -65v-134q0 -27 -17 -43l-82 -81q-17 -18 -42 -18h-126q-41 0 -55 39q-16 5 -25 17v-69q0 -26 -17.5 -42.5t-42.5 -16.5q-19 0 -34 10.5 t-21 27.5q-39 15 -39 56v592q0 25 17 42l82 81q18 18 42 18h155q25 0 43 -18zM196 -23v558q0 15 10 22l34 34q7 10 22 10h88q15 0 22 -10l34 -34q10 -7 10 -22v-43q0 -14 -10 -21l-58 -59q-15 -15 -15 -36q0 -20 15 -35l86 -87q10 -7 10 -22v-67q0 -15 -10 -22l-34 -34 q-7 -10 -22 -10h-92q-20 0 -34.5 -14.5t-14.5 -35.5q0 -20 14.5 -34.5t34.5 -14.5h126q20 0 35 15l82 81q14 14 14 36v134q0 21 -14 35l-48 48q-11 11 -11 27q0 17 11 28l20 19q14 14 14 36v110q0 21 -14 35l-82 81q-15 15 -36 15h-155q-20 0 -35 -15l-82 -81 q-14 -14 -14 -35v-592q0 -21 14.5 -35t34.5 -14q21 0 35.5 14t14.5 35z" glyph-name="germandbls" unicode="ß"/><glyph d="M429 527l-24 25q-5 3 -12 3h-76q-9 0 -14 -5l-57 -58q-6 -8 -6 -13v-91h165q13 0 21.5 8.5t8.5 20.5v97q0 7 -6 13zM589 512v-498q0 -25 -17 -42t-42 -17q-19 0 -34.5 11t-21.5 28q-39 14 -39 55v184h-165q-12 0 -21 -9t-9 -20v-190q0 -26 -17.5 -42.5t-42.5 -16.5 q-19 0 -34 10.5t-21 27.5q-39 15 -39 56v498q0 27 16 43l104 102q18 18 42 18h143q26 0 43 -17l32 -32l3 -3l102 -103q18 -18 18 -43zM544 49v498q0 21 -15 36l-102 103q-14 14 -36 14h-143q-20 0 -35 -15l-104 -102q-13 -13 -13 -36v-498q0 -20 14 -34.5t35 -14.5 t35.5 14.5t14.5 34.5v190q0 16 11.5 27.5t28.5 11.5h170q17 0 28.5 -11.5t11.5 -27.5v-190q0 -20 14.5 -34.5t35.5 -14.5q20 0 34.5 14.5t14.5 34.5zM445 514v-97q0 -17 -11.5 -28t-28.5 -11h-170q-17 0 -28.5 11t-11.5 28v97q0 12 9 20l57 58q8 8 21 8h76q13 0 21 -8 l57 -58q9 -8 9 -20zM323 971l30 -30q1 -1 3 -2t3 -3l79 -81q17 -19 17 -42q0 -26 -17.5 -42.5t-42.5 -16.5q-27 0 -43 16l-31 31l-4 4l-80 81q-17 17 -17 43q0 25 17 42t42 17q27 0 44 -17zM244 893l80 -81q13 -13 36 -13q21 0 35.5 14t14.5 35q0 20 -15 35l-79 81 q-14 14 -37 14q-21 0 -35 -14.5t-14 -34.5q0 -22 14 -36z" glyph-name="agrave" unicode="à"/><glyph d="M429 527l-24 25q-5 3 -12 3h-76q-9 0 -14 -5l-57 -58q-6 -8 -6 -13v-91h165q13 0 21.5 8.5t8.5 20.5v97q0 7 -6 13zM589 512v-498q0 -25 -17 -42t-42 -17q-19 0 -34.5 11t-21.5 28q-39 14 -39 55v184h-165q-12 0 -21 -9t-9 -20v-190q0 -26 -17.5 -42.5t-42.5 -16.5 q-19 0 -34 10.5t-21 27.5q-39 15 -39 56v498q0 27 16 43l104 102q18 18 42 18h143q26 0 43 -17l32 -32l3 -3l102 -103q18 -18 18 -43zM544 49v498q0 21 -15 36l-102 103q-14 14 -36 14h-143q-20 0 -35 -15l-104 -102q-13 -13 -13 -36v-498q0 -20 14 -34.5t35 -14.5 t35.5 14.5t14.5 34.5v190q0 16 11.5 27.5t28.5 11.5h170q17 0 28.5 -11.5t11.5 -27.5v-190q0 -20 14.5 -34.5t35.5 -14.5q20 0 34.5 14.5t14.5 34.5zM445 514v-97q0 -17 -11.5 -28t-28.5 -11h-170q-17 0 -28.5 11t-11.5 28v97q0 12 9 20l57 58q8 8 21 8h76q13 0 21 -8 l57 -58q9 -8 9 -20zM416 949q39 -15 39 -55q0 -26 -17 -43l-79 -81q-15 -16 -44 -16q-43 0 -56 39q-39 14 -39 55q0 24 18 42l79 81q16 17 43 17q19 0 34.5 -11t21.5 -28zM316 812l79 81q15 15 15 36q0 20 -15 34.5t-35 14.5q-22 0 -36 -14l-79 -81q-15 -15 -15 -35 q0 -21 14.5 -35t35.5 -14q23 0 36 13z" glyph-name="aacute" unicode="á"/><glyph d="M429 527l-24 25q-5 3 -12 3h-76q-9 0 -14 -5l-57 -58q-6 -8 -6 -13v-91h165q13 0 21.5 8.5t8.5 20.5v97q0 7 -6 13zM589 512v-498q0 -25 -17 -42t-42 -17q-19 0 -34.5 11t-21.5 28q-39 14 -39 55v184h-165q-12 0 -21 -9t-9 -20v-190q0 -26 -17.5 -42.5t-42.5 -16.5 q-19 0 -34 10.5t-21 27.5q-39 15 -39 56v498q0 27 16 43l104 102q18 18 42 18h143q26 0 43 -17l32 -32l3 -3l102 -103q18 -18 18 -43zM544 49v498q0 21 -15 36l-102 103q-14 14 -36 14h-143q-20 0 -35 -15l-104 -102q-13 -13 -13 -36v-498q0 -20 14 -34.5t35 -14.5 t35.5 14.5t14.5 34.5v190q0 16 11.5 27.5t28.5 11.5h170q17 0 28.5 -11.5t11.5 -27.5v-190q0 -20 14.5 -34.5t35.5 -14.5q20 0 34.5 14.5t14.5 34.5zM445 514v-97q0 -17 -11.5 -28t-28.5 -11h-170q-17 0 -28.5 11t-11.5 28v97q0 12 9 20l57 58q8 8 21 8h76q13 0 21 -8 l57 -58q9 -8 9 -20zM451 881l4 -4l31 -31q14 -14 14 -39q0 -24 -14.5 -38.5t-38.5 -14.5q-30 0 -58 32q-1 2 -4 5.5t-5 5.5t-3 2q-2 2 -6 5.5t-6 4.5q-4 3 -10 3t-16 -7q-5 -3 -9 -9q-7 -7 -9 -10q-28 -32 -57 -32q-18 0 -33 10.5t-20 27.5q-37 12 -37 50q0 23 16 39l92 91 q16 16 38 16q23 0 39 -16zM260 810l37 37q10 10 23 10t24 -11l36 -36q10 -11 32 -11q43 0 43 43q0 22 -11 32l-92 91q-13 13 -32 13q-18 0 -31 -13l-92 -91q-13 -12 -13 -32q0 -19 13 -31t32 -12q18 0 31 11z" glyph-name="acircumflex" unicode="â"/><glyph d="M429 527l-24 25q-5 3 -12 3h-76q-9 0 -14 -5l-57 -58q-6 -8 -6 -13v-91h165q13 0 21.5 8.5t8.5 20.5v97q0 7 -6 13zM589 512v-498q0 -25 -17 -42t-42 -17q-19 0 -34.5 11t-21.5 28q-39 14 -39 55v184h-165q-12 0 -21 -9t-9 -20v-190q0 -26 -17.5 -42.5t-42.5 -16.5 q-19 0 -34 10.5t-21 27.5q-39 15 -39 56v498q0 27 16 43l104 102q18 18 42 18h143q26 0 43 -17l32 -32l3 -3l102 -103q18 -18 18 -43zM544 49v498q0 21 -15 36l-102 103q-14 14 -36 14h-143q-20 0 -35 -15l-104 -102q-13 -13 -13 -36v-498q0 -20 14 -34.5t35 -14.5 t35.5 14.5t14.5 34.5v190q0 16 11.5 27.5t28.5 11.5h170q17 0 28.5 -11.5t11.5 -27.5v-190q0 -20 14.5 -34.5t35.5 -14.5q20 0 34.5 14.5t14.5 34.5zM445 514v-97q0 -17 -11.5 -28t-28.5 -11h-170q-17 0 -28.5 11t-11.5 28v97q0 12 9 20l57 58q8 8 21 8h76q13 0 21 -8 l57 -58q9 -8 9 -20zM320 802l-33 33v-5q0 -23 -15 -38t-38 -15q-36 0 -48 37q-38 12 -38 51v49q0 19 14 33l39 40q14 14 34 14h49q21 0 35 -14l28 -29q1 -2 4 -3t4 -3l32 -35v8q0 21 16 36t37 15q17 0 30.5 -10.5t18.5 -26.5q16 -5 26.5 -18.5t10.5 -30.5v-50q0 -21 -13 -33 l-40 -40q-11 -13 -34 -13h-49q-22 0 -35 13l-31 31zM242 894l11 13h12l13 -13v-19q0 -16 10 -26l39 -40q11 -10 28 -10h49q17 0 27 10l40 40q10 10 10 26v50q0 17 -12 29t-29 12q-18 0 -30.5 -12t-12.5 -29v-31l-12 -12h-11l-13 12v20q0 15 -10 25l-39 41q-11 11 -28 11h-49 q-16 0 -27 -11l-39 -40q-11 -11 -11 -26v-49q0 -18 12 -30.5t29 -12.5q18 0 30.5 12.5t12.5 30.5v29z" glyph-name="atilde" unicode="ã"/><glyph d="M429 527l-24 25q-5 3 -12 3h-76q-9 0 -14 -5l-57 -58q-6 -8 -6 -13v-91h165q13 0 21.5 8.5t8.5 20.5v97q0 7 -6 13zM589 512v-498q0 -25 -17 -42t-42 -17q-19 0 -34.5 11t-21.5 28q-39 14 -39 55v184h-165q-12 0 -21 -9t-9 -20v-190q0 -26 -17.5 -42.5t-42.5 -16.5 q-19 0 -34 10.5t-21 27.5q-39 15 -39 56v498q0 27 16 43l104 102q18 18 42 18h143q26 0 43 -17l32 -32l3 -3l102 -103q18 -18 18 -43zM544 49v498q0 21 -15 36l-102 103q-14 14 -36 14h-143q-20 0 -35 -15l-104 -102q-13 -13 -13 -36v-498q0 -20 14 -34.5t35 -14.5 t35.5 14.5t14.5 34.5v190q0 16 11.5 27.5t28.5 11.5h170q17 0 28.5 -11.5t11.5 -27.5v-190q0 -20 14.5 -34.5t35.5 -14.5q20 0 34.5 14.5t14.5 34.5zM445 514v-97q0 -17 -11.5 -28t-28.5 -11h-170q-17 0 -28.5 11t-11.5 28v97q0 12 9 20l57 58q8 8 21 8h76q13 0 21 -8 l57 -58q9 -8 9 -20zM451 763h-20q-19 0 -34 10.5t-21 27.5q-32 12 -38 45v-4v-19q0 -25 -16.5 -42.5t-42.5 -17.5h-20q-42 0 -55 38q-39 15 -39 57v19q0 25 16.5 42.5t42.5 17.5h20q41 0 55 -39q31 -11 38 -44v4v19q0 25 17 42.5t42 17.5h20q41 0 55 -39q39 -13 39 -56v-19 q0 -25 -16.5 -42.5t-42.5 -17.5zM396 808h20q21 0 35 14.5t14 35.5v19q0 21 -14 35.5t-35 14.5h-20q-20 0 -34.5 -14.5t-14.5 -35.5v-19q0 -21 14.5 -35.5t34.5 -14.5zM224 808h20q20 0 34.5 14.5t14.5 35.5v19q0 21 -14.5 35.5t-34.5 14.5h-20q-21 0 -35 -14.5t-14 -35.5 v-19q0 -21 14 -35.5t35 -14.5z" glyph-name="adieresis" unicode="ä"/><glyph d="M429 527l-24 25q-5 3 -12 3h-76q-9 0 -14 -5l-57 -58q-6 -8 -6 -13v-91h165q13 0 21.5 8.5t8.5 20.5v97q0 7 -6 13zM589 512v-498q0 -25 -17 -42t-42 -17q-19 0 -34.5 11t-21.5 28q-39 14 -39 55v184h-165q-12 0 -21 -9t-9 -20v-190q0 -26 -17.5 -42.5t-42.5 -16.5 q-19 0 -34 10.5t-21 27.5q-39 15 -39 56v498q0 27 16 43l104 102q18 18 42 18h143q26 0 43 -17l32 -32l3 -3l102 -103q18 -18 18 -43zM544 49v498q0 21 -15 36l-102 103q-14 14 -36 14h-143q-20 0 -35 -15l-104 -102q-13 -13 -13 -36v-498q0 -20 14 -34.5t35 -14.5 t35.5 14.5t14.5 34.5v190q0 16 11.5 27.5t28.5 11.5h170q17 0 28.5 -11.5t11.5 -27.5v-190q0 -20 14.5 -34.5t35.5 -14.5q20 0 34.5 14.5t14.5 34.5zM445 514v-97q0 -17 -11.5 -28t-28.5 -11h-170q-17 0 -28.5 11t-11.5 28v97q0 12 9 20l57 58q8 8 21 8h76q13 0 21 -8 l57 -58q9 -8 9 -20zM349 867q-16 -5 -23 -22q15 7 23 22zM381 986l31 -32q1 -1 4 -3l51 -52q12 -12 12 -31v-60q0 -20 -12 -31l-51 -51q-11 -12 -32 -12h-59q-19 0 -31 12l-35 35l-17 17l-35 35q-12 12 -12 30v60q0 20 12 31l52 52q12 12 31 12h59q20 0 32 -12zM205 903v-60 q0 -12 9 -23l52 -52q10 -9 24 -9h59q16 0 25 9l51 51q9 11 9 24v60q0 13 -9 24l-51 52q-9 9 -25 9h-59q-14 0 -24 -9l-52 -52q-9 -9 -9 -24zM288 894l11 11q8 9 20 9q13 0 21 -9l11 -11q9 -8 9 -21q0 -12 -9 -20l-11 -11q-8 -9 -21 -9t-20 9l-11 11q-9 8 -9 20q0 13 9 21z " glyph-name="aring" unicode="å"/><glyph d="M260 388v137l-33 -32q-6 -7 -6 -14v-91h39zM221 204v-190q0 -26 -18 -42.5t-43 -16.5q-41 0 -55 39q-39 14 -39 55v498q0 26 17 43l103 102q18 18 43 18h286q41 0 55 -39q39 -14 39 -55q0 -25 -16.5 -43t-42.5 -18h-106q-12 0 -20.5 -8.5t-8.5 -20.5v-117h80q41 0 56 -39 q17 -6 27.5 -21t10.5 -34q0 -25 -16.5 -42.5t-42.5 -17.5h-86q-12 0 -20.5 -9t-8.5 -21v-115h100q40 0 55 -39q17 -6 28 -22t11 -35q0 -25 -17 -42t-42 -17h-196q-41 0 -55 39q-39 14 -39 55v184h-10q-12 0 -20.5 -8.5t-8.5 -20.5zM270 592v-205q0 -9 -10 -9h-45 q-17 0 -28 11t-11 28v97q0 14 9 21l57 57q6 8 18 8q10 0 10 -8zM270 268v-219q0 -20 14.5 -34.5t34.5 -14.5h196q20 0 34.5 14.5t14.5 34.5q0 21 -14.5 36t-34.5 15h-106q-17 0 -28 11t-11 28v121q0 17 11 28.5t28 11.5h86q20 0 34.5 14.5t14.5 35.5t-14.5 35t-34.5 14h-86 q-17 0 -28 12t-11 29v121q0 17 11 28t28 11h106q20 0 34.5 15t14.5 36q0 20 -14.5 34.5t-34.5 14.5h-286q-21 0 -36 -15l-103 -102q-14 -14 -14 -36v-498q0 -20 14.5 -34.5t34.5 -14.5q21 0 36 14.5t15 34.5v190q0 16 11 27.5t28 11.5h45q10 0 10 -10z" glyph-name="ae" unicode="æ"/><glyph d="M241 479v-328q0 -7 6 -13l22 -22q6 -6 14 -6h76q8 0 14 6l57 57q6 6 6 13v30q0 25 17.5 42.5t42.5 17.5q41 0 55 -39q17 -6 28 -21.5t11 -34.5v-63q0 -26 -18 -43l-102 -103q-14 -15 -39 -17q-9 -1 -28 -1q0 -7 7 -14l59 -60q12 -12 12 -29v-60q0 -20 -12 -31l-52 -51 q-13 -13 -31 -13h-60q-19 0 -31 13q-7 7 -11 10l-13 13q-1 2 -3 4q0 2 -2 3l-2 1l-4 4l-11 11q-7 6 -13 13q-16 18 -16 36q0 20 14 33t33 13q22 0 37 -15l5 -5q1 0 2 -1l2 -2q6 -2 8 -2q9 0 20 10.5t11 19.5q0 7 -4 11q-21 20 -24 25q-2 2 -2 3q-2 0 -3 2t-3 2 q-25 25 -28 29q-12 13 -13 29q-23 6 -34 17l-103 102l-3 3l-32 32q-16 16 -16 43v394q0 27 16 43l103 102q18 18 43 18h143q26 0 43 -17l32 -32l3 -3l102 -103q18 -18 18 -43v-63q0 -25 -16.5 -42.5t-42.5 -17.5q-42 0 -56 39q-39 14 -39 56v30q0 7 -6 13l-24 25q-4 3 -12 3 h-76q-9 0 -14 -5l-57 -58q-6 -8 -6 -13zM196 186v328q0 12 9 20l57 58q8 8 21 8h76q13 0 21 -8l57 -58q9 -8 9 -20v-30q0 -21 14.5 -35.5t35.5 -14.5q20 0 34.5 14.5t14.5 35.5v63q0 21 -15 36l-102 103q-14 14 -36 14h-143q-21 0 -36 -15l-103 -102q-13 -13 -13 -36v-394 q0 -23 13 -36l103 -102q15 -15 36 -15h35v-37q0 -18 12 -30l56 -56q10 -7 10 -22t-10 -22l-9 -8q-7 -10 -22 -10q-14 0 -21 10l-6 6q-9 9 -27 9q-15 0 -26 -10.5t-11 -25.5q0 -16 11 -27l26 -26q10 -10 24 -10h60q14 0 24 10l52 51q9 9 9 24v60q0 11 -9 22l-59 60 q-10 8 -10 21v11h34q22 0 36 14l102 103q15 15 15 36v63q0 21 -14.5 35.5t-34.5 14.5q-21 0 -35.5 -14.5t-14.5 -35.5v-30q0 -12 -9 -20l-57 -57q-8 -9 -21 -9h-76q-13 0 -21 9l-57 57q-9 8 -9 20z" glyph-name="ccedilla" unicode="ç"/><glyph d="M550 671q39 -14 39 -55q0 -25 -16.5 -43t-42.5 -18h-260q-12 0 -21 -8.5t-9 -20.5v-117h188q42 0 57 -39q17 -6 27.5 -21t10.5 -34q0 -25 -17.5 -42.5t-42.5 -17.5h-193q-12 0 -21 -9.5t-9 -21.5v-114h255q40 0 55 -39q17 -6 28 -22t11 -35q0 -25 -17 -42t-42 -17h-350 q-19 0 -34 10.5t-21 27.5q-39 15 -39 56v602q0 25 17 42t42 17h350q41 0 55 -39zM96 651v-602q0 -20 14 -34.5t35 -14.5h350q20 0 34.5 14.5t14.5 34.5q0 21 -14.5 36t-34.5 15h-260q-17 0 -28.5 11t-11.5 28v120q0 17 11.5 29t28.5 12h193q20 0 35 14.5t15 35.5t-14.5 35 t-35.5 14h-193q-17 0 -28.5 12t-11.5 29v121q0 17 11.5 28t28.5 11h260q20 0 34.5 15t14.5 36q0 20 -14.5 34.5t-34.5 14.5h-350q-21 0 -35 -14.5t-14 -34.5zM323 971l30 -30q1 -1 3 -2t3 -3l79 -81q17 -19 17 -42q0 -26 -17.5 -42.5t-42.5 -16.5q-27 0 -43 16l-31 31l-4 4 l-80 81q-17 17 -17 43q0 25 17 42t42 17q27 0 44 -17zM244 893l80 -81q13 -13 36 -13q21 0 35.5 14t14.5 35q0 20 -15 35l-79 81q-14 14 -37 14q-21 0 -35 -14.5t-14 -34.5q0 -22 14 -36z" glyph-name="egrave" unicode="è"/><glyph d="M550 671q39 -14 39 -55q0 -25 -16.5 -43t-42.5 -18h-260q-12 0 -21 -8.5t-9 -20.5v-117h188q42 0 57 -39q17 -6 27.5 -21t10.5 -34q0 -25 -17.5 -42.5t-42.5 -17.5h-193q-12 0 -21 -9.5t-9 -21.5v-114h255q40 0 55 -39q17 -6 28 -22t11 -35q0 -25 -17 -42t-42 -17h-350 q-19 0 -34 10.5t-21 27.5q-39 15 -39 56v602q0 25 17 42t42 17h350q41 0 55 -39zM96 651v-602q0 -20 14 -34.5t35 -14.5h350q20 0 34.5 14.5t14.5 34.5q0 21 -14.5 36t-34.5 15h-260q-17 0 -28.5 11t-11.5 28v120q0 17 11.5 29t28.5 12h193q20 0 35 14.5t15 35.5t-14.5 35 t-35.5 14h-193q-17 0 -28.5 12t-11.5 29v121q0 17 11.5 28t28.5 11h260q20 0 34.5 15t14.5 36q0 20 -14.5 34.5t-34.5 14.5h-350q-21 0 -35 -14.5t-14 -34.5zM416 949q39 -15 39 -55q0 -26 -17 -43l-79 -81q-15 -16 -44 -16q-43 0 -56 39q-39 14 -39 55q0 24 18 42l79 81 q16 17 43 17q19 0 34.5 -11t21.5 -28zM316 812l79 81q15 15 15 36q0 20 -15 34.5t-35 14.5q-22 0 -36 -14l-79 -81q-15 -15 -15 -35q0 -21 14.5 -35t35.5 -14q23 0 36 13z" glyph-name="eacute" unicode="é"/><glyph d="M550 671q39 -14 39 -55q0 -25 -16.5 -43t-42.5 -18h-260q-12 0 -21 -8.5t-9 -20.5v-117h188q42 0 57 -39q17 -6 27.5 -21t10.5 -34q0 -25 -17.5 -42.5t-42.5 -17.5h-193q-12 0 -21 -9.5t-9 -21.5v-114h255q40 0 55 -39q17 -6 28 -22t11 -35q0 -25 -17 -42t-42 -17h-350 q-19 0 -34 10.5t-21 27.5q-39 15 -39 56v602q0 25 17 42t42 17h350q41 0 55 -39zM96 651v-602q0 -20 14 -34.5t35 -14.5h350q20 0 34.5 14.5t14.5 34.5q0 21 -14.5 36t-34.5 15h-260q-17 0 -28.5 11t-11.5 28v120q0 17 11.5 29t28.5 12h193q20 0 35 14.5t15 35.5t-14.5 35 t-35.5 14h-193q-17 0 -28.5 12t-11.5 29v121q0 17 11.5 28t28.5 11h260q20 0 34.5 15t14.5 36q0 20 -14.5 34.5t-34.5 14.5h-350q-21 0 -35 -14.5t-14 -34.5zM451 881l4 -4l31 -31q14 -14 14 -39q0 -24 -14.5 -38.5t-38.5 -14.5q-30 0 -58 32q-1 2 -4 5.5t-5 5.5t-3 2 q-2 2 -6 5.5t-6 4.5q-4 3 -10 3t-16 -7q-5 -3 -9 -9q-7 -7 -9 -10q-28 -32 -57 -32q-18 0 -33 10.5t-20 27.5q-37 12 -37 50q0 23 16 39l92 91q16 16 38 16q23 0 39 -16zM260 810l37 37q10 10 23 10t24 -11l36 -36q10 -11 32 -11q43 0 43 43q0 22 -11 32l-92 91 q-13 13 -32 13q-18 0 -31 -13l-92 -91q-13 -12 -13 -32q0 -19 13 -31t32 -12q18 0 31 11z" glyph-name="ecircumflex" unicode="ê"/><glyph d="M550 671q39 -14 39 -55q0 -25 -16.5 -43t-42.5 -18h-260q-12 0 -21 -8.5t-9 -20.5v-117h188q42 0 57 -39q17 -6 27.5 -21t10.5 -34q0 -25 -17.5 -42.5t-42.5 -17.5h-193q-12 0 -21 -9.5t-9 -21.5v-114h255q40 0 55 -39q17 -6 28 -22t11 -35q0 -25 -17 -42t-42 -17h-350 q-19 0 -34 10.5t-21 27.5q-39 15 -39 56v602q0 25 17 42t42 17h350q41 0 55 -39zM96 651v-602q0 -20 14 -34.5t35 -14.5h350q20 0 34.5 14.5t14.5 34.5q0 21 -14.5 36t-34.5 15h-260q-17 0 -28.5 11t-11.5 28v120q0 17 11.5 29t28.5 12h193q20 0 35 14.5t15 35.5t-14.5 35 t-35.5 14h-193q-17 0 -28.5 12t-11.5 29v121q0 17 11.5 28t28.5 11h260q20 0 34.5 15t14.5 36q0 20 -14.5 34.5t-34.5 14.5h-350q-21 0 -35 -14.5t-14 -34.5zM451 763h-20q-19 0 -34 10.5t-21 27.5q-32 12 -38 45v-4v-19q0 -25 -16.5 -42.5t-42.5 -17.5h-20q-42 0 -55 38 q-39 15 -39 57v19q0 25 16.5 42.5t42.5 17.5h20q41 0 55 -39q31 -11 38 -44v4v19q0 25 17 42.5t42 17.5h20q41 0 55 -39q39 -13 39 -56v-19q0 -25 -16.5 -42.5t-42.5 -17.5zM396 808h20q21 0 35 14.5t14 35.5v19q0 21 -14 35.5t-35 14.5h-20q-20 0 -34.5 -14.5t-14.5 -35.5 v-19q0 -21 14.5 -35.5t34.5 -14.5zM224 808h20q20 0 34.5 14.5t14.5 35.5v19q0 21 -14.5 35.5t-34.5 14.5h-20q-21 0 -35 -14.5t-14 -35.5v-19q0 -21 14 -35.5t35 -14.5z" glyph-name="edieresis" unicode="ë"/><glyph d="M484 -45h-260q-41 0 -55 39q-39 14 -39 55q0 25 17 42.5t42 17.5h41q12 0 21 8.5t9 20.5v414h-36q-19 0 -34 10.5t-21 27.5q-39 15 -39 57q0 24 17.5 41.5t41.5 17.5h260q41 0 55 -39q39 -14 39 -55q0 -25 -16.5 -42.5t-42.5 -17.5h-25q-10 0 -24 -2q-21 -7 -21 -27v-414 h10h25q41 0 55 -39q17 -6 28 -21.5t11 -34.5q0 -25 -17 -42t-42 -17zM189 0h260q20 0 34.5 14.5t14.5 34.5q0 21 -14.5 35.5t-34.5 14.5h-41q-17 0 -28 11.5t-11 27.5v420q0 16 11 27.5t28 11.5h41q20 0 34.5 14.5t14.5 35.5q0 20 -14.5 34.5t-34.5 14.5h-260 q-20 0 -34.5 -14.5t-14.5 -34.5q0 -21 14.5 -35.5t34.5 -14.5h41q17 0 28.5 -11.5t11.5 -27.5v-420q0 -16 -11.5 -27.5t-28.5 -11.5h-41q-20 0 -34.5 -14.5t-14.5 -35.5q0 -20 14.5 -34.5t34.5 -14.5zM323 971l30 -30q1 -1 3 -2t3 -3l79 -81q17 -19 17 -42 q0 -26 -17.5 -42.5t-42.5 -16.5q-27 0 -43 16l-31 31l-4 4l-80 81q-17 17 -17 43q0 25 17 42t42 17q27 0 44 -17zM244 893l80 -81q13 -13 36 -13q21 0 35.5 14t14.5 35q0 20 -15 35l-79 81q-14 14 -37 14q-21 0 -35 -14.5t-14 -34.5q0 -22 14 -36z" glyph-name="igrave" unicode="ì"/><glyph d="M484 -45h-260q-41 0 -55 39q-39 14 -39 55q0 25 17 42.5t42 17.5h41q12 0 21 8.5t9 20.5v414h-36q-19 0 -34 10.5t-21 27.5q-39 15 -39 57q0 24 17.5 41.5t41.5 17.5h260q41 0 55 -39q39 -14 39 -55q0 -25 -16.5 -42.5t-42.5 -17.5h-25q-10 0 -24 -2q-21 -7 -21 -27v-414 h10h25q41 0 55 -39q17 -6 28 -21.5t11 -34.5q0 -25 -17 -42t-42 -17zM189 0h260q20 0 34.5 14.5t14.5 34.5q0 21 -14.5 35.5t-34.5 14.5h-41q-17 0 -28 11.5t-11 27.5v420q0 16 11 27.5t28 11.5h41q20 0 34.5 14.5t14.5 35.5q0 20 -14.5 34.5t-34.5 14.5h-260 q-20 0 -34.5 -14.5t-14.5 -34.5q0 -21 14.5 -35.5t34.5 -14.5h41q17 0 28.5 -11.5t11.5 -27.5v-420q0 -16 -11.5 -27.5t-28.5 -11.5h-41q-20 0 -34.5 -14.5t-14.5 -35.5q0 -20 14.5 -34.5t34.5 -14.5zM416 949q39 -15 39 -55q0 -26 -17 -43l-79 -81q-15 -16 -44 -16 q-43 0 -56 39q-39 14 -39 55q0 24 18 42l79 81q16 17 43 17q19 0 34.5 -11t21.5 -28zM316 812l79 81q15 15 15 36q0 20 -15 34.5t-35 14.5q-22 0 -36 -14l-79 -81q-15 -15 -15 -35q0 -21 14.5 -35t35.5 -14q23 0 36 13z" glyph-name="iacute" unicode="í"/><glyph d="M484 -45h-260q-41 0 -55 39q-39 14 -39 55q0 25 17 42.5t42 17.5h41q12 0 21 8.5t9 20.5v414h-36q-19 0 -34 10.5t-21 27.5q-39 15 -39 57q0 24 17.5 41.5t41.5 17.5h260q41 0 55 -39q39 -14 39 -55q0 -25 -16.5 -42.5t-42.5 -17.5h-25q-10 0 -24 -2q-21 -7 -21 -27v-414 h10h25q41 0 55 -39q17 -6 28 -21.5t11 -34.5q0 -25 -17 -42t-42 -17zM189 0h260q20 0 34.5 14.5t14.5 34.5q0 21 -14.5 35.5t-34.5 14.5h-41q-17 0 -28 11.5t-11 27.5v420q0 16 11 27.5t28 11.5h41q20 0 34.5 14.5t14.5 35.5q0 20 -14.5 34.5t-34.5 14.5h-260 q-20 0 -34.5 -14.5t-14.5 -34.5q0 -21 14.5 -35.5t34.5 -14.5h41q17 0 28.5 -11.5t11.5 -27.5v-420q0 -16 -11.5 -27.5t-28.5 -11.5h-41q-20 0 -34.5 -14.5t-14.5 -35.5q0 -20 14.5 -34.5t34.5 -14.5zM451 881l4 -4l31 -31q14 -14 14 -39q0 -24 -14.5 -38.5t-38.5 -14.5 q-30 0 -58 32q-1 2 -4 5.5t-5 5.5t-3 2q-2 2 -6 5.5t-6 4.5q-4 3 -10 3t-16 -7q-5 -3 -9 -9q-7 -7 -9 -10q-28 -32 -57 -32q-18 0 -33 10.5t-20 27.5q-37 12 -37 50q0 23 16 39l92 91q16 16 38 16q23 0 39 -16zM260 810l37 37q10 10 23 10t24 -11l36 -36q10 -11 32 -11 q43 0 43 43q0 22 -11 32l-92 91q-13 13 -32 13q-18 0 -31 -13l-92 -91q-13 -12 -13 -32q0 -19 13 -31t32 -12q18 0 31 11z" glyph-name="icircumflex" unicode="î"/><glyph d="M484 -45h-260q-41 0 -55 39q-39 14 -39 55q0 25 17 42.5t42 17.5h41q12 0 21 8.5t9 20.5v414h-36q-19 0 -34 10.5t-21 27.5q-39 15 -39 57q0 24 17.5 41.5t41.5 17.5h260q41 0 55 -39q39 -14 39 -55q0 -25 -16.5 -42.5t-42.5 -17.5h-25q-10 0 -24 -2q-21 -7 -21 -27v-414 h10h25q41 0 55 -39q17 -6 28 -21.5t11 -34.5q0 -25 -17 -42t-42 -17zM189 0h260q20 0 34.5 14.5t14.5 34.5q0 21 -14.5 35.5t-34.5 14.5h-41q-17 0 -28 11.5t-11 27.5v420q0 16 11 27.5t28 11.5h41q20 0 34.5 14.5t14.5 35.5q0 20 -14.5 34.5t-34.5 14.5h-260 q-20 0 -34.5 -14.5t-14.5 -34.5q0 -21 14.5 -35.5t34.5 -14.5h41q17 0 28.5 -11.5t11.5 -27.5v-420q0 -16 -11.5 -27.5t-28.5 -11.5h-41q-20 0 -34.5 -14.5t-14.5 -35.5q0 -20 14.5 -34.5t34.5 -14.5zM451 763h-20q-19 0 -34 10.5t-21 27.5q-32 12 -38 45v-4v-19 q0 -25 -16.5 -42.5t-42.5 -17.5h-20q-42 0 -55 38q-39 15 -39 57v19q0 25 16.5 42.5t42.5 17.5h20q41 0 55 -39q31 -11 38 -44v4v19q0 25 17 42.5t42 17.5h20q41 0 55 -39q39 -13 39 -56v-19q0 -25 -16.5 -42.5t-42.5 -17.5zM396 808h20q21 0 35 14.5t14 35.5v19 q0 21 -14 35.5t-35 14.5h-20q-20 0 -34.5 -14.5t-14.5 -35.5v-19q0 -21 14.5 -35.5t34.5 -14.5zM224 808h20q20 0 34.5 14.5t14.5 35.5v19q0 21 -14.5 35.5t-34.5 14.5h-20q-21 0 -35 -14.5t-14 -35.5v-19q0 -21 14 -35.5t35 -14.5z" glyph-name="idieresis" unicode="ï"/><glyph d="M435 186v116q-12 -46 -58 -46h-137v-146h118q6 0 14 6l57 57q6 6 6 13zM429 527l-24 25q-5 3 -12 3h-123q-12 0 -21 -8.5t-9 -20.5v-116h102q42 0 56 -39q31 -10 37 -42v185q0 7 -6 13zM434 693l32 -32l3 -3l102 -103q18 -18 18 -43v-394q0 -26 -18 -43l-102 -103 q-16 -17 -43 -17h-246q-19 0 -34 10.5t-21 27.5q-39 15 -39 56v213q-25 12 -31 34q-38 12 -38 55q0 31 20 45t49 14v241q0 25 17 42t42 17h246q26 0 43 -17zM96 651v-241q0 -10 -10 -10h-10q-21 0 -35 -14t-14 -35q0 -22 14 -36t35 -14h10q10 0 10 -10v-242q0 -20 14 -34.5 t35 -14.5h246q22 0 36 14l102 103q15 15 15 36v394q0 21 -15 36l-102 103q-14 14 -36 14h-246q-21 0 -35 -14.5t-14 -34.5zM195 139v152q0 10 10 10h137q21 0 35 14t14 36q0 21 -14 35t-35 14h-137q-10 0 -10 10v151q0 17 11.5 28t28.5 11h123q13 0 21 -8l57 -58q9 -8 9 -20 v-328q0 -12 -9 -20l-57 -57q-7 -9 -21 -9h-123q-17 0 -28.5 11t-11.5 28z" glyph-name="eth" unicode="ð"/><glyph d="M550 671q39 -14 39 -55v-602q0 -25 -17 -42t-42 -17q-34 0 -51 30l-6 9q-18 6 -30 26l-203 348v-354q0 -26 -17.5 -42.5t-42.5 -16.5q-19 0 -34 10.5t-21 27.5q-39 15 -39 56v602q0 25 17 42t42 17q35 0 52 -30l5 -9q20 -8 30 -26l203 -348v354q0 25 17.5 42t42.5 17 q41 0 55 -39zM438 247l-250 428q-13 25 -43 25q-21 0 -35 -14.5t-14 -34.5v-602q0 -20 14 -34.5t35 -14.5t35.5 14.5t14.5 34.5v403q0 7 2 7q3 0 5 -5l250 -429q12 -25 43 -25q20 0 34.5 14.5t14.5 34.5v602q0 20 -14.5 34.5t-34.5 14.5q-21 0 -35.5 -14.5t-14.5 -34.5v-402 q0 -7 -2 -7t-5 5zM320 802l-33 33v-5q0 -23 -15 -38t-38 -15q-36 0 -48 37q-38 12 -38 51v49q0 19 14 33l39 40q14 14 34 14h49q21 0 35 -14l28 -29q1 -2 4 -3t4 -3l32 -35v8q0 21 16 36t37 15q17 0 30.5 -10.5t18.5 -26.5q16 -5 26.5 -18.5t10.5 -30.5v-50q0 -21 -13 -33 l-40 -40q-11 -13 -34 -13h-49q-22 0 -35 13l-31 31zM242 894l11 13h12l13 -13v-19q0 -16 10 -26l39 -40q11 -10 28 -10h49q17 0 27 10l40 40q10 10 10 26v50q0 17 -12 29t-29 12q-18 0 -30.5 -12t-12.5 -29v-31l-12 -12h-11l-13 12v20q0 15 -10 25l-39 41q-11 11 -28 11h-49 q-16 0 -27 -11l-39 -40q-11 -11 -11 -26v-49q0 -18 12 -30.5t29 -12.5q18 0 30.5 12.5t12.5 30.5v29z" glyph-name="ntilde" unicode="ñ"/><glyph d="M429 548l-2 2q-5 5 -13 5h-118q-5 0 -13 -5l-37 -37q-6 -7 -6 -14v-368q0 -5 3 -10l5 -5q6 -6 13 -6h118q5 0 13 6l37 36q6 6 6 14v368q0 8 -6 14zM589 533v-436q0 -25 -17 -42l-82 -82q-16 -18 -44 -18h-183q-25 0 -43 18l-83 82l-3 3l-32 32q-16 16 -16 42v436 q0 26 16 42l83 82q18 18 43 18h183q26 0 44 -18l35 -35l47 -47l35 -35q17 -17 17 -42zM530 603l-82 82q-15 15 -37 15h-183q-21 0 -36 -15l-83 -82q-13 -16 -13 -35v-436q0 -19 13 -35l83 -82q15 -15 36 -15h183q22 0 37 15l82 82q14 14 14 35v436q0 21 -14 35zM436 145 l-37 -36q-7 -9 -20 -9h-118q-13 0 -20 9l-37 36q-9 7 -9 21v368q0 14 9 21l37 37q8 8 20 8h118q12 0 20 -8l37 -37q9 -7 9 -21v-368q0 -14 -9 -21zM323 971l30 -30q1 -1 3 -2t3 -3l79 -81q17 -19 17 -42q0 -26 -17.5 -42.5t-42.5 -16.5q-27 0 -43 16l-31 31l-4 4l-80 81 q-17 17 -17 43q0 25 17 42t42 17q27 0 44 -17zM244 893l80 -81q13 -13 36 -13q21 0 35.5 14t14.5 35q0 20 -15 35l-79 81q-14 14 -37 14q-21 0 -35 -14.5t-14 -34.5q0 -22 14 -36z" glyph-name="ograve" unicode="ò"/><glyph d="M429 548l-2 2q-5 5 -13 5h-118q-5 0 -13 -5l-37 -37q-6 -7 -6 -14v-368q0 -5 3 -10l5 -5q6 -6 13 -6h118q5 0 13 6l37 36q6 6 6 14v368q0 8 -6 14zM589 533v-436q0 -25 -17 -42l-82 -82q-16 -18 -44 -18h-183q-25 0 -43 18l-83 82l-3 3l-32 32q-16 16 -16 42v436 q0 26 16 42l83 82q18 18 43 18h183q26 0 44 -18l35 -35l47 -47l35 -35q17 -17 17 -42zM530 603l-82 82q-15 15 -37 15h-183q-21 0 -36 -15l-83 -82q-13 -16 -13 -35v-436q0 -19 13 -35l83 -82q15 -15 36 -15h183q22 0 37 15l82 82q14 14 14 35v436q0 21 -14 35zM436 145 l-37 -36q-7 -9 -20 -9h-118q-13 0 -20 9l-37 36q-9 7 -9 21v368q0 14 9 21l37 37q8 8 20 8h118q12 0 20 -8l37 -37q9 -7 9 -21v-368q0 -14 -9 -21zM416 949q39 -15 39 -55q0 -26 -17 -43l-79 -81q-15 -16 -44 -16q-43 0 -56 39q-39 14 -39 55q0 24 18 42l79 81q16 17 43 17 q19 0 34.5 -11t21.5 -28zM316 812l79 81q15 15 15 36q0 20 -15 34.5t-35 14.5q-22 0 -36 -14l-79 -81q-15 -15 -15 -35q0 -21 14.5 -35t35.5 -14q23 0 36 13z" glyph-name="oacute" unicode="ó"/><glyph d="M429 548l-2 2q-5 5 -13 5h-118q-5 0 -13 -5l-37 -37q-6 -7 -6 -14v-368q0 -5 3 -10l5 -5q6 -6 13 -6h118q5 0 13 6l37 36q6 6 6 14v368q0 8 -6 14zM589 533v-436q0 -25 -17 -42l-82 -82q-16 -18 -44 -18h-183q-25 0 -43 18l-83 82l-3 3l-32 32q-16 16 -16 42v436 q0 26 16 42l83 82q18 18 43 18h183q26 0 44 -18l35 -35l47 -47l35 -35q17 -17 17 -42zM530 603l-82 82q-15 15 -37 15h-183q-21 0 -36 -15l-83 -82q-13 -16 -13 -35v-436q0 -19 13 -35l83 -82q15 -15 36 -15h183q22 0 37 15l82 82q14 14 14 35v436q0 21 -14 35zM436 145 l-37 -36q-7 -9 -20 -9h-118q-13 0 -20 9l-37 36q-9 7 -9 21v368q0 14 9 21l37 37q8 8 20 8h118q12 0 20 -8l37 -37q9 -7 9 -21v-368q0 -14 -9 -21zM451 881l4 -4l31 -31q14 -14 14 -39q0 -24 -14.5 -38.5t-38.5 -14.5q-30 0 -58 32q-1 2 -4 5.5t-5 5.5t-3 2q-2 2 -6 5.5 t-6 4.5q-4 3 -10 3t-16 -7q-5 -3 -9 -9q-7 -7 -9 -10q-28 -32 -57 -32q-18 0 -33 10.5t-20 27.5q-37 12 -37 50q0 23 16 39l92 91q16 16 38 16q23 0 39 -16zM260 810l37 37q10 10 23 10t24 -11l36 -36q10 -11 32 -11q43 0 43 43q0 22 -11 32l-92 91q-13 13 -32 13 q-18 0 -31 -13l-92 -91q-13 -12 -13 -32q0 -19 13 -31t32 -12q18 0 31 11z" glyph-name="ocircumflex" unicode="ô"/><glyph d="M429 548l-2 2q-5 5 -13 5h-118q-5 0 -13 -5l-37 -37q-6 -7 -6 -14v-368q0 -5 3 -10l5 -5q6 -6 13 -6h118q5 0 13 6l37 36q6 6 6 14v368q0 8 -6 14zM589 533v-436q0 -25 -17 -42l-82 -82q-16 -18 -44 -18h-183q-25 0 -43 18l-83 82l-3 3l-32 32q-16 16 -16 42v436 q0 26 16 42l83 82q18 18 43 18h183q26 0 44 -18l35 -35l47 -47l35 -35q17 -17 17 -42zM530 603l-82 82q-15 15 -37 15h-183q-21 0 -36 -15l-83 -82q-13 -16 -13 -35v-436q0 -19 13 -35l83 -82q15 -15 36 -15h183q22 0 37 15l82 82q14 14 14 35v436q0 21 -14 35zM436 145 l-37 -36q-7 -9 -20 -9h-118q-13 0 -20 9l-37 36q-9 7 -9 21v368q0 14 9 21l37 37q8 8 20 8h118q12 0 20 -8l37 -37q9 -7 9 -21v-368q0 -14 -9 -21zM320 802l-33 33v-5q0 -23 -15 -38t-38 -15q-36 0 -48 37q-38 12 -38 51v49q0 19 14 33l39 40q14 14 34 14h49q21 0 35 -14 l28 -29q1 -2 4 -3t4 -3l32 -35v8q0 21 16 36t37 15q17 0 30.5 -10.5t18.5 -26.5q16 -5 26.5 -18.5t10.5 -30.5v-50q0 -21 -13 -33l-40 -40q-11 -13 -34 -13h-49q-22 0 -35 13l-31 31zM242 894l11 13h12l13 -13v-19q0 -16 10 -26l39 -40q11 -10 28 -10h49q17 0 27 10l40 40 q10 10 10 26v50q0 17 -12 29t-29 12q-18 0 -30.5 -12t-12.5 -29v-31l-12 -12h-11l-13 12v20q0 15 -10 25l-39 41q-11 11 -28 11h-49q-16 0 -27 -11l-39 -40q-11 -11 -11 -26v-49q0 -18 12 -30.5t29 -12.5q18 0 30.5 12.5t12.5 30.5v29z" glyph-name="otilde" unicode="õ"/><glyph d="M429 548l-2 2q-5 5 -13 5h-118q-5 0 -13 -5l-37 -37q-6 -7 -6 -14v-368q0 -5 3 -10l5 -5q6 -6 13 -6h118q5 0 13 6l37 36q6 6 6 14v368q0 8 -6 14zM589 533v-436q0 -25 -17 -42l-82 -82q-16 -18 -44 -18h-183q-25 0 -43 18l-83 82l-3 3l-32 32q-16 16 -16 42v436 q0 26 16 42l83 82q18 18 43 18h183q26 0 44 -18l35 -35l47 -47l35 -35q17 -17 17 -42zM530 603l-82 82q-15 15 -37 15h-183q-21 0 -36 -15l-83 -82q-13 -16 -13 -35v-436q0 -19 13 -35l83 -82q15 -15 36 -15h183q22 0 37 15l82 82q14 14 14 35v436q0 21 -14 35zM436 145 l-37 -36q-7 -9 -20 -9h-118q-13 0 -20 9l-37 36q-9 7 -9 21v368q0 14 9 21l37 37q8 8 20 8h118q12 0 20 -8l37 -37q9 -7 9 -21v-368q0 -14 -9 -21zM451 763h-20q-19 0 -34 10.5t-21 27.5q-32 12 -38 45v-4v-19q0 -25 -16.5 -42.5t-42.5 -17.5h-20q-42 0 -55 38 q-39 15 -39 57v19q0 25 16.5 42.5t42.5 17.5h20q41 0 55 -39q31 -11 38 -44v4v19q0 25 17 42.5t42 17.5h20q41 0 55 -39q39 -13 39 -56v-19q0 -25 -16.5 -42.5t-42.5 -17.5zM396 808h20q21 0 35 14.5t14 35.5v19q0 21 -14 35.5t-35 14.5h-20q-20 0 -34.5 -14.5t-14.5 -35.5 v-19q0 -21 14.5 -35.5t34.5 -14.5zM224 808h20q20 0 34.5 14.5t14.5 35.5v19q0 21 -14.5 35.5t-34.5 14.5h-20q-21 0 -35 -14.5t-14 -35.5v-19q0 -21 14 -35.5t35 -14.5z" glyph-name="odieresis" unicode="ö"/><glyph d="M375 68h-39q-42 0 -56 39q-39 14 -39 56v39q0 39 35 54h-75q-43 0 -56 39q-39 14 -39 56q0 26 17.5 42.5t42.5 16.5h143q-21 10 -29 33q-39 14 -39 55v39q0 25 17.5 42.5t42.5 17.5h39q41 0 55 -39q39 -13 39 -56v-39q0 -37 -31 -53h73q42 0 56 -39q38 -13 38 -55 q0 -26 -16.5 -43t-42.5 -17h-146q21 -10 31 -34q38 -13 38 -55v-39q0 -25 -16.5 -42.5t-42.5 -17.5zM301 113h39q21 0 35 14.5t14 35.5v39q0 21 -14 35t-35 14h-39q-21 0 -35.5 -14t-14.5 -35v-39q0 -21 14.5 -35.5t35.5 -14.5zM301 449h39q21 0 35 14t14 35v39 q0 21 -14 35.5t-35 14.5h-39q-21 0 -35.5 -14.5t-14.5 -35.5v-39q0 -21 14.5 -35t35.5 -14zM476 400h-310q-21 0 -35.5 -14t-14.5 -35q0 -22 14.5 -36t35.5 -14h310q21 0 35 14t14 36q0 21 -14 35t-35 14z" glyph-name="divide" unicode="÷"/><glyph d="M436 166v142l-189 -186q-1 0 -1 -1t-1 -2l3 -3q6 -6 14 -6h117q7 0 14 6l36 35q7 7 7 15zM431 546q-2 2 -3 2q-4 7 -14 7h-117q-7 0 -14 -7l-36 -35q-7 -7 -7 -14v-143l189 187q2 2 2 3zM618 612q17 -6 27.5 -21t10.5 -34q0 -30 -36 -64q-3 -2 -12 -11q-3 -2 -10 -9 q-8 -11 -8 -17v-358q0 -26 -18 -43l-82 -82q-16 -18 -43 -18h-183q-25 0 -43 18l-31 31l-4 4q-1 0 -2.5 1.5t-3.5 4t-3 3.5q-8 8 -12 11q-1 1 -3 2q-1 1 -2 3q-2 -1 -4 -3l-4 -4q-14 -12 -38 -12q-42 0 -55 38q-39 15 -39 57q0 14 6.5 27.5t12 18.5t17.5 17q9 8 12 11 q3 2 10 9q8 10 8 17v359q0 25 17 42l83 82q18 18 43 18h183q25 0 43 -18q1 -1 11.5 -12t19.5 -20l2 -1q2 -1 2 -2l10 -10l3.5 -3.5t4.5 -4t3 -3.5l2 -2q2 -1 3 -2q1 1 9 7q14 12 37 12q41 0 56 -39zM205 164l231 229q3 3 6 3q4 0 4 -8v-222q0 -12 -10 -22l-36 -35 q-9 -9 -21 -9h-117q-12 0 -21 9l-40 39q-2 2 -2 5q0 5 6 11zM436 536l-231 -229q-3 -3 -6 -3q-4 0 -4 8v222q0 12 10 22l36 35q9 9 21 9h117q12 0 21 -9l40 -39q2 -2 2 -5q0 -5 -6 -11zM525 627l-2 -3q-3 -4 -6 -4t-7 4l-62 61q-15 15 -36 15h-183q-21 0 -36 -15l-83 -82 q-14 -17 -14 -35v-359q0 -15 -10 -22l-43 -42q-13 -16 -13 -36q0 -21 14 -35.5t35 -14.5q22 0 36 14l3 3q4 4 6 4q3 0 7 -4l62 -61q15 -15 36 -15h183q21 0 36 15l82 82q15 15 15 36v358q0 15 10 22l42 43q14 14 14 36q0 20 -14 34.5t-35 14.5q-23 0 -37 -14z" glyph-name="oslash" unicode="ø"/><glyph d="M550 671q39 -14 39 -55v-519q0 -25 -17 -42l-82 -82q-16 -18 -44 -18h-183q-25 0 -43 18l-83 82l-3 3l-32 32q-16 16 -16 42v519q0 25 17 42t42 17q42 0 57 -39q17 -6 27.5 -21t10.5 -34v-485q0 -5 3 -10l5 -5q6 -6 13 -6h118q5 0 13 6l37 36q6 6 6 14v485q0 25 17.5 42 t42.5 17q41 0 55 -39zM195 166v485q0 20 -14.5 34.5t-35.5 14.5t-35 -14.5t-14 -34.5v-519q0 -19 13 -35l83 -82q15 -15 36 -15h183q22 0 37 15l82 82q14 14 14 35v519q0 20 -14.5 34.5t-34.5 14.5q-21 0 -35.5 -14.5t-14.5 -34.5v-485q0 -14 -9 -21l-37 -36q-7 -9 -20 -9 h-118q-13 0 -20 9l-37 36q-9 7 -9 21zM323 971l30 -30q1 -1 3 -2t3 -3l79 -81q17 -19 17 -42q0 -26 -17.5 -42.5t-42.5 -16.5q-27 0 -43 16l-31 31l-4 4l-80 81q-17 17 -17 43q0 25 17 42t42 17q27 0 44 -17zM244 893l80 -81q13 -13 36 -13q21 0 35.5 14t14.5 35 q0 20 -15 35l-79 81q-14 14 -37 14q-21 0 -35 -14.5t-14 -34.5q0 -22 14 -36z" glyph-name="ugrave" unicode="ù"/><glyph d="M550 671q39 -14 39 -55v-519q0 -25 -17 -42l-82 -82q-16 -18 -44 -18h-183q-25 0 -43 18l-83 82l-3 3l-32 32q-16 16 -16 42v519q0 25 17 42t42 17q42 0 57 -39q17 -6 27.5 -21t10.5 -34v-485q0 -5 3 -10l5 -5q6 -6 13 -6h118q5 0 13 6l37 36q6 6 6 14v485q0 25 17.5 42 t42.5 17q41 0 55 -39zM195 166v485q0 20 -14.5 34.5t-35.5 14.5t-35 -14.5t-14 -34.5v-519q0 -19 13 -35l83 -82q15 -15 36 -15h183q22 0 37 15l82 82q14 14 14 35v519q0 20 -14.5 34.5t-34.5 14.5q-21 0 -35.5 -14.5t-14.5 -34.5v-485q0 -14 -9 -21l-37 -36q-7 -9 -20 -9 h-118q-13 0 -20 9l-37 36q-9 7 -9 21zM416 949q39 -15 39 -55q0 -26 -17 -43l-79 -81q-15 -16 -44 -16q-43 0 -56 39q-39 14 -39 55q0 24 18 42l79 81q16 17 43 17q19 0 34.5 -11t21.5 -28zM316 812l79 81q15 15 15 36q0 20 -15 34.5t-35 14.5q-22 0 -36 -14l-79 -81 q-15 -15 -15 -35q0 -21 14.5 -35t35.5 -14q23 0 36 13z" glyph-name="uacute" unicode="ú"/><glyph d="M550 671q39 -14 39 -55v-519q0 -25 -17 -42l-82 -82q-16 -18 -44 -18h-183q-25 0 -43 18l-83 82l-3 3l-32 32q-16 16 -16 42v519q0 25 17 42t42 17q42 0 57 -39q17 -6 27.5 -21t10.5 -34v-485q0 -5 3 -10l5 -5q6 -6 13 -6h118q5 0 13 6l37 36q6 6 6 14v485q0 25 17.5 42 t42.5 17q41 0 55 -39zM195 166v485q0 20 -14.5 34.5t-35.5 14.5t-35 -14.5t-14 -34.5v-519q0 -19 13 -35l83 -82q15 -15 36 -15h183q22 0 37 15l82 82q14 14 14 35v519q0 20 -14.5 34.5t-34.5 14.5q-21 0 -35.5 -14.5t-14.5 -34.5v-485q0 -14 -9 -21l-37 -36q-7 -9 -20 -9 h-118q-13 0 -20 9l-37 36q-9 7 -9 21zM451 881l4 -4l31 -31q14 -14 14 -39q0 -24 -14.5 -38.5t-38.5 -14.5q-30 0 -58 32q-1 2 -4 5.5t-5 5.5t-3 2q-2 2 -6 5.5t-6 4.5q-4 3 -10 3t-16 -7q-5 -3 -9 -9q-7 -7 -9 -10q-28 -32 -57 -32q-18 0 -33 10.5t-20 27.5q-37 12 -37 50 q0 23 16 39l92 91q16 16 38 16q23 0 39 -16zM260 810l37 37q10 10 23 10t24 -11l36 -36q10 -11 32 -11q43 0 43 43q0 22 -11 32l-92 91q-13 13 -32 13q-18 0 -31 -13l-92 -91q-13 -12 -13 -32q0 -19 13 -31t32 -12q18 0 31 11z" glyph-name="ucircumflex" unicode="û"/><glyph d="M550 671q39 -14 39 -55v-519q0 -25 -17 -42l-82 -82q-16 -18 -44 -18h-183q-25 0 -43 18l-83 82l-3 3l-32 32q-16 16 -16 42v519q0 25 17 42t42 17q42 0 57 -39q17 -6 27.5 -21t10.5 -34v-485q0 -5 3 -10l5 -5q6 -6 13 -6h118q5 0 13 6l37 36q6 6 6 14v485q0 25 17.5 42 t42.5 17q41 0 55 -39zM195 166v485q0 20 -14.5 34.5t-35.5 14.5t-35 -14.5t-14 -34.5v-519q0 -19 13 -35l83 -82q15 -15 36 -15h183q22 0 37 15l82 82q14 14 14 35v519q0 20 -14.5 34.5t-34.5 14.5q-21 0 -35.5 -14.5t-14.5 -34.5v-485q0 -14 -9 -21l-37 -36q-7 -9 -20 -9 h-118q-13 0 -20 9l-37 36q-9 7 -9 21zM451 763h-20q-19 0 -34 10.5t-21 27.5q-32 12 -38 45v-4v-19q0 -25 -16.5 -42.5t-42.5 -17.5h-20q-42 0 -55 38q-39 15 -39 57v19q0 25 16.5 42.5t42.5 17.5h20q41 0 55 -39q31 -11 38 -44v4v19q0 25 17 42.5t42 17.5h20q41 0 55 -39 q39 -13 39 -56v-19q0 -25 -16.5 -42.5t-42.5 -17.5zM396 808h20q21 0 35 14.5t14 35.5v19q0 21 -14 35.5t-35 14.5h-20q-20 0 -34.5 -14.5t-14.5 -35.5v-19q0 -21 14.5 -35.5t34.5 -14.5zM224 808h20q20 0 34.5 14.5t14.5 35.5v19q0 21 -14.5 35.5t-34.5 14.5h-20 q-21 0 -35 -14.5t-14 -35.5v-19q0 -21 14 -35.5t35 -14.5z" glyph-name="udieresis" unicode="ü"/><glyph d="M202 671q17 -6 27.5 -21t10.5 -34v-133q0 -8 6 -14l56 -57q7 -6 17 -6q13 0 22 9l88 89q6 8 6 14v133q0 25 17.5 42t42.5 17q41 0 55 -39q39 -14 39 -55v-167q0 -25 -18 -43l-150 -151q-6 -7 -6 -14v-227q0 -26 -18 -42.5t-43 -16.5q-41 0 -55 39q-39 14 -39 55v227 q0 6 -6 14l-116 116l-35 35q-17 17 -17 43v167q0 25 17 42t42 17q42 0 57 -39zM110 448l151 -151q9 -7 9 -21v-227q0 -20 14.5 -34.5t34.5 -14.5q22 0 36.5 14.5t14.5 34.5v227q0 14 9 21l150 151q15 14 15 36v167q0 20 -14.5 34.5t-34.5 14.5q-21 0 -35.5 -14.5 t-14.5 -34.5v-133q0 -14 -9 -21l-88 -89q-10 -12 -29 -12q-17 0 -27 12l-88 89q-9 7 -9 21v133q0 20 -14.5 34.5t-35.5 14.5t-35 -14.5t-14 -34.5v-167q0 -22 14 -36zM416 949q39 -15 39 -55q0 -26 -17 -43l-79 -81q-15 -16 -44 -16q-43 0 -56 39q-39 14 -39 55q0 24 18 42 l79 81q16 17 43 17q19 0 34.5 -11t21.5 -28zM316 812l79 81q15 15 15 36q0 20 -15 34.5t-35 14.5q-22 0 -36 -14l-79 -81q-15 -15 -15 -35q0 -21 14.5 -35t35.5 -14q23 0 36 13z" glyph-name="yacute" unicode="ý"/><glyph d="M429 426l-22 22q-6 6 -13 6h-125q-11 0 -20 -9t-9 -20v-218h119q7 0 13 6l57 57q6 6 6 13v130q0 7 -6 13zM202 739q38 -13 38 -55v-76h152q25 0 42 -17l31 -31l4 -4l102 -103q18 -18 18 -42v-196q0 -24 -18 -42l-102 -103q-17 -17 -42 -17h-158q-11 0 -20 -9t-9 -20v-82 q0 -26 -17 -42.5t-43 -16.5q-19 0 -34 10.5t-21 27.5q-39 15 -39 56v742q0 25 17 42t42 17q44 0 57 -39zM445 413v-130q0 -11 -9 -20l-57 -57q-7 -9 -20 -9h-125q-16 0 -27.5 11.5t-11.5 27.5v224q0 16 11.5 27.5t27.5 11.5h125q13 0 20 -9l57 -57q9 -9 9 -20zM96 719v-742 q0 -21 14.5 -35t34.5 -14q22 0 36 14t14 35v82q0 16 11.5 27.5t27.5 11.5h158q21 0 35 14l102 103q15 15 15 35v196q0 20 -15 35l-102 103q-14 14 -35 14h-158q-16 0 -27.5 11.5t-11.5 27.5v82q0 21 -14 35t-36 14q-20 0 -34.5 -14t-14.5 -35z" glyph-name="thorn" unicode="þ"/><glyph d="M202 671q17 -6 27.5 -21t10.5 -34v-133q0 -8 6 -14l56 -57q7 -6 17 -6q13 0 22 9l88 89q6 8 6 14v133q0 25 17.5 42t42.5 17q41 0 55 -39q39 -14 39 -55v-167q0 -25 -18 -43l-150 -151q-6 -7 -6 -14v-227q0 -26 -18 -42.5t-43 -16.5q-41 0 -55 39q-39 14 -39 55v227 q0 6 -6 14l-116 116l-35 35q-17 17 -17 43v167q0 25 17 42t42 17q42 0 57 -39zM110 448l151 -151q9 -7 9 -21v-227q0 -20 14.5 -34.5t34.5 -14.5q22 0 36.5 14.5t14.5 34.5v227q0 14 9 21l150 151q15 14 15 36v167q0 20 -14.5 34.5t-34.5 14.5q-21 0 -35.5 -14.5 t-14.5 -34.5v-133q0 -14 -9 -21l-88 -89q-10 -12 -29 -12q-17 0 -27 12l-88 89q-9 7 -9 21v133q0 20 -14.5 34.5t-35.5 14.5t-35 -14.5t-14 -34.5v-167q0 -22 14 -36zM451 763h-20q-19 0 -34 10.5t-21 27.5q-32 12 -38 45v-4v-19q0 -25 -16.5 -42.5t-42.5 -17.5h-20 q-42 0 -55 38q-39 15 -39 57v19q0 25 16.5 42.5t42.5 17.5h20q41 0 55 -39q31 -11 38 -44v4v19q0 25 17 42.5t42 17.5h20q41 0 55 -39q39 -13 39 -56v-19q0 -25 -16.5 -42.5t-42.5 -17.5zM396 808h20q21 0 35 14.5t14 35.5v19q0 21 -14 35.5t-35 14.5h-20q-20 0 -34.5 -14.5 t-14.5 -35.5v-19q0 -21 14.5 -35.5t34.5 -14.5zM224 808h20q20 0 34.5 14.5t14.5 35.5v19q0 21 -14.5 35.5t-34.5 14.5h-20q-21 0 -35 -14.5t-14 -35.5v-19q0 -21 14 -35.5t35 -14.5z" glyph-name="ydieresis" unicode="ÿ"/><glyph d="M429 527l-24 25q-5 3 -12 3h-76q-9 0 -14 -5l-57 -58q-6 -8 -6 -13v-91h165q13 0 21.5 8.5t8.5 20.5v97q0 7 -6 13zM589 512v-498q0 -25 -17 -42t-42 -17q-19 0 -34.5 11t-21.5 28q-39 14 -39 55v184h-165q-12 0 -21 -9t-9 -20v-190q0 -26 -17.5 -42.5t-42.5 -16.5 q-19 0 -34 10.5t-21 27.5q-39 15 -39 56v498q0 27 16 43l104 102q18 18 42 18h143q26 0 43 -17l32 -32l3 -3l102 -103q18 -18 18 -43zM544 49v498q0 21 -15 36l-102 103q-14 14 -36 14h-143q-20 0 -35 -15l-104 -102q-13 -13 -13 -36v-498q0 -20 14 -34.5t35 -14.5 t35.5 14.5t14.5 34.5v190q0 16 11.5 27.5t28.5 11.5h170q17 0 28.5 -11.5t11.5 -27.5v-190q0 -20 14.5 -34.5t35.5 -14.5q20 0 34.5 14.5t14.5 34.5zM445 514v-97q0 -17 -11.5 -28t-28.5 -11h-170q-17 0 -28.5 11t-11.5 28v97q0 12 9 20l57 58q8 8 21 8h76q13 0 21 -8 l57 -58q9 -8 9 -20zM448 763h-186q-42 0 -55 38q-39 15 -39 57q0 25 17 42.5t42 17.5h186q41 0 55 -39q17 -6 28 -21.5t11 -34.5q0 -25 -16.5 -42.5t-42.5 -17.5zM227 808h186q21 0 35 14.5t14 35.5t-14 35.5t-35 14.5h-186q-21 0 -35 -14.5t-14 -35.5t14 -35.5t35 -14.5z " glyph-name="Amacron" unicode="Ā"/><glyph d="M429 527l-24 25q-5 3 -12 3h-76q-9 0 -14 -5l-57 -58q-6 -8 -6 -13v-91h165q13 0 21.5 8.5t8.5 20.5v97q0 7 -6 13zM589 512v-498q0 -25 -17 -42t-42 -17q-19 0 -34.5 11t-21.5 28q-39 14 -39 55v184h-165q-12 0 -21 -9t-9 -20v-190q0 -26 -17.5 -42.5t-42.5 -16.5 q-19 0 -34 10.5t-21 27.5q-39 15 -39 56v498q0 27 16 43l104 102q18 18 42 18h143q26 0 43 -17l32 -32l3 -3l102 -103q18 -18 18 -43zM544 49v498q0 21 -15 36l-102 103q-14 14 -36 14h-143q-20 0 -35 -15l-104 -102q-13 -13 -13 -36v-498q0 -20 14 -34.5t35 -14.5 t35.5 14.5t14.5 34.5v190q0 16 11.5 27.5t28.5 11.5h170q17 0 28.5 -11.5t11.5 -27.5v-190q0 -20 14.5 -34.5t35.5 -14.5q20 0 34.5 14.5t14.5 34.5zM445 514v-97q0 -17 -11.5 -28t-28.5 -11h-170q-17 0 -28.5 11t-11.5 28v97q0 12 9 20l57 58q8 8 21 8h76q13 0 21 -8 l57 -58q9 -8 9 -20zM448 763h-186q-42 0 -55 38q-39 15 -39 57q0 25 17 42.5t42 17.5h186q41 0 55 -39q17 -6 28 -21.5t11 -34.5q0 -25 -16.5 -42.5t-42.5 -17.5zM227 808h186q21 0 35 14.5t14 35.5t-14 35.5t-35 14.5h-186q-21 0 -35 -14.5t-14 -35.5t14 -35.5t35 -14.5z " glyph-name="amacron" unicode="ā"/><glyph d="M429 527l-24 25q-5 3 -12 3h-76q-9 0 -14 -5l-57 -58q-6 -8 -6 -13v-91h165q13 0 21.5 8.5t8.5 20.5v97q0 7 -6 13zM589 512v-498q0 -25 -17 -42t-42 -17q-19 0 -34.5 11t-21.5 28q-39 14 -39 55v184h-165q-12 0 -21 -9t-9 -20v-190q0 -26 -17.5 -42.5t-42.5 -16.5 q-19 0 -34 10.5t-21 27.5q-39 15 -39 56v498q0 27 16 43l104 102q18 18 42 18h143q26 0 43 -17l32 -32l3 -3l102 -103q18 -18 18 -43zM544 49v498q0 21 -15 36l-102 103q-14 14 -36 14h-143q-20 0 -35 -15l-104 -102q-13 -13 -13 -36v-498q0 -20 14 -34.5t35 -14.5 t35.5 14.5t14.5 34.5v190q0 16 11.5 27.5t28.5 11.5h170q17 0 28.5 -11.5t11.5 -27.5v-190q0 -20 14.5 -34.5t35.5 -14.5q20 0 34.5 14.5t14.5 34.5zM445 514v-97q0 -17 -11.5 -28t-28.5 -11h-170q-17 0 -28.5 11t-11.5 28v97q0 12 9 20l57 58q8 8 21 8h76q13 0 21 -8 l57 -58q9 -8 9 -20zM459 951q16 -5 26.5 -18.5t10.5 -30.5v-42q0 -23 -13 -34l-59 -60q-12 -12 -35 -12h-68q-23 0 -35 12l-31 31l-4 4l-59 60q-13 13 -13 34v42q0 21 15.5 36t36.5 15q35 0 48 -37q38 -9 38 -59v-1h5q7 0 14 6q7 7 9 8q1 1 3 4t4 4q6 6 6 14q0 61 51 61 q39 0 50 -37zM272 927v10q0 17 -12 29t-29 12q-18 0 -30 -12t-12 -29v-42q0 -17 10 -27l59 -60q9 -9 28 -9h68q19 0 28 9l59 60q10 10 10 27v42q0 17 -12 29t-30 12t-29.5 -12t-11.5 -29v-10q0 -13 -9 -21l-16 -16q-9 -9 -21 -9h-5q-13 0 -20 9l-16 16q-9 8 -9 21z" glyph-name="Abreve" unicode="Ă"/><glyph d="M429 527l-24 25q-5 3 -12 3h-76q-9 0 -14 -5l-57 -58q-6 -8 -6 -13v-91h165q13 0 21.5 8.5t8.5 20.5v97q0 7 -6 13zM589 512v-498q0 -25 -17 -42t-42 -17q-19 0 -34.5 11t-21.5 28q-39 14 -39 55v184h-165q-12 0 -21 -9t-9 -20v-190q0 -26 -17.5 -42.5t-42.5 -16.5 q-19 0 -34 10.5t-21 27.5q-39 15 -39 56v498q0 27 16 43l104 102q18 18 42 18h143q26 0 43 -17l32 -32l3 -3l102 -103q18 -18 18 -43zM544 49v498q0 21 -15 36l-102 103q-14 14 -36 14h-143q-20 0 -35 -15l-104 -102q-13 -13 -13 -36v-498q0 -20 14 -34.5t35 -14.5 t35.5 14.5t14.5 34.5v190q0 16 11.5 27.5t28.5 11.5h170q17 0 28.5 -11.5t11.5 -27.5v-190q0 -20 14.5 -34.5t35.5 -14.5q20 0 34.5 14.5t14.5 34.5zM445 514v-97q0 -17 -11.5 -28t-28.5 -11h-170q-17 0 -28.5 11t-11.5 28v97q0 12 9 20l57 58q8 8 21 8h76q13 0 21 -8 l57 -58q9 -8 9 -20zM459 951q16 -5 26.5 -18.5t10.5 -30.5v-42q0 -23 -13 -34l-59 -60q-12 -12 -35 -12h-68q-23 0 -35 12l-31 31l-4 4l-59 60q-13 13 -13 34v42q0 21 15.5 36t36.5 15q35 0 48 -37q38 -9 38 -59v-1h5q7 0 14 6q7 7 9 8q1 1 3 4t4 4q6 6 6 14q0 61 51 61 q39 0 50 -37zM272 927v10q0 17 -12 29t-29 12q-18 0 -30 -12t-12 -29v-42q0 -17 10 -27l59 -60q9 -9 28 -9h68q19 0 28 9l59 60q10 10 10 27v42q0 17 -12 29t-30 12t-29.5 -12t-11.5 -29v-10q0 -13 -9 -21l-16 -16q-9 -9 -21 -9h-5q-13 0 -20 9l-16 16q-9 8 -9 21z" glyph-name="abreve" unicode="ă"/><glyph d="M430 527l-24 25q-4 3 -12 3h-76q-9 0 -14 -5l-57 -58q-6 -8 -6 -13v-91h165q13 0 21.5 8.5t8.5 20.5v97q0 7 -6 13zM590 512v-584q0 -20 -14 -37q-9 -13 -28 -28q-10 -8 -14 -13q-3 -2 -12 -11q-6 -7 -8 -13q1 1 2 1q0 1 2 2l2 1l5 5q15 15 37 15q18 0 30.5 -10t15.5 -27 q15 -3 25.5 -15t10.5 -29q0 -16 -15 -37l-13 -13q-2 -2 -6 -5.5t-6 -4.5q-12 -13 -31 -13h-60q-18 0 -31 13q-9 9 -22 21t-17 16q-11 11 -15 16q-4 4 -11 10.5t-9 8.5q-16 16 -20 24q-5 12 -5 30v51q0 17 12 29l59 60q5 5 7 12v8v5q-25 17 -25 49v184h-165q-12 0 -21 -9 t-9 -20v-190q0 -26 -17.5 -42.5t-42.5 -16.5q-19 0 -34 10.5t-21 27.5q-39 15 -39 56v498q0 27 16 43l104 102q18 18 42 18h143q26 0 43 -17l32 -32l3 -3l102 -103q18 -18 18 -43zM545 -37v584q0 21 -15 36l-102 103q-14 14 -36 14h-143q-20 0 -35 -15l-104 -102 q-13 -13 -13 -36v-498q0 -20 14 -34.5t35 -14.5t35.5 14.5t14.5 34.5v190q0 16 11.5 27.5t28.5 11.5h170q17 0 28.5 -11.5t11.5 -27.5v-190q0 -30 25 -43v-17q0 -13 -10 -21l-59 -60q-9 -11 -9 -22v-60q0 -15 9 -24l52 -51q10 -10 24 -10h60q14 0 24 10l26 26q11 11 11 27 q0 15 -11 25.5t-26 10.5q-16 0 -27 -9l-6 -6q-7 -10 -22 -10q-14 0 -21 10l-9 8q-10 7 -10 22t10 22l56 56q12 12 12 30zM446 514v-97q0 -17 -11.5 -28t-28.5 -11h-170q-17 0 -28.5 11t-11.5 28v97q0 12 9 20l57 58q8 8 21 8h76q13 0 21 -8l57 -58q9 -8 9 -20z" glyph-name="Aogonek" unicode="Ą"/><glyph d="M430 527l-24 25q-4 3 -12 3h-76q-9 0 -14 -5l-57 -58q-6 -8 -6 -13v-91h165q13 0 21.5 8.5t8.5 20.5v97q0 7 -6 13zM590 512v-584q0 -20 -14 -37q-9 -13 -28 -28q-10 -8 -14 -13q-3 -2 -12 -11q-6 -7 -8 -13q1 1 2 1q0 1 2 2l2 1l5 5q15 15 37 15q18 0 30.5 -10t15.5 -27 q15 -3 25.5 -15t10.5 -29q0 -16 -15 -37l-13 -13q-2 -2 -6 -5.5t-6 -4.5q-12 -13 -31 -13h-60q-18 0 -31 13q-9 9 -22 21t-17 16q-11 11 -15 16q-4 4 -11 10.5t-9 8.5q-16 16 -20 24q-5 12 -5 30v51q0 17 12 29l59 60q5 5 7 12v8v5q-25 17 -25 49v184h-165q-12 0 -21 -9 t-9 -20v-190q0 -26 -17.5 -42.5t-42.5 -16.5q-19 0 -34 10.5t-21 27.5q-39 15 -39 56v498q0 27 16 43l104 102q18 18 42 18h143q26 0 43 -17l32 -32l3 -3l102 -103q18 -18 18 -43zM545 -37v584q0 21 -15 36l-102 103q-14 14 -36 14h-143q-20 0 -35 -15l-104 -102 q-13 -13 -13 -36v-498q0 -20 14 -34.5t35 -14.5t35.5 14.5t14.5 34.5v190q0 16 11.5 27.5t28.5 11.5h170q17 0 28.5 -11.5t11.5 -27.5v-190q0 -30 25 -43v-17q0 -13 -10 -21l-59 -60q-9 -11 -9 -22v-60q0 -15 9 -24l52 -51q10 -10 24 -10h60q14 0 24 10l26 26q11 11 11 27 q0 15 -11 25.5t-26 10.5q-16 0 -27 -9l-6 -6q-7 -10 -22 -10q-14 0 -21 10l-9 8q-10 7 -10 22t10 22l56 56q12 12 12 30zM446 514v-97q0 -17 -11.5 -28t-28.5 -11h-170q-17 0 -28.5 11t-11.5 28v97q0 12 9 20l57 58q8 8 21 8h76q13 0 21 -8l57 -58q9 -8 9 -20z" glyph-name="aogonek" unicode="ą"/><glyph d="M240 479v-328q0 -7 6 -13l22 -22q8 -6 14 -6h76q6 0 14 6l57 57q6 6 6 13v30q0 25 17.5 42.5t42.5 17.5q41 0 55 -39q17 -6 28 -21.5t11 -34.5v-63q0 -26 -18 -43l-102 -103q-16 -17 -43 -17h-143q-25 0 -43 18l-103 102l-3 3l-32 32q-16 16 -16 43v394q0 27 16 43 l103 102q18 18 43 18h143q26 0 43 -17l32 -32l3 -3l102 -103q18 -18 18 -43v-63q0 -25 -16.5 -42.5t-42.5 -17.5q-42 0 -56 39q-39 14 -39 56v30q0 7 -6 13l-24 25q-5 3 -12 3h-76q-9 0 -14 -5l-57 -58q-6 -8 -6 -13zM195 186v328q0 12 9 20l57 58q8 8 21 8h76q13 0 21 -8 l57 -58q9 -8 9 -20v-30q0 -21 14.5 -35.5t35.5 -14.5q20 0 34.5 14.5t14.5 35.5v63q0 21 -15 36l-102 103q-14 14 -36 14h-143q-21 0 -36 -15l-103 -102q-13 -13 -13 -36v-394q0 -23 13 -36l103 -102q15 -15 36 -15h143q22 0 36 14l102 103q15 15 15 36v63q0 21 -14.5 35.5 t-34.5 14.5q-21 0 -35.5 -14.5t-14.5 -35.5v-30q0 -12 -9 -20l-57 -57q-7 -9 -21 -9h-76q-14 0 -21 9l-57 57q-9 8 -9 20zM416 949q39 -15 39 -55q0 -26 -17 -43l-79 -81q-15 -16 -44 -16q-43 0 -56 39q-39 14 -39 55q0 24 18 42l79 81q16 17 43 17q19 0 34.5 -11t21.5 -28z M316 812l79 81q15 15 15 36q0 20 -15 34.5t-35 14.5q-22 0 -36 -14l-79 -81q-15 -15 -15 -35q0 -21 14.5 -35t35.5 -14q23 0 36 13z" glyph-name="Cacute" unicode="Ć"/><glyph d="M240 479v-328q0 -7 6 -13l22 -22q8 -6 14 -6h76q6 0 14 6l57 57q6 6 6 13v30q0 25 17.5 42.5t42.5 17.5q41 0 55 -39q17 -6 28 -21.5t11 -34.5v-63q0 -26 -18 -43l-102 -103q-16 -17 -43 -17h-143q-25 0 -43 18l-103 102l-3 3l-32 32q-16 16 -16 43v394q0 27 16 43 l103 102q18 18 43 18h143q26 0 43 -17l32 -32l3 -3l102 -103q18 -18 18 -43v-63q0 -25 -16.5 -42.5t-42.5 -17.5q-42 0 -56 39q-39 14 -39 56v30q0 7 -6 13l-24 25q-5 3 -12 3h-76q-9 0 -14 -5l-57 -58q-6 -8 -6 -13zM195 186v328q0 12 9 20l57 58q8 8 21 8h76q13 0 21 -8 l57 -58q9 -8 9 -20v-30q0 -21 14.5 -35.5t35.5 -14.5q20 0 34.5 14.5t14.5 35.5v63q0 21 -15 36l-102 103q-14 14 -36 14h-143q-21 0 -36 -15l-103 -102q-13 -13 -13 -36v-394q0 -23 13 -36l103 -102q15 -15 36 -15h143q22 0 36 14l102 103q15 15 15 36v63q0 21 -14.5 35.5 t-34.5 14.5q-21 0 -35.5 -14.5t-14.5 -35.5v-30q0 -12 -9 -20l-57 -57q-7 -9 -21 -9h-76q-14 0 -21 9l-57 57q-9 8 -9 20zM416 949q39 -15 39 -55q0 -26 -17 -43l-79 -81q-15 -16 -44 -16q-43 0 -56 39q-39 14 -39 55q0 24 18 42l79 81q16 17 43 17q19 0 34.5 -11t21.5 -28z M316 812l79 81q15 15 15 36q0 20 -15 34.5t-35 14.5q-22 0 -36 -14l-79 -81q-15 -15 -15 -35q0 -21 14.5 -35t35.5 -14q23 0 36 13z" glyph-name="cacute" unicode="ć"/><glyph d="M240 479v-328q0 -7 6 -13l22 -22q8 -6 14 -6h76q6 0 14 6l57 57q6 6 6 13v30q0 25 17.5 42.5t42.5 17.5q41 0 55 -39q17 -6 28 -21.5t11 -34.5v-63q0 -26 -18 -43l-102 -103q-16 -17 -43 -17h-143q-25 0 -43 18l-103 102l-3 3l-32 32q-16 16 -16 43v394q0 27 16 43 l103 102q18 18 43 18h143q26 0 43 -17l32 -32l3 -3l102 -103q18 -18 18 -43v-63q0 -25 -16.5 -42.5t-42.5 -17.5q-42 0 -56 39q-39 14 -39 56v30q0 7 -6 13l-24 25q-5 3 -12 3h-76q-9 0 -14 -5l-57 -58q-6 -8 -6 -13zM195 186v328q0 12 9 20l57 58q8 8 21 8h76q13 0 21 -8 l57 -58q9 -8 9 -20v-30q0 -21 14.5 -35.5t35.5 -14.5q20 0 34.5 14.5t14.5 35.5v63q0 21 -15 36l-102 103q-14 14 -36 14h-143q-21 0 -36 -15l-103 -102q-13 -13 -13 -36v-394q0 -23 13 -36l103 -102q15 -15 36 -15h143q22 0 36 14l102 103q15 15 15 36v63q0 21 -14.5 35.5 t-34.5 14.5q-21 0 -35.5 -14.5t-14.5 -35.5v-30q0 -12 -9 -20l-57 -57q-7 -9 -21 -9h-76q-14 0 -21 9l-57 57q-9 8 -9 20zM451 881l4 -4l31 -31q14 -14 14 -39q0 -24 -14.5 -38.5t-38.5 -14.5q-30 0 -58 32q-1 2 -4 5.5t-5 5.5t-3 2q-2 2 -6 5.5t-6 4.5q-4 3 -10 3t-16 -7 q-5 -3 -9 -9q-7 -7 -9 -10q-28 -32 -57 -32q-18 0 -33 10.5t-20 27.5q-37 12 -37 50q0 23 16 39l92 91q16 16 38 16q23 0 39 -16zM260 810l37 37q10 10 23 10t24 -11l36 -36q10 -11 32 -11q43 0 43 43q0 22 -11 32l-92 91q-13 13 -32 13q-18 0 -31 -13l-92 -91 q-13 -12 -13 -32q0 -19 13 -31t32 -12q18 0 31 11z" glyph-name="Ccircumflex" unicode="Ĉ"/><glyph d="M240 479v-328q0 -7 6 -13l22 -22q8 -6 14 -6h76q6 0 14 6l57 57q6 6 6 13v30q0 25 17.5 42.5t42.5 17.5q41 0 55 -39q17 -6 28 -21.5t11 -34.5v-63q0 -26 -18 -43l-102 -103q-16 -17 -43 -17h-143q-25 0 -43 18l-103 102l-3 3l-32 32q-16 16 -16 43v394q0 27 16 43 l103 102q18 18 43 18h143q26 0 43 -17l32 -32l3 -3l102 -103q18 -18 18 -43v-63q0 -25 -16.5 -42.5t-42.5 -17.5q-42 0 -56 39q-39 14 -39 56v30q0 7 -6 13l-24 25q-5 3 -12 3h-76q-9 0 -14 -5l-57 -58q-6 -8 -6 -13zM195 186v328q0 12 9 20l57 58q8 8 21 8h76q13 0 21 -8 l57 -58q9 -8 9 -20v-30q0 -21 14.5 -35.5t35.5 -14.5q20 0 34.5 14.5t14.5 35.5v63q0 21 -15 36l-102 103q-14 14 -36 14h-143q-21 0 -36 -15l-103 -102q-13 -13 -13 -36v-394q0 -23 13 -36l103 -102q15 -15 36 -15h143q22 0 36 14l102 103q15 15 15 36v63q0 21 -14.5 35.5 t-34.5 14.5q-21 0 -35.5 -14.5t-14.5 -35.5v-30q0 -12 -9 -20l-57 -57q-7 -9 -21 -9h-76q-14 0 -21 9l-57 57q-9 8 -9 20zM451 881l4 -4l31 -31q14 -14 14 -39q0 -24 -14.5 -38.5t-38.5 -14.5q-30 0 -58 32q-1 2 -4 5.5t-5 5.5t-3 2q-2 2 -6 5.5t-6 4.5q-4 3 -10 3t-16 -7 q-5 -3 -9 -9q-7 -7 -9 -10q-28 -32 -57 -32q-18 0 -33 10.5t-20 27.5q-37 12 -37 50q0 23 16 39l92 91q16 16 38 16q23 0 39 -16zM260 810l37 37q10 10 23 10t24 -11l36 -36q10 -11 32 -11q43 0 43 43q0 22 -11 32l-92 91q-13 13 -32 13q-18 0 -31 -13l-92 -91 q-13 -12 -13 -32q0 -19 13 -31t32 -12q18 0 31 11z" glyph-name="ccircumflex" unicode="ĉ"/><glyph d="M240 479v-328q0 -7 6 -13l22 -22q8 -6 14 -6h76q6 0 14 6l57 57q6 6 6 13v30q0 25 17.5 42.5t42.5 17.5q41 0 55 -39q17 -6 28 -21.5t11 -34.5v-63q0 -26 -18 -43l-102 -103q-16 -17 -43 -17h-143q-25 0 -43 18l-103 102l-3 3l-32 32q-16 16 -16 43v394q0 27 16 43 l103 102q18 18 43 18h143q26 0 43 -17l32 -32l3 -3l102 -103q18 -18 18 -43v-63q0 -25 -16.5 -42.5t-42.5 -17.5q-42 0 -56 39q-39 14 -39 56v30q0 7 -6 13l-24 25q-5 3 -12 3h-76q-9 0 -14 -5l-57 -58q-6 -8 -6 -13zM195 186v328q0 12 9 20l57 58q8 8 21 8h76q13 0 21 -8 l57 -58q9 -8 9 -20v-30q0 -21 14.5 -35.5t35.5 -14.5q20 0 34.5 14.5t14.5 35.5v63q0 21 -15 36l-102 103q-14 14 -36 14h-143q-21 0 -36 -15l-103 -102q-13 -13 -13 -36v-394q0 -23 13 -36l103 -102q15 -15 36 -15h143q22 0 36 14l102 103q15 15 15 36v63q0 21 -14.5 35.5 t-34.5 14.5q-21 0 -35.5 -14.5t-14.5 -35.5v-30q0 -12 -9 -20l-57 -57q-7 -9 -21 -9h-76q-14 0 -21 9l-57 57q-9 8 -9 20zM369 768h-29q-42 0 -56 39q-39 14 -39 56v29q0 26 17.5 42.5t42.5 16.5h29q42 0 57 -39q38 -13 38 -55v-29q0 -26 -17 -43t-43 -17zM305 813h29 q21 0 35.5 14.5t14.5 35.5v29q0 21 -14.5 35t-35.5 14h-29q-21 0 -35.5 -14t-14.5 -35v-29q0 -21 14.5 -35.5t35.5 -14.5z" glyph-name="Cdotaccent" unicode="Ċ"/><glyph d="M240 479v-328q0 -7 6 -13l22 -22q8 -6 14 -6h76q6 0 14 6l57 57q6 6 6 13v30q0 25 17.5 42.5t42.5 17.5q41 0 55 -39q17 -6 28 -21.5t11 -34.5v-63q0 -26 -18 -43l-102 -103q-16 -17 -43 -17h-143q-25 0 -43 18l-103 102l-3 3l-32 32q-16 16 -16 43v394q0 27 16 43 l103 102q18 18 43 18h143q26 0 43 -17l32 -32l3 -3l102 -103q18 -18 18 -43v-63q0 -25 -16.5 -42.5t-42.5 -17.5q-42 0 -56 39q-39 14 -39 56v30q0 7 -6 13l-24 25q-5 3 -12 3h-76q-9 0 -14 -5l-57 -58q-6 -8 -6 -13zM195 186v328q0 12 9 20l57 58q8 8 21 8h76q13 0 21 -8 l57 -58q9 -8 9 -20v-30q0 -21 14.5 -35.5t35.5 -14.5q20 0 34.5 14.5t14.5 35.5v63q0 21 -15 36l-102 103q-14 14 -36 14h-143q-21 0 -36 -15l-103 -102q-13 -13 -13 -36v-394q0 -23 13 -36l103 -102q15 -15 36 -15h143q22 0 36 14l102 103q15 15 15 36v63q0 21 -14.5 35.5 t-34.5 14.5q-21 0 -35.5 -14.5t-14.5 -35.5v-30q0 -12 -9 -20l-57 -57q-7 -9 -21 -9h-76q-14 0 -21 9l-57 57q-9 8 -9 20zM369 768h-29q-42 0 -56 39q-39 14 -39 56v29q0 26 17.5 42.5t42.5 16.5h29q42 0 57 -39q38 -13 38 -55v-29q0 -26 -17 -43t-43 -17zM305 813h29 q21 0 35.5 14.5t14.5 35.5v29q0 21 -14.5 35t-35.5 14h-29q-21 0 -35.5 -14t-14.5 -35v-29q0 -21 14.5 -35.5t35.5 -14.5z" glyph-name="cdotaccent" unicode="ċ"/><glyph d="M240 479v-328q0 -7 6 -13l22 -22q8 -6 14 -6h76q6 0 14 6l57 57q6 6 6 13v30q0 25 17.5 42.5t42.5 17.5q41 0 55 -39q17 -6 28 -21.5t11 -34.5v-63q0 -26 -18 -43l-102 -103q-16 -17 -43 -17h-143q-25 0 -43 18l-103 102l-3 3l-32 32q-16 16 -16 43v394q0 27 16 43 l103 102q18 18 43 18h143q26 0 43 -17l32 -32l3 -3l102 -103q18 -18 18 -43v-63q0 -25 -16.5 -42.5t-42.5 -17.5q-42 0 -56 39q-39 14 -39 56v30q0 7 -6 13l-24 25q-5 3 -12 3h-76q-9 0 -14 -5l-57 -58q-6 -8 -6 -13zM195 186v328q0 12 9 20l57 58q8 8 21 8h76q13 0 21 -8 l57 -58q9 -8 9 -20v-30q0 -21 14.5 -35.5t35.5 -14.5q20 0 34.5 14.5t14.5 35.5v63q0 21 -15 36l-102 103q-14 14 -36 14h-143q-21 0 -36 -15l-103 -102q-13 -13 -13 -36v-394q0 -23 13 -36l103 -102q15 -15 36 -15h143q22 0 36 14l102 103q15 15 15 36v63q0 21 -14.5 35.5 t-34.5 14.5q-21 0 -35.5 -14.5t-14.5 -35.5v-30q0 -12 -9 -20l-57 -57q-7 -9 -21 -9h-76q-14 0 -21 9l-57 57q-9 8 -9 20zM463 950q37 -11 37 -51q0 -24 -14 -38l-92 -93q-13 -14 -39 -14t-39 14l-32 32l-3 3l-91 92q-16 16 -16 39q0 22 16.5 38t38.5 16q27 0 56 -33 q2 -1 5 -4.5t4 -5.5l6 -6q2 -1 2 -2q2 -1 3 -2q9 -6 15 -6q9 0 16 7q2 1 10 9q2 2 5 5.5t4 4.5q29 33 56 33q40 0 52 -38zM296 930l-36 35q-13 13 -31 13t-31.5 -13.5t-13.5 -30.5q0 -19 13 -32l91 -92q11 -11 32 -11t32 11l92 93q11 13 11 31t-12.5 31t-31.5 13t-31 -13 l-36 -35q-11 -11 -24 -11t-24 11z" glyph-name="Ccaron" unicode="Č"/><glyph d="M240 479v-328q0 -7 6 -13l22 -22q8 -6 14 -6h76q6 0 14 6l57 57q6 6 6 13v30q0 25 17.5 42.5t42.5 17.5q41 0 55 -39q17 -6 28 -21.5t11 -34.5v-63q0 -26 -18 -43l-102 -103q-16 -17 -43 -17h-143q-25 0 -43 18l-103 102l-3 3l-32 32q-16 16 -16 43v394q0 27 16 43 l103 102q18 18 43 18h143q26 0 43 -17l32 -32l3 -3l102 -103q18 -18 18 -43v-63q0 -25 -16.5 -42.5t-42.5 -17.5q-42 0 -56 39q-39 14 -39 56v30q0 7 -6 13l-24 25q-5 3 -12 3h-76q-9 0 -14 -5l-57 -58q-6 -8 -6 -13zM195 186v328q0 12 9 20l57 58q8 8 21 8h76q13 0 21 -8 l57 -58q9 -8 9 -20v-30q0 -21 14.5 -35.5t35.5 -14.5q20 0 34.5 14.5t14.5 35.5v63q0 21 -15 36l-102 103q-14 14 -36 14h-143q-21 0 -36 -15l-103 -102q-13 -13 -13 -36v-394q0 -23 13 -36l103 -102q15 -15 36 -15h143q22 0 36 14l102 103q15 15 15 36v63q0 21 -14.5 35.5 t-34.5 14.5q-21 0 -35.5 -14.5t-14.5 -35.5v-30q0 -12 -9 -20l-57 -57q-7 -9 -21 -9h-76q-14 0 -21 9l-57 57q-9 8 -9 20zM463 950q37 -11 37 -51q0 -24 -14 -38l-92 -93q-13 -14 -39 -14t-39 14l-32 32l-3 3l-91 92q-16 16 -16 39q0 22 16.5 38t38.5 16q27 0 56 -33 q2 -1 5 -4.5t4 -5.5l6 -6q2 -1 2 -2q2 -1 3 -2q9 -6 15 -6q9 0 16 7q2 1 10 9q2 2 5 5.5t4 4.5q29 33 56 33q40 0 52 -38zM296 930l-36 35q-13 13 -31 13t-31.5 -13.5t-13.5 -30.5q0 -19 13 -32l91 -92q11 -11 32 -11t32 11l92 93q11 13 11 31t-12.5 31t-31.5 13t-31 -13 l-36 -35q-11 -11 -24 -11t-24 11z" glyph-name="ccaron" unicode="č"/><glyph d="M429 527l-24 25q-5 3 -12 3h-123q-12 0 -21 -8.5t-9 -20.5v-416h118q8 0 14 6l57 57q6 6 6 13v328q0 7 -6 13zM589 512v-394q0 -26 -18 -43l-102 -103q-16 -17 -43 -17h-246q-19 0 -34 10.5t-21 27.5q-39 15 -39 56v602q0 25 17 42t42 17h246q26 0 43 -17l32 -32l3 -3 l102 -103q18 -18 18 -43zM436 166l-57 -57q-7 -9 -21 -9h-123q-17 0 -28.5 11t-11.5 28v422q0 17 11.5 28t28.5 11h123q13 0 21 -8l57 -58q9 -8 9 -20v-328q0 -12 -9 -20zM529 583l-102 103q-14 14 -36 14h-246q-21 0 -35 -14.5t-14 -34.5v-602q0 -20 14 -34.5t35 -14.5h246 q22 0 36 14l102 103q15 15 15 36v394q0 21 -15 36zM463 950q37 -11 37 -51q0 -24 -14 -38l-92 -93q-13 -14 -39 -14t-39 14l-32 32l-3 3l-91 92q-16 16 -16 39q0 22 16.5 38t38.5 16q27 0 56 -33q2 -1 5 -4.5t4 -5.5l6 -6q2 -1 2 -2q2 -1 3 -2q9 -6 15 -6q9 0 16 7q2 1 10 9 q2 2 5 5.5t4 4.5q29 33 56 33q40 0 52 -38zM296 930l-36 35q-13 13 -31 13t-31.5 -13.5t-13.5 -30.5q0 -19 13 -32l91 -92q11 -11 32 -11t32 11l92 93q11 13 11 31t-12.5 31t-31.5 13t-31 -13l-36 -35q-11 -11 -24 -11t-24 11z" glyph-name="Dcaron" unicode="Ď"/><glyph d="M429 527l-24 25q-5 3 -12 3h-123q-12 0 -21 -8.5t-9 -20.5v-416h118q8 0 14 6l57 57q6 6 6 13v328q0 7 -6 13zM589 512v-394q0 -26 -18 -43l-102 -103q-16 -17 -43 -17h-246q-19 0 -34 10.5t-21 27.5q-39 15 -39 56v602q0 25 17 42t42 17h246q26 0 43 -17l32 -32l3 -3 l102 -103q18 -18 18 -43zM436 166l-57 -57q-7 -9 -21 -9h-123q-17 0 -28.5 11t-11.5 28v422q0 17 11.5 28t28.5 11h123q13 0 21 -8l57 -58q9 -8 9 -20v-328q0 -12 -9 -20zM529 583l-102 103q-14 14 -36 14h-246q-21 0 -35 -14.5t-14 -34.5v-602q0 -20 14 -34.5t35 -14.5h246 q22 0 36 14l102 103q15 15 15 36v394q0 21 -15 36zM462 944q37 -11 37 -51q0 -25 -15 -37l-91 -92q-15 -15 -38 -15q-26 0 -40 15l-31 32q-1 1 -4 3l-90 91q-16 16 -16 38q0 23 15.5 38.5t38.5 15.5q28 0 57 -33q1 -2 4 -5.5t5 -5.5h1l1 -1q10 -8 13 -11q5 -3 11 -3 q8 0 15 7q2 1 9 8q2 2 5 5.5t4 5.5q29 33 57 33q40 0 52 -38zM295 924l-35 36q-14 12 -32 12q-16 0 -31 -12q-13 -13 -13 -32q0 -18 13 -31l90 -91q12 -12 33 -12q19 0 31 12l91 92q12 14 12 30q0 19 -13 31.5t-31 12.5t-32 -12l-35 -36q-11 -11 -23 -11q-14 0 -25 11z" glyph-name="dcaron" unicode="ď"/><glyph d="M435 186v116q-12 -46 -58 -46h-137v-146h118q6 0 14 6l57 57q6 6 6 13zM429 527l-24 25q-5 3 -12 3h-123q-12 0 -21 -8.5t-9 -20.5v-116h102q42 0 56 -39q31 -10 37 -42v185q0 7 -6 13zM434 693l32 -32l3 -3l102 -103q18 -18 18 -43v-394q0 -26 -18 -43l-102 -103 q-16 -17 -43 -17h-246q-19 0 -34 10.5t-21 27.5q-39 15 -39 56v213q-25 12 -31 34q-38 12 -38 55q0 31 20 45t49 14v241q0 25 17 42t42 17h246q26 0 43 -17zM96 651v-241q0 -10 -10 -10h-10q-21 0 -35 -14t-14 -35q0 -22 14 -36t35 -14h10q10 0 10 -10v-242q0 -20 14 -34.5 t35 -14.5h246q22 0 36 14l102 103q15 15 15 36v394q0 21 -15 36l-102 103q-14 14 -36 14h-246q-21 0 -35 -14.5t-14 -34.5zM195 139v152q0 10 10 10h137q21 0 35 14t14 36q0 21 -14 35t-35 14h-137q-10 0 -10 10v151q0 17 11.5 28t28.5 11h123q13 0 21 -8l57 -58q9 -8 9 -20 v-328q0 -12 -9 -20l-57 -57q-7 -9 -21 -9h-123q-17 0 -28.5 11t-11.5 28z" glyph-name="Dcroat" unicode="Đ"/><glyph d="M435 186v116q-12 -46 -58 -46h-137v-146h118q6 0 14 6l57 57q6 6 6 13zM429 527l-24 25q-5 3 -12 3h-123q-12 0 -21 -8.5t-9 -20.5v-116h102q42 0 56 -39q31 -10 37 -42v185q0 7 -6 13zM434 693l32 -32l3 -3l102 -103q18 -18 18 -43v-394q0 -26 -18 -43l-102 -103 q-16 -17 -43 -17h-246q-19 0 -34 10.5t-21 27.5q-39 15 -39 56v213q-25 12 -31 34q-38 12 -38 55q0 31 20 45t49 14v241q0 25 17 42t42 17h246q26 0 43 -17zM96 651v-241q0 -10 -10 -10h-10q-21 0 -35 -14t-14 -35q0 -22 14 -36t35 -14h10q10 0 10 -10v-242q0 -20 14 -34.5 t35 -14.5h246q22 0 36 14l102 103q15 15 15 36v394q0 21 -15 36l-102 103q-14 14 -36 14h-246q-21 0 -35 -14.5t-14 -34.5zM195 139v152q0 10 10 10h137q21 0 35 14t14 36q0 21 -14 35t-35 14h-137q-10 0 -10 10v151q0 17 11.5 28t28.5 11h123q13 0 21 -8l57 -58q9 -8 9 -20 v-328q0 -12 -9 -20l-57 -57q-7 -9 -21 -9h-123q-17 0 -28.5 11t-11.5 28z" glyph-name="dcroat" unicode="đ"/><glyph d="M550 671q39 -14 39 -55q0 -25 -16.5 -43t-42.5 -18h-260q-12 0 -21 -8.5t-9 -20.5v-117h188q42 0 57 -39q17 -6 27.5 -21t10.5 -34q0 -25 -17.5 -42.5t-42.5 -17.5h-193q-12 0 -21 -9.5t-9 -21.5v-114h255q40 0 55 -39q17 -6 28 -22t11 -35q0 -25 -17 -42t-42 -17h-350 q-19 0 -34 10.5t-21 27.5q-39 15 -39 56v602q0 25 17 42t42 17h350q41 0 55 -39zM96 651v-602q0 -20 14 -34.5t35 -14.5h350q20 0 34.5 14.5t14.5 34.5q0 21 -14.5 36t-34.5 15h-260q-17 0 -28.5 11t-11.5 28v120q0 17 11.5 29t28.5 12h193q20 0 35 14.5t15 35.5t-14.5 35 t-35.5 14h-193q-17 0 -28.5 12t-11.5 29v121q0 17 11.5 28t28.5 11h260q20 0 34.5 15t14.5 36q0 20 -14.5 34.5t-34.5 14.5h-350q-21 0 -35 -14.5t-14 -34.5zM448 763h-186q-42 0 -55 38q-39 15 -39 57q0 25 17 42.5t42 17.5h186q41 0 55 -39q17 -6 28 -21.5t11 -34.5 q0 -25 -16.5 -42.5t-42.5 -17.5zM227 808h186q21 0 35 14.5t14 35.5t-14 35.5t-35 14.5h-186q-21 0 -35 -14.5t-14 -35.5t14 -35.5t35 -14.5z" glyph-name="Emacron" unicode="Ē"/><glyph d="M550 671q39 -14 39 -55q0 -25 -16.5 -43t-42.5 -18h-260q-12 0 -21 -8.5t-9 -20.5v-117h188q42 0 57 -39q17 -6 27.5 -21t10.5 -34q0 -25 -17.5 -42.5t-42.5 -17.5h-193q-12 0 -21 -9.5t-9 -21.5v-114h255q40 0 55 -39q17 -6 28 -22t11 -35q0 -25 -17 -42t-42 -17h-350 q-19 0 -34 10.5t-21 27.5q-39 15 -39 56v602q0 25 17 42t42 17h350q41 0 55 -39zM96 651v-602q0 -20 14 -34.5t35 -14.5h350q20 0 34.5 14.5t14.5 34.5q0 21 -14.5 36t-34.5 15h-260q-17 0 -28.5 11t-11.5 28v120q0 17 11.5 29t28.5 12h193q20 0 35 14.5t15 35.5t-14.5 35 t-35.5 14h-193q-17 0 -28.5 12t-11.5 29v121q0 17 11.5 28t28.5 11h260q20 0 34.5 15t14.5 36q0 20 -14.5 34.5t-34.5 14.5h-350q-21 0 -35 -14.5t-14 -34.5zM448 763h-186q-42 0 -55 38q-39 15 -39 57q0 25 17 42.5t42 17.5h186q41 0 55 -39q17 -6 28 -21.5t11 -34.5 q0 -25 -16.5 -42.5t-42.5 -17.5zM227 808h186q21 0 35 14.5t14 35.5t-14 35.5t-35 14.5h-186q-21 0 -35 -14.5t-14 -35.5t14 -35.5t35 -14.5z" glyph-name="emacron" unicode="ē"/><glyph d="M550 671q39 -14 39 -55q0 -25 -16.5 -43t-42.5 -18h-260q-12 0 -21 -8.5t-9 -20.5v-117h188q42 0 57 -39q17 -6 27.5 -21t10.5 -34q0 -25 -17.5 -42.5t-42.5 -17.5h-193q-12 0 -21 -9.5t-9 -21.5v-114h255q40 0 55 -39q17 -6 28 -22t11 -35q0 -25 -17 -42t-42 -17h-350 q-19 0 -34 10.5t-21 27.5q-39 15 -39 56v602q0 25 17 42t42 17h350q41 0 55 -39zM96 651v-602q0 -20 14 -34.5t35 -14.5h350q20 0 34.5 14.5t14.5 34.5q0 21 -14.5 36t-34.5 15h-260q-17 0 -28.5 11t-11.5 28v120q0 17 11.5 29t28.5 12h193q20 0 35 14.5t15 35.5t-14.5 35 t-35.5 14h-193q-17 0 -28.5 12t-11.5 29v121q0 17 11.5 28t28.5 11h260q20 0 34.5 15t14.5 36q0 20 -14.5 34.5t-34.5 14.5h-350q-21 0 -35 -14.5t-14 -34.5zM459 951q16 -5 26.5 -18.5t10.5 -30.5v-42q0 -23 -13 -34l-59 -60q-12 -12 -35 -12h-68q-23 0 -35 12l-31 31l-4 4 l-59 60q-13 13 -13 34v42q0 21 15.5 36t36.5 15q35 0 48 -37q38 -9 38 -59v-1h5q7 0 14 6q7 7 9 8q1 1 3 4t4 4q6 6 6 14q0 61 51 61q39 0 50 -37zM272 927v10q0 17 -12 29t-29 12q-18 0 -30 -12t-12 -29v-42q0 -17 10 -27l59 -60q9 -9 28 -9h68q19 0 28 9l59 60 q10 10 10 27v42q0 17 -12 29t-30 12t-29.5 -12t-11.5 -29v-10q0 -13 -9 -21l-16 -16q-9 -9 -21 -9h-5q-13 0 -20 9l-16 16q-9 8 -9 21z" glyph-name="Ebreve" unicode="Ĕ"/><glyph d="M550 671q39 -14 39 -55q0 -25 -16.5 -43t-42.5 -18h-260q-12 0 -21 -8.5t-9 -20.5v-117h188q42 0 57 -39q17 -6 27.5 -21t10.5 -34q0 -25 -17.5 -42.5t-42.5 -17.5h-193q-12 0 -21 -9.5t-9 -21.5v-114h255q40 0 55 -39q17 -6 28 -22t11 -35q0 -25 -17 -42t-42 -17h-350 q-19 0 -34 10.5t-21 27.5q-39 15 -39 56v602q0 25 17 42t42 17h350q41 0 55 -39zM96 651v-602q0 -20 14 -34.5t35 -14.5h350q20 0 34.5 14.5t14.5 34.5q0 21 -14.5 36t-34.5 15h-260q-17 0 -28.5 11t-11.5 28v120q0 17 11.5 29t28.5 12h193q20 0 35 14.5t15 35.5t-14.5 35 t-35.5 14h-193q-17 0 -28.5 12t-11.5 29v121q0 17 11.5 28t28.5 11h260q20 0 34.5 15t14.5 36q0 20 -14.5 34.5t-34.5 14.5h-350q-21 0 -35 -14.5t-14 -34.5zM459 951q16 -5 26.5 -18.5t10.5 -30.5v-42q0 -23 -13 -34l-59 -60q-12 -12 -35 -12h-68q-23 0 -35 12l-31 31l-4 4 l-59 60q-13 13 -13 34v42q0 21 15.5 36t36.5 15q35 0 48 -37q38 -9 38 -59v-1h5q7 0 14 6q7 7 9 8q1 1 3 4t4 4q6 6 6 14q0 61 51 61q39 0 50 -37zM272 927v10q0 17 -12 29t-29 12q-18 0 -30 -12t-12 -29v-42q0 -17 10 -27l59 -60q9 -9 28 -9h68q19 0 28 9l59 60 q10 10 10 27v42q0 17 -12 29t-30 12t-29.5 -12t-11.5 -29v-10q0 -13 -9 -21l-16 -16q-9 -9 -21 -9h-5q-13 0 -20 9l-16 16q-9 8 -9 21z" glyph-name="ebreve" unicode="ĕ"/><glyph d="M550 671q39 -14 39 -55q0 -25 -16.5 -43t-42.5 -18h-260q-12 0 -21 -8.5t-9 -20.5v-117h188q42 0 57 -39q17 -6 27.5 -21t10.5 -34q0 -25 -17.5 -42.5t-42.5 -17.5h-193q-12 0 -21 -9.5t-9 -21.5v-114h255q40 0 55 -39q17 -6 28 -22t11 -35q0 -25 -17 -42t-42 -17h-350 q-19 0 -34 10.5t-21 27.5q-39 15 -39 56v602q0 25 17 42t42 17h350q41 0 55 -39zM96 651v-602q0 -20 14 -34.5t35 -14.5h350q20 0 34.5 14.5t14.5 34.5q0 21 -14.5 36t-34.5 15h-260q-17 0 -28.5 11t-11.5 28v120q0 17 11.5 29t28.5 12h193q20 0 35 14.5t15 35.5t-14.5 35 t-35.5 14h-193q-17 0 -28.5 12t-11.5 29v121q0 17 11.5 28t28.5 11h260q20 0 34.5 15t14.5 36q0 20 -14.5 34.5t-34.5 14.5h-350q-21 0 -35 -14.5t-14 -34.5zM369 768h-29q-42 0 -56 39q-39 14 -39 56v29q0 26 17.5 42.5t42.5 16.5h29q42 0 57 -39q38 -13 38 -55v-29 q0 -26 -17 -43t-43 -17zM305 813h29q21 0 35.5 14.5t14.5 35.5v29q0 21 -14.5 35t-35.5 14h-29q-21 0 -35.5 -14t-14.5 -35v-29q0 -21 14.5 -35.5t35.5 -14.5z" glyph-name="Edotaccent" unicode="Ė"/><glyph d="M550 671q39 -14 39 -55q0 -25 -16.5 -43t-42.5 -18h-260q-12 0 -21 -8.5t-9 -20.5v-117h188q42 0 57 -39q17 -6 27.5 -21t10.5 -34q0 -25 -17.5 -42.5t-42.5 -17.5h-193q-12 0 -21 -9.5t-9 -21.5v-114h255q40 0 55 -39q17 -6 28 -22t11 -35q0 -25 -17 -42t-42 -17h-350 q-19 0 -34 10.5t-21 27.5q-39 15 -39 56v602q0 25 17 42t42 17h350q41 0 55 -39zM96 651v-602q0 -20 14 -34.5t35 -14.5h350q20 0 34.5 14.5t14.5 34.5q0 21 -14.5 36t-34.5 15h-260q-17 0 -28.5 11t-11.5 28v120q0 17 11.5 29t28.5 12h193q20 0 35 14.5t15 35.5t-14.5 35 t-35.5 14h-193q-17 0 -28.5 12t-11.5 29v121q0 17 11.5 28t28.5 11h260q20 0 34.5 15t14.5 36q0 20 -14.5 34.5t-34.5 14.5h-350q-21 0 -35 -14.5t-14 -34.5zM369 768h-29q-42 0 -56 39q-39 14 -39 56v29q0 26 17.5 42.5t42.5 16.5h29q42 0 57 -39q38 -13 38 -55v-29 q0 -26 -17 -43t-43 -17zM305 813h29q21 0 35.5 14.5t14.5 35.5v29q0 21 -14.5 35t-35.5 14h-29q-21 0 -35.5 -14t-14.5 -35v-29q0 -21 14.5 -35.5t35.5 -14.5z" glyph-name="edotaccent" unicode="ė"/><glyph d="M394 -85l39 40h-253q-19 0 -34 10.5t-21 27.5q-39 15 -39 56v602q0 25 17 42t42 17h350q41 0 55 -39q39 -14 39 -55q0 -25 -16.5 -43t-42.5 -18h-260q-12 0 -21 -8.5t-9 -20.5v-117h188q42 0 57 -39q17 -6 27.5 -21t10.5 -34q0 -25 -17.5 -42.5t-42.5 -17.5h-193 q-12 0 -21 -9.5t-9 -21.5v-114h255q40 0 54 -38q40 -13 40 -61v-83q0 -18 -14 -37q-9 -13 -28 -28q-10 -8 -14 -13q-2 -2 -6 -5.5t-6 -5.5q-6 -7 -8 -13q1 1 2 1l2 2t2 1l5 5q15 15 37 15q18 0 30.5 -10t15.5 -27q15 -3 25.5 -15t10.5 -29q0 -16 -15 -37l-13 -13 q-2 -2 -6 -5.5t-6 -4.5q-12 -13 -31 -13h-60q-18 0 -31 13q-12 12 -39 36q-7 7 -15 17q-4 4 -11 10.5t-9 8.5q-15 15 -20 24q-5 12 -5 30v51q0 17 12 29zM96 651v-602q0 -20 14 -34.5t35 -14.5h325v-11q0 -13 -10 -21l-59 -60q-9 -11 -9 -22v-60q0 -15 9 -24l52 -51 q10 -10 24 -10h60q14 0 24 10l26 26q11 11 11 27q0 15 -11 25.5t-26 10.5q-17 0 -27 -9l-6 -6q-7 -10 -22 -10q-14 0 -21 10l-9 8q-10 7 -10 22t10 22l56 56q12 12 12 30v83q0 23 -13.5 38.5t-35.5 15.5h-260q-17 0 -28.5 11t-11.5 28v120q0 17 11.5 29t28.5 12h193 q20 0 35 14.5t15 35.5t-14.5 35t-35.5 14h-193q-17 0 -28.5 12t-11.5 29v121q0 17 11.5 28t28.5 11h260q20 0 34.5 15t14.5 36q0 20 -14.5 34.5t-34.5 14.5h-350q-21 0 -35 -14.5t-14 -34.5z" glyph-name="Eogonek" unicode="Ę"/><glyph d="M394 -85l39 40h-253q-19 0 -34 10.5t-21 27.5q-39 15 -39 56v602q0 25 17 42t42 17h350q41 0 55 -39q39 -14 39 -55q0 -25 -16.5 -43t-42.5 -18h-260q-12 0 -21 -8.5t-9 -20.5v-117h188q42 0 57 -39q17 -6 27.5 -21t10.5 -34q0 -25 -17.5 -42.5t-42.5 -17.5h-193 q-12 0 -21 -9.5t-9 -21.5v-114h255q40 0 54 -38q40 -13 40 -61v-83q0 -18 -14 -37q-9 -13 -28 -28q-10 -8 -14 -13q-2 -2 -6 -5.5t-6 -5.5q-6 -7 -8 -13q1 1 2 1l2 2t2 1l5 5q15 15 37 15q18 0 30.5 -10t15.5 -27q15 -3 25.5 -15t10.5 -29q0 -16 -15 -37l-13 -13 q-2 -2 -6 -5.5t-6 -4.5q-12 -13 -31 -13h-60q-18 0 -31 13q-12 12 -39 36q-7 7 -15 17q-4 4 -11 10.5t-9 8.5q-15 15 -20 24q-5 12 -5 30v51q0 17 12 29zM96 651v-602q0 -20 14 -34.5t35 -14.5h325v-11q0 -13 -10 -21l-59 -60q-9 -11 -9 -22v-60q0 -15 9 -24l52 -51 q10 -10 24 -10h60q14 0 24 10l26 26q11 11 11 27q0 15 -11 25.5t-26 10.5q-17 0 -27 -9l-6 -6q-7 -10 -22 -10q-14 0 -21 10l-9 8q-10 7 -10 22t10 22l56 56q12 12 12 30v83q0 23 -13.5 38.5t-35.5 15.5h-260q-17 0 -28.5 11t-11.5 28v120q0 17 11.5 29t28.5 12h193 q20 0 35 14.5t15 35.5t-14.5 35t-35.5 14h-193q-17 0 -28.5 12t-11.5 29v121q0 17 11.5 28t28.5 11h260q20 0 34.5 15t14.5 36q0 20 -14.5 34.5t-34.5 14.5h-350q-21 0 -35 -14.5t-14 -34.5z" glyph-name="eogonek" unicode="ę"/><glyph d="M550 671q39 -14 39 -55q0 -25 -16.5 -43t-42.5 -18h-260q-12 0 -21 -8.5t-9 -20.5v-117h188q42 0 57 -39q17 -6 27.5 -21t10.5 -34q0 -25 -17.5 -42.5t-42.5 -17.5h-193q-12 0 -21 -9.5t-9 -21.5v-114h255q40 0 55 -39q17 -6 28 -22t11 -35q0 -25 -17 -42t-42 -17h-350 q-19 0 -34 10.5t-21 27.5q-39 15 -39 56v602q0 25 17 42t42 17h350q41 0 55 -39zM96 651v-602q0 -20 14 -34.5t35 -14.5h350q20 0 34.5 14.5t14.5 34.5q0 21 -14.5 36t-34.5 15h-260q-17 0 -28.5 11t-11.5 28v120q0 17 11.5 29t28.5 12h193q20 0 35 14.5t15 35.5t-14.5 35 t-35.5 14h-193q-17 0 -28.5 12t-11.5 29v121q0 17 11.5 28t28.5 11h260q20 0 34.5 15t14.5 36q0 20 -14.5 34.5t-34.5 14.5h-350q-21 0 -35 -14.5t-14 -34.5zM463 950q37 -11 37 -51q0 -24 -14 -38l-92 -93q-13 -14 -39 -14t-39 14l-32 32l-3 3l-91 92q-16 16 -16 39 q0 22 16.5 38t38.5 16q27 0 56 -33q2 -1 5 -4.5t4 -5.5l6 -6q2 -1 2 -2q2 -1 3 -2q9 -6 15 -6q9 0 16 7q2 1 10 9q2 2 5 5.5t4 4.5q29 33 56 33q40 0 52 -38zM296 930l-36 35q-13 13 -31 13t-31.5 -13.5t-13.5 -30.5q0 -19 13 -32l91 -92q11 -11 32 -11t32 11l92 93 q11 13 11 31t-12.5 31t-31.5 13t-31 -13l-36 -35q-11 -11 -24 -11t-24 11z" glyph-name="Ecaron" unicode="Ě"/><glyph d="M550 671q39 -14 39 -55q0 -25 -16.5 -43t-42.5 -18h-260q-12 0 -21 -8.5t-9 -20.5v-117h188q42 0 57 -39q17 -6 27.5 -21t10.5 -34q0 -25 -17.5 -42.5t-42.5 -17.5h-193q-12 0 -21 -9.5t-9 -21.5v-114h255q40 0 55 -39q17 -6 28 -22t11 -35q0 -25 -17 -42t-42 -17h-350 q-19 0 -34 10.5t-21 27.5q-39 15 -39 56v602q0 25 17 42t42 17h350q41 0 55 -39zM96 651v-602q0 -20 14 -34.5t35 -14.5h350q20 0 34.5 14.5t14.5 34.5q0 21 -14.5 36t-34.5 15h-260q-17 0 -28.5 11t-11.5 28v120q0 17 11.5 29t28.5 12h193q20 0 35 14.5t15 35.5t-14.5 35 t-35.5 14h-193q-17 0 -28.5 12t-11.5 29v121q0 17 11.5 28t28.5 11h260q20 0 34.5 15t14.5 36q0 20 -14.5 34.5t-34.5 14.5h-350q-21 0 -35 -14.5t-14 -34.5zM463 950q37 -11 37 -51q0 -24 -14 -38l-92 -93q-13 -14 -39 -14t-39 14l-32 32l-3 3l-91 92q-16 16 -16 39 q0 22 16.5 38t38.5 16q27 0 56 -33q2 -1 5 -4.5t4 -5.5l6 -6q2 -1 2 -2q2 -1 3 -2q9 -6 15 -6q9 0 16 7q2 1 10 9q2 2 5 5.5t4 4.5q29 33 56 33q40 0 52 -38zM296 930l-36 35q-13 13 -31 13t-31.5 -13.5t-13.5 -30.5q0 -19 13 -32l91 -92q11 -11 32 -11t32 11l92 93 q11 13 11 31t-12.5 31t-31.5 13t-31 -13l-36 -35q-11 -11 -24 -11t-24 11z" glyph-name="ecaron" unicode="ě"/><glyph d="M414 555h-118q-5 0 -13 -5l-37 -37q-6 -7 -6 -14v-368q0 -5 3 -10l5 -5q6 -6 13 -6h118q5 0 13 6l37 36q6 6 6 14v89h-54q-42 0 -56 39q-39 14 -39 56q0 26 17.5 42.5t42.5 16.5h149q41 0 56 -39q17 -6 27.5 -21t10.5 -34v-217q0 -27 -17 -43l-82 -82q-16 -18 -44 -18 h-183q-25 0 -43 18l-83 82l-3 3l-32 32q-16 16 -16 43v435q0 26 16 42l83 82q18 18 43 18h183q26 0 44 -18l35 -35l47 -47l35 -35q16 -16 18 -45q1 -9 0 -23.5t-1 -18.5q0 -25 -16.5 -42.5t-42.5 -17.5q-42 0 -56 39q-39 14 -39 56v11q0 6 -6 14l-2 2q-5 5 -13 5zM445 534 v-11q0 -21 14.5 -35.5t35.5 -14.5q20 0 34.5 14.5t14.5 35.5v45q0 21 -14 35l-82 82q-15 15 -37 15h-183q-21 0 -36 -15l-83 -82q-13 -16 -13 -35v-435q0 -23 13 -36l83 -82q15 -15 36 -15h183q22 0 37 15l82 82q14 14 14 36v217q0 21 -14.5 35t-34.5 14h-149 q-21 0 -35.5 -14t-14.5 -35t14.5 -35.5t35.5 -14.5h59q17 0 28.5 -11.5t11.5 -28.5v-94q0 -14 -9 -21l-37 -36q-7 -9 -20 -9h-118q-13 0 -20 9l-37 36q-9 7 -9 21v368q0 14 9 21l37 37q8 8 20 8h118q12 0 20 -8l37 -37q9 -7 9 -21zM451 881l4 -4l31 -31q14 -14 14 -39 q0 -24 -14.5 -38.5t-38.5 -14.5q-30 0 -58 32q-1 2 -4 5.5t-5 5.5t-3 2q-2 2 -6 5.5t-6 4.5q-4 3 -10 3t-16 -7q-5 -3 -9 -9q-7 -7 -9 -10q-28 -32 -57 -32q-18 0 -33 10.5t-20 27.5q-37 12 -37 50q0 23 16 39l92 91q16 16 38 16q23 0 39 -16zM260 810l37 37q10 10 23 10 t24 -11l36 -36q10 -11 32 -11q43 0 43 43q0 22 -11 32l-92 91q-13 13 -32 13q-18 0 -31 -13l-92 -91q-13 -12 -13 -32q0 -19 13 -31t32 -12q18 0 31 11z" glyph-name="Gcircumflex" unicode="Ĝ"/><glyph d="M414 555h-118q-5 0 -13 -5l-37 -37q-6 -7 -6 -14v-368q0 -5 3 -10l5 -5q6 -6 13 -6h118q5 0 13 6l37 36q6 6 6 14v89h-54q-42 0 -56 39q-39 14 -39 56q0 26 17.5 42.5t42.5 16.5h149q41 0 56 -39q17 -6 27.5 -21t10.5 -34v-217q0 -27 -17 -43l-82 -82q-16 -18 -44 -18 h-183q-25 0 -43 18l-83 82l-3 3l-32 32q-16 16 -16 43v435q0 26 16 42l83 82q18 18 43 18h183q26 0 44 -18l35 -35l47 -47l35 -35q16 -16 18 -45q1 -9 0 -23.5t-1 -18.5q0 -25 -16.5 -42.5t-42.5 -17.5q-42 0 -56 39q-39 14 -39 56v11q0 6 -6 14l-2 2q-5 5 -13 5zM445 534 v-11q0 -21 14.5 -35.5t35.5 -14.5q20 0 34.5 14.5t14.5 35.5v45q0 21 -14 35l-82 82q-15 15 -37 15h-183q-21 0 -36 -15l-83 -82q-13 -16 -13 -35v-435q0 -23 13 -36l83 -82q15 -15 36 -15h183q22 0 37 15l82 82q14 14 14 36v217q0 21 -14.5 35t-34.5 14h-149 q-21 0 -35.5 -14t-14.5 -35t14.5 -35.5t35.5 -14.5h59q17 0 28.5 -11.5t11.5 -28.5v-94q0 -14 -9 -21l-37 -36q-7 -9 -20 -9h-118q-13 0 -20 9l-37 36q-9 7 -9 21v368q0 14 9 21l37 37q8 8 20 8h118q12 0 20 -8l37 -37q9 -7 9 -21zM451 881l4 -4l31 -31q14 -14 14 -39 q0 -24 -14.5 -38.5t-38.5 -14.5q-30 0 -58 32q-1 2 -4 5.5t-5 5.5t-3 2q-2 2 -6 5.5t-6 4.5q-4 3 -10 3t-16 -7q-5 -3 -9 -9q-7 -7 -9 -10q-28 -32 -57 -32q-18 0 -33 10.5t-20 27.5q-37 12 -37 50q0 23 16 39l92 91q16 16 38 16q23 0 39 -16zM260 810l37 37q10 10 23 10 t24 -11l36 -36q10 -11 32 -11q43 0 43 43q0 22 -11 32l-92 91q-13 13 -32 13q-18 0 -31 -13l-92 -91q-13 -12 -13 -32q0 -19 13 -31t32 -12q18 0 31 11z" glyph-name="gcircumflex" unicode="ĝ"/><glyph d="M414 555h-118q-5 0 -13 -5l-37 -37q-6 -7 -6 -14v-368q0 -5 3 -10l5 -5q6 -6 13 -6h118q5 0 13 6l37 36q6 6 6 14v89h-54q-42 0 -56 39q-39 14 -39 56q0 26 17.5 42.5t42.5 16.5h149q41 0 56 -39q17 -6 27.5 -21t10.5 -34v-217q0 -27 -17 -43l-82 -82q-16 -18 -44 -18 h-183q-25 0 -43 18l-83 82l-3 3l-32 32q-16 16 -16 43v435q0 26 16 42l83 82q18 18 43 18h183q26 0 44 -18l35 -35l47 -47l35 -35q16 -16 18 -45q1 -9 0 -23.5t-1 -18.5q0 -25 -16.5 -42.5t-42.5 -17.5q-42 0 -56 39q-39 14 -39 56v11q0 6 -6 14l-2 2q-5 5 -13 5zM445 534 v-11q0 -21 14.5 -35.5t35.5 -14.5q20 0 34.5 14.5t14.5 35.5v45q0 21 -14 35l-82 82q-15 15 -37 15h-183q-21 0 -36 -15l-83 -82q-13 -16 -13 -35v-435q0 -23 13 -36l83 -82q15 -15 36 -15h183q22 0 37 15l82 82q14 14 14 36v217q0 21 -14.5 35t-34.5 14h-149 q-21 0 -35.5 -14t-14.5 -35t14.5 -35.5t35.5 -14.5h59q17 0 28.5 -11.5t11.5 -28.5v-94q0 -14 -9 -21l-37 -36q-7 -9 -20 -9h-118q-13 0 -20 9l-37 36q-9 7 -9 21v368q0 14 9 21l37 37q8 8 20 8h118q12 0 20 -8l37 -37q9 -7 9 -21zM459 951q16 -5 26.5 -18.5t10.5 -30.5v-42 q0 -23 -13 -34l-59 -60q-12 -12 -35 -12h-68q-23 0 -35 12l-31 31l-4 4l-59 60q-13 13 -13 34v42q0 21 15.5 36t36.5 15q35 0 48 -37q38 -9 38 -59v-1h5q7 0 14 6q7 7 9 8q1 1 3 4t4 4q6 6 6 14q0 61 51 61q39 0 50 -37zM272 927v10q0 17 -12 29t-29 12q-18 0 -30 -12 t-12 -29v-42q0 -17 10 -27l59 -60q9 -9 28 -9h68q19 0 28 9l59 60q10 10 10 27v42q0 17 -12 29t-30 12t-29.5 -12t-11.5 -29v-10q0 -13 -9 -21l-16 -16q-9 -9 -21 -9h-5q-13 0 -20 9l-16 16q-9 8 -9 21z" glyph-name="Gbreve" unicode="Ğ"/><glyph d="M414 555h-118q-5 0 -13 -5l-37 -37q-6 -7 -6 -14v-368q0 -5 3 -10l5 -5q6 -6 13 -6h118q5 0 13 6l37 36q6 6 6 14v89h-54q-42 0 -56 39q-39 14 -39 56q0 26 17.5 42.5t42.5 16.5h149q41 0 56 -39q17 -6 27.5 -21t10.5 -34v-217q0 -27 -17 -43l-82 -82q-16 -18 -44 -18 h-183q-25 0 -43 18l-83 82l-3 3l-32 32q-16 16 -16 43v435q0 26 16 42l83 82q18 18 43 18h183q26 0 44 -18l35 -35l47 -47l35 -35q16 -16 18 -45q1 -9 0 -23.5t-1 -18.5q0 -25 -16.5 -42.5t-42.5 -17.5q-42 0 -56 39q-39 14 -39 56v11q0 6 -6 14l-2 2q-5 5 -13 5zM445 534 v-11q0 -21 14.5 -35.5t35.5 -14.5q20 0 34.5 14.5t14.5 35.5v45q0 21 -14 35l-82 82q-15 15 -37 15h-183q-21 0 -36 -15l-83 -82q-13 -16 -13 -35v-435q0 -23 13 -36l83 -82q15 -15 36 -15h183q22 0 37 15l82 82q14 14 14 36v217q0 21 -14.5 35t-34.5 14h-149 q-21 0 -35.5 -14t-14.5 -35t14.5 -35.5t35.5 -14.5h59q17 0 28.5 -11.5t11.5 -28.5v-94q0 -14 -9 -21l-37 -36q-7 -9 -20 -9h-118q-13 0 -20 9l-37 36q-9 7 -9 21v368q0 14 9 21l37 37q8 8 20 8h118q12 0 20 -8l37 -37q9 -7 9 -21zM459 951q16 -5 26.5 -18.5t10.5 -30.5v-42 q0 -23 -13 -34l-59 -60q-12 -12 -35 -12h-68q-23 0 -35 12l-31 31l-4 4l-59 60q-13 13 -13 34v42q0 21 15.5 36t36.5 15q35 0 48 -37q38 -9 38 -59v-1h5q7 0 14 6q7 7 9 8q1 1 3 4t4 4q6 6 6 14q0 61 51 61q39 0 50 -37zM272 927v10q0 17 -12 29t-29 12q-18 0 -30 -12 t-12 -29v-42q0 -17 10 -27l59 -60q9 -9 28 -9h68q19 0 28 9l59 60q10 10 10 27v42q0 17 -12 29t-30 12t-29.5 -12t-11.5 -29v-10q0 -13 -9 -21l-16 -16q-9 -9 -21 -9h-5q-13 0 -20 9l-16 16q-9 8 -9 21z" glyph-name="gbreve" unicode="ğ"/><glyph d="M414 555h-118q-5 0 -13 -5l-37 -37q-6 -7 -6 -14v-368q0 -5 3 -10l5 -5q6 -6 13 -6h118q5 0 13 6l37 36q6 6 6 14v89h-54q-42 0 -56 39q-39 14 -39 56q0 26 17.5 42.5t42.5 16.5h149q41 0 56 -39q17 -6 27.5 -21t10.5 -34v-217q0 -27 -17 -43l-82 -82q-16 -18 -44 -18 h-183q-25 0 -43 18l-83 82l-3 3l-32 32q-16 16 -16 43v435q0 26 16 42l83 82q18 18 43 18h183q26 0 44 -18l35 -35l47 -47l35 -35q16 -16 18 -45q1 -9 0 -23.5t-1 -18.5q0 -25 -16.5 -42.5t-42.5 -17.5q-42 0 -56 39q-39 14 -39 56v11q0 6 -6 14l-2 2q-5 5 -13 5zM445 534 v-11q0 -21 14.5 -35.5t35.5 -14.5q20 0 34.5 14.5t14.5 35.5v45q0 21 -14 35l-82 82q-15 15 -37 15h-183q-21 0 -36 -15l-83 -82q-13 -16 -13 -35v-435q0 -23 13 -36l83 -82q15 -15 36 -15h183q22 0 37 15l82 82q14 14 14 36v217q0 21 -14.5 35t-34.5 14h-149 q-21 0 -35.5 -14t-14.5 -35t14.5 -35.5t35.5 -14.5h59q17 0 28.5 -11.5t11.5 -28.5v-94q0 -14 -9 -21l-37 -36q-7 -9 -20 -9h-118q-13 0 -20 9l-37 36q-9 7 -9 21v368q0 14 9 21l37 37q8 8 20 8h118q12 0 20 -8l37 -37q9 -7 9 -21zM369 768h-29q-42 0 -56 39q-39 14 -39 56 v29q0 26 17.5 42.5t42.5 16.5h29q42 0 57 -39q38 -13 38 -55v-29q0 -26 -17 -43t-43 -17zM305 813h29q21 0 35.5 14.5t14.5 35.5v29q0 21 -14.5 35t-35.5 14h-29q-21 0 -35.5 -14t-14.5 -35v-29q0 -21 14.5 -35.5t35.5 -14.5z" glyph-name="Gdotaccent" unicode="Ġ"/><glyph d="M414 555h-118q-5 0 -13 -5l-37 -37q-6 -7 -6 -14v-368q0 -5 3 -10l5 -5q6 -6 13 -6h118q5 0 13 6l37 36q6 6 6 14v89h-54q-42 0 -56 39q-39 14 -39 56q0 26 17.5 42.5t42.5 16.5h149q41 0 56 -39q17 -6 27.5 -21t10.5 -34v-217q0 -27 -17 -43l-82 -82q-16 -18 -44 -18 h-183q-25 0 -43 18l-83 82l-3 3l-32 32q-16 16 -16 43v435q0 26 16 42l83 82q18 18 43 18h183q26 0 44 -18l35 -35l47 -47l35 -35q16 -16 18 -45q1 -9 0 -23.5t-1 -18.5q0 -25 -16.5 -42.5t-42.5 -17.5q-42 0 -56 39q-39 14 -39 56v11q0 6 -6 14l-2 2q-5 5 -13 5zM445 534 v-11q0 -21 14.5 -35.5t35.5 -14.5q20 0 34.5 14.5t14.5 35.5v45q0 21 -14 35l-82 82q-15 15 -37 15h-183q-21 0 -36 -15l-83 -82q-13 -16 -13 -35v-435q0 -23 13 -36l83 -82q15 -15 36 -15h183q22 0 37 15l82 82q14 14 14 36v217q0 21 -14.5 35t-34.5 14h-149 q-21 0 -35.5 -14t-14.5 -35t14.5 -35.5t35.5 -14.5h59q17 0 28.5 -11.5t11.5 -28.5v-94q0 -14 -9 -21l-37 -36q-7 -9 -20 -9h-118q-13 0 -20 9l-37 36q-9 7 -9 21v368q0 14 9 21l37 37q8 8 20 8h118q12 0 20 -8l37 -37q9 -7 9 -21zM369 768h-29q-42 0 -56 39q-39 14 -39 56 v29q0 26 17.5 42.5t42.5 16.5h29q42 0 57 -39q38 -13 38 -55v-29q0 -26 -17 -43t-43 -17zM305 813h29q21 0 35.5 14.5t14.5 35.5v29q0 21 -14.5 35t-35.5 14h-29q-21 0 -35.5 -14t-14.5 -35v-29q0 -21 14.5 -35.5t35.5 -14.5z" glyph-name="gdotaccent" unicode="ġ"/><glyph d="M414 555h-118q-5 0 -13 -5l-37 -37q-6 -7 -6 -14v-368q0 -5 3 -10l5 -5q6 -6 13 -6h118q5 0 13 6l37 36q6 6 6 14v89h-54q-42 0 -56 39q-39 14 -39 56q0 26 17.5 42.5t42.5 16.5h149q41 0 56 -39q17 -6 27.5 -21t10.5 -34v-217q0 -27 -17 -43l-82 -82q-16 -18 -44 -18 h-183q-25 0 -43 18l-83 82l-3 3l-32 32q-16 16 -16 43v435q0 26 16 42l83 82q18 18 43 18h183q26 0 44 -18l35 -35l47 -47l35 -35q16 -16 18 -45q1 -9 0 -23.5t-1 -18.5q0 -25 -16.5 -42.5t-42.5 -17.5q-42 0 -56 39q-39 14 -39 56v11q0 6 -6 14l-2 2q-5 5 -13 5zM445 534 v-11q0 -21 14.5 -35.5t35.5 -14.5q20 0 34.5 14.5t14.5 35.5v45q0 21 -14 35l-82 82q-15 15 -37 15h-183q-21 0 -36 -15l-83 -82q-13 -16 -13 -35v-435q0 -23 13 -36l83 -82q15 -15 36 -15h183q22 0 37 15l82 82q14 14 14 36v217q0 21 -14.5 35t-34.5 14h-149 q-21 0 -35.5 -14t-14.5 -35t14.5 -35.5t35.5 -14.5h59q17 0 28.5 -11.5t11.5 -28.5v-94q0 -14 -9 -21l-37 -36q-7 -9 -20 -9h-118q-13 0 -20 9l-37 36q-9 7 -9 21v368q0 14 9 21l37 37q8 8 20 8h118q12 0 20 -8l37 -37q9 -7 9 -21zM415 -109q39 -15 39 -55q0 -26 -18 -43 l-80 -80q-17 -17 -42 -17q-19 0 -34.5 11t-21.5 28q-39 14 -39 55q0 25 18 43l79 80q16 17 43 17q19 0 34.5 -11t21.5 -28zM314 -245l80 80q15 15 15 36q0 20 -15 34.5t-35 14.5q-22 0 -36 -14l-79 -80q-15 -15 -15 -36q0 -20 15 -35q12 -14 35 -14q24 0 35 14z" glyph-name="Gcommaaccent" unicode="Ģ"/><glyph d="M414 555h-118q-5 0 -13 -5l-37 -37q-6 -7 -6 -14v-368q0 -5 3 -10l5 -5q6 -6 13 -6h118q5 0 13 6l37 36q6 6 6 14v89h-54q-42 0 -56 39q-39 14 -39 56q0 26 17.5 42.5t42.5 16.5h149q41 0 56 -39q17 -6 27.5 -21t10.5 -34v-217q0 -27 -17 -43l-82 -82q-16 -18 -44 -18 h-183q-25 0 -43 18l-83 82l-3 3l-32 32q-16 16 -16 43v435q0 26 16 42l83 82q18 18 43 18h183q26 0 44 -18l35 -35l47 -47l35 -35q16 -16 18 -45q1 -9 0 -23.5t-1 -18.5q0 -25 -16.5 -42.5t-42.5 -17.5q-42 0 -56 39q-39 14 -39 56v11q0 6 -6 14l-2 2q-5 5 -13 5zM445 534 v-11q0 -21 14.5 -35.5t35.5 -14.5q20 0 34.5 14.5t14.5 35.5v45q0 21 -14 35l-82 82q-15 15 -37 15h-183q-21 0 -36 -15l-83 -82q-13 -16 -13 -35v-435q0 -23 13 -36l83 -82q15 -15 36 -15h183q22 0 37 15l82 82q14 14 14 36v217q0 21 -14.5 35t-34.5 14h-149 q-21 0 -35.5 -14t-14.5 -35t14.5 -35.5t35.5 -14.5h59q17 0 28.5 -11.5t11.5 -28.5v-94q0 -14 -9 -21l-37 -36q-7 -9 -20 -9h-118q-13 0 -20 9l-37 36q-9 7 -9 21v368q0 14 9 21l37 37q8 8 20 8h118q12 0 20 -8l37 -37q9 -7 9 -21zM416 -108q39 -15 39 -55q0 -25 -18 -43 l-79 -80q-16 -17 -43 -17q-19 0 -34.5 11t-21.5 28q-39 14 -39 55q0 25 18 43l80 80q17 17 42 17q19 0 34.5 -11t21.5 -28zM316 -244l79 80q15 15 15 36q0 18 -15 35q-14 14 -35 14q-24 0 -35 -14l-80 -80q-15 -15 -15 -36q0 -19 15 -35q14 -14 35 -14q22 0 36 14z" glyph-name="gcommaaccent" unicode="ģ"/></font>
</defs>
</svg>
