<?xml version="1.0" standalone="no"?>
<!DOCTYPE svg PUBLIC "-//W3C//DTD SVG 1.1//EN" "http://www.w3.org/Graphics/SVG/1.1/DTD/svg11.dtd">
<svg xmlns="http://www.w3.org/2000/svg"><metadata>This SVG WebFont was generated by YouWorkForThem.
Copyright (c) 2021 by ATKÂ® Studio. All rights reserved.</metadata><defs><font horiz-adv-x="640" id="ywftsvg"><font-face ascent="800" bbox="18 -309 657 1005" cap-height="710" descent="-200" font-family="" font-stretch="normal" font-weight="400" panose-1="0 0 0 0 0 0 0 0 0 0" underline-position="0" underline-thickness="0" unicode-range="U+000D-25C4" units-per-em="1000" x-height="710"/><missing-glyph horiz-adv-x="500"/><glyph glyph-name=".notdef" horiz-adv-x="500"/><glyph glyph-name="glyph1" horiz-adv-x="0"/><glyph glyph-name="glyph3" horiz-adv-x="0"/><glyph glyph-name="glyph3" horiz-adv-x="0"/><glyph glyph-name="space" unicode=" "/><glyph d="M411 620v-410q0 -23 -16.5 -39t-39.5 -16q-40 0 -52 38q-38 12 -38 52v410q0 23 16 39t39 16q18 0 33 -10.5t20 -27.5q38 -13 38 -52zM366 245v410q0 19 -13.5 32t-32.5 13t-32 -13t-13 -32v-410q0 -19 13 -32t32 -13t32.5 13t13.5 32zM375 -45h-40q-40 0 -52 38 q-38 12 -38 52v40q0 23 16 39t39 16h40q40 0 52 -38q38 -12 38 -52v-40q0 -23 -16 -39t-39 -16zM300 0h40q19 0 32 13t13 32v40q0 19 -13 32t-32 13h-40q-19 0 -32 -13t-13 -32v-40q0 -19 13 -32t32 -13z" glyph-name="exclam" unicode="!"/><glyph d="M320 620v-139q0 -23 -16.5 -39t-39.5 -16q-40 0 -52 38q-38 12 -38 52v139q0 23 16 39t39 16q18 0 33 -10.5t20 -27.5q38 -13 38 -52zM502 620v-139q0 -23 -16.5 -39t-39.5 -16q-40 0 -52 38q-38 12 -38 52v139q0 23 16 39t39 16q18 0 33 -10.5t20 -27.5q38 -13 38 -52z M275 516v139q0 19 -13.5 32t-32.5 13t-32 -13t-13 -32v-139q0 -19 13 -32t32 -13t32.5 13t13.5 32zM457 516v139q0 19 -13.5 32t-32.5 13t-32 -13t-13 -32v-139q0 -19 13 -32t32 -13t32.5 13t13.5 32z" glyph-name="quotedbl" unicode="&quot;"/><glyph d="M141 50l15 111q-22 11 -30 33q-38 12 -38 52q0 23 16 39.5t39 16.5h23q7 0 7 6q2 9 4 28t3 28h-2q-39 0 -52 38q-17 5 -27.5 20t-10.5 33q0 23 16 39t39 16h47q7 0 7 6l15 144q3 25 20.5 37t40.5 12q33 0 46 -37q19 -5 29.5 -23t8.5 -36l-10 -103h17q7 0 7 6l15 144 q3 25 20.5 37t40.5 12q32 0 47 -37q18 -5 29 -23t9 -36l-12 -108q24 -11 30 -33q38 -12 38 -52q0 -23 -16 -39.5t-39 -16.5h-23q-6 0 -7 -6q-2 -30 -6 -56h1q40 0 52 -38q17 -5 27.5 -20t10.5 -33q0 -23 -16 -39t-39 -16h-47q-6 0 -7 -7l-18 -147q-3 -23 -20.5 -35.5 t-40.5 -12.5q-33 0 -46 36q-19 5 -29.5 23.5t-8.5 36.5l13 106h-17q-6 0 -7 -7l-18 -147q-3 -23 -20.5 -35.5t-40.5 -12.5q-34 0 -47 37q-18 5 -29 23t-9 36zM169 186l-18 -137v-5q0 -18 11.5 -31.5t28.5 -13.5h5q17 0 30.5 11.5t15.5 28.5l18 147q2 15 17 15h53 q13 0 13 -13v-2l-17 -137v-5q0 -18 11 -31.5t28 -13.5h5q17 0 30.5 11.5t15.5 28.5l18 147q2 15 17 15h47q19 0 32 13t13 32q0 20 -13 33t-32 13h-36q-13 0 -13 13v2l9 87q2 15 17 15h23q19 0 32 13.5t13 32.5t-13 32t-32 13h-13q-13 0 -13 13v2l15 134v5q0 17 -11.5 30 t-28.5 15h-5q-17 0 -30.5 -11.5t-15.5 -28.5l-15 -144q-1 -15 -17 -15h-53q-13 0 -13 13v2l14 134v5q0 18 -11 31.5t-28 13.5h-5q-17 0 -30.5 -11.5t-15.5 -28.5l-15 -144q-1 -15 -17 -15h-47q-19 0 -32 -13t-13 -32t13 -32.5t32 -13.5h36q13 0 13 -13v-2l-9 -87 q-1 -15 -17 -15h-23q-19 0 -32 -13t-13 -33q0 -19 13 -32t32 -13h13q13 0 13 -13v-2zM340 292h-53q-13 0 -13 13v2l10 87q2 15 17 15h53q13 0 13 -13v-2l-10 -87q-1 -15 -17 -15zM354 364h-18q-6 0 -7 -6q-1 -17 -7 -56h18q7 0 7 6q2 8 4 27.5t3 28.5z" glyph-name="numbersign" unicode="#"/><glyph d="M265 105v155h-3q-23 0 -39 16l-119 119q-16 16 -16 39v137q0 23 16 39l84 83q15 15 36 17h10.5h13.5h12q5 0 5 5v14q0 23 16 39t39 16q41 0 53 -38q27 -9 36 -36h8q21 -2 36 -17l119 -118q15 -14 17 -44q1 -9 0 -23.5t-1 -17.5q0 -23 -16 -39t-39 -16q-18 0 -33 10.5 t-20 27.5q-38 11 -38 62q0 6 -1 8q-1 7 -6 12l-2 2q-7 7 -17 7q-5 0 -5 -4v-154h3q22 0 39 -17l119 -119q16 -16 16 -39v-136q0 -25 -16 -40l-84 -83q-14 -15 -36 -17q-5 -1 -10.5 -1t-13.5 0.5t-12 0.5q-5 0 -5 -5v-14q0 -24 -16 -39.5t-40 -15.5q-40 0 -52 38 q-27 8 -35 35q-7 0 -9 1q-21 2 -36 17l-84 83q-1 1 -3 4l-32 31q-15 15 -17 44q-1 9 0 23.5t1 17.5q0 23 16 39t39 16q18 0 33 -10.5t20 -27.5q38 -13 38 -62q1 -2 1 -8q1 -8 6 -12l2 -2q7 -7 17 -7q5 0 5 4zM260 700h-33q-20 0 -32 -14l-84 -83q-13 -13 -13 -32v-137 q0 -19 13 -32l84 -84q13 -13 32 -13h33q15 0 15 -15v-185q0 -14 -15 -14q-14 0 -24 10l-37 37q-10 10 -10 25v12q0 19 -13.5 32t-32.5 13t-32 -13t-13 -32v-45q0 -20 13 -33l84 -83q12 -14 32 -14h33q15 0 15 -15v-14q0 -19 13 -32t32 -13q20 0 33 13t13 32v14q0 15 15 15 h33q20 0 32 14l84 83q13 13 13 33v136q0 19 -13 32l-84 84q-14 14 -32 14h-33q-15 0 -15 15v184q0 14 15 14q14 0 24 -10l37 -37q10 -10 10 -25v-12q0 -19 13.5 -32t32.5 -13t32 13t13 32v46q0 19 -13 32l-84 83q-12 14 -32 14h-33q-15 0 -15 15v14q0 19 -13 32t-33 13 q-19 0 -32 -13t-13 -32v-14q0 -15 -15 -15zM275 595v-185q0 -14 -15 -14q-14 0 -24 10l-37 37q-10 10 -10 25v69q0 15 10 25l37 37q10 10 25 10q14 0 14 -14zM265 410v133l-24 -23q-7 -8 -7 -18v-69q0 -11 7 -18l2 -2q7 -7 17 -7q5 0 5 4zM366 105v186q0 14 15 14 q14 0 24 -10l37 -38q10 -10 10 -25v-69q0 -15 -10 -25l-37 -37q-10 -10 -25 -10q-14 0 -14 14zM435 250l-6 6q-7 4 -13 4q-5 0 -5 -4v-135l24 24q7 7 7 18v69q0 10 -7 18z" glyph-name="dollar" unicode="$"/><glyph d="M588 620v-128q0 -24 -17 -39l-330 -331q-7 -8 -7 -18v-94q0 -23 -16.5 -39t-39.5 -16q-40 0 -52 38q-38 12 -38 52v128q0 22 17 39l330 331q7 7 7 18v94q0 23 16.5 39t39.5 16q40 0 52 -38q38 -12 38 -52zM238 505h-60q-40 0 -52 38q-38 12 -38 52v60q0 23 16 39t39 16 h60q40 0 52 -38q38 -12 38 -52v-60q0 -23 -16 -39t-39 -16zM452 655v-94q0 -15 -10 -25l-330 -331q-14 -14 -14 -32v-128q0 -19 13 -32t32 -13t32.5 13t13.5 32v94q0 15 10 25l330 331q14 14 14 32v128q0 19 -13 32t-32 13t-32.5 -13t-13.5 -32zM143 550h60q19 0 32 13 t13 32v60q0 19 -13 32t-32 13h-60q-19 0 -32 -13t-13 -32v-60q0 -19 13 -32t32 -13zM533 -45h-60q-40 0 -52 38q-38 12 -38 52v60q0 23 16 39t39 16h60q40 0 52 -38q38 -12 38 -52v-60q0 -23 -16 -39t-39 -16zM438 0h60q19 0 32 13t13 32v60q0 19 -13 32t-32 13h-60 q-19 0 -32 -13t-13 -32v-60q0 -19 13 -32t32 -13z" glyph-name="percent" unicode="%"/><glyph d="M403 -45h-141q-22 0 -39 17l-84 83q-1 1 -3 4l-32 31q-16 16 -16 40v135q0 17 9 30q4 8 10 13l5 4q22 20 22 38q0 17 -22 37l-5 4q-9 9 -10 13q-9 14 -9 30v137q0 23 16 39l84 83q17 17 39 17h93q41 0 53 -38q38 -12 38 -52q0 -23 -16.5 -39.5t-39.5 -16.5h-59 q-10 0 -18 -7q-25 -25 -32 -33q-9 -9 -11 -17q-2 -6 -2 -23q1 -12 1 -51q0 -12 8 -18l5 -6q7 -4 14 -4h131q4 0 4 3q1 1 1 3q1 3 1 11q-1 4 -1 12q0 23 16 39.5t39 16.5q40 0 53 -38q33 -12 38 -47q34 -5 46 -38q38 -13 38 -52q0 -23 -16.5 -39.5t-39.5 -16.5h-22 q-6 -1 -6 -5v-159q0 -25 -17 -40l-83 -83q-15 -17 -40 -17zM498 130v159q0 15 15 15h23q19 0 32.5 13.5t13.5 32.5t-13.5 32t-32.5 13h-23q-15 0 -15 15v24q0 19 -13.5 32.5t-32.5 13.5t-32 -13.5t-13 -32.5v-24q0 -15 -15 -15h-131q-15 0 -25 10l-37 38q-10 10 -10 25v69 q0 15 10 25l37 37q10 10 25 10h59q20 0 33 13.5t13 32.5t-13 32t-33 13h-93q-20 0 -32 -14l-84 -83q-13 -13 -13 -32v-137q0 -19 13 -32l20 -20q13 -13 13 -32q0 -20 -13 -33l-20 -20q-13 -13 -13 -32v-135q0 -20 13 -33l84 -83q12 -14 32 -14h141q19 0 33 14l83 83 q14 14 14 33zM407 289v-126q0 -15 -10 -25l-38 -37q-10 -10 -25 -10h-73q-15 0 -25 10l-37 37q-10 10 -10 25v68q0 15 10 25l37 38q10 10 25 10h131q15 0 15 -15zM397 163v96h-101q-10 0 -17 -7l-37 -38q-8 -8 -8 -18v-68q0 -11 7 -18l2 -2q7 -7 18 -7h73q10 0 18 7l38 37 q7 7 7 18z" glyph-name="ampersand" unicode="&amp;"/><glyph d="M411 620v-139q0 -23 -16.5 -39t-39.5 -16q-40 0 -52 38q-38 12 -38 52v139q0 23 16 39t39 16q18 0 33 -10.5t20 -27.5q38 -13 38 -52zM366 516v139q0 19 -13.5 32t-32.5 13t-32 -13t-13 -32v-139q0 -19 13 -32t32 -13t32.5 13t13.5 32z" glyph-name="quotesingle" unicode="'"/><glyph d="M430 -91h-66q-22 0 -39 17l-84 83l-2 2t-1 2l-32 31q-16 16 -16 39v533q0 23 16 39l84 83q17 17 39 17h66q40 0 52 -38q38 -12 38 -52q0 -23 -16 -39.5t-39 -16.5h-32q-10 0 -18 -7l-37 -37q-7 -8 -7 -18v-465q0 -11 7 -18l2 -2q7 -7 21 -7h29q40 0 52 -38q38 -12 38 -52 q0 -23 -16 -39.5t-39 -16.5zM395 45h-32q-15 0 -25 10l-37 37q-10 10 -10 25v465q0 15 10 25l37 37q10 10 25 10h32q19 0 32 13.5t13 32.5t-13 32t-32 13h-66q-20 0 -32 -14l-84 -83q-13 -13 -13 -32v-533q0 -19 13 -32l84 -83q12 -14 32 -14h66q19 0 32 13.5t13 32.5 t-13 32t-32 13z" glyph-name="parenleft" unicode="("/><glyph d="M332 600l-2 2q-6 6 -20 7h-10h-11h-9q-39 0 -52 38q-17 5 -27.5 20t-10.5 33q0 23 16 39t39 16h66q22 0 39 -17l119 -118q16 -16 16 -39v-533q0 -24 -16 -39l-84 -83q-15 -17 -39 -17h-66q-39 0 -52 38q-17 5 -27.5 20t-10.5 33q0 23 16 39t39 16h32q11 0 18 7l37 37 q7 7 7 18v465q0 11 -7 18zM277 45h-32q-19 0 -32 -13t-13 -32t13 -32.5t32 -13.5h66q20 0 32 14l84 83q13 13 13 32v533q0 19 -13 32l-84 83q-12 14 -32 14h-66q-19 0 -32 -13t-13 -32t13 -32.5t32 -13.5h32q15 0 25 -10l37 -37q10 -10 10 -25v-465q0 -15 -10 -25l-37 -37 q-10 -10 -25 -10z" glyph-name="parenright" unicode=")"/><glyph d="M223 544q-7 8 -10 16l-2 2q-35 19 -35 47q0 18 12.5 30t30.5 12q15 0 39 -15q3 -1 5.5 -2.5t5 -3.5t4.5 -3q2 -2 4 -2v46q3 16 13.5 27.5t29.5 11.5q35 0 43 -36q26 -4 34 -29q14 6 24 6q17 0 28.5 -10t13.5 -26q16 -2 26 -13.5t10 -28.5q0 -29 -34 -47q-2 -1 -4.5 -2 t-4 -2t-2.5 -1q3 -5 9 -18q14 -8 15 -9q21 -10 21 -37q0 -19 -12 -31t-31 -12q-15 0 -39 15q-10 6 -14 9l-4 2q0 -3 0.5 -11t0.5 -12q0 -62 -45 -62q-35 0 -42 35q-27 4 -34 30q-12 -6 -25 -6q-37 0 -42 36q-16 2 -26 13t-10 28q0 28 35 47q6 4 12 6zM273 616l-37 21 q-7 4 -17 4q-14 0 -23.5 -9t-9.5 -23q0 -19 17 -30l37 -22q6 -3 6 -7t-6 -7l-37 -22q-17 -11 -17 -30q0 -14 9.5 -23t23.5 -9q10 0 17 4l37 21q1 0 3 1t3 1q7 0 7 -10v-42q0 -14 10 -24t24 -10t24 10t10 24v42q0 10 7 10q1 0 3 -1t3 -1l37 -21q7 -4 17 -4q15 0 24 9.5 t9 23.5q0 20 -16 29l-37 22q-6 3 -6 7t6 7l37 22q16 9 16 29q0 14 -9.5 23.5t-23.5 9.5q-10 0 -17 -4l-37 -21q-1 0 -3 -1t-3 -1q-7 0 -7 10v42q0 14 -10 24t-24 10t-24 -10t-10 -24v-42q0 -10 -7 -10z" glyph-name="asterisk" unicode="*"/><glyph d="M490 258h-44q-14 0 -24.5 -10.5t-10.5 -24.5v-45q0 -24 -16 -39.5t-40 -15.5q-40 0 -52 38q-38 12 -38 52v45h-45q-40 0 -52 38q-38 12 -38 53q0 23 16 39t39 16h45q14 0 24.5 10.5t10.5 24.5v45q0 23 16 39t39 16q41 0 53 -38q38 -12 38 -52v-45h44q40 0 52 -38 q38 -12 38 -52q0 -24 -15.5 -40t-39.5 -16zM455 394h-44q-19 0 -32 13t-13 32v45q0 19 -13 32t-33 13q-19 0 -32 -13t-13 -32v-45q0 -19 -13 -32t-32 -13h-45q-19 0 -32 -13t-13 -32q0 -20 13 -33t32 -13h45q19 0 32 -13t13 -32v-45q0 -19 13 -32t32 -13q20 0 33 13t13 32 v45q0 19 13 32t32 13h44q19 0 32 13t13 33q0 19 -13 32t-32 13z" glyph-name="plus" unicode="+"/><glyph d="M392 102q38 -13 38 -53v-97q0 -24 -17 -39l-42 -42q-14 -14 -34 -14q-17 0 -29.5 10t-15.5 26q-16 4 -26.5 16.5t-10.5 29.5q0 20 14 34l15 15q0 1 -1 1v3q-38 14 -38 53v39q0 23 16 39.5t39 16.5h39q40 0 53 -38zM339 130h-39q-19 0 -32 -13.5t-13 -32.5v-39 q0 -19 13 -32t32 -13h10l-34 -34q-11 -14 -11 -27q0 -15 11 -26t26 -11q16 0 27 11l42 42q14 14 14 32v97q0 19 -13.5 32.5t-32.5 13.5z" glyph-name="comma" unicode=","/><glyph d="M507 368q38 -12 38 -52q0 -24 -15.5 -40t-39.5 -16h-270q-40 0 -52 38q-38 12 -38 53q0 23 16 39t39 16h270q40 0 52 -38zM455 396h-270q-19 0 -32 -13t-13 -32q0 -20 13 -33t32 -13h270q19 0 32 13t13 33q0 19 -13 32t-32 13z" glyph-name="hyphen" unicode="-"/><glyph d="M380 -45h-50q-40 0 -52 38q-38 12 -38 52v50q0 23 16 39t39 16h50q40 0 52 -38q38 -12 38 -52v-50q0 -23 -16 -39t-39 -16zM295 0h50q19 0 32 13t13 32v50q0 19 -13 32t-32 13h-50q-19 0 -32 -13t-13 -32v-50q0 -19 13 -32t32 -13z" glyph-name="period" unicode="."/><glyph d="M588 620v-128q0 -24 -17 -39l-330 -331q-7 -8 -7 -18v-94q0 -23 -16.5 -39t-39.5 -16q-40 0 -52 38q-38 12 -38 52v128q0 22 17 39l330 331q7 7 7 18v94q0 23 16.5 39t39.5 16q40 0 52 -38q38 -12 38 -52zM452 655v-94q0 -15 -10 -25l-330 -331q-14 -14 -14 -32v-128 q0 -19 13 -32t32 -13t32.5 13t13.5 32v94q0 15 10 25l330 331q14 14 14 32v128q0 19 -13 32t-32 13t-32.5 -13t-13.5 -32z" glyph-name="slash" unicode="/"/><glyph d="M244 -28l-140 139q-16 16 -16 39v400q0 23 16 39l105 104q17 17 39 17h145q23 0 39 -16l139 -140q17 -17 17 -39v-400q0 -25 -17 -40l-104 -104q-15 -16 -39 -16h-145q-22 0 -39 17zM216 686l-105 -104q-13 -13 -13 -32v-400q0 -19 13 -32l105 -104q12 -14 32 -14h145 q19 0 32 13l104 104q14 14 14 33v400q0 20 -14 32l-104 105q-13 13 -32 13h-145q-20 0 -32 -14zM435 529l-236 -236q-3 -3 -6 -3q-4 0 -4 8v218q0 15 10 25l58 58q10 10 25 10h77q15 0 25 -10l51 -50q4 -4 4 -10t-4 -10zM429 539v1l-17 17q-7 7 -18 7h-77q-10 0 -18 -7 l-58 -58q-7 -8 -7 -18v-138l194 193v1l1 1v1zM359 91h-77q-15 0 -25 10l-51 50q-5 5 -5 10t5 10l236 236q3 3 6 3q4 0 4 -8v-218q0 -15 -10 -25l-58 -58q-10 -10 -25 -10zM442 184v138l-194 -193q-1 -1 -1 -3v-1l17 -17q7 -7 18 -7h77q11 0 18 7l58 58q7 7 7 18z" glyph-name="zero" unicode="0"/><glyph d="M265 136v313q-19 -17 -42 -17q-40 0 -52 38q-38 12 -38 52q0 24 16 40l132 132q16 16 40 16q40 0 52 -38q38 -12 38 -52v-519h42q40 0 52 -38q17 -5 27.5 -20t10.5 -33q0 -23 -16 -39t-39 -16h-265q-40 0 -52 38q-38 12 -38 52q0 23 16 39.5t39 16.5h42q14 0 24.5 10.5 t10.5 24.5zM275 530v-394q0 -19 -13 -32t-32 -13h-42q-19 0 -32 -13.5t-13 -32.5t13 -32t32 -13h265q19 0 32 13t13 32t-13 32.5t-32 13.5h-42q-19 0 -32 13t-13 32v519q0 19 -13 32t-32 13q-20 0 -33 -13l-132 -132q-13 -13 -13 -33q0 -19 13 -32t32 -13t33 13l44 45 q3 3 6 3q4 0 4 -8z" glyph-name="one" unicode="1"/><glyph d="M540 606l32 -31q16 -16 16 -39v-62q0 -24 -16 -39l-331 -331q0 -1 -2 -3h259q40 0 52 -38q17 -5 27.5 -20t10.5 -33q0 -23 -16 -39t-39 -16h-355q-40 0 -52 38q-38 12 -38 52v110q0 24 16 39l333 333q5 5 5 13t-5 13l-4 4q-7 7 -18 7h-119q-10 0 -18 -7l-37 -37 q-5 -6 -6 -13q0 -6 -1 -8q0 -28 -14 -46t-42 -18q-40 0 -52 38q-38 12 -38 52v46q0 23 16 39l84 83q17 17 39 17h187q22 0 39 -17l84 -83q1 0 2 -2zM189 525v12q0 15 10 25l37 37q10 10 25 10h119q15 0 25 -10l39 -39q8 -8 8 -20t-8 -20l-333 -333q-13 -13 -13 -32v-110 q0 -19 13 -32t32 -13h355q19 0 32 13t13 32t-13 32.5t-32 13.5h-264q-16 0 -29.5 10.5t-13.5 25.5q0 11 8 19l331 331q13 13 13 32v62q0 18 -13 32l-84 83q-12 14 -32 14h-187q-20 0 -32 -14l-84 -83q-13 -13 -13 -32v-46q0 -19 13 -32t32 -13t32.5 13t13.5 32z" glyph-name="two" unicode="2"/><glyph d="M435 249l-6 6q-7 4 -14 4h-114q-40 0 -53 38q-38 12 -38 53q0 23 16.5 39t39.5 16h114q11 0 18 7l37 38q7 8 7 18v69q0 11 -7 18l-2 2q-7 7 -18 7h-119q-10 0 -18 -7l-37 -37q-5 -6 -6 -13q0 -6 -1 -8q0 -28 -14 -46t-42 -18q-40 0 -52 38q-38 12 -38 52v46q0 23 16 39 l84 83q17 17 39 17h187q22 0 39 -17l119 -118q16 -16 16 -39v-137q0 -17 -8 -31l-2 -2l-5 -6l-2 -2l-9 -9q-20 -20 -20 -34q0 -16 20 -36l9 -9q7 -7 9 -10q8 -14 8 -30v-136q0 -24 -16 -39l-84 -83q-15 -17 -39 -17h-187q-22 0 -39 17l-84 83q-1 1 -3 4l-32 31 q-15 15 -17 43q-1 9 0 24t1 18q0 23 16 38.5t39 15.5q18 0 33.5 -10.5t20.5 -27.5q37 -14 37 -61q1 -2 1 -8q1 -8 6 -12l2 -2q7 -7 18 -7h119q11 0 18 7q25 25 32 33q10 10 11 16q2 6 2 23q0 5 -0.5 21.5t-0.5 29.5q0 10 -7 18zM189 525v12q0 15 10 25l37 37q10 10 25 10 h119q15 0 25 -10l37 -37q10 -10 10 -25v-69q0 -15 -10 -25l-37 -38q-10 -10 -25 -10h-114q-20 0 -33 -13t-13 -32t13 -32.5t33 -13.5h114q15 0 25 -10l37 -38q10 -10 10 -25v-68q0 -15 -10 -25l-37 -37q-10 -10 -25 -10h-119q-15 0 -25 10l-37 37q-10 10 -10 25v12 q0 19 -13.5 31.5t-32.5 12.5t-32 -12.5t-13 -31.5v-46q0 -19 13 -32l84 -83q12 -14 32 -14h187q20 0 32 14l84 83q13 13 13 32v136q0 19 -13 32l-20 20q-13 13 -13 33q0 19 13 32l20 20q13 13 13 32v137q0 19 -13 32l-84 83q-12 14 -32 14h-187q-20 0 -32 -14l-84 -83 q-13 -13 -13 -32v-46q0 -19 13 -32t32 -13t32.5 13t13.5 32z" glyph-name="three" unicode="3"/><glyph d="M550 672q38 -12 38 -52v-610q0 -23 -16 -39t-39 -16q-18 0 -33 10.5t-20 27.5q-38 12 -38 52v192h-180q-22 0 -39 17l-84 83q-1 1 -3 4l-32 31q-16 16 -16 40v243q0 23 16 39t39 16q18 0 33 -10.5t20 -27.5q38 -13 38 -52v-210q0 -11 7 -18l2 -2q7 -7 18 -7h146 q14 0 24.5 10.5t10.5 24.5v237q0 23 16.5 39t39.5 16q40 0 52 -38zM407 373h-146q-15 0 -25 10l-37 37q-10 10 -10 25v210q0 19 -13.5 32t-32.5 13t-32 -13t-13 -32v-243q0 -20 13 -33l84 -83q12 -14 32 -14h180q19 0 32 -13t13 -32v-192q0 -19 13.5 -32t32.5 -13t32 13 t13 32v610q0 19 -13 32t-32 13t-32.5 -13t-13.5 -32v-237q0 -19 -13 -32t-32 -13z" glyph-name="four" unicode="4"/><glyph d="M435 273l-2 2q-7 7 -18 7h-153q-22 0 -39 17l-84 83q-1 1 -3 4l-32 31q-16 16 -16 40v198q0 23 16 39t39 16h355q40 0 52 -38q38 -12 38 -52q0 -24 -15.5 -40t-39.5 -16h-264q-14 0 -24.5 -10.5t-10.5 -24.5v-74q0 -11 7 -18l2 -2q7 -7 18 -7h152q23 0 40 -17l119 -118 q16 -16 16 -40v-159q0 -24 -16 -39l-84 -83q-17 -17 -40 -17h-186q-22 0 -39 17l-84 83q-1 1 -3 4l-32 31q-15 15 -17 44q-1 9 0 23.5t1 17.5q0 23 16 39t39 16q18 0 33 -10.5t20 -27.5q38 -13 38 -62q1 -2 1 -8q1 -8 6 -12l2 -2q7 -7 18 -7h119q11 0 18 7l37 37q7 7 7 18 v92q0 11 -7 18zM189 163v12q0 19 -13.5 32t-32.5 13t-32 -13t-13 -32v-46q0 -19 13 -32l84 -83q12 -14 32 -14h186q21 0 33 14l84 83q13 13 13 32v159q0 20 -13 33l-84 83q-12 14 -33 14h-152q-15 0 -25 10l-37 37q-10 10 -10 25v74q0 19 13 32t32 13h264q19 0 32 13t13 33 q0 19 -13 32t-32 13h-355q-19 0 -32 -13t-13 -32v-198q0 -20 13 -33l84 -83q12 -14 32 -14h153q15 0 25 -10l37 -37q10 -10 10 -25v-92q0 -15 -10 -25l-37 -37q-10 -10 -25 -10h-119q-15 0 -25 10l-37 37q-10 10 -10 25z" glyph-name="five" unicode="5"/><glyph d="M415 564h-119q-10 0 -18 -7l-37 -37q-7 -8 -7 -18v-97h179q24 0 40 -16l31 -32q1 -1 4 -3l84 -85q16 -16 16 -39v-136q0 -24 -16 -39l-84 -83q-17 -17 -40 -17h-186q-22 0 -39 17l-84 83q-1 1 -3 4l-32 31q-16 16 -16 39v442q0 23 16 39l84 83q17 17 39 17h186 q23 0 40 -17l119 -118q15 -14 17 -44q1 -9 0 -23.5t-1 -17.5q0 -23 -16 -39t-39 -16q-18 0 -33 10.5t-20 27.5q-38 11 -38 62q0 6 -1 8q-1 7 -6 12l-2 2q-7 7 -18 7zM452 537v-12q0 -19 13.5 -32t32.5 -13t32 13t13 32v46q0 19 -13 32l-84 83q-12 14 -33 14h-186 q-20 0 -32 -14l-84 -83q-13 -13 -13 -32v-442q0 -19 13 -32l84 -83q12 -14 32 -14h186q21 0 33 14l84 83q13 13 13 32v136q0 19 -13 32l-84 85q-13 13 -33 13h-179q-19 0 -32 13.5t-13 32.5v96q0 15 10 25l37 37q10 10 25 10h119q15 0 25 -10l37 -37q10 -10 10 -25zM189 163 v95q0 19 13 32.5t32 13.5h146q15 0 25 -10l37 -38q10 -10 10 -25v-68q0 -15 -10 -25l-37 -37q-10 -10 -25 -10h-119q-15 0 -25 10l-37 37q-10 10 -10 25zM234 223v-95q0 -11 7 -18l2 -2q7 -7 18 -7h119q11 0 18 7l37 37q7 7 7 18v68q0 10 -7 18l-6 6q-7 4 -14 4h-146 q-14 0 -24.5 -11t-10.5 -25z" glyph-name="six" unicode="6"/><glyph d="M442 564h-264q-40 0 -52 38q-38 12 -38 53q0 23 16 39t39 16h355q40 0 52 -38q38 -12 38 -52v-128q0 -24 -16 -39l-154 -154q-7 -8 -7 -18v-271q0 -23 -16 -39t-39 -16q-18 0 -33 10.5t-20 27.5q-38 12 -38 52v305q0 24 16 39l154 154q7 7 7 21zM366 45v271q0 15 10 25 l154 154q13 13 13 32v128q0 19 -13 32t-32 13h-355q-19 0 -32 -13t-13 -32q0 -20 13 -33t32 -13h264q19 0 32 -13t13 -32v-3q0 -15 -10 -25l-154 -154q-13 -13 -13 -32v-305q0 -19 13 -32t33 -13q19 0 32 13t13 32z" glyph-name="seven" unicode="7"/><glyph d="M449 -45h-187q-22 0 -39 17l-84 83q-1 1 -3 4l-32 31q-16 16 -16 39v136q0 17 9 30q4 8 10 13l5 4q22 20 22 38q0 17 -22 37l-5 4q-9 9 -10 13q-9 14 -9 30v137q0 23 16 39l84 83q17 17 39 17h187q22 0 39 -17l119 -118q16 -16 16 -39v-137q0 -17 -8 -31l-2 -2l-5 -6 l-2 -2l-9 -9q-20 -20 -20 -34q0 -16 20 -36l9 -9q7 -7 9 -10q8 -14 8 -30v-136q0 -24 -16 -39l-84 -83q-15 -17 -39 -17zM227 0h187q20 0 32 14l84 83q13 13 13 32v136q0 19 -13 32l-20 20q-13 13 -13 33q0 19 13 32l20 20q13 13 13 32v137q0 19 -13 32l-84 83 q-12 14 -32 14h-187q-20 0 -32 -14l-84 -83q-13 -13 -13 -32v-137q0 -19 13 -32l20 -20q13 -13 13 -32q0 -20 -13 -33l-20 -20q-13 -13 -13 -32v-136q0 -19 13 -32l84 -83q12 -14 32 -14zM405 599l37 -37q10 -10 10 -25v-69q0 -15 -10 -25l-37 -38q-10 -10 -25 -10h-119 q-15 0 -25 10l-37 38q-10 10 -10 25v69q0 15 10 25l37 37q10 10 25 10h119q15 0 25 -10zM415 564h-119q-10 0 -18 -7l-37 -37q-7 -8 -7 -18v-69q0 -12 8 -18l5 -6q7 -4 14 -4h119q11 0 18 7l37 38q7 8 7 18v69q0 11 -7 18l-2 2q-7 7 -18 7zM405 294l37 -38q10 -10 10 -25 v-68q0 -15 -10 -25l-37 -37q-10 -10 -25 -10h-119q-15 0 -25 10l-37 37q-10 10 -10 25v68q0 15 10 25l37 38q10 10 25 10h119q15 0 25 -10zM415 259h-119q-10 0 -17 -7l-37 -38q-8 -8 -8 -18v-68q0 -11 7 -18l2 -2q7 -7 18 -7h119q11 0 18 7l37 37q7 7 7 18v68q0 10 -7 18 l-6 6q-7 4 -14 4z" glyph-name="eight" unicode="8"/><glyph d="M442 163v96h-180q-23 0 -39 16l-119 120q-16 16 -16 39v137q0 23 16 39l84 83q17 17 39 17h187q22 0 39 -17l119 -118q16 -16 16 -39v-442q0 -24 -16 -39l-84 -83q-15 -17 -39 -17h-187q-22 0 -39 17l-84 83q-1 1 -3 4l-32 31q-15 15 -17 43q-1 9 0 24t1 18q0 23 16 38.5 t39 15.5q18 0 33.5 -10.5t20.5 -27.5q37 -14 37 -61q1 -2 1 -8q1 -8 6 -12l2 -2q7 -7 18 -7h119q11 0 18 7l37 37q7 7 7 18zM189 163v12q0 19 -13.5 31.5t-32.5 12.5t-32 -12.5t-13 -31.5v-46q0 -19 13 -32l84 -83q12 -14 32 -14h187q20 0 32 14l84 83q13 13 13 32v442 q0 19 -13 32l-84 83q-12 14 -32 14h-187q-20 0 -32 -14l-84 -83q-13 -13 -13 -32v-137q0 -19 13 -32l84 -85q13 -13 32 -13h180q19 0 32 -13.5t13 -32.5v-95q0 -15 -10 -25l-37 -37q-10 -10 -25 -10h-119q-15 0 -25 10l-37 37q-10 10 -10 25zM452 537v-96q0 -19 -13 -32.5 t-32 -13.5h-146q-15 0 -25 10l-37 38q-10 10 -10 25v69q0 15 10 25l37 37q10 10 25 10h119q15 0 25 -10l37 -37q10 -10 10 -25zM435 555l-2 2q-7 7 -18 7h-119q-10 0 -18 -7l-37 -37q-7 -8 -7 -18v-69q0 -12 8 -18l5 -6q7 -4 14 -4h146q14 0 24.5 10.5t10.5 25.5v96 q0 11 -7 18z" glyph-name="nine" unicode="9"/><glyph d="M380 295h-50q-40 0 -52 38q-38 12 -38 52v50q0 23 16 39t39 16h50q40 0 52 -38q38 -12 38 -52v-50q0 -23 -16 -39t-39 -16zM295 340h50q19 0 32 13t13 32v50q0 19 -13 32t-32 13h-50q-19 0 -32 -13t-13 -32v-50q0 -19 13 -32t32 -13zM380 -45h-50q-40 0 -52 38 q-38 12 -38 52v50q0 23 16 39t39 16h50q40 0 52 -38q38 -12 38 -52v-50q0 -23 -16 -39t-39 -16zM295 0h50q19 0 32 13t13 32v50q0 19 -13 32t-32 13h-50q-19 0 -32 -13t-13 -32v-50q0 -19 13 -32t32 -13z" glyph-name="colon" unicode=":"/><glyph d="M380 295h-50q-40 0 -52 38q-38 12 -38 52v50q0 23 16 39t39 16h50q40 0 52 -38q38 -12 38 -52v-50q0 -23 -16 -39t-39 -16zM295 340h50q19 0 32 13t13 32v50q0 19 -13 32t-32 13h-50q-19 0 -32 -13t-13 -32v-50q0 -19 13 -32t32 -13zM392 102q38 -13 38 -53v-97 q0 -24 -17 -39l-42 -42q-14 -14 -34 -14q-17 0 -29.5 10t-15.5 26q-16 4 -26.5 16.5t-10.5 29.5q0 20 14 34l15 15q0 1 -1 1v3q-38 14 -38 53v39q0 23 16 39.5t39 16.5h39q40 0 53 -38zM339 130h-39q-19 0 -32 -13.5t-13 -32.5v-39q0 -19 13 -32t32 -13h10l-34 -34 q-11 -11 -11 -27q0 -15 11 -26t26 -11q16 0 27 11l42 42q14 14 14 32v97q0 19 -13.5 32.5t-32.5 13.5z" glyph-name="semicolon" unicode=";"/><glyph d="M524 539q0 -22 -16 -38l-162 -162q-12 -13 -12 -25q0 -13 13 -26l159 -159q16 -16 16 -39q0 -24 -15.5 -40t-39.5 -16t-40 16l-259 259q-16 16 -16 40t16 40l225 225q16 16 38 16q18 0 33.5 -11t21.5 -28q16 -6 27 -20.5t11 -31.5zM400 607l-225 -225q-13 -13 -13 -33 t13 -33l224 -224q13 -13 33 -13t32.5 13t12.5 33q0 19 -13 32l-159 159q-16 16 -16 33t15 32l162 162q13 13 13 31q0 19 -14.5 32.5t-33.5 13.5q-18 0 -31 -13z" glyph-name="less" unicode="&lt;"/><glyph d="M507 472q38 -12 38 -52q0 -24 -15.5 -40t-39.5 -16h-270q-40 0 -52 38q-38 12 -38 53q0 23 16 39t39 16h270q40 0 52 -38zM455 500h-270q-19 0 -32 -13t-13 -32q0 -20 13 -33t32 -13h270q19 0 32 13t13 33q0 19 -13 32t-32 13zM507 264q38 -12 38 -52q0 -24 -15.5 -40 t-39.5 -16h-270q-40 0 -52 38q-38 12 -38 53q0 23 16 39t39 16h270q40 0 52 -38zM455 292h-270q-19 0 -32 -13t-13 -32q0 -20 13 -33t32 -13h270q19 0 32 13t13 33q0 19 -13 32t-32 13z" glyph-name="equal" unicode="="/><glyph d="M508 274l-224 -224q-15 -16 -40 -16q-41 0 -52 37q-38 13 -38 54q0 24 16 39l159 159q13 13 13 26t-12 25l-162 162q-16 16 -16 38q0 23 17.5 39.5t40.5 16.5q22 0 38 -16l260 -260q16 -16 16 -40q0 -25 -16 -40zM466 382l-225 225q-13 13 -31 13q-19 0 -33.5 -13.5 t-14.5 -32.5q0 -18 13 -31l162 -162q15 -15 15 -32t-16 -33l-159 -159q-13 -13 -13 -32q0 -20 12.5 -33t32.5 -13t33 13l224 224q13 13 13 33t-13 33z" glyph-name="greater" unicode=">"/><glyph d="M588 536v-65q0 -24 -16 -39l-154 -154q-7 -8 -7 -18v-50q0 -23 -16 -39t-39 -16q-18 0 -33 10.5t-20 27.5q-38 12 -38 52v84q0 24 16 39l154 154q7 7 7 18q0 8 -5 13l-4 4q-7 7 -18 7h-119q-10 0 -18 -7l-37 -37q-7 -8 -7 -18v-12q0 -23 -16.5 -39t-39.5 -16 q-40 0 -52 38q-38 12 -38 52v46q0 23 16 39l84 83q17 17 39 17h187q22 0 39 -17l84 -83q1 0 2 -2l1 -2l32 -31q16 -16 16 -39zM543 506v65q0 18 -13 32l-84 83q-12 14 -32 14h-187q-20 0 -32 -14l-84 -83q-13 -13 -13 -32v-46q0 -19 13 -32t32 -13t32.5 13t13.5 32v12 q0 15 10 25l37 37q10 10 25 10h119q15 0 25 -10l39 -39q8 -8 8 -20q0 -15 -10 -25l-154 -154q-13 -13 -13 -32v-84q0 -19 13 -32t33 -13q19 0 32 13t13 32v50q0 15 10 25l154 154q13 13 13 32zM375 -45h-40q-40 0 -52 38q-38 12 -38 52v40q0 23 16 39t39 16h40q40 0 52 -38 q38 -12 38 -52v-40q0 -23 -16 -39t-39 -16zM300 0h40q19 0 32 13t13 32v40q0 19 -13 32t-32 13h-40q-19 0 -32 -13t-13 -32v-40q0 -19 13 -32t32 -13z" glyph-name="question" unicode="?"/><glyph d="M435 555l-2 2q-7 7 -18 7h-119q-10 0 -18 -7l-37 -37q-7 -8 -7 -18v-374q0 -11 7 -18l2 -2q7 -7 18 -7h146q40 0 52 -38q17 -5 27.5 -20t10.5 -33q0 -23 -16 -39t-39 -16h-180q-22 0 -39 17l-84 83q-1 1 -3 4l-32 31q-16 16 -16 40v441q0 23 16 39l84 83q17 17 39 17h186 q23 0 40 -17l119 -118q16 -16 16 -39v-348q0 -23 -16 -39.5t-39 -16.5h-113q-23 0 -40 17l-99 99q-16 16 -16 39v168q0 23 16 39t39 16q41 0 53 -38q38 -12 38 -52v-135v-1l1 -3q1 -2 3 -2l1 -1h21q5 0 5 5v254q0 11 -7 18zM393 278l-17 17q-10 10 -10 25v135q0 19 -13 32 t-33 13q-19 0 -32 -13t-13 -32v-168q0 -19 13 -32l64 -64q14 -14 33 -14h113q19 0 32 13.5t13 32.5v348q0 19 -13 32l-84 83q-12 14 -33 14h-186q-20 0 -32 -14l-84 -83q-13 -13 -13 -32v-441q0 -20 13 -33l84 -83q12 -14 32 -14h180q19 0 32 13t13 32t-13 32.5t-32 13.5 h-146q-15 0 -25 10l-37 37q-10 10 -10 25v374q0 15 10 25l37 37q10 10 25 10h119q15 0 25 -10l37 -37q10 -10 10 -25v-254q0 -15 -15 -15h-19q-15 0 -25 10z" glyph-name="at" unicode="@"/><glyph d="M588 515v-505q0 -23 -16 -39t-39 -16q-18 0 -33 10.5t-20 27.5q-38 12 -38 52v192h-173q-14 0 -24.5 -10.5t-10.5 -24.5v-192q0 -23 -16.5 -39t-39.5 -16q-40 0 -52 38q-38 12 -38 52v505q0 23 16 39l105 104q17 17 39 17h145q23 0 39 -16l139 -140q17 -17 17 -39z M543 45v505q0 20 -14 32l-104 105q-13 13 -32 13h-145q-20 0 -32 -14l-105 -104q-13 -13 -13 -32v-505q0 -19 13 -32t32 -13t32.5 13t13.5 32v192q0 19 13 32t32 13h173q19 0 32 -13t13 -32v-192q0 -19 13.5 -32t32.5 -13t32 13t13 32zM452 516v-98q0 -19 -13 -32t-32 -13 h-173q-19 0 -32 13t-13 32v98q0 15 10 25l58 58q10 10 25 10h77q15 0 25 -10l58 -58q10 -10 10 -25zM435 534l-23 23q-7 7 -18 7h-77q-10 0 -18 -7l-58 -58q-7 -8 -7 -18v-98h173q14 0 24.5 10.5t10.5 24.5v98q0 11 -7 18z" glyph-name="A" unicode="A"/><glyph d="M562 279l9 -9q7 -7 9 -10q8 -14 8 -30v-135q0 -25 -16 -40l-84 -83q-17 -17 -40 -17h-270q-40 0 -52 38q-38 12 -38 52v610q0 23 16 39t39 16h270q23 0 40 -17l119 -118q16 -16 16 -39v-137q0 -17 -8 -31l-2 -2l-5 -6l-2 -2l-9 -9q-20 -20 -20 -34q0 -16 20 -36zM510 382 l20 20q13 13 13 32v137q0 19 -13 32l-84 83q-12 14 -33 14h-270q-19 0 -32 -13t-13 -32v-610q0 -19 13 -32t32 -13h270q21 0 33 14l84 83q13 13 13 33v135q0 19 -13 32l-20 20q-13 13 -13 33q0 19 13 32zM442 443l-37 -38q-10 -10 -25 -10h-146q-19 0 -32 13.5t-13 32.5v123 q0 19 13 32t32 13h146q15 0 25 -10l37 -37q10 -10 10 -25v-69q0 -15 -10 -25zM435 555l-2 2q-7 7 -18 7h-146q-14 0 -24.5 -10.5t-10.5 -24.5v-124h146q11 0 18 7l37 38q7 8 7 18v69q0 11 -7 18zM442 138l-37 -37q-10 -10 -25 -10h-146q-19 0 -32 13t-13 32v122 q0 19 13 32.5t32 13.5h146q15 0 25 -10l37 -38q10 -10 10 -25v-68q0 -15 -10 -25zM435 249l-6 6q-7 4 -14 4h-146q-14 0 -24.5 -11t-10.5 -25v-122h146q11 0 18 7l37 37q7 7 7 18v68q0 10 -7 18z" glyph-name="B" unicode="B"/><glyph d="M234 481v-332q0 -11 7 -18l23 -23q7 -7 18 -7h77q11 0 18 7l58 58q7 7 7 20v8.5v10.5v9q0 23 16.5 39.5t39.5 16.5q40 0 52 -38q17 -5 27.5 -20t10.5 -33v-64q0 -22 -17 -39l-104 -105q-15 -16 -39 -16h-145q-23 0 -40 17l-139 139q-16 15 -16 39v400q0 24 16 39l104 104 q17 17 40 17h145q23 0 39 -16l139 -140q17 -17 17 -39v-64q0 -23 -16 -39.5t-39 -16.5q-40 0 -53 38q-38 13 -38 53v28q0 13 -7 20l-23 23q-7 7 -18 7h-77q-10 0 -18 -7l-58 -58q-7 -8 -7 -18zM189 184v332q0 15 10 25l58 58q10 10 25 10h77q15 0 25 -10l58 -58 q10 -10 10 -25v-30q0 -19 13.5 -32.5t32.5 -13.5t32 13.5t13 32.5v64q0 20 -14 32l-104 105q-13 13 -32 13h-145q-19 0 -33 -14l-104 -104q-13 -13 -13 -32v-400q0 -19 13 -32l104 -104q14 -14 33 -14h145q19 0 32 13l104 105q14 12 14 32v64q0 19 -13 32.5t-32 13.5 t-32.5 -13.5t-13.5 -32.5v-30q0 -15 -10 -25l-58 -58q-10 -10 -25 -10h-77q-15 0 -25 10l-58 58q-10 10 -10 25z" glyph-name="C" unicode="C"/><glyph d="M588 515v-400q0 -22 -17 -39l-104 -105q-15 -16 -39 -16h-250q-40 0 -52 38q-38 12 -38 52v610q0 23 16 39t39 16h250q23 0 39 -16l139 -140q17 -17 17 -39zM529 582l-104 105q-13 13 -32 13h-250q-19 0 -32 -13t-13 -32v-610q0 -19 13 -32t32 -13h250q19 0 32 13 l104 105q14 12 14 32v400q0 20 -14 32zM442 159l-58 -58q-10 -10 -25 -10h-125q-19 0 -32 13t-13 32v428q0 19 13 32t32 13h125q15 0 25 -10l58 -58q10 -10 10 -25v-332q0 -15 -10 -25zM435 534l-23 23q-7 7 -18 7h-125q-14 0 -24.5 -10.5t-10.5 -24.5v-428h125q11 0 18 7 l58 58q7 7 7 18v332q0 11 -7 18z" glyph-name="D" unicode="D"/><glyph d="M550 672q38 -12 38 -52q0 -23 -16 -39.5t-39 -16.5h-264q-14 0 -24.5 -10.5t-10.5 -24.5v-124h196q18 0 33 -10.5t20 -27.5q38 -13 38 -52q0 -23 -16.5 -39.5t-39.5 -16.5h-196q-14 0 -24.5 -11t-10.5 -25v-122h264q40 0 52 -38q17 -5 27.5 -20t10.5 -33q0 -23 -16 -39 t-39 -16h-355q-40 0 -52 38q-38 12 -38 52v610q0 23 16 39t39 16h355q40 0 52 -38zM98 655v-610q0 -19 13 -32t32 -13h355q19 0 32 13t13 32t-13 32.5t-32 13.5h-264q-19 0 -32 13t-13 32v122q0 19 13 32.5t32 13.5h196q19 0 32.5 13.5t13.5 32.5t-13.5 32t-32.5 13h-196 q-19 0 -32 13.5t-13 32.5v123q0 19 13 32t32 13h264q19 0 32 13.5t13 32.5t-13 32t-32 13h-355q-19 0 -32 -13t-13 -32z" glyph-name="E" unicode="E"/><glyph d="M550 672q38 -12 38 -52q0 -23 -16 -39.5t-39 -16.5h-264q-14 0 -24.5 -10.5t-10.5 -24.5v-124h196q40 0 52 -38q38 -12 38 -52q0 -23 -16 -39.5t-39 -16.5h-196q-14 0 -24.5 -11t-10.5 -25v-214q0 -23 -16.5 -39t-39.5 -16q-40 0 -52 38q-38 12 -38 52v611q0 23 16 39 t39 16h355q40 0 52 -38zM189 44v214q0 19 13 32.5t32 13.5h196q19 0 32 13.5t13 32.5t-13 32t-32 13h-196q-19 0 -32 13.5t-13 32.5v123q0 19 13 32t32 13h264q19 0 32 13.5t13 32.5t-13 32t-32 13h-355q-19 0 -32 -13t-13 -32v-611q0 -19 13 -32t32 -13t32.5 13t13.5 32z " glyph-name="F" unicode="F"/><glyph d="M415 564h-119q-10 0 -18 -7l-37 -37q-7 -8 -7 -18v-374q0 -11 7 -18l2 -2q7 -7 18 -7h119q11 0 18 7l37 37q7 7 7 18v96h-60q-40 0 -53 38q-38 13 -38 53q0 23 16.5 39t39.5 16h151q40 0 52 -38q38 -12 38 -52v-220q0 -25 -16 -40l-84 -83q-17 -17 -40 -17h-186 q-22 0 -39 17l-84 83q-1 1 -3 4l-32 31q-16 16 -16 40v441q0 23 16 39l84 83q17 17 39 17h186q23 0 40 -17l119 -118q15 -14 17 -44q1 -9 0 -23.5t-1 -17.5q0 -23 -16 -39t-39 -16q-18 0 -33 10.5t-20 27.5q-38 11 -38 62q0 6 -1 8q-1 7 -6 12l-2 2q-7 7 -18 7zM452 537v-12 q0 -19 13.5 -32t32.5 -13t32 13t13 32v46q0 19 -13 32l-84 83q-12 14 -33 14h-186q-20 0 -32 -14l-84 -83q-13 -13 -13 -32v-441q0 -20 13 -33l84 -83q12 -14 32 -14h186q21 0 33 14l84 83q13 13 13 33v220q0 19 -13 32t-32 13h-151q-19 0 -32.5 -13t-13.5 -32t13.5 -32.5 t32.5 -13.5h60q19 0 32 -13t13 -32v-96q0 -15 -10 -25l-37 -37q-10 -10 -25 -10h-119q-15 0 -25 10l-37 37q-10 10 -10 25v374q0 15 10 25l37 37q10 10 25 10h119q15 0 25 -10l37 -37q10 -10 10 -25z" glyph-name="G" unicode="G"/><glyph d="M588 620v-610q0 -23 -16 -39t-39 -16q-18 0 -33 10.5t-20 27.5q-38 12 -38 52v215h-173q-14 0 -24.5 -11t-10.5 -25v-214q0 -23 -16.5 -39t-39.5 -16q-40 0 -52 38q-38 12 -38 52v610q0 23 16 39t39 16q18 0 33 -10.5t20 -27.5q38 -13 38 -52v-215h173q14 0 24.5 10.5 t10.5 25.5v214q0 23 16.5 39t39.5 16q40 0 52 -38q38 -12 38 -52zM543 45v610q0 19 -13 32t-32 13q-20 0 -33 -13t-13 -32v-214q0 -19 -13 -32.5t-32 -13.5h-173q-19 0 -32 13.5t-13 32.5v214q0 19 -13.5 32t-32.5 13t-32 -13t-13 -32v-610q0 -19 13 -32t32 -13t32.5 13 t13.5 32v214q0 19 13 32.5t32 13.5h173q19 0 32 -13.5t13 -32.5v-214q0 -19 13 -32t33 -13q19 0 32 13t13 32z" glyph-name="H" unicode="H"/><glyph d="M488 -45h-265q-40 0 -52 38q-38 12 -38 52q0 23 16 39.5t39 16.5h42q14 0 24.5 10.5t10.5 24.5v428h-42q-39 0 -52 38q-17 5 -27.5 20t-10.5 33q0 23 16 39t39 16h265q40 0 52 -38q38 -12 38 -52q0 -23 -16 -39.5t-39 -16.5h-42q-14 0 -24.5 -10.5t-10.5 -24.5v-428h42 q40 0 52 -38q17 -5 27.5 -20t10.5 -33q0 -23 -16 -39t-39 -16zM188 0h265q19 0 32 13t13 32t-13 32.5t-32 13.5h-42q-19 0 -32 13t-13 32v428q0 19 13 32t32 13h42q19 0 32 13.5t13 32.5t-13 32t-32 13h-265q-19 0 -32 -13t-13 -32t13 -32.5t32 -13.5h42q19 0 32 -13t13 -32 v-428q0 -19 -13 -32t-32 -13h-42q-19 0 -32 -13.5t-13 -32.5t13 -32t32 -13z" glyph-name="I" unicode="I"/><glyph d="M442 163v401h-87q-39 0 -52 38q-17 5 -27.5 20t-10.5 33q0 23 16 39t39 16h178q40 0 52 -38q38 -12 38 -52v-525q0 -25 -16 -40l-84 -83q-15 -17 -39 -17h-187q-22 0 -39 17l-84 83q-1 1 -3 4l-32 31q-16 16 -16 40v84q0 23 16 39.5t39 16.5q40 0 53 -38q38 -13 38 -53 v-51q0 -11 7 -18l2 -2q7 -7 18 -7h119q11 0 18 7l37 37q7 7 7 18zM452 564v-401q0 -15 -10 -25l-37 -37q-10 -10 -25 -10h-119q-15 0 -25 10l-37 37q-10 10 -10 25v51q0 19 -13.5 32.5t-32.5 13.5t-32 -13.5t-13 -32.5v-84q0 -20 13 -33l84 -83q12 -14 32 -14h187 q20 0 32 14l84 83q13 13 13 33v525q0 19 -13 32t-32 13h-178q-19 0 -32 -13t-13 -32t13 -32.5t32 -13.5h87q19 0 32 -13t13 -32z" glyph-name="J" unicode="J"/><glyph d="M316 260h-47q-14 0 -24.5 -11t-10.5 -25v-214q0 -23 -16.5 -39t-39.5 -16q-40 0 -52 38q-38 12 -38 52v610q0 23 16 39t39 16q18 0 33 -10.5t20 -27.5q38 -13 38 -52v-215h47q11 0 18 7l136 136q7 7 7 18v89q0 23 16.5 39t39.5 16q40 0 52 -38q38 -12 38 -52v-123 q0 -24 -16 -39l-119 -118q-10 -14 -10 -25q0 -9 8 -23l121 -120q16 -16 16 -39v-123q0 -23 -16 -39t-39 -16q-18 0 -33 10.5t-20 27.5q-38 12 -38 52v89q0 11 -7 18l-101 101q-7 7 -18 7zM234 305h47q15 0 25 -10l136 -136q10 -10 10 -25v-89q0 -19 13.5 -32t32.5 -13t32 13 t13 32v123q0 19 -13 32l-119 118q-13 14 -13 32t13 32l119 118q13 13 13 32v123q0 19 -13 32t-32 13t-32.5 -13t-13.5 -32v-89q0 -15 -10 -25l-136 -136q-10 -10 -25 -10h-47q-19 0 -32 13.5t-13 32.5v214q0 19 -13.5 32t-32.5 13t-32 -13t-13 -32v-610q0 -19 13 -32t32 -13 t32.5 13t13.5 32v214q0 19 13 32.5t32 13.5z" glyph-name="K" unicode="K"/><glyph d="M533 -45h-355q-40 0 -52 38q-38 12 -38 52v610q0 23 16 39t39 16q18 0 33 -10.5t20 -27.5q38 -13 38 -52v-519h264q40 0 52 -38q17 -5 27.5 -20t10.5 -33q0 -23 -16 -39t-39 -16zM189 136v519q0 19 -13.5 32t-32.5 13t-32 -13t-13 -32v-610q0 -19 13 -32t32 -13h355 q19 0 32 13t13 32t-13 32.5t-32 13.5h-264q-19 0 -32 13t-13 32z" glyph-name="L" unicode="L"/><glyph d="M258 462l-24 24v-476q0 -23 -16.5 -39t-39.5 -16q-40 0 -52 38q-38 12 -38 52v610q0 23 16 39t39 16q24 0 40 -16l114 -115q11 -8 24 -8q15 0 25 10l112 113q16 16 40 16q40 0 52 -38q38 -12 38 -52v-610q0 -23 -16 -39t-39 -16q-18 0 -33 10.5t-20 27.5q-38 12 -38 52 v405l-24 -23q-7 -8 -7 -18v-94q0 -23 -16 -39t-39 -16q-18 0 -33 10.5t-20 27.5q-38 12 -38 52v94q0 11 -7 18zM452 530v-485q0 -19 13.5 -32t32.5 -13t32 13t13 32v610q0 19 -13 32t-32 13q-20 0 -33 -13l-112 -113q-13 -13 -32 -13t-33 13l-112 113q-13 13 -33 13 q-19 0 -32 -13t-13 -32v-610q0 -19 13 -32t32 -13t32.5 13t13.5 32v485q0 8 4 8q3 0 6 -3l66 -66q10 -10 10 -25v-94q0 -19 13 -32t33 -13q19 0 32 13t13 32v94q0 15 10 25l66 66q3 3 6 3q4 0 4 -8z" glyph-name="M" unicode="M"/><glyph d="M550 672q38 -12 38 -52v-610q0 -23 -16 -39t-39 -16q-32 0 -48 28l-7 10q-17 7 -29 25l-215 370v-378q0 -23 -16.5 -39t-39.5 -16q-40 0 -52 38q-38 12 -38 52v610q0 23 16 39t39 16q31 0 49 -28l6 -11q17 -6 29 -24l215 -370v378q0 23 16.5 39t39.5 16q40 0 52 -38z M445 227l-262 450q-14 23 -40 23q-19 0 -32 -13t-13 -32v-610q0 -19 13 -32t32 -13t32.5 13t13.5 32v427q0 7 2 7q3 0 5 -5l262 -451q14 -23 40 -23q19 0 32 13t13 32v610q0 19 -13 32t-32 13t-32.5 -13t-13.5 -32v-426q0 -7 -2 -7t-5 5z" glyph-name="N" unicode="N"/><glyph d="M588 536v-442q0 -24 -16 -39l-84 -83q-17 -17 -40 -17h-186q-22 0 -39 17l-84 83q-1 1 -3 4l-32 31q-16 16 -16 39v442q0 23 16 39l84 83q17 17 39 17h186q23 0 40 -17l119 -118q16 -16 16 -39zM530 603l-84 83q-12 14 -33 14h-186q-20 0 -32 -14l-84 -83 q-13 -13 -13 -32v-442q0 -19 13 -32l84 -83q12 -14 32 -14h186q21 0 33 14l84 83q13 13 13 32v442q0 19 -13 32zM442 138l-37 -37q-10 -10 -25 -10h-119q-15 0 -25 10l-37 37q-10 10 -10 25v374q0 15 10 25l37 37q10 10 25 10h119q15 0 25 -10l37 -37q10 -10 10 -25v-374 q0 -15 -10 -25zM435 555l-2 2q-7 7 -18 7h-119q-10 0 -18 -7l-37 -37q-7 -8 -7 -18v-374q0 -11 7 -18l2 -2q7 -7 18 -7h119q11 0 18 7l37 37q7 7 7 18v374q0 11 -7 18z" glyph-name="O" unicode="O"/><glyph d="M126 -7q-38 12 -38 52v610q0 23 16 39t39 16h270q23 0 40 -17l119 -118q16 -16 16 -39v-159q0 -25 -16 -40l-84 -83q-17 -17 -40 -17h-179q-14 0 -24.5 -10.5t-10.5 -24.5v-192q0 -23 -16.5 -39t-39.5 -16q-40 0 -52 38zM189 45v192q0 19 13 32t32 13h179q21 0 33 14 l84 83q13 13 13 33v159q0 19 -13 32l-84 83q-12 14 -33 14h-270q-19 0 -32 -13t-13 -32v-610q0 -19 13 -32t32 -13t32.5 13t13.5 32zM380 373h-146q-19 0 -32 13t-13 32v146q0 19 13 32t32 13h146q15 0 25 -10l37 -37q10 -10 10 -25v-92q0 -15 -10 -25l-37 -37 q-10 -10 -25 -10zM435 555l-2 2q-7 7 -18 7h-146q-14 0 -24.5 -10.5t-10.5 -24.5v-146h146q11 0 18 7l37 37q7 7 7 18v92q0 11 -7 18z" glyph-name="P" unicode="P"/><glyph d="M493 -113l-30 31q-1 0 -5 4l-28 28q-8 5 -15 5h-152q-23 0 -40 17l-84 83q-1 1 -3 4l-32 31q-16 16 -16 40v441q0 23 16 39l84 83q17 17 40 17h186q22 0 39 -17l119 -118q16 -16 16 -39v-441q0 -17 -8 -31q-9 -13 -18 -19q-20 -20 -20 -35q0 -16 20 -34l9 -9q7 -7 9 -10 q8 -14 8 -31q0 -23 -16 -39t-39 -16q-24 0 -40 16zM228 0h152q15 0 25 -10l60 -61q13 -13 33 -13q19 0 32 13t13 32q0 20 -13 33l-20 19q-13 13 -13 32q0 20 13 33l20 19q13 13 13 33v441q0 19 -13 32l-84 83q-12 14 -32 14h-186q-21 0 -33 -14l-84 -83q-13 -13 -13 -32 v-441q0 -20 13 -33l84 -83q12 -14 33 -14zM442 138l-37 -37q-10 -10 -25 -10h-119q-15 0 -25 10l-37 37q-10 10 -10 25v374q0 15 10 25l37 37q10 10 25 10h119q15 0 25 -10l37 -37q10 -10 10 -25v-374q0 -15 -10 -25zM435 555l-2 2q-7 7 -18 7h-119q-10 0 -18 -7l-37 -37 q-7 -8 -7 -18v-374q0 -11 7 -18l2 -2q7 -7 18 -7h119q11 0 18 7l37 37q7 7 7 18v374q0 11 -7 18z" glyph-name="Q" unicode="Q"/><glyph d="M394 237h-125q-14 0 -24.5 -10.5t-10.5 -24.5v-192q0 -23 -16.5 -39t-39.5 -16q-40 0 -52 38q-38 12 -38 52v610q0 23 16 39t39 16h250q23 0 40 -17l139 -139q16 -16 16 -39v-118q0 -16 -12 -35q-22 -22 -25 -24q-30 -28 -30 -45q0 -11 6 -20l2 -2q8 -8 12 -13q0 -1 2 -3 l8 -8q3 -2 25 -24q12 -19 12 -35v-178q0 -23 -16 -39t-39 -16q-18 0 -33 10.5t-20 27.5q-38 12 -38 52v144q0 11 -7 18l-23 23q-7 7 -18 7zM234 282h125q15 0 25 -10l58 -58q10 -10 10 -25v-144q0 -19 13.5 -32t32.5 -13t32 13t13 32v178q0 19 -13 32l-41 40q-13 14 -13 33 t13 32l40 40q14 14 14 32v118q0 19 -13 32l-104 104q-14 14 -33 14h-250q-19 0 -32 -13t-13 -32v-610q0 -19 13 -32t32 -13t32.5 13t13.5 32v192q0 19 13 32t32 13zM442 441l-58 -58q-10 -10 -25 -10h-125q-19 0 -32 13t-13 32v146q0 19 13 32t32 13h125q15 0 25 -10l58 -58 q10 -10 10 -25v-50q0 -15 -10 -25zM435 534l-23 23q-7 7 -18 7h-125q-14 0 -24.5 -10.5t-10.5 -24.5v-146h125q11 0 18 7l58 58q7 7 7 18v50q0 11 -7 18z" glyph-name="R" unicode="R"/><glyph d="M415 564h-119q-10 0 -18 -7q-25 -25 -32 -33q-9 -9 -11 -17q-2 -6 -2 -23q1 -12 1 -51q0 -12 8 -18l5 -6q7 -4 14 -4h153q23 0 39 -16l31 -32q1 -1 4 -3l84 -85q16 -16 16 -39v-136q0 -24 -16 -39l-84 -83q-15 -17 -39 -17h-187q-22 0 -39 17l-84 83q-1 1 -3 4l-32 31 q-15 15 -17 43q-1 9 0 24t1 18q0 23 16 38.5t39 15.5q18 0 33.5 -10.5t20.5 -27.5q37 -14 37 -61q1 -2 1 -8q1 -8 6 -12l2 -2q7 -7 18 -7h119q11 0 18 7q25 25 32 33q10 10 11 16q2 6 2 23q0 5 -0.5 21.5t-0.5 29.5q0 10 -7 18l-6 6q-7 4 -14 4h-153q-23 0 -39 16l-119 120 q-16 16 -16 39v137q0 23 16 39l84 83q17 17 39 17h187q22 0 39 -17l119 -118q15 -14 17 -44q1 -9 0 -23.5t-1 -17.5q0 -23 -16 -39t-39 -16q-18 0 -33 10.5t-20 27.5q-38 12 -38 52v12q0 11 -7 18l-2 2q-7 7 -18 7zM452 537v-12q0 -19 13.5 -32t32.5 -13t32 13t13 32v46 q0 19 -13 32l-84 83q-12 14 -32 14h-187q-20 0 -32 -14l-84 -83q-13 -13 -13 -32v-137q0 -19 13 -32l84 -85q13 -13 32 -13h153q15 0 25 -10l37 -38q10 -10 10 -25v-68q0 -15 -10 -25l-37 -37q-10 -10 -25 -10h-119q-15 0 -25 10l-37 37q-10 10 -10 25v12q0 19 -13.5 31.5 t-32.5 12.5t-32 -12.5t-13 -31.5v-46q0 -19 13 -32l84 -83q12 -14 32 -14h187q20 0 32 14l84 83q13 13 13 32v136q0 19 -13 32l-84 85q-13 13 -32 13h-153q-15 0 -25 10l-37 38q-10 10 -10 25v69q0 15 10 25l37 37q10 10 25 10h119q15 0 25 -10l37 -37q10 -10 10 -25z" glyph-name="S" unicode="S"/><glyph d="M265 45v519h-87q-39 0 -52 38q-17 5 -27.5 20t-10.5 33q0 23 16 39t39 16h355q40 0 52 -38q38 -12 38 -52q0 -23 -16 -39.5t-39 -16.5h-87q-14 0 -24.5 -10.5t-10.5 -24.5v-519q0 -24 -16 -39.5t-40 -15.5q-40 0 -52 38q-38 12 -38 52zM366 45v519q0 19 13 32t32 13h87 q19 0 32 13.5t13 32.5t-13 32t-32 13h-355q-19 0 -32 -13t-13 -32t13 -32.5t32 -13.5h87q19 0 32 -13t13 -32v-519q0 -19 13 -32t32 -13q20 0 33 13t13 32z" glyph-name="T" unicode="T"/><glyph d="M550 672q38 -12 38 -52v-526q0 -24 -16 -39l-84 -83q-17 -17 -40 -17h-186q-22 0 -39 17l-84 83q-1 1 -3 4l-32 31q-16 16 -16 39v526q0 23 16 39t39 16q18 0 33 -10.5t20 -27.5q38 -13 38 -52v-492q0 -11 7 -18l2 -2q7 -7 18 -7h119q11 0 18 7l37 37q7 7 7 18v492 q0 23 16.5 39t39.5 16q40 0 52 -38zM189 163v492q0 19 -13.5 32t-32.5 13t-32 -13t-13 -32v-526q0 -19 13 -32l84 -83q12 -14 32 -14h186q21 0 33 14l84 83q13 13 13 32v526q0 19 -13 32t-32 13t-32.5 -13t-13.5 -32v-492q0 -15 -10 -25l-37 -37q-10 -10 -25 -10h-119 q-15 0 -25 10l-37 37q-10 10 -10 25z" glyph-name="U" unicode="U"/><glyph d="M588 620v-451q0 -25 -17 -40l-158 -158q-14 -15 -38 -17q-7 -1 -20.5 0t-17.5 1q-23 0 -39 16l-193 193q-17 17 -17 40v451q0 23 16 39t39 16q18 0 33 -10.5t20 -27.5q38 -13 38 -52v-417q0 -11 7 -18l57 -58q10 -7 23 -7q15 0 25 10l89 90q7 7 7 18v417q0 23 16.5 39 t39.5 16q40 0 52 -38q38 -12 38 -52zM452 655v-417q0 -15 -10 -25l-89 -90q-13 -13 -32 -13q-20 0 -33 13l-89 90q-10 10 -10 25v417q0 19 -13.5 32t-32.5 13t-32 -13t-13 -32v-451q0 -19 14 -33l158 -158q13 -13 32 -13h37q19 0 32 13l158 158q14 14 14 33v451q0 19 -13 32 t-32 13t-32.5 -13t-13.5 -32z" glyph-name="V" unicode="V"/><glyph d="M588 620v-521q0 -24 -16 -39l-89 -89q-15 -16 -39 -16q-23 0 -39 16l-30 30l-5 5l-14 14l-50 -49q-15 -16 -39 -16q-23 0 -39 16l-124 124q-16 15 -16 39v521q0 23 16 39t39 16q18 0 33 -10.5t20 -27.5q38 -13 38 -52v-482q13 1 22 10t9 20v182q0 23 16.5 39t39.5 16 q40 0 52 -38q38 -12 38 -52v-177q13 1 22 10t9 20v487q0 23 16.5 39t39.5 16q40 0 52 -38q38 -12 38 -52zM452 655v-487q0 -17 -12.5 -28.5t-30.5 -11.5q-16 0 -29.5 11.5t-13.5 28.5v182q0 19 -13 32t-32 13q-20 0 -33 -13t-13 -32v-182q0 -17 -12.5 -28.5t-30.5 -11.5 q-16 0 -29.5 11.5t-13.5 28.5v487q0 19 -13.5 32t-32.5 13t-32 -13t-13 -32v-521q0 -19 13 -32l89 -89q13 -13 32 -13t32 13l57 57l56 -57q13 -13 32 -13t32 13l89 89q13 13 13 32v521q0 19 -13 32t-32 13t-32.5 -13t-13.5 -32z" glyph-name="W" unicode="W"/><glyph d="M588 620v-147q0 -24 -17 -39l-93 -94q-11 -11 -11 -25t11 -25l93 -94q17 -17 17 -39v-147q0 -23 -16 -39t-39 -16q-18 0 -33 10.5t-20 27.5q-38 12 -38 52v113q0 11 -7 18l-54 54q-11 11 -26 11q-14 0 -25 -11l-89 -89q-7 -8 -7 -18v-113q0 -23 -16.5 -39t-39.5 -16 q-40 0 -52 38q-38 12 -38 52v147q0 22 17 39l93 94q11 11 11 25t-11 25l-93 94q-17 17 -17 39v147q0 23 16 39t39 16q18 0 33 -10.5t20 -27.5q38 -13 38 -52v-113q0 -11 7 -18l57 -57q11 -8 22 -8q16 0 26 10l89 90q7 7 7 18v113q0 23 16.5 39t39.5 16q40 0 52 -38 q38 -12 38 -52zM452 655v-113q0 -15 -10 -25l-89 -90q-14 -13 -33 -13q-18 0 -32 13l-89 90q-10 10 -10 25v113q0 19 -13.5 32t-32.5 13t-32 -13t-13 -32v-147q0 -20 14 -32l93 -94q14 -14 14 -32t-14 -32l-93 -94q-14 -12 -14 -32v-147q0 -19 13 -32t32 -13t32.5 13 t13.5 32v113q0 15 10 25l89 89q14 14 32 14q19 0 33 -14l89 -89q10 -10 10 -25v-113q0 -19 13.5 -32t32.5 -13t32 13t13 32v147q0 20 -14 32l-93 94q-14 14 -14 32t14 32l93 94q14 12 14 32v147q0 19 -13 32t-32 13t-32.5 -13t-13.5 -32z" glyph-name="X" unicode="X"/><glyph d="M196 672q38 -13 38 -52v-135q0 -11 7 -18l57 -58q10 -7 22 -7q15 0 26 10l89 90q7 7 7 18v135q0 23 16.5 39t39.5 16q40 0 52 -38q38 -12 38 -52v-169q0 -25 -17 -40l-153 -153q-7 -8 -7 -18v-230q0 -24 -16 -39.5t-40 -15.5q-40 0 -52 38q-38 12 -38 52v230q0 11 -7 18 l-153 153q-17 17 -17 40v169q0 23 16 39t39 16q18 0 33 -10.5t20 -27.5zM112 453l153 -153q10 -10 10 -25v-230q0 -19 13 -32t32 -13q20 0 33 13t13 32v230q0 15 10 25l153 153q14 14 14 33v169q0 19 -13 32t-32 13t-32.5 -13t-13.5 -32v-135q0 -15 -10 -25l-89 -90 q-13 -13 -33 -13q-19 0 -32 13l-89 90q-10 10 -10 25v135q0 19 -13.5 32t-32.5 13t-32 -13t-13 -32v-169q0 -19 14 -33z" glyph-name="Y" unicode="Y"/><glyph d="M442 564h-264q-39 0 -52 38q-17 5 -27.5 20t-10.5 33q0 23 16 39t39 16h355q40 0 52 -38q38 -12 38 -52v-128q0 -24 -16 -39l-331 -331q-7 -8 -7 -21h264q40 0 52 -38q17 -5 27.5 -20t10.5 -33q0 -23 -16 -39t-39 -16h-355q-40 0 -52 38q-38 12 -38 52v128q0 24 16 39 l331 331q7 7 7 21zM442 536l-331 -331q-13 -13 -13 -32v-128q0 -19 13 -32t32 -13h355q19 0 32 13t13 32t-13 32.5t-32 13.5h-264q-19 0 -32 13t-13 32v3q0 15 10 25l331 331q13 13 13 32v128q0 19 -13 32t-32 13h-355q-19 0 -32 -13t-13 -32t13 -32.5t32 -13.5h264 q19 0 32 -13t13 -32v-3q0 -15 -10 -25z" glyph-name="Z" unicode="Z"/><glyph d="M447 717q38 -12 38 -52q0 -23 -16 -39.5t-39 -16.5q-20 0 -31 1q-14 0 -32 -2q-16 -3 -23.5 -10.5t-7.5 -23.5v-519q9 -1 27 -1q6 0 17 0.5t15 0.5q40 0 52 -38q38 -12 38 -52q0 -23 -16 -39.5t-39 -16.5h-150q-40 0 -52 38q-38 12 -38 52v701q0 23 16 39t39 16h150 q40 0 52 -38zM245 -46h150q19 0 32 13.5t13 32.5t-13 32t-32 13h-59q-19 0 -32 13t-13 32v519q0 19 13 32t32 13h59q19 0 32 13.5t13 32.5t-13 32t-32 13h-150q-19 0 -32 -13t-13 -32v-701q0 -19 13 -32t32 -13z" glyph-name="bracketleft" unicode="["/><glyph d="M588 138v-128q0 -23 -16 -39t-39 -16q-18 0 -33 10.5t-20 27.5q-38 12 -38 52v94q0 11 -7 18l-330 331q-17 17 -17 39v128q0 23 16 39t39 16q18 0 33 -10.5t20 -27.5q38 -13 38 -52v-94q0 -11 7 -18l330 -331q17 -17 17 -39zM189 561v94q0 19 -13.5 32t-32.5 13t-32 -13 t-13 -32v-128q0 -18 14 -32l330 -331q10 -10 10 -25v-94q0 -19 13.5 -32t32.5 -13t32 13t13 32v128q0 18 -14 32l-330 331q-10 10 -10 25z" glyph-name="backslash" unicode="\"/><glyph d="M430 -91h-150q-39 0 -52 38q-17 5 -27.5 20t-10.5 33q0 24 13.5 37t29.5 16t40 3q6 0 16.5 -0.5t14.5 -0.5q14 0 24.5 10.5t10.5 24.5v518q-5 2 -27 2q-11 -1 -32 -1q-39 0 -52 38q-17 5 -27.5 20t-10.5 33q0 23 16 39t39 16h150q40 0 52 -38q38 -12 38 -52v-701 q0 -23 -16 -39t-39 -16zM245 -46h150q19 0 32 13t13 32v701q0 19 -13 32t-32 13h-150q-19 0 -32 -13t-13 -32t13 -32.5t32 -13.5h59q19 0 32 -13t13 -32v-519q0 -19 -13 -32t-32 -13h-59q-19 0 -32 -13t-13 -32t13 -32.5t32 -13.5z" glyph-name="bracketright" unicode="]"/><glyph d="M158 457q-38 12 -38 52q0 24 16 40l145 145q16 16 39 16t39 -16l180 -180q16 -16 16 -40t-16.5 -39.5t-40.5 -15.5q-21 0 -37 16l-81 81q-11 11 -25 11t-25 -11l-81 -81q-13 -16 -37 -16q-42 0 -54 38zM320 700q-19 0 -32 -13l-145 -145q-13 -13 -13 -33q0 -19 13.5 -32 t33.5 -13q17 0 30 13l81 81q14 14 32 14t32 -14l81 -81q13 -13 30 -13q20 0 33.5 13t13.5 32q0 20 -13 33l-145 145q-13 13 -32 13z" glyph-name="asciicircum" unicode="^"/><glyph d="M550 17q38 -12 38 -52q0 -24 -15.5 -40t-39.5 -16h-355q-40 0 -52 38q-38 12 -38 53q0 23 16 39t39 16h355q40 0 52 -38zM498 45h-355q-19 0 -32 -13t-13 -32q0 -20 13 -33t32 -13h355q19 0 32 13t13 33q0 19 -13 32t-32 13z" glyph-name="underscore" unicode="_"/><glyph d="M318 976l31 -32q1 -1 4 -3l81 -82q17 -17 17 -39q0 -23 -16.5 -39t-39.5 -16t-39 16l-117 117q-16 15 -16 39q0 23 16 39t39 16q24 0 40 -16zM246 905l82 -82q13 -13 32 -13t32.5 13t13.5 32q0 18 -14 32l-81 82q-13 13 -33 13q-19 0 -32 -13t-13 -32t13 -32z" glyph-name="grave" unicode="`"/><glyph d="M588 515v-505q0 -23 -16 -39t-39 -16q-18 0 -33 10.5t-20 27.5q-38 12 -38 52v192h-173q-14 0 -24.5 -10.5t-10.5 -24.5v-192q0 -23 -16.5 -39t-39.5 -16q-40 0 -52 38q-38 12 -38 52v505q0 23 16 39l105 104q17 17 39 17h145q23 0 39 -16l139 -140q17 -17 17 -39z M543 45v505q0 20 -14 32l-104 105q-13 13 -32 13h-145q-20 0 -32 -14l-105 -104q-13 -13 -13 -32v-505q0 -19 13 -32t32 -13t32.5 13t13.5 32v192q0 19 13 32t32 13h173q19 0 32 -13t13 -32v-192q0 -19 13.5 -32t32.5 -13t32 13t13 32zM452 516v-98q0 -19 -13 -32t-32 -13 h-173q-19 0 -32 13t-13 32v98q0 15 10 25l58 58q10 10 25 10h77q15 0 25 -10l58 -58q10 -10 10 -25zM435 534l-23 23q-7 7 -18 7h-77q-10 0 -18 -7l-58 -58q-7 -8 -7 -18v-98h173q14 0 24.5 10.5t10.5 24.5v98q0 11 -7 18z" glyph-name="a" unicode="a"/><glyph d="M562 279l9 -9q7 -7 9 -10q8 -14 8 -30v-135q0 -25 -16 -40l-84 -83q-17 -17 -40 -17h-270q-40 0 -52 38q-38 12 -38 52v610q0 23 16 39t39 16h270q23 0 40 -17l119 -118q16 -16 16 -39v-137q0 -17 -8 -31l-2 -2l-5 -6l-2 -2l-9 -9q-20 -20 -20 -34q0 -16 20 -36zM510 382 l20 20q13 13 13 32v137q0 19 -13 32l-84 83q-12 14 -33 14h-270q-19 0 -32 -13t-13 -32v-610q0 -19 13 -32t32 -13h270q21 0 33 14l84 83q13 13 13 33v135q0 19 -13 32l-20 20q-13 13 -13 33q0 19 13 32zM442 443l-37 -38q-10 -10 -25 -10h-146q-19 0 -32 13.5t-13 32.5v123 q0 19 13 32t32 13h146q15 0 25 -10l37 -37q10 -10 10 -25v-69q0 -15 -10 -25zM435 555l-2 2q-7 7 -18 7h-146q-14 0 -24.5 -10.5t-10.5 -24.5v-124h146q11 0 18 7l37 38q7 8 7 18v69q0 11 -7 18zM442 138l-37 -37q-10 -10 -25 -10h-146q-19 0 -32 13t-13 32v122 q0 19 13 32.5t32 13.5h146q15 0 25 -10l37 -38q10 -10 10 -25v-68q0 -15 -10 -25zM435 249l-6 6q-7 4 -14 4h-146q-14 0 -24.5 -11t-10.5 -25v-122h146q11 0 18 7l37 37q7 7 7 18v68q0 10 -7 18z" glyph-name="b" unicode="b"/><glyph d="M234 481v-332q0 -11 7 -18l23 -23q7 -7 18 -7h77q11 0 18 7l58 58q7 7 7 20v8.5v10.5v9q0 23 16.5 39.5t39.5 16.5q40 0 52 -38q17 -5 27.5 -20t10.5 -33v-64q0 -22 -17 -39l-104 -105q-15 -16 -39 -16h-145q-23 0 -40 17l-139 139q-16 15 -16 39v400q0 24 16 39l104 104 q17 17 40 17h145q23 0 39 -16l139 -140q17 -17 17 -39v-64q0 -23 -16 -39.5t-39 -16.5q-40 0 -53 38q-38 13 -38 53v28q0 13 -7 20l-23 23q-7 7 -18 7h-77q-10 0 -18 -7l-58 -58q-7 -8 -7 -18zM189 184v332q0 15 10 25l58 58q10 10 25 10h77q15 0 25 -10l58 -58 q10 -10 10 -25v-30q0 -19 13.5 -32.5t32.5 -13.5t32 13.5t13 32.5v64q0 20 -14 32l-104 105q-13 13 -32 13h-145q-19 0 -33 -14l-104 -104q-13 -13 -13 -32v-400q0 -19 13 -32l104 -104q14 -14 33 -14h145q19 0 32 13l104 105q14 12 14 32v64q0 19 -13 32.5t-32 13.5 t-32.5 -13.5t-13.5 -32.5v-30q0 -15 -10 -25l-58 -58q-10 -10 -25 -10h-77q-15 0 -25 10l-58 58q-10 10 -10 25z" glyph-name="c" unicode="c"/><glyph d="M588 515v-400q0 -22 -17 -39l-104 -105q-15 -16 -39 -16h-250q-40 0 -52 38q-38 12 -38 52v610q0 23 16 39t39 16h250q23 0 39 -16l139 -140q17 -17 17 -39zM529 582l-104 105q-13 13 -32 13h-250q-19 0 -32 -13t-13 -32v-610q0 -19 13 -32t32 -13h250q19 0 32 13 l104 105q14 12 14 32v400q0 20 -14 32zM442 159l-58 -58q-10 -10 -25 -10h-125q-19 0 -32 13t-13 32v428q0 19 13 32t32 13h125q15 0 25 -10l58 -58q10 -10 10 -25v-332q0 -15 -10 -25zM435 534l-23 23q-7 7 -18 7h-125q-14 0 -24.5 -10.5t-10.5 -24.5v-428h125q11 0 18 7 l58 58q7 7 7 18v332q0 11 -7 18z" glyph-name="d" unicode="d"/><glyph d="M550 672q38 -12 38 -52q0 -23 -16 -39.5t-39 -16.5h-264q-14 0 -24.5 -10.5t-10.5 -24.5v-124h196q18 0 33 -10.5t20 -27.5q38 -13 38 -52q0 -23 -16.5 -39.5t-39.5 -16.5h-196q-14 0 -24.5 -11t-10.5 -25v-122h264q40 0 52 -38q17 -5 27.5 -20t10.5 -33q0 -23 -16 -39 t-39 -16h-355q-40 0 -52 38q-38 12 -38 52v610q0 23 16 39t39 16h355q40 0 52 -38zM98 655v-610q0 -19 13 -32t32 -13h355q19 0 32 13t13 32t-13 32.5t-32 13.5h-264q-19 0 -32 13t-13 32v122q0 19 13 32.5t32 13.5h196q19 0 32.5 13.5t13.5 32.5t-13.5 32t-32.5 13h-196 q-19 0 -32 13.5t-13 32.5v123q0 19 13 32t32 13h264q19 0 32 13.5t13 32.5t-13 32t-32 13h-355q-19 0 -32 -13t-13 -32z" glyph-name="e" unicode="e"/><glyph d="M550 672q38 -12 38 -52q0 -23 -16 -39.5t-39 -16.5h-264q-14 0 -24.5 -10.5t-10.5 -24.5v-124h196q40 0 52 -38q38 -12 38 -52q0 -23 -16 -39.5t-39 -16.5h-196q-14 0 -24.5 -11t-10.5 -25v-214q0 -23 -16.5 -39t-39.5 -16q-40 0 -52 38q-38 12 -38 52v611q0 23 16 39 t39 16h355q40 0 52 -38zM189 44v214q0 19 13 32.5t32 13.5h196q19 0 32 13.5t13 32.5t-13 32t-32 13h-196q-19 0 -32 13.5t-13 32.5v123q0 19 13 32t32 13h264q19 0 32 13.5t13 32.5t-13 32t-32 13h-355q-19 0 -32 -13t-13 -32v-611q0 -19 13 -32t32 -13t32.5 13t13.5 32z " glyph-name="f" unicode="f"/><glyph d="M415 564h-119q-10 0 -18 -7l-37 -37q-7 -8 -7 -18v-374q0 -11 7 -18l2 -2q7 -7 18 -7h119q11 0 18 7l37 37q7 7 7 18v96h-60q-40 0 -53 38q-38 13 -38 53q0 23 16.5 39t39.5 16h151q40 0 52 -38q38 -12 38 -52v-220q0 -25 -16 -40l-84 -83q-17 -17 -40 -17h-186 q-22 0 -39 17l-84 83q-1 1 -3 4l-32 31q-16 16 -16 40v441q0 23 16 39l84 83q17 17 39 17h186q23 0 40 -17l119 -118q15 -14 17 -44q1 -9 0 -23.5t-1 -17.5q0 -23 -16 -39t-39 -16q-18 0 -33 10.5t-20 27.5q-38 11 -38 62q0 6 -1 8q-1 7 -6 12l-2 2q-7 7 -18 7zM452 537v-12 q0 -19 13.5 -32t32.5 -13t32 13t13 32v46q0 19 -13 32l-84 83q-12 14 -33 14h-186q-20 0 -32 -14l-84 -83q-13 -13 -13 -32v-441q0 -20 13 -33l84 -83q12 -14 32 -14h186q21 0 33 14l84 83q13 13 13 33v220q0 19 -13 32t-32 13h-151q-19 0 -32.5 -13t-13.5 -32t13.5 -32.5 t32.5 -13.5h60q19 0 32 -13t13 -32v-96q0 -15 -10 -25l-37 -37q-10 -10 -25 -10h-119q-15 0 -25 10l-37 37q-10 10 -10 25v374q0 15 10 25l37 37q10 10 25 10h119q15 0 25 -10l37 -37q10 -10 10 -25z" glyph-name="g" unicode="g"/><glyph d="M588 620v-610q0 -23 -16 -39t-39 -16q-18 0 -33 10.5t-20 27.5q-38 12 -38 52v215h-173q-14 0 -24.5 -11t-10.5 -25v-214q0 -23 -16.5 -39t-39.5 -16q-40 0 -52 38q-38 12 -38 52v610q0 23 16 39t39 16q18 0 33 -10.5t20 -27.5q38 -13 38 -52v-215h173q14 0 24.5 10.5 t10.5 25.5v214q0 23 16.5 39t39.5 16q40 0 52 -38q38 -12 38 -52zM543 45v610q0 19 -13 32t-32 13q-20 0 -33 -13t-13 -32v-214q0 -19 -13 -32.5t-32 -13.5h-173q-19 0 -32 13.5t-13 32.5v214q0 19 -13.5 32t-32.5 13t-32 -13t-13 -32v-610q0 -19 13 -32t32 -13t32.5 13 t13.5 32v214q0 19 13 32.5t32 13.5h173q19 0 32 -13.5t13 -32.5v-214q0 -19 13 -32t33 -13q19 0 32 13t13 32z" glyph-name="h" unicode="h"/><glyph d="M488 -45h-265q-40 0 -52 38q-38 12 -38 52q0 23 16 39.5t39 16.5h42q14 0 24.5 10.5t10.5 24.5v428h-42q-39 0 -52 38q-17 5 -27.5 20t-10.5 33q0 23 16 39t39 16h265q40 0 52 -38q38 -12 38 -52q0 -23 -16 -39.5t-39 -16.5h-42q-14 0 -24.5 -10.5t-10.5 -24.5v-428h42 q40 0 52 -38q17 -5 27.5 -20t10.5 -33q0 -23 -16 -39t-39 -16zM188 0h265q19 0 32 13t13 32t-13 32.5t-32 13.5h-42q-19 0 -32 13t-13 32v428q0 19 13 32t32 13h42q19 0 32 13.5t13 32.5t-13 32t-32 13h-265q-19 0 -32 -13t-13 -32t13 -32.5t32 -13.5h42q19 0 32 -13t13 -32 v-428q0 -19 -13 -32t-32 -13h-42q-19 0 -32 -13.5t-13 -32.5t13 -32t32 -13z" glyph-name="i" unicode="i"/><glyph d="M442 163v401h-87q-39 0 -52 38q-17 5 -27.5 20t-10.5 33q0 23 16 39t39 16h178q40 0 52 -38q38 -12 38 -52v-525q0 -25 -16 -40l-84 -83q-15 -17 -39 -17h-187q-22 0 -39 17l-84 83q-1 1 -3 4l-32 31q-16 16 -16 40v84q0 23 16 39.5t39 16.5q40 0 53 -38q38 -13 38 -53 v-51q0 -11 7 -18l2 -2q7 -7 18 -7h119q11 0 18 7l37 37q7 7 7 18zM452 564v-401q0 -15 -10 -25l-37 -37q-10 -10 -25 -10h-119q-15 0 -25 10l-37 37q-10 10 -10 25v51q0 19 -13.5 32.5t-32.5 13.5t-32 -13.5t-13 -32.5v-84q0 -20 13 -33l84 -83q12 -14 32 -14h187 q20 0 32 14l84 83q13 13 13 33v525q0 19 -13 32t-32 13h-178q-19 0 -32 -13t-13 -32t13 -32.5t32 -13.5h87q19 0 32 -13t13 -32z" glyph-name="j" unicode="j"/><glyph d="M316 260h-47q-14 0 -24.5 -11t-10.5 -25v-214q0 -23 -16.5 -39t-39.5 -16q-40 0 -52 38q-38 12 -38 52v610q0 23 16 39t39 16q18 0 33 -10.5t20 -27.5q38 -13 38 -52v-215h47q11 0 18 7l136 136q7 7 7 18v89q0 23 16.5 39t39.5 16q40 0 52 -38q38 -12 38 -52v-123 q0 -24 -16 -39l-119 -118q-10 -14 -10 -25q0 -9 8 -23l121 -120q16 -16 16 -39v-123q0 -23 -16 -39t-39 -16q-18 0 -33 10.5t-20 27.5q-38 12 -38 52v89q0 11 -7 18l-101 101q-7 7 -18 7zM234 305h47q15 0 25 -10l136 -136q10 -10 10 -25v-89q0 -19 13.5 -32t32.5 -13t32 13 t13 32v123q0 19 -13 32l-119 118q-13 14 -13 32t13 32l119 118q13 13 13 32v123q0 19 -13 32t-32 13t-32.5 -13t-13.5 -32v-89q0 -15 -10 -25l-136 -136q-10 -10 -25 -10h-47q-19 0 -32 13.5t-13 32.5v214q0 19 -13.5 32t-32.5 13t-32 -13t-13 -32v-610q0 -19 13 -32t32 -13 t32.5 13t13.5 32v214q0 19 13 32.5t32 13.5z" glyph-name="k" unicode="k"/><glyph d="M533 -45h-355q-40 0 -52 38q-38 12 -38 52v610q0 23 16 39t39 16q18 0 33 -10.5t20 -27.5q38 -13 38 -52v-519h264q40 0 52 -38q17 -5 27.5 -20t10.5 -33q0 -23 -16 -39t-39 -16zM189 136v519q0 19 -13.5 32t-32.5 13t-32 -13t-13 -32v-610q0 -19 13 -32t32 -13h355 q19 0 32 13t13 32t-13 32.5t-32 13.5h-264q-19 0 -32 13t-13 32z" glyph-name="l" unicode="l"/><glyph d="M258 462l-24 24v-476q0 -23 -16.5 -39t-39.5 -16q-40 0 -52 38q-38 12 -38 52v610q0 23 16 39t39 16q24 0 40 -16l114 -115q11 -8 24 -8q15 0 25 10l112 113q16 16 40 16q40 0 52 -38q38 -12 38 -52v-610q0 -23 -16 -39t-39 -16q-18 0 -33 10.5t-20 27.5q-38 12 -38 52 v405l-24 -23q-7 -8 -7 -18v-94q0 -23 -16 -39t-39 -16q-18 0 -33 10.5t-20 27.5q-38 12 -38 52v94q0 11 -7 18zM452 530v-485q0 -19 13.5 -32t32.5 -13t32 13t13 32v610q0 19 -13 32t-32 13q-20 0 -33 -13l-112 -113q-13 -13 -32 -13t-33 13l-112 113q-13 13 -33 13 q-19 0 -32 -13t-13 -32v-610q0 -19 13 -32t32 -13t32.5 13t13.5 32v485q0 8 4 8q3 0 6 -3l66 -66q10 -10 10 -25v-94q0 -19 13 -32t33 -13q19 0 32 13t13 32v94q0 15 10 25l66 66q3 3 6 3q4 0 4 -8z" glyph-name="m" unicode="m"/><glyph d="M550 672q38 -12 38 -52v-610q0 -23 -16 -39t-39 -16q-32 0 -48 28l-7 10q-17 7 -29 25l-215 370v-378q0 -23 -16.5 -39t-39.5 -16q-40 0 -52 38q-38 12 -38 52v610q0 23 16 39t39 16q31 0 49 -28l6 -11q17 -6 29 -24l215 -370v378q0 23 16.5 39t39.5 16q40 0 52 -38z M445 227l-262 450q-14 23 -40 23q-19 0 -32 -13t-13 -32v-610q0 -19 13 -32t32 -13t32.5 13t13.5 32v427q0 7 2 7q3 0 5 -5l262 -451q14 -23 40 -23q19 0 32 13t13 32v610q0 19 -13 32t-32 13t-32.5 -13t-13.5 -32v-426q0 -7 -2 -7t-5 5z" glyph-name="n" unicode="n"/><glyph d="M588 536v-442q0 -24 -16 -39l-84 -83q-17 -17 -40 -17h-186q-22 0 -39 17l-84 83q-1 1 -3 4l-32 31q-16 16 -16 39v442q0 23 16 39l84 83q17 17 39 17h186q23 0 40 -17l119 -118q16 -16 16 -39zM530 603l-84 83q-12 14 -33 14h-186q-20 0 -32 -14l-84 -83 q-13 -13 -13 -32v-442q0 -19 13 -32l84 -83q12 -14 32 -14h186q21 0 33 14l84 83q13 13 13 32v442q0 19 -13 32zM442 138l-37 -37q-10 -10 -25 -10h-119q-15 0 -25 10l-37 37q-10 10 -10 25v374q0 15 10 25l37 37q10 10 25 10h119q15 0 25 -10l37 -37q10 -10 10 -25v-374 q0 -15 -10 -25zM435 555l-2 2q-7 7 -18 7h-119q-10 0 -18 -7l-37 -37q-7 -8 -7 -18v-374q0 -11 7 -18l2 -2q7 -7 18 -7h119q11 0 18 7l37 37q7 7 7 18v374q0 11 -7 18z" glyph-name="o" unicode="o"/><glyph d="M126 -7q-38 12 -38 52v610q0 23 16 39t39 16h270q23 0 40 -17l119 -118q16 -16 16 -39v-159q0 -25 -16 -40l-84 -83q-17 -17 -40 -17h-179q-14 0 -24.5 -10.5t-10.5 -24.5v-192q0 -23 -16.5 -39t-39.5 -16q-40 0 -52 38zM189 45v192q0 19 13 32t32 13h179q21 0 33 14 l84 83q13 13 13 33v159q0 19 -13 32l-84 83q-12 14 -33 14h-270q-19 0 -32 -13t-13 -32v-610q0 -19 13 -32t32 -13t32.5 13t13.5 32zM380 373h-146q-19 0 -32 13t-13 32v146q0 19 13 32t32 13h146q15 0 25 -10l37 -37q10 -10 10 -25v-92q0 -15 -10 -25l-37 -37 q-10 -10 -25 -10zM435 555l-2 2q-7 7 -18 7h-146q-14 0 -24.5 -10.5t-10.5 -24.5v-146h146q11 0 18 7l37 37q7 7 7 18v92q0 11 -7 18z" glyph-name="p" unicode="p"/><glyph d="M493 -113l-30 31q-1 0 -5 4l-28 28q-8 5 -15 5h-152q-23 0 -40 17l-84 83q-1 1 -3 4l-32 31q-16 16 -16 40v441q0 23 16 39l84 83q17 17 40 17h186q22 0 39 -17l119 -118q16 -16 16 -39v-441q0 -17 -8 -31q-9 -13 -18 -19q-20 -20 -20 -35q0 -16 20 -34l9 -9q7 -7 9 -10 q8 -14 8 -31q0 -23 -16 -39t-39 -16q-24 0 -40 16zM228 0h152q15 0 25 -10l60 -61q13 -13 33 -13q19 0 32 13t13 32q0 20 -13 33l-20 19q-13 13 -13 32q0 20 13 33l20 19q13 13 13 33v441q0 19 -13 32l-84 83q-12 14 -32 14h-186q-21 0 -33 -14l-84 -83q-13 -13 -13 -32 v-441q0 -20 13 -33l84 -83q12 -14 33 -14zM442 138l-37 -37q-10 -10 -25 -10h-119q-15 0 -25 10l-37 37q-10 10 -10 25v374q0 15 10 25l37 37q10 10 25 10h119q15 0 25 -10l37 -37q10 -10 10 -25v-374q0 -15 -10 -25zM435 555l-2 2q-7 7 -18 7h-119q-10 0 -18 -7l-37 -37 q-7 -8 -7 -18v-374q0 -11 7 -18l2 -2q7 -7 18 -7h119q11 0 18 7l37 37q7 7 7 18v374q0 11 -7 18z" glyph-name="q" unicode="q"/><glyph d="M394 237h-125q-14 0 -24.5 -10.5t-10.5 -24.5v-192q0 -23 -16.5 -39t-39.5 -16q-40 0 -52 38q-38 12 -38 52v610q0 23 16 39t39 16h250q23 0 40 -17l139 -139q16 -16 16 -39v-118q0 -16 -12 -35q-22 -22 -25 -24q-30 -28 -30 -45q0 -11 6 -20l2 -2q8 -8 12 -13q0 -1 2 -3 l8 -8q3 -2 25 -24q12 -19 12 -35v-178q0 -23 -16 -39t-39 -16q-18 0 -33 10.5t-20 27.5q-38 12 -38 52v144q0 11 -7 18l-23 23q-7 7 -18 7zM234 282h125q15 0 25 -10l58 -58q10 -10 10 -25v-144q0 -19 13.5 -32t32.5 -13t32 13t13 32v178q0 19 -13 32l-41 40q-13 14 -13 33 t13 32l40 40q14 14 14 32v118q0 19 -13 32l-104 104q-14 14 -33 14h-250q-19 0 -32 -13t-13 -32v-610q0 -19 13 -32t32 -13t32.5 13t13.5 32v192q0 19 13 32t32 13zM442 441l-58 -58q-10 -10 -25 -10h-125q-19 0 -32 13t-13 32v146q0 19 13 32t32 13h125q15 0 25 -10l58 -58 q10 -10 10 -25v-50q0 -15 -10 -25zM435 534l-23 23q-7 7 -18 7h-125q-14 0 -24.5 -10.5t-10.5 -24.5v-146h125q11 0 18 7l58 58q7 7 7 18v50q0 11 -7 18z" glyph-name="r" unicode="r"/><glyph d="M415 564h-119q-10 0 -18 -7q-25 -25 -32 -33q-9 -9 -11 -17q-2 -6 -2 -23q1 -12 1 -51q0 -12 8 -18l5 -6q7 -4 14 -4h153q23 0 39 -16l31 -32q1 -1 4 -3l84 -85q16 -16 16 -39v-136q0 -24 -16 -39l-84 -83q-15 -17 -39 -17h-187q-22 0 -39 17l-84 83q-1 1 -3 4l-32 31 q-15 15 -17 43q-1 9 0 24t1 18q0 23 16 38.5t39 15.5q18 0 33.5 -10.5t20.5 -27.5q37 -14 37 -61q1 -2 1 -8q1 -8 6 -12l2 -2q7 -7 18 -7h119q11 0 18 7q25 25 32 33q10 10 11 16q2 6 2 23q0 5 -0.5 21.5t-0.5 29.5q0 10 -7 18l-6 6q-7 4 -14 4h-153q-23 0 -39 16l-119 120 q-16 16 -16 39v137q0 23 16 39l84 83q17 17 39 17h187q22 0 39 -17l119 -118q15 -14 17 -44q1 -9 0 -23.5t-1 -17.5q0 -23 -16 -39t-39 -16q-18 0 -33 10.5t-20 27.5q-38 12 -38 52v12q0 11 -7 18l-2 2q-7 7 -18 7zM452 537v-12q0 -19 13.5 -32t32.5 -13t32 13t13 32v46 q0 19 -13 32l-84 83q-12 14 -32 14h-187q-20 0 -32 -14l-84 -83q-13 -13 -13 -32v-137q0 -19 13 -32l84 -85q13 -13 32 -13h153q15 0 25 -10l37 -38q10 -10 10 -25v-68q0 -15 -10 -25l-37 -37q-10 -10 -25 -10h-119q-15 0 -25 10l-37 37q-10 10 -10 25v12q0 19 -13.5 31.5 t-32.5 12.5t-32 -12.5t-13 -31.5v-46q0 -19 13 -32l84 -83q12 -14 32 -14h187q20 0 32 14l84 83q13 13 13 32v136q0 19 -13 32l-84 85q-13 13 -32 13h-153q-15 0 -25 10l-37 38q-10 10 -10 25v69q0 15 10 25l37 37q10 10 25 10h119q15 0 25 -10l37 -37q10 -10 10 -25z" glyph-name="s" unicode="s"/><glyph d="M265 45v519h-87q-39 0 -52 38q-17 5 -27.5 20t-10.5 33q0 23 16 39t39 16h355q40 0 52 -38q38 -12 38 -52q0 -23 -16 -39.5t-39 -16.5h-87q-14 0 -24.5 -10.5t-10.5 -24.5v-519q0 -24 -16 -39.5t-40 -15.5q-40 0 -52 38q-38 12 -38 52zM366 45v519q0 19 13 32t32 13h87 q19 0 32 13.5t13 32.5t-13 32t-32 13h-355q-19 0 -32 -13t-13 -32t13 -32.5t32 -13.5h87q19 0 32 -13t13 -32v-519q0 -19 13 -32t32 -13q20 0 33 13t13 32z" glyph-name="t" unicode="t"/><glyph d="M550 672q38 -12 38 -52v-526q0 -24 -16 -39l-84 -83q-17 -17 -40 -17h-186q-22 0 -39 17l-84 83q-1 1 -3 4l-32 31q-16 16 -16 39v526q0 23 16 39t39 16q18 0 33 -10.5t20 -27.5q38 -13 38 -52v-492q0 -11 7 -18l2 -2q7 -7 18 -7h119q11 0 18 7l37 37q7 7 7 18v492 q0 23 16.5 39t39.5 16q40 0 52 -38zM189 163v492q0 19 -13.5 32t-32.5 13t-32 -13t-13 -32v-526q0 -19 13 -32l84 -83q12 -14 32 -14h186q21 0 33 14l84 83q13 13 13 32v526q0 19 -13 32t-32 13t-32.5 -13t-13.5 -32v-492q0 -15 -10 -25l-37 -37q-10 -10 -25 -10h-119 q-15 0 -25 10l-37 37q-10 10 -10 25z" glyph-name="u" unicode="u"/><glyph d="M588 620v-451q0 -25 -17 -40l-158 -158q-14 -15 -38 -17q-7 -1 -20.5 0t-17.5 1q-23 0 -39 16l-193 193q-17 17 -17 40v451q0 23 16 39t39 16q18 0 33 -10.5t20 -27.5q38 -13 38 -52v-417q0 -11 7 -18l57 -58q10 -7 23 -7q15 0 25 10l89 90q7 7 7 18v417q0 23 16.5 39 t39.5 16q40 0 52 -38q38 -12 38 -52zM452 655v-417q0 -15 -10 -25l-89 -90q-13 -13 -32 -13q-20 0 -33 13l-89 90q-10 10 -10 25v417q0 19 -13.5 32t-32.5 13t-32 -13t-13 -32v-451q0 -19 14 -33l158 -158q13 -13 32 -13h37q19 0 32 13l158 158q14 14 14 33v451q0 19 -13 32 t-32 13t-32.5 -13t-13.5 -32z" glyph-name="v" unicode="v"/><glyph d="M588 620v-521q0 -24 -16 -39l-89 -89q-15 -16 -39 -16q-23 0 -39 16l-30 30l-5 5l-14 14l-50 -49q-15 -16 -39 -16q-23 0 -39 16l-124 124q-16 15 -16 39v521q0 23 16 39t39 16q18 0 33 -10.5t20 -27.5q38 -13 38 -52v-482q13 1 22 10t9 20v182q0 23 16.5 39t39.5 16 q40 0 52 -38q38 -12 38 -52v-177q13 1 22 10t9 20v487q0 23 16.5 39t39.5 16q40 0 52 -38q38 -12 38 -52zM452 655v-487q0 -17 -12.5 -28.5t-30.5 -11.5q-16 0 -29.5 11.5t-13.5 28.5v182q0 19 -13 32t-32 13q-20 0 -33 -13t-13 -32v-182q0 -17 -12.5 -28.5t-30.5 -11.5 q-16 0 -29.5 11.5t-13.5 28.5v487q0 19 -13.5 32t-32.5 13t-32 -13t-13 -32v-521q0 -19 13 -32l89 -89q13 -13 32 -13t32 13l57 57l56 -57q13 -13 32 -13t32 13l89 89q13 13 13 32v521q0 19 -13 32t-32 13t-32.5 -13t-13.5 -32z" glyph-name="w" unicode="w"/><glyph d="M588 620v-147q0 -24 -17 -39l-93 -94q-11 -11 -11 -25t11 -25l93 -94q17 -17 17 -39v-147q0 -23 -16 -39t-39 -16q-18 0 -33 10.5t-20 27.5q-38 12 -38 52v113q0 11 -7 18l-54 54q-11 11 -26 11q-14 0 -25 -11l-89 -89q-7 -8 -7 -18v-113q0 -23 -16.5 -39t-39.5 -16 q-40 0 -52 38q-38 12 -38 52v147q0 22 17 39l93 94q11 11 11 25t-11 25l-93 94q-17 17 -17 39v147q0 23 16 39t39 16q18 0 33 -10.5t20 -27.5q38 -13 38 -52v-113q0 -11 7 -18l57 -57q11 -8 22 -8q16 0 26 10l89 90q7 7 7 18v113q0 23 16.5 39t39.5 16q40 0 52 -38 q38 -12 38 -52zM452 655v-113q0 -15 -10 -25l-89 -90q-14 -13 -33 -13q-18 0 -32 13l-89 90q-10 10 -10 25v113q0 19 -13.5 32t-32.5 13t-32 -13t-13 -32v-147q0 -20 14 -32l93 -94q14 -14 14 -32t-14 -32l-93 -94q-14 -12 -14 -32v-147q0 -19 13 -32t32 -13t32.5 13 t13.5 32v113q0 15 10 25l89 89q14 14 32 14q19 0 33 -14l89 -89q10 -10 10 -25v-113q0 -19 13.5 -32t32.5 -13t32 13t13 32v147q0 20 -14 32l-93 94q-14 14 -14 32t14 32l93 94q14 12 14 32v147q0 19 -13 32t-32 13t-32.5 -13t-13.5 -32z" glyph-name="x" unicode="x"/><glyph d="M196 672q38 -13 38 -52v-135q0 -11 7 -18l57 -58q10 -7 22 -7q15 0 26 10l89 90q7 7 7 18v135q0 23 16.5 39t39.5 16q40 0 52 -38q38 -12 38 -52v-169q0 -25 -17 -40l-153 -153q-7 -8 -7 -18v-230q0 -24 -16 -39.5t-40 -15.5q-40 0 -52 38q-38 12 -38 52v230q0 11 -7 18 l-153 153q-17 17 -17 40v169q0 23 16 39t39 16q18 0 33 -10.5t20 -27.5zM112 453l153 -153q10 -10 10 -25v-230q0 -19 13 -32t32 -13q20 0 33 13t13 32v230q0 15 10 25l153 153q14 14 14 33v169q0 19 -13 32t-32 13t-32.5 -13t-13.5 -32v-135q0 -15 -10 -25l-89 -90 q-13 -13 -33 -13q-19 0 -32 13l-89 90q-10 10 -10 25v135q0 19 -13.5 32t-32.5 13t-32 -13t-13 -32v-169q0 -19 14 -33z" glyph-name="y" unicode="y"/><glyph d="M442 564h-264q-39 0 -52 38q-17 5 -27.5 20t-10.5 33q0 23 16 39t39 16h355q40 0 52 -38q38 -12 38 -52v-128q0 -24 -16 -39l-331 -331q-7 -8 -7 -21h264q40 0 52 -38q17 -5 27.5 -20t10.5 -33q0 -23 -16 -39t-39 -16h-355q-40 0 -52 38q-38 12 -38 52v128q0 24 16 39 l331 331q7 7 7 21zM442 536l-331 -331q-13 -13 -13 -32v-128q0 -19 13 -32t32 -13h355q19 0 32 13t13 32t-13 32.5t-32 13.5h-264q-19 0 -32 13t-13 32v3q0 15 10 25l331 331q13 13 13 32v128q0 19 -13 32t-32 13h-355q-19 0 -32 -13t-13 -32t13 -32.5t32 -13.5h264 q19 0 32 -13t13 -32v-3q0 -15 -10 -25z" glyph-name="z" unicode="z"/><glyph d="M472 -92h-66q-24 0 -39 17l-119 119q-16 16 -16 39v148q0 11 -7 18l-61 61q-16 16 -16 39q0 24 16 39l61 61q7 7 7 18v149q0 23 16 39l84 83q17 17 39 17h66q40 0 52 -38q38 -12 38 -52q0 -23 -16 -39.5t-39 -16.5h-8h-11h-10q-11 -1 -21 -7l-37 -37q-7 -8 -7 -18v-149 q0 -29 -32 -57q-10 -8 -11 -9q-6 -4 -9 -9q-7 -6 -7 -9v-1q6 -4 14 -16h1l11 -11q33 -29 33 -56v-148q0 -11 7 -18l2 -2q7 -7 21 -7h29q40 0 52 -38q38 -12 38 -52q0 -24 -15.5 -40.5t-39.5 -16.5zM320 297l-42 42q-4 4 -4 10t4 10l42 42q13 13 13 32v149q0 15 10 25l37 37 q10 10 25 10h32q19 0 32 13.5t13 32.5t-13 32t-32 13h-66q-20 0 -32 -14l-84 -83q-13 -13 -13 -32v-149q0 -15 -10 -25l-61 -61q-13 -13 -13 -32t13 -32l61 -61q10 -10 10 -25v-148q0 -19 13 -32l84 -84q14 -14 32 -14h66q19 0 32 13.5t13 33.5q0 19 -13 32t-32 13h-32 q-15 0 -25 10l-37 37q-10 10 -10 25v148q0 19 -13 32z" glyph-name="braceleft" unicode="{"/><glyph d="M373 746q38 -12 38 -52v-758q0 -24 -16 -39.5t-40 -15.5q-40 0 -52 38q-38 12 -38 52v758q0 23 16 39t39 16q41 0 53 -38zM275 729v-758q0 -19 13 -32t32 -13q20 0 33 13t13 32v758q0 19 -13 32t-33 13q-19 0 -32 -13t-13 -32z" glyph-name="bar" unicode="|"/><glyph d="M357 349q-5 4 -13 15q-4 4 -14 12q-33 29 -33 57v149q0 11 -7 18l-2 2q-6 6 -20 7h-10h-11h-9q-39 0 -52 38q-17 5 -27.5 20t-10.5 33q0 23 16 39t39 16h66q22 0 39 -17l119 -118q16 -16 16 -39v-149q0 -11 7 -18l61 -61q16 -16 16 -39q0 -24 -16 -39l-61 -61 q-7 -8 -7 -18v-148q0 -24 -16 -39l-84 -84q-15 -17 -39 -17h-66q-39 0 -51 38q-18 5 -28.5 20t-10.5 34q0 23 16 39t39 16h8.5h10.5h10q14 0 21 7l37 37q7 7 7 18v148q0 28 33 57q12 10 21 18q6 6 6 9zM362 339l-42 -42q-13 -13 -13 -32v-148q0 -15 -10 -25l-37 -37 q-10 -10 -25 -10h-32q-19 0 -32 -13t-13 -32q0 -20 13 -33.5t32 -13.5h66q18 0 32 14l84 84q13 13 13 32v148q0 15 10 25l61 61q13 13 13 32t-13 32l-61 61q-10 10 -10 25v149q0 19 -13 32l-84 83q-12 14 -32 14h-66q-19 0 -32 -13t-13 -32t13 -32.5t32 -13.5h32 q15 0 25 -10l37 -37q10 -10 10 -25v-149q0 -19 13 -32l42 -42q5 -5 5 -10t-5 -10z" glyph-name="braceright" unicode="}"/><glyph d="M258 336l-13 -13v-54q0 -24 -16.5 -40t-40.5 -16q-17 0 -31 11t-19 27q-17 5 -28 20.5t-11 32.5v80q0 19 16 35l47 48q15 15 35 15h79q21 0 36 -15q10 -10 37 -34q12 -12 17 -19q4 -4 10 -9.5t8 -7.5q15 -13 20 -22q6 -12 6 -28v-19h10l11 13v56q0 23 16.5 39.5 t39.5 16.5q17 0 31.5 -11t20.5 -27q17 -6 27.5 -21t10.5 -32v-80q0 -23 -13 -36l-50 -48q-17 -14 -35 -14h-80q-22 0 -37 15q-18 18 -36 34q-12 12 -16 17q-4 4 -10.5 10t-8.5 8q-12 11 -19 23t-8 27v18h-6zM200 362l18 19h38l18 -19v-45q0 -16 12 -28l48 -48q12 -12 30 -12 h80q19 0 28 12l50 48q10 10 10 28v80q0 18 -13.5 32t-31.5 14q-19 0 -32.5 -14t-13.5 -32v-60l-17 -19h-39l-20 19v47q0 17 -11 28l-49 48q-12 12 -29 12h-79q-16 0 -28 -12l-47 -48q-13 -14 -13 -28v-80q0 -19 13.5 -32.5t30.5 -13.5q20 0 33.5 13.5t13.5 32.5v58z" glyph-name="asciitilde" unicode="~"/><glyph d="M392 672q38 -12 38 -52v-40q0 -23 -16 -39t-39 -16h-40q-40 0 -52 38q-38 12 -38 52v40q0 23 16 39t39 16h40q40 0 52 -38zM340 700h-40q-19 0 -32 -13t-13 -32v-40q0 -19 13 -32t32 -13h40q19 0 32 13t13 32v40q0 19 -13 32t-32 13zM411 420v-410q0 -23 -16.5 -39 t-39.5 -16q-40 0 -52 38q-38 12 -38 52v410q0 23 16 39t39 16q18 0 33 -10.5t20 -27.5q38 -13 38 -52zM366 45v410q0 19 -13.5 32t-32.5 13t-32 -13t-13 -32v-410q0 -19 13 -32t32 -13t32.5 13t13.5 32z" glyph-name="exclamdown" unicode="¡"/><glyph d="M550 232q17 -5 27.5 -20t10.5 -33v-64q0 -22 -17 -39l-104 -105q-14 -16 -39 -16h-13q-5 0 -5 -5v-14q0 -24 -16 -39.5t-40 -15.5q-40 0 -52 38q-30 8 -36 38q-13 5 -23 15l-139 139q-16 15 -16 39v400q0 24 16 39l104 104q12 12 25 15q2 1 6.5 1.5t6.5 0.5h13q5 0 5 5 v14q0 23 16 39t39 16q41 0 53 -38q30 -11 37 -38q14 -3 23 -14l31 -32q1 -1 4 -3l104 -105q17 -17 17 -39v-64q0 -23 -16 -39.5t-39 -16.5q-40 0 -53 38q-38 13 -38 53v28q0 13 -7 20l-23 23q-1 1 -2 1v-417l25 25q7 7 7 20v8.5v10.5v9q0 23 16.5 39.5t39.5 16.5 q40 0 52 -38zM365 715v14q0 19 -13 32t-33 13q-19 0 -32 -13t-13 -32v-14q0 -15 -15 -15h-11q-19 0 -33 -14l-104 -104q-13 -13 -13 -32v-400q0 -19 13 -32l104 -104q14 -14 33 -14h11q15 0 15 -15v-14q0 -19 13 -32t32 -13q20 0 33 13t13 32v14q0 15 15 15h13q19 0 32 13 l104 105q14 12 14 32v64q0 19 -13 32.5t-32 13.5t-32.5 -13.5t-13.5 -32.5v-30q0 -15 -10 -25l-58 -58q-5 -5 -11 -5q-8 0 -8 11v486q0 11 8 11q6 0 11 -5l58 -58q10 -10 10 -25v-30q0 -19 13.5 -32.5t32.5 -13.5t32 13.5t13 32.5v64q0 20 -14 32l-104 105q-13 13 -32 13 h-13q-15 0 -15 15zM274 593v-486q0 -11 -7 -11q-5 0 -10 5l-58 58q-10 10 -10 25v332q0 15 10 25l58 58q5 5 10 5q7 0 7 -11zM264 108v413l-23 -22q-7 -8 -7 -18v-332q0 -11 7 -18z" glyph-name="cent" unicode="¢"/><glyph d="M368 556l-35 -35q-8 -10 -8 -19v-119h127q18 0 33 -10.5t20 -27.5q38 -13 38 -52q0 -23 -16.5 -39.5t-39.5 -16.5h-157q-5 0 -5 -5v-131h173q40 0 52 -38q17 -5 27.5 -20t10.5 -33q0 -23 -16 -39t-39 -16h-355q-40 0 -52 38q-38 12 -38 52q0 23 16 39.5t39 16.5 q7 0 14 -1h13q9 1 9 6v131q-41 0 -53 38q-38 12 -38 53q0 23 16 39t39 16q7 0 14 -1h13q9 1 9 6v183q0 23 16 39l84 83q17 17 39 17h96q22 0 39 -17l84 -83l4 -4l31 -31q15 -14 17 -44q1 -9 0 -23.5t-1 -17.5q0 -23 -16 -39t-39 -16q-18 0 -33 10.5t-20 27.5q-38 12 -38 52 q0 19 -5 28t-22 11h-28q-9 0 -19 -8zM452 537v-12q0 -19 13.5 -32t32.5 -13t32 13t13 32v46q0 19 -13 32l-84 83q-12 14 -32 14h-96q-20 0 -32 -14l-84 -83q-13 -13 -13 -32v-183q0 -15 -15 -15h-31q-19 0 -32 -13t-13 -32q0 -20 13 -33t32 -13h31q15 0 15 -15v-161 q0 -15 -15 -15h-31q-19 0 -32 -13.5t-13 -32.5t13 -32t32 -13h355q19 0 32 13t13 32t-13 32.5t-32 13.5h-203q-15 0 -15 15v161q0 15 15 15h157q19 0 32.5 13t13.5 33q0 19 -13.5 32t-32.5 13h-157q-15 0 -15 15v149q0 15 11 26l35 35q11 11 26 11h28q15 0 26 -11l35 -35 q11 -11 11 -26z" glyph-name="sterling" unicode="£"/><glyph d="M557 552q38 -12 38 -52q0 -26 -27 -53q-8 -6 -10 -8l-7 -7q-5 -5 -5 -7q1 -1 2 -4t5 -7q10 -14 10 -31v-136q0 -17 -10 -31q-3 -4 -5 -8l-1 -2l-1 -1q0 -6 13 -16q4 -4 9 -8q27 -25 27 -51q0 -23 -16 -39t-39 -16q-27 0 -53 28q-5 7 -15 17q-2 2 -3 2l-3 3l-2 -2 q-4 -1 -9 -6q-16 -10 -32 -10h-136q-17 0 -31 10q-4 5 -9 6l-2 2l-2 -1l-4 -4t-7 -7.5t-9 -9.5q-24 -28 -53 -28q-40 0 -52 38q-38 12 -38 52q0 32 45 68q4 4 4 5q1 1 1 2q-1 1 -1 2l-1 1v1l-3 4q-13 16 -13 34v136q0 21 18 42q0 1 -1 2q0 2 -4 5q-45 36 -45 68q0 23 16 39 t39 16q28 0 52 -28l9 -9q1 -2 6 -7q7 -5 9 -5l1 1q2 2 5 3t5 3q18 10 30 10h136q15 0 31 -10l9 -6l1 -1q2 0 9 5q5 5 6 7l9 9q24 28 52 28q40 0 52 -38zM135 449q-13 -13 -13 -31v-136q0 -18 13 -31q5 -5 5 -11q0 -5 -5 -10l-32 -32q-13 -13 -13 -33q0 -19 13 -32t32 -13 q20 0 33 13l32 32q5 5 10 5t10 -5q17 -13 32 -13h136q15 0 32 13q8 5 10 5q5 0 10 -5l32 -32q13 -13 33 -13q19 0 32 13t13 32t-13 32l-32 32q-4 4 -4 11t4 11q13 13 13 31v136q0 18 -13 31q-4 4 -4 11q0 6 4 10l32 32q13 13 13 33q0 19 -13 32t-32 13q-20 0 -33 -13 l-32 -32q-4 -4 -10 -4t-10 4q-17 13 -32 13h-136q-15 0 -32 -13q-4 -4 -10 -4t-10 4l-32 32q-13 13 -33 13q-19 0 -32 -13t-13 -32q0 -20 13 -33l32 -32q5 -5 5 -10q0 -3 -5 -11zM427 384v-68q0 -15 -11 -26l-36 -36q-11 -11 -26 -11h-68q-15 0 -26 11l-36 36q-11 11 -11 26 v68q0 15 11 26l36 36q11 11 26 11h68q15 0 26 -11l36 -36q11 -11 11 -26zM409 403l-1 1q-8 8 -19 8h-68q-9 0 -19 -8l-36 -36q-8 -10 -8 -19v-68q0 -11 8 -19l1 -1q8 -8 19 -8h68q11 0 19 8l36 36q8 8 8 19v68q0 11 -8 19z" glyph-name="currency" unicode="¤"/><glyph d="M258 376l-153 153q-17 17 -17 40v86q0 23 16 39t39 16q18 0 33 -10.5t20 -27.5q38 -13 38 -52v-52q0 -11 7 -18l57 -58q10 -7 22 -7q15 0 26 10l89 90q7 7 7 18v52q0 23 16.5 39t39.5 16q40 0 52 -38q38 -12 38 -52v-86q0 -25 -17 -40l-125 -126h9q40 0 52 -38 q38 -12 38 -52q0 -24 -15.5 -40t-39.5 -16h-3q15 -11 20 -28q38 -12 38 -52q0 -24 -15.5 -40t-39.5 -16h-74q-5 0 -5 -5v-71q0 -24 -16 -39.5t-40 -15.5q-40 0 -52 38q-38 12 -38 52v41h-45q-40 0 -52 38q-38 12 -38 53q0 23 16 39t39 16h3q-14 11 -20 28q-38 12 -38 53 q0 23 16 39t39 16h75q2 0 2 1q0 3 -4 7zM272 368q0 -10 -12 -10h-75q-19 0 -32 -13t-13 -32q0 -20 13 -33t32 -13h75q15 0 15 -15v-15q0 -15 -15 -15h-75q-19 0 -32 -13t-13 -32q0 -20 13 -33t32 -13h75q15 0 15 -15v-71q0 -19 13 -32t32 -13q20 0 33 13t13 32v71 q0 15 15 15h74q19 0 32 13t13 33q0 19 -13 32t-32 13h-74q-15 0 -15 15v15q0 15 15 15h74q19 0 32 13t13 33q0 19 -13 32t-32 13h-74q-12 0 -12 10q0 8 7 15l153 153q14 14 14 33v86q0 19 -13 32t-32 13t-32.5 -13t-13.5 -32v-52q0 -15 -10 -25l-89 -90q-13 -13 -33 -13 q-19 0 -32 13l-89 90q-10 10 -10 25v52q0 19 -13.5 32t-32.5 13t-32 -13t-13 -32v-86q0 -19 14 -33l153 -153q7 -7 7 -15z" glyph-name="yen" unicode="¥"/><glyph d="M373 746q38 -12 38 -52v-287q0 -24 -16 -39.5t-40 -15.5q-40 0 -52 38q-38 12 -38 52v287q0 23 16 39t39 16q41 0 53 -38zM275 729v-287q0 -19 13 -32t32 -13q20 0 33 13t13 32v287q0 19 -13 32t-33 13q-19 0 -32 -13t-13 -32zM373 275q38 -12 38 -52v-287 q0 -24 -16 -39.5t-40 -15.5q-40 0 -52 38q-38 12 -38 52v287q0 23 16 39t39 16q41 0 53 -38zM275 258v-287q0 -19 13 -32t32 -13q20 0 33 13t13 32v287q0 19 -13 32t-33 13q-19 0 -32 -13t-13 -32z" glyph-name="brokenbar" unicode="¦"/><glyph d="M415 648h-119q-10 0 -18 -7l-25 -25q-3 -2 -5.5 -4.5t-4.5 -5t-3 -3.5q-6 -11 -6 -41q0 -12 8 -18l5 -6q7 -4 14 -4h153q23 0 39 -16l119 -119q16 -16 16 -39v-91q0 -24 -16 -40l-45 -43l45 -46q16 -16 16 -39v-91q0 -24 -16 -39l-84 -83q-15 -17 -39 -17h-187 q-22 0 -39 17l-84 83q-1 1 -3 4l-32 31q-15 15 -17 43q-1 9 0 24t1 18q0 23 16 38.5t39 15.5q18 0 33.5 -10.5t20.5 -27.5q37 -14 37 -61q1 -2 1 -8q1 -8 6 -12l2 -2q7 -7 18 -7h119q11 0 18 7q6 6 14 13.5t11 10.5q10 9 13 13q6 8 6 41q0 10 -7 18l-6 6q-7 4 -14 4h-153 q-23 0 -39 16l-119 119q-16 15 -16 39v91q0 23 16 39l45 44l-45 46q-16 16 -16 39v92q0 23 16 39l84 83q17 17 39 17h187q22 0 39 -17l119 -118q16 -16 16 -39v-47q0 -23 -16 -39t-39 -16q-18 0 -33 10.5t-20 27.5q-38 11 -38 62q0 7 -1 8q-1 8 -6 13l-2 2q-7 7 -18 7z M452 621v-13q0 -19 13.5 -32t32.5 -13t32 13t13 32v47q0 19 -13 32l-84 83q-12 14 -32 14h-187q-20 0 -32 -14l-84 -83q-13 -13 -13 -32v-92q0 -19 13 -32l52 -53l-52 -51q-13 -13 -13 -32v-91q0 -19 13 -32l84 -84q13 -13 32 -13h153q15 0 25 -10l37 -38q10 -10 10 -25v-23 q0 -15 -10 -25l-37 -37q-10 -10 -25 -10h-119q-15 0 -25 10l-37 37q-10 10 -10 25v12q0 19 -13.5 31.5t-32.5 12.5t-32 -12.5t-13 -31.5v-46q0 -19 13 -32l84 -83q12 -14 32 -14h187q20 0 32 14l84 83q13 13 13 32v91q0 19 -13 32l-53 53l53 51q13 13 13 32v91q0 19 -13 32 l-84 84q-13 13 -32 13h-153q-15 0 -25 10l-37 38q-10 10 -10 25v24q0 15 10 25l37 37q10 10 25 10h119q15 0 25 -10l37 -37q10 -10 10 -25zM236 276l-37 37q-10 10 -10 25v23q0 15 10 25l37 37q10 10 25 10h119q15 0 25 -10l37 -38q10 -10 10 -25v-22q0 -15 -10 -25l-37 -37 q-10 -10 -25 -10h-119q-15 0 -25 10zM435 378l-6 6q-7 4 -14 4h-119q-10 0 -18 -7l-37 -37q-7 -8 -7 -18v-23q0 -11 7 -18l2 -2q7 -7 18 -7h119q11 0 18 7l37 37q7 7 7 18v22q0 10 -7 18z" glyph-name="section" unicode="§"/><glyph d="M277 775h-20q-40 0 -52 38q-38 12 -38 52v20q0 23 16 39t39 16h20q40 0 52 -38q38 -12 38 -52v-20q0 -23 -16 -39t-39 -16zM452 775h-20q-40 0 -52 38q-38 12 -38 52v20q0 23 16 39t39 16h20q40 0 52 -38q38 -12 38 -52v-20q0 -23 -16 -39t-39 -16zM397 820h20 q19 0 32 13t13 32v20q0 19 -13 32t-32 13h-20q-19 0 -32 -13t-13 -32v-20q0 -19 13 -32t32 -13zM222 820h20q19 0 32 13t13 32v20q0 19 -13 32t-32 13h-20q-19 0 -32 -13t-13 -32v-20q0 -19 13 -32t32 -13z" glyph-name="dieresis" unicode="¨"/><glyph d="M588 474v-317q0 -16 -11 -27l-74 -73q-11 -12 -27 -12h-241q-15 0 -27 12l-109 108q-11 11 -11 27v317q0 15 11 26l74 75q11 11 27 11h241q16 0 27 -11l109 -110q11 -11 11 -26zM535 528l-74 75q-8 8 -20 8h-241q-12 0 -20 -8l-74 -75q-8 -8 -8 -19v-317q0 -9 8 -20 l74 -73q8 -9 20 -9h241q13 0 20 9l74 73q8 11 8 20v317q0 11 -8 19zM474 193l-34 -34q-11 -11 -26 -11h-187q-15 0 -26 11l-34 34q-11 11 -11 26v263q0 15 11 26l34 34q11 11 26 11h187q15 0 26 -11l34 -34q11 -11 11 -26v-263q0 -15 -11 -26zM449 508h-66l92 -92v66 q0 11 -7.5 18.5t-18.5 7.5zM382 303q-3 -18 -11 -26l-15 -15q-11 -11 -26 -11h-19q-15 0 -26 11l-15 15q-11 11 -11 26v96q0 14 11 25l15 16q10 10 26 10h19q16 0 26 -10l15 -16q8 -8 11 -25q5 -24 29 -24q12 0 20.5 8.5t8.5 20.5v22q0 11 -9 20l-54 54q-8 8 -20 8h-73 q-12 0 -21 -9l-53 -53q-9 -9 -9 -20v-150q0 -12 9 -21l53 -53q11 -9 21 -9h73q13 0 20 9l54 53q9 11 9 21v22q0 12 -8.5 20.5t-20.5 8.5q-24 0 -29 -24zM425 335q-11 8 -15 19l-3 11q-23 4 -32 25q-2 2 -3 7t-2 7h-3q-3 1 -21 1q-7 0 -17 -6l-7 -7l-2 -2l-5 -6l-2 -2 q-9 -10 -9 -18v-96v-1l1 -3q5 -3 25 -3q11 0 19 8l15 15q3 3 6 11q2 10 5 16q7 26 36 26q4 0 14 -2zM475 290v52q-12 -12 -29 -12q-8 0 -14 2q11 -8 14 -19q3 -6 3 -11q17 -2 26 -12zM227 158h66l-90 90l-2 2v-66q0 -9 8 -19q9 -7 18 -7z" glyph-name="copyright" unicode="©"/><glyph d="M290 346l-7 -6q-12 -14 -12 -25q0 -10 8 -21l54 -53q1 -1 3 -4l32 -31q15 -15 15 -39t-15 -40t-39 -16t-40 16l-149 148l-2 2l-33 33q-16 16 -16 40t16 40l150 150q15 15 37 15q18 0 34 -11t22 -28q34 -14 38 -46l70 70q15 15 37 15q18 0 34 -11t22 -28q16 -6 27 -20.5 t11 -31.5q0 -23 -16 -38l-87 -86q-12 -14 -12 -25q0 -10 8 -21l54 -53q1 -1 3 -4l32 -31q15 -15 15 -39t-15 -40t-39 -16t-40 16l-149 148l-2 2l-33 33q-14 14 -16 36zM262 533l-150 -150q-13 -13 -13 -33q0 -19 13 -33l149 -148q13 -13 33 -13t32 13t12 33t-12 32l-84 83 q-16 15 -16 33t15 32l87 86q13 13 13 31q0 20 -15 33t-34 13q-18 0 -30 -12zM463 533l-150 -150q-13 -13 -13 -33q0 -19 13 -33l149 -148q13 -13 33 -13t32 13t12 33t-12 32l-84 83q-16 15 -16 33t15 32l87 86q13 13 13 31q0 20 -15 33t-34 13q-18 0 -30 -12z" glyph-name="guillemotleft" unicode="«"/><glyph d="M588 474v-317q0 -16 -11 -27l-74 -73q-11 -12 -27 -12h-241q-15 0 -27 12l-109 108q-11 11 -11 27v317q0 15 11 26l74 75q11 11 27 11h241q16 0 27 -11l109 -110q11 -11 11 -26zM535 528l-74 75q-8 8 -20 8h-241q-12 0 -20 -8l-74 -75q-8 -8 -8 -19v-317q0 -9 8 -20 l74 -73q8 -9 20 -9h241q13 0 20 9l74 73q8 11 8 20v317q0 11 -8 19zM474 193l-34 -34q-11 -11 -26 -11h-187q-15 0 -26 11l-34 34q-11 11 -11 26v263q0 15 11 26l34 34q11 11 26 11h187q15 0 26 -11l34 -34q11 -11 11 -26v-263q0 -15 -11 -26zM449 508h-66l2 -2l90 -90v66 q0 11 -7.5 18.5t-18.5 7.5zM288 306h29q16 0 26 -10l28 -29q11 -11 11 -25v-20q0 -12 8.5 -20.5t20.5 -8.5t20.5 8.5t8.5 20.5v47q0 11 -9 20l-25 26q-9 7 -9 20q0 12 9 21l25 25q9 9 9 21v24q0 11 -9 20l-53 53q-9 9 -21 9h-127q-12 0 -20.5 -8.5t-8.5 -20.5v-257 q0 -12 8.5 -20.5t20.5 -8.5t20.5 8.5t8.5 20.5v55q0 12 8.5 20.5t20.5 8.5zM259 393v42q0 15 15 15h56q16 0 26 -10l15 -16q5 -5 5 -10q0 -6 -5 -11l-28 -28q-11 -11 -26 -11h-29q-12 0 -20.5 8.5t-8.5 20.5zM359 405h-50q-5 0 -5 -5v-26h13q11 0 24 12l12 12l2 2l3 3z M475 260v80q-1 -1 -1 -2l-3 -3l-2 -2l-2 -2l-5 -3l-2 -2q-11 -12 -13 -14q-5 -8 -5 -12t5 -12q4 -7 14 -14l8 -8zM352 261h-29q-11 0 -16 -11q-3 -9 -3 -36q2 -10 0 -21q0 -11 -3 -21q-1 -1 -3.5 -6.5t-4.5 -7.5h121q4 0 5 1q-11 11 -11 24q-15 2 -25.5 13t-10.5 26v23 q-2 8 -6 12q-7 4 -14 4zM227 158h12q-12 10 -12 25q-15 2 -26 13v-12q0 -9 8 -19q9 -7 18 -7z" glyph-name="registered" unicode="®"/><glyph d="M449 775h-189q-40 0 -52 38q-38 12 -38 52q0 23 16 39.5t39 16.5h189q40 0 52 -38q17 -5 27.5 -20t10.5 -33q0 -23 -16 -39t-39 -16zM225 820h189q19 0 32 13t13 32t-13 32.5t-32 13.5h-189q-19 0 -32 -13.5t-13 -32.5t13 -32t32 -13z" glyph-name="macron" unicode="¯"/><glyph d="M288 406l-96 96q-13 13 -13 30v73q0 17 13 30l61 62q13 13 31 13h72q19 0 31 -13l96 -97q13 -12 13 -30v-73q0 -20 -13 -30l-61 -61q-10 -13 -31 -13h-72q-18 0 -31 13zM189 605v-73q0 -13 10 -23l61 -61q11 -10 24 -10h72q14 0 24 10l61 61q10 10 10 23v73q0 14 -10 23 l-61 62q-10 10 -24 10h-72q-14 0 -24 -10l-61 -62q-10 -11 -10 -23zM277 599l13 13q11 11 30 11t30 -11l13 -13q11 -11 11 -30t-11 -30l-13 -13q-11 -11 -30 -11t-30 11l-13 13q-11 11 -11 30t11 30zM363 577q-1 0 -4 0.5t-4 0.5q-16 0 -30 -14t-14 -30q0 -2 0.5 -4t0.5 -4 q2 -1 8 -1q17 0 30.5 13.5t13.5 30.5q0 6 -1 8z" glyph-name="degree" unicode="°"/><glyph d="M490 258h-44q-14 0 -24.5 -10.5t-10.5 -24.5v-45q0 -24 -16 -39.5t-40 -15.5q-40 0 -52 38q-38 12 -38 52v45h-45q-40 0 -52 38q-38 12 -38 53q0 23 16 39t39 16h45q14 0 24.5 10.5t10.5 24.5v45q0 23 16 39t39 16q41 0 53 -38q38 -12 38 -52v-45h44q40 0 52 -38 q38 -12 38 -52q0 -24 -15.5 -40t-39.5 -16zM455 394h-44q-19 0 -32 13t-13 32v45q0 19 -13 32t-33 13q-19 0 -32 -13t-13 -32v-45q0 -19 -13 -32t-32 -13h-45q-19 0 -32 -13t-13 -32q0 -20 13 -33t32 -13h45q19 0 32 -13t13 -32v-45q0 -19 13 -32t32 -13q20 0 33 13t13 32 v45q0 19 13 32t32 13h44q19 0 32 13t13 33q0 19 -13 32t-32 13zM530 63q38 -12 38 -52q0 -24 -15.5 -40t-39.5 -16h-315q-40 0 -52 38q-38 12 -38 53q0 23 16 39t39 16h315q40 0 52 -38zM478 91h-315q-19 0 -32 -13t-13 -32q0 -20 13 -33t32 -13h315q19 0 32 13t13 33 q0 19 -13 32t-32 13z" glyph-name="plusminus" unicode="±"/><glyph d="M413 954q38 -13 38 -52q0 -24 -17 -39l-81 -82q-15 -16 -39 -16q-18 0 -33 10.5t-20 27.5q-38 12 -38 52q0 22 17 39l81 82q16 16 39 16q18 0 33 -10.5t20 -27.5zM311 823l81 82q14 12 14 32q0 19 -13.5 32t-32.5 13t-32 -13l-81 -82q-14 -14 -14 -32q0 -19 13.5 -32 t32.5 -13t32 13z" glyph-name="acute" unicode="´"/><glyph d="M427 559v-549q0 -23 -16 -39t-39 -16q-18 0 -33 10.5t-20 27.5q-38 12 -38 52v192h-15q-26 0 -43 17l-119 119q-16 15 -16 39v159q0 23 16 39l84 83q17 17 39 17h271q40 0 52 -38q38 -12 38 -52v-610q0 -23 -16 -39t-39 -16q-18 0 -33 10.5t-20 27.5q-38 12 -38 52v519 h-10q-5 0 -5 -5zM452 594v-549q0 -19 13.5 -32t32.5 -13t32 13t13 32v610q0 19 -13 32t-32 13h-271q-20 0 -32 -14l-84 -83q-13 -13 -13 -32v-159q0 -19 13 -32l84 -84q14 -14 32 -14h18q18 0 32 -13.5t14 -31.5v-192q0 -19 13.5 -32t32.5 -13t32 13t13 32v549q0 15 15 15 h40q15 0 15 -15z" glyph-name="paragraph" unicode="¶"/><glyph d="M380 235h-50q-40 0 -52 38q-38 12 -38 52v50q0 23 16 39t39 16h50q40 0 52 -38q38 -12 38 -52v-50q0 -23 -16 -39t-39 -16zM295 280h50q19 0 32 13t13 32v50q0 19 -13 32t-32 13h-50q-19 0 -32 -13t-13 -32v-50q0 -19 13 -32t32 -13z" glyph-name="periodcentered" unicode="·"/><glyph d="M361 46q36 -3 36 -56v-37q2 -14 6 -20l27 -27q1 -1 3 -4l32 -31q11 -11 11 -27v-61q0 -16 -11 -27l-53 -52q-10 -12 -27 -12h-61q-15 0 -27 12q-7 7 -10 9q-7 6 -13 13q-4 1 -7 9q-8 6 -16 14l-12 12q-17 17 -17 35t12.5 30t30.5 12q12 0 20 -5q2 -2 5 -3l3 -2l4 -4l2 -1 q11 -11 21 -11q11 0 23.5 12.5t12.5 23.5q0 7 -5 15q-6 4 -10 10q-7 6 -15 15l-3 3q0 1 -1 2l-2 2q-1 1 -4 3l-7 7l-2 2t-2 1q-28 24 -28 49v83q0 18 12.5 30t30.5 12q35 0 41 -36zM287 40v-83q0 -15 11 -26l57 -57q11 -11 11 -26t-11 -26l-9 -9q-11 -11 -26 -11t-26 11 l-6 6q-9 9 -23 9t-23.5 -9t-9.5 -23q0 -13 10 -23l27 -27q7 -9 20 -9h61q12 0 20 9l53 52q8 8 8 20v61q0 9 -8 20l-60 59q-11 11 -11 26v56q0 14 -9 23t-23 9t-23.5 -9t-9.5 -23z" glyph-name="cedilla" unicode="¸"/><glyph d="M571 275l-149 -148q-15 -16 -40 -16q-39 0 -51 37q-33 10 -38 50l-72 -71q-15 -16 -40 -16q-39 0 -51 37q-38 12 -38 54q0 24 15 39l84 83q13 13 13 26q0 9 -8 20l-56 56l-1 2q-1 2 -2 2l-32 31q-16 16 -16 38q0 24 17.5 40t41.5 16q22 0 37 -15l185 -185q14 -14 16 -37 l6 6q13 13 13 26q0 9 -8 20l-56 56q-1 0 -2 2l-1 2l-32 31q-16 16 -16 38q0 24 17.5 40t41.5 16q22 0 37 -15l185 -185q16 -16 16 -40t-16 -40zM529 383l-150 150q-12 12 -30 12q-19 0 -34 -13t-15 -33q0 -18 13 -31l87 -86q15 -14 15 -32t-16 -33l-84 -83q-12 -12 -12 -32 t12 -33t32 -13t33 13l149 148q13 14 13 33q0 20 -13 33zM328 383l-150 150q-12 12 -30 12q-19 0 -34 -13t-15 -33q0 -18 13 -31l87 -86q15 -14 15 -32t-16 -33l-84 -83q-12 -12 -12 -32t12 -33t32 -13t33 13l149 148q13 14 13 33q0 20 -13 33z" glyph-name="guillemotright" unicode="»"/><glyph d="M393 672q38 -12 38 -52v-40q0 -23 -16 -39t-39 -16h-40q-40 0 -52 38q-38 12 -38 52v40q0 23 16 39t39 16h40q40 0 52 -38zM341 700h-40q-19 0 -32 -13t-13 -32v-40q0 -19 13 -32t32 -13h40q19 0 32 13t13 32v40q0 19 -13 32t-32 13zM373 472q38 -12 38 -52v-84 q0 -24 -16 -39l-154 -154q-7 -8 -7 -18q0 -8 5 -13l4 -4q7 -7 18 -7h119q11 0 18 7l37 37q7 7 7 18v12q0 23 16.5 39t39.5 16q40 0 52 -38q38 -12 38 -52v-46q0 -24 -16 -39l-84 -83q-15 -17 -39 -17h-187q-22 0 -39 17l-119 118q-16 16 -16 39v65q0 24 16 39l154 154 q7 7 7 18v50q0 23 16 39t39 16q41 0 53 -38zM98 194v-65q0 -18 13 -32l84 -83q12 -14 32 -14h187q20 0 32 14l84 83q13 13 13 32v46q0 19 -13 32t-32 13t-32.5 -13t-13.5 -32v-12q0 -15 -10 -25l-37 -37q-10 -10 -25 -10h-119q-15 0 -25 10l-39 39q-8 8 -8 20q0 15 10 25 l154 154q13 13 13 32v84q0 19 -13 32t-33 13q-19 0 -32 -13t-13 -32v-50q0 -15 -10 -25l-154 -154q-13 -13 -13 -32z" glyph-name="questiondown" unicode="¿"/><glyph d="M319 976l31 -32l2 -1q2 -1 2 -2l81 -82q17 -17 17 -39q0 -23 -16.5 -39t-39.5 -16t-39 16l-117 117q-16 15 -16 39q0 23 16 39t39 16q24 0 40 -16zM247 905l82 -82q13 -13 32 -13t32.5 13t13.5 32q0 18 -14 32l-81 82q-13 13 -33 13q-19 0 -32 -13t-13 -32t13 -32z M588 515v-505q0 -23 -16 -39t-39 -16q-18 0 -33 10.5t-20 27.5q-38 12 -38 52v192h-173q-14 0 -24.5 -10.5t-10.5 -24.5v-192q0 -23 -16.5 -39t-39.5 -16q-40 0 -52 38q-38 12 -38 52v505q0 23 16 39l105 104q17 17 39 17h145q23 0 39 -16l139 -140q17 -17 17 -39zM543 45 v505q0 20 -14 32l-104 105q-13 13 -32 13h-145q-20 0 -32 -14l-105 -104q-13 -13 -13 -32v-505q0 -19 13 -32t32 -13t32.5 13t13.5 32v192q0 19 13 32t32 13h173q19 0 32 -13t13 -32v-192q0 -19 13.5 -32t32.5 -13t32 13t13 32zM452 516v-98q0 -19 -13 -32t-32 -13h-173 q-19 0 -32 13t-13 32v98q0 15 10 25l58 58q10 10 25 10h77q15 0 25 -10l58 -58q10 -10 10 -25zM435 534l-23 23q-7 7 -18 7h-77q-10 0 -18 -7l-58 -58q-7 -8 -7 -18v-98h173q14 0 24.5 10.5t10.5 24.5v98q0 11 -7 18z" glyph-name="Agrave" unicode="À"/><glyph d="M414 954q38 -13 38 -52q0 -24 -17 -39l-81 -82q-15 -16 -39 -16q-18 0 -33 10.5t-20 27.5q-38 12 -38 52q0 22 17 39l81 82q16 16 39 16q18 0 33 -10.5t20 -27.5zM312 823l81 82q14 12 14 32q0 19 -13.5 32t-32.5 13t-32 -13l-81 -82q-14 -14 -14 -32q0 -19 13.5 -32 t32.5 -13t32 13zM588 515v-505q0 -23 -16 -39t-39 -16q-18 0 -33 10.5t-20 27.5q-38 12 -38 52v192h-173q-14 0 -24.5 -10.5t-10.5 -24.5v-192q0 -23 -16.5 -39t-39.5 -16q-40 0 -52 38q-38 12 -38 52v505q0 23 16 39l105 104q17 17 39 17h145q23 0 39 -16l139 -140 q17 -17 17 -39zM543 45v505q0 20 -14 32l-104 105q-13 13 -32 13h-145q-20 0 -32 -14l-105 -104q-13 -13 -13 -32v-505q0 -19 13 -32t32 -13t32.5 13t13.5 32v192q0 19 13 32t32 13h173q19 0 32 -13t13 -32v-192q0 -19 13.5 -32t32.5 -13t32 13t13 32zM452 516v-98 q0 -19 -13 -32t-32 -13h-173q-19 0 -32 13t-13 32v98q0 15 10 25l58 58q10 10 25 10h77q15 0 25 -10l58 -58q10 -10 10 -25zM435 534l-23 23q-7 7 -18 7h-77q-10 0 -18 -7l-58 -58q-7 -8 -7 -18v-98h173q14 0 24.5 10.5t10.5 24.5v98q0 11 -7 18z" glyph-name="Aacute" unicode="Á"/><glyph d="M451 881l32 -31q14 -14 14 -36t-13.5 -35.5t-35.5 -13.5q-18 0 -32 11q-12 9 -23 22l-2 2l-5 6q-4 4 -6 5l-2 2l-5 4l-2 2q-8 5 -16 5t-19 -8l-21 -21l-6 -6q0 -1 -2 -3t-3 -2l-6 -6q-16 -13 -36 -13q-18 0 -31 10t-17 27q-16 4 -26.5 17t-10.5 30q0 24 15 36l93 92 q15 15 35 15t35 -15l93 -92q0 -1 1 -2zM255 821l37 36q10 12 28 12q16 0 28 -12l36 -36q11 -11 29 -11q17 0 28 11t11 28q0 18 -11 29l-93 92q-12 12 -28 12q-18 0 -28 -12l-93 -92q-12 -12 -12 -29t11.5 -28t28.5 -11q18 0 28 11zM588 515v-505q0 -23 -16 -39t-39 -16 q-18 0 -33 10.5t-20 27.5q-38 12 -38 52v192h-173q-14 0 -24.5 -10.5t-10.5 -24.5v-192q0 -23 -16.5 -39t-39.5 -16q-40 0 -52 38q-38 12 -38 52v505q0 23 16 39l105 104q17 17 39 17h145q23 0 39 -16l139 -140q17 -17 17 -39zM543 45v505q0 20 -14 32l-104 105 q-13 13 -32 13h-145q-20 0 -32 -14l-105 -104q-13 -13 -13 -32v-505q0 -19 13 -32t32 -13t32.5 13t13.5 32v192q0 19 13 32t32 13h173q19 0 32 -13t13 -32v-192q0 -19 13.5 -32t32.5 -13t32 13t13 32zM452 516v-98q0 -19 -13 -32t-32 -13h-173q-19 0 -32 13t-13 32v98 q0 15 10 25l58 58q10 10 25 10h77q15 0 25 -10l58 -58q10 -10 10 -25zM435 534l-23 23q-7 7 -18 7h-77q-10 0 -18 -7l-58 -58q-7 -8 -7 -18v-98h173q14 0 24.5 10.5t10.5 24.5v98q0 11 -7 18z" glyph-name="Acircumflex" unicode="Â"/><glyph d="M360 778l-79 79v-20q0 -20 -14 -34t-34 -14q-17 0 -29 10t-16 26q-37 8 -37 47v50q0 17 13 30l40 40q13 13 30 13h50q18 0 31 -13l79 -79v20q0 20 14.5 33.5t33.5 13.5q17 0 29.5 -10.5t16.5 -26.5q15 -3 25.5 -15.5t10.5 -29.5v-50q0 -19 -12 -31l-41 -40 q-14 -12 -30 -12h-50q-19 0 -31 13zM236 904l15 16h16l16 -16v-21q0 -14 9 -23l40 -40q10 -10 24 -10h50q16 0 23 10l41 40q9 9 9 23v50q0 15 -11 26t-26 11q-16 0 -27 -11t-11 -26v-33l-15 -15h-16l-16 15v22q0 12 -9 23l-40 40q-10 10 -24 10h-50q-13 0 -23 -10l-40 -40 q-10 -10 -10 -23v-50q0 -16 11 -27t26 -11q16 0 27 11t11 27v32zM588 515v-505q0 -23 -16 -39t-39 -16q-18 0 -33 10.5t-20 27.5q-38 12 -38 52v192h-173q-14 0 -24.5 -10.5t-10.5 -24.5v-192q0 -23 -16.5 -39t-39.5 -16q-40 0 -52 38q-38 12 -38 52v505q0 23 16 39l105 104 q17 17 39 17h145q23 0 39 -16l139 -140q17 -17 17 -39zM543 45v505q0 20 -14 32l-104 105q-13 13 -32 13h-145q-20 0 -32 -14l-105 -104q-13 -13 -13 -32v-505q0 -19 13 -32t32 -13t32.5 13t13.5 32v192q0 19 13 32t32 13h173q19 0 32 -13t13 -32v-192q0 -19 13.5 -32 t32.5 -13t32 13t13 32zM452 516v-98q0 -19 -13 -32t-32 -13h-173q-19 0 -32 13t-13 32v98q0 15 10 25l58 58q10 10 25 10h77q15 0 25 -10l58 -58q10 -10 10 -25zM435 534l-23 23q-7 7 -18 7h-77q-10 0 -18 -7l-58 -58q-7 -8 -7 -18v-98h173q14 0 24.5 10.5t10.5 24.5v98 q0 11 -7 18z" glyph-name="Atilde" unicode="Ã"/><glyph d="M278 775h-20q-40 0 -52 38q-38 12 -38 52v20q0 23 16 39t39 16h20q40 0 52 -38q38 -12 38 -52v-20q0 -23 -16 -39t-39 -16zM453 775h-20q-40 0 -52 38q-38 12 -38 52v20q0 23 16 39t39 16h20q40 0 52 -38q38 -12 38 -52v-20q0 -23 -16 -39t-39 -16zM398 820h20 q19 0 32 13t13 32v20q0 19 -13 32t-32 13h-20q-19 0 -32 -13t-13 -32v-20q0 -19 13 -32t32 -13zM223 820h20q19 0 32 13t13 32v20q0 19 -13 32t-32 13h-20q-19 0 -32 -13t-13 -32v-20q0 -19 13 -32t32 -13zM588 515v-505q0 -23 -16 -39t-39 -16q-18 0 -33 10.5t-20 27.5 q-38 12 -38 52v192h-173q-14 0 -24.5 -10.5t-10.5 -24.5v-192q0 -23 -16.5 -39t-39.5 -16q-40 0 -52 38q-38 12 -38 52v505q0 23 16 39l105 104q17 17 39 17h145q23 0 39 -16l139 -140q17 -17 17 -39zM543 45v505q0 20 -14 32l-104 105q-13 13 -32 13h-145q-20 0 -32 -14 l-105 -104q-13 -13 -13 -32v-505q0 -19 13 -32t32 -13t32.5 13t13.5 32v192q0 19 13 32t32 13h173q19 0 32 -13t13 -32v-192q0 -19 13.5 -32t32.5 -13t32 13t13 32zM452 516v-98q0 -19 -13 -32t-32 -13h-173q-19 0 -32 13t-13 32v98q0 15 10 25l58 58q10 10 25 10h77 q15 0 25 -10l58 -58q10 -10 10 -25zM435 534l-23 23q-7 7 -18 7h-77q-10 0 -18 -7l-58 -58q-7 -8 -7 -18v-98h173q14 0 24.5 10.5t10.5 24.5v98q0 11 -7 18z" glyph-name="Adieresis" unicode="Ä"/><glyph d="M378 991l31 -32q1 -1 4 -3l52 -53q11 -11 11 -27v-61q0 -16 -11 -27l-52 -52q-10 -11 -28 -11h-60q-17 0 -28 11l-87 87q-11 11 -11 27v61q0 16 11 27l52 53q11 11 28 11h60q17 0 28 -11zM209 911v-61q0 -9 8 -20l52 -52q11 -8 21 -8h60q13 0 21 8l52 52q8 8 8 20v61 q0 12 -8 20l-52 53q-8 8 -21 8h-60q-10 0 -21 -8l-52 -53q-8 -8 -8 -20zM284 906l11 11q10 10 25 10t25 -10l11 -11q10 -10 10 -25t-10 -25l-11 -11q-10 -10 -25 -10t-25 10l-11 11q-10 10 -10 25t10 25zM355 882q-12 0 -24 -12t-12 -24v-1h1q12 0 24 12t12 24q0 1 -1 1z M588 515v-505q0 -23 -16 -39t-39 -16q-18 0 -33 10.5t-20 27.5q-38 12 -38 52v192h-173q-14 0 -24.5 -10.5t-10.5 -24.5v-192q0 -23 -16.5 -39t-39.5 -16q-40 0 -52 38q-38 12 -38 52v505q0 23 16 39l105 104q17 17 39 17h145q23 0 39 -16l139 -140q17 -17 17 -39zM543 45 v505q0 20 -14 32l-104 105q-13 13 -32 13h-145q-20 0 -32 -14l-105 -104q-13 -13 -13 -32v-505q0 -19 13 -32t32 -13t32.5 13t13.5 32v192q0 19 13 32t32 13h173q19 0 32 -13t13 -32v-192q0 -19 13.5 -32t32.5 -13t32 13t13 32zM452 516v-98q0 -19 -13 -32t-32 -13h-173 q-19 0 -32 13t-13 32v98q0 15 10 25l58 58q10 10 25 10h77q15 0 25 -10l58 -58q10 -10 10 -25zM435 534l-23 23q-7 7 -18 7h-77q-10 0 -18 -7l-58 -58q-7 -8 -7 -18v-98h173q14 0 24.5 10.5t10.5 24.5v98q0 11 -7 18z" glyph-name="Aring" unicode="Å"/><glyph d="M214 202v-192q0 -23 -16.5 -39t-39.5 -16q-40 0 -52 38q-38 12 -38 52v505q0 23 16 39l105 104q17 17 39 17h290q40 0 52 -38q38 -12 38 -52q0 -23 -16 -39.5t-39 -16.5h-107q-14 0 -24.5 -10.5t-10.5 -24.5v-124h87q40 0 52 -38q38 -12 38 -52q0 -23 -16 -39.5 t-39 -16.5h-87q-14 0 -24.5 -10.5t-10.5 -24.5v-123h107q40 0 52 -38q17 -5 27.5 -20t10.5 -33q0 -23 -16 -39t-39 -16h-198q-40 0 -52 38q-38 12 -38 52v192h-16q-14 0 -24.5 -10.5t-10.5 -24.5zM275 267v-222q0 -19 13 -32t32 -13h198q19 0 32 13t13 32t-13 32.5t-32 13.5 h-107q-19 0 -32 13t-13 32v123q0 19 13 32t32 13h87q19 0 32 13.5t13 32.5t-13 32t-32 13h-87q-19 0 -32 13.5t-13 32.5v123q0 19 13 32t32 13h107q19 0 32 13.5t13 32.5t-13 32t-32 13h-290q-20 0 -32 -14l-105 -104q-13 -13 -13 -32v-505q0 -19 13 -32t32 -13t32.5 13 t13.5 32v192q0 19 13 32t32 13h46q15 0 15 -15zM275 595v-207q0 -15 -15 -15h-46q-19 0 -32 13t-13 32v98q0 15 11 26l57 57q10 10 23 10q15 0 15 -14zM265 388v154l-43 -42q-8 -10 -8 -19v-98h46q5 0 5 5z" glyph-name="AE" unicode="Æ"/><glyph d="M234 481v-332q0 -11 7 -18l23 -23q7 -7 18 -7h77q11 0 18 7l58 58q7 7 7 20v8.5v10.5v9q0 23 16.5 39.5t39.5 16.5q40 0 52 -38q17 -5 27.5 -20t10.5 -33v-64q0 -22 -17 -39l-104 -105q-14 -15 -40 -17h-8.5h-10.5h-10v-5q0 -7 5 -15q2 -2 3 -2l5 -5l1 -1q2 0 2 -1t1 -2 l2 -2l7 -6q1 -1 3 -4q1 -1 7 -9q10 -8 15 -13q5 -4 14 -13q14 -18 14 -32v-61q0 -16 -11 -27l-53 -52q-11 -12 -27 -12h-61q-15 0 -27 12q-7 7 -10 9q-7 6 -13 13q-4 1 -7 9q-8 6 -16 14l-12 12q-17 17 -17 35t12.5 30t30.5 12q12 0 20 -5q2 -2 5 -3l3 -2l4 -4l2 -1 q11 -11 21 -11q11 0 23.5 12.5t12.5 23.5q0 7 -5 15l-2 2l-6 5l-2 2l-14 14q-4 4 -5 7l-2 2q-10 8 -15 13q-27 22 -28 47q-24 6 -35 17l-139 139q-16 15 -16 39v400q0 24 16 39l104 104q17 17 40 17h145q23 0 39 -16l139 -140q17 -17 17 -39v-64q0 -23 -16 -39.5t-39 -16.5 q-40 0 -53 38q-38 13 -38 53v28q0 13 -7 20l-23 23q-7 7 -18 7h-77q-10 0 -18 -7l-58 -58q-7 -8 -7 -18zM189 184v332q0 15 10 25l58 58q10 10 25 10h77q15 0 25 -10l58 -58q10 -10 10 -25v-30q0 -19 13.5 -32.5t32.5 -13.5t32 13.5t13 32.5v64q0 20 -14 32l-104 105 q-13 13 -32 13h-145q-19 0 -33 -14l-104 -104q-13 -13 -13 -32v-400q0 -19 13 -32l104 -104q14 -14 33 -14h40v-43q0 -15 11 -26l57 -57q11 -11 11 -26t-11 -26l-9 -9q-11 -11 -26 -11t-26 11l-6 6q-9 9 -23 9t-23.5 -9t-9.5 -23q0 -13 10 -23l27 -27q8 -9 20 -9h61 q13 0 20 9l53 52q8 8 8 20v61q0 9 -8 20l-60 59q-11 11 -11 26v16h40q19 0 32 13l104 105q14 12 14 32v64q0 19 -13 32.5t-32 13.5t-32.5 -13.5t-13.5 -32.5v-30q0 -15 -10 -25l-58 -58q-10 -10 -25 -10h-77q-15 0 -25 10l-58 58q-10 10 -10 25z" glyph-name="Ccedilla" unicode="Ç"/><glyph d="M319 976l31 -32l2 -1q2 -1 2 -2l81 -82q17 -17 17 -39q0 -23 -16.5 -39t-39.5 -16t-39 16l-117 117q-16 15 -16 39q0 23 16 39t39 16q24 0 40 -16zM247 905l82 -82q13 -13 32 -13t32.5 13t13.5 32q0 18 -14 32l-81 82q-13 13 -33 13q-19 0 -32 -13t-13 -32t13 -32z M550 672q38 -12 38 -52q0 -23 -16 -39.5t-39 -16.5h-264q-14 0 -24.5 -10.5t-10.5 -24.5v-124h196q18 0 33 -10.5t20 -27.5q38 -13 38 -52q0 -23 -16.5 -39.5t-39.5 -16.5h-196q-14 0 -24.5 -11t-10.5 -25v-122h264q40 0 52 -38q17 -5 27.5 -20t10.5 -33q0 -23 -16 -39 t-39 -16h-355q-40 0 -52 38q-38 12 -38 52v610q0 23 16 39t39 16h355q40 0 52 -38zM98 655v-610q0 -19 13 -32t32 -13h355q19 0 32 13t13 32t-13 32.5t-32 13.5h-264q-19 0 -32 13t-13 32v122q0 19 13 32.5t32 13.5h196q19 0 32.5 13.5t13.5 32.5t-13.5 32t-32.5 13h-196 q-19 0 -32 13.5t-13 32.5v123q0 19 13 32t32 13h264q19 0 32 13.5t13 32.5t-13 32t-32 13h-355q-19 0 -32 -13t-13 -32z" glyph-name="Egrave" unicode="È"/><glyph d="M414 954q38 -13 38 -52q0 -24 -17 -39l-81 -82q-15 -16 -39 -16q-18 0 -33 10.5t-20 27.5q-38 12 -38 52q0 22 17 39l81 82q16 16 39 16q18 0 33 -10.5t20 -27.5zM312 823l81 82q14 12 14 32q0 19 -13.5 32t-32.5 13t-32 -13l-81 -82q-14 -14 -14 -32q0 -19 13.5 -32 t32.5 -13t32 13zM550 672q38 -12 38 -52q0 -23 -16 -39.5t-39 -16.5h-264q-14 0 -24.5 -10.5t-10.5 -24.5v-124h196q18 0 33 -10.5t20 -27.5q38 -13 38 -52q0 -23 -16.5 -39.5t-39.5 -16.5h-196q-14 0 -24.5 -11t-10.5 -25v-122h264q40 0 52 -38q17 -5 27.5 -20t10.5 -33 q0 -23 -16 -39t-39 -16h-355q-40 0 -52 38q-38 12 -38 52v610q0 23 16 39t39 16h355q40 0 52 -38zM98 655v-610q0 -19 13 -32t32 -13h355q19 0 32 13t13 32t-13 32.5t-32 13.5h-264q-19 0 -32 13t-13 32v122q0 19 13 32.5t32 13.5h196q19 0 32.5 13.5t13.5 32.5t-13.5 32 t-32.5 13h-196q-19 0 -32 13.5t-13 32.5v123q0 19 13 32t32 13h264q19 0 32 13.5t13 32.5t-13 32t-32 13h-355q-19 0 -32 -13t-13 -32z" glyph-name="Eacute" unicode="É"/><glyph d="M451 881l32 -31q14 -14 14 -36t-13.5 -35.5t-35.5 -13.5q-18 0 -32 11q-12 9 -23 22l-2 2l-5 6q-4 4 -6 5l-2 2l-5 4l-2 2q-8 5 -16 5t-19 -8l-21 -21l-6 -6q0 -1 -2 -3t-3 -2l-6 -6q-16 -13 -36 -13q-18 0 -31 10t-17 27q-16 4 -26.5 17t-10.5 30q0 24 15 36l93 92 q15 15 35 15t35 -15l93 -92q0 -1 1 -2zM255 821l37 36q10 12 28 12q16 0 28 -12l36 -36q11 -11 29 -11q17 0 28 11t11 28q0 18 -11 29l-93 92q-12 12 -28 12q-18 0 -28 -12l-93 -92q-12 -12 -12 -29t11.5 -28t28.5 -11q18 0 28 11zM550 672q38 -12 38 -52q0 -23 -16 -39.5 t-39 -16.5h-264q-14 0 -24.5 -10.5t-10.5 -24.5v-124h196q18 0 33 -10.5t20 -27.5q38 -13 38 -52q0 -23 -16.5 -39.5t-39.5 -16.5h-196q-14 0 -24.5 -11t-10.5 -25v-122h264q40 0 52 -38q17 -5 27.5 -20t10.5 -33q0 -23 -16 -39t-39 -16h-355q-40 0 -52 38q-38 12 -38 52 v610q0 23 16 39t39 16h355q40 0 52 -38zM98 655v-610q0 -19 13 -32t32 -13h355q19 0 32 13t13 32t-13 32.5t-32 13.5h-264q-19 0 -32 13t-13 32v122q0 19 13 32.5t32 13.5h196q19 0 32.5 13.5t13.5 32.5t-13.5 32t-32.5 13h-196q-19 0 -32 13.5t-13 32.5v123q0 19 13 32 t32 13h264q19 0 32 13.5t13 32.5t-13 32t-32 13h-355q-19 0 -32 -13t-13 -32z" glyph-name="Ecircumflex" unicode="Ê"/><glyph d="M278 775h-20q-40 0 -52 38q-38 12 -38 52v20q0 23 16 39t39 16h20q40 0 52 -38q38 -12 38 -52v-20q0 -23 -16 -39t-39 -16zM453 775h-20q-40 0 -52 38q-38 12 -38 52v20q0 23 16 39t39 16h20q40 0 52 -38q38 -12 38 -52v-20q0 -23 -16 -39t-39 -16zM398 820h20 q19 0 32 13t13 32v20q0 19 -13 32t-32 13h-20q-19 0 -32 -13t-13 -32v-20q0 -19 13 -32t32 -13zM223 820h20q19 0 32 13t13 32v20q0 19 -13 32t-32 13h-20q-19 0 -32 -13t-13 -32v-20q0 -19 13 -32t32 -13zM550 672q38 -12 38 -52q0 -23 -16 -39.5t-39 -16.5h-264 q-14 0 -24.5 -10.5t-10.5 -24.5v-124h196q18 0 33 -10.5t20 -27.5q38 -13 38 -52q0 -23 -16.5 -39.5t-39.5 -16.5h-196q-14 0 -24.5 -11t-10.5 -25v-122h264q40 0 52 -38q17 -5 27.5 -20t10.5 -33q0 -23 -16 -39t-39 -16h-355q-40 0 -52 38q-38 12 -38 52v610q0 23 16 39 t39 16h355q40 0 52 -38zM98 655v-610q0 -19 13 -32t32 -13h355q19 0 32 13t13 32t-13 32.5t-32 13.5h-264q-19 0 -32 13t-13 32v122q0 19 13 32.5t32 13.5h196q19 0 32.5 13.5t13.5 32.5t-13.5 32t-32.5 13h-196q-19 0 -32 13.5t-13 32.5v123q0 19 13 32t32 13h264 q19 0 32 13.5t13 32.5t-13 32t-32 13h-355q-19 0 -32 -13t-13 -32z" glyph-name="Edieresis" unicode="Ë"/><glyph d="M319 976l31 -32l2 -1q2 -1 2 -2l81 -82q17 -17 17 -39q0 -23 -16.5 -39t-39.5 -16t-39 16l-117 117q-16 15 -16 39q0 23 16 39t39 16q24 0 40 -16zM247 905l82 -82q13 -13 32 -13t32.5 13t13.5 32q0 18 -14 32l-81 82q-13 13 -33 13q-19 0 -32 -13t-13 -32t13 -32z M488 -45h-265q-40 0 -52 38q-38 12 -38 52q0 23 16 39.5t39 16.5h42q14 0 24.5 10.5t10.5 24.5v428h-42q-39 0 -52 38q-17 5 -27.5 20t-10.5 33q0 23 16 39t39 16h265q40 0 52 -38q38 -12 38 -52q0 -23 -16 -39.5t-39 -16.5h-42q-14 0 -24.5 -10.5t-10.5 -24.5v-428h42 q40 0 52 -38q17 -5 27.5 -20t10.5 -33q0 -23 -16 -39t-39 -16zM188 0h265q19 0 32 13t13 32t-13 32.5t-32 13.5h-42q-19 0 -32 13t-13 32v428q0 19 13 32t32 13h42q19 0 32 13.5t13 32.5t-13 32t-32 13h-265q-19 0 -32 -13t-13 -32t13 -32.5t32 -13.5h42q19 0 32 -13t13 -32 v-428q0 -19 -13 -32t-32 -13h-42q-19 0 -32 -13.5t-13 -32.5t13 -32t32 -13z" glyph-name="Igrave" unicode="Ì"/><glyph d="M414 954q38 -13 38 -52q0 -24 -17 -39l-81 -82q-15 -16 -39 -16q-18 0 -33 10.5t-20 27.5q-38 12 -38 52q0 22 17 39l81 82q16 16 39 16q18 0 33 -10.5t20 -27.5zM312 823l81 82q14 12 14 32q0 19 -13.5 32t-32.5 13t-32 -13l-81 -82q-14 -14 -14 -32q0 -19 13.5 -32 t32.5 -13t32 13zM488 -45h-265q-40 0 -52 38q-38 12 -38 52q0 23 16 39.5t39 16.5h42q14 0 24.5 10.5t10.5 24.5v428h-42q-39 0 -52 38q-17 5 -27.5 20t-10.5 33q0 23 16 39t39 16h265q40 0 52 -38q38 -12 38 -52q0 -23 -16 -39.5t-39 -16.5h-42q-14 0 -24.5 -10.5 t-10.5 -24.5v-428h42q40 0 52 -38q17 -5 27.5 -20t10.5 -33q0 -23 -16 -39t-39 -16zM188 0h265q19 0 32 13t13 32t-13 32.5t-32 13.5h-42q-19 0 -32 13t-13 32v428q0 19 13 32t32 13h42q19 0 32 13.5t13 32.5t-13 32t-32 13h-265q-19 0 -32 -13t-13 -32t13 -32.5t32 -13.5 h42q19 0 32 -13t13 -32v-428q0 -19 -13 -32t-32 -13h-42q-19 0 -32 -13.5t-13 -32.5t13 -32t32 -13z" glyph-name="Iacute" unicode="Í"/><glyph d="M451 881l32 -31q14 -14 14 -36t-13.5 -35.5t-35.5 -13.5q-18 0 -32 11q-12 9 -23 22l-2 2l-5 6q-4 4 -6 5l-2 2l-5 4l-2 2q-8 5 -16 5t-19 -8l-21 -21l-6 -6q0 -1 -2 -3t-3 -2l-6 -6q-16 -13 -36 -13q-18 0 -31 10t-17 27q-16 4 -26.5 17t-10.5 30q0 24 15 36l93 92 q15 15 35 15t35 -15l93 -92q0 -1 1 -2zM255 821l37 36q10 12 28 12q16 0 28 -12l36 -36q11 -11 29 -11q17 0 28 11t11 28q0 18 -11 29l-93 92q-12 12 -28 12q-18 0 -28 -12l-93 -92q-12 -12 -12 -29t11.5 -28t28.5 -11q18 0 28 11zM488 -45h-265q-40 0 -52 38q-38 12 -38 52 q0 23 16 39.5t39 16.5h42q14 0 24.5 10.5t10.5 24.5v428h-42q-39 0 -52 38q-17 5 -27.5 20t-10.5 33q0 23 16 39t39 16h265q40 0 52 -38q38 -12 38 -52q0 -23 -16 -39.5t-39 -16.5h-42q-14 0 -24.5 -10.5t-10.5 -24.5v-428h42q40 0 52 -38q17 -5 27.5 -20t10.5 -33 q0 -23 -16 -39t-39 -16zM188 0h265q19 0 32 13t13 32t-13 32.5t-32 13.5h-42q-19 0 -32 13t-13 32v428q0 19 13 32t32 13h42q19 0 32 13.5t13 32.5t-13 32t-32 13h-265q-19 0 -32 -13t-13 -32t13 -32.5t32 -13.5h42q19 0 32 -13t13 -32v-428q0 -19 -13 -32t-32 -13h-42 q-19 0 -32 -13.5t-13 -32.5t13 -32t32 -13z" glyph-name="Icircumflex" unicode="Î"/><glyph d="M278 775h-20q-40 0 -52 38q-38 12 -38 52v20q0 23 16 39t39 16h20q40 0 52 -38q38 -12 38 -52v-20q0 -23 -16 -39t-39 -16zM453 775h-20q-40 0 -52 38q-38 12 -38 52v20q0 23 16 39t39 16h20q40 0 52 -38q38 -12 38 -52v-20q0 -23 -16 -39t-39 -16zM398 820h20 q19 0 32 13t13 32v20q0 19 -13 32t-32 13h-20q-19 0 -32 -13t-13 -32v-20q0 -19 13 -32t32 -13zM223 820h20q19 0 32 13t13 32v20q0 19 -13 32t-32 13h-20q-19 0 -32 -13t-13 -32v-20q0 -19 13 -32t32 -13zM488 -45h-265q-40 0 -52 38q-38 12 -38 52q0 23 16 39.5t39 16.5 h42q14 0 24.5 10.5t10.5 24.5v428h-42q-39 0 -52 38q-17 5 -27.5 20t-10.5 33q0 23 16 39t39 16h265q40 0 52 -38q38 -12 38 -52q0 -23 -16 -39.5t-39 -16.5h-42q-14 0 -24.5 -10.5t-10.5 -24.5v-428h42q40 0 52 -38q17 -5 27.5 -20t10.5 -33q0 -23 -16 -39t-39 -16zM188 0 h265q19 0 32 13t13 32t-13 32.5t-32 13.5h-42q-19 0 -32 13t-13 32v428q0 19 13 32t32 13h42q19 0 32 13.5t13 32.5t-13 32t-32 13h-265q-19 0 -32 -13t-13 -32t13 -32.5t32 -13.5h42q19 0 32 -13t13 -32v-428q0 -19 -13 -32t-32 -13h-42q-19 0 -32 -13.5t-13 -32.5t13 -32 t32 -13z" glyph-name="Idieresis" unicode="Ï"/><glyph d="M88 45v219q-27 13 -33 35q-37 12 -37 52q0 55 65 55q5 0 5 5v244q0 23 16 39t39 16h250q23 0 39 -16l139 -140q17 -17 17 -39v-400q0 -22 -17 -39l-104 -105q-15 -16 -39 -16h-250q-40 0 -52 38q-38 12 -38 52zM98 655v-244q0 -15 -15 -15h-10q-19 0 -32 -13t-13 -32 q0 -20 13 -33t32 -13h10q15 0 15 -15v-245q0 -19 13 -32t32 -13h250q19 0 32 13l104 105q14 12 14 32v400q0 20 -14 32l-104 105q-13 13 -32 13h-250q-19 0 -32 -13t-13 -32zM189 136v154q0 15 15 15h139q19 0 32 13t13 33q0 19 -13 32t-32 13h-139q-15 0 -15 15v153 q0 19 13 32t32 13h125q15 0 25 -10l58 -58q10 -10 10 -25v-332q0 -15 -10 -25l-58 -58q-10 -10 -25 -10h-125q-19 0 -32 13t-13 32zM435 534l-23 23q-7 7 -18 7h-125q-14 0 -24.5 -10.5t-10.5 -24.5v-123h109q40 0 52 -38q38 -12 38 -52q0 -24 -15.5 -40t-39.5 -16h-139 q-5 0 -5 -5v-154h125q11 0 18 7l58 58q7 7 7 18v332q0 11 -7 18z" glyph-name="Eth" unicode="Ð"/><glyph d="M360 778l-79 79v-20q0 -20 -14 -34t-34 -14q-17 0 -29 10t-16 26q-37 8 -37 47v50q0 17 13 30l40 40q13 13 30 13h50q18 0 31 -13l79 -79v20q0 20 14.5 33.5t33.5 13.5q17 0 29.5 -10.5t16.5 -26.5q15 -3 25.5 -15.5t10.5 -29.5v-50q0 -19 -12 -31l-41 -40 q-14 -12 -30 -12h-50q-19 0 -31 13zM236 904l15 16h16l16 -16v-21q0 -14 9 -23l40 -40q10 -10 24 -10h50q16 0 23 10l41 40q9 9 9 23v50q0 15 -11 26t-26 11q-16 0 -27 -11t-11 -26v-33l-15 -15h-16l-16 15v22q0 12 -9 23l-40 40q-10 10 -24 10h-50q-13 0 -23 -10l-40 -40 q-10 -10 -10 -23v-50q0 -16 11 -27t26 -11q16 0 27 11t11 27v32zM550 672q38 -12 38 -52v-610q0 -23 -16 -39t-39 -16q-32 0 -48 28l-7 10q-17 7 -29 25l-215 370v-378q0 -23 -16.5 -39t-39.5 -16q-40 0 -52 38q-38 12 -38 52v610q0 23 16 39t39 16q31 0 49 -28l6 -11 q17 -6 29 -24l215 -370v378q0 23 16.5 39t39.5 16q40 0 52 -38zM445 227l-262 450q-14 23 -40 23q-19 0 -32 -13t-13 -32v-610q0 -19 13 -32t32 -13t32.5 13t13.5 32v427q0 7 2 7q3 0 5 -5l262 -451q14 -23 40 -23q19 0 32 13t13 32v610q0 19 -13 32t-32 13t-32.5 -13 t-13.5 -32v-426q0 -7 -2 -7t-5 5z" glyph-name="Ntilde" unicode="Ñ"/><glyph d="M319 976l31 -32l2 -1q2 -1 2 -2l81 -82q17 -17 17 -39q0 -23 -16.5 -39t-39.5 -16t-39 16l-117 117q-16 15 -16 39q0 23 16 39t39 16q24 0 40 -16zM247 905l82 -82q13 -13 32 -13t32.5 13t13.5 32q0 18 -14 32l-81 82q-13 13 -33 13q-19 0 -32 -13t-13 -32t13 -32z M588 536v-442q0 -24 -16 -39l-84 -83q-17 -17 -40 -17h-186q-22 0 -39 17l-84 83q-1 1 -3 4l-32 31q-16 16 -16 39v442q0 23 16 39l84 83q17 17 39 17h186q23 0 40 -17l119 -118q16 -16 16 -39zM530 603l-84 83q-12 14 -33 14h-186q-20 0 -32 -14l-84 -83q-13 -13 -13 -32 v-442q0 -19 13 -32l84 -83q12 -14 32 -14h186q21 0 33 14l84 83q13 13 13 32v442q0 19 -13 32zM442 138l-37 -37q-10 -10 -25 -10h-119q-15 0 -25 10l-37 37q-10 10 -10 25v374q0 15 10 25l37 37q10 10 25 10h119q15 0 25 -10l37 -37q10 -10 10 -25v-374q0 -15 -10 -25z M435 555l-2 2q-7 7 -18 7h-119q-10 0 -18 -7l-37 -37q-7 -8 -7 -18v-374q0 -11 7 -18l2 -2q7 -7 18 -7h119q11 0 18 7l37 37q7 7 7 18v374q0 11 -7 18z" glyph-name="Ograve" unicode="Ò"/><glyph d="M414 954q38 -13 38 -52q0 -24 -17 -39l-81 -82q-15 -16 -39 -16q-18 0 -33 10.5t-20 27.5q-38 12 -38 52q0 22 17 39l81 82q16 16 39 16q18 0 33 -10.5t20 -27.5zM312 823l81 82q14 12 14 32q0 19 -13.5 32t-32.5 13t-32 -13l-81 -82q-14 -14 -14 -32q0 -19 13.5 -32 t32.5 -13t32 13zM588 536v-442q0 -24 -16 -39l-84 -83q-17 -17 -40 -17h-186q-22 0 -39 17l-84 83q-1 1 -3 4l-32 31q-16 16 -16 39v442q0 23 16 39l84 83q17 17 39 17h186q23 0 40 -17l119 -118q16 -16 16 -39zM530 603l-84 83q-12 14 -33 14h-186q-20 0 -32 -14l-84 -83 q-13 -13 -13 -32v-442q0 -19 13 -32l84 -83q12 -14 32 -14h186q21 0 33 14l84 83q13 13 13 32v442q0 19 -13 32zM442 138l-37 -37q-10 -10 -25 -10h-119q-15 0 -25 10l-37 37q-10 10 -10 25v374q0 15 10 25l37 37q10 10 25 10h119q15 0 25 -10l37 -37q10 -10 10 -25v-374 q0 -15 -10 -25zM435 555l-2 2q-7 7 -18 7h-119q-10 0 -18 -7l-37 -37q-7 -8 -7 -18v-374q0 -11 7 -18l2 -2q7 -7 18 -7h119q11 0 18 7l37 37q7 7 7 18v374q0 11 -7 18z" glyph-name="Oacute" unicode="Ó"/><glyph d="M451 881l32 -31q14 -14 14 -36t-13.5 -35.5t-35.5 -13.5q-18 0 -32 11q-12 9 -23 22l-2 2l-5 6q-4 4 -6 5l-2 2l-5 4l-2 2q-8 5 -16 5t-19 -8l-21 -21l-6 -6q0 -1 -2 -3t-3 -2l-6 -6q-16 -13 -36 -13q-18 0 -31 10t-17 27q-16 4 -26.5 17t-10.5 30q0 24 15 36l93 92 q15 15 35 15t35 -15l93 -92q0 -1 1 -2zM255 821l37 36q10 12 28 12q16 0 28 -12l36 -36q11 -11 29 -11q17 0 28 11t11 28q0 18 -11 29l-93 92q-12 12 -28 12q-18 0 -28 -12l-93 -92q-12 -12 -12 -29t11.5 -28t28.5 -11q18 0 28 11zM588 536v-442q0 -24 -16 -39l-84 -83 q-17 -17 -40 -17h-186q-22 0 -39 17l-84 83q-1 1 -3 4l-32 31q-16 16 -16 39v442q0 23 16 39l84 83q17 17 39 17h186q23 0 40 -17l119 -118q16 -16 16 -39zM530 603l-84 83q-12 14 -33 14h-186q-20 0 -32 -14l-84 -83q-13 -13 -13 -32v-442q0 -19 13 -32l84 -83 q12 -14 32 -14h186q21 0 33 14l84 83q13 13 13 32v442q0 19 -13 32zM442 138l-37 -37q-10 -10 -25 -10h-119q-15 0 -25 10l-37 37q-10 10 -10 25v374q0 15 10 25l37 37q10 10 25 10h119q15 0 25 -10l37 -37q10 -10 10 -25v-374q0 -15 -10 -25zM435 555l-2 2q-7 7 -18 7h-119 q-10 0 -18 -7l-37 -37q-7 -8 -7 -18v-374q0 -11 7 -18l2 -2q7 -7 18 -7h119q11 0 18 7l37 37q7 7 7 18v374q0 11 -7 18z" glyph-name="Ocircumflex" unicode="Ô"/><glyph d="M360 778l-79 79v-20q0 -20 -14 -34t-34 -14q-17 0 -29 10t-16 26q-37 8 -37 47v50q0 17 13 30l40 40q13 13 30 13h50q18 0 31 -13l79 -79v20q0 20 14.5 33.5t33.5 13.5q17 0 29.5 -10.5t16.5 -26.5q15 -3 25.5 -15.5t10.5 -29.5v-50q0 -19 -12 -31l-41 -40 q-14 -12 -30 -12h-50q-19 0 -31 13zM236 904l15 16h16l16 -16v-21q0 -14 9 -23l40 -40q10 -10 24 -10h50q16 0 23 10l41 40q9 9 9 23v50q0 15 -11 26t-26 11q-16 0 -27 -11t-11 -26v-33l-15 -15h-16l-16 15v22q0 12 -9 23l-40 40q-10 10 -24 10h-50q-13 0 -23 -10l-40 -40 q-10 -10 -10 -23v-50q0 -16 11 -27t26 -11q16 0 27 11t11 27v32zM588 536v-442q0 -24 -16 -39l-84 -83q-17 -17 -40 -17h-186q-22 0 -39 17l-84 83q-1 1 -3 4l-32 31q-16 16 -16 39v442q0 23 16 39l84 83q17 17 39 17h186q23 0 40 -17l119 -118q16 -16 16 -39zM530 603 l-84 83q-12 14 -33 14h-186q-20 0 -32 -14l-84 -83q-13 -13 -13 -32v-442q0 -19 13 -32l84 -83q12 -14 32 -14h186q21 0 33 14l84 83q13 13 13 32v442q0 19 -13 32zM442 138l-37 -37q-10 -10 -25 -10h-119q-15 0 -25 10l-37 37q-10 10 -10 25v374q0 15 10 25l37 37 q10 10 25 10h119q15 0 25 -10l37 -37q10 -10 10 -25v-374q0 -15 -10 -25zM435 555l-2 2q-7 7 -18 7h-119q-10 0 -18 -7l-37 -37q-7 -8 -7 -18v-374q0 -11 7 -18l2 -2q7 -7 18 -7h119q11 0 18 7l37 37q7 7 7 18v374q0 11 -7 18z" glyph-name="Otilde" unicode="Õ"/><glyph d="M278 775h-20q-40 0 -52 38q-38 12 -38 52v20q0 23 16 39t39 16h20q40 0 52 -38q38 -12 38 -52v-20q0 -23 -16 -39t-39 -16zM453 775h-20q-40 0 -52 38q-38 12 -38 52v20q0 23 16 39t39 16h20q40 0 52 -38q38 -12 38 -52v-20q0 -23 -16 -39t-39 -16zM398 820h20 q19 0 32 13t13 32v20q0 19 -13 32t-32 13h-20q-19 0 -32 -13t-13 -32v-20q0 -19 13 -32t32 -13zM223 820h20q19 0 32 13t13 32v20q0 19 -13 32t-32 13h-20q-19 0 -32 -13t-13 -32v-20q0 -19 13 -32t32 -13zM588 536v-442q0 -24 -16 -39l-84 -83q-17 -17 -40 -17h-186 q-22 0 -39 17l-84 83q-1 1 -3 4l-32 31q-16 16 -16 39v442q0 23 16 39l84 83q17 17 39 17h186q23 0 40 -17l119 -118q16 -16 16 -39zM530 603l-84 83q-12 14 -33 14h-186q-20 0 -32 -14l-84 -83q-13 -13 -13 -32v-442q0 -19 13 -32l84 -83q12 -14 32 -14h186q21 0 33 14 l84 83q13 13 13 32v442q0 19 -13 32zM442 138l-37 -37q-10 -10 -25 -10h-119q-15 0 -25 10l-37 37q-10 10 -10 25v374q0 15 10 25l37 37q10 10 25 10h119q15 0 25 -10l37 -37q10 -10 10 -25v-374q0 -15 -10 -25zM435 555l-2 2q-7 7 -18 7h-119q-10 0 -18 -7l-37 -37 q-7 -8 -7 -18v-374q0 -11 7 -18l2 -2q7 -7 18 -7h119q11 0 18 7l37 37q7 7 7 18v374q0 11 -7 18z" glyph-name="Odieresis" unicode="Ö"/><glyph d="M490 125q-23 0 -40 17l-70 70q-11 11 -24 11q-11 0 -28 -14q-8 -6 -32 -32q-2 -3 -7.5 -9t-8.5 -10q-34 -34 -59 -34q-39 0 -52 38q-17 6 -28 21t-11 33q0 22 16 38l71 71q11 11 11 25t-11 25l-71 71q-16 16 -16 38q0 23 16.5 40t39.5 17q22 0 39 -17l71 -71 q11 -10 25 -10q13 0 24 10l71 71q17 17 42 17q17 0 30.5 -11t19.5 -27q17 -5 27.5 -20t10.5 -33q0 -22 -17 -39l-70 -71q-10 -11 -10 -25q0 -15 10 -25l70 -70q17 -16 17 -42q0 -21 -17.5 -37t-38.5 -16zM487 248l-70 70q-13 13 -13 32t13 32l70 71q14 14 14 32t-14 32.5 t-32 13.5q-18 0 -32 -14l-71 -71q-13 -13 -31 -13q-19 0 -32 13l-71 71q-14 14 -32 14q-19 0 -32.5 -14t-13.5 -33q0 -18 13 -31l71 -71q14 -14 14 -32t-14 -32l-71 -71q-13 -13 -13 -31t14 -32.5t32 -14.5t32 14l71 71q14 14 32 14q17 0 31 -14l70 -70q14 -14 33 -14 q18 0 32.5 14t13.5 32q0 18 -14 32z" glyph-name="multiply" unicode="×"/><glyph d="M655 560q0 -28 -37 -61l-3 -3l-6 -5l-3 -3q-3 -4 -9 -10q-9 -10 -9 -20v-363q0 -25 -17 -40l-84 -83q-17 -17 -39 -17h-186q-22 0 -39 17l-63 62q-2 2 -4 2q0 -1 -1 -2q-2 -1 -5 -4q-2 -2 -4 -3q-12 -12 -36 -12q-40 0 -52 38q-38 12 -38 52q0 13 7.5 26.5t11.5 17.5 t18 17l3 3l6 5l3 3l10 10q8 11 8 20v364q0 22 17 39l84 83q17 17 39 17h186q22 0 39 -17l63 -62q2 -2 4 -2q1 0 2 1q6 6 8 7q15 13 36 13q40 0 52 -38q38 -12 38 -52zM532 627l-3 -3q-5 -5 -10 -5q-6 0 -11 5l-63 62q-12 14 -32 14h-186q-20 0 -32 -14l-84 -83 q-14 -14 -14 -32v-364q0 -15 -11 -26l-43 -43q-13 -13 -13 -33q0 -19 13 -32t32 -13q20 0 33 13l3 3q5 5 10 5q6 0 11 -5l63 -62q12 -14 32 -14h186q20 0 32 14l84 83q14 14 14 33v363q0 15 11 26l43 44q13 12 13 32q0 19 -13 32t-32 13q-20 0 -33 -13zM199 563l36 35 q11 11 26 11h118q15 0 26 -11l40 -39q3 -3 3 -8q0 -9 -7 -16l-242 -241q-4 -4 -7 -4q-4 0 -4 8v239q0 15 11 26zM438 551l-5 4q-9 9 -19 9h-118q-10 0 -19 -9l-36 -35q-8 -8 -8 -18v-160l201 200q4 4 4 9zM441 137l-36 -35q-11 -11 -26 -11h-118q-15 0 -26 11l-40 39 q-3 3 -3 8q0 9 7 16l242 241q4 4 7 4q4 0 4 -8v-239q0 -15 -11 -26zM442 163v159l-201 -199q-4 -5 -4 -9l5 -5q8 -8 19 -8h118q11 0 19 8l36 35q8 8 8 19z" glyph-name="Oslash" unicode="Ø"/><glyph d="M319 976l31 -32l2 -1q2 -1 2 -2l81 -82q17 -17 17 -39q0 -23 -16.5 -39t-39.5 -16t-39 16l-117 117q-16 15 -16 39q0 23 16 39t39 16q24 0 40 -16zM247 905l82 -82q13 -13 32 -13t32.5 13t13.5 32q0 18 -14 32l-81 82q-13 13 -33 13q-19 0 -32 -13t-13 -32t13 -32z M550 672q38 -12 38 -52v-526q0 -24 -16 -39l-84 -83q-17 -17 -40 -17h-186q-22 0 -39 17l-84 83q-1 1 -3 4l-32 31q-16 16 -16 39v526q0 23 16 39t39 16q18 0 33 -10.5t20 -27.5q38 -13 38 -52v-492q0 -11 7 -18l2 -2q7 -7 18 -7h119q11 0 18 7l37 37q7 7 7 18v492 q0 23 16.5 39t39.5 16q40 0 52 -38zM189 163v492q0 19 -13.5 32t-32.5 13t-32 -13t-13 -32v-526q0 -19 13 -32l84 -83q12 -14 32 -14h186q21 0 33 14l84 83q13 13 13 32v526q0 19 -13 32t-32 13t-32.5 -13t-13.5 -32v-492q0 -15 -10 -25l-37 -37q-10 -10 -25 -10h-119 q-15 0 -25 10l-37 37q-10 10 -10 25z" glyph-name="Ugrave" unicode="Ù"/><glyph d="M414 954q38 -13 38 -52q0 -24 -17 -39l-81 -82q-15 -16 -39 -16q-18 0 -33 10.5t-20 27.5q-38 12 -38 52q0 22 17 39l81 82q16 16 39 16q18 0 33 -10.5t20 -27.5zM312 823l81 82q14 12 14 32q0 19 -13.5 32t-32.5 13t-32 -13l-81 -82q-14 -14 -14 -32q0 -19 13.5 -32 t32.5 -13t32 13zM550 672q38 -12 38 -52v-526q0 -24 -16 -39l-84 -83q-17 -17 -40 -17h-186q-22 0 -39 17l-84 83q-1 1 -3 4l-32 31q-16 16 -16 39v526q0 23 16 39t39 16q18 0 33 -10.5t20 -27.5q38 -13 38 -52v-492q0 -11 7 -18l2 -2q7 -7 18 -7h119q11 0 18 7l37 37 q7 7 7 18v492q0 23 16.5 39t39.5 16q40 0 52 -38zM189 163v492q0 19 -13.5 32t-32.5 13t-32 -13t-13 -32v-526q0 -19 13 -32l84 -83q12 -14 32 -14h186q21 0 33 14l84 83q13 13 13 32v526q0 19 -13 32t-32 13t-32.5 -13t-13.5 -32v-492q0 -15 -10 -25l-37 -37 q-10 -10 -25 -10h-119q-15 0 -25 10l-37 37q-10 10 -10 25z" glyph-name="Uacute" unicode="Ú"/><glyph d="M451 881l32 -31q14 -14 14 -36t-13.5 -35.5t-35.5 -13.5q-18 0 -32 11q-12 9 -23 22l-2 2l-5 6q-4 4 -6 5l-2 2l-5 4l-2 2q-8 5 -16 5t-19 -8l-21 -21l-6 -6q0 -1 -2 -3t-3 -2l-6 -6q-16 -13 -36 -13q-18 0 -31 10t-17 27q-16 4 -26.5 17t-10.5 30q0 24 15 36l93 92 q15 15 35 15t35 -15l93 -92q0 -1 1 -2zM255 821l37 36q10 12 28 12q16 0 28 -12l36 -36q11 -11 29 -11q17 0 28 11t11 28q0 18 -11 29l-93 92q-12 12 -28 12q-18 0 -28 -12l-93 -92q-12 -12 -12 -29t11.5 -28t28.5 -11q18 0 28 11zM550 672q38 -12 38 -52v-526 q0 -24 -16 -39l-84 -83q-17 -17 -40 -17h-186q-22 0 -39 17l-84 83q-1 1 -3 4l-32 31q-16 16 -16 39v526q0 23 16 39t39 16q18 0 33 -10.5t20 -27.5q38 -13 38 -52v-492q0 -11 7 -18l2 -2q7 -7 18 -7h119q11 0 18 7l37 37q7 7 7 18v492q0 23 16.5 39t39.5 16q40 0 52 -38z M189 163v492q0 19 -13.5 32t-32.5 13t-32 -13t-13 -32v-526q0 -19 13 -32l84 -83q12 -14 32 -14h186q21 0 33 14l84 83q13 13 13 32v526q0 19 -13 32t-32 13t-32.5 -13t-13.5 -32v-492q0 -15 -10 -25l-37 -37q-10 -10 -25 -10h-119q-15 0 -25 10l-37 37q-10 10 -10 25z" glyph-name="Ucircumflex" unicode="Û"/><glyph d="M278 775h-20q-40 0 -52 38q-38 12 -38 52v20q0 23 16 39t39 16h20q40 0 52 -38q38 -12 38 -52v-20q0 -23 -16 -39t-39 -16zM453 775h-20q-40 0 -52 38q-38 12 -38 52v20q0 23 16 39t39 16h20q40 0 52 -38q38 -12 38 -52v-20q0 -23 -16 -39t-39 -16zM398 820h20 q19 0 32 13t13 32v20q0 19 -13 32t-32 13h-20q-19 0 -32 -13t-13 -32v-20q0 -19 13 -32t32 -13zM223 820h20q19 0 32 13t13 32v20q0 19 -13 32t-32 13h-20q-19 0 -32 -13t-13 -32v-20q0 -19 13 -32t32 -13zM550 672q38 -12 38 -52v-526q0 -24 -16 -39l-84 -83 q-17 -17 -40 -17h-186q-22 0 -39 17l-84 83q-1 1 -3 4l-32 31q-16 16 -16 39v526q0 23 16 39t39 16q18 0 33 -10.5t20 -27.5q38 -13 38 -52v-492q0 -11 7 -18l2 -2q7 -7 18 -7h119q11 0 18 7l37 37q7 7 7 18v492q0 23 16.5 39t39.5 16q40 0 52 -38zM189 163v492 q0 19 -13.5 32t-32.5 13t-32 -13t-13 -32v-526q0 -19 13 -32l84 -83q12 -14 32 -14h186q21 0 33 14l84 83q13 13 13 32v526q0 19 -13 32t-32 13t-32.5 -13t-13.5 -32v-492q0 -15 -10 -25l-37 -37q-10 -10 -25 -10h-119q-15 0 -25 10l-37 37q-10 10 -10 25z" glyph-name="Udieresis" unicode="Ü"/><glyph d="M414 954q38 -13 38 -52q0 -24 -17 -39l-81 -82q-15 -16 -39 -16q-18 0 -33 10.5t-20 27.5q-38 12 -38 52q0 22 17 39l81 82q16 16 39 16q18 0 33 -10.5t20 -27.5zM312 823l81 82q14 12 14 32q0 19 -13.5 32t-32.5 13t-32 -13l-81 -82q-14 -14 -14 -32q0 -19 13.5 -32 t32.5 -13t32 13zM196 672q38 -13 38 -52v-135q0 -11 7 -18l57 -58q10 -7 22 -7q15 0 26 10l89 90q7 7 7 18v135q0 23 16.5 39t39.5 16q40 0 52 -38q38 -12 38 -52v-169q0 -25 -17 -40l-153 -153q-7 -8 -7 -18v-230q0 -24 -16 -39.5t-40 -15.5q-40 0 -52 38q-38 12 -38 52 v230q0 11 -7 18l-153 153q-17 17 -17 40v169q0 23 16 39t39 16q18 0 33 -10.5t20 -27.5zM112 453l153 -153q10 -10 10 -25v-230q0 -19 13 -32t32 -13q20 0 33 13t13 32v230q0 15 10 25l153 153q14 14 14 33v169q0 19 -13 32t-32 13t-32.5 -13t-13.5 -32v-135q0 -15 -10 -25 l-89 -90q-13 -13 -33 -13q-19 0 -32 13l-89 90q-10 10 -10 25v135q0 19 -13.5 32t-32.5 13t-32 -13t-13 -32v-169q0 -19 14 -33z" glyph-name="Yacute" unicode="Ý"/><glyph d="M195 673q39 -11 39 -63h159q23 0 39 -16l139 -140q17 -17 17 -39v-200q0 -22 -17 -39l-104 -105q-15 -16 -39 -16h-159q-14 0 -24.5 -10.5t-10.5 -24.5q0 -65 -56 -65q-40 0 -52 38q-38 12 -38 52v610q0 23 16 39t39 16q40 0 52 -37zM98 655v-610q0 -19 13 -32t32 -13 q20 0 33 13t13 32v10q0 19 13 32t32 13h159q19 0 32 13l104 105q14 12 14 32v200q0 20 -14 32l-104 105q-13 13 -32 13h-159q-19 0 -32 13t-13 32v10q0 19 -13 32t-33 13q-19 0 -32 -13t-13 -32zM452 416v-132q0 -15 -10 -25l-58 -58q-10 -10 -25 -10h-125q-19 0 -32 13 t-13 32v228q0 19 13 32t32 13h125q15 0 25 -10l58 -58q10 -10 10 -25zM435 434l-23 23q-7 7 -18 7h-125q-14 0 -24.5 -10.5t-10.5 -24.5v-228h125q11 0 18 7l58 58q7 7 7 18v132q0 11 -7 18z" glyph-name="Thorn" unicode="Þ"/><glyph d="M126 -81q-38 12 -38 52v600q0 23 16 39l84 83q17 17 39 17h158q22 0 39 -17l119 -118q16 -16 16 -39v-108q0 -16 -8 -30q-14 -16 -18 -20q-20 -20 -20 -34q0 -11 6 -20q1 0 1 -0.5t1 -0.5l3 -3q5 -4 15 -16l1 -2l3 -3l4 -4q10 -8 14 -13q27 -22 27 -51v-136 q0 -25 -16 -40l-84 -83q-15 -17 -39 -17h-128q-40 0 -52 38q-26 8 -35 33v-90q0 -23 -16.5 -39t-39.5 -16q-40 0 -52 38zM189 -29v566q0 15 11 26l35 35q11 11 26 11h90q15 0 26 -11l35 -35q11 -11 11 -26v-40q0 -15 -11 -26l-59 -60q-14 -14 -14 -32t14 -32l88 -89 q11 -11 11 -26v-69q0 -15 -11 -26l-35 -35q-11 -11 -26 -11h-94q-19 0 -32 -13.5t-13 -32.5t13 -32t32 -13h128q20 0 32 14l84 83q13 13 13 33v136q0 19 -13 32l-49 49q-13 13 -13 32t13 32l20 20q13 13 13 32v108q0 19 -13 32l-84 83q-12 14 -32 14h-158q-20 0 -32 -14 l-84 -83q-13 -13 -13 -32v-600q0 -19 13 -32t32 -13t32.5 13t13.5 32zM405 556q-10 8 -19 8h-90q-9 0 -19 -8l-35 -35q-8 -10 -8 -19v-438q14 37 52 37h94q11 0 19 8l35 35q8 8 8 19v69q0 11 -8 19l-88 89q-17 17 -17 39q0 17 15 38q14 17 30 30q7 5 16 14q23 23 23 36v40 q0 11 -8 19z" glyph-name="germandbls" unicode="ß"/><glyph d="M319 976l31 -32l2 -1q2 -1 2 -2l81 -82q17 -17 17 -39q0 -23 -16.5 -39t-39.5 -16t-39 16l-117 117q-16 15 -16 39q0 23 16 39t39 16q24 0 40 -16zM247 905l82 -82q13 -13 32 -13t32.5 13t13.5 32q0 18 -14 32l-81 82q-13 13 -33 13q-19 0 -32 -13t-13 -32t13 -32z M588 515v-505q0 -23 -16 -39t-39 -16q-18 0 -33 10.5t-20 27.5q-38 12 -38 52v192h-173q-14 0 -24.5 -10.5t-10.5 -24.5v-192q0 -23 -16.5 -39t-39.5 -16q-40 0 -52 38q-38 12 -38 52v505q0 23 16 39l105 104q17 17 39 17h145q23 0 39 -16l139 -140q17 -17 17 -39zM543 45 v505q0 20 -14 32l-104 105q-13 13 -32 13h-145q-20 0 -32 -14l-105 -104q-13 -13 -13 -32v-505q0 -19 13 -32t32 -13t32.5 13t13.5 32v192q0 19 13 32t32 13h173q19 0 32 -13t13 -32v-192q0 -19 13.5 -32t32.5 -13t32 13t13 32zM452 516v-98q0 -19 -13 -32t-32 -13h-173 q-19 0 -32 13t-13 32v98q0 15 10 25l58 58q10 10 25 10h77q15 0 25 -10l58 -58q10 -10 10 -25zM435 534l-23 23q-7 7 -18 7h-77q-10 0 -18 -7l-58 -58q-7 -8 -7 -18v-98h173q14 0 24.5 10.5t10.5 24.5v98q0 11 -7 18z" glyph-name="agrave" unicode="à"/><glyph d="M414 954q38 -13 38 -52q0 -24 -17 -39l-81 -82q-15 -16 -39 -16q-18 0 -33 10.5t-20 27.5q-38 12 -38 52q0 22 17 39l81 82q16 16 39 16q18 0 33 -10.5t20 -27.5zM312 823l81 82q14 12 14 32q0 19 -13.5 32t-32.5 13t-32 -13l-81 -82q-14 -14 -14 -32q0 -19 13.5 -32 t32.5 -13t32 13zM588 515v-505q0 -23 -16 -39t-39 -16q-18 0 -33 10.5t-20 27.5q-38 12 -38 52v192h-173q-14 0 -24.5 -10.5t-10.5 -24.5v-192q0 -23 -16.5 -39t-39.5 -16q-40 0 -52 38q-38 12 -38 52v505q0 23 16 39l105 104q17 17 39 17h145q23 0 39 -16l139 -140 q17 -17 17 -39zM543 45v505q0 20 -14 32l-104 105q-13 13 -32 13h-145q-20 0 -32 -14l-105 -104q-13 -13 -13 -32v-505q0 -19 13 -32t32 -13t32.5 13t13.5 32v192q0 19 13 32t32 13h173q19 0 32 -13t13 -32v-192q0 -19 13.5 -32t32.5 -13t32 13t13 32zM452 516v-98 q0 -19 -13 -32t-32 -13h-173q-19 0 -32 13t-13 32v98q0 15 10 25l58 58q10 10 25 10h77q15 0 25 -10l58 -58q10 -10 10 -25zM435 534l-23 23q-7 7 -18 7h-77q-10 0 -18 -7l-58 -58q-7 -8 -7 -18v-98h173q14 0 24.5 10.5t10.5 24.5v98q0 11 -7 18z" glyph-name="aacute" unicode="á"/><glyph d="M451 881l32 -31q14 -14 14 -36t-13.5 -35.5t-35.5 -13.5q-18 0 -32 11q-12 9 -23 22l-2 2l-5 6q-4 4 -6 5l-2 2l-5 4l-2 2q-8 5 -16 5t-19 -8l-21 -21l-6 -6q0 -1 -2 -3t-3 -2l-6 -6q-16 -13 -36 -13q-18 0 -31 10t-17 27q-16 4 -26.5 17t-10.5 30q0 24 15 36l93 92 q15 15 35 15t35 -15l93 -92q0 -1 1 -2zM255 821l37 36q10 12 28 12q16 0 28 -12l36 -36q11 -11 29 -11q17 0 28 11t11 28q0 18 -11 29l-93 92q-12 12 -28 12q-18 0 -28 -12l-93 -92q-12 -12 -12 -29t11.5 -28t28.5 -11q18 0 28 11zM588 515v-505q0 -23 -16 -39t-39 -16 q-18 0 -33 10.5t-20 27.5q-38 12 -38 52v192h-173q-14 0 -24.5 -10.5t-10.5 -24.5v-192q0 -23 -16.5 -39t-39.5 -16q-40 0 -52 38q-38 12 -38 52v505q0 23 16 39l105 104q17 17 39 17h145q23 0 39 -16l139 -140q17 -17 17 -39zM543 45v505q0 20 -14 32l-104 105 q-13 13 -32 13h-145q-20 0 -32 -14l-105 -104q-13 -13 -13 -32v-505q0 -19 13 -32t32 -13t32.5 13t13.5 32v192q0 19 13 32t32 13h173q19 0 32 -13t13 -32v-192q0 -19 13.5 -32t32.5 -13t32 13t13 32zM452 516v-98q0 -19 -13 -32t-32 -13h-173q-19 0 -32 13t-13 32v98 q0 15 10 25l58 58q10 10 25 10h77q15 0 25 -10l58 -58q10 -10 10 -25zM435 534l-23 23q-7 7 -18 7h-77q-10 0 -18 -7l-58 -58q-7 -8 -7 -18v-98h173q14 0 24.5 10.5t10.5 24.5v98q0 11 -7 18z" glyph-name="acircumflex" unicode="â"/><glyph d="M360 778l-79 79v-20q0 -20 -14 -34t-34 -14q-17 0 -29 10t-16 26q-37 8 -37 47v50q0 17 13 30l40 40q13 13 30 13h50q18 0 31 -13l79 -79v20q0 20 14.5 33.5t33.5 13.5q17 0 29.5 -10.5t16.5 -26.5q15 -3 25.5 -15.5t10.5 -29.5v-50q0 -19 -12 -31l-41 -40 q-14 -12 -30 -12h-50q-19 0 -31 13zM236 904l15 16h16l16 -16v-21q0 -14 9 -23l40 -40q10 -10 24 -10h50q16 0 23 10l41 40q9 9 9 23v50q0 15 -11 26t-26 11q-16 0 -27 -11t-11 -26v-33l-15 -15h-16l-16 15v22q0 12 -9 23l-40 40q-10 10 -24 10h-50q-13 0 -23 -10l-40 -40 q-10 -10 -10 -23v-50q0 -16 11 -27t26 -11q16 0 27 11t11 27v32zM588 515v-505q0 -23 -16 -39t-39 -16q-18 0 -33 10.5t-20 27.5q-38 12 -38 52v192h-173q-14 0 -24.5 -10.5t-10.5 -24.5v-192q0 -23 -16.5 -39t-39.5 -16q-40 0 -52 38q-38 12 -38 52v505q0 23 16 39l105 104 q17 17 39 17h145q23 0 39 -16l139 -140q17 -17 17 -39zM543 45v505q0 20 -14 32l-104 105q-13 13 -32 13h-145q-20 0 -32 -14l-105 -104q-13 -13 -13 -32v-505q0 -19 13 -32t32 -13t32.5 13t13.5 32v192q0 19 13 32t32 13h173q19 0 32 -13t13 -32v-192q0 -19 13.5 -32 t32.5 -13t32 13t13 32zM452 516v-98q0 -19 -13 -32t-32 -13h-173q-19 0 -32 13t-13 32v98q0 15 10 25l58 58q10 10 25 10h77q15 0 25 -10l58 -58q10 -10 10 -25zM435 534l-23 23q-7 7 -18 7h-77q-10 0 -18 -7l-58 -58q-7 -8 -7 -18v-98h173q14 0 24.5 10.5t10.5 24.5v98 q0 11 -7 18z" glyph-name="atilde" unicode="ã"/><glyph d="M278 775h-20q-40 0 -52 38q-38 12 -38 52v20q0 23 16 39t39 16h20q40 0 52 -38q38 -12 38 -52v-20q0 -23 -16 -39t-39 -16zM453 775h-20q-40 0 -52 38q-38 12 -38 52v20q0 23 16 39t39 16h20q40 0 52 -38q38 -12 38 -52v-20q0 -23 -16 -39t-39 -16zM398 820h20 q19 0 32 13t13 32v20q0 19 -13 32t-32 13h-20q-19 0 -32 -13t-13 -32v-20q0 -19 13 -32t32 -13zM223 820h20q19 0 32 13t13 32v20q0 19 -13 32t-32 13h-20q-19 0 -32 -13t-13 -32v-20q0 -19 13 -32t32 -13zM588 515v-505q0 -23 -16 -39t-39 -16q-18 0 -33 10.5t-20 27.5 q-38 12 -38 52v192h-173q-14 0 -24.5 -10.5t-10.5 -24.5v-192q0 -23 -16.5 -39t-39.5 -16q-40 0 -52 38q-38 12 -38 52v505q0 23 16 39l105 104q17 17 39 17h145q23 0 39 -16l139 -140q17 -17 17 -39zM543 45v505q0 20 -14 32l-104 105q-13 13 -32 13h-145q-20 0 -32 -14 l-105 -104q-13 -13 -13 -32v-505q0 -19 13 -32t32 -13t32.5 13t13.5 32v192q0 19 13 32t32 13h173q19 0 32 -13t13 -32v-192q0 -19 13.5 -32t32.5 -13t32 13t13 32zM452 516v-98q0 -19 -13 -32t-32 -13h-173q-19 0 -32 13t-13 32v98q0 15 10 25l58 58q10 10 25 10h77 q15 0 25 -10l58 -58q10 -10 10 -25zM435 534l-23 23q-7 7 -18 7h-77q-10 0 -18 -7l-58 -58q-7 -8 -7 -18v-98h173q14 0 24.5 10.5t10.5 24.5v98q0 11 -7 18z" glyph-name="adieresis" unicode="ä"/><glyph d="M378 991l31 -32q1 -1 4 -3l52 -53q11 -11 11 -27v-61q0 -16 -11 -27l-52 -52q-10 -11 -28 -11h-60q-17 0 -28 11l-87 87q-11 11 -11 27v61q0 16 11 27l52 53q11 11 28 11h60q17 0 28 -11zM209 911v-61q0 -9 8 -20l52 -52q11 -8 21 -8h60q13 0 21 8l52 52q8 8 8 20v61 q0 12 -8 20l-52 53q-8 8 -21 8h-60q-10 0 -21 -8l-52 -53q-8 -8 -8 -20zM284 906l11 11q10 10 25 10t25 -10l11 -11q10 -10 10 -25t-10 -25l-11 -11q-10 -10 -25 -10t-25 10l-11 11q-10 10 -10 25t10 25zM355 882q-12 0 -24 -12t-12 -24v-1h1q12 0 24 12t12 24q0 1 -1 1z M588 515v-505q0 -23 -16 -39t-39 -16q-18 0 -33 10.5t-20 27.5q-38 12 -38 52v192h-173q-14 0 -24.5 -10.5t-10.5 -24.5v-192q0 -23 -16.5 -39t-39.5 -16q-40 0 -52 38q-38 12 -38 52v505q0 23 16 39l105 104q17 17 39 17h145q23 0 39 -16l139 -140q17 -17 17 -39zM543 45 v505q0 20 -14 32l-104 105q-13 13 -32 13h-145q-20 0 -32 -14l-105 -104q-13 -13 -13 -32v-505q0 -19 13 -32t32 -13t32.5 13t13.5 32v192q0 19 13 32t32 13h173q19 0 32 -13t13 -32v-192q0 -19 13.5 -32t32.5 -13t32 13t13 32zM452 516v-98q0 -19 -13 -32t-32 -13h-173 q-19 0 -32 13t-13 32v98q0 15 10 25l58 58q10 10 25 10h77q15 0 25 -10l58 -58q10 -10 10 -25zM435 534l-23 23q-7 7 -18 7h-77q-10 0 -18 -7l-58 -58q-7 -8 -7 -18v-98h173q14 0 24.5 10.5t10.5 24.5v98q0 11 -7 18z" glyph-name="aring" unicode="å"/><glyph d="M214 202v-192q0 -23 -16.5 -39t-39.5 -16q-40 0 -52 38q-38 12 -38 52v505q0 23 16 39l105 104q17 17 39 17h290q40 0 52 -38q38 -12 38 -52q0 -23 -16 -39.5t-39 -16.5h-107q-14 0 -24.5 -10.5t-10.5 -24.5v-124h87q40 0 52 -38q38 -12 38 -52q0 -23 -16 -39.5 t-39 -16.5h-87q-14 0 -24.5 -10.5t-10.5 -24.5v-123h107q40 0 52 -38q17 -5 27.5 -20t10.5 -33q0 -23 -16 -39t-39 -16h-198q-40 0 -52 38q-38 12 -38 52v192h-16q-14 0 -24.5 -10.5t-10.5 -24.5zM275 267v-222q0 -19 13 -32t32 -13h198q19 0 32 13t13 32t-13 32.5t-32 13.5 h-107q-19 0 -32 13t-13 32v123q0 19 13 32t32 13h87q19 0 32 13.5t13 32.5t-13 32t-32 13h-87q-19 0 -32 13.5t-13 32.5v123q0 19 13 32t32 13h107q19 0 32 13.5t13 32.5t-13 32t-32 13h-290q-20 0 -32 -14l-105 -104q-13 -13 -13 -32v-505q0 -19 13 -32t32 -13t32.5 13 t13.5 32v192q0 19 13 32t32 13h46q15 0 15 -15zM275 595v-207q0 -15 -15 -15h-46q-19 0 -32 13t-13 32v98q0 15 11 26l57 57q10 10 23 10q15 0 15 -14zM265 388v154l-43 -42q-8 -10 -8 -19v-98h46q5 0 5 5z" glyph-name="ae" unicode="æ"/><glyph d="M234 481v-332q0 -11 7 -18l23 -23q7 -7 18 -7h77q11 0 18 7l58 58q7 7 7 20v8.5v10.5v9q0 23 16.5 39.5t39.5 16.5q40 0 52 -38q17 -5 27.5 -20t10.5 -33v-64q0 -22 -17 -39l-104 -105q-14 -15 -40 -17h-8.5h-10.5h-10v-5q0 -7 5 -15q2 -2 3 -2l5 -5l1 -1q2 0 2 -1t1 -2 l2 -2l7 -6q1 -1 3 -4q1 -1 7 -9q10 -8 15 -13q5 -4 14 -13q14 -18 14 -32v-61q0 -16 -11 -27l-53 -52q-11 -12 -27 -12h-61q-15 0 -27 12q-7 7 -10 9q-7 6 -13 13q-4 1 -7 9q-8 6 -16 14l-12 12q-17 17 -17 35t12.5 30t30.5 12q12 0 20 -5q2 -2 5 -3l3 -2l4 -4l2 -1 q11 -11 21 -11q11 0 23.5 12.5t12.5 23.5q0 7 -5 15l-2 2l-6 5l-2 2l-14 14q-4 4 -5 7l-2 2q-10 8 -15 13q-27 22 -28 47q-24 6 -35 17l-139 139q-16 15 -16 39v400q0 24 16 39l104 104q17 17 40 17h145q23 0 39 -16l139 -140q17 -17 17 -39v-64q0 -23 -16 -39.5t-39 -16.5 q-40 0 -53 38q-38 13 -38 53v28q0 13 -7 20l-23 23q-7 7 -18 7h-77q-10 0 -18 -7l-58 -58q-7 -8 -7 -18zM189 184v332q0 15 10 25l58 58q10 10 25 10h77q15 0 25 -10l58 -58q10 -10 10 -25v-30q0 -19 13.5 -32.5t32.5 -13.5t32 13.5t13 32.5v64q0 20 -14 32l-104 105 q-13 13 -32 13h-145q-19 0 -33 -14l-104 -104q-13 -13 -13 -32v-400q0 -19 13 -32l104 -104q14 -14 33 -14h40v-43q0 -15 11 -26l57 -57q11 -11 11 -26t-11 -26l-9 -9q-11 -11 -26 -11t-26 11l-6 6q-9 9 -23 9t-23.5 -9t-9.5 -23q0 -13 10 -23l27 -27q8 -9 20 -9h61 q13 0 20 9l53 52q8 8 8 20v61q0 9 -8 20l-60 59q-11 11 -11 26v16h40q19 0 32 13l104 105q14 12 14 32v64q0 19 -13 32.5t-32 13.5t-32.5 -13.5t-13.5 -32.5v-30q0 -15 -10 -25l-58 -58q-10 -10 -25 -10h-77q-15 0 -25 10l-58 58q-10 10 -10 25z" glyph-name="ccedilla" unicode="ç"/><glyph d="M319 976l31 -32l2 -1q2 -1 2 -2l81 -82q17 -17 17 -39q0 -23 -16.5 -39t-39.5 -16t-39 16l-117 117q-16 15 -16 39q0 23 16 39t39 16q24 0 40 -16zM247 905l82 -82q13 -13 32 -13t32.5 13t13.5 32q0 18 -14 32l-81 82q-13 13 -33 13q-19 0 -32 -13t-13 -32t13 -32z M550 672q38 -12 38 -52q0 -23 -16 -39.5t-39 -16.5h-264q-14 0 -24.5 -10.5t-10.5 -24.5v-124h196q18 0 33 -10.5t20 -27.5q38 -13 38 -52q0 -23 -16.5 -39.5t-39.5 -16.5h-196q-14 0 -24.5 -11t-10.5 -25v-122h264q40 0 52 -38q17 -5 27.5 -20t10.5 -33q0 -23 -16 -39 t-39 -16h-355q-40 0 -52 38q-38 12 -38 52v610q0 23 16 39t39 16h355q40 0 52 -38zM98 655v-610q0 -19 13 -32t32 -13h355q19 0 32 13t13 32t-13 32.5t-32 13.5h-264q-19 0 -32 13t-13 32v122q0 19 13 32.5t32 13.5h196q19 0 32.5 13.5t13.5 32.5t-13.5 32t-32.5 13h-196 q-19 0 -32 13.5t-13 32.5v123q0 19 13 32t32 13h264q19 0 32 13.5t13 32.5t-13 32t-32 13h-355q-19 0 -32 -13t-13 -32z" glyph-name="egrave" unicode="è"/><glyph d="M414 954q38 -13 38 -52q0 -24 -17 -39l-81 -82q-15 -16 -39 -16q-18 0 -33 10.5t-20 27.5q-38 12 -38 52q0 22 17 39l81 82q16 16 39 16q18 0 33 -10.5t20 -27.5zM312 823l81 82q14 12 14 32q0 19 -13.5 32t-32.5 13t-32 -13l-81 -82q-14 -14 -14 -32q0 -19 13.5 -32 t32.5 -13t32 13zM550 672q38 -12 38 -52q0 -23 -16 -39.5t-39 -16.5h-264q-14 0 -24.5 -10.5t-10.5 -24.5v-124h196q18 0 33 -10.5t20 -27.5q38 -13 38 -52q0 -23 -16.5 -39.5t-39.5 -16.5h-196q-14 0 -24.5 -11t-10.5 -25v-122h264q40 0 52 -38q17 -5 27.5 -20t10.5 -33 q0 -23 -16 -39t-39 -16h-355q-40 0 -52 38q-38 12 -38 52v610q0 23 16 39t39 16h355q40 0 52 -38zM98 655v-610q0 -19 13 -32t32 -13h355q19 0 32 13t13 32t-13 32.5t-32 13.5h-264q-19 0 -32 13t-13 32v122q0 19 13 32.5t32 13.5h196q19 0 32.5 13.5t13.5 32.5t-13.5 32 t-32.5 13h-196q-19 0 -32 13.5t-13 32.5v123q0 19 13 32t32 13h264q19 0 32 13.5t13 32.5t-13 32t-32 13h-355q-19 0 -32 -13t-13 -32z" glyph-name="eacute" unicode="é"/><glyph d="M451 881l32 -31q14 -14 14 -36t-13.5 -35.5t-35.5 -13.5q-18 0 -32 11q-12 9 -23 22l-2 2l-5 6q-4 4 -6 5l-2 2l-5 4l-2 2q-8 5 -16 5t-19 -8l-21 -21l-6 -6q0 -1 -2 -3t-3 -2l-6 -6q-16 -13 -36 -13q-18 0 -31 10t-17 27q-16 4 -26.5 17t-10.5 30q0 24 15 36l93 92 q15 15 35 15t35 -15l93 -92q0 -1 1 -2zM255 821l37 36q10 12 28 12q16 0 28 -12l36 -36q11 -11 29 -11q17 0 28 11t11 28q0 18 -11 29l-93 92q-12 12 -28 12q-18 0 -28 -12l-93 -92q-12 -12 -12 -29t11.5 -28t28.5 -11q18 0 28 11zM550 672q38 -12 38 -52q0 -23 -16 -39.5 t-39 -16.5h-264q-14 0 -24.5 -10.5t-10.5 -24.5v-124h196q18 0 33 -10.5t20 -27.5q38 -13 38 -52q0 -23 -16.5 -39.5t-39.5 -16.5h-196q-14 0 -24.5 -11t-10.5 -25v-122h264q40 0 52 -38q17 -5 27.5 -20t10.5 -33q0 -23 -16 -39t-39 -16h-355q-40 0 -52 38q-38 12 -38 52 v610q0 23 16 39t39 16h355q40 0 52 -38zM98 655v-610q0 -19 13 -32t32 -13h355q19 0 32 13t13 32t-13 32.5t-32 13.5h-264q-19 0 -32 13t-13 32v122q0 19 13 32.5t32 13.5h196q19 0 32.5 13.5t13.5 32.5t-13.5 32t-32.5 13h-196q-19 0 -32 13.5t-13 32.5v123q0 19 13 32 t32 13h264q19 0 32 13.5t13 32.5t-13 32t-32 13h-355q-19 0 -32 -13t-13 -32z" glyph-name="ecircumflex" unicode="ê"/><glyph d="M278 775h-20q-40 0 -52 38q-38 12 -38 52v20q0 23 16 39t39 16h20q40 0 52 -38q38 -12 38 -52v-20q0 -23 -16 -39t-39 -16zM453 775h-20q-40 0 -52 38q-38 12 -38 52v20q0 23 16 39t39 16h20q40 0 52 -38q38 -12 38 -52v-20q0 -23 -16 -39t-39 -16zM398 820h20 q19 0 32 13t13 32v20q0 19 -13 32t-32 13h-20q-19 0 -32 -13t-13 -32v-20q0 -19 13 -32t32 -13zM223 820h20q19 0 32 13t13 32v20q0 19 -13 32t-32 13h-20q-19 0 -32 -13t-13 -32v-20q0 -19 13 -32t32 -13zM550 672q38 -12 38 -52q0 -23 -16 -39.5t-39 -16.5h-264 q-14 0 -24.5 -10.5t-10.5 -24.5v-124h196q18 0 33 -10.5t20 -27.5q38 -13 38 -52q0 -23 -16.5 -39.5t-39.5 -16.5h-196q-14 0 -24.5 -11t-10.5 -25v-122h264q40 0 52 -38q17 -5 27.5 -20t10.5 -33q0 -23 -16 -39t-39 -16h-355q-40 0 -52 38q-38 12 -38 52v610q0 23 16 39 t39 16h355q40 0 52 -38zM98 655v-610q0 -19 13 -32t32 -13h355q19 0 32 13t13 32t-13 32.5t-32 13.5h-264q-19 0 -32 13t-13 32v122q0 19 13 32.5t32 13.5h196q19 0 32.5 13.5t13.5 32.5t-13.5 32t-32.5 13h-196q-19 0 -32 13.5t-13 32.5v123q0 19 13 32t32 13h264 q19 0 32 13.5t13 32.5t-13 32t-32 13h-355q-19 0 -32 -13t-13 -32z" glyph-name="edieresis" unicode="ë"/><glyph d="M319 976l31 -32l2 -1q2 -1 2 -2l81 -82q17 -17 17 -39q0 -23 -16.5 -39t-39.5 -16t-39 16l-117 117q-16 15 -16 39q0 23 16 39t39 16q24 0 40 -16zM247 905l82 -82q13 -13 32 -13t32.5 13t13.5 32q0 18 -14 32l-81 82q-13 13 -33 13q-19 0 -32 -13t-13 -32t13 -32z M488 -45h-265q-40 0 -52 38q-38 12 -38 52q0 23 16 39.5t39 16.5h42q14 0 24.5 10.5t10.5 24.5v428h-42q-39 0 -52 38q-17 5 -27.5 20t-10.5 33q0 23 16 39t39 16h265q40 0 52 -38q38 -12 38 -52q0 -23 -16 -39.5t-39 -16.5h-42q-14 0 -24.5 -10.5t-10.5 -24.5v-428h42 q40 0 52 -38q17 -5 27.5 -20t10.5 -33q0 -23 -16 -39t-39 -16zM188 0h265q19 0 32 13t13 32t-13 32.5t-32 13.5h-42q-19 0 -32 13t-13 32v428q0 19 13 32t32 13h42q19 0 32 13.5t13 32.5t-13 32t-32 13h-265q-19 0 -32 -13t-13 -32t13 -32.5t32 -13.5h42q19 0 32 -13t13 -32 v-428q0 -19 -13 -32t-32 -13h-42q-19 0 -32 -13.5t-13 -32.5t13 -32t32 -13z" glyph-name="igrave" unicode="ì"/><glyph d="M414 954q38 -13 38 -52q0 -24 -17 -39l-81 -82q-15 -16 -39 -16q-18 0 -33 10.5t-20 27.5q-38 12 -38 52q0 22 17 39l81 82q16 16 39 16q18 0 33 -10.5t20 -27.5zM312 823l81 82q14 12 14 32q0 19 -13.5 32t-32.5 13t-32 -13l-81 -82q-14 -14 -14 -32q0 -19 13.5 -32 t32.5 -13t32 13zM488 -45h-265q-40 0 -52 38q-38 12 -38 52q0 23 16 39.5t39 16.5h42q14 0 24.5 10.5t10.5 24.5v428h-42q-39 0 -52 38q-17 5 -27.5 20t-10.5 33q0 23 16 39t39 16h265q40 0 52 -38q38 -12 38 -52q0 -23 -16 -39.5t-39 -16.5h-42q-14 0 -24.5 -10.5 t-10.5 -24.5v-428h42q40 0 52 -38q17 -5 27.5 -20t10.5 -33q0 -23 -16 -39t-39 -16zM188 0h265q19 0 32 13t13 32t-13 32.5t-32 13.5h-42q-19 0 -32 13t-13 32v428q0 19 13 32t32 13h42q19 0 32 13.5t13 32.5t-13 32t-32 13h-265q-19 0 -32 -13t-13 -32t13 -32.5t32 -13.5 h42q19 0 32 -13t13 -32v-428q0 -19 -13 -32t-32 -13h-42q-19 0 -32 -13.5t-13 -32.5t13 -32t32 -13z" glyph-name="iacute" unicode="í"/><glyph d="M451 881l32 -31q14 -14 14 -36t-13.5 -35.5t-35.5 -13.5q-18 0 -32 11q-12 9 -23 22l-2 2l-5 6q-4 4 -6 5l-2 2l-5 4l-2 2q-8 5 -16 5t-19 -8l-21 -21l-6 -6q0 -1 -2 -3t-3 -2l-6 -6q-16 -13 -36 -13q-18 0 -31 10t-17 27q-16 4 -26.5 17t-10.5 30q0 24 15 36l93 92 q15 15 35 15t35 -15l93 -92q0 -1 1 -2zM255 821l37 36q10 12 28 12q16 0 28 -12l36 -36q11 -11 29 -11q17 0 28 11t11 28q0 18 -11 29l-93 92q-12 12 -28 12q-18 0 -28 -12l-93 -92q-12 -12 -12 -29t11.5 -28t28.5 -11q18 0 28 11zM488 -45h-265q-40 0 -52 38q-38 12 -38 52 q0 23 16 39.5t39 16.5h42q14 0 24.5 10.5t10.5 24.5v428h-42q-39 0 -52 38q-17 5 -27.5 20t-10.5 33q0 23 16 39t39 16h265q40 0 52 -38q38 -12 38 -52q0 -23 -16 -39.5t-39 -16.5h-42q-14 0 -24.5 -10.5t-10.5 -24.5v-428h42q40 0 52 -38q17 -5 27.5 -20t10.5 -33 q0 -23 -16 -39t-39 -16zM188 0h265q19 0 32 13t13 32t-13 32.5t-32 13.5h-42q-19 0 -32 13t-13 32v428q0 19 13 32t32 13h42q19 0 32 13.5t13 32.5t-13 32t-32 13h-265q-19 0 -32 -13t-13 -32t13 -32.5t32 -13.5h42q19 0 32 -13t13 -32v-428q0 -19 -13 -32t-32 -13h-42 q-19 0 -32 -13.5t-13 -32.5t13 -32t32 -13z" glyph-name="icircumflex" unicode="î"/><glyph d="M278 775h-20q-40 0 -52 38q-38 12 -38 52v20q0 23 16 39t39 16h20q40 0 52 -38q38 -12 38 -52v-20q0 -23 -16 -39t-39 -16zM453 775h-20q-40 0 -52 38q-38 12 -38 52v20q0 23 16 39t39 16h20q40 0 52 -38q38 -12 38 -52v-20q0 -23 -16 -39t-39 -16zM398 820h20 q19 0 32 13t13 32v20q0 19 -13 32t-32 13h-20q-19 0 -32 -13t-13 -32v-20q0 -19 13 -32t32 -13zM223 820h20q19 0 32 13t13 32v20q0 19 -13 32t-32 13h-20q-19 0 -32 -13t-13 -32v-20q0 -19 13 -32t32 -13zM488 -45h-265q-40 0 -52 38q-38 12 -38 52q0 23 16 39.5t39 16.5 h42q14 0 24.5 10.5t10.5 24.5v428h-42q-39 0 -52 38q-17 5 -27.5 20t-10.5 33q0 23 16 39t39 16h265q40 0 52 -38q38 -12 38 -52q0 -23 -16 -39.5t-39 -16.5h-42q-14 0 -24.5 -10.5t-10.5 -24.5v-428h42q40 0 52 -38q17 -5 27.5 -20t10.5 -33q0 -23 -16 -39t-39 -16zM188 0 h265q19 0 32 13t13 32t-13 32.5t-32 13.5h-42q-19 0 -32 13t-13 32v428q0 19 13 32t32 13h42q19 0 32 13.5t13 32.5t-13 32t-32 13h-265q-19 0 -32 -13t-13 -32t13 -32.5t32 -13.5h42q19 0 32 -13t13 -32v-428q0 -19 -13 -32t-32 -13h-42q-19 0 -32 -13.5t-13 -32.5t13 -32 t32 -13z" glyph-name="idieresis" unicode="ï"/><glyph d="M88 45v219q-27 13 -33 35q-37 12 -37 52q0 55 65 55q5 0 5 5v244q0 23 16 39t39 16h250q23 0 39 -16l139 -140q17 -17 17 -39v-400q0 -22 -17 -39l-104 -105q-15 -16 -39 -16h-250q-40 0 -52 38q-38 12 -38 52zM98 655v-244q0 -15 -15 -15h-10q-19 0 -32 -13t-13 -32 q0 -20 13 -33t32 -13h10q15 0 15 -15v-245q0 -19 13 -32t32 -13h250q19 0 32 13l104 105q14 12 14 32v400q0 20 -14 32l-104 105q-13 13 -32 13h-250q-19 0 -32 -13t-13 -32zM189 136v154q0 15 15 15h139q19 0 32 13t13 33q0 19 -13 32t-32 13h-139q-15 0 -15 15v153 q0 19 13 32t32 13h125q15 0 25 -10l58 -58q10 -10 10 -25v-332q0 -15 -10 -25l-58 -58q-10 -10 -25 -10h-125q-19 0 -32 13t-13 32zM435 534l-23 23q-7 7 -18 7h-125q-14 0 -24.5 -10.5t-10.5 -24.5v-123h109q40 0 52 -38q38 -12 38 -52q0 -24 -15.5 -40t-39.5 -16h-139 q-5 0 -5 -5v-154h125q11 0 18 7l58 58q7 7 7 18v332q0 11 -7 18z" glyph-name="eth" unicode="ð"/><glyph d="M360 778l-79 79v-20q0 -20 -14 -34t-34 -14q-17 0 -29 10t-16 26q-37 8 -37 47v50q0 17 13 30l40 40q13 13 30 13h50q18 0 31 -13l79 -79v20q0 20 14.5 33.5t33.5 13.5q17 0 29.5 -10.5t16.5 -26.5q15 -3 25.5 -15.5t10.5 -29.5v-50q0 -19 -12 -31l-41 -40 q-14 -12 -30 -12h-50q-19 0 -31 13zM236 904l15 16h16l16 -16v-21q0 -14 9 -23l40 -40q10 -10 24 -10h50q16 0 23 10l41 40q9 9 9 23v50q0 15 -11 26t-26 11q-16 0 -27 -11t-11 -26v-33l-15 -15h-16l-16 15v22q0 12 -9 23l-40 40q-10 10 -24 10h-50q-13 0 -23 -10l-40 -40 q-10 -10 -10 -23v-50q0 -16 11 -27t26 -11q16 0 27 11t11 27v32zM550 672q38 -12 38 -52v-610q0 -23 -16 -39t-39 -16q-32 0 -48 28l-7 10q-17 7 -29 25l-215 370v-378q0 -23 -16.5 -39t-39.5 -16q-40 0 -52 38q-38 12 -38 52v610q0 23 16 39t39 16q31 0 49 -28l6 -11 q17 -6 29 -24l215 -370v378q0 23 16.5 39t39.5 16q40 0 52 -38zM445 227l-262 450q-14 23 -40 23q-19 0 -32 -13t-13 -32v-610q0 -19 13 -32t32 -13t32.5 13t13.5 32v427q0 7 2 7q3 0 5 -5l262 -451q14 -23 40 -23q19 0 32 13t13 32v610q0 19 -13 32t-32 13t-32.5 -13 t-13.5 -32v-426q0 -7 -2 -7t-5 5z" glyph-name="ntilde" unicode="ñ"/><glyph d="M319 976l31 -32l2 -1q2 -1 2 -2l81 -82q17 -17 17 -39q0 -23 -16.5 -39t-39.5 -16t-39 16l-117 117q-16 15 -16 39q0 23 16 39t39 16q24 0 40 -16zM247 905l82 -82q13 -13 32 -13t32.5 13t13.5 32q0 18 -14 32l-81 82q-13 13 -33 13q-19 0 -32 -13t-13 -32t13 -32z M588 536v-442q0 -24 -16 -39l-84 -83q-17 -17 -40 -17h-186q-22 0 -39 17l-84 83q-1 1 -3 4l-32 31q-16 16 -16 39v442q0 23 16 39l84 83q17 17 39 17h186q23 0 40 -17l119 -118q16 -16 16 -39zM530 603l-84 83q-12 14 -33 14h-186q-20 0 -32 -14l-84 -83q-13 -13 -13 -32 v-442q0 -19 13 -32l84 -83q12 -14 32 -14h186q21 0 33 14l84 83q13 13 13 32v442q0 19 -13 32zM442 138l-37 -37q-10 -10 -25 -10h-119q-15 0 -25 10l-37 37q-10 10 -10 25v374q0 15 10 25l37 37q10 10 25 10h119q15 0 25 -10l37 -37q10 -10 10 -25v-374q0 -15 -10 -25z M435 555l-2 2q-7 7 -18 7h-119q-10 0 -18 -7l-37 -37q-7 -8 -7 -18v-374q0 -11 7 -18l2 -2q7 -7 18 -7h119q11 0 18 7l37 37q7 7 7 18v374q0 11 -7 18z" glyph-name="ograve" unicode="ò"/><glyph d="M414 954q38 -13 38 -52q0 -24 -17 -39l-81 -82q-15 -16 -39 -16q-18 0 -33 10.5t-20 27.5q-38 12 -38 52q0 22 17 39l81 82q16 16 39 16q18 0 33 -10.5t20 -27.5zM312 823l81 82q14 12 14 32q0 19 -13.5 32t-32.5 13t-32 -13l-81 -82q-14 -14 -14 -32q0 -19 13.5 -32 t32.5 -13t32 13zM588 536v-442q0 -24 -16 -39l-84 -83q-17 -17 -40 -17h-186q-22 0 -39 17l-84 83q-1 1 -3 4l-32 31q-16 16 -16 39v442q0 23 16 39l84 83q17 17 39 17h186q23 0 40 -17l119 -118q16 -16 16 -39zM530 603l-84 83q-12 14 -33 14h-186q-20 0 -32 -14l-84 -83 q-13 -13 -13 -32v-442q0 -19 13 -32l84 -83q12 -14 32 -14h186q21 0 33 14l84 83q13 13 13 32v442q0 19 -13 32zM442 138l-37 -37q-10 -10 -25 -10h-119q-15 0 -25 10l-37 37q-10 10 -10 25v374q0 15 10 25l37 37q10 10 25 10h119q15 0 25 -10l37 -37q10 -10 10 -25v-374 q0 -15 -10 -25zM435 555l-2 2q-7 7 -18 7h-119q-10 0 -18 -7l-37 -37q-7 -8 -7 -18v-374q0 -11 7 -18l2 -2q7 -7 18 -7h119q11 0 18 7l37 37q7 7 7 18v374q0 11 -7 18z" glyph-name="oacute" unicode="ó"/><glyph d="M451 881l32 -31q14 -14 14 -36t-13.5 -35.5t-35.5 -13.5q-18 0 -32 11q-12 9 -23 22l-2 2l-5 6q-4 4 -6 5l-2 2l-5 4l-2 2q-8 5 -16 5t-19 -8l-21 -21l-6 -6q0 -1 -2 -3t-3 -2l-6 -6q-16 -13 -36 -13q-18 0 -31 10t-17 27q-16 4 -26.5 17t-10.5 30q0 24 15 36l93 92 q15 15 35 15t35 -15l93 -92q0 -1 1 -2zM255 821l37 36q10 12 28 12q16 0 28 -12l36 -36q11 -11 29 -11q17 0 28 11t11 28q0 18 -11 29l-93 92q-12 12 -28 12q-18 0 -28 -12l-93 -92q-12 -12 -12 -29t11.5 -28t28.5 -11q18 0 28 11zM588 536v-442q0 -24 -16 -39l-84 -83 q-17 -17 -40 -17h-186q-22 0 -39 17l-84 83q-1 1 -3 4l-32 31q-16 16 -16 39v442q0 23 16 39l84 83q17 17 39 17h186q23 0 40 -17l119 -118q16 -16 16 -39zM530 603l-84 83q-12 14 -33 14h-186q-20 0 -32 -14l-84 -83q-13 -13 -13 -32v-442q0 -19 13 -32l84 -83 q12 -14 32 -14h186q21 0 33 14l84 83q13 13 13 32v442q0 19 -13 32zM442 138l-37 -37q-10 -10 -25 -10h-119q-15 0 -25 10l-37 37q-10 10 -10 25v374q0 15 10 25l37 37q10 10 25 10h119q15 0 25 -10l37 -37q10 -10 10 -25v-374q0 -15 -10 -25zM435 555l-2 2q-7 7 -18 7h-119 q-10 0 -18 -7l-37 -37q-7 -8 -7 -18v-374q0 -11 7 -18l2 -2q7 -7 18 -7h119q11 0 18 7l37 37q7 7 7 18v374q0 11 -7 18z" glyph-name="ocircumflex" unicode="ô"/><glyph d="M360 778l-79 79v-20q0 -20 -14 -34t-34 -14q-17 0 -29 10t-16 26q-37 8 -37 47v50q0 17 13 30l40 40q13 13 30 13h50q18 0 31 -13l79 -79v20q0 20 14.5 33.5t33.5 13.5q17 0 29.5 -10.5t16.5 -26.5q15 -3 25.5 -15.5t10.5 -29.5v-50q0 -19 -12 -31l-41 -40 q-14 -12 -30 -12h-50q-19 0 -31 13zM236 904l15 16h16l16 -16v-21q0 -14 9 -23l40 -40q10 -10 24 -10h50q16 0 23 10l41 40q9 9 9 23v50q0 15 -11 26t-26 11q-16 0 -27 -11t-11 -26v-33l-15 -15h-16l-16 15v22q0 12 -9 23l-40 40q-10 10 -24 10h-50q-13 0 -23 -10l-40 -40 q-10 -10 -10 -23v-50q0 -16 11 -27t26 -11q16 0 27 11t11 27v32zM588 536v-442q0 -24 -16 -39l-84 -83q-17 -17 -40 -17h-186q-22 0 -39 17l-84 83q-1 1 -3 4l-32 31q-16 16 -16 39v442q0 23 16 39l84 83q17 17 39 17h186q23 0 40 -17l119 -118q16 -16 16 -39zM530 603 l-84 83q-12 14 -33 14h-186q-20 0 -32 -14l-84 -83q-13 -13 -13 -32v-442q0 -19 13 -32l84 -83q12 -14 32 -14h186q21 0 33 14l84 83q13 13 13 32v442q0 19 -13 32zM442 138l-37 -37q-10 -10 -25 -10h-119q-15 0 -25 10l-37 37q-10 10 -10 25v374q0 15 10 25l37 37 q10 10 25 10h119q15 0 25 -10l37 -37q10 -10 10 -25v-374q0 -15 -10 -25zM435 555l-2 2q-7 7 -18 7h-119q-10 0 -18 -7l-37 -37q-7 -8 -7 -18v-374q0 -11 7 -18l2 -2q7 -7 18 -7h119q11 0 18 7l37 37q7 7 7 18v374q0 11 -7 18z" glyph-name="otilde" unicode="õ"/><glyph d="M278 775h-20q-40 0 -52 38q-38 12 -38 52v20q0 23 16 39t39 16h20q40 0 52 -38q38 -12 38 -52v-20q0 -23 -16 -39t-39 -16zM453 775h-20q-40 0 -52 38q-38 12 -38 52v20q0 23 16 39t39 16h20q40 0 52 -38q38 -12 38 -52v-20q0 -23 -16 -39t-39 -16zM398 820h20 q19 0 32 13t13 32v20q0 19 -13 32t-32 13h-20q-19 0 -32 -13t-13 -32v-20q0 -19 13 -32t32 -13zM223 820h20q19 0 32 13t13 32v20q0 19 -13 32t-32 13h-20q-19 0 -32 -13t-13 -32v-20q0 -19 13 -32t32 -13zM588 536v-442q0 -24 -16 -39l-84 -83q-17 -17 -40 -17h-186 q-22 0 -39 17l-84 83q-1 1 -3 4l-32 31q-16 16 -16 39v442q0 23 16 39l84 83q17 17 39 17h186q23 0 40 -17l119 -118q16 -16 16 -39zM530 603l-84 83q-12 14 -33 14h-186q-20 0 -32 -14l-84 -83q-13 -13 -13 -32v-442q0 -19 13 -32l84 -83q12 -14 32 -14h186q21 0 33 14 l84 83q13 13 13 32v442q0 19 -13 32zM442 138l-37 -37q-10 -10 -25 -10h-119q-15 0 -25 10l-37 37q-10 10 -10 25v374q0 15 10 25l37 37q10 10 25 10h119q15 0 25 -10l37 -37q10 -10 10 -25v-374q0 -15 -10 -25zM435 555l-2 2q-7 7 -18 7h-119q-10 0 -18 -7l-37 -37 q-7 -8 -7 -18v-374q0 -11 7 -18l2 -2q7 -7 18 -7h119q11 0 18 7l37 37q7 7 7 18v374q0 11 -7 18z" glyph-name="odieresis" unicode="ö"/><glyph d="M375 410h-40q-40 0 -52 38q-38 12 -38 52v40q0 23 16 39t39 16h40q40 0 52 -38q38 -12 38 -52v-40q0 -23 -16 -39t-39 -16zM300 455h40q19 0 32 13t13 32v40q0 19 -13 32t-32 13h-40q-19 0 -32 -13t-13 -32v-40q0 -19 13 -32t32 -13zM530 368q38 -12 38 -52 q0 -24 -15.5 -40t-39.5 -16h-315q-40 0 -52 38q-38 12 -38 53q0 23 16 39t39 16h315q40 0 52 -38zM478 396h-315q-19 0 -32 -13t-13 -32q0 -20 13 -33t32 -13h315q19 0 32 13t13 33q0 19 -13 32t-32 13zM375 70h-40q-40 0 -52 38q-38 12 -38 52v40q0 23 16 39t39 16h40 q40 0 52 -38q38 -12 38 -52v-40q0 -23 -16 -39t-39 -16zM300 115h40q19 0 32 13t13 32v40q0 19 -13 32t-32 13h-40q-19 0 -32 -13t-13 -32v-40q0 -19 13 -32t32 -13z" glyph-name="divide" unicode="÷"/><glyph d="M655 560q0 -28 -37 -61l-3 -3l-6 -5l-3 -3q-3 -4 -9 -10q-9 -10 -9 -20v-363q0 -25 -17 -40l-84 -83q-17 -17 -39 -17h-186q-22 0 -39 17l-63 62q-2 2 -4 2q0 -1 -1 -2q-2 -1 -5 -4q-2 -2 -4 -3q-12 -12 -36 -12q-40 0 -52 38q-38 12 -38 52q0 13 7.5 26.5t11.5 17.5 t18 17l3 3l6 5l3 3l10 10q8 11 8 20v364q0 22 17 39l84 83q17 17 39 17h186q22 0 39 -17l63 -62q2 -2 4 -2q1 0 2 1q6 6 8 7q15 13 36 13q40 0 52 -38q38 -12 38 -52zM532 627l-3 -3q-5 -5 -10 -5q-6 0 -11 5l-63 62q-12 14 -32 14h-186q-20 0 -32 -14l-84 -83 q-14 -14 -14 -32v-364q0 -15 -11 -26l-43 -43q-13 -13 -13 -33q0 -19 13 -32t32 -13q20 0 33 13l3 3q5 5 10 5q6 0 11 -5l63 -62q12 -14 32 -14h186q20 0 32 14l84 83q14 14 14 33v363q0 15 11 26l43 44q13 12 13 32q0 19 -13 32t-32 13q-20 0 -33 -13zM199 563l36 35 q11 11 26 11h118q15 0 26 -11l40 -39q3 -3 3 -8q0 -9 -7 -16l-242 -241q-4 -4 -7 -4q-4 0 -4 8v239q0 15 11 26zM438 551l-5 4q-9 9 -19 9h-118q-10 0 -19 -9l-36 -35q-8 -8 -8 -18v-160l201 200q4 4 4 9zM441 137l-36 -35q-11 -11 -26 -11h-118q-15 0 -26 11l-40 39 q-3 3 -3 8q0 9 7 16l242 241q4 4 7 4q4 0 4 -8v-239q0 -15 -11 -26zM442 163v159l-201 -199q-4 -5 -4 -9l5 -5q8 -8 19 -8h118q11 0 19 8l36 35q8 8 8 19z" glyph-name="oslash" unicode="ø"/><glyph d="M319 976l31 -32l2 -1q2 -1 2 -2l81 -82q17 -17 17 -39q0 -23 -16.5 -39t-39.5 -16t-39 16l-117 117q-16 15 -16 39q0 23 16 39t39 16q24 0 40 -16zM247 905l82 -82q13 -13 32 -13t32.5 13t13.5 32q0 18 -14 32l-81 82q-13 13 -33 13q-19 0 -32 -13t-13 -32t13 -32z M550 672q38 -12 38 -52v-526q0 -24 -16 -39l-84 -83q-17 -17 -40 -17h-186q-22 0 -39 17l-84 83q-1 1 -3 4l-32 31q-16 16 -16 39v526q0 23 16 39t39 16q18 0 33 -10.5t20 -27.5q38 -13 38 -52v-492q0 -11 7 -18l2 -2q7 -7 18 -7h119q11 0 18 7l37 37q7 7 7 18v492 q0 23 16.5 39t39.5 16q40 0 52 -38zM189 163v492q0 19 -13.5 32t-32.5 13t-32 -13t-13 -32v-526q0 -19 13 -32l84 -83q12 -14 32 -14h186q21 0 33 14l84 83q13 13 13 32v526q0 19 -13 32t-32 13t-32.5 -13t-13.5 -32v-492q0 -15 -10 -25l-37 -37q-10 -10 -25 -10h-119 q-15 0 -25 10l-37 37q-10 10 -10 25z" glyph-name="ugrave" unicode="ù"/><glyph d="M414 954q38 -13 38 -52q0 -24 -17 -39l-81 -82q-15 -16 -39 -16q-18 0 -33 10.5t-20 27.5q-38 12 -38 52q0 22 17 39l81 82q16 16 39 16q18 0 33 -10.5t20 -27.5zM312 823l81 82q14 12 14 32q0 19 -13.5 32t-32.5 13t-32 -13l-81 -82q-14 -14 -14 -32q0 -19 13.5 -32 t32.5 -13t32 13zM550 672q38 -12 38 -52v-526q0 -24 -16 -39l-84 -83q-17 -17 -40 -17h-186q-22 0 -39 17l-84 83q-1 1 -3 4l-32 31q-16 16 -16 39v526q0 23 16 39t39 16q18 0 33 -10.5t20 -27.5q38 -13 38 -52v-492q0 -11 7 -18l2 -2q7 -7 18 -7h119q11 0 18 7l37 37 q7 7 7 18v492q0 23 16.5 39t39.5 16q40 0 52 -38zM189 163v492q0 19 -13.5 32t-32.5 13t-32 -13t-13 -32v-526q0 -19 13 -32l84 -83q12 -14 32 -14h186q21 0 33 14l84 83q13 13 13 32v526q0 19 -13 32t-32 13t-32.5 -13t-13.5 -32v-492q0 -15 -10 -25l-37 -37 q-10 -10 -25 -10h-119q-15 0 -25 10l-37 37q-10 10 -10 25z" glyph-name="uacute" unicode="ú"/><glyph d="M451 881l32 -31q14 -14 14 -36t-13.5 -35.5t-35.5 -13.5q-18 0 -32 11q-12 9 -23 22l-2 2l-5 6q-4 4 -6 5l-2 2l-5 4l-2 2q-8 5 -16 5t-19 -8l-21 -21l-6 -6q0 -1 -2 -3t-3 -2l-6 -6q-16 -13 -36 -13q-18 0 -31 10t-17 27q-16 4 -26.5 17t-10.5 30q0 24 15 36l93 92 q15 15 35 15t35 -15l93 -92q0 -1 1 -2zM255 821l37 36q10 12 28 12q16 0 28 -12l36 -36q11 -11 29 -11q17 0 28 11t11 28q0 18 -11 29l-93 92q-12 12 -28 12q-18 0 -28 -12l-93 -92q-12 -12 -12 -29t11.5 -28t28.5 -11q18 0 28 11zM550 672q38 -12 38 -52v-526 q0 -24 -16 -39l-84 -83q-17 -17 -40 -17h-186q-22 0 -39 17l-84 83q-1 1 -3 4l-32 31q-16 16 -16 39v526q0 23 16 39t39 16q18 0 33 -10.5t20 -27.5q38 -13 38 -52v-492q0 -11 7 -18l2 -2q7 -7 18 -7h119q11 0 18 7l37 37q7 7 7 18v492q0 23 16.5 39t39.5 16q40 0 52 -38z M189 163v492q0 19 -13.5 32t-32.5 13t-32 -13t-13 -32v-526q0 -19 13 -32l84 -83q12 -14 32 -14h186q21 0 33 14l84 83q13 13 13 32v526q0 19 -13 32t-32 13t-32.5 -13t-13.5 -32v-492q0 -15 -10 -25l-37 -37q-10 -10 -25 -10h-119q-15 0 -25 10l-37 37q-10 10 -10 25z" glyph-name="ucircumflex" unicode="û"/><glyph d="M278 775h-20q-40 0 -52 38q-38 12 -38 52v20q0 23 16 39t39 16h20q40 0 52 -38q38 -12 38 -52v-20q0 -23 -16 -39t-39 -16zM453 775h-20q-40 0 -52 38q-38 12 -38 52v20q0 23 16 39t39 16h20q40 0 52 -38q38 -12 38 -52v-20q0 -23 -16 -39t-39 -16zM398 820h20 q19 0 32 13t13 32v20q0 19 -13 32t-32 13h-20q-19 0 -32 -13t-13 -32v-20q0 -19 13 -32t32 -13zM223 820h20q19 0 32 13t13 32v20q0 19 -13 32t-32 13h-20q-19 0 -32 -13t-13 -32v-20q0 -19 13 -32t32 -13zM550 672q38 -12 38 -52v-526q0 -24 -16 -39l-84 -83 q-17 -17 -40 -17h-186q-22 0 -39 17l-84 83q-1 1 -3 4l-32 31q-16 16 -16 39v526q0 23 16 39t39 16q18 0 33 -10.5t20 -27.5q38 -13 38 -52v-492q0 -11 7 -18l2 -2q7 -7 18 -7h119q11 0 18 7l37 37q7 7 7 18v492q0 23 16.5 39t39.5 16q40 0 52 -38zM189 163v492 q0 19 -13.5 32t-32.5 13t-32 -13t-13 -32v-526q0 -19 13 -32l84 -83q12 -14 32 -14h186q21 0 33 14l84 83q13 13 13 32v526q0 19 -13 32t-32 13t-32.5 -13t-13.5 -32v-492q0 -15 -10 -25l-37 -37q-10 -10 -25 -10h-119q-15 0 -25 10l-37 37q-10 10 -10 25z" glyph-name="udieresis" unicode="ü"/><glyph d="M414 954q38 -13 38 -52q0 -24 -17 -39l-81 -82q-15 -16 -39 -16q-18 0 -33 10.5t-20 27.5q-38 12 -38 52q0 22 17 39l81 82q16 16 39 16q18 0 33 -10.5t20 -27.5zM312 823l81 82q14 12 14 32q0 19 -13.5 32t-32.5 13t-32 -13l-81 -82q-14 -14 -14 -32q0 -19 13.5 -32 t32.5 -13t32 13zM196 672q38 -13 38 -52v-135q0 -11 7 -18l57 -58q10 -7 22 -7q15 0 26 10l89 90q7 7 7 18v135q0 23 16.5 39t39.5 16q40 0 52 -38q38 -12 38 -52v-169q0 -25 -17 -40l-153 -153q-7 -8 -7 -18v-230q0 -24 -16 -39.5t-40 -15.5q-40 0 -52 38q-38 12 -38 52 v230q0 11 -7 18l-153 153q-17 17 -17 40v169q0 23 16 39t39 16q18 0 33 -10.5t20 -27.5zM112 453l153 -153q10 -10 10 -25v-230q0 -19 13 -32t32 -13q20 0 33 13t13 32v230q0 15 10 25l153 153q14 14 14 33v169q0 19 -13 32t-32 13t-32.5 -13t-13.5 -32v-135q0 -15 -10 -25 l-89 -90q-13 -13 -33 -13q-19 0 -32 13l-89 90q-10 10 -10 25v135q0 19 -13.5 32t-32.5 13t-32 -13t-13 -32v-169q0 -19 14 -33z" glyph-name="yacute" unicode="ý"/><glyph d="M196 746q38 -12 38 -52v-84h159q23 0 39 -16l139 -140q17 -17 17 -39v-200q0 -22 -17 -39l-104 -105q-15 -16 -39 -16h-159q-14 0 -24.5 -10.5t-10.5 -24.5v-84q0 -24 -16 -39.5t-40 -15.5q-40 0 -52 38q-38 12 -38 52v758q0 23 16 39t39 16q41 0 53 -38zM98 729v-758 q0 -19 13 -32t32 -13q20 0 33 13t13 32v84q0 19 13 32t32 13h159q19 0 32 13l104 105q14 12 14 32v200q0 20 -14 32l-104 105q-13 13 -32 13h-159q-19 0 -32 13t-13 32v84q0 19 -13 32t-33 13q-19 0 -32 -13t-13 -32zM452 416v-132q0 -15 -10 -25l-58 -58q-10 -10 -25 -10 h-125q-19 0 -32 13t-13 32v228q0 19 13 32t32 13h125q15 0 25 -10l58 -58q10 -10 10 -25zM435 434l-23 23q-7 7 -18 7h-125q-14 0 -24.5 -10.5t-10.5 -24.5v-228h125q11 0 18 7l58 58q7 7 7 18v132q0 11 -7 18z" glyph-name="thorn" unicode="þ"/><glyph d="M278 775h-20q-40 0 -52 38q-38 12 -38 52v20q0 23 16 39t39 16h20q40 0 52 -38q38 -12 38 -52v-20q0 -23 -16 -39t-39 -16zM453 775h-20q-40 0 -52 38q-38 12 -38 52v20q0 23 16 39t39 16h20q40 0 52 -38q38 -12 38 -52v-20q0 -23 -16 -39t-39 -16zM398 820h20 q19 0 32 13t13 32v20q0 19 -13 32t-32 13h-20q-19 0 -32 -13t-13 -32v-20q0 -19 13 -32t32 -13zM223 820h20q19 0 32 13t13 32v20q0 19 -13 32t-32 13h-20q-19 0 -32 -13t-13 -32v-20q0 -19 13 -32t32 -13zM196 672q38 -13 38 -52v-135q0 -11 7 -18l57 -58q10 -7 22 -7 q15 0 26 10l89 90q7 7 7 18v135q0 23 16.5 39t39.5 16q40 0 52 -38q38 -12 38 -52v-169q0 -25 -17 -40l-153 -153q-7 -8 -7 -18v-230q0 -24 -16 -39.5t-40 -15.5q-40 0 -52 38q-38 12 -38 52v230q0 11 -7 18l-153 153q-17 17 -17 40v169q0 23 16 39t39 16q18 0 33 -10.5 t20 -27.5zM112 453l153 -153q10 -10 10 -25v-230q0 -19 13 -32t32 -13q20 0 33 13t13 32v230q0 15 10 25l153 153q14 14 14 33v169q0 19 -13 32t-32 13t-32.5 -13t-13.5 -32v-135q0 -15 -10 -25l-89 -90q-13 -13 -33 -13q-19 0 -32 13l-89 90q-10 10 -10 25v135 q0 19 -13.5 32t-32.5 13t-32 -13t-13 -32v-169q0 -19 14 -33z" glyph-name="ydieresis" unicode="ÿ"/><glyph d="M450 775h-189q-40 0 -52 38q-38 12 -38 52q0 23 16 39.5t39 16.5h189q40 0 52 -38q17 -5 27.5 -20t10.5 -33q0 -23 -16 -39t-39 -16zM226 820h189q19 0 32 13t13 32t-13 32.5t-32 13.5h-189q-19 0 -32 -13.5t-13 -32.5t13 -32t32 -13zM588 515v-505q0 -23 -16 -39 t-39 -16q-18 0 -33 10.5t-20 27.5q-38 12 -38 52v192h-173q-14 0 -24.5 -10.5t-10.5 -24.5v-192q0 -23 -16.5 -39t-39.5 -16q-40 0 -52 38q-38 12 -38 52v505q0 23 16 39l105 104q17 17 39 17h145q23 0 39 -16l139 -140q17 -17 17 -39zM543 45v505q0 20 -14 32l-104 105 q-13 13 -32 13h-145q-20 0 -32 -14l-105 -104q-13 -13 -13 -32v-505q0 -19 13 -32t32 -13t32.5 13t13.5 32v192q0 19 13 32t32 13h173q19 0 32 -13t13 -32v-192q0 -19 13.5 -32t32.5 -13t32 13t13 32zM452 516v-98q0 -19 -13 -32t-32 -13h-173q-19 0 -32 13t-13 32v98 q0 15 10 25l58 58q10 10 25 10h77q15 0 25 -10l58 -58q10 -10 10 -25zM435 534l-23 23q-7 7 -18 7h-77q-10 0 -18 -7l-58 -58q-7 -8 -7 -18v-98h173q14 0 24.5 10.5t10.5 24.5v98q0 11 -7 18z" glyph-name="Amacron" unicode="Ā"/><glyph d="M450 775h-189q-40 0 -52 38q-38 12 -38 52q0 23 16 39.5t39 16.5h189q40 0 52 -38q17 -5 27.5 -20t10.5 -33q0 -23 -16 -39t-39 -16zM226 820h189q19 0 32 13t13 32t-13 32.5t-32 13.5h-189q-19 0 -32 -13.5t-13 -32.5t13 -32t32 -13zM588 515v-505q0 -23 -16 -39 t-39 -16q-18 0 -33 10.5t-20 27.5q-38 12 -38 52v192h-173q-14 0 -24.5 -10.5t-10.5 -24.5v-192q0 -23 -16.5 -39t-39.5 -16q-40 0 -52 38q-38 12 -38 52v505q0 23 16 39l105 104q17 17 39 17h145q23 0 39 -16l139 -140q17 -17 17 -39zM543 45v505q0 20 -14 32l-104 105 q-13 13 -32 13h-145q-20 0 -32 -14l-105 -104q-13 -13 -13 -32v-505q0 -19 13 -32t32 -13t32.5 13t13.5 32v192q0 19 13 32t32 13h173q19 0 32 -13t13 -32v-192q0 -19 13.5 -32t32.5 -13t32 13t13 32zM452 516v-98q0 -19 -13 -32t-32 -13h-173q-19 0 -32 13t-13 32v98 q0 15 10 25l58 58q10 10 25 10h77q15 0 25 -10l58 -58q10 -10 10 -25zM435 534l-23 23q-7 7 -18 7h-77q-10 0 -18 -7l-58 -58q-7 -8 -7 -18v-98h173q14 0 24.5 10.5t10.5 24.5v98q0 11 -7 18z" glyph-name="amacron" unicode="ā"/><glyph d="M456 955q16 -3 26 -15.5t10 -29.5v-42q0 -20 -12 -30l-60 -61q-11 -12 -31 -12h-69q-19 0 -31 12l-95 96q-12 12 -12 30v42q0 20 13.5 33.5t33.5 13.5q36 0 45 -36q38 -6 38 -61q2 -1 10 -1q11 0 18 7l16 16q7 7 7 28q0 20 13.5 33.5t33.5 13.5q17 0 29.5 -10.5 t16.5 -26.5zM266 935v10q0 15 -10.5 26t-26.5 11t-26.5 -11t-10.5 -26v-42q0 -14 9 -23l60 -61q9 -9 24 -9h69q15 0 24 9l60 61q9 9 9 23v42q0 15 -10.5 26t-26.5 11t-26.5 -11t-10.5 -26v-10q0 -15 -10 -25l-16 -16q-10 -10 -25 -10h-5q-15 0 -25 10l-16 16q-10 10 -10 25z M588 515v-505q0 -23 -16 -39t-39 -16q-18 0 -33 10.5t-20 27.5q-38 12 -38 52v192h-173q-14 0 -24.5 -10.5t-10.5 -24.5v-192q0 -23 -16.5 -39t-39.5 -16q-40 0 -52 38q-38 12 -38 52v505q0 23 16 39l105 104q17 17 39 17h145q23 0 39 -16l139 -140q17 -17 17 -39zM543 45 v505q0 20 -14 32l-104 105q-13 13 -32 13h-145q-20 0 -32 -14l-105 -104q-13 -13 -13 -32v-505q0 -19 13 -32t32 -13t32.5 13t13.5 32v192q0 19 13 32t32 13h173q19 0 32 -13t13 -32v-192q0 -19 13.5 -32t32.5 -13t32 13t13 32zM452 516v-98q0 -19 -13 -32t-32 -13h-173 q-19 0 -32 13t-13 32v98q0 15 10 25l58 58q10 10 25 10h77q15 0 25 -10l58 -58q10 -10 10 -25zM435 534l-23 23q-7 7 -18 7h-77q-10 0 -18 -7l-58 -58q-7 -8 -7 -18v-98h173q14 0 24.5 10.5t10.5 24.5v98q0 11 -7 18z" glyph-name="Abreve" unicode="Ă"/><glyph d="M456 955q16 -3 26 -15.5t10 -29.5v-42q0 -20 -12 -30l-60 -61q-11 -12 -31 -12h-69q-19 0 -31 12l-95 96q-12 12 -12 30v42q0 20 13.5 33.5t33.5 13.5q36 0 45 -36q38 -6 38 -61q2 -1 10 -1q11 0 18 7l16 16q7 7 7 28q0 20 13.5 33.5t33.5 13.5q17 0 29.5 -10.5 t16.5 -26.5zM266 935v10q0 15 -10.5 26t-26.5 11t-26.5 -11t-10.5 -26v-42q0 -14 9 -23l60 -61q9 -9 24 -9h69q15 0 24 9l60 61q9 9 9 23v42q0 15 -10.5 26t-26.5 11t-26.5 -11t-10.5 -26v-10q0 -15 -10 -25l-16 -16q-10 -10 -25 -10h-5q-15 0 -25 10l-16 16q-10 10 -10 25z M588 515v-505q0 -23 -16 -39t-39 -16q-18 0 -33 10.5t-20 27.5q-38 12 -38 52v192h-173q-14 0 -24.5 -10.5t-10.5 -24.5v-192q0 -23 -16.5 -39t-39.5 -16q-40 0 -52 38q-38 12 -38 52v505q0 23 16 39l105 104q17 17 39 17h145q23 0 39 -16l139 -140q17 -17 17 -39zM543 45 v505q0 20 -14 32l-104 105q-13 13 -32 13h-145q-20 0 -32 -14l-105 -104q-13 -13 -13 -32v-505q0 -19 13 -32t32 -13t32.5 13t13.5 32v192q0 19 13 32t32 13h173q19 0 32 -13t13 -32v-192q0 -19 13.5 -32t32.5 -13t32 13t13 32zM452 516v-98q0 -19 -13 -32t-32 -13h-173 q-19 0 -32 13t-13 32v98q0 15 10 25l58 58q10 10 25 10h77q15 0 25 -10l58 -58q10 -10 10 -25zM435 534l-23 23q-7 7 -18 7h-77q-10 0 -18 -7l-58 -58q-7 -8 -7 -18v-98h173q14 0 24.5 10.5t10.5 24.5v98q0 11 -7 18z" glyph-name="abreve" unicode="ă"/><glyph d="M588 515v-593q0 -19 -14 -36l-14 -14l-15 -12q-15 -12 -26 -25q-10 -13 -10 -22v-1h1q10 0 21 11l2 1l4 4l3 2q3 1 5 3q8 5 20 5q16 0 28.5 -10t14.5 -26q15 -2 25 -14t10 -27q0 -17 -16 -35q-2 -2 -4 -4.5t-5 -5t-4 -3.5q-10 -8 -11 -9q-11 -12 -27 -12h-61 q-15 0 -27 12l-53 52q-1 1 -3 4l-32 31q-11 11 -11 27v61q0 16 11 27l60 59q7 7 8 16v18q-26 17 -26 46v192h-173q-14 0 -24.5 -10.5t-10.5 -24.5v-192q0 -23 -16.5 -39t-39.5 -16q-40 0 -52 38q-38 12 -38 52v505q0 23 16 39l105 104q17 17 39 17h145q23 0 39 -16l139 -140 q17 -17 17 -39zM543 -43v593q0 20 -14 32l-104 105q-13 13 -32 13h-145q-20 0 -32 -14l-105 -104q-13 -13 -13 -32v-505q0 -19 13 -32t32 -13t32.5 13t13.5 32v192q0 19 13 32t32 13h173q19 0 32 -13t13 -32v-192q0 -28 26 -40v-21q0 -15 -11 -26l-60 -59q-8 -11 -8 -20v-61 q0 -12 8 -20l53 -52q7 -9 20 -9h61q13 0 20 9l27 27q10 10 10 23q0 14 -9.5 23t-23.5 9t-23 -9l-6 -6q-11 -11 -26 -11t-26 11l-9 9q-11 11 -11 26t11 26l57 57q11 11 11 26zM452 516v-98q0 -19 -13 -32t-32 -13h-173q-19 0 -32 13t-13 32v98q0 15 10 25l58 58q10 10 25 10 h77q15 0 25 -10l58 -58q10 -10 10 -25zM435 534l-23 23q-7 7 -18 7h-77q-10 0 -18 -7l-58 -58q-7 -8 -7 -18v-98h173q14 0 24.5 10.5t10.5 24.5v98q0 11 -7 18z" glyph-name="Aogonek" unicode="Ą"/><glyph d="M588 515v-593q0 -19 -14 -36l-14 -14l-15 -12q-15 -12 -26 -25q-10 -13 -10 -22v-1h1q10 0 21 11l2 1l4 4l3 2q3 1 5 3q8 5 20 5q16 0 28.5 -10t14.5 -26q15 -2 25 -14t10 -27q0 -17 -16 -35q-2 -2 -4 -4.5t-5 -5t-4 -3.5q-10 -8 -11 -9q-11 -12 -27 -12h-61 q-15 0 -27 12l-53 52q-1 1 -3 4l-32 31q-11 11 -11 27v61q0 16 11 27l60 59q7 7 8 16v18q-26 17 -26 46v192h-173q-14 0 -24.5 -10.5t-10.5 -24.5v-192q0 -23 -16.5 -39t-39.5 -16q-40 0 -52 38q-38 12 -38 52v505q0 23 16 39l105 104q17 17 39 17h145q23 0 39 -16l139 -140 q17 -17 17 -39zM543 -43v593q0 20 -14 32l-104 105q-13 13 -32 13h-145q-20 0 -32 -14l-105 -104q-13 -13 -13 -32v-505q0 -19 13 -32t32 -13t32.5 13t13.5 32v192q0 19 13 32t32 13h173q19 0 32 -13t13 -32v-192q0 -28 26 -40v-21q0 -15 -11 -26l-60 -59q-8 -11 -8 -20v-61 q0 -12 8 -20l53 -52q7 -9 20 -9h61q13 0 20 9l27 27q10 10 10 23q0 14 -9.5 23t-23.5 9t-23 -9l-6 -6q-11 -11 -26 -11t-26 11l-9 9q-11 11 -11 26t11 26l57 57q11 11 11 26zM452 516v-98q0 -19 -13 -32t-32 -13h-173q-19 0 -32 13t-13 32v98q0 15 10 25l58 58q10 10 25 10 h77q15 0 25 -10l58 -58q10 -10 10 -25zM435 534l-23 23q-7 7 -18 7h-77q-10 0 -18 -7l-58 -58q-7 -8 -7 -18v-98h173q14 0 24.5 10.5t10.5 24.5v98q0 11 -7 18z" glyph-name="aogonek" unicode="ą"/><glyph d="M414 954q38 -13 38 -52q0 -24 -17 -39l-81 -82q-15 -16 -39 -16q-18 0 -33 10.5t-20 27.5q-38 12 -38 52q0 22 17 39l81 82q16 16 39 16q18 0 33 -10.5t20 -27.5zM312 823l81 82q14 12 14 32q0 19 -13.5 32t-32.5 13t-32 -13l-81 -82q-14 -14 -14 -32q0 -19 13.5 -32 t32.5 -13t32 13zM234 481v-332q0 -11 7 -18l23 -23q7 -7 18 -7h77q11 0 18 7l58 58q7 7 7 20v8.5v10.5v9q0 23 16.5 39.5t39.5 16.5q40 0 52 -38q17 -5 27.5 -20t10.5 -33v-64q0 -22 -17 -39l-104 -105q-15 -16 -39 -16h-145q-23 0 -40 17l-139 139q-16 15 -16 39v400 q0 24 16 39l104 104q17 17 40 17h145q23 0 39 -16l139 -140q17 -17 17 -39v-64q0 -23 -16 -39.5t-39 -16.5q-40 0 -53 38q-38 13 -38 53v28q0 13 -7 20l-23 23q-7 7 -18 7h-77q-10 0 -18 -7l-58 -58q-7 -8 -7 -18zM189 184v332q0 15 10 25l58 58q10 10 25 10h77q15 0 25 -10 l58 -58q10 -10 10 -25v-30q0 -19 13.5 -32.5t32.5 -13.5t32 13.5t13 32.5v64q0 20 -14 32l-104 105q-13 13 -32 13h-145q-19 0 -33 -14l-104 -104q-13 -13 -13 -32v-400q0 -19 13 -32l104 -104q14 -14 33 -14h145q19 0 32 13l104 105q14 12 14 32v64q0 19 -13 32.5t-32 13.5 t-32.5 -13.5t-13.5 -32.5v-30q0 -15 -10 -25l-58 -58q-10 -10 -25 -10h-77q-15 0 -25 10l-58 58q-10 10 -10 25z" glyph-name="Cacute" unicode="Ć"/><glyph d="M414 954q38 -13 38 -52q0 -24 -17 -39l-81 -82q-15 -16 -39 -16q-18 0 -33 10.5t-20 27.5q-38 12 -38 52q0 22 17 39l81 82q16 16 39 16q18 0 33 -10.5t20 -27.5zM312 823l81 82q14 12 14 32q0 19 -13.5 32t-32.5 13t-32 -13l-81 -82q-14 -14 -14 -32q0 -19 13.5 -32 t32.5 -13t32 13zM234 481v-332q0 -11 7 -18l23 -23q7 -7 18 -7h77q11 0 18 7l58 58q7 7 7 20v8.5v10.5v9q0 23 16.5 39.5t39.5 16.5q40 0 52 -38q17 -5 27.5 -20t10.5 -33v-64q0 -22 -17 -39l-104 -105q-15 -16 -39 -16h-145q-23 0 -40 17l-139 139q-16 15 -16 39v400 q0 24 16 39l104 104q17 17 40 17h145q23 0 39 -16l139 -140q17 -17 17 -39v-64q0 -23 -16 -39.5t-39 -16.5q-40 0 -53 38q-38 13 -38 53v28q0 13 -7 20l-23 23q-7 7 -18 7h-77q-10 0 -18 -7l-58 -58q-7 -8 -7 -18zM189 184v332q0 15 10 25l58 58q10 10 25 10h77q15 0 25 -10 l58 -58q10 -10 10 -25v-30q0 -19 13.5 -32.5t32.5 -13.5t32 13.5t13 32.5v64q0 20 -14 32l-104 105q-13 13 -32 13h-145q-19 0 -33 -14l-104 -104q-13 -13 -13 -32v-400q0 -19 13 -32l104 -104q14 -14 33 -14h145q19 0 32 13l104 105q14 12 14 32v64q0 19 -13 32.5t-32 13.5 t-32.5 -13.5t-13.5 -32.5v-30q0 -15 -10 -25l-58 -58q-10 -10 -25 -10h-77q-15 0 -25 10l-58 58q-10 10 -10 25z" glyph-name="cacute" unicode="ć"/><glyph d="M451 881l32 -31q14 -14 14 -36t-13.5 -35.5t-35.5 -13.5q-18 0 -32 11q-12 9 -23 22l-2 2l-5 6q-4 4 -6 5l-2 2l-5 4l-2 2q-8 5 -16 5t-19 -8l-21 -21l-6 -6q0 -1 -2 -3t-3 -2l-6 -6q-16 -13 -36 -13q-18 0 -31 10t-17 27q-16 4 -26.5 17t-10.5 30q0 24 15 36l93 92 q15 15 35 15t35 -15l93 -92q0 -1 1 -2zM255 821l37 36q10 12 28 12q16 0 28 -12l36 -36q11 -11 29 -11q17 0 28 11t11 28q0 18 -11 29l-93 92q-12 12 -28 12q-18 0 -28 -12l-93 -92q-12 -12 -12 -29t11.5 -28t28.5 -11q18 0 28 11zM234 481v-332q0 -11 7 -18l23 -23 q7 -7 18 -7h77q11 0 18 7l58 58q7 7 7 20v8.5v10.5v9q0 23 16.5 39.5t39.5 16.5q40 0 52 -38q17 -5 27.5 -20t10.5 -33v-64q0 -22 -17 -39l-104 -105q-15 -16 -39 -16h-145q-23 0 -40 17l-139 139q-16 15 -16 39v400q0 24 16 39l104 104q17 17 40 17h145q23 0 39 -16 l139 -140q17 -17 17 -39v-64q0 -23 -16 -39.5t-39 -16.5q-40 0 -53 38q-38 13 -38 53v28q0 13 -7 20l-23 23q-7 7 -18 7h-77q-10 0 -18 -7l-58 -58q-7 -8 -7 -18zM189 184v332q0 15 10 25l58 58q10 10 25 10h77q15 0 25 -10l58 -58q10 -10 10 -25v-30q0 -19 13.5 -32.5 t32.5 -13.5t32 13.5t13 32.5v64q0 20 -14 32l-104 105q-13 13 -32 13h-145q-19 0 -33 -14l-104 -104q-13 -13 -13 -32v-400q0 -19 13 -32l104 -104q14 -14 33 -14h145q19 0 32 13l104 105q14 12 14 32v64q0 19 -13 32.5t-32 13.5t-32.5 -13.5t-13.5 -32.5v-30q0 -15 -10 -25 l-58 -58q-10 -10 -25 -10h-77q-15 0 -25 10l-58 58q-10 10 -10 25z" glyph-name="Ccircumflex" unicode="Ĉ"/><glyph d="M451 881l32 -31q14 -14 14 -36t-13.5 -35.5t-35.5 -13.5q-18 0 -32 11q-12 9 -23 22l-2 2l-5 6q-4 4 -6 5l-2 2l-5 4l-2 2q-8 5 -16 5t-19 -8l-21 -21l-6 -6q0 -1 -2 -3t-3 -2l-6 -6q-16 -13 -36 -13q-18 0 -31 10t-17 27q-16 4 -26.5 17t-10.5 30q0 24 15 36l93 92 q15 15 35 15t35 -15l93 -92q0 -1 1 -2zM255 821l37 36q10 12 28 12q16 0 28 -12l36 -36q11 -11 29 -11q17 0 28 11t11 28q0 18 -11 29l-93 92q-12 12 -28 12q-18 0 -28 -12l-93 -92q-12 -12 -12 -29t11.5 -28t28.5 -11q18 0 28 11zM234 481v-332q0 -11 7 -18l23 -23 q7 -7 18 -7h77q11 0 18 7l58 58q7 7 7 20v8.5v10.5v9q0 23 16.5 39.5t39.5 16.5q40 0 52 -38q17 -5 27.5 -20t10.5 -33v-64q0 -22 -17 -39l-104 -105q-15 -16 -39 -16h-145q-23 0 -40 17l-139 139q-16 15 -16 39v400q0 24 16 39l104 104q17 17 40 17h145q23 0 39 -16 l139 -140q17 -17 17 -39v-64q0 -23 -16 -39.5t-39 -16.5q-40 0 -53 38q-38 13 -38 53v28q0 13 -7 20l-23 23q-7 7 -18 7h-77q-10 0 -18 -7l-58 -58q-7 -8 -7 -18zM189 184v332q0 15 10 25l58 58q10 10 25 10h77q15 0 25 -10l58 -58q10 -10 10 -25v-30q0 -19 13.5 -32.5 t32.5 -13.5t32 13.5t13 32.5v64q0 20 -14 32l-104 105q-13 13 -32 13h-145q-19 0 -33 -14l-104 -104q-13 -13 -13 -32v-400q0 -19 13 -32l104 -104q14 -14 33 -14h145q19 0 32 13l104 105q14 12 14 32v64q0 19 -13 32.5t-32 13.5t-32.5 -13.5t-13.5 -32.5v-30q0 -15 -10 -25 l-58 -58q-10 -10 -25 -10h-77q-15 0 -25 10l-58 58q-10 10 -10 25z" glyph-name="ccircumflex" unicode="ĉ"/><glyph d="M370 780h-30q-40 0 -52 38q-38 12 -38 52v30q0 23 16 39t39 16h30q40 0 52 -38q38 -12 38 -52v-30q0 -23 -16 -39t-39 -16zM305 825h30q19 0 32 13t13 32v30q0 19 -13 32t-32 13h-30q-19 0 -32 -13t-13 -32v-30q0 -19 13 -32t32 -13zM234 481v-332q0 -11 7 -18l23 -23 q7 -7 18 -7h77q11 0 18 7l58 58q7 7 7 20v8.5v10.5v9q0 23 16.5 39.5t39.5 16.5q40 0 52 -38q17 -5 27.5 -20t10.5 -33v-64q0 -22 -17 -39l-104 -105q-15 -16 -39 -16h-145q-23 0 -40 17l-139 139q-16 15 -16 39v400q0 24 16 39l104 104q17 17 40 17h145q23 0 39 -16 l139 -140q17 -17 17 -39v-64q0 -23 -16 -39.5t-39 -16.5q-40 0 -53 38q-38 13 -38 53v28q0 13 -7 20l-23 23q-7 7 -18 7h-77q-10 0 -18 -7l-58 -58q-7 -8 -7 -18zM189 184v332q0 15 10 25l58 58q10 10 25 10h77q15 0 25 -10l58 -58q10 -10 10 -25v-30q0 -19 13.5 -32.5 t32.5 -13.5t32 13.5t13 32.5v64q0 20 -14 32l-104 105q-13 13 -32 13h-145q-19 0 -33 -14l-104 -104q-13 -13 -13 -32v-400q0 -19 13 -32l104 -104q14 -14 33 -14h145q19 0 32 13l104 105q14 12 14 32v64q0 19 -13 32.5t-32 13.5t-32.5 -13.5t-13.5 -32.5v-30q0 -15 -10 -25 l-58 -58q-10 -10 -25 -10h-77q-15 0 -25 10l-58 58q-10 10 -10 25z" glyph-name="Cdotaccent" unicode="Ċ"/><glyph d="M370 780h-30q-40 0 -52 38q-38 12 -38 52v30q0 23 16 39t39 16h30q40 0 52 -38q38 -12 38 -52v-30q0 -23 -16 -39t-39 -16zM305 825h30q19 0 32 13t13 32v30q0 19 -13 32t-32 13h-30q-19 0 -32 -13t-13 -32v-30q0 -19 13 -32t32 -13zM234 481v-332q0 -11 7 -18l23 -23 q7 -7 18 -7h77q11 0 18 7l58 58q7 7 7 20v8.5v10.5v9q0 23 16.5 39.5t39.5 16.5q40 0 52 -38q17 -5 27.5 -20t10.5 -33v-64q0 -22 -17 -39l-104 -105q-15 -16 -39 -16h-145q-23 0 -40 17l-139 139q-16 15 -16 39v400q0 24 16 39l104 104q17 17 40 17h145q23 0 39 -16 l139 -140q17 -17 17 -39v-64q0 -23 -16 -39.5t-39 -16.5q-40 0 -53 38q-38 13 -38 53v28q0 13 -7 20l-23 23q-7 7 -18 7h-77q-10 0 -18 -7l-58 -58q-7 -8 -7 -18zM189 184v332q0 15 10 25l58 58q10 10 25 10h77q15 0 25 -10l58 -58q10 -10 10 -25v-30q0 -19 13.5 -32.5 t32.5 -13.5t32 13.5t13 32.5v64q0 20 -14 32l-104 105q-13 13 -32 13h-145q-19 0 -33 -14l-104 -104q-13 -13 -13 -32v-400q0 -19 13 -32l104 -104q14 -14 33 -14h145q19 0 32 13l104 105q14 12 14 32v64q0 19 -13 32.5t-32 13.5t-32.5 -13.5t-13.5 -32.5v-30q0 -15 -10 -25 l-58 -58q-10 -10 -25 -10h-77q-15 0 -25 10l-58 58q-10 10 -10 25z" glyph-name="cdotaccent" unicode="ċ"/><glyph d="M460 955q37 -11 37 -48q0 -23 -14 -35l-93 -93q-14 -14 -35 -14q-22 0 -36 14l-31 32q0 1 -2 2l-2 1l-92 93q-15 15 -15 35t15 35t35 15q27 0 43 -22q2 -2 5.5 -6t4.5 -5l3.5 -3.5t4 -4.5t3.5 -3l3 -3q2 -1 9 -8q8 -5 17 -5q18 0 38 27l11 11q1 2 3 3.5t4.5 4l3.5 3.5 q14 11 32 11q17 0 30.5 -10.5t17.5 -26.5zM291 934l-36 36q-12 12 -28 12t-28 -12t-12 -28t12 -28l92 -93q11 -11 29 -11q17 0 28 11l93 93q11 14 11 28q0 17 -11.5 28.5t-28.5 11.5q-16 0 -28 -12l-36 -36q-12 -12 -28 -12q-17 0 -29 12zM234 481v-332q0 -11 7 -18l23 -23 q7 -7 18 -7h77q11 0 18 7l58 58q7 7 7 20v8.5v10.5v9q0 23 16.5 39.5t39.5 16.5q40 0 52 -38q17 -5 27.5 -20t10.5 -33v-64q0 -22 -17 -39l-104 -105q-15 -16 -39 -16h-145q-23 0 -40 17l-139 139q-16 15 -16 39v400q0 24 16 39l104 104q17 17 40 17h145q23 0 39 -16 l139 -140q17 -17 17 -39v-64q0 -23 -16 -39.5t-39 -16.5q-40 0 -53 38q-38 13 -38 53v28q0 13 -7 20l-23 23q-7 7 -18 7h-77q-10 0 -18 -7l-58 -58q-7 -8 -7 -18zM189 184v332q0 15 10 25l58 58q10 10 25 10h77q15 0 25 -10l58 -58q10 -10 10 -25v-30q0 -19 13.5 -32.5 t32.5 -13.5t32 13.5t13 32.5v64q0 20 -14 32l-104 105q-13 13 -32 13h-145q-19 0 -33 -14l-104 -104q-13 -13 -13 -32v-400q0 -19 13 -32l104 -104q14 -14 33 -14h145q19 0 32 13l104 105q14 12 14 32v64q0 19 -13 32.5t-32 13.5t-32.5 -13.5t-13.5 -32.5v-30q0 -15 -10 -25 l-58 -58q-10 -10 -25 -10h-77q-15 0 -25 10l-58 58q-10 10 -10 25z" glyph-name="Ccaron" unicode="Č"/><glyph d="M460 955q37 -11 37 -48q0 -23 -14 -35l-93 -93q-14 -14 -35 -14q-22 0 -36 14l-31 32q0 1 -2 2l-2 1l-92 93q-15 15 -15 35t15 35t35 15q27 0 43 -22q2 -2 5.5 -6t4.5 -5l3.5 -3.5t4 -4.5t3.5 -3l3 -3q2 -1 9 -8q8 -5 17 -5q18 0 38 27l11 11q1 2 3 3.5t4.5 4l3.5 3.5 q14 11 32 11q17 0 30.5 -10.5t17.5 -26.5zM291 934l-36 36q-12 12 -28 12t-28 -12t-12 -28t12 -28l92 -93q11 -11 29 -11q17 0 28 11l93 93q11 14 11 28q0 17 -11.5 28.5t-28.5 11.5q-16 0 -28 -12l-36 -36q-12 -12 -28 -12q-17 0 -29 12zM234 481v-332q0 -11 7 -18l23 -23 q7 -7 18 -7h77q11 0 18 7l58 58q7 7 7 20v8.5v10.5v9q0 23 16.5 39.5t39.5 16.5q40 0 52 -38q17 -5 27.5 -20t10.5 -33v-64q0 -22 -17 -39l-104 -105q-15 -16 -39 -16h-145q-23 0 -40 17l-139 139q-16 15 -16 39v400q0 24 16 39l104 104q17 17 40 17h145q23 0 39 -16 l139 -140q17 -17 17 -39v-64q0 -23 -16 -39.5t-39 -16.5q-40 0 -53 38q-38 13 -38 53v28q0 13 -7 20l-23 23q-7 7 -18 7h-77q-10 0 -18 -7l-58 -58q-7 -8 -7 -18zM189 184v332q0 15 10 25l58 58q10 10 25 10h77q15 0 25 -10l58 -58q10 -10 10 -25v-30q0 -19 13.5 -32.5 t32.5 -13.5t32 13.5t13 32.5v64q0 20 -14 32l-104 105q-13 13 -32 13h-145q-19 0 -33 -14l-104 -104q-13 -13 -13 -32v-400q0 -19 13 -32l104 -104q14 -14 33 -14h145q19 0 32 13l104 105q14 12 14 32v64q0 19 -13 32.5t-32 13.5t-32.5 -13.5t-13.5 -32.5v-30q0 -15 -10 -25 l-58 -58q-10 -10 -25 -10h-77q-15 0 -25 10l-58 58q-10 10 -10 25z" glyph-name="ccaron" unicode="č"/><glyph d="M460 955q37 -11 37 -48q0 -23 -14 -35l-93 -93q-14 -14 -35 -14q-22 0 -36 14l-31 32q0 1 -2 2l-2 1l-92 93q-15 15 -15 35t15 35t35 15q27 0 43 -22q2 -2 5.5 -6t4.5 -5l3.5 -3.5t4 -4.5t3.5 -3l3 -3q2 -1 9 -8q8 -5 17 -5q18 0 38 27l11 11q1 2 3 3.5t4.5 4l3.5 3.5 q14 11 32 11q17 0 30.5 -10.5t17.5 -26.5zM291 934l-36 36q-12 12 -28 12t-28 -12t-12 -28t12 -28l92 -93q11 -11 29 -11q17 0 28 11l93 93q11 14 11 28q0 17 -11.5 28.5t-28.5 11.5q-16 0 -28 -12l-36 -36q-12 -12 -28 -12q-17 0 -29 12zM588 515v-400q0 -22 -17 -39 l-104 -105q-15 -16 -39 -16h-250q-40 0 -52 38q-38 12 -38 52v610q0 23 16 39t39 16h250q23 0 39 -16l139 -140q17 -17 17 -39zM529 582l-104 105q-13 13 -32 13h-250q-19 0 -32 -13t-13 -32v-610q0 -19 13 -32t32 -13h250q19 0 32 13l104 105q14 12 14 32v400q0 20 -14 32z M442 159l-58 -58q-10 -10 -25 -10h-125q-19 0 -32 13t-13 32v428q0 19 13 32t32 13h125q15 0 25 -10l58 -58q10 -10 10 -25v-332q0 -15 -10 -25zM435 534l-23 23q-7 7 -18 7h-125q-14 0 -24.5 -10.5t-10.5 -24.5v-428h125q11 0 18 7l58 58q7 7 7 18v332q0 11 -7 18z" glyph-name="Dcaron" unicode="Ď"/><glyph d="M460 955q37 -11 37 -48q0 -23 -14 -35l-93 -93q-14 -14 -35 -14q-22 0 -36 14l-31 32q0 1 -2 2l-2 1l-92 93q-15 15 -15 35t15 35t35 15q27 0 43 -22q2 -2 5.5 -6t4.5 -5l3.5 -3.5t4 -4.5t3.5 -3l3 -3q2 -1 9 -8q8 -5 17 -5q18 0 38 27l11 11q1 2 3 3.5t4.5 4l3.5 3.5 q14 11 32 11q17 0 30.5 -10.5t17.5 -26.5zM291 934l-36 36q-12 12 -28 12t-28 -12t-12 -28t12 -28l92 -93q11 -11 29 -11q17 0 28 11l93 93q11 14 11 28q0 17 -11.5 28.5t-28.5 11.5q-16 0 -28 -12l-36 -36q-12 -12 -28 -12q-17 0 -29 12zM588 515v-400q0 -22 -17 -39 l-104 -105q-15 -16 -39 -16h-250q-40 0 -52 38q-38 12 -38 52v610q0 23 16 39t39 16h250q23 0 39 -16l139 -140q17 -17 17 -39zM529 582l-104 105q-13 13 -32 13h-250q-19 0 -32 -13t-13 -32v-610q0 -19 13 -32t32 -13h250q19 0 32 13l104 105q14 12 14 32v400q0 20 -14 32z M442 159l-58 -58q-10 -10 -25 -10h-125q-19 0 -32 13t-13 32v428q0 19 13 32t32 13h125q15 0 25 -10l58 -58q10 -10 10 -25v-332q0 -15 -10 -25zM435 534l-23 23q-7 7 -18 7h-125q-14 0 -24.5 -10.5t-10.5 -24.5v-428h125q11 0 18 7l58 58q7 7 7 18v332q0 11 -7 18z" glyph-name="dcaron" unicode="ď"/><glyph d="M88 45v219q-27 13 -33 35q-37 12 -37 52q0 55 65 55q5 0 5 5v244q0 23 16 39t39 16h250q23 0 39 -16l139 -140q17 -17 17 -39v-400q0 -22 -17 -39l-104 -105q-15 -16 -39 -16h-250q-40 0 -52 38q-38 12 -38 52zM98 655v-244q0 -15 -15 -15h-10q-19 0 -32 -13t-13 -32 q0 -20 13 -33t32 -13h10q15 0 15 -15v-245q0 -19 13 -32t32 -13h250q19 0 32 13l104 105q14 12 14 32v400q0 20 -14 32l-104 105q-13 13 -32 13h-250q-19 0 -32 -13t-13 -32zM189 136v154q0 15 15 15h139q19 0 32 13t13 33q0 19 -13 32t-32 13h-139q-15 0 -15 15v153 q0 19 13 32t32 13h125q15 0 25 -10l58 -58q10 -10 10 -25v-332q0 -15 -10 -25l-58 -58q-10 -10 -25 -10h-125q-19 0 -32 13t-13 32zM435 534l-23 23q-7 7 -18 7h-125q-14 0 -24.5 -10.5t-10.5 -24.5v-123h109q40 0 52 -38q38 -12 38 -52q0 -24 -15.5 -40t-39.5 -16h-139 q-5 0 -5 -5v-154h125q11 0 18 7l58 58q7 7 7 18v332q0 11 -7 18z" glyph-name="Dcroat" unicode="Đ"/><glyph d="M88 45v219q-27 13 -33 35q-37 12 -37 52q0 55 65 55q5 0 5 5v244q0 23 16 39t39 16h250q23 0 39 -16l139 -140q17 -17 17 -39v-400q0 -22 -17 -39l-104 -105q-15 -16 -39 -16h-250q-40 0 -52 38q-38 12 -38 52zM98 655v-244q0 -15 -15 -15h-10q-19 0 -32 -13t-13 -32 q0 -20 13 -33t32 -13h10q15 0 15 -15v-245q0 -19 13 -32t32 -13h250q19 0 32 13l104 105q14 12 14 32v400q0 20 -14 32l-104 105q-13 13 -32 13h-250q-19 0 -32 -13t-13 -32zM189 136v154q0 15 15 15h139q19 0 32 13t13 33q0 19 -13 32t-32 13h-139q-15 0 -15 15v153 q0 19 13 32t32 13h125q15 0 25 -10l58 -58q10 -10 10 -25v-332q0 -15 -10 -25l-58 -58q-10 -10 -25 -10h-125q-19 0 -32 13t-13 32zM435 534l-23 23q-7 7 -18 7h-125q-14 0 -24.5 -10.5t-10.5 -24.5v-123h109q40 0 52 -38q38 -12 38 -52q0 -24 -15.5 -40t-39.5 -16h-139 q-5 0 -5 -5v-154h125q11 0 18 7l58 58q7 7 7 18v332q0 11 -7 18z" glyph-name="dcroat" unicode="đ"/><glyph d="M450 775h-189q-40 0 -52 38q-38 12 -38 52q0 23 16 39.5t39 16.5h189q40 0 52 -38q17 -5 27.5 -20t10.5 -33q0 -23 -16 -39t-39 -16zM226 820h189q19 0 32 13t13 32t-13 32.5t-32 13.5h-189q-19 0 -32 -13.5t-13 -32.5t13 -32t32 -13zM550 672q38 -12 38 -52 q0 -23 -16 -39.5t-39 -16.5h-264q-14 0 -24.5 -10.5t-10.5 -24.5v-124h196q18 0 33 -10.5t20 -27.5q38 -13 38 -52q0 -23 -16.5 -39.5t-39.5 -16.5h-196q-14 0 -24.5 -11t-10.5 -25v-122h264q40 0 52 -38q17 -5 27.5 -20t10.5 -33q0 -23 -16 -39t-39 -16h-355q-40 0 -52 38 q-38 12 -38 52v610q0 23 16 39t39 16h355q40 0 52 -38zM98 655v-610q0 -19 13 -32t32 -13h355q19 0 32 13t13 32t-13 32.5t-32 13.5h-264q-19 0 -32 13t-13 32v122q0 19 13 32.5t32 13.5h196q19 0 32.5 13.5t13.5 32.5t-13.5 32t-32.5 13h-196q-19 0 -32 13.5t-13 32.5v123 q0 19 13 32t32 13h264q19 0 32 13.5t13 32.5t-13 32t-32 13h-355q-19 0 -32 -13t-13 -32z" glyph-name="Emacron" unicode="Ē"/><glyph d="M450 775h-189q-40 0 -52 38q-38 12 -38 52q0 23 16 39.5t39 16.5h189q40 0 52 -38q17 -5 27.5 -20t10.5 -33q0 -23 -16 -39t-39 -16zM226 820h189q19 0 32 13t13 32t-13 32.5t-32 13.5h-189q-19 0 -32 -13.5t-13 -32.5t13 -32t32 -13zM550 672q38 -12 38 -52 q0 -23 -16 -39.5t-39 -16.5h-264q-14 0 -24.5 -10.5t-10.5 -24.5v-124h196q18 0 33 -10.5t20 -27.5q38 -13 38 -52q0 -23 -16.5 -39.5t-39.5 -16.5h-196q-14 0 -24.5 -11t-10.5 -25v-122h264q40 0 52 -38q17 -5 27.5 -20t10.5 -33q0 -23 -16 -39t-39 -16h-355q-40 0 -52 38 q-38 12 -38 52v610q0 23 16 39t39 16h355q40 0 52 -38zM98 655v-610q0 -19 13 -32t32 -13h355q19 0 32 13t13 32t-13 32.5t-32 13.5h-264q-19 0 -32 13t-13 32v122q0 19 13 32.5t32 13.5h196q19 0 32.5 13.5t13.5 32.5t-13.5 32t-32.5 13h-196q-19 0 -32 13.5t-13 32.5v123 q0 19 13 32t32 13h264q19 0 32 13.5t13 32.5t-13 32t-32 13h-355q-19 0 -32 -13t-13 -32z" glyph-name="emacron" unicode="ē"/><glyph d="M456 955q16 -3 26 -15.5t10 -29.5v-42q0 -20 -12 -30l-60 -61q-11 -12 -31 -12h-69q-19 0 -31 12l-95 96q-12 12 -12 30v42q0 20 13.5 33.5t33.5 13.5q36 0 45 -36q38 -6 38 -61q2 -1 10 -1q11 0 18 7l16 16q7 7 7 28q0 20 13.5 33.5t33.5 13.5q17 0 29.5 -10.5 t16.5 -26.5zM266 935v10q0 15 -10.5 26t-26.5 11t-26.5 -11t-10.5 -26v-42q0 -14 9 -23l60 -61q9 -9 24 -9h69q15 0 24 9l60 61q9 9 9 23v42q0 15 -10.5 26t-26.5 11t-26.5 -11t-10.5 -26v-10q0 -15 -10 -25l-16 -16q-10 -10 -25 -10h-5q-15 0 -25 10l-16 16q-10 10 -10 25z M550 672q38 -12 38 -52q0 -23 -16 -39.5t-39 -16.5h-264q-14 0 -24.5 -10.5t-10.5 -24.5v-124h196q18 0 33 -10.5t20 -27.5q38 -13 38 -52q0 -23 -16.5 -39.5t-39.5 -16.5h-196q-14 0 -24.5 -11t-10.5 -25v-122h264q40 0 52 -38q17 -5 27.5 -20t10.5 -33q0 -23 -16 -39 t-39 -16h-355q-40 0 -52 38q-38 12 -38 52v610q0 23 16 39t39 16h355q40 0 52 -38zM98 655v-610q0 -19 13 -32t32 -13h355q19 0 32 13t13 32t-13 32.5t-32 13.5h-264q-19 0 -32 13t-13 32v122q0 19 13 32.5t32 13.5h196q19 0 32.5 13.5t13.5 32.5t-13.5 32t-32.5 13h-196 q-19 0 -32 13.5t-13 32.5v123q0 19 13 32t32 13h264q19 0 32 13.5t13 32.5t-13 32t-32 13h-355q-19 0 -32 -13t-13 -32z" glyph-name="Ebreve" unicode="Ĕ"/><glyph d="M456 955q16 -3 26 -15.5t10 -29.5v-42q0 -20 -12 -30l-60 -61q-11 -12 -31 -12h-69q-19 0 -31 12l-95 96q-12 12 -12 30v42q0 20 13.5 33.5t33.5 13.5q36 0 45 -36q38 -6 38 -61q2 -1 10 -1q11 0 18 7l16 16q7 7 7 28q0 20 13.5 33.5t33.5 13.5q17 0 29.5 -10.5 t16.5 -26.5zM266 935v10q0 15 -10.5 26t-26.5 11t-26.5 -11t-10.5 -26v-42q0 -14 9 -23l60 -61q9 -9 24 -9h69q15 0 24 9l60 61q9 9 9 23v42q0 15 -10.5 26t-26.5 11t-26.5 -11t-10.5 -26v-10q0 -15 -10 -25l-16 -16q-10 -10 -25 -10h-5q-15 0 -25 10l-16 16q-10 10 -10 25z M550 672q38 -12 38 -52q0 -23 -16 -39.5t-39 -16.5h-264q-14 0 -24.5 -10.5t-10.5 -24.5v-124h196q18 0 33 -10.5t20 -27.5q38 -13 38 -52q0 -23 -16.5 -39.5t-39.5 -16.5h-196q-14 0 -24.5 -11t-10.5 -25v-122h264q40 0 52 -38q17 -5 27.5 -20t10.5 -33q0 -23 -16 -39 t-39 -16h-355q-40 0 -52 38q-38 12 -38 52v610q0 23 16 39t39 16h355q40 0 52 -38zM98 655v-610q0 -19 13 -32t32 -13h355q19 0 32 13t13 32t-13 32.5t-32 13.5h-264q-19 0 -32 13t-13 32v122q0 19 13 32.5t32 13.5h196q19 0 32.5 13.5t13.5 32.5t-13.5 32t-32.5 13h-196 q-19 0 -32 13.5t-13 32.5v123q0 19 13 32t32 13h264q19 0 32 13.5t13 32.5t-13 32t-32 13h-355q-19 0 -32 -13t-13 -32z" glyph-name="ebreve" unicode="ĕ"/><glyph d="M370 780h-30q-40 0 -52 38q-38 12 -38 52v30q0 23 16 39t39 16h30q40 0 52 -38q38 -12 38 -52v-30q0 -23 -16 -39t-39 -16zM305 825h30q19 0 32 13t13 32v30q0 19 -13 32t-32 13h-30q-19 0 -32 -13t-13 -32v-30q0 -19 13 -32t32 -13zM550 672q38 -12 38 -52 q0 -23 -16 -39.5t-39 -16.5h-264q-14 0 -24.5 -10.5t-10.5 -24.5v-124h196q18 0 33 -10.5t20 -27.5q38 -13 38 -52q0 -23 -16.5 -39.5t-39.5 -16.5h-196q-14 0 -24.5 -11t-10.5 -25v-122h264q40 0 52 -38q17 -5 27.5 -20t10.5 -33q0 -23 -16 -39t-39 -16h-355q-40 0 -52 38 q-38 12 -38 52v610q0 23 16 39t39 16h355q40 0 52 -38zM98 655v-610q0 -19 13 -32t32 -13h355q19 0 32 13t13 32t-13 32.5t-32 13.5h-264q-19 0 -32 13t-13 32v122q0 19 13 32.5t32 13.5h196q19 0 32.5 13.5t13.5 32.5t-13.5 32t-32.5 13h-196q-19 0 -32 13.5t-13 32.5v123 q0 19 13 32t32 13h264q19 0 32 13.5t13 32.5t-13 32t-32 13h-355q-19 0 -32 -13t-13 -32z" glyph-name="Edotaccent" unicode="Ė"/><glyph d="M370 780h-30q-40 0 -52 38q-38 12 -38 52v30q0 23 16 39t39 16h30q40 0 52 -38q38 -12 38 -52v-30q0 -23 -16 -39t-39 -16zM305 825h30q19 0 32 13t13 32v30q0 19 -13 32t-32 13h-30q-19 0 -32 -13t-13 -32v-30q0 -19 13 -32t32 -13zM550 672q38 -12 38 -52 q0 -23 -16 -39.5t-39 -16.5h-264q-14 0 -24.5 -10.5t-10.5 -24.5v-124h196q18 0 33 -10.5t20 -27.5q38 -13 38 -52q0 -23 -16.5 -39.5t-39.5 -16.5h-196q-14 0 -24.5 -11t-10.5 -25v-122h264q40 0 52 -38q17 -5 27.5 -20t10.5 -33q0 -23 -16 -39t-39 -16h-355q-40 0 -52 38 q-38 12 -38 52v610q0 23 16 39t39 16h355q40 0 52 -38zM98 655v-610q0 -19 13 -32t32 -13h355q19 0 32 13t13 32t-13 32.5t-32 13.5h-264q-19 0 -32 13t-13 32v122q0 19 13 32.5t32 13.5h196q19 0 32.5 13.5t13.5 32.5t-13.5 32t-32.5 13h-196q-19 0 -32 13.5t-13 32.5v123 q0 19 13 32t32 13h264q19 0 32 13.5t13 32.5t-13 32t-32 13h-355q-19 0 -32 -13t-13 -32z" glyph-name="edotaccent" unicode="ė"/><glyph d="M550 672q38 -12 38 -52q0 -23 -16 -39.5t-39 -16.5h-264q-14 0 -24.5 -10.5t-10.5 -24.5v-124h196q18 0 33 -10.5t20 -27.5q38 -13 38 -52q0 -23 -16.5 -39.5t-39.5 -16.5h-196q-14 0 -24.5 -11t-10.5 -25v-122h264q38 0 51 -37q39 -12 39 -59v-83q0 -21 -14 -33l-57 -57 q-8 -10 -8 -19v-1h1q10 0 21 11l2 1l4 4l3 2q3 1 5 3q8 5 20 5q16 0 28.5 -10t14.5 -26q15 -2 25 -14t10 -27q0 -17 -16 -35l-13 -13q-10 -8 -11 -9q-11 -12 -27 -12h-61q-15 0 -27 12l-53 52q-1 1 -3 4l-32 31q-11 11 -11 27v61q0 16 11 27l49 49h-271q-40 0 -52 38 q-38 12 -38 52v610q0 23 16 39t39 16h355q40 0 52 -38zM98 655v-610q0 -19 13 -32t32 -13h335v-16q0 -15 -11 -26l-60 -59q-8 -11 -8 -20v-61q0 -12 8 -20l53 -52q7 -9 20 -9h61q13 0 20 9l27 27q10 10 10 23q0 14 -9.5 23t-23.5 9t-23 -9l-6 -6q-11 -11 -26 -11t-26 11 l-9 9q-11 11 -11 26t11 26l57 57q11 11 11 26v85q0 21 -12.5 35t-32.5 14h-264q-19 0 -32 13t-13 32v122q0 19 13 32.5t32 13.5h196q19 0 32.5 13.5t13.5 32.5t-13.5 32t-32.5 13h-196q-19 0 -32 13.5t-13 32.5v123q0 19 13 32t32 13h264q19 0 32 13.5t13 32.5t-13 32 t-32 13h-355q-19 0 -32 -13t-13 -32z" glyph-name="Eogonek" unicode="Ę"/><glyph d="M550 672q38 -12 38 -52q0 -23 -16 -39.5t-39 -16.5h-264q-14 0 -24.5 -10.5t-10.5 -24.5v-124h196q18 0 33 -10.5t20 -27.5q38 -13 38 -52q0 -23 -16.5 -39.5t-39.5 -16.5h-196q-14 0 -24.5 -11t-10.5 -25v-122h264q38 0 51 -37q39 -12 39 -59v-83q0 -21 -14 -33l-57 -57 q-8 -10 -8 -19v-1h1q10 0 21 11l2 1l4 4l3 2q3 1 5 3q8 5 20 5q16 0 28.5 -10t14.5 -26q15 -2 25 -14t10 -27q0 -17 -16 -35l-13 -13q-10 -8 -11 -9q-11 -12 -27 -12h-61q-15 0 -27 12l-53 52q-1 1 -3 4l-32 31q-11 11 -11 27v61q0 16 11 27l49 49h-271q-40 0 -52 38 q-38 12 -38 52v610q0 23 16 39t39 16h355q40 0 52 -38zM98 655v-610q0 -19 13 -32t32 -13h335v-16q0 -15 -11 -26l-60 -59q-8 -11 -8 -20v-61q0 -12 8 -20l53 -52q7 -9 20 -9h61q13 0 20 9l27 27q10 10 10 23q0 14 -9.5 23t-23.5 9t-23 -9l-6 -6q-11 -11 -26 -11t-26 11 l-9 9q-11 11 -11 26t11 26l57 57q11 11 11 26v85q0 21 -12.5 35t-32.5 14h-264q-19 0 -32 13t-13 32v122q0 19 13 32.5t32 13.5h196q19 0 32.5 13.5t13.5 32.5t-13.5 32t-32.5 13h-196q-19 0 -32 13.5t-13 32.5v123q0 19 13 32t32 13h264q19 0 32 13.5t13 32.5t-13 32 t-32 13h-355q-19 0 -32 -13t-13 -32z" glyph-name="eogonek" unicode="ę"/><glyph d="M460 955q37 -11 37 -48q0 -23 -14 -35l-93 -93q-14 -14 -35 -14q-22 0 -36 14l-31 32q0 1 -2 2l-2 1l-92 93q-15 15 -15 35t15 35t35 15q27 0 43 -22q2 -2 5.5 -6t4.5 -5l3.5 -3.5t4 -4.5t3.5 -3l3 -3q2 -1 9 -8q8 -5 17 -5q18 0 38 27l11 11q1 2 3 3.5t4.5 4l3.5 3.5 q14 11 32 11q17 0 30.5 -10.5t17.5 -26.5zM291 934l-36 36q-12 12 -28 12t-28 -12t-12 -28t12 -28l92 -93q11 -11 29 -11q17 0 28 11l93 93q11 14 11 28q0 17 -11.5 28.5t-28.5 11.5q-16 0 -28 -12l-36 -36q-12 -12 -28 -12q-17 0 -29 12zM550 672q38 -12 38 -52 q0 -23 -16 -39.5t-39 -16.5h-264q-14 0 -24.5 -10.5t-10.5 -24.5v-124h196q18 0 33 -10.5t20 -27.5q38 -13 38 -52q0 -23 -16.5 -39.5t-39.5 -16.5h-196q-14 0 -24.5 -11t-10.5 -25v-122h264q40 0 52 -38q17 -5 27.5 -20t10.5 -33q0 -23 -16 -39t-39 -16h-355q-40 0 -52 38 q-38 12 -38 52v610q0 23 16 39t39 16h355q40 0 52 -38zM98 655v-610q0 -19 13 -32t32 -13h355q19 0 32 13t13 32t-13 32.5t-32 13.5h-264q-19 0 -32 13t-13 32v122q0 19 13 32.5t32 13.5h196q19 0 32.5 13.5t13.5 32.5t-13.5 32t-32.5 13h-196q-19 0 -32 13.5t-13 32.5v123 q0 19 13 32t32 13h264q19 0 32 13.5t13 32.5t-13 32t-32 13h-355q-19 0 -32 -13t-13 -32z" glyph-name="Ecaron" unicode="Ě"/><glyph d="M460 955q37 -11 37 -48q0 -23 -14 -35l-93 -93q-14 -14 -35 -14q-22 0 -36 14l-31 32q0 1 -2 2l-2 1l-92 93q-15 15 -15 35t15 35t35 15q27 0 43 -22q2 -2 5.5 -6t4.5 -5l3.5 -3.5t4 -4.5t3.5 -3l3 -3q2 -1 9 -8q8 -5 17 -5q18 0 38 27l11 11q1 2 3 3.5t4.5 4l3.5 3.5 q14 11 32 11q17 0 30.5 -10.5t17.5 -26.5zM291 934l-36 36q-12 12 -28 12t-28 -12t-12 -28t12 -28l92 -93q11 -11 29 -11q17 0 28 11l93 93q11 14 11 28q0 17 -11.5 28.5t-28.5 11.5q-16 0 -28 -12l-36 -36q-12 -12 -28 -12q-17 0 -29 12zM550 672q38 -12 38 -52 q0 -23 -16 -39.5t-39 -16.5h-264q-14 0 -24.5 -10.5t-10.5 -24.5v-124h196q18 0 33 -10.5t20 -27.5q38 -13 38 -52q0 -23 -16.5 -39.5t-39.5 -16.5h-196q-14 0 -24.5 -11t-10.5 -25v-122h264q40 0 52 -38q17 -5 27.5 -20t10.5 -33q0 -23 -16 -39t-39 -16h-355q-40 0 -52 38 q-38 12 -38 52v610q0 23 16 39t39 16h355q40 0 52 -38zM98 655v-610q0 -19 13 -32t32 -13h355q19 0 32 13t13 32t-13 32.5t-32 13.5h-264q-19 0 -32 13t-13 32v122q0 19 13 32.5t32 13.5h196q19 0 32.5 13.5t13.5 32.5t-13.5 32t-32.5 13h-196q-19 0 -32 13.5t-13 32.5v123 q0 19 13 32t32 13h264q19 0 32 13.5t13 32.5t-13 32t-32 13h-355q-19 0 -32 -13t-13 -32z" glyph-name="ecaron" unicode="ě"/><glyph d="M451 881l32 -31q14 -14 14 -36t-13.5 -35.5t-35.5 -13.5q-18 0 -32 11q-12 9 -23 22l-2 2l-5 6q-4 4 -6 5l-2 2l-5 4l-2 2q-8 5 -16 5t-19 -8l-21 -21l-6 -6q0 -1 -2 -3t-3 -2l-6 -6q-16 -13 -36 -13q-18 0 -31 10t-17 27q-16 4 -26.5 17t-10.5 30q0 24 15 36l93 92 q15 15 35 15t35 -15l93 -92q0 -1 1 -2zM255 821l37 36q10 12 28 12q16 0 28 -12l36 -36q11 -11 29 -11q17 0 28 11t11 28q0 18 -11 29l-93 92q-12 12 -28 12q-18 0 -28 -12l-93 -92q-12 -12 -12 -29t11.5 -28t28.5 -11q18 0 28 11zM415 564h-119q-10 0 -18 -7l-37 -37 q-7 -8 -7 -18v-374q0 -11 7 -18l2 -2q7 -7 18 -7h119q11 0 18 7l37 37q7 7 7 18v96h-60q-40 0 -53 38q-38 13 -38 53q0 23 16.5 39t39.5 16h151q40 0 52 -38q38 -12 38 -52v-220q0 -25 -16 -40l-84 -83q-17 -17 -40 -17h-186q-22 0 -39 17l-84 83q-1 1 -3 4l-32 31 q-16 16 -16 40v441q0 23 16 39l84 83q17 17 39 17h186q23 0 40 -17l119 -118q15 -14 17 -44q1 -9 0 -23.5t-1 -17.5q0 -23 -16 -39t-39 -16q-18 0 -33 10.5t-20 27.5q-38 11 -38 62q0 6 -1 8q-1 7 -6 12l-2 2q-7 7 -18 7zM452 537v-12q0 -19 13.5 -32t32.5 -13t32 13t13 32 v46q0 19 -13 32l-84 83q-12 14 -33 14h-186q-20 0 -32 -14l-84 -83q-13 -13 -13 -32v-441q0 -20 13 -33l84 -83q12 -14 32 -14h186q21 0 33 14l84 83q13 13 13 33v220q0 19 -13 32t-32 13h-151q-19 0 -32.5 -13t-13.5 -32t13.5 -32.5t32.5 -13.5h60q19 0 32 -13t13 -32v-96 q0 -15 -10 -25l-37 -37q-10 -10 -25 -10h-119q-15 0 -25 10l-37 37q-10 10 -10 25v374q0 15 10 25l37 37q10 10 25 10h119q15 0 25 -10l37 -37q10 -10 10 -25z" glyph-name="Gcircumflex" unicode="Ĝ"/><glyph d="M451 881l32 -31q14 -14 14 -36t-13.5 -35.5t-35.5 -13.5q-18 0 -32 11q-12 9 -23 22l-2 2l-5 6q-4 4 -6 5l-2 2l-5 4l-2 2q-8 5 -16 5t-19 -8l-21 -21l-6 -6q0 -1 -2 -3t-3 -2l-6 -6q-16 -13 -36 -13q-18 0 -31 10t-17 27q-16 4 -26.5 17t-10.5 30q0 24 15 36l93 92 q15 15 35 15t35 -15l93 -92q0 -1 1 -2zM255 821l37 36q10 12 28 12q16 0 28 -12l36 -36q11 -11 29 -11q17 0 28 11t11 28q0 18 -11 29l-93 92q-12 12 -28 12q-18 0 -28 -12l-93 -92q-12 -12 -12 -29t11.5 -28t28.5 -11q18 0 28 11zM415 564h-119q-10 0 -18 -7l-37 -37 q-7 -8 -7 -18v-374q0 -11 7 -18l2 -2q7 -7 18 -7h119q11 0 18 7l37 37q7 7 7 18v96h-60q-40 0 -53 38q-38 13 -38 53q0 23 16.5 39t39.5 16h151q40 0 52 -38q38 -12 38 -52v-220q0 -25 -16 -40l-84 -83q-17 -17 -40 -17h-186q-22 0 -39 17l-84 83q-1 1 -3 4l-32 31 q-16 16 -16 40v441q0 23 16 39l84 83q17 17 39 17h186q23 0 40 -17l119 -118q15 -14 17 -44q1 -9 0 -23.5t-1 -17.5q0 -23 -16 -39t-39 -16q-18 0 -33 10.5t-20 27.5q-38 11 -38 62q0 6 -1 8q-1 7 -6 12l-2 2q-7 7 -18 7zM452 537v-12q0 -19 13.5 -32t32.5 -13t32 13t13 32 v46q0 19 -13 32l-84 83q-12 14 -33 14h-186q-20 0 -32 -14l-84 -83q-13 -13 -13 -32v-441q0 -20 13 -33l84 -83q12 -14 32 -14h186q21 0 33 14l84 83q13 13 13 33v220q0 19 -13 32t-32 13h-151q-19 0 -32.5 -13t-13.5 -32t13.5 -32.5t32.5 -13.5h60q19 0 32 -13t13 -32v-96 q0 -15 -10 -25l-37 -37q-10 -10 -25 -10h-119q-15 0 -25 10l-37 37q-10 10 -10 25v374q0 15 10 25l37 37q10 10 25 10h119q15 0 25 -10l37 -37q10 -10 10 -25z" glyph-name="gcircumflex" unicode="ĝ"/><glyph d="M456 955q16 -3 26 -15.5t10 -29.5v-42q0 -20 -12 -30l-60 -61q-11 -12 -31 -12h-69q-19 0 -31 12l-95 96q-12 12 -12 30v42q0 20 13.5 33.5t33.5 13.5q36 0 45 -36q38 -6 38 -61q2 -1 10 -1q11 0 18 7l16 16q7 7 7 28q0 20 13.5 33.5t33.5 13.5q17 0 29.5 -10.5 t16.5 -26.5zM266 935v10q0 15 -10.5 26t-26.5 11t-26.5 -11t-10.5 -26v-42q0 -14 9 -23l60 -61q9 -9 24 -9h69q15 0 24 9l60 61q9 9 9 23v42q0 15 -10.5 26t-26.5 11t-26.5 -11t-10.5 -26v-10q0 -15 -10 -25l-16 -16q-10 -10 -25 -10h-5q-15 0 -25 10l-16 16q-10 10 -10 25z M415 564h-119q-10 0 -18 -7l-37 -37q-7 -8 -7 -18v-374q0 -11 7 -18l2 -2q7 -7 18 -7h119q11 0 18 7l37 37q7 7 7 18v96h-60q-40 0 -53 38q-38 13 -38 53q0 23 16.5 39t39.5 16h151q40 0 52 -38q38 -12 38 -52v-220q0 -25 -16 -40l-84 -83q-17 -17 -40 -17h-186 q-22 0 -39 17l-84 83q-1 1 -3 4l-32 31q-16 16 -16 40v441q0 23 16 39l84 83q17 17 39 17h186q23 0 40 -17l119 -118q15 -14 17 -44q1 -9 0 -23.5t-1 -17.5q0 -23 -16 -39t-39 -16q-18 0 -33 10.5t-20 27.5q-38 11 -38 62q0 6 -1 8q-1 7 -6 12l-2 2q-7 7 -18 7zM452 537v-12 q0 -19 13.5 -32t32.5 -13t32 13t13 32v46q0 19 -13 32l-84 83q-12 14 -33 14h-186q-20 0 -32 -14l-84 -83q-13 -13 -13 -32v-441q0 -20 13 -33l84 -83q12 -14 32 -14h186q21 0 33 14l84 83q13 13 13 33v220q0 19 -13 32t-32 13h-151q-19 0 -32.5 -13t-13.5 -32t13.5 -32.5 t32.5 -13.5h60q19 0 32 -13t13 -32v-96q0 -15 -10 -25l-37 -37q-10 -10 -25 -10h-119q-15 0 -25 10l-37 37q-10 10 -10 25v374q0 15 10 25l37 37q10 10 25 10h119q15 0 25 -10l37 -37q10 -10 10 -25z" glyph-name="Gbreve" unicode="Ğ"/><glyph d="M456 955q16 -3 26 -15.5t10 -29.5v-42q0 -20 -12 -30l-60 -61q-11 -12 -31 -12h-69q-19 0 -31 12l-95 96q-12 12 -12 30v42q0 20 13.5 33.5t33.5 13.5q36 0 45 -36q38 -6 38 -61q2 -1 10 -1q11 0 18 7l16 16q7 7 7 28q0 20 13.5 33.5t33.5 13.5q17 0 29.5 -10.5 t16.5 -26.5zM266 935v10q0 15 -10.5 26t-26.5 11t-26.5 -11t-10.5 -26v-42q0 -14 9 -23l60 -61q9 -9 24 -9h69q15 0 24 9l60 61q9 9 9 23v42q0 15 -10.5 26t-26.5 11t-26.5 -11t-10.5 -26v-10q0 -15 -10 -25l-16 -16q-10 -10 -25 -10h-5q-15 0 -25 10l-16 16q-10 10 -10 25z M415 564h-119q-10 0 -18 -7l-37 -37q-7 -8 -7 -18v-374q0 -11 7 -18l2 -2q7 -7 18 -7h119q11 0 18 7l37 37q7 7 7 18v96h-60q-40 0 -53 38q-38 13 -38 53q0 23 16.5 39t39.5 16h151q40 0 52 -38q38 -12 38 -52v-220q0 -25 -16 -40l-84 -83q-17 -17 -40 -17h-186 q-22 0 -39 17l-84 83q-1 1 -3 4l-32 31q-16 16 -16 40v441q0 23 16 39l84 83q17 17 39 17h186q23 0 40 -17l119 -118q15 -14 17 -44q1 -9 0 -23.5t-1 -17.5q0 -23 -16 -39t-39 -16q-18 0 -33 10.5t-20 27.5q-38 11 -38 62q0 6 -1 8q-1 7 -6 12l-2 2q-7 7 -18 7zM452 537v-12 q0 -19 13.5 -32t32.5 -13t32 13t13 32v46q0 19 -13 32l-84 83q-12 14 -33 14h-186q-20 0 -32 -14l-84 -83q-13 -13 -13 -32v-441q0 -20 13 -33l84 -83q12 -14 32 -14h186q21 0 33 14l84 83q13 13 13 33v220q0 19 -13 32t-32 13h-151q-19 0 -32.5 -13t-13.5 -32t13.5 -32.5 t32.5 -13.5h60q19 0 32 -13t13 -32v-96q0 -15 -10 -25l-37 -37q-10 -10 -25 -10h-119q-15 0 -25 10l-37 37q-10 10 -10 25v374q0 15 10 25l37 37q10 10 25 10h119q15 0 25 -10l37 -37q10 -10 10 -25z" glyph-name="gbreve" unicode="ğ"/><glyph d="M370 780h-30q-40 0 -52 38q-38 12 -38 52v30q0 23 16 39t39 16h30q40 0 52 -38q38 -12 38 -52v-30q0 -23 -16 -39t-39 -16zM305 825h30q19 0 32 13t13 32v30q0 19 -13 32t-32 13h-30q-19 0 -32 -13t-13 -32v-30q0 -19 13 -32t32 -13zM415 564h-119q-10 0 -18 -7l-37 -37 q-7 -8 -7 -18v-374q0 -11 7 -18l2 -2q7 -7 18 -7h119q11 0 18 7l37 37q7 7 7 18v96h-60q-40 0 -53 38q-38 13 -38 53q0 23 16.5 39t39.5 16h151q40 0 52 -38q38 -12 38 -52v-220q0 -25 -16 -40l-84 -83q-17 -17 -40 -17h-186q-22 0 -39 17l-84 83q-1 1 -3 4l-32 31 q-16 16 -16 40v441q0 23 16 39l84 83q17 17 39 17h186q23 0 40 -17l119 -118q15 -14 17 -44q1 -9 0 -23.5t-1 -17.5q0 -23 -16 -39t-39 -16q-18 0 -33 10.5t-20 27.5q-38 11 -38 62q0 6 -1 8q-1 7 -6 12l-2 2q-7 7 -18 7zM452 537v-12q0 -19 13.5 -32t32.5 -13t32 13t13 32 v46q0 19 -13 32l-84 83q-12 14 -33 14h-186q-20 0 -32 -14l-84 -83q-13 -13 -13 -32v-441q0 -20 13 -33l84 -83q12 -14 32 -14h186q21 0 33 14l84 83q13 13 13 33v220q0 19 -13 32t-32 13h-151q-19 0 -32.5 -13t-13.5 -32t13.5 -32.5t32.5 -13.5h60q19 0 32 -13t13 -32v-96 q0 -15 -10 -25l-37 -37q-10 -10 -25 -10h-119q-15 0 -25 10l-37 37q-10 10 -10 25v374q0 15 10 25l37 37q10 10 25 10h119q15 0 25 -10l37 -37q10 -10 10 -25z" glyph-name="Gdotaccent" unicode="Ġ"/><glyph d="M370 780h-30q-40 0 -52 38q-38 12 -38 52v30q0 23 16 39t39 16h30q40 0 52 -38q38 -12 38 -52v-30q0 -23 -16 -39t-39 -16zM305 825h30q19 0 32 13t13 32v30q0 19 -13 32t-32 13h-30q-19 0 -32 -13t-13 -32v-30q0 -19 13 -32t32 -13zM415 564h-119q-10 0 -18 -7l-37 -37 q-7 -8 -7 -18v-374q0 -11 7 -18l2 -2q7 -7 18 -7h119q11 0 18 7l37 37q7 7 7 18v96h-60q-40 0 -53 38q-38 13 -38 53q0 23 16.5 39t39.5 16h151q40 0 52 -38q38 -12 38 -52v-220q0 -25 -16 -40l-84 -83q-17 -17 -40 -17h-186q-22 0 -39 17l-84 83q-1 1 -3 4l-32 31 q-16 16 -16 40v441q0 23 16 39l84 83q17 17 39 17h186q23 0 40 -17l119 -118q15 -14 17 -44q1 -9 0 -23.5t-1 -17.5q0 -23 -16 -39t-39 -16q-18 0 -33 10.5t-20 27.5q-38 11 -38 62q0 6 -1 8q-1 7 -6 12l-2 2q-7 7 -18 7zM452 537v-12q0 -19 13.5 -32t32.5 -13t32 13t13 32 v46q0 19 -13 32l-84 83q-12 14 -33 14h-186q-20 0 -32 -14l-84 -83q-13 -13 -13 -32v-441q0 -20 13 -33l84 -83q12 -14 32 -14h186q21 0 33 14l84 83q13 13 13 33v220q0 19 -13 32t-32 13h-151q-19 0 -32.5 -13t-13.5 -32t13.5 -32.5t32.5 -13.5h60q19 0 32 -13t13 -32v-96 q0 -15 -10 -25l-37 -37q-10 -10 -25 -10h-119q-15 0 -25 10l-37 37q-10 10 -10 25v374q0 15 10 25l37 37q10 10 25 10h119q15 0 25 -10l37 -37q10 -10 10 -25z" glyph-name="gdotaccent" unicode="ġ"/><glyph d="M415 564h-119q-10 0 -18 -7l-37 -37q-7 -8 -7 -18v-374q0 -11 7 -18l2 -2q7 -7 18 -7h119q11 0 18 7l37 37q7 7 7 18v96h-60q-40 0 -53 38q-38 13 -38 53q0 23 16.5 39t39.5 16h151q40 0 52 -38q38 -12 38 -52v-220q0 -25 -16 -40l-84 -83q-17 -17 -40 -17h-186 q-22 0 -39 17l-84 83q-1 1 -3 4l-32 31q-16 16 -16 40v441q0 23 16 39l84 83q17 17 39 17h186q23 0 40 -17l119 -118q15 -14 17 -44q1 -9 0 -23.5t-1 -17.5q0 -23 -16 -39t-39 -16q-18 0 -33 10.5t-20 27.5q-38 11 -38 62q0 6 -1 8q-1 7 -6 12l-2 2q-7 7 -18 7zM452 537v-12 q0 -19 13.5 -32t32.5 -13t32 13t13 32v46q0 19 -13 32l-84 83q-12 14 -33 14h-186q-20 0 -32 -14l-84 -83q-13 -13 -13 -32v-441q0 -20 13 -33l84 -83q12 -14 32 -14h186q21 0 33 14l84 83q13 13 13 33v220q0 19 -13 32t-32 13h-151q-19 0 -32.5 -13t-13.5 -32t13.5 -32.5 t32.5 -13.5h60q19 0 32 -13t13 -32v-96q0 -15 -10 -25l-37 -37q-10 -10 -25 -10h-119q-15 0 -25 10l-37 37q-10 10 -10 25v374q0 15 10 25l37 37q10 10 25 10h119q15 0 25 -10l37 -37q10 -10 10 -25zM413 -119q38 -13 38 -52q0 -24 -17 -39l-81 -82q-15 -16 -39 -16 q-18 0 -33 10.5t-20 27.5q-38 12 -38 52q0 22 17 39l81 82q16 16 39 16q18 0 33 -10.5t20 -27.5zM311 -250l81 82q14 12 14 32q0 18 -14 32q-12 13 -32 13q-19 0 -32 -13l-81 -82q-14 -14 -14 -32t14 -32q12 -13 32 -13q19 0 32 13z" glyph-name="Gcommaaccent" unicode="Ģ"/><glyph d="M415 564h-119q-10 0 -18 -7l-37 -37q-7 -8 -7 -18v-374q0 -11 7 -18l2 -2q7 -7 18 -7h119q11 0 18 7l37 37q7 7 7 18v96h-60q-40 0 -53 38q-38 13 -38 53q0 23 16.5 39t39.5 16h151q40 0 52 -38q38 -12 38 -52v-220q0 -25 -16 -40l-84 -83q-17 -17 -40 -17h-186 q-22 0 -39 17l-84 83q-1 1 -3 4l-32 31q-16 16 -16 40v441q0 23 16 39l84 83q17 17 39 17h186q23 0 40 -17l119 -118q15 -14 17 -44q1 -9 0 -23.5t-1 -17.5q0 -23 -16 -39t-39 -16q-18 0 -33 10.5t-20 27.5q-38 11 -38 62q0 6 -1 8q-1 7 -6 12l-2 2q-7 7 -18 7zM452 537v-12 q0 -19 13.5 -32t32.5 -13t32 13t13 32v46q0 19 -13 32l-84 83q-12 14 -33 14h-186q-20 0 -32 -14l-84 -83q-13 -13 -13 -32v-441q0 -20 13 -33l84 -83q12 -14 32 -14h186q21 0 33 14l84 83q13 13 13 33v220q0 19 -13 32t-32 13h-151q-19 0 -32.5 -13t-13.5 -32t13.5 -32.5 t32.5 -13.5h60q19 0 32 -13t13 -32v-96q0 -15 -10 -25l-37 -37q-10 -10 -25 -10h-119q-15 0 -25 10l-37 37q-10 10 -10 25v374q0 15 10 25l37 37q10 10 25 10h119q15 0 25 -10l37 -37q10 -10 10 -25zM413 -119q38 -13 38 -52q0 -24 -17 -39l-81 -82q-15 -16 -39 -16 q-18 0 -33 10.5t-20 27.5q-38 12 -38 52q0 22 17 39l81 82q16 16 39 16q18 0 33 -10.5t20 -27.5zM311 -250l81 82q14 12 14 32q0 18 -14 32q-12 13 -32 13q-19 0 -32 -13l-81 -82q-14 -14 -14 -32t14 -32q12 -13 32 -13q19 0 32 13z" glyph-name="gcommaaccent" unicode="ģ"/><glyph d="M451 881l32 -31q14 -14 14 -36t-13.5 -35.5t-35.5 -13.5q-18 0 -32 11q-12 9 -23 22l-2 2l-5 6q-4 4 -6 5l-2 2l-5 4l-2 2q-8 5 -16 5t-19 -8l-21 -21l-6 -6q0 -1 -2 -3t-3 -2l-6 -6q-16 -13 -36 -13q-18 0 -31 10t-17 27q-16 4 -26.5 17t-10.5 30q0 24 15 36l93 92 q15 15 35 15t35 -15l93 -92q0 -1 1 -2zM255 821l37 36q10 12 28 12q16 0 28 -12l36 -36q11 -11 29 -11q17 0 28 11t11 28q0 18 -11 29l-93 92q-12 12 -28 12q-18 0 -28 -12l-93 -92q-12 -12 -12 -29t11.5 -28t28.5 -11q18 0 28 11zM588 620v-610q0 -23 -16 -39t-39 -16 q-18 0 -33 10.5t-20 27.5q-38 12 -38 52v215h-173q-14 0 -24.5 -11t-10.5 -25v-214q0 -23 -16.5 -39t-39.5 -16q-40 0 -52 38q-38 12 -38 52v610q0 23 16 39t39 16q18 0 33 -10.5t20 -27.5q38 -13 38 -52v-215h173q14 0 24.5 10.5t10.5 25.5v214q0 23 16.5 39t39.5 16 q40 0 52 -38q38 -12 38 -52zM543 45v610q0 19 -13 32t-32 13q-20 0 -33 -13t-13 -32v-214q0 -19 -13 -32.5t-32 -13.5h-173q-19 0 -32 13.5t-13 32.5v214q0 19 -13.5 32t-32.5 13t-32 -13t-13 -32v-610q0 -19 13 -32t32 -13t32.5 13t13.5 32v214q0 19 13 32.5t32 13.5h173 q19 0 32 -13.5t13 -32.5v-214q0 -19 13 -32t33 -13q19 0 32 13t13 32z" glyph-name="Hcircumflex" unicode="Ĥ"/><glyph d="M451 881l32 -31q14 -14 14 -36t-13.5 -35.5t-35.5 -13.5q-18 0 -32 11q-12 9 -23 22l-2 2l-5 6q-4 4 -6 5l-2 2l-5 4l-2 2q-8 5 -16 5t-19 -8l-21 -21l-6 -6q0 -1 -2 -3t-3 -2l-6 -6q-16 -13 -36 -13q-18 0 -31 10t-17 27q-16 4 -26.5 17t-10.5 30q0 24 15 36l93 92 q15 15 35 15t35 -15l93 -92q0 -1 1 -2zM255 821l37 36q10 12 28 12q16 0 28 -12l36 -36q11 -11 29 -11q17 0 28 11t11 28q0 18 -11 29l-93 92q-12 12 -28 12q-18 0 -28 -12l-93 -92q-12 -12 -12 -29t11.5 -28t28.5 -11q18 0 28 11zM588 620v-610q0 -23 -16 -39t-39 -16 q-18 0 -33 10.5t-20 27.5q-38 12 -38 52v215h-173q-14 0 -24.5 -11t-10.5 -25v-214q0 -23 -16.5 -39t-39.5 -16q-40 0 -52 38q-38 12 -38 52v610q0 23 16 39t39 16q18 0 33 -10.5t20 -27.5q38 -13 38 -52v-215h173q14 0 24.5 10.5t10.5 25.5v214q0 23 16.5 39t39.5 16 q40 0 52 -38q38 -12 38 -52zM543 45v610q0 19 -13 32t-32 13q-20 0 -33 -13t-13 -32v-214q0 -19 -13 -32.5t-32 -13.5h-173q-19 0 -32 13.5t-13 32.5v214q0 19 -13.5 32t-32.5 13t-32 -13t-13 -32v-610q0 -19 13 -32t32 -13t32.5 13t13.5 32v214q0 19 13 32.5t32 13.5h173 q19 0 32 -13.5t13 -32.5v-214q0 -19 13 -32t33 -13q19 0 32 13t13 32z" glyph-name="hcircumflex" unicode="ĥ"/><glyph d="M588 620v-24q27 -13 32 -34q37 -12 37 -51q0 -29 -18.5 -42.5t-45.5 -13.5q-5 0 -5 -5v-441q0 -23 -16 -39t-39 -16q-18 0 -33 10.5t-20 27.5q-38 12 -38 52v215h-173q-14 0 -24.5 -11t-10.5 -25v-214q0 -23 -16.5 -39t-39.5 -16q-40 0 -52 38q-38 12 -38 52v415 q-27 13 -33 35q-37 12 -37 52q0 55 65 55q5 0 5 5v49q0 23 16 39t39 16q18 0 33 -10.5t20 -27.5q38 -13 38 -52v-19h203q5 0 5 5v49q0 23 16.5 39t39.5 16q40 0 52 -38q38 -12 38 -52zM452 655v-49q0 -15 -15 -15h-233q-15 0 -15 15v49q0 19 -13.5 32t-32.5 13t-32 -13 t-13 -32v-49q0 -15 -15 -15h-10q-19 0 -32 -13t-13 -32q0 -20 13 -33t32 -13h10q15 0 15 -15v-441q0 -19 13 -32t32 -13t32.5 13t13.5 32v214q0 19 13 32.5t32 13.5h173q19 0 32 -13.5t13 -32.5v-214q0 -19 13 -32t33 -13q19 0 32 13t13 32v441q0 15 15 15h9q19 0 32 13 t13 33q0 19 -13 32t-32 13h-9q-15 0 -15 15v49q0 19 -13 32t-32 13q-20 0 -33 -13t-13 -32zM189 441v44q0 15 15 15h233q15 0 15 -15v-44q0 -19 -13 -32.5t-32 -13.5h-173q-19 0 -32 13.5t-13 32.5zM234 450v-45h173q14 0 24.5 10.5t10.5 25.5v14h-203q-5 0 -5 -5z" glyph-name="Hbar" unicode="Ħ"/><glyph d="M588 620v-24q27 -13 32 -34q37 -12 37 -51q0 -29 -18.5 -42.5t-45.5 -13.5q-5 0 -5 -5v-441q0 -23 -16 -39t-39 -16q-18 0 -33 10.5t-20 27.5q-38 12 -38 52v215h-173q-14 0 -24.5 -11t-10.5 -25v-214q0 -23 -16.5 -39t-39.5 -16q-40 0 -52 38q-38 12 -38 52v415 q-27 13 -33 35q-37 12 -37 52q0 55 65 55q5 0 5 5v49q0 23 16 39t39 16q18 0 33 -10.5t20 -27.5q38 -13 38 -52v-19h203q5 0 5 5v49q0 23 16.5 39t39.5 16q40 0 52 -38q38 -12 38 -52zM452 655v-49q0 -15 -15 -15h-233q-15 0 -15 15v49q0 19 -13.5 32t-32.5 13t-32 -13 t-13 -32v-49q0 -15 -15 -15h-10q-19 0 -32 -13t-13 -32q0 -20 13 -33t32 -13h10q15 0 15 -15v-441q0 -19 13 -32t32 -13t32.5 13t13.5 32v214q0 19 13 32.5t32 13.5h173q19 0 32 -13.5t13 -32.5v-214q0 -19 13 -32t33 -13q19 0 32 13t13 32v441q0 15 15 15h9q19 0 32 13 t13 33q0 19 -13 32t-32 13h-9q-15 0 -15 15v49q0 19 -13 32t-32 13q-20 0 -33 -13t-13 -32zM189 441v44q0 15 15 15h233q15 0 15 -15v-44q0 -19 -13 -32.5t-32 -13.5h-173q-19 0 -32 13.5t-13 32.5zM234 450v-45h173q14 0 24.5 10.5t10.5 25.5v14h-203q-5 0 -5 -5z" glyph-name="hbar" unicode="ħ"/><glyph d="M360 778l-79 79v-20q0 -20 -14 -34t-34 -14q-17 0 -29 10t-16 26q-37 8 -37 47v50q0 17 13 30l40 40q13 13 30 13h50q18 0 31 -13l79 -79v20q0 20 14.5 33.5t33.5 13.5q17 0 29.5 -10.5t16.5 -26.5q15 -3 25.5 -15.5t10.5 -29.5v-50q0 -19 -12 -31l-41 -40 q-14 -12 -30 -12h-50q-19 0 -31 13zM236 904l15 16h16l16 -16v-21q0 -14 9 -23l40 -40q10 -10 24 -10h50q16 0 23 10l41 40q9 9 9 23v50q0 15 -11 26t-26 11q-16 0 -27 -11t-11 -26v-33l-15 -15h-16l-16 15v22q0 12 -9 23l-40 40q-10 10 -24 10h-50q-13 0 -23 -10l-40 -40 q-10 -10 -10 -23v-50q0 -16 11 -27t26 -11q16 0 27 11t11 27v32zM488 -45h-265q-40 0 -52 38q-38 12 -38 52q0 23 16 39.5t39 16.5h42q14 0 24.5 10.5t10.5 24.5v428h-42q-39 0 -52 38q-17 5 -27.5 20t-10.5 33q0 23 16 39t39 16h265q40 0 52 -38q38 -12 38 -52 q0 -23 -16 -39.5t-39 -16.5h-42q-14 0 -24.5 -10.5t-10.5 -24.5v-428h42q40 0 52 -38q17 -5 27.5 -20t10.5 -33q0 -23 -16 -39t-39 -16zM188 0h265q19 0 32 13t13 32t-13 32.5t-32 13.5h-42q-19 0 -32 13t-13 32v428q0 19 13 32t32 13h42q19 0 32 13.5t13 32.5t-13 32 t-32 13h-265q-19 0 -32 -13t-13 -32t13 -32.5t32 -13.5h42q19 0 32 -13t13 -32v-428q0 -19 -13 -32t-32 -13h-42q-19 0 -32 -13.5t-13 -32.5t13 -32t32 -13z" glyph-name="Itilde" unicode="Ĩ"/><glyph d="M360 778l-79 79v-20q0 -20 -14 -34t-34 -14q-17 0 -29 10t-16 26q-37 8 -37 47v50q0 17 13 30l40 40q13 13 30 13h50q18 0 31 -13l79 -79v20q0 20 14.5 33.5t33.5 13.5q17 0 29.5 -10.5t16.5 -26.5q15 -3 25.5 -15.5t10.5 -29.5v-50q0 -19 -12 -31l-41 -40 q-14 -12 -30 -12h-50q-19 0 -31 13zM236 904l15 16h16l16 -16v-21q0 -14 9 -23l40 -40q10 -10 24 -10h50q16 0 23 10l41 40q9 9 9 23v50q0 15 -11 26t-26 11q-16 0 -27 -11t-11 -26v-33l-15 -15h-16l-16 15v22q0 12 -9 23l-40 40q-10 10 -24 10h-50q-13 0 -23 -10l-40 -40 q-10 -10 -10 -23v-50q0 -16 11 -27t26 -11q16 0 27 11t11 27v32zM488 -45h-265q-40 0 -52 38q-38 12 -38 52q0 23 16 39.5t39 16.5h42q14 0 24.5 10.5t10.5 24.5v428h-42q-39 0 -52 38q-17 5 -27.5 20t-10.5 33q0 23 16 39t39 16h265q40 0 52 -38q38 -12 38 -52 q0 -23 -16 -39.5t-39 -16.5h-42q-14 0 -24.5 -10.5t-10.5 -24.5v-428h42q40 0 52 -38q17 -5 27.5 -20t10.5 -33q0 -23 -16 -39t-39 -16zM188 0h265q19 0 32 13t13 32t-13 32.5t-32 13.5h-42q-19 0 -32 13t-13 32v428q0 19 13 32t32 13h42q19 0 32 13.5t13 32.5t-13 32 t-32 13h-265q-19 0 -32 -13t-13 -32t13 -32.5t32 -13.5h42q19 0 32 -13t13 -32v-428q0 -19 -13 -32t-32 -13h-42q-19 0 -32 -13.5t-13 -32.5t13 -32t32 -13z" glyph-name="itilde" unicode="ĩ"/><glyph d="M450 775h-189q-40 0 -52 38q-38 12 -38 52q0 23 16 39.5t39 16.5h189q40 0 52 -38q17 -5 27.5 -20t10.5 -33q0 -23 -16 -39t-39 -16zM226 820h189q19 0 32 13t13 32t-13 32.5t-32 13.5h-189q-19 0 -32 -13.5t-13 -32.5t13 -32t32 -13zM488 -45h-265q-40 0 -52 38 q-38 12 -38 52q0 23 16 39.5t39 16.5h42q14 0 24.5 10.5t10.5 24.5v428h-42q-39 0 -52 38q-17 5 -27.5 20t-10.5 33q0 23 16 39t39 16h265q40 0 52 -38q38 -12 38 -52q0 -23 -16 -39.5t-39 -16.5h-42q-14 0 -24.5 -10.5t-10.5 -24.5v-428h42q40 0 52 -38q17 -5 27.5 -20 t10.5 -33q0 -23 -16 -39t-39 -16zM188 0h265q19 0 32 13t13 32t-13 32.5t-32 13.5h-42q-19 0 -32 13t-13 32v428q0 19 13 32t32 13h42q19 0 32 13.5t13 32.5t-13 32t-32 13h-265q-19 0 -32 -13t-13 -32t13 -32.5t32 -13.5h42q19 0 32 -13t13 -32v-428q0 -19 -13 -32t-32 -13 h-42q-19 0 -32 -13.5t-13 -32.5t13 -32t32 -13z" glyph-name="Imacron" unicode="Ī"/></font>
</defs>
</svg>
